<svg width="23" height="21" viewBox="0 0 23 21" fill="none" xmlns="http://www.w3.org/2000/svg">
<g clip-path="url(#clip0_1494_7777)">
<path d="M8.30556 7.78589C7.77847 7.78589 7.34722 8.20776 7.34722 8.72339V19.114C7.34722 19.6316 7.77648 20.0515 8.30556 20.0515C8.83464 20.0515 9.26389 19.6316 9.26389 19.114V8.72339C9.26389 8.20776 8.83663 7.78589 8.30556 7.78589ZM1.91667 14.0359C1.38759 14.0359 0.958333 14.4558 0.958333 14.9734V19.3484C0.958333 19.8679 1.38759 20.2859 1.91667 20.2859C2.44575 20.2859 2.875 19.866 2.875 19.3484V14.9734C2.875 14.4578 2.44575 14.0359 1.91667 14.0359ZM21.0833 0.285889C20.0252 0.285889 19.1667 1.12573 19.1667 2.16089C19.1667 2.25366 19.1816 2.34644 19.1966 2.43921L15.388 5.41772C15.1736 5.33667 14.938 5.28589 14.6944 5.28589C14.4509 5.28589 14.2153 5.33472 14.0005 5.41772L10.1943 2.43901C10.2063 2.34644 10.2222 2.25386 10.2222 2.16089C10.2222 1.12573 9.36372 0.285889 8.30556 0.285889C7.2474 0.285889 6.38889 1.12573 6.38889 2.16089C6.38889 2.3269 6.41884 2.48804 6.45877 2.6394L2.40582 6.60425C2.25089 6.56714 2.08637 6.53589 1.91667 6.53589C0.858507 6.53589 0 7.37573 0 8.41089C0 9.44604 0.858507 10.2859 1.91667 10.2859C2.97483 10.2859 3.83333 9.44604 3.83333 8.41089C3.83333 8.24487 3.80339 8.08374 3.76345 7.93237L7.81641 3.96753C7.97014 4.00659 8.13785 4.03589 8.30556 4.03589C8.55013 4.03589 8.78472 3.98706 8.99955 3.90405L12.8081 6.88257C12.7938 6.97729 12.7778 7.06714 12.7778 7.16089C12.7778 8.19604 13.6363 9.03589 14.6944 9.03589C15.7526 9.03589 16.6111 8.19604 16.6111 7.16089C16.6111 7.06812 16.5961 6.97534 16.5812 6.88257L20.3897 3.90405C20.6042 3.98706 20.8398 4.03589 21.0833 4.03589C22.1415 4.03589 23 3.19604 23 2.16089C23 1.12573 22.1415 0.285889 21.0833 0.285889ZM14.6944 12.7859C14.1654 12.7859 13.7361 13.2058 13.7361 13.7234V19.1648C13.7361 19.6824 14.1654 20.1023 14.6944 20.1023C15.2235 20.1023 15.6528 19.6824 15.6528 19.1648V13.7234C15.6528 13.2078 15.2255 12.7859 14.6944 12.7859ZM21.0833 7.78589C20.5543 7.78589 20.125 8.20581 20.125 8.72339V19.3445C20.125 19.8621 20.5543 20.282 21.0833 20.282C21.6124 20.282 22.0417 19.8621 22.0417 19.3445V8.72339C22.0417 8.20776 21.6144 7.78589 21.0833 7.78589Z" fill="#F37A20"/>
</g>
<defs>
<clipPath id="clip0_1494_7777">
<rect width="23" height="20" fill="white" transform="translate(0 0.285889)"/>
</clipPath>
</defs>
</svg>
