<svg width="132" height="144" viewBox="0 0 132 144" fill="none" xmlns="http://www.w3.org/2000/svg">
<path d="M24.3516 111.771H99.5633C100.807 111.771 101.842 111.541 103.022 111.206V126.684H24.3516C20.2584 126.684 16.9346 123.347 16.9346 119.227C16.9346 115.108 20.2584 111.771 24.3516 111.771Z" fill="#F9FAFC" stroke="white"/>
<path d="M24.3516 111.271H99.5633C106.122 111.271 111.439 105.928 111.439 99.3362V27.7275C111.439 21.136 106.12 15.7927 99.5633 15.7927H24.3516C11.2341 15.7927 0.600586 26.4793 0.600586 39.6623V119.228C0.600586 132.41 11.2341 143.097 24.3516 143.097H103.522C107.894 143.097 111.439 139.534 111.439 135.364C111.439 130.74 107.901 127.184 103.522 127.184H24.698C20.5638 127.184 16.8701 124.146 16.4792 120.008C16.0215 115.274 19.7227 111.271 24.3516 111.271Z" fill="#F3F6F9"/>
<path d="M71.4649 19.445C51.9968 19.445 36.1627 35.3606 36.1627 54.6884C36.1627 74.2484 51.9968 89.9319 71.4649 89.9319C90.933 89.9319 106.767 74.0163 106.767 54.6884C106.767 35.358 90.933 19.445 71.4649 19.445ZM71.4649 23.3841C77.1314 23.3841 83.3482 35.3084 83.831 52.3667H59.1091C59.5764 35.5406 65.8061 23.3841 71.4649 23.3841ZM62.3538 25.1424C58.0708 31.0537 55.2674 40.8624 54.9559 52.6015H40.5236C41.4061 39.7145 50.2836 28.8884 62.3538 25.1424ZM40.5236 56.7754H54.9455C55.2568 68.5145 58.0734 78.558 62.3616 84.4797C50.2836 80.958 41.4061 70.1319 40.5236 56.7754ZM71.4649 85.9928C65.7984 85.9928 59.5815 74.0658 59.0987 56.7754H83.8336C83.3534 74.3058 77.1236 85.9928 71.4649 85.9928ZM80.5759 84.7145C84.8641 78.8032 87.6805 68.7597 87.992 57.0102H102.414C101.524 70.1319 92.6461 80.958 80.5759 84.7145ZM87.9738 52.6015C87.6626 40.8624 84.8459 30.8189 80.5578 24.8971C92.628 28.638 101.516 39.4667 102.396 52.6015H87.9738ZM125.456 100.836V9.01018C125.456 4.40061 121.737 0.662354 117.15 0.662354H25.7798C16.6038 0.662354 9.16699 8.13627 9.16699 17.358V119.384C9.16699 127.453 15.6745 133.993 23.4695 133.993L122.913 133.995C124.522 133.993 125.456 133.288 125.456 131.906C125.456 130.752 124.526 129.817 123.378 129.817H117.15V109.184C121.744 109.184 125.456 105.454 125.456 100.836ZM112.997 129.819H23.7032C17.6343 129.819 12.7699 124.565 13.3695 118.346C13.8938 112.925 18.7427 108.949 24.1626 108.949L112.997 109.184V129.819ZM23.7032 104.775C19.633 104.775 15.9627 106.475 13.3202 109.192V17.358C13.3202 10.4528 18.9088 4.83627 25.7798 4.83627H117.15C119.444 4.83627 121.303 6.70514 121.303 9.01018V100.836C121.303 103.138 119.44 105.01 117.15 105.01L23.7032 104.775Z" fill="white"/>
</svg>
