<svg width="141" height="130" viewBox="0 0 141 130" fill="none" xmlns="http://www.w3.org/2000/svg">
<path d="M25.6094 9.98767H104.249C115.683 9.98767 124.944 19.2663 124.944 30.7106V34.8551H134.799C140.309 34.8551 143.077 41.5642 139.171 45.2425L120.831 63.6081C118.632 66.0431 114.7 66.0431 112.268 63.6081L93.9276 45.2425C90.2543 41.5642 93.0222 34.8551 98.5321 34.8551H108.388V30.7106C108.388 28.431 106.525 26.566 104.249 26.566H83.5544V43.1443C83.5544 52.2883 76.1302 59.7226 66.9987 59.7226H25.6094C16.465 59.7226 9.05371 52.2883 9.05371 43.1443V26.566C9.05371 17.4091 16.465 9.98767 25.6094 9.98767Z" fill="#F3F6F9"/>
<path d="M25.0918 129.662C15.9474 129.662 8.53613 122.228 8.53613 113.084V96.5058C8.53613 87.3618 15.9474 79.9275 25.0918 79.9275H124.426C133.558 79.9275 140.982 87.3618 140.982 96.5058V113.084C140.982 122.228 133.558 129.662 124.426 129.662H25.0918Z" fill="#F3F6F9"/>
<path d="M111.751 89.7708C112.889 89.7708 113.82 90.7033 113.82 91.8431C113.82 92.9828 112.889 93.9154 111.751 93.9154H20.6946C19.5512 93.9154 18.6252 92.9828 18.6252 91.8431C18.6252 90.7033 19.5512 89.7708 20.6946 89.7708H111.751ZM132.446 100.132C132.446 109.276 125.021 116.711 115.89 116.711H16.5557C7.41126 116.711 0 109.276 0 100.132V83.5539C0 74.41 7.41126 66.9756 16.5557 66.9756H115.89C125.021 66.9756 132.446 74.41 132.446 83.5539V100.132ZM115.89 71.1202H16.5557C9.69802 71.1202 4.13893 76.6895 4.13893 83.5539V100.132C4.13893 106.997 9.69802 112.566 16.5557 112.566H115.89C122.745 112.566 128.307 106.997 128.307 100.132V83.5539C128.307 76.6895 122.745 71.1202 115.89 71.1202ZM68.8872 4.80693C72.3277 7.84543 74.5006 12.2879 74.5006 17.2407V33.819C74.5006 42.963 67.0765 50.3973 57.945 50.3973H16.5557C7.41126 50.3973 0 42.963 0 33.819V17.2407C0 8.08374 7.41126 0.662354 16.5557 0.662354H95.1953C103.189 0.662354 109.682 7.15639 109.682 15.1684V45.3979L122.693 32.3425C123.521 31.5395 124.814 31.5395 125.642 32.3425C126.444 33.1714 126.444 34.4666 125.642 35.2955L109.087 51.8738C108.259 52.6768 106.965 52.6768 106.138 51.8738L89.5819 35.2955C88.7799 34.4666 88.7799 33.1714 89.5819 32.3425C90.4096 31.5395 91.7031 31.5395 92.5308 32.3425L105.543 45.3979V15.1684C105.543 9.44627 100.912 4.80693 95.1953 4.80693H68.8872ZM57.945 4.80693H16.5557C9.69802 4.80693 4.13893 10.3736 4.13893 17.2407V33.819C4.13893 40.6834 9.69802 46.2527 16.5557 46.2527H57.945C64.8 46.2527 70.3617 40.6834 70.3617 33.819V17.2407C70.3617 10.3736 64.8 4.80693 57.945 4.80693Z" fill="white"/>
<path d="M54.0642 25.2708C54.0642 24.131 53.133 23.1985 51.9948 23.1985H17.59C16.4466 23.1985 15.5205 24.131 15.5205 25.2708C15.5205 26.4105 16.4466 27.3431 17.59 27.3431H51.9948C53.133 27.3431 54.0642 26.4105 54.0642 25.2708Z" fill="white"/>
</svg>
