<svg width="30" height="40" viewBox="0 0 30 40" fill="none" xmlns="http://www.w3.org/2000/svg">
<g filter="url(#filter0_d_2074_1638)">
<path d="M16.4571 26.7131C16.1954 26.6053 15.9102 26.7322 15.8046 26.9951L13.7594 32.1481C13.6444 32.4301 13.3944 32.4623 13.3194 32.4688C13.2471 32.4718 12.9893 32.4627 12.8506 32.1868L11.3404 29.113C11.2389 28.9055 11.0182 28.7927 10.7974 28.8401L7.60147 29.4995C7.3397 29.5538 7.17568 29.3937 7.11899 29.3242C7.06235 29.2527 6.93928 29.0603 7.03892 28.8025L9.00972 23.6875C9.11129 23.4227 8.98628 23.1236 8.73038 23.0179C8.48036 22.9192 8.18346 23.041 8.0797 23.3069L6.1089 28.4219C5.90575 28.9496 5.99757 29.5485 6.35111 29.9849C6.70464 30.4199 7.25744 30.6238 7.79624 30.51L10.6209 29.9277L11.9604 32.6521C12.2186 33.1777 12.7256 33.5 13.2944 33.5C13.3158 33.5 13.3359 33.4992 13.3574 33.4982C13.9512 33.4731 14.4606 33.1052 14.685 32.5392L16.7302 27.3862C16.8322 27.1191 16.7134 26.8227 16.4571 26.7131ZM21.6201 23.7869C22.0328 23.7869 22.4639 23.8354 22.874 23.8354C23.2844 23.8354 23.6728 23.7867 23.9997 23.5921C24.8735 23.0708 25.0954 21.6559 25.8049 20.9244C26.5143 20.1928 27.8863 19.9653 28.392 19.0636C28.8908 18.1748 28.4023 16.8374 28.6653 15.8222C28.9208 14.8408 29.9459 13.9385 29.9459 12.875C29.9459 11.8115 28.8664 10.9079 28.612 9.92756C28.349 8.91242 28.8378 7.57502 28.3392 6.68621C27.8337 5.78516 26.4621 5.55699 25.7527 4.82545C25.0432 4.09391 24.822 2.67916 23.9481 2.15773C23.6214 1.96276 23.2318 1.91378 22.8212 1.91378C22.4119 1.91378 21.9817 1.96199 21.5692 1.96199C21.303 1.96199 21.0447 1.94185 20.8047 1.87575C19.9075 1.61311 19.0324 0.5 18.001 0.5C16.9697 0.5 16.0946 1.61311 15.1445 1.87543C14.905 1.94137 14.6472 1.96154 14.3813 1.96154C13.9687 1.96154 13.5375 1.91307 13.1275 1.91307C12.7168 1.91307 12.3274 1.96207 12.0017 2.15683C11.1254 2.67787 10.9041 4.09262 10.1947 4.82352C9.48589 5.55506 8.11327 5.78322 7.6076 6.68428C7.1088 7.57051 7.59759 8.91113 7.33445 9.92305C7.07942 10.9092 6 11.8115 6 12.875C6 13.9385 7.07947 14.8421 7.33387 15.8224C7.59683 16.8376 7.10791 18.175 7.60646 19.0638C8.11264 19.9648 9.48401 20.1904 10.1928 20.9252C10.9023 21.6567 11.1235 23.0715 11.998 23.5936C12.3247 23.7884 12.7137 23.837 13.125 23.837C13.5339 23.837 13.9644 23.7889 14.377 23.7889C14.6431 23.7889 14.9014 23.8089 15.1414 23.8751C16.0946 24.135 16.9697 25.25 18.001 25.25C19.0324 25.25 19.9087 24.1369 20.86 23.8746C21.1013 23.8063 21.3576 23.7869 21.6201 23.7869ZM19.1199 23.658C18.7136 23.9352 18.2948 24.2188 18.001 24.2188C17.7076 24.2188 17.2878 23.9339 16.8822 23.6585C16.45 23.3651 15.9602 23.0328 15.3989 22.8779C15.0991 22.7952 14.7741 22.7567 14.3763 22.7567C14.1517 22.7567 13.9219 22.7693 13.6925 22.7824C13.5013 22.7933 13.3104 22.8048 13.1243 22.8048C12.8216 22.8048 12.6167 22.7705 12.4987 22.7C12.2594 22.5572 12.0369 22.1007 11.8217 21.6591C11.5861 21.1755 11.3192 20.6272 10.8998 20.1954C10.4816 19.765 9.94968 19.4879 9.48089 19.243C9.05273 19.0238 8.61019 18.7918 8.47142 18.5469C8.33829 18.3084 8.36579 17.8057 8.39204 17.3158C8.42142 16.7744 8.45517 16.1557 8.30016 15.5563C8.15027 14.9775 7.82793 14.4728 7.54321 14.0274C7.27632 13.6098 7.00004 13.1779 7.00004 12.875C7.00004 12.5723 7.27644 12.1396 7.54353 11.7206C7.82799 11.2753 8.15027 10.7706 8.30047 10.1918C8.45548 9.59388 8.42229 8.97752 8.39298 8.43289C8.36641 7.94434 8.33954 7.4416 8.4733 7.14512C8.612 6.89826 9.05441 6.669 9.48214 6.44709C9.95093 6.26018 10.4829 5.98496 10.9023 5.55312C11.3215 5.12097 11.5886 4.57279 11.8242 4.08939C12.0386 3.64789 12.263 3.19156 12.5005 3.04848C12.6187 2.97809 12.8231 2.94387 13.1253 2.94387C13.3116 2.94387 13.5028 2.95545 13.6943 2.9664C13.9257 2.97951 14.1569 2.9924 14.382 2.9924C14.7794 2.9924 15.1039 2.95388 15.4033 2.87129C15.9646 2.71674 16.454 2.38435 16.8859 2.09077C17.2885 1.81613 17.7073 1.53125 18.001 1.53125C18.2947 1.53125 18.7142 1.81613 19.1205 2.09167C19.5524 2.38487 20.0425 2.71719 20.6031 2.8722C20.903 2.95489 21.228 2.99343 21.6257 2.99343C21.8504 2.99343 22.0799 2.98085 22.3089 2.96763C22.5001 2.95668 22.691 2.94522 22.8773 2.94522C23.1801 2.94522 23.385 2.97958 23.503 3.04995C23.7423 3.19297 23.9648 3.6493 24.18 4.09087C24.4156 4.57453 24.6825 5.12277 25.1019 5.5546C25.5209 5.98689 26.0526 6.2623 26.5214 6.50528C26.9492 6.72707 27.3921 6.95633 27.5303 7.20331C27.6636 7.44108 27.6362 7.94581 27.6098 8.43437C27.5805 8.97854 27.5471 9.59517 27.7022 10.1939C27.852 10.7724 28.1744 11.2767 28.4585 11.7221C28.727 12.1402 29.002 12.5721 29.002 12.875C29.002 13.1777 28.7256 13.6104 28.4585 14.0294C28.1743 14.4747 27.852 14.9794 27.7016 15.5582C27.5466 16.1562 27.5798 16.7731 27.6091 17.3171C27.6355 17.8055 27.6628 18.311 27.5293 18.5488C27.3906 18.7958 26.9479 19.0252 26.5198 19.2468C26.0508 19.4897 25.5191 19.765 25.0997 20.1975C24.681 20.6294 24.414 21.1772 24.1783 21.6606C23.9633 22.1021 23.7408 22.5584 23.5014 22.7015C23.3832 22.7719 23.1789 22.8063 22.8766 22.8063C22.6903 22.8063 22.4991 22.7947 22.3077 22.7836C22.0779 22.7705 21.8477 22.7578 21.6226 22.7578C21.2254 22.7578 20.9007 22.7962 20.6013 22.8788C20.0387 23.0328 19.5512 23.368 19.1199 23.658ZM23.4453 12.875C23.4453 9.73613 20.9832 7.20312 18.001 7.20312C15.0189 7.20312 12.5005 9.73613 12.5005 12.875C12.5005 16.0061 14.9626 18.5469 17.9448 18.5469C20.9269 18.5469 23.4453 16.0074 23.4453 12.875ZM27.9269 23.31C27.8254 23.0441 27.5285 22.9182 27.2762 23.021C27.0203 23.1267 26.8953 23.4258 26.9969 23.6906L28.9677 28.8043C29.0673 29.0621 28.9443 29.2545 28.8876 29.326C28.831 29.3955 28.665 29.5556 28.4052 29.5013L25.2092 28.8419C24.9944 28.7946 24.7678 28.9074 24.6662 29.1148L23.1561 32.1873C23.014 32.4623 22.7577 32.4688 22.6827 32.4688C22.6084 32.4647 22.3546 32.4325 22.2413 32.1485L20.1961 26.9955C20.0887 26.7326 19.7996 26.6047 19.5435 26.7135C19.2877 26.8212 19.1666 27.1224 19.2701 27.3864L21.3153 32.5394C21.5399 33.1054 22.0491 33.4733 22.6429 33.4985C22.664 33.442 22.6327 33.5 22.7077 33.5C23.2761 33.5 23.7828 33.1805 24.0422 32.6531L25.3817 29.928L28.2063 30.5103C28.7415 30.6191 29.2983 30.4192 29.6515 29.9852C30.005 29.5491 30.0968 28.9501 29.8937 28.4222L27.9269 23.31Z" fill="white"/>
</g>
<defs>
<filter id="filter0_d_2074_1638" x="0" y="0.5" width="30" height="39" filterUnits="userSpaceOnUse" color-interpolation-filters="sRGB">
<feFlood flood-opacity="0" result="BackgroundImageFix"/>
<feColorMatrix in="SourceAlpha" type="matrix" values="0 0 0 0 0 0 0 0 0 0 0 0 0 0 0 0 0 0 127 0" result="hardAlpha"/>
<feOffset dx="-3" dy="3"/>
<feGaussianBlur stdDeviation="1.5"/>
<feComposite in2="hardAlpha" operator="out"/>
<feColorMatrix type="matrix" values="0 0 0 0 0 0 0 0 0 0 0 0 0 0 0 0 0 0 0.1 0"/>
<feBlend mode="normal" in2="BackgroundImageFix" result="effect1_dropShadow_2074_1638"/>
<feBlend mode="normal" in="SourceGraphic" in2="effect1_dropShadow_2074_1638" result="shape"/>
</filter>
</defs>
</svg>
