<svg width="26" height="21" viewBox="0 0 26 21" fill="none" xmlns="http://www.w3.org/2000/svg">
<g clip-path="url(#clip0_1494_7781)">
<path d="M6.5 12.7859C8.65394 12.7859 10.4 11.107 10.4 9.03589C10.4 6.9648 8.65394 5.28589 6.5 5.28589C4.31031 5.28589 2.6 6.93042 2.6 9.03589C2.6 11.1062 4.31031 12.7859 6.5 12.7859ZM6.5 7.16089C7.57534 7.16089 8.45 8.0019 8.45 9.03589C8.45 10.0699 7.57656 10.9109 6.5 10.9109C5.42344 10.9109 4.55 10.071 4.55 9.03589C4.55 8.00073 5.42344 7.16089 6.5 7.16089ZM7.8 14.0359H5.2C2.32822 14.0359 0 16.2742 0 19.0359C0 19.7261 0.582156 20.2859 1.3 20.2859H11.7C12.4178 20.2859 13 19.7261 13 19.0359C13 16.2742 10.6722 14.0359 7.8 14.0359ZM2.01541 18.4109C2.31725 16.9851 3.63066 15.9109 5.2 15.9109H7.8C9.36934 15.9109 10.6827 16.9863 10.9846 18.4109H2.01541ZM23.725 0.285889H8.775C7.51969 0.285889 6.5 1.26714 6.5 2.47339V3.41089C6.5 3.92847 6.93672 4.34839 7.475 4.34839C8.01328 4.34839 8.45 3.92847 8.45 3.41089V2.47339C8.45 2.30128 8.59601 2.16089 8.775 2.16089H23.725C23.904 2.16089 24.05 2.30128 24.05 2.47339V14.3484C24.05 14.5205 23.904 14.6609 23.725 14.6609H14.3C13.7617 14.6609 13.325 15.0808 13.325 15.5984C13.325 16.116 13.7637 16.5359 14.3 16.5359H23.725C24.9795 16.5359 26 15.5546 26 14.3484V2.47339C26 1.26714 24.9803 0.285889 23.725 0.285889ZM13.3291 6.80933C12.9482 6.44312 12.3297 6.44312 11.9486 6.80933C11.5676 7.17554 11.5686 7.76948 11.9495 8.13589L14.8737 10.9492C15.1003 11.1335 15.3481 11.2234 15.6 11.2234C15.8519 11.2234 16.0997 11.1326 16.2902 10.9496L20.15 7.23511V8.09839C20.15 8.61792 20.5887 9.03589 21.125 9.03589C21.6612 9.03589 22.1 8.61792 22.1 8.09839V4.97339C22.1 4.45776 21.6653 4.03589 21.125 4.03589H17.875C17.3387 4.03589 16.9 4.45776 16.9 4.97339C16.9 5.48901 17.3367 5.91089 17.875 5.91089H18.7712L15.6 8.95776L13.3291 6.80933Z" fill="#3F6587"/>
</g>
<defs>
<clipPath id="clip0_1494_7781">
<rect width="26" height="20" fill="white" transform="translate(0 0.285889)"/>
</clipPath>
</defs>
</svg>
