<svg width="22" height="16" viewBox="0 0 22 16" fill="none" xmlns="http://www.w3.org/2000/svg">
<path d="M8.06788 5.13176V3.83868C8.18973 3.83868 8.32028 3.82121 8.45083 3.82121C11.993 3.70763 14.3081 6.86168 14.3081 6.86168C14.3081 6.86168 11.8103 10.3477 9.11227 10.3477C8.75544 10.3477 8.40731 10.2953 8.06788 10.1817V6.25883C9.44299 6.42483 9.7215 7.03642 10.5483 8.41686L12.3847 6.86168C12.3847 6.86168 11.0444 5.09681 8.78155 5.09681C8.54656 5.08807 8.30287 5.10555 8.06788 5.13176ZM8.06788 0.859375V2.79025C8.19843 2.78151 8.32028 2.77277 8.45083 2.76404C13.3681 2.59803 16.5709 6.80052 16.5709 6.80052C16.5709 6.80052 12.8895 11.2739 9.06005 11.2739C8.72933 11.2739 8.39861 11.2476 8.06788 11.1865V12.3747C8.33768 12.4097 8.61619 12.4271 8.89469 12.4271C12.463 12.4271 15.0392 10.6011 17.537 8.45181C17.946 8.79255 19.6432 9.58762 19.9913 9.94583C17.6153 11.9379 12.0801 13.5367 8.94691 13.5367C8.651 13.5367 8.36379 13.5193 8.06788 13.493V15.1705H21.6188V0.859375H8.06788ZM8.06788 10.173V11.1865C4.76936 10.6011 3.84682 7.16747 3.84682 7.16747C4.98694 6.03167 6.46649 5.31523 8.06788 5.12302V6.24135C6.68407 6.07535 5.60487 7.36842 5.60487 7.36842C5.60487 7.36842 6.2141 9.54393 8.06788 10.173ZM2.21062 7.01894C3.62054 5.1667 5.75283 4.01342 8.06788 3.82995V2.78151C3.74238 3.13099 0 6.79178 0 6.79178C0 6.79178 2.12358 12.9251 8.06788 13.4843V12.3834C3.70757 11.833 2.21062 7.01894 2.21062 7.01894Z" fill="#76B900"/>
</svg>
