<svg width="20" height="24" viewBox="0 0 20 24" fill="none" xmlns="http://www.w3.org/2000/svg">
<path d="M0.955627 4.81268L10.3295 5.86116L6.30323 3.66504L0.955627 4.81268Z" fill="#FFCC33"/>
<path d="M10.3295 5.8613L11.3349 0.989258L6.30322 3.66518L10.3295 5.8613Z" fill="#FF6633"/>
<path d="M11.3349 0.989258L15.5378 4.63731L10.3295 5.8613L11.3349 0.989258Z" fill="#FF9933"/>
<path d="M10.3295 5.86169L20 7.35806L15.5378 4.6377L10.3295 5.86169Z" fill="#FF6633"/>
<path d="M10.3295 5.86133L14.2335 15.1792L20 7.3577L10.3295 5.86133Z" fill="#FF3399"/>
<path d="M10.3295 5.86099L4.38973 13.7873L0.955627 4.8125L10.3295 5.86099Z" fill="#FF9933"/>
<path d="M20 7.35742L18.6888 13.1309L14.2335 15.1789L20 7.35742Z" fill="#FF6699"/>
<path d="M9.5788 11.6155L14.2335 15.1792L10.3295 5.86133L9.5788 11.6155Z" fill="#993366"/>
<path d="M18.3763 18.3801L18.6889 13.1309L14.2335 15.1788L18.3763 18.3801Z" fill="#FF3333"/>
<path d="M10.3295 5.86133L9.65126 11.5289L4.38971 13.7877L10.3295 5.86133Z" fill="#FFCC33"/>
<path d="M0.955627 4.8125L1.19227 10.8949L4.42709 13.8215L0.955627 4.8125Z" fill="#FF6633"/>
<path d="M1.19226 10.8955L4.38972 13.788L0 15.8188L1.19226 10.8955Z" fill="#FF9933"/>
<path d="M0 15.819L4.4803 18.9918L4.38972 13.7881L0 15.819Z" fill="#FFCC33"/>
<path d="M4.38971 13.7873L14.2901 15.1537L9.62522 11.5137L4.38971 13.7873Z" fill="#FF3333"/>
<path d="M14.29 15.1543L13.3571 20.317L18.3763 18.3807L14.29 15.1543Z" fill="#CC3333"/>
<path d="M14.2901 15.1543L8.13068 23.035L13.3571 20.317L14.2901 15.1543Z" fill="#FF6699"/>
<path d="M4.38971 13.7881L4.45425 18.9781L8.13292 23.041L4.38971 13.7881Z" fill="#FF3333"/>
<path d="M4.38971 13.7881L14.2901 15.1545L8.13065 23.0353L4.38971 13.7881Z" fill="#FFCC66"/>
</svg>
