<svg width="101" height="25" viewBox="0 0 101 25" fill="none" xmlns="http://www.w3.org/2000/svg">
<path d="M7.34398 13.0423C7.0551 12.8007 6.73058 12.6053 6.38193 12.463C6.08546 12.3428 5.76915 12.279 5.44925 12.2749C5.11738 12.2605 4.78999 12.3557 4.5175 12.5457C4.40389 12.6248 4.31148 12.7307 4.24841 12.8539C4.18534 12.9772 4.15354 13.1141 4.15581 13.2525C4.15006 13.4356 4.21593 13.6138 4.33941 13.7491C4.47473 13.8904 4.63542 14.005 4.81309 14.087C5.02476 14.1888 5.24502 14.2718 5.47129 14.3348C5.71608 14.4052 5.95904 14.4805 6.20017 14.5606C7.16344 14.8819 7.86723 15.3103 8.31154 15.8458C8.75584 16.3813 8.97892 17.0805 8.98075 17.9434C8.98862 18.4839 8.88908 19.0206 8.68791 19.5224C8.49789 19.9859 8.20466 20.4 7.83051 20.7332C7.42701 21.0848 6.95638 21.3508 6.44711 21.5153C5.84729 21.708 5.21994 21.801 4.59002 21.7907C3.16126 21.7932 1.76776 21.3472 0.605957 20.5156L1.86911 18.1399C2.25679 18.4981 2.69779 18.7938 3.17632 19.0166C3.58003 19.2 4.01806 19.2958 4.4615 19.2975C4.94375 19.2975 5.30238 19.1873 5.53738 18.967C5.70377 18.8228 5.81919 18.6288 5.86649 18.4138C5.91379 18.1988 5.89045 17.9743 5.79993 17.7736C5.72922 17.6357 5.62624 17.517 5.49974 17.4275C5.32948 17.3064 5.14437 17.2077 4.94895 17.1338C4.72313 17.0438 4.44987 16.9437 4.12919 16.8336C3.74853 16.7112 3.37491 16.5784 3.00833 16.4352C2.65356 16.2962 2.32369 16.1006 2.03159 15.8559C1.73806 15.6061 1.50196 15.2957 1.33943 14.9462C1.1644 14.579 1.07658 14.1154 1.07597 13.5555C1.06778 13.0335 1.16132 12.515 1.35136 12.0288C1.52699 11.5873 1.79346 11.1876 2.13349 10.8557C2.48719 10.5196 2.90708 10.2611 3.36634 10.0965C3.88986 9.90945 4.44266 9.81774 4.99852 9.82567C5.59183 9.82956 6.18235 9.90727 6.75647 10.057C7.36863 10.2128 7.95957 10.4424 8.51625 10.7409L7.34398 13.0423Z" fill="black"/>
<path d="M13.78 10.1396V16.3048C13.78 16.6362 13.7919 16.9741 13.8176 17.3201C13.8373 17.6442 13.9134 17.9623 14.0425 18.2602C14.169 18.5415 14.3756 18.7794 14.6365 18.9441C14.907 19.1197 15.2879 19.2075 15.7794 19.2075C16.2708 19.2075 16.6493 19.1197 16.9149 18.9441C17.1738 18.777 17.3798 18.5398 17.5089 18.2602C17.6434 17.9637 17.7224 17.6451 17.742 17.3201C17.7665 16.9744 17.7791 16.6359 17.7797 16.3048V10.1396H20.7099V16.7106C20.7099 18.4762 20.3063 19.7644 19.4991 20.5753C18.6918 21.3862 17.4513 21.7923 15.7775 21.7935C14.1031 21.7935 12.8599 21.3877 12.0478 20.5762C11.2356 19.7647 10.8296 18.4765 10.8296 16.7115V10.1396H13.78Z" fill="black"/>
<path d="M26.0341 21.4776H23.0874V10.1387H27.7783C29.0519 10.1387 30.0271 10.4695 30.7039 11.131C31.3808 11.7926 31.7189 12.7249 31.7183 13.9281C31.7183 15.1319 31.3802 16.0643 30.7039 16.7252C30.0277 17.3862 29.0525 17.7173 27.7783 17.7185H26.0341V21.4776ZM26.0341 15.3446H27.0118C28.0938 15.3446 28.6351 14.8733 28.6357 13.9309C28.6363 12.9884 28.095 12.5175 27.0118 12.5181H26.0341V15.3446Z" fill="black"/>
<path d="M39.7359 12.6347H36.232V14.5294H39.5367V17.0263H36.232V18.9807H39.7359V21.4776H33.2861V10.1387H39.7368L39.7359 12.6347Z" fill="black"/>
<path d="M51.2854 21.4768H47.6135L44.8007 17.1164V21.4768H41.854V10.1388H46.4439C47.0071 10.1263 47.5676 10.2197 48.0963 10.4142C48.5241 10.5713 48.9121 10.8204 49.2331 11.1438C49.5542 11.4672 49.8003 11.8571 49.9543 12.286C50.1119 12.7199 50.1908 13.1784 50.1875 13.64C50.1875 14.5023 49.9794 15.2015 49.5633 15.7376C49.1471 16.2737 48.533 16.6369 47.7209 16.8272L51.2854 21.4768ZM44.8035 15.2061H45.3598C45.9412 15.2061 46.3873 15.0858 46.6982 14.8453C47.0091 14.6048 47.1646 14.259 47.1646 13.808C47.1646 13.3563 47.0091 13.0106 46.6982 12.7707C46.3873 12.5308 45.9412 12.4096 45.3598 12.4071H44.8035V15.2061Z" fill="black"/>
<path d="M52.5181 21.4767V10.1386H55.4648L60.9094 17.0703V10.1377H63.8469V21.4767H60.9094L55.4648 14.544V21.4767H52.5181Z" fill="black"/>
<path d="M81.4647 10.1377L84.2022 17.04L86.9562 10.1377H90.1599L85.3781 21.4767H83.0318L78.2646 10.1386L81.4647 10.1377Z" fill="black"/>
<path d="M96.7888 19.5057H92.578L91.9015 21.4757H88.7583L93.0728 10.1367H96.2913L100.606 21.4757H97.4626L96.7888 19.5057ZM96.0067 17.2649L94.683 13.4901L93.3602 17.2649H96.0067Z" fill="black"/>
<path d="M4.58427 2.07164C4.28592 1.59796 3.8664 1.29227 3.24401 1.29227C3.07923 1.292 2.91605 1.32456 2.76399 1.38802C2.61193 1.45149 2.47402 1.5446 2.35832 1.66192C2.24262 1.77924 2.15145 1.91843 2.09011 2.07136C2.02877 2.22429 1.99849 2.38791 2.00105 2.55266C2.00105 3.24483 2.65741 3.53307 3.19443 3.78736L4.45575 4.44372C4.95422 4.7595 5.2085 5.1625 5.2085 5.75736C5.2085 6.8516 4.21065 7.67503 3.14211 7.67503C2.22412 7.67503 1.50442 7.10588 1.19873 6.25674L1.56593 6.09059C1.84132 6.79101 2.36274 7.28397 3.15955 7.28397C4.02613 7.28397 4.78806 6.60099 4.78806 5.72339C4.78806 4.9789 4.02613 4.66403 3.45698 4.38405L2.2636 3.75339C1.82572 3.478 1.58061 3.09703 1.58061 2.57102C1.58061 1.59061 2.28104 0.898452 3.27063 0.898452C3.59719 0.897166 3.91827 0.982357 4.20124 1.14537C4.48421 1.30838 4.71898 1.5434 4.8817 1.82654L4.58427 2.07164Z" fill="black"/>
<path d="M10.7397 7.58757H10.3193V1.38015H8.61182V0.986328H12.4481V1.38015H10.7406L10.7397 7.58757Z" fill="black"/>
<path d="M16.133 5.41621L15.249 7.58724H14.8193L17.5889 0.766602L20.3429 7.58724H19.9142L19.0292 5.41621H16.133ZM17.5861 1.83606L16.2909 5.02331H18.8741L17.5861 1.83606Z" fill="black"/>
<path d="M27.3396 7.58751H26.8604L24.7059 4.46177H24.4957V7.58751H24.0762V0.985352H24.9024C25.4366 0.985352 25.9617 0.994532 26.4088 1.31858C26.8815 1.65089 27.0743 2.17598 27.0743 2.73687C27.0743 3.88344 26.2775 4.48105 25.1823 4.46177L27.3396 7.58751ZM25.0245 4.06795C25.4366 4.06795 25.8506 4.04959 26.1802 3.76134C26.3306 3.63342 26.4503 3.47342 26.5307 3.29311C26.6111 3.1128 26.65 2.91677 26.6447 2.71943C26.6447 2.22831 26.417 1.7381 25.9443 1.52605C25.5936 1.35897 25.1475 1.37641 24.7619 1.37641H24.4865V4.0652L25.0245 4.06795Z" fill="black"/>
<path d="M32.6196 7.58751H32.1992V1.37917H30.4917V0.985352H34.3261V1.37917H32.6187L32.6196 7.58751Z" fill="black"/>
<path d="M42.0669 0.985352H42.4874V5.10069C42.4874 5.77449 42.4874 6.3519 42.0403 6.90361C41.5941 7.41218 40.9112 7.67472 40.2456 7.67472C39.5801 7.67472 38.8971 7.41218 38.451 6.90453C38.0039 6.35374 38.0039 5.77449 38.0039 5.10069V0.985352H38.4271V4.97768C38.4271 5.57345 38.4271 6.20319 38.7686 6.64107C39.0926 7.06151 39.7407 7.28366 40.2484 7.28366C40.756 7.28366 41.4041 7.06426 41.7282 6.64107C42.0697 6.20319 42.0697 5.57345 42.0697 4.97768L42.0669 0.985352Z" fill="black"/>
<path d="M47.2398 7.58654H46.8203V0.984375H47.9852C48.5021 0.984375 49.0005 1.02018 49.4127 1.36993C49.605 1.53888 49.7579 1.74792 49.8606 1.98233C49.9634 2.21674 50.0136 2.47083 50.0076 2.72671C50.0076 3.20039 49.824 3.72548 49.4568 4.03209C49.0538 4.38184 48.5021 4.45253 47.988 4.45253H47.2398V7.58654ZM48.0018 4.05779C48.4314 4.05779 48.816 4.00547 49.1575 3.69886C49.2961 3.57455 49.4063 3.42178 49.4804 3.251C49.5546 3.08021 49.591 2.89542 49.5871 2.70927C49.5926 2.50475 49.5503 2.30177 49.4636 2.11645C49.3769 1.93113 49.2482 1.76856 49.0877 1.64165C48.7545 1.38737 48.335 1.37911 47.932 1.37911H47.2398V4.05779H48.0018Z" fill="black"/>
<path d="M65.0947 9.80619L72.6947 10.6507L69.4304 8.88086L65.0947 9.80619Z" fill="#FFCC33"/>
<path d="M72.6945 10.651L73.5097 6.72656L69.4302 8.88108L72.6945 10.651Z" fill="#FF6633"/>
<path d="M73.5095 6.72656L76.9171 9.66412L72.6943 10.651L73.5095 6.72656Z" fill="#FF9933"/>
<path d="M72.6943 10.6509L80.5349 11.8553L76.9171 9.66406L72.6943 10.6509Z" fill="#FF6633"/>
<path d="M72.6943 10.6504L75.8596 18.1559L80.5349 11.8548L72.6943 10.6504Z" fill="#FF3399"/>
<path d="M72.6947 10.6502L67.8799 17.0348L65.0947 9.80566L72.6947 10.6502Z" fill="#FF9933"/>
<path d="M80.5352 11.8545L79.4721 16.505L75.8599 18.1556L80.5352 11.8545Z" fill="#FF6699"/>
<path d="M72.0859 15.2853L75.8598 18.1559L72.6946 10.6504L72.0859 15.2853Z" fill="#993366"/>
<path d="M79.2188 20.735L79.4721 16.5059L75.8599 18.1564L79.2188 20.735Z" fill="#FF3333"/>
<path d="M72.6947 10.6504L72.1448 15.2146L67.8799 17.035L72.6947 10.6504Z" fill="#FFCC33"/>
<path d="M65.0947 9.80566L65.2866 14.705L67.9093 17.0614L65.0947 9.80566Z" fill="#FF6633"/>
<path d="M65.2865 14.7051L67.8798 17.0349L64.3198 18.6699L65.2865 14.7051Z" fill="#FF9933"/>
<path d="M64.3198 18.6701L67.9523 21.2258L67.8798 17.0352L64.3198 18.6701Z" fill="#FFCC33"/>
<path d="M67.8799 17.0355L75.9058 18.1352L72.1237 15.2041L67.8799 17.0355Z" fill="#FF3333"/>
<path d="M75.9058 18.1348L75.1484 22.2942L79.2188 20.7345L75.9058 18.1348Z" fill="#CC3333"/>
<path d="M75.9055 18.1348L70.9116 24.4836L75.1481 22.2942L75.9055 18.1348Z" fill="#FF6699"/>
<path d="M67.8799 17.0352L67.9313 21.2148L70.9138 24.4883L67.8799 17.0352Z" fill="#FF3333"/>
<path d="M67.8799 17.0352L75.9058 18.1349L70.912 24.4837L67.8799 17.0352Z" fill="#FFCC66"/>
</svg>
