<svg width="87" height="31" viewBox="0 0 87 31" fill="none" xmlns="http://www.w3.org/2000/svg">
<path d="M13.2503 21.6245V27.3194H14.8527V21.6245H13.2503ZM0.605957 21.6245V27.3286H2.236V22.9927H3.48846C3.90288 22.9927 4.20678 23.0944 4.40018 23.3071C4.65804 23.5752 4.75934 24.0282 4.75934 24.814V27.3194H6.33413V24.1669C6.33413 21.9203 4.90669 21.6152 3.49767 21.6152L0.605957 21.6245ZM15.8381 21.6152V27.3102H18.4443C19.8349 27.3102 20.2862 27.079 20.7743 26.5613C21.1242 26.2008 21.3452 25.3964 21.3452 24.5274C21.3452 23.7231 21.1518 23.0112 20.8295 22.5675C20.2309 21.7724 19.3745 21.6152 18.0944 21.6152H15.8381ZM17.4313 22.8541H18.122C19.1258 22.8541 19.7705 23.3071 19.7705 24.4627C19.7705 25.6276 19.1258 26.0713 18.122 26.0713H17.4313V22.8541ZM10.9296 21.6152L9.59421 26.1268L8.30491 21.6245H6.56436L8.397 27.3194H10.7177L12.578 21.6245L10.9296 21.6152ZM22.1004 27.3102H23.7028V21.6245H22.1004V27.3102ZM26.6037 21.6152L24.3567 27.3194H25.9407L26.2998 26.3117H28.9521L29.2928 27.3194H31.015L28.7495 21.6245L26.6037 21.6152ZM31.8438 27.4858C31.5675 27.4858 31.3465 27.2547 31.3465 26.9773C31.3465 26.7 31.5767 26.4781 31.853 26.4781C32.1293 26.4781 32.3503 26.7 32.3503 26.9773C32.3503 27.2639 32.1293 27.4858 31.8438 27.4858C31.8438 27.4951 31.8438 27.4951 31.8438 27.4858ZM31.8438 26.5798C31.6228 26.5798 31.4386 26.7555 31.4294 26.9773C31.4294 27.1992 31.6044 27.3841 31.8254 27.3934C32.0464 27.4026 32.2306 27.2177 32.2398 26.9958V26.9866C32.2398 26.7647 32.0648 26.589 31.8438 26.5798C31.8438 26.589 31.8438 26.589 31.8438 26.5798ZM31.9359 27.2454L31.8346 27.042H31.7793V27.2454H31.6596V26.7092H31.8806C31.9727 26.7 32.0556 26.7739 32.0556 26.8664V26.8756C32.0556 26.9404 32.0188 26.9958 31.9543 27.0143L32.0648 27.2362L31.9359 27.2454ZM31.8622 26.8109H31.7793V26.9496H31.8622C31.8991 26.9588 31.9359 26.9311 31.9451 26.8941C31.9543 26.8571 31.9267 26.8202 31.8899 26.8109C31.8714 26.8109 31.8622 26.8109 31.8622 26.8109ZM27.6536 22.6599L28.6298 25.3225H26.6498L27.6536 22.6599Z" fill="black"/>
<path d="M11.1229 8.2835V6.91524C11.2519 6.91524 11.39 6.89675 11.5281 6.89675C15.2763 6.77656 17.726 10.114 17.726 10.114C17.726 10.114 15.0829 13.8028 12.228 13.8028C11.8505 13.8028 11.4821 13.7473 11.1229 13.6271V9.4761C12.578 9.65176 12.8727 10.2989 13.7476 11.7596L15.6907 10.114C15.6907 10.114 14.2725 8.24652 11.8781 8.24652C11.6294 8.23727 11.3716 8.25576 11.1229 8.2835ZM11.1229 3.7627V5.80584C11.2611 5.79659 11.39 5.78735 11.5281 5.7781C16.7314 5.60245 20.1204 10.0493 20.1204 10.0493C20.1204 10.0493 16.2249 14.7827 12.1728 14.7827C11.8228 14.7827 11.4729 14.755 11.1229 14.6903V15.9476C11.4084 15.9846 11.7031 16.0031 11.9978 16.0031C15.7736 16.0031 18.4996 14.0709 21.1426 11.7966C21.5755 12.1571 23.3713 12.9984 23.7396 13.3775C21.2255 15.4853 15.3684 17.1772 12.0531 17.1772C11.74 17.1772 11.436 17.1587 11.1229 17.131V18.906H25.4618V3.7627H11.1229ZM11.1229 13.6179V14.6903C7.63262 14.0709 6.65644 10.4376 6.65644 10.4376C7.86285 9.23573 9.42843 8.47764 11.1229 8.27425V9.45761C9.65866 9.28196 8.51671 10.6502 8.51671 10.6502C8.51671 10.6502 9.16136 12.9522 11.1229 13.6179ZM4.92509 10.2804C6.417 8.32048 8.67327 7.10014 11.1229 6.90599V5.79659C6.54592 6.16639 2.58594 10.04 2.58594 10.04C2.58594 10.04 4.833 16.53 11.1229 17.1217V15.9568C6.50909 15.3744 4.92509 10.2804 4.92509 10.2804Z" fill="#76B900"/>
<path d="M39.3501 0.62793H38.3501V30.6279H39.3501V0.62793Z" fill="#828282"/>
<path d="M45.3501 14.3953V8.3029H45.9947V14.3953H45.3501ZM51.4927 14.3953L48.2694 9.50475V14.3953H47.6156V8.3029H48.2326L51.4558 13.175V8.28441H52.1005V14.3769L51.4927 14.3953ZM55.7013 14.4416C55.1211 14.4508 54.5594 14.2197 54.1449 13.8129C53.574 13.2397 53.574 12.6388 53.574 11.3445C53.574 10.0502 53.574 9.44928 54.1449 8.87609C54.5594 8.46006 55.1211 8.23818 55.7013 8.24743C56.7972 8.24743 57.6076 8.91307 57.8102 10.0594H57.1472C56.9814 9.3106 56.4657 8.82986 55.7013 8.82986C55.3053 8.82062 54.9277 8.97778 54.6515 9.25513C54.2647 9.65267 54.2278 10.0687 54.2278 11.3445C54.2278 12.6203 54.2739 13.0363 54.6515 13.4339C54.9277 13.7112 55.3053 13.8684 55.7013 13.8591C56.4565 13.8591 56.9998 13.3692 57.1564 12.6296H57.801C57.6076 13.7667 56.7788 14.4416 55.7013 14.4416ZM59.164 14.3953V8.3029H62.9398V8.88533H59.8179V11.0394H62.4793V11.6219H59.8179V13.8222H62.9398V14.3953H59.164ZM66.5038 11.89H64.8922V14.3953H64.2475V8.3029H66.513C67.6181 8.3029 68.3917 8.99627 68.3917 10.0964C68.3917 11.1966 67.6089 11.89 66.5038 11.89ZM66.4393 8.87609H64.883V11.2983H66.4393C67.1945 11.2983 67.7286 10.8915 67.7286 10.0779C67.7286 9.26438 67.1945 8.87609 66.4393 8.87609ZM71.5781 8.87609V14.4046H70.9242V8.87609H69.1653V8.29365H73.3279V8.87609H71.5781ZM74.5343 14.3953V8.3029H75.1881V14.3953H74.5343ZM80.3177 13.8129C79.452 14.6542 78.0798 14.6542 77.2142 13.8129C76.6432 13.2397 76.6432 12.6388 76.6432 11.3445C76.6432 10.0502 76.6432 9.44928 77.2142 8.87609C78.0798 8.03479 79.452 8.03479 80.3177 8.87609C80.8887 9.44928 80.8887 10.0502 80.8887 11.3445C80.8887 12.6388 80.8979 13.2305 80.3177 13.8129ZM79.8112 9.26438C79.231 8.68194 78.2917 8.68194 77.7207 9.26438C77.3339 9.65267 77.2971 10.0687 77.2971 11.3445C77.2971 12.6203 77.3431 13.0363 77.7207 13.4246C78.3009 14.0071 79.2402 14.0071 79.8112 13.4246C80.198 13.0363 80.2348 12.6203 80.2348 11.3445C80.2348 10.0687 80.198 9.65267 79.8112 9.26438ZM86.2301 14.3953L83.0068 9.50475V14.3953H82.3622V8.3029H82.9792L86.2024 13.175V8.28441H86.8471V14.3769L86.2301 14.3953ZM47.6064 20.4508H46.004V22.9562H45.3593V16.8638H47.6248C48.7299 16.8638 49.5035 17.5571 49.5035 18.6573C49.4943 19.7574 48.7207 20.4508 47.6064 20.4508ZM47.5511 17.4462H45.9947V19.8684H47.5511C48.3155 19.8684 48.8404 19.4524 48.8404 18.648C48.8404 17.8437 48.3063 17.4462 47.5511 17.4462ZM54.2278 22.9562L52.8464 20.2474H51.3914V22.9562H50.7375V16.8638H53.0675C54.1265 16.8638 54.8725 17.5109 54.8725 18.5648C54.9093 19.3692 54.3383 20.0718 53.5463 20.2012L54.9922 22.9655L54.2278 22.9562ZM53.0122 17.4462H51.3914V19.6835H53.0122C53.7305 19.6835 54.2186 19.3137 54.2186 18.5648C54.2186 17.816 53.7213 17.4462 53.0122 17.4462ZM59.7994 22.3738C58.9338 23.2151 57.5616 23.2151 56.6959 22.3738C56.1249 21.8006 56.1249 21.1997 56.1249 19.9054C56.1249 18.6111 56.1249 18.0101 56.6959 17.437C57.5616 16.5957 58.9338 16.5957 59.7994 17.437C60.3704 18.0101 60.3704 18.6111 60.3704 19.9054C60.3704 21.1997 60.3704 21.8006 59.7994 22.3738ZM59.3021 17.8252C58.722 17.2428 57.7826 17.2428 57.2116 17.8252C56.8249 18.2228 56.788 18.6296 56.788 19.9054C56.788 21.1812 56.8341 21.588 57.2116 21.9855C57.7918 22.5679 58.7312 22.5679 59.3021 21.9855C59.6889 21.588 59.7258 21.1812 59.7258 19.9054C59.7258 18.6296 59.6797 18.2228 59.3021 17.8252ZM65.4079 22.3091C64.5606 23.2058 63.1608 23.2521 62.2583 22.4015C62.2491 22.3923 62.2399 22.383 62.2307 22.3738C61.6597 21.8006 61.6597 21.1997 61.6597 19.9054C61.6597 18.6111 61.6597 18.0101 62.2307 17.437C62.6451 17.0209 63.1977 16.799 63.7871 16.799C64.9474 16.799 65.7302 17.5571 65.9144 18.6203H65.2698C65.0948 17.8437 64.5514 17.3722 63.7963 17.3722C63.4003 17.3722 63.0227 17.5294 62.7464 17.8068C62.3596 18.2043 62.3228 18.6111 62.3228 19.8869C62.3228 21.1627 62.3688 21.5787 62.7464 21.9762C63.0227 22.2536 63.4003 22.4108 63.7963 22.4015C64.2383 22.4108 64.6619 22.2166 64.9474 21.8745C65.1961 21.5602 65.3158 21.1719 65.2882 20.7744V20.3121H63.7871V19.739H65.9328V20.7097C65.9236 21.4308 65.7763 21.9023 65.4079 22.3091ZM70.8506 22.9562L69.4692 20.2474H68.0049V22.9562H67.3603V16.8638H69.6902C70.7493 16.8638 71.4952 17.5109 71.4952 18.5648C71.5321 19.3692 70.9611 20.0718 70.1691 20.2012L71.6149 22.9562H70.8506ZM69.6257 17.4462H68.0049V19.6835H69.6257C70.3441 19.6835 70.8321 19.3137 70.8321 18.5648C70.8321 17.816 70.3349 17.4462 69.6257 17.4462ZM76.8458 22.9562L76.3577 21.5787H73.7054L73.2174 22.9562H72.5359L74.7737 16.8638H75.3171L77.5457 22.9562H76.8458ZM75.05 17.7975L73.908 21.024H76.1735L75.05 17.7975ZM83.2186 22.9562V18.3245L81.5517 22.004H80.9992L79.3047 18.3245V22.9562H78.66V16.8638H79.3047L81.2847 21.1904L83.2186 16.8638H83.8633V22.9562H83.2186Z" fill="black"/>
</svg>
