<svg width="45" height="45" viewBox="0 0 45 45" fill="none" xmlns="http://www.w3.org/2000/svg">
<path d="M44.0469 21.428H38.1719C37.9771 21.428 37.7903 21.5053 37.6526 21.6431C37.5149 21.7808 37.4375 21.9676 37.4375 22.1624V28.7717H32.2969C32.1021 28.7717 31.9153 28.8491 31.7776 28.9868C31.6399 29.1245 31.5625 29.3113 31.5625 29.5061V34.6467H26.4219C26.2271 34.6467 26.0403 34.7241 25.9026 34.8618C25.7649 34.9995 25.6875 35.1863 25.6875 35.3811V41.9905H24.2188V34.6467C24.2188 34.2338 24.0191 33.4613 22.6816 32.9263C21.9034 32.615 20.8845 32.4436 19.8125 32.4436C18.7405 32.4436 17.7216 32.615 16.9434 32.9263C16.92 32.9357 16.8977 32.9453 16.875 32.9548V30.9749C16.875 30.5619 16.6753 29.7894 15.3379 29.2545C14.5597 28.9431 13.5407 28.7717 12.4688 28.7717C11.3968 28.7717 10.3778 28.9431 9.59961 29.2545C9.5762 29.2638 9.55396 29.2734 9.53125 29.2829V23.6311C9.53125 23.2182 9.33157 22.4456 7.99415 21.9107C7.21593 21.5994 6.19698 21.428 5.125 21.428C4.05302 21.428 3.03407 21.5994 2.25585 21.9107C0.918435 22.4456 0.71875 23.2182 0.71875 23.6311V41.9905C0.71875 42.4034 0.918435 43.1759 2.25585 43.7109C3.03407 44.0222 4.05302 44.1936 5.125 44.1936C6.19698 44.1936 7.21593 44.0222 7.99415 43.7109C8.2794 43.6011 8.54923 43.4548 8.79688 43.2756C9.04453 43.4548 9.31435 43.6011 9.59961 43.7109C10.3778 44.0222 11.3968 44.1936 12.4688 44.1936C13.5407 44.1936 14.5597 44.0222 15.3379 43.7109C15.6232 43.6011 15.893 43.4548 16.1406 43.2756C16.3883 43.4548 16.6581 43.6011 16.9434 43.7109C17.7216 44.0222 18.7405 44.1936 19.8125 44.1936C20.8845 44.1936 21.9034 44.0222 22.6816 43.7109C22.8616 43.6397 23.0361 43.5556 23.2038 43.4592H44.0469C44.2416 43.4592 44.4284 43.3819 44.5662 43.2441C44.7039 43.1064 44.7813 42.9196 44.7813 42.7248V22.1624C44.7813 21.9676 44.7039 21.7808 44.5662 21.6431C44.4284 21.5053 44.2416 21.428 44.0469 21.428ZM2.1875 36.3386C2.21021 36.3482 2.23245 36.3577 2.25585 36.3671C3.03407 36.6784 4.05302 36.8499 5.125 36.8499C6.19698 36.8499 7.21593 36.6784 7.99415 36.3671C8.01755 36.3577 8.03979 36.3482 8.0625 36.3386V38.2908C7.93493 38.5182 6.91883 39.053 5.125 39.053C3.33117 39.053 2.31507 38.5182 2.1875 38.2908V36.3386ZM2.1875 32.6668C2.21021 32.6763 2.23245 32.6859 2.25585 32.6952C3.03407 33.0066 4.05302 33.178 5.125 33.178C6.19698 33.178 7.21593 33.0066 7.99415 32.6952C8.01755 32.6859 8.03979 32.6763 8.0625 32.6668V34.6189C7.93493 34.8463 6.91883 35.3811 5.125 35.3811C3.33117 35.3811 2.31507 34.8463 2.1875 34.6189V32.6668ZM2.1875 28.9949C2.21021 29.0044 2.23245 29.014 2.25585 29.0234C3.03407 29.3347 4.05302 29.5061 5.125 29.5061C6.19698 29.5061 7.21593 29.3347 7.99415 29.0234C8.01755 29.014 8.03979 29.0044 8.0625 28.9949V30.9471C7.93493 31.1744 6.91883 31.7092 5.125 31.7092C3.33117 31.7092 2.31507 31.1744 2.1875 30.9471V28.9949ZM2.1875 25.323C2.21021 25.3325 2.23245 25.3421 2.25585 25.3515C3.03407 25.6628 4.05302 25.8342 5.125 25.8342C6.19698 25.8342 7.21593 25.6628 7.99415 25.3515C8.01755 25.3421 8.03979 25.3325 8.0625 25.323V27.2752C7.93493 27.5026 6.91883 28.0374 5.125 28.0374C3.33117 28.0374 2.31507 27.5026 2.1875 27.2752V25.323ZM12.4688 35.3811C10.6749 35.3811 9.65882 34.8463 9.53125 34.6189V32.6668C9.55396 32.6763 9.5762 32.6859 9.59961 32.6952C10.3778 33.0066 11.3968 33.178 12.4688 33.178C13.5407 33.178 14.5597 33.0066 15.3379 32.6952C15.3613 32.6859 15.3835 32.6763 15.4063 32.6668V34.6189C15.2787 34.8463 14.2626 35.3811 12.4688 35.3811ZM9.53125 36.3386C9.55396 36.3482 9.5762 36.3577 9.59961 36.3671C10.3778 36.6784 11.3968 36.8499 12.4688 36.8499C13.5407 36.8499 14.5597 36.6784 15.3379 36.3671C15.3613 36.3577 15.3835 36.3482 15.4063 36.3386V38.2908C15.2787 38.5182 14.2626 39.053 12.4688 39.053C10.6749 39.053 9.65882 38.5182 9.53125 38.2908V36.3386ZM16.875 36.3386C16.8977 36.3482 16.92 36.3577 16.9434 36.3671C17.7216 36.6784 18.7405 36.8499 19.8125 36.8499C20.8845 36.8499 21.9034 36.6784 22.6816 36.3671C22.705 36.3577 22.7273 36.3482 22.75 36.3386V38.2908C22.6224 38.5182 21.6063 39.053 19.8125 39.053C18.0187 39.053 17.0026 38.5182 16.875 38.2908V36.3386ZM19.8125 33.9124C21.5406 33.9124 22.545 34.4081 22.7305 34.6478C22.5396 34.8884 21.5341 35.3811 19.8125 35.3811C18.0909 35.3811 17.0854 34.8884 16.8945 34.6478C17.08 34.4081 18.0844 33.9124 19.8125 33.9124ZM12.4688 30.2405C14.1969 30.2405 15.2013 30.7362 15.3868 30.9759C15.1958 31.2165 14.1904 31.7092 12.4688 31.7092C10.7446 31.7092 9.73884 31.2151 9.54996 30.9749C9.73884 30.7346 10.7446 30.2405 12.4688 30.2405ZM5.125 22.8967C6.85311 22.8967 7.85751 23.3925 8.04304 23.6321C7.85208 23.8728 6.84664 24.3655 5.125 24.3655C3.40336 24.3655 2.39792 23.8728 2.20696 23.6321C2.39249 23.3925 3.39689 22.8967 5.125 22.8967ZM5.125 42.7248C3.33433 42.7248 2.31798 42.1917 2.1875 41.9637V40.0105C2.21021 40.02 2.23245 40.0296 2.25585 40.039C3.03407 40.3503 4.05302 40.5217 5.125 40.5217C6.19698 40.5217 7.21593 40.3503 7.99415 40.039C8.01755 40.0296 8.03979 40.02 8.0625 40.0105V41.9637C7.93202 42.1917 6.91567 42.7248 5.125 42.7248ZM12.4688 42.7248C10.6749 42.7248 9.65882 42.1901 9.53125 41.9627V40.0105C9.55396 40.02 9.5762 40.0296 9.59961 40.039C10.3778 40.3503 11.3968 40.5217 12.4688 40.5217C13.5407 40.5217 14.5597 40.3503 15.3379 40.039C15.3613 40.0296 15.3835 40.02 15.4063 40.0105V41.9637C15.2758 42.1917 14.2594 42.7248 12.4688 42.7248ZM19.8125 42.7248C18.0218 42.7248 17.0055 42.1917 16.875 41.9637V40.0105C16.8977 40.02 16.92 40.0296 16.9434 40.039C17.7216 40.3503 18.7405 40.5217 19.8125 40.5217C20.8845 40.5217 21.9034 40.3503 22.6816 40.039C22.705 40.0296 22.7273 40.02 22.75 40.0105V41.9637C22.6195 42.1917 21.6032 42.7248 19.8125 42.7248ZM27.1563 36.1155H31.5625V41.9905H27.1563V36.1155ZM33.0313 30.2405H37.4375V41.9905H33.0313V30.2405ZM38.9063 41.9905V22.8967H43.3125V41.9905H38.9063Z" fill="#3F6587"/>
<path d="M21.2812 29.5061H19.8125V30.9748H21.2812V29.5061Z" fill="#ED1C24"/>
<path d="M22.75 29.5061V30.9748H26.4219C26.6166 30.9749 26.8034 30.8975 26.9411 30.7598L41.8437 15.8572V17.0217H43.3125V14.0842C43.3125 13.8895 43.2351 13.7027 43.0974 13.5649C42.9597 13.4272 42.7729 13.3499 42.5781 13.3499H39.6406V14.8186H40.8052L26.1177 29.5061H22.75Z" fill="#ED1C24"/>
<path d="M32.492 4.79626C29.2402 1.792 24.9741 0.125905 20.5469 0.131116C10.8284 0.131116 2.92188 8.03766 2.92188 17.7561C2.92188 18.5245 2.9715 19.2921 3.07042 20.0541L4.52689 19.8644C4.43614 19.1653 4.39063 18.4611 4.39063 17.7561C4.39063 17.51 4.39708 17.2653 4.40803 17.0217H7.69531L9.67813 19.6655C9.74653 19.7567 9.83523 19.8307 9.9372 19.8817C10.0392 19.9327 10.1516 19.9592 10.2656 19.9592H15.7249L17.3732 22.7066L14.9656 24.5123C14.8744 24.5807 14.8004 24.6694 14.7494 24.7714C14.6984 24.8734 14.6719 24.9859 14.6719 25.0999V27.303H16.1406V25.4671L18.7844 23.4843C18.9297 23.3753 19.0295 23.2162 19.0644 23.0379C19.0994 22.8596 19.0669 22.6747 18.9735 22.5189L16.7703 18.847C16.7051 18.7383 16.6128 18.6483 16.5024 18.5858C16.3921 18.5233 16.2674 18.4905 16.1406 18.4905H10.6328L8.64999 15.8468C8.58159 15.7555 8.4929 15.6815 8.39092 15.6305C8.28895 15.5795 8.17651 15.553 8.0625 15.553H4.54147C4.92612 12.751 6.04299 10.1001 7.7794 7.86769L10.2656 9.35939V11.8811C10.2656 12.0759 10.343 12.2627 10.4807 12.4004C10.6184 12.5381 10.8052 12.6155 11 12.6155H14.3677L17.0901 15.3379C17.2101 15.458 17.3681 15.5327 17.537 15.5494C17.706 15.5661 17.8755 15.5238 18.0167 15.4296L22.423 12.4921C22.5236 12.4251 22.6061 12.3342 22.6631 12.2276C22.7202 12.121 22.75 12.002 22.75 11.8811V7.77903L27.4048 3.12429C28.5459 3.65971 29.6204 4.32714 30.606 5.11289L26.6861 8.37948C26.567 8.47875 26.4823 8.61318 26.4443 8.76351C26.4063 8.91384 26.4168 9.07235 26.4744 9.21632L27.7899 12.5051L26.0547 14.8186H22.75C22.5911 14.8186 22.4365 14.8701 22.3094 14.9655L19.3719 17.1686C19.2217 17.2812 19.1204 17.4471 19.0887 17.6321C19.057 17.8171 19.0973 18.0073 19.2015 18.1635L22.139 22.5697C22.206 22.6703 22.2969 22.7528 22.4035 22.8098C22.5101 22.8669 22.6291 22.8967 22.75 22.8967H24.9531V27.303H26.4219V22.1624C26.4219 21.9676 26.3445 21.7808 26.2068 21.6431C26.0691 21.5054 25.8823 21.428 25.6875 21.428H23.143L20.8089 17.9268L22.9948 16.2874H26.4219C26.5359 16.2874 26.6483 16.2608 26.7503 16.2098C26.8523 16.1588 26.941 16.0848 27.0094 15.9936L29.2125 13.0561C29.2881 12.9553 29.3365 12.8367 29.353 12.7118C29.3696 12.5869 29.3537 12.4598 29.3068 12.3428L28.0363 9.16621L31.7252 6.09206C34.5584 8.79896 36.3069 12.4464 36.6428 16.3504L38.1062 16.2243C37.7297 11.847 35.7267 7.76955 32.492 4.79626ZM21.4964 6.95555C21.3586 7.09328 21.2813 7.28009 21.2813 7.47487V11.4881L17.703 13.8737L15.1911 11.3618C15.0534 11.2241 14.8666 11.1467 14.6719 11.1467H11.7344V8.94362C11.7344 8.81679 11.7015 8.69213 11.639 8.58177C11.5766 8.47141 11.4866 8.37911 11.3778 8.31386L8.74556 6.73451C10.8893 4.43596 13.6572 2.81294 16.7099 2.06445C19.7625 1.31597 22.9673 1.47456 25.9311 2.52077L21.4964 6.95555Z" fill="#3F6587"/>
</svg>
