<svg width="30" height="22" viewBox="0 0 30 22" fill="none" xmlns="http://www.w3.org/2000/svg">
<path d="M14.486 15.5606C14.5951 15.5606 14.7041 15.5824 14.8131 15.6262C14.9221 15.6612 15.0266 15.7268 15.1265 15.823L16.9526 17.6728C16.1531 18.6786 15.1493 19.4396 13.9409 19.9556C12.7417 20.4629 11.3199 20.7165 9.67554 20.7165C8.16742 20.7165 6.81376 20.4716 5.61454 19.9818C4.4244 19.4833 3.41142 18.8011 2.5756 17.9352C1.74886 17.0606 1.11291 16.0285 0.667748 14.839C0.222583 13.6408 0 12.3419 0 10.9425C0 9.51687 0.25438 8.2093 0.763141 7.0198C1.2719 5.82156 1.98053 4.78949 2.88903 3.92361C3.80662 3.05772 4.90136 2.38426 6.17326 1.90321C7.44516 1.42216 8.8488 1.18164 10.3842 1.18164C11.1291 1.18164 11.8287 1.24724 12.4828 1.37843C13.146 1.50088 13.7638 1.67581 14.3361 1.90321C14.9085 2.12187 15.4354 2.38863 15.9169 2.7035C16.3984 3.00962 16.8254 3.35073 17.1979 3.72682L15.6444 5.73409C15.5445 5.85654 15.4263 5.97024 15.2901 6.0752C15.1538 6.17141 14.963 6.21951 14.7177 6.21951C14.5542 6.21951 14.3997 6.18453 14.2544 6.11456C14.109 6.04459 13.9546 5.9615 13.791 5.86529C13.6275 5.76033 13.4458 5.651 13.2459 5.5373C13.0552 5.41485 12.8235 5.30553 12.5509 5.20932C12.2875 5.10436 11.974 5.0169 11.6106 4.94693C11.2563 4.87696 10.8384 4.84197 10.3569 4.84197C9.52109 4.84197 8.75795 4.98629 8.06749 5.27491C7.37703 5.5548 6.78196 5.9615 6.28228 6.49502C5.79169 7.0198 5.40558 7.65828 5.12395 8.41047C4.8514 9.16265 4.71512 10.0067 4.71512 10.9425C4.71512 11.9221 4.8514 12.7924 5.12395 13.5533C5.40558 14.3142 5.78261 14.9571 6.25503 15.4819C6.73653 15.9979 7.29526 16.3915 7.93121 16.6626C8.56716 16.9337 9.24854 17.0693 9.97534 17.0693C10.3933 17.0693 10.7748 17.0518 11.1201 17.0168C11.4653 16.9731 11.7833 16.9031 12.074 16.8069C12.3738 16.7107 12.6554 16.5883 12.9189 16.4396C13.1914 16.2821 13.464 16.0897 13.7365 15.8623C13.8456 15.7749 13.9637 15.7049 14.0908 15.6524C14.218 15.5912 14.3498 15.5606 14.486 15.5606Z" fill="#828282"/>
<path d="M26.4491 14.4913L25.5496 19.0794H24.2297C23.9961 19.0794 23.7936 18.9894 23.6223 18.8095C23.451 18.6296 23.3653 18.4084 23.3653 18.146C23.3653 18.1086 23.3653 18.0748 23.3653 18.0448C23.3731 18.0074 23.3809 17.9699 23.3887 17.9324L24.0779 14.4913H21.6833L21.0058 18.0673C20.9358 18.4272 20.7761 18.6858 20.5269 18.8433C20.2777 19.0007 20.0013 19.0794 19.6976 19.0794H18.4244L19.3121 14.4913H17.9689C17.7197 14.4913 17.5289 14.4351 17.3965 14.3227C17.2641 14.2027 17.1979 14.0078 17.1979 13.7379C17.1979 13.6329 17.2096 13.513 17.233 13.3781L17.3848 12.4897H19.6042L20.2115 9.38599H17.7119L17.9338 8.22773C17.9883 7.94285 18.109 7.73294 18.2959 7.598C18.4828 7.45556 18.7865 7.38434 19.207 7.38434H20.5036L21.2278 3.76336C21.2901 3.46349 21.4341 3.23109 21.66 3.06616C21.8858 2.90123 22.1506 2.81876 22.4542 2.81876H23.7625L22.8748 7.38434H25.2576L26.157 2.81876H27.4419C27.7145 2.81876 27.9364 2.89373 28.1077 3.04367C28.279 3.1936 28.3647 3.38477 28.3647 3.61718C28.3647 3.69214 28.3608 3.74837 28.353 3.78586L27.6288 7.38434H30L29.7781 8.5426C29.7236 8.82748 29.599 9.04114 29.4043 9.18358C29.2174 9.31852 28.9176 9.38599 28.5049 9.38599H27.3368L26.7411 12.4897H28.3997C28.6489 12.4897 28.8358 12.5497 28.9604 12.6696C29.0928 12.7821 29.159 12.977 29.159 13.2544C29.159 13.3593 29.1473 13.4793 29.1239 13.6142L28.9838 14.4913H26.4491ZM21.9753 12.4897H24.3699L24.9656 9.38599H22.5827L21.9753 12.4897Z" fill="#828282"/>
</svg>
