<svg width="353" height="230" viewBox="0 0 353 230" fill="none" xmlns="http://www.w3.org/2000/svg">
<g opacity="0.6">
<path d="M59.6041 62.1801C64.7597 62.0694 70.637 63.5687 76.7005 66.4327C78.6213 67.3399 79.7558 69.391 79.7558 71.5097V122.288C79.7558 124.534 77.4994 126.41 75.2824 125.295C59.1996 117.214 47.3178 126.737 46.7914 127.161C46.228 127.626 45.5459 127.864 44.8452 127.864C43.6182 127.864 42.7895 127.233 42.3089 126.513C41.8606 125.841 41.6911 125.07 41.6911 124.558V70.0329C41.6911 68.9882 42.1632 67.984 42.9957 67.3515C43.3811 67.0557 49.7491 62.3718 59.6041 62.1801Z" fill="#BCD4E7" stroke="#BCD4E7" stroke-width="2.0741"/>
<path d="M4.52254 66.4334L4.5239 66.4327C10.5958 63.5741 16.4899 62.1275 21.6085 62.1791V62.1791L21.6182 62.1793C26.5729 62.2756 30.6132 63.507 33.464 64.7406C36.2146 65.9308 38.1239 67.2809 38.0775 67.2566L38.1514 67.2954L38.2182 67.3456C39.0646 67.9814 39.5322 68.989 39.5322 70.0335V124.433C39.5322 124.97 39.3772 125.77 38.9309 126.468C38.4534 127.216 37.6204 127.864 36.378 127.864C35.676 127.864 34.9848 127.621 34.4223 127.153C33.9595 126.772 22.0598 117.193 5.93655 125.293L5.93646 125.294C3.71979 126.407 1.46336 124.531 1.46336 122.287L1.46334 71.5077V71.4716L1.46585 71.4356C1.6054 69.4329 2.56486 67.3585 4.52254 66.4334Z" fill="#BCD4E7" stroke="#BCD4E7" stroke-width="2.0741"/>
</g>
<g opacity="0.5">
<path d="M129.508 164.846C132.471 164.787 135.894 165.581 139.468 167.134C140.373 167.528 140.941 168.439 140.941 169.416V197.399C140.941 198.303 139.991 198.929 139.163 198.545C129.155 193.918 121.747 199.406 121.43 199.642C121.204 199.814 120.935 199.9 120.658 199.9C119.675 199.9 119.39 199.01 119.39 198.65V168.602C119.39 168.195 119.59 167.813 119.927 167.578C120.079 167.47 123.771 164.948 129.508 164.846Z" fill="#CDDBE6"/>
<path d="M96.7766 167.135C100.351 165.586 103.787 164.818 106.736 164.845C112.476 164.948 116.094 167.471 116.316 167.578C116.656 167.813 116.854 168.194 116.854 168.602V198.581C116.854 198.993 116.577 199.9 115.587 199.9C115.311 199.9 115.037 199.812 114.812 199.64C114.501 199.404 107.091 193.915 97.0792 198.544C96.2504 198.928 95.3004 198.302 95.3004 197.398L95.3004 169.415C95.3742 168.44 95.8734 167.528 96.7766 167.135Z" fill="#CDDBE6"/>
</g>
<path d="M82.3221 0.991971C85.6887 0.925293 89.5775 1.82766 93.6372 3.59239C94.6652 4.03922 95.3115 5.07441 95.3115 6.18392V37.9757C95.3115 39.0026 94.2322 39.7138 93.2906 39.2782C81.9215 34.0204 73.5049 40.2561 73.1449 40.5237C72.8883 40.7193 72.5823 40.8171 72.2672 40.8171C71.151 40.8171 70.8269 39.8053 70.8269 39.3964V5.25933C70.8269 4.79676 71.0548 4.36318 71.4374 4.09647C71.6101 3.97379 75.8049 1.10843 82.3221 0.991971Z" fill="#CDDBE6"/>
<path d="M45.136 3.59308C49.1967 1.83368 53.1007 0.960654 56.4511 0.99177C62.972 1.10841 67.0821 3.97447 67.3342 4.09627C67.7212 4.36387 67.9463 4.79683 67.9463 5.26001V39.3188C67.9463 39.7865 67.6312 40.8177 66.506 40.8177C66.1924 40.8177 65.8815 40.7177 65.6256 40.5219C65.2722 40.2536 56.8543 34.0177 45.4798 39.2772C44.5382 39.7125 43.4589 39.0012 43.4589 37.9748L43.4589 6.18301C43.5427 5.07598 44.1098 4.03937 45.136 3.59308Z" fill="#CDDBE6"/>
<g opacity="0.3">
<path d="M66.2528 148.253C68.9462 148.199 72.0572 148.921 75.3051 150.333C76.1275 150.69 76.6445 151.519 76.6445 152.406V177.84C76.6445 178.661 75.7811 179.23 75.0278 178.882C65.9324 174.676 59.199 179.664 58.911 179.878C58.7057 180.035 58.4609 180.113 58.2088 180.113C57.3159 180.113 57.0566 179.304 57.0566 178.976V151.666C57.0566 151.296 57.2389 150.95 57.5449 150.736C57.6831 150.638 61.039 148.346 66.2528 148.253Z" fill="#D4DEE5"/>
<path d="M36.5035 150.333C39.7521 148.926 42.8753 148.227 45.5557 148.252C50.7724 148.345 54.0606 150.638 54.2623 150.736C54.5719 150.95 54.752 151.296 54.752 151.667V178.914C54.752 179.288 54.4999 180.113 53.5997 180.113C53.3488 180.113 53.1001 180.033 52.8953 179.877C52.6127 179.662 45.8783 174.673 36.7785 178.881C36.0252 179.229 35.1618 178.66 35.1618 177.839L35.1618 152.405C35.2288 151.52 35.6825 150.69 36.5035 150.333Z" fill="#D4DEE5"/>
</g>
<path opacity="0.6" d="M8.99322 69.1924C14.7843 67.0328 20.3649 66.0696 25.2638 65.9841C32.9138 66.1059 38.2071 68.2461 40.8663 69.5774C43.5256 68.2461 48.9449 66.1033 56.3933 65.9815C61.4345 65.975 67.0302 67.0639 72.7394 69.1924C75.376 70.1725 77.1631 72.7754 77.1631 75.6649V114.93C77.1631 116.831 76.2966 118.568 74.7824 119.701C73.294 120.807 71.4249 121.124 69.6492 120.58C54.6641 115.869 43.271 123.049 42.6408 123.456C42.1518 123.745 41.7233 124.056 40.9797 124.056C40.158 124.056 39.7043 123.749 39.2065 123.463C37.8479 122.596 26.8177 115.988 12.1982 120.576C10.4199 121.127 8.56094 120.803 7.06244 119.693C5.43916 118.56 4.56955 116.823 4.56955 114.93V75.6649C4.56955 72.7767 6.35918 70.175 8.99322 69.1924ZM42.8828 118.625C46.0273 117.065 51.8322 114.817 59.3298 114.817C62.8372 114.817 66.7026 115.312 70.8225 116.602C71.3778 116.777 71.9568 116.679 72.4218 116.337C72.8755 115.993 73.1301 115.384 73.1301 114.93V75.6649C73.1301 74.5165 72.4291 73.4832 71.3833 73.0943C66.1153 71.1278 61.0438 70.1232 56.4311 70.1297C49.9027 70.2347 45.1261 72.1078 42.8828 73.1967V118.625ZM8.60252 114.93C8.60252 115.497 8.8566 115.998 9.30754 116.335C9.78217 116.686 10.3532 116.779 10.9069 116.611C23.7136 112.597 34.1489 116.33 38.8498 118.651V73.1967C36.6065 72.1078 31.8299 70.2347 25.3142 70.1297C20.864 70.1216 15.693 71.0998 10.3417 73.0956C9.3083 73.4845 8.60252 74.5164 8.60252 75.6649V114.93Z" fill="white"/>
<path fill-rule="evenodd" clip-rule="evenodd" d="M188.651 54.9119L221.84 54.912V46.6148H188.651V54.9119ZM174.127 129.588H147.398V121.524L174.127 121.524V129.588ZM93.6416 123.787L89.3685 139.778C88.2017 144.186 90.8205 148.723 95.2155 149.913L111.107 154.197C115.489 155.377 120.02 152.747 121.194 148.345L125.457 132.357L93.6416 123.787ZM144.649 60.409L112.808 51.8524L95.7807 115.809L127.596 124.376L144.649 60.409ZM129.299 22.0055C124.917 20.8258 120.387 23.455 119.213 27.8577L115.187 43.8438L147.002 52.4134L147.398 50.9295L147.398 54.9122L180.353 54.912L180.353 46.6148H148.318L151.035 36.4247C152.21 32.0219 149.594 27.469 145.212 26.289L129.299 22.0055Z" fill="#BCD4E7"/>
<path fill-rule="evenodd" clip-rule="evenodd" d="M221.84 69.4497L188.651 62.2249V54.9118H221.84V69.4497ZM174.127 153.765C173.465 153.927 172.771 154.013 172.056 154.013H155.695C151.126 154.013 147.403 150.289 147.631 145.72V129.121H174.127V153.765ZM174.127 121.29L147.398 121.29V54.9118H180.353V61.3214C176.836 62.231 174.127 65.4206 174.127 69.3601V121.29ZM213.776 21.7234H196.948C192.384 21.7234 188.651 25.4513 188.65 30.0197L188.651 46.381L221.84 46.3812V30.0199C221.84 25.4513 218.111 21.7234 213.776 21.7234ZM146.775 52.4226L114.935 43.8453L112.828 51.8496L144.643 60.4165L146.775 52.4226ZM127.588 124.36L95.773 115.793L93.6413 123.784L125.456 132.354L127.588 124.36ZM147.667 27.523C150.467 29.4521 151.954 32.9499 151.028 36.427L148.305 46.6147L180.353 46.6145L180.115 29.7892C180.115 25.4513 176.389 21.7253 171.818 21.7253H155.456C151.772 21.7253 148.744 24.1885 147.667 27.523Z" fill="#F3F6F9"/>
<path fill-rule="evenodd" clip-rule="evenodd" d="M124.919 21.0943L95.6742 128.883C94.1705 134.405 97.489 140.057 103.074 141.543L119.249 145.821C120.156 146.061 121.067 146.176 121.963 146.176C126.578 146.176 130.804 143.142 132.067 138.501L157.534 44.6743V135.805C157.534 141.532 162.178 146.176 167.905 146.176H174.127V142.027H167.905C164.475 142.027 161.682 139.235 161.682 135.805V121.286H174.127V117.138H161.682V42.4705H190.72V62.6754L194.868 63.5784V42.4705H223.906V69.8994L228.054 70.8025V23.8036C228.054 18.0765 223.41 13.4331 217.683 13.4331H201.09C197.616 13.4331 194.687 15.264 192.794 17.9002C190.914 15.264 187.982 13.4331 184.498 13.4331H167.905C163.342 13.4331 159.582 16.425 158.195 20.5182C156.992 19.4254 155.609 18.5121 153.92 18.0654L137.745 13.7875C136.839 13.5475 135.927 13.4331 135.03 13.4331C130.415 13.4331 126.189 16.4768 124.919 21.0943ZM152.432 47.6298L132.93 119.472L104.567 111.966L124.069 40.1242L152.432 47.6298ZM167.905 17.5813H184.498C187.92 17.5813 190.72 20.3736 190.72 23.8036V38.3223H161.682V23.8036C161.682 20.3736 164.483 17.5813 167.905 17.5813ZM217.683 17.5813C221.113 17.5813 223.906 20.3736 223.906 23.8036V38.3223H194.868L194.868 23.8036C194.868 20.3736 197.668 17.5813 201.09 17.5813H217.683ZM152.852 22.0769C154.497 22.5133 155.866 23.5534 156.705 25.0066C157.534 26.4196 157.742 28.0633 157.306 29.637L153.508 43.6346L125.145 36.129L128.93 22.1806C129.666 19.4731 132.173 17.5813 135.03 17.5813C135.575 17.5813 136.145 17.6539 136.677 17.7991L152.852 22.0769ZM104.142 137.542C102.496 137.106 101.128 136.066 100.289 134.612C99.6928 133.187 99.252 131.553 99.6876 129.972L103.486 115.974L131.849 123.48L128.064 137.428C127.33 140.136 124.821 142.027 121.963 142.027C121.419 142.027 120.849 141.95 120.317 141.82L104.142 137.542Z" fill="#3F6587"/>
<path d="M262.905 198.784L335.779 182.817C339.493 181.552 342.13 178.263 342.13 174.695V85.63C342.13 80.3619 337.181 76.4981 332.069 77.7759L325.936 79.3093V161.697C325.936 165.264 323.299 168.776 319.595 169.601L261.16 182.59L202.734 169.604C199.015 168.774 196.383 165.51 196.383 161.714V79.3093L190.25 77.7764C185.149 76.4981 180.189 80.3619 180.189 85.63V174.47C180.189 178.037 182.826 181.552 186.53 182.374L259.403 198.341C260.552 199.062 261.767 199.062 262.905 198.784Z" fill="#BCD4E7"/>
<path d="M325.931 77.632V159.387L265.203 174.695V79.5602L316.594 69.532C321.503 68.7635 325.931 72.6068 325.931 77.632ZM205.715 69.532L257.106 79.5602V174.695L196.378 159.609V77.632C196.378 72.6068 200.806 68.7635 205.715 69.532Z" fill="#F3F6F9"/>
<path d="M192.742 69.2239C193.86 69.2239 194.765 70.1284 194.765 71.2462V164.876C194.765 167.644 196.653 170 199.358 170.599L270.339 186.37C271.168 186.56 272.041 186.56 272.879 186.37L343.86 170.599C346.567 170.008 348.456 167.657 348.456 164.876V71.2462C348.456 70.1289 349.36 69.2239 350.478 69.2239C351.595 69.2239 352.5 70.1289 352.5 71.2462V164.876C352.5 169.558 349.31 173.534 344.74 174.55L273.759 190.321C273.051 190.483 272.343 190.559 271.61 190.559C270.877 190.559 270.164 190.48 269.461 190.322L198.48 174.551C193.905 173.547 190.72 169.553 190.72 164.876V71.2462C190.72 70.1289 191.63 69.2239 192.742 69.2239ZM329.987 161.413L271.61 174.381L213.243 161.408C209.527 160.579 206.898 157.293 206.898 153.501V71.1122C206.898 65.5333 211.446 61.1375 216.835 61.1375C217.343 61.1375 217.858 61.1727 218.377 61.2532L271.61 69.5096L324.846 61.2539C325.351 61.1734 325.882 61.1381 326.388 61.1381C331.774 61.1376 336.322 65.5333 336.322 71.1122V153.291C336.322 157.293 333.688 160.579 329.987 161.413ZM269.588 73.2735L217.768 65.2527C217.457 65.2048 217.148 65.1811 216.844 65.1811C213.597 64.9519 210.943 67.8311 210.943 71.092V153.499C210.943 155.409 212.245 157.032 214.11 157.447L269.588 169.78V73.2735ZM332.278 71.092C332.278 69.5012 331.656 68.0106 330.529 66.8958C329.411 65.7886 327.94 64.9519 326.388 64.9519C326.084 64.9519 325.774 64.9756 325.464 65.0235L273.632 73.2735V169.78L329.118 157.452C330.976 157.04 332.278 155.195 332.278 153.501V71.092Z" fill="#3F6587"/>
<line x1="2.0741" y1="-2.0741" x2="31.6898" y2="-2.0741" transform="matrix(-0.982872 0.184289 0.184289 0.982872 317.24 90.1748)" stroke="#F37A20" stroke-width="4.1482" stroke-linecap="round"/>
<line x1="222.179" y1="88.5185" x2="251.287" y2="93.9763" stroke="#F37A20" stroke-width="4.1482" stroke-linecap="round"/>
<line x1="2.0741" y1="-2.0741" x2="31.6898" y2="-2.0741" transform="matrix(-0.982872 0.184289 0.184289 0.982872 317.24 104.694)" stroke="#F37A20" stroke-width="4.1482" stroke-linecap="round"/>
<line x1="222.179" y1="103.037" x2="251.287" y2="108.495" stroke="#F37A20" stroke-width="4.1482" stroke-linecap="round"/>
<line x1="2.0741" y1="-2.0741" x2="31.6898" y2="-2.0741" transform="matrix(-0.982872 0.184289 0.184289 0.982872 317.24 119.212)" stroke="#F37A20" stroke-width="4.1482" stroke-linecap="round"/>
<line x1="222.179" y1="117.556" x2="251.287" y2="123.014" stroke="#F37A20" stroke-width="4.1482" stroke-linecap="round"/>
<line x1="2.0741" y1="-2.0741" x2="31.6898" y2="-2.0741" transform="matrix(-0.982872 0.184289 0.184289 0.982872 317.24 135.805)" stroke="#F37A20" stroke-width="4.1482" stroke-linecap="round"/>
<line x1="222.179" y1="134.149" x2="251.287" y2="139.607" stroke="#F37A20" stroke-width="4.1482" stroke-linecap="round"/>
</svg>
