<svg width="41" height="42" viewBox="0 0 41 42" fill="none" xmlns="http://www.w3.org/2000/svg">
<path d="M21.7812 16.7179L24.56 12.5458C24.9523 11.9613 25.7451 11.8011 26.3377 12.1935C26.9223 12.5859 27.0824 13.3787 26.69 13.9712L21.565 21.6587C21.2527 22.1232 20.6682 22.3394 20.1316 22.1712C19.5871 22.0111 19.1467 21.5146 19.1467 20.946V9.41479C19.1467 8.71011 19.7953 8.13354 20.4279 8.13354C21.2047 8.13354 21.7812 8.71011 21.7812 9.41479V16.7179ZM41 20.946C41 32.2691 31.823 41.446 20.5 41.446C9.17695 41.446 0 32.2691 0 20.946C0 9.623 9.17695 0.446045 20.5 0.446045C31.823 0.446045 41 9.623 41 20.946ZM20.5 3.00854C10.5943 3.00854 2.5625 11.0404 2.5625 20.946C2.5625 30.8517 10.5943 38.8835 20.5 38.8835C30.4057 38.8835 38.4375 30.8517 38.4375 20.946C38.4375 11.0404 30.4057 3.00854 20.5 3.00854Z" fill="#3F6587"/>
</svg>
