<svg width="112" height="109" viewBox="0 0 112 109" fill="none" xmlns="http://www.w3.org/2000/svg">
<path fill-rule="evenodd" clip-rule="evenodd" d="M14.2351 6.26578H57.8806C62.6953 6.26578 66.6098 10.1721 66.6098 14.9919V23.3599H57.851C57.6789 22.3288 56.7767 21.5364 55.6984 21.5364H33.8756C32.6704 21.5364 31.6933 22.5181 31.6933 23.718C31.6933 24.9178 32.6753 25.8995 33.8756 25.8995H45.0176C40.2656 28.6469 36.8139 33.3931 35.8119 38.9886H33.8756C32.6704 38.9886 31.6933 39.9703 31.6933 41.1701C31.6933 42.37 32.6753 43.3517 33.8756 43.3517H35.5138V56.4408H33.8756C32.6704 56.4408 31.6933 57.4225 31.6933 58.6223C31.6933 59.8221 32.6753 60.8038 33.8756 60.8038H35.5138V76.0745H14.2351C9.41362 76.0745 5.50598 72.1682 5.50598 67.3484V14.9919C5.50598 10.1721 9.41362 6.26578 14.2351 6.26578ZM20.7819 62.9853C21.9822 62.9853 22.9642 62.0037 22.9642 60.8038V56.4408C22.9642 55.2546 21.9822 54.2593 20.7819 54.2593H16.4174C15.2239 54.2593 14.2351 55.2546 14.2351 56.4408V60.8038C14.2351 62.0037 15.2239 62.9853 16.4174 62.9853H20.7819ZM26.9118 15.324C26.0593 14.4718 24.6777 14.4718 23.8266 15.324L17.7326 21.4186L16.0018 19.687C15.1493 18.8349 13.7677 18.8349 12.9166 19.687C12.0655 20.5392 12.0641 21.9204 12.9166 22.7712L16.19 26.0434C16.6155 26.4634 17.1747 26.6815 17.7326 26.6815C18.2904 26.6815 18.8494 26.4686 19.2752 26.0423L26.9132 18.407C27.7711 17.56 27.7711 16.1693 26.9118 15.324ZM20.9803 36.1485H16.6157C15.4155 36.1485 14.4334 37.1302 14.4334 38.33V42.6931C14.4334 43.8793 15.4155 44.8746 16.6157 44.8746H20.9803C22.1737 44.8746 23.1625 43.8793 23.1625 42.6931V38.33C23.1625 37.1302 22.1737 36.1485 20.9803 36.1485Z" fill="#D0DCE5"/>
<path d="M20.6499 35.9616L16.2853 35.9616C15.0851 35.9616 14.103 36.9433 14.103 38.1431L14.103 42.5062C14.103 43.6924 15.0851 44.6877 16.2853 44.6877L20.6499 44.6877C21.8433 44.6877 22.8322 43.6924 22.8322 42.5062L22.8322 38.1431C22.8322 36.9433 21.8433 35.9616 20.6499 35.9616Z" fill="white"/>
<path d="M20.6499 54.1547L16.2853 54.1547C15.0851 54.1547 14.103 55.1363 14.103 56.3362L14.103 60.6992C14.103 61.8854 15.0851 62.8807 16.2853 62.8807L20.6499 62.8807C21.8433 62.8807 22.8322 61.8854 22.8322 60.6992L22.8322 56.3362C22.8322 55.1363 21.8433 54.1547 20.6499 54.1547Z" fill="white"/>
<path d="M23.8266 15.1371C24.6777 14.2849 26.0593 14.2849 26.9118 15.1371C27.771 15.9824 27.771 17.3731 26.9131 18.2201L19.2751 25.8554C18.8493 26.2816 18.2904 26.4946 17.7326 26.4946C17.1747 26.4946 16.6155 26.2765 16.19 25.8565L12.9165 22.5842C12.0641 21.7334 12.0654 20.3523 12.9165 19.5001C13.7676 18.6479 15.1493 18.6479 16.0017 19.5001L17.7326 21.2317L23.8266 15.1371Z" fill="white"/>
<mask id="path-5-outside-1_2583_13738" maskUnits="userSpaceOnUse" x="8.42676" y="29.9688" width="13" height="13" fill="black">
<rect fill="white" x="8.42676" y="29.9688" width="13" height="13"/>
<path fill-rule="evenodd" clip-rule="evenodd" d="M13.7913 41.8765H15.9736C18.3836 41.8765 20.3381 39.9226 20.3381 37.5134V35.3319C20.3381 32.9227 18.3836 30.9688 15.9736 30.9688H13.7913C11.3813 30.9688 9.42676 32.9227 9.42676 35.3319V37.5134C9.42676 39.9267 11.3813 41.8765 13.7913 41.8765ZM11.7388 35.4554C11.7388 34.2525 12.7176 33.2739 13.9211 33.2739H16.1034C17.3069 33.2739 18.2856 34.2525 18.2856 35.4554V37.6369C18.2856 38.8397 17.3069 39.8184 16.1034 39.8184H13.9211C12.7176 39.8184 11.7388 38.8397 11.7388 37.6369V35.4554Z"/>
</mask>
<path fill-rule="evenodd" clip-rule="evenodd" d="M13.7913 41.8765H15.9736C18.3836 41.8765 20.3381 39.9226 20.3381 37.5134V35.3319C20.3381 32.9227 18.3836 30.9688 15.9736 30.9688H13.7913C11.3813 30.9688 9.42676 32.9227 9.42676 35.3319V37.5134C9.42676 39.9267 11.3813 41.8765 13.7913 41.8765ZM11.7388 35.4554C11.7388 34.2525 12.7176 33.2739 13.9211 33.2739H16.1034C17.3069 33.2739 18.2856 34.2525 18.2856 35.4554V37.6369C18.2856 38.8397 17.3069 39.8184 16.1034 39.8184H13.9211C12.7176 39.8184 11.7388 38.8397 11.7388 37.6369V35.4554Z" fill="#3F6587"/>
<path d="M15.9736 40.8765H13.7913V42.8765H15.9736V40.8765ZM19.3381 37.5134C19.3381 39.37 17.8317 40.8765 15.9736 40.8765V42.8765C18.9356 42.8765 21.3381 40.4752 21.3381 37.5134H19.3381ZM19.3381 35.3319V37.5134H21.3381V35.3319H19.3381ZM15.9736 31.9688C17.8317 31.9688 19.3381 33.4753 19.3381 35.3319H21.3381C21.3381 32.3701 18.9356 29.9688 15.9736 29.9688V31.9688ZM13.7913 31.9688H15.9736V29.9688H13.7913V31.9688ZM10.4268 35.3319C10.4268 33.4753 11.9332 31.9688 13.7913 31.9688V29.9688C10.8293 29.9688 8.42676 32.3701 8.42676 35.3319H10.4268ZM10.4268 37.5134V35.3319H8.42676V37.5134H10.4268ZM13.7913 40.8765C11.9326 40.8765 10.4268 39.3735 10.4268 37.5134H8.42676C8.42676 40.4799 10.8299 42.8765 13.7913 42.8765V40.8765ZM13.9211 32.2739C12.1655 32.2739 10.7388 33.7 10.7388 35.4554H12.7388C12.7388 34.8051 13.2696 34.2739 13.9211 34.2739V32.2739ZM16.1034 32.2739H13.9211V34.2739H16.1034V32.2739ZM19.2856 35.4554C19.2856 33.7 17.8589 32.2739 16.1034 32.2739V34.2739C16.7548 34.2739 17.2856 34.8051 17.2856 35.4554H19.2856ZM19.2856 37.6369V35.4554H17.2856V37.6369H19.2856ZM16.1034 40.8184C17.8589 40.8184 19.2856 39.3923 19.2856 37.6369H17.2856C17.2856 38.2872 16.7548 38.8184 16.1034 38.8184V40.8184ZM13.9211 40.8184H16.1034V38.8184H13.9211V40.8184ZM10.7388 37.6369C10.7388 39.3923 12.1655 40.8184 13.9211 40.8184V38.8184C13.2696 38.8184 12.7388 38.2872 12.7388 37.6369H10.7388ZM10.7388 35.4554V37.6369H12.7388V35.4554H10.7388Z" fill="#3F6587" mask="url(#path-5-outside-1_2583_13738)"/>
<path d="M22.4793 12.1612L14.8815 19.7694L11.6428 16.5244L11.6424 16.524C11.021 15.9028 10.0138 15.9026 9.39261 16.5241L9.74627 16.8776L9.39261 16.5241C8.77204 17.1451 8.77085 18.152 9.39278 18.7733C9.39284 18.7733 9.3929 18.7734 9.39295 18.7734L13.7558 23.1348C14.0643 23.4481 14.4698 23.6086 14.8814 23.6086C15.29 23.6086 15.6961 23.4528 16.0064 23.1426C16.0064 23.1426 16.0064 23.1425 16.0065 23.1425L24.7355 14.4165C25.357 13.7952 25.3572 12.7881 24.7353 12.167C24.1137 11.5463 23.1155 11.5451 22.4853 12.1554L22.4852 12.1553L22.4793 12.1612Z" fill="#F37A20" stroke="#F37A20"/>
<mask id="path-8-outside-2_2583_13738" maskUnits="userSpaceOnUse" x="0.5" y="0.662369" width="64" height="72" fill="black">
<rect fill="white" x="0.5" y="0.662369" width="64" height="72"/>
<path fill-rule="evenodd" clip-rule="evenodd" d="M10.2291 1.66237H53.8747C58.6893 1.66237 62.6038 5.57002 62.6038 10.3885V20.7183H60.4215V10.3885C60.4215 6.7794 57.485 3.84389 53.8747 3.84389H10.2291C6.61881 3.84389 3.68228 6.7794 3.68228 10.3885V62.745C3.68228 66.354 6.61881 69.2896 10.2291 69.2896H33.5384V71.4711H10.2291C5.40901 71.4711 1.5 67.5634 1.5 62.745V10.3885C1.5 5.57002 5.40901 1.66237 10.2291 1.66237ZM33.5384 52.9281V55.1097H28.7785C28.1775 55.1097 27.6873 54.6188 27.6873 54.0189C27.6873 53.419 28.1783 52.9281 28.7785 52.9281H33.5384ZM34.0138 35.476C33.8512 36.1887 33.7288 36.9167 33.6489 37.6575H28.7785C28.1775 37.6575 27.6873 37.1666 27.6873 36.5667C27.6873 35.9668 28.1783 35.476 28.7785 35.476H34.0138ZM28.7785 18.0238H52.7835C53.3837 18.0238 53.8747 18.5146 53.8747 19.1145C53.8747 19.7145 53.3837 20.2053 52.7835 20.2053H28.7785C28.1775 20.2053 27.6873 19.7145 27.6873 19.1145C27.6873 18.5146 28.1783 18.0238 28.7785 18.0238ZM13.5025 48.5651H15.6848C18.099 48.5651 20.0494 50.5148 20.0494 52.9281V55.1097C20.0494 57.5189 18.0949 59.4727 15.6848 59.4727H13.5025C11.0925 59.4727 9.13797 57.5189 9.13797 55.1097V52.9281C9.13797 50.5189 11.0925 48.5651 13.5025 48.5651ZM15.6848 57.2912C16.8883 57.2912 17.8671 56.3125 17.8671 55.1097V52.9281C17.8671 51.7253 16.8883 50.7466 15.6848 50.7466H13.5025C12.299 50.7466 11.3203 51.7253 11.3203 52.9281V55.1097C11.3203 56.3125 12.299 57.2912 13.5025 57.2912H15.6848Z"/>
</mask>
<path fill-rule="evenodd" clip-rule="evenodd" d="M10.2291 1.66237H53.8747C58.6893 1.66237 62.6038 5.57002 62.6038 10.3885V20.7183H60.4215V10.3885C60.4215 6.7794 57.485 3.84389 53.8747 3.84389H10.2291C6.61881 3.84389 3.68228 6.7794 3.68228 10.3885V62.745C3.68228 66.354 6.61881 69.2896 10.2291 69.2896H33.5384V71.4711H10.2291C5.40901 71.4711 1.5 67.5634 1.5 62.745V10.3885C1.5 5.57002 5.40901 1.66237 10.2291 1.66237ZM33.5384 52.9281V55.1097H28.7785C28.1775 55.1097 27.6873 54.6188 27.6873 54.0189C27.6873 53.419 28.1783 52.9281 28.7785 52.9281H33.5384ZM34.0138 35.476C33.8512 36.1887 33.7288 36.9167 33.6489 37.6575H28.7785C28.1775 37.6575 27.6873 37.1666 27.6873 36.5667C27.6873 35.9668 28.1783 35.476 28.7785 35.476H34.0138ZM28.7785 18.0238H52.7835C53.3837 18.0238 53.8747 18.5146 53.8747 19.1145C53.8747 19.7145 53.3837 20.2053 52.7835 20.2053H28.7785C28.1775 20.2053 27.6873 19.7145 27.6873 19.1145C27.6873 18.5146 28.1783 18.0238 28.7785 18.0238ZM13.5025 48.5651H15.6848C18.099 48.5651 20.0494 50.5148 20.0494 52.9281V55.1097C20.0494 57.5189 18.0949 59.4727 15.6848 59.4727H13.5025C11.0925 59.4727 9.13797 57.5189 9.13797 55.1097V52.9281C9.13797 50.5189 11.0925 48.5651 13.5025 48.5651ZM15.6848 57.2912C16.8883 57.2912 17.8671 56.3125 17.8671 55.1097V52.9281C17.8671 51.7253 16.8883 50.7466 15.6848 50.7466H13.5025C12.299 50.7466 11.3203 51.7253 11.3203 52.9281V55.1097C11.3203 56.3125 12.299 57.2912 13.5025 57.2912H15.6848Z" fill="#3F6587"/>
<path d="M62.6038 20.7183V21.7183H63.6038V20.7183H62.6038ZM60.4215 20.7183H59.4215V21.7183H60.4215V20.7183ZM33.5384 69.2896H34.5384V68.2896H33.5384V69.2896ZM33.5384 71.4711V72.4711H34.5384V71.4711H33.5384ZM33.5384 55.1097V56.1097H34.5384V55.1097H33.5384ZM33.5384 52.9281H34.5384V51.9281H33.5384V52.9281ZM33.6489 37.6575V38.6575H34.5468L34.6431 37.7647L33.6489 37.6575ZM34.0138 35.476L34.9888 35.6983L35.2675 34.476H34.0138V35.476ZM53.8747 0.662369H10.2291V2.66237H53.8747V0.662369ZM63.6038 10.3885C63.6038 5.017 59.2409 0.662369 53.8747 0.662369V2.66237C58.1378 2.66237 61.6038 6.12304 61.6038 10.3885H63.6038ZM63.6038 20.7183V10.3885H61.6038V20.7183H63.6038ZM60.4215 21.7183H62.6038V19.7183H60.4215V21.7183ZM59.4215 10.3885V20.7183H61.4215V10.3885H59.4215ZM53.8747 4.84389C56.933 4.84389 59.4215 7.33201 59.4215 10.3885H61.4215C61.4215 6.22679 58.0369 2.84389 53.8747 2.84389V4.84389ZM10.2291 4.84389H53.8747V2.84389H10.2291V4.84389ZM4.68228 10.3885C4.68228 7.33201 7.17076 4.84389 10.2291 4.84389V2.84389C6.06685 2.84389 2.68228 6.22679 2.68228 10.3885H4.68228ZM4.68228 62.745V10.3885H2.68228V62.745H4.68228ZM10.2291 68.2896C7.17076 68.2896 4.68228 65.8014 4.68228 62.745H2.68228C2.68228 66.9067 6.06685 70.2896 10.2291 70.2896V68.2896ZM33.5384 68.2896H10.2291V70.2896H33.5384V68.2896ZM34.5384 71.4711V69.2896H32.5384V71.4711H34.5384ZM10.2291 72.4711H33.5384V70.4711H10.2291V72.4711ZM0.5 62.745C0.5 68.116 4.85705 72.4711 10.2291 72.4711V70.4711C5.96096 70.4711 2.5 67.0108 2.5 62.745H0.5ZM0.5 10.3885V62.745H2.5V10.3885H0.5ZM10.2291 0.662369C4.85705 0.662369 0.5 5.01741 0.5 10.3885H2.5C2.5 6.12263 5.96096 2.66237 10.2291 2.66237V0.662369ZM34.5384 55.1097V52.9281H32.5384V55.1097H34.5384ZM28.7785 56.1097H33.5384V54.1097H28.7785V56.1097ZM26.6873 54.0189C26.6873 55.1709 27.6251 56.1097 28.7785 56.1097V54.1097C28.7558 54.1097 28.7339 54.1014 28.7147 54.0822C28.6955 54.063 28.6873 54.0411 28.6873 54.0189H26.6873ZM28.7785 51.9281C27.6264 51.9281 26.6873 52.8664 26.6873 54.0189H28.6873C28.6873 53.9972 28.6953 53.9753 28.7148 53.9558C28.7344 53.9363 28.7564 53.9281 28.7785 53.9281V51.9281ZM33.5384 51.9281H28.7785V53.9281H33.5384V51.9281ZM34.6431 37.7647C34.7188 37.0629 34.8348 36.3733 34.9888 35.6983L33.0388 35.2536C32.8676 36.0041 32.7387 36.7706 32.6546 37.5502L34.6431 37.7647ZM28.7785 38.6575H33.6489V36.6575H28.7785V38.6575ZM26.6873 36.5667C26.6873 37.7188 27.6251 38.6575 28.7785 38.6575V36.6575C28.7558 36.6575 28.7339 36.6492 28.7147 36.63C28.6955 36.6108 28.6873 36.5889 28.6873 36.5667H26.6873ZM28.7785 34.476C27.6264 34.476 26.6873 35.4142 26.6873 36.5667H28.6873C28.6873 36.545 28.6953 36.5231 28.7148 36.5036C28.7344 36.4841 28.7564 36.476 28.7785 36.476V34.476ZM34.0138 34.476H28.7785V36.476H34.0138V34.476ZM52.7835 17.0238H28.7785V19.0238H52.7835V17.0238ZM54.8747 19.1145C54.8747 17.962 53.9356 17.0238 52.7835 17.0238V19.0238C52.8056 19.0238 52.8276 19.0319 52.8472 19.0514C52.8667 19.0709 52.8747 19.0928 52.8747 19.1145H54.8747ZM52.7835 21.2053C53.9356 21.2053 54.8747 20.2671 54.8747 19.1145H52.8747C52.8747 19.1363 52.8667 19.1582 52.8472 19.1777C52.8276 19.1972 52.8056 19.2053 52.7835 19.2053V21.2053ZM28.7785 21.2053H52.7835V19.2053H28.7785V21.2053ZM26.6873 19.1145C26.6873 20.2666 27.6251 21.2053 28.7785 21.2053V19.2053C28.7558 19.2053 28.7339 19.197 28.7147 19.1778C28.6955 19.1586 28.6873 19.1368 28.6873 19.1145H26.6873ZM28.7785 17.0238C27.6264 17.0238 26.6873 17.962 26.6873 19.1145H28.6873C28.6873 19.0928 28.6953 19.0709 28.7148 19.0514C28.7344 19.0319 28.7564 19.0238 28.7785 19.0238V17.0238ZM15.6848 47.5651H13.5025V49.5651H15.6848V47.5651ZM21.0494 52.9281C21.0494 49.9622 18.6509 47.5651 15.6848 47.5651V49.5651C17.547 49.5651 19.0494 51.0674 19.0494 52.9281H21.0494ZM21.0494 55.1097V52.9281H19.0494V55.1097H21.0494ZM15.6848 60.4727C18.6468 60.4727 21.0494 58.0715 21.0494 55.1097H19.0494C19.0494 56.9663 17.5429 58.4727 15.6848 58.4727V60.4727ZM13.5025 60.4727H15.6848V58.4727H13.5025V60.4727ZM8.13797 55.1097C8.13797 58.0715 10.5405 60.4727 13.5025 60.4727V58.4727C11.6444 58.4727 10.138 56.9663 10.138 55.1097H8.13797ZM8.13797 52.9281V55.1097H10.138V52.9281H8.13797ZM13.5025 47.5651C10.5405 47.5651 8.13797 49.9663 8.13797 52.9281H10.138C10.138 51.0715 11.6444 49.5651 13.5025 49.5651V47.5651ZM16.8671 55.1097C16.8671 55.76 16.3363 56.2912 15.6848 56.2912V58.2912C17.4404 58.2912 18.8671 56.865 18.8671 55.1097H16.8671ZM16.8671 52.9281V55.1097H18.8671V52.9281H16.8671ZM15.6848 51.7466C16.3363 51.7466 16.8671 52.2778 16.8671 52.9281H18.8671C18.8671 51.1728 17.4404 49.7466 15.6848 49.7466V51.7466ZM13.5025 51.7466H15.6848V49.7466H13.5025V51.7466ZM12.3203 52.9281C12.3203 52.2778 12.851 51.7466 13.5025 51.7466V49.7466C11.747 49.7466 10.3203 51.1728 10.3203 52.9281H12.3203ZM12.3203 55.1097V52.9281H10.3203V55.1097H12.3203ZM13.5025 56.2912C12.851 56.2912 12.3203 55.76 12.3203 55.1097H10.3203C10.3203 56.865 11.747 58.2912 13.5025 58.2912V56.2912ZM15.6848 56.2912H13.5025V58.2912H15.6848V56.2912Z" fill="#3F6587" mask="url(#path-8-outside-2_2583_13738)"/>
<path fill-rule="evenodd" clip-rule="evenodd" d="M53.8486 32.0482H101.718C106.999 32.0482 111.292 36.3451 111.292 41.6469V99.2391C111.292 104.541 107.006 108.838 101.718 108.838H53.8486C48.5606 108.838 44.2748 104.541 44.2748 99.2391V41.6469C44.2748 36.3451 48.5606 32.0482 53.8486 32.0482ZM61.029 94.4397C62.3454 94.4397 63.4225 93.3599 63.4225 92.04V87.2407C63.4225 85.9359 62.3454 84.841 61.029 84.841H56.2421C54.9332 84.841 53.8486 85.9359 53.8486 87.2407V92.04C53.8486 93.3599 54.9332 94.4397 56.2421 94.4397H61.029ZM75.3898 92.04H99.3245C100.641 92.04 101.718 90.9656 101.718 89.6404C101.718 88.3151 100.646 87.2407 99.3245 87.2407H75.3898C74.068 87.2407 72.9964 88.3205 72.9964 89.6404C72.9964 90.9602 74.0734 92.04 75.3898 92.04ZM75.3898 72.8426H99.3245C100.641 72.8426 101.718 71.7628 101.718 70.443C101.718 69.1231 100.641 68.0433 99.3245 68.0433H75.3898C74.068 68.0433 72.9964 69.1231 72.9964 70.443C72.9964 71.7628 74.0734 72.8426 75.3898 72.8426ZM75.3898 53.6452H99.3245C100.641 53.6452 101.718 52.5654 101.718 51.2456C101.718 49.9257 100.641 48.8459 99.3245 48.8459H75.3898C74.068 48.8459 72.9964 49.9257 72.9964 51.2456C72.9964 52.5654 74.0734 53.6452 75.3898 53.6452ZM67.7521 42.0122C66.8172 41.0748 65.3018 41.0748 64.3683 42.0122L57.6846 48.7163L55.7863 46.8115C54.8513 45.8742 53.336 45.8742 52.4025 46.8115C51.4691 47.7489 51.4676 49.2682 52.4025 50.2041L55.9927 53.8036C56.4594 54.2655 57.0728 54.5055 57.6846 54.5055C58.2964 54.5055 58.9094 54.2712 59.3765 53.8024L67.7536 45.4035C68.6945 44.4719 68.6945 42.9421 67.7521 42.0122Z" fill="white"/>
<path d="M60.884 84.726L56.0971 84.726C54.7807 84.726 53.7036 85.8058 53.7036 87.1256L53.7036 91.925C53.7036 93.2298 54.7807 94.3246 56.0971 94.3246L60.884 94.3246C62.1929 94.3246 63.2775 93.2298 63.2775 91.925L63.2775 87.1256C63.2775 85.8058 62.1929 84.726 60.884 84.726Z" fill="#E7EDF2"/>
<path d="M64.3681 41.8066C65.3016 40.8692 66.817 40.8692 67.7519 41.8066C68.6943 42.7365 68.6943 44.2663 67.7534 45.1979L59.3763 53.5968C58.9092 54.0656 58.2962 54.2999 57.6844 54.2999C57.0726 54.2999 56.4592 54.0599 55.9925 53.598L52.4023 49.9985C51.4674 49.0626 51.4689 47.5433 52.4023 46.6059C53.3358 45.6686 54.8511 45.6686 55.7861 46.6059L57.6844 48.5107L64.3681 41.8066Z" fill="#E7EDF2"/>
<path d="M64.3681 60.3258C65.3016 59.3884 66.817 59.3884 67.7519 60.3258C68.6943 61.2557 68.6943 62.7855 67.7534 63.7171L59.3763 72.116C58.9092 72.5848 58.2962 72.8191 57.6844 72.8191C57.0726 72.8191 56.4592 72.5791 55.9925 72.1172L52.4023 68.5177C51.4674 67.5818 51.4689 66.0625 52.4023 65.1252C53.3358 64.1878 54.8511 64.1878 55.7861 65.1252L57.6844 67.0299L64.3681 60.3258Z" fill="#E7EDF2"/>
<path d="M97.3241 26.4844H49.4548C43.8909 26.4844 39.381 31.0079 39.381 36.5831V94.1753C39.381 99.7505 43.8909 104.274 49.4548 104.274H97.3241C102.888 104.274 107.398 99.7505 107.398 94.1753V36.5831C107.398 31.0077 102.882 26.4844 97.3241 26.4844ZM104.005 94.1753C104.005 97.8703 101.006 100.874 97.3241 100.874H49.4548C45.7725 100.874 42.7744 97.8703 42.7744 94.1753V36.5831C42.7744 32.8881 45.7725 29.8841 49.4548 29.8841H97.3241C101.006 29.8841 104.005 32.8881 104.005 36.5831V94.1753ZM96.1274 44.482H69.7993C68.8637 44.482 68.1026 45.247 68.1026 46.1818C68.1026 47.1164 68.8626 47.8817 69.7993 47.8817H96.1274C97.063 47.8817 97.8241 47.1166 97.8241 46.1818C97.8241 45.247 97.063 44.482 96.1274 44.482ZM96.1274 63.6794H69.7993C68.8637 63.6794 68.1026 64.4444 68.1026 65.3792C68.1026 66.3138 68.8626 67.079 69.7993 67.079H96.1274C97.063 67.079 97.8241 66.314 97.8241 65.3792C97.8241 64.4444 97.063 63.6794 96.1274 63.6794ZM96.1274 82.8768H69.7993C68.8637 82.8768 68.1026 83.6418 68.1026 84.5766C68.1026 85.5112 68.8626 86.2764 69.7993 86.2764H96.1274C97.0632 86.2764 97.8241 85.5154 97.8241 84.5766C97.8241 83.6376 97.0621 82.8768 96.1274 82.8768ZM55.4385 78.0774H53.045C50.1244 78.0774 47.7581 80.4517 47.7581 83.3768V85.7764C47.7581 88.7015 50.1244 91.0758 53.045 91.0758H55.4385C58.3592 91.0758 60.7254 88.7015 60.7254 85.7764V83.3768C60.7254 80.4472 58.3636 78.0774 55.4385 78.0774ZM57.332 85.7764C57.332 86.8247 56.4811 87.6761 55.4385 87.6761H53.045C52.0024 87.6761 51.1516 86.8247 51.1516 85.7764V83.3768C51.1516 82.3285 52.0024 81.4771 53.045 81.4771H55.4385C56.4811 81.4771 57.332 82.3285 57.332 83.3768V85.7764Z" fill="#3F6587" stroke="#3F6587"/>
<path d="M62.9244 38.569L54.5576 46.9719L50.9717 43.3684L50.9713 43.368C50.3085 42.7036 49.2337 42.7033 48.5712 43.3682C47.9101 44.0317 47.9089 45.1069 48.5715 45.7707L53.3568 50.5683C53.6857 50.9035 54.1182 51.0752 54.5575 51.0752C54.9938 51.0752 55.4269 50.9085 55.7577 50.5767L65.3315 40.9781C65.9935 40.3143 65.9938 39.2389 65.3313 38.5754V38.5754C64.6684 37.9114 63.6029 37.9099 62.9303 38.5631L62.9303 38.5631L62.9244 38.569Z" fill="#F37A20" stroke="#F37A20"/>
<path d="M62.9303 57.0823L62.9303 57.0823L62.9244 57.0882L54.5576 65.4911L50.9717 61.8877L50.9713 61.8873C50.3085 61.2228 49.2337 61.2226 48.5712 61.8874C47.9101 62.5509 47.9089 63.626 48.5714 64.2897C48.5714 64.2898 48.5715 64.2898 48.5715 64.2899L53.3568 69.0875C53.6857 69.4227 54.1182 69.5944 54.5575 69.5944C54.9938 69.5944 55.4269 69.4277 55.7577 69.0959L65.3315 59.4973C65.9935 58.8335 65.9938 57.7582 65.3313 57.0946V57.0946C64.6684 56.4306 63.6029 56.4291 62.9303 57.0823Z" fill="#F37A20" stroke="#F37A20"/>
</svg>
