<svg width="144" height="210" viewBox="0 0 144 210" fill="none" xmlns="http://www.w3.org/2000/svg">
<rect x="5.80371" y="144.464" width="37.1429" height="37.1429" rx="6.75325" fill="white"/>
<rect x="93.7275" y="48.5376" width="19.3198" height="19.3198" rx="4.67995" fill="white"/>
<rect x="77.7676" y="0.535767" width="35.2797" height="35.2797" rx="6.71993" fill="white"/>
<rect x="49.9111" y="186.012" width="23.0655" height="23.0655" rx="4.64286" fill="white"/>
<path fill-rule="evenodd" clip-rule="evenodd" d="M73.5208 45.9752H16.6065C10.3192 45.9752 5.22363 51.0467 5.22363 57.3041V125.278C5.22363 131.535 10.3192 136.606 16.6065 136.606H44.3542V116.781H42.218C40.6528 116.781 39.3722 115.506 39.3722 113.949C39.3722 112.391 40.6464 111.116 42.218 111.116H44.3542V94.1231H42.218C40.6528 94.1231 39.3722 92.8486 39.3722 91.2909C39.3722 89.7331 40.6464 88.4586 42.218 88.4586H44.3542V85.3209C44.3542 79.6295 47.1261 74.5855 51.3937 71.4653H42.218C40.6528 71.4653 39.3722 70.1908 39.3722 68.633C39.3722 67.0753 40.6464 65.8008 42.218 65.8008H70.6751C72.0813 65.8008 73.2578 66.8295 73.4822 68.1682H84.9037V57.3041C84.9037 51.0467 79.7992 45.9752 73.5208 45.9752ZM27.9894 116.781C27.9894 118.339 26.7088 119.613 25.1437 119.613H19.4522C18.7448 119.613 18.0924 119.35 17.5913 118.916C16.8902 118.396 16.4336 117.564 16.4336 116.645L16.4336 110.98C16.4336 109.423 17.7142 108.148 19.2793 108.148H24.9707C25.6782 108.148 26.3305 108.411 26.8316 108.845C27.5327 109.366 27.9894 110.197 27.9894 111.116V116.781ZM33.9747 59.6069C34.0053 58.8433 33.726 58.0697 33.1364 57.4922C32.0248 56.3859 30.2231 56.3859 29.1132 57.4922L21.1666 65.4047L18.9096 63.1566C17.7979 62.0503 15.9962 62.0503 14.8864 63.1566C14.2981 63.7431 14.0212 64.5225 14.0564 65.2901C14.0259 66.0517 14.3026 66.823 14.8871 67.4038L19.1557 71.6522C19.7106 72.1974 20.4398 72.4806 21.1673 72.4806C21.8947 72.4806 22.6236 72.2041 23.1788 71.6508L33.1388 61.738C33.7313 61.1556 34.01 60.3752 33.9747 59.6069ZM26.572 85.0249C26.114 84.7118 25.5616 84.528 24.9707 84.528H19.2793C17.7142 84.528 16.4336 85.8025 16.4336 87.3603L16.4336 93.0247C16.4336 94.1569 17.1257 95.1551 18.1142 95.6045C18.5702 95.9163 19.1203 96.1003 19.7109 96.1003H25.4023C26.9585 96.1003 28.248 94.8081 28.248 93.2681V87.6036C28.248 86.4617 27.555 85.4719 26.572 85.0249Z" fill="#D0DCE5"/>
<path fill-rule="evenodd" clip-rule="evenodd" d="M16.0274 92.2091H18.8731C22.0158 92.2091 24.5645 89.6725 24.5645 86.5447V83.7124C24.5645 80.5846 22.0158 78.048 18.8731 78.048H16.0274C12.8846 78.048 10.3359 80.5846 10.3359 83.7124V86.5447C10.3359 89.6778 12.8846 92.2091 16.0274 92.2091ZM13.3511 83.8727C13.3511 82.311 14.6274 81.0404 16.1968 81.0404H19.0425C20.6119 81.0404 21.8882 82.311 21.8882 83.8727V86.7049C21.8882 88.2665 20.6119 89.5371 19.0425 89.5371H16.1968C14.6274 89.5371 13.3511 88.2665 13.3511 86.7049V83.8727Z" fill="#3F6587"/>
<path d="M17.4499 64.4258L27.819 54.0882C28.3881 53.5394 29.2829 53.5437 29.8387 54.0963C30.3945 54.6489 30.3945 55.5452 29.8387 56.0983L18.4559 67.4272C18.178 67.7039 17.8163 67.8422 17.4499 67.8422C17.0835 67.8422 16.7225 67.7005 16.445 67.4191L10.7536 61.7546C10.1978 61.202 10.1983 60.3058 10.7536 59.7526C11.3088 59.1994 12.2093 59.1994 12.7651 59.7526L17.4499 64.4258Z" fill="#F37A20"/>
<path fill-rule="evenodd" clip-rule="evenodd" d="M11.3829 40H68.2972C74.5756 40 79.6801 45.0732 79.6801 51.3289V64.74H76.8344V51.3289C76.8344 46.6433 73.0051 42.8322 68.2972 42.8322H11.3829C6.67499 42.8322 2.84572 46.6433 2.84572 51.3289V119.302C2.84572 123.988 6.67499 127.799 11.3829 127.799H41.7789V130.631H11.3829C5.09739 130.631 0 125.558 0 119.302V51.3289C0 45.0732 5.09739 40 11.3829 40ZM41.7789 106.557V109.39H35.5715C34.7878 109.39 34.1486 108.752 34.1486 107.973C34.1486 107.195 34.7889 106.557 35.5715 106.557H41.7789ZM41.7789 83.8995V86.7318H35.5715C34.7878 86.7318 34.1486 86.0945 34.1486 85.3156C34.1486 84.5368 34.7889 83.8995 35.5715 83.8995H41.7789ZM35.5715 61.2417H66.8744C67.6569 61.2417 68.2972 61.879 68.2972 62.6578C68.2972 63.4367 67.6569 64.0739 66.8744 64.0739H35.5715C34.7878 64.0739 34.1486 63.4367 34.1486 62.6578C34.1486 61.879 34.7889 61.2417 35.5715 61.2417ZM15.6514 100.893H18.4972C21.6452 100.893 24.1886 103.424 24.1886 106.557V109.39C24.1886 112.517 21.6399 115.054 18.4972 115.054H15.6514C12.5087 115.054 9.96001 112.517 9.96001 109.39V106.557C9.96001 103.43 12.5087 100.893 15.6514 100.893ZM18.4972 112.222C20.0666 112.222 21.3429 110.951 21.3429 109.39V106.557C21.3429 104.996 20.0666 103.725 18.4972 103.725H15.6514C14.082 103.725 12.8057 104.996 12.8057 106.557V109.39C12.8057 110.951 14.082 112.222 15.6514 112.222H18.4972Z" fill="#3F6587"/>
<path fill-rule="evenodd" clip-rule="evenodd" d="M130.685 79.4475H68.2628C61.3671 79.4475 55.7783 85.0261 55.7783 91.9093V166.68C55.7783 173.563 61.3671 179.142 68.2628 179.142H130.685C137.581 179.142 143.169 173.563 143.169 166.68V91.9093C143.169 85.0261 137.571 79.4475 130.685 79.4475ZM80.7472 157.334C80.7472 159.047 79.3427 160.449 77.6261 160.449H71.3839C70.6091 160.449 69.8947 160.16 69.3454 159.685C68.5752 159.112 68.0736 158.197 68.0736 157.185L68.0736 150.954C68.0736 149.24 69.4781 147.838 71.1947 147.838H77.4369C78.2116 147.838 78.926 148.127 79.4753 148.603C80.2455 149.175 80.7472 150.09 80.7472 151.103V157.334ZM127.564 157.334H96.3527C94.6361 157.334 93.2316 155.932 93.2316 154.218C93.2316 152.505 94.6291 151.103 96.3527 151.103H127.564C129.287 151.103 130.685 152.498 130.685 154.218C130.685 155.939 129.28 157.334 127.564 157.334ZM127.564 132.41H96.3527C94.6361 132.41 93.2316 131.008 93.2316 129.295C93.2316 127.581 94.6291 126.179 96.3527 126.179H127.564C129.28 126.179 130.685 127.581 130.685 129.295C130.685 131.008 129.28 132.41 127.564 132.41ZM127.564 107.487H96.3527C94.6361 107.487 93.2316 106.085 93.2316 104.371C93.2316 102.658 94.6291 101.256 96.3527 101.256H127.564C129.28 101.256 130.685 102.658 130.685 104.371C130.685 106.085 129.28 107.487 127.564 107.487ZM87.312 94.4484C87.3471 93.6067 87.0408 92.7536 86.3927 92.117C85.1736 90.9 83.1975 90.9 81.9803 92.117L73.2646 100.821L70.7892 98.3479C69.57 97.1309 67.5939 97.1309 66.3767 98.3479C65.733 98.9914 65.4292 99.8462 65.466 100.689C65.4312 101.528 65.7345 102.379 66.377 103.019L71.0586 107.692C71.6673 108.292 72.467 108.603 73.2649 108.603C74.0627 108.603 74.8621 108.299 75.4711 107.691L86.395 96.7865C87.0433 96.1474 87.349 95.2916 87.312 94.4484ZM86.3927 116.16C85.1736 114.943 83.1975 114.943 81.9803 116.16L73.2646 124.864L70.7892 122.391C69.57 121.174 67.5939 121.174 66.3767 122.391C65.1595 123.608 65.1575 125.58 66.3767 126.796L71.0584 131.469C71.667 132.068 72.4668 132.38 73.2646 132.38C74.0624 132.38 74.8618 132.076 75.4708 131.467L86.3947 120.563C87.6217 119.353 87.6217 117.367 86.3927 116.16Z" fill="white"/>
<path d="M124.955 72.873H62.5333C55.6395 72.873 50.0488 78.4536 50.0488 85.3348V160.106C50.0488 166.987 55.6395 172.567 62.5333 172.567H124.955C131.849 172.567 137.44 166.987 137.44 160.106V85.3348C137.44 78.4536 131.841 72.873 124.955 72.873ZM134.319 160.106C134.319 165.26 130.119 169.452 124.955 169.452H62.5333C57.3698 169.452 53.1699 165.26 53.1699 160.106V85.3348C53.1699 80.1807 57.3698 75.9885 62.5333 75.9885H124.955C130.119 75.9885 134.319 80.1807 134.319 85.3348V160.106ZM123.395 96.2389H89.0627C88.2044 96.2389 87.5021 96.9399 87.5021 97.7966C87.5021 98.6534 88.2032 99.3544 89.0627 99.3544H123.395C124.253 99.3544 124.955 98.6534 124.955 97.7966C124.955 96.9399 124.253 96.2389 123.395 96.2389ZM123.395 121.163H89.0627C88.2044 121.163 87.5021 121.863 87.5021 122.72C87.5021 123.577 88.2032 124.278 89.0627 124.278H123.395C124.253 124.278 124.955 123.577 124.955 122.72C124.955 121.863 124.253 121.163 123.395 121.163ZM123.395 146.086H89.0627C88.2044 146.086 87.5021 146.787 87.5021 147.644C87.5021 148.501 88.2032 149.202 89.0627 149.202H123.395C124.254 149.202 124.955 148.505 124.955 147.644C124.955 146.783 124.253 146.086 123.395 146.086ZM70.336 139.855H67.2149C63.7681 139.855 60.9727 142.645 60.9727 146.086V149.202C60.9727 152.642 63.7681 155.432 67.2149 155.432H70.336C73.7829 155.432 76.5783 152.642 76.5783 149.202V146.086C76.5783 142.64 73.7888 139.855 70.336 139.855ZM73.4571 149.202C73.4571 150.919 72.0573 152.317 70.336 152.317H67.2149C65.4936 152.317 64.0938 150.919 64.0938 149.202V146.086C64.0938 144.368 65.4936 142.971 67.2149 142.971H70.336C72.0573 142.971 73.4571 144.368 73.4571 146.086V149.202Z" fill="#3F6587"/>
<path d="M69.1871 99.7428L80.5596 88.3714C81.1838 87.7677 82.1652 87.7724 82.7748 88.3803C83.3844 88.9882 83.3844 89.9741 82.7748 90.5826L70.2904 103.044C69.9857 103.349 69.5889 103.501 69.1871 103.501C68.7852 103.501 68.3892 103.345 68.0849 103.035L61.8427 96.8045C61.2331 96.1966 61.2337 95.2108 61.8427 94.6023C62.4517 93.9938 63.4394 93.9938 64.049 94.6023L69.1871 99.7428Z" fill="#F37A20"/>
<path d="M69.1871 123.785L80.5596 112.413C81.1838 111.809 82.1652 111.814 82.7748 112.422C83.3844 113.03 83.3844 114.016 82.7748 114.624L70.2904 127.086C69.9857 127.39 69.5889 127.543 69.1871 127.543C68.7852 127.543 68.3892 127.387 68.0849 127.077L61.8427 120.846C61.2331 120.238 61.2337 119.252 61.8427 118.644C62.4517 118.036 63.4394 118.036 64.049 118.644L69.1871 123.785Z" fill="#F37A20"/>
</svg>
