<svg width="43" height="42" viewBox="0 0 43 42" fill="none" xmlns="http://www.w3.org/2000/svg">
<path fill-rule="evenodd" clip-rule="evenodd" d="M5.90405 2.75293H22.5312C24.3654 2.75293 25.8567 4.24107 25.8567 6.07722V9.26526H22.52C22.4545 8.87239 22.1108 8.57043 21.6999 8.57043H13.3863C12.9272 8.57043 12.5549 8.94442 12.5549 9.4015C12.5549 9.85859 12.929 10.2326 13.3863 10.2326H17.6319C15.8214 11.2792 14.5064 13.0873 14.1246 15.219H13.3863C12.9272 15.219 12.5549 15.593 12.5549 16.0501C12.5549 16.5072 12.929 16.8812 13.3863 16.8812H14.011V21.8676H13.3863C12.9272 21.8676 12.5549 22.2416 12.5549 22.6987C12.5549 23.1557 12.929 23.5297 13.3863 23.5297H14.011V29.3472H5.90405C4.06727 29.3472 2.57861 27.8591 2.57861 26.0229V6.07722C2.57861 4.24107 4.06727 2.75293 5.90405 2.75293ZM8.39813 24.3608C8.85538 24.3608 9.22949 23.9868 9.22949 23.5297V21.8676C9.22949 21.4157 8.85538 21.0365 8.39813 21.0365H6.73541C6.28076 21.0365 5.90405 21.4157 5.90405 21.8676V23.5297C5.90405 23.9868 6.28076 24.3608 6.73541 24.3608H8.39813ZM10.7333 6.20406C10.4085 5.87942 9.88215 5.87942 9.55792 6.20406L7.23635 8.52586L6.57698 7.8662C6.25223 7.54156 5.72587 7.54156 5.40164 7.8662C5.07741 8.19084 5.07689 8.71701 5.40164 9.04113L6.64868 10.2877C6.8108 10.4477 7.02383 10.5308 7.23635 10.5308C7.44887 10.5308 7.6618 10.4497 7.82402 10.2873L10.7338 7.37857C11.0606 7.05591 11.0606 6.5261 10.7333 6.20406ZM8.47387 14.1374H6.81115C6.3539 14.1374 5.97979 14.5114 5.97979 14.9685V16.6306C5.97979 17.0825 6.3539 17.4617 6.81115 17.4617H8.47387C8.92852 17.4617 9.30523 17.0825 9.30523 16.6306V14.9685C9.30523 14.5114 8.92852 14.1374 8.47387 14.1374Z" fill="#D0DCE5"/>
<path d="M8.34882 14.0656L6.68609 14.0656C6.22885 14.0656 5.85473 14.4396 5.85473 14.8967L5.85473 16.5588C5.85473 17.0107 6.22885 17.3899 6.68609 17.3899L8.34882 17.3899C8.80347 17.3899 9.18018 17.0107 9.18018 16.5588L9.18018 14.8967C9.18018 14.4396 8.80347 14.0656 8.34882 14.0656Z" fill="white"/>
<path d="M8.34882 20.9965L6.68609 20.9965C6.22885 20.9965 5.85473 21.3705 5.85473 21.8276L5.85473 23.4897C5.85473 23.9416 6.22885 24.3208 6.68609 24.3208L8.34882 24.3208C8.80347 24.3208 9.18018 23.9416 9.18018 23.4897L9.18018 21.8276C9.18018 21.3705 8.80347 20.9965 8.34882 20.9965Z" fill="white"/>
<path d="M9.55883 6.13239C9.88306 5.80776 10.4094 5.80776 10.7342 6.13239C11.0615 6.45443 11.0615 6.98424 10.7347 7.30691L7.82492 10.2157C7.6627 10.378 7.44977 10.4592 7.23725 10.4592C7.02474 10.4592 6.8117 10.3761 6.64959 10.2161L5.40255 8.96947C5.0778 8.64535 5.07832 8.11917 5.40255 7.79454C5.72678 7.4699 6.25313 7.4699 6.57788 7.79454L7.23725 8.4542L9.55883 6.13239Z" fill="white"/>
<mask id="path-5-outside-1_3316_37493" maskUnits="userSpaceOnUse" x="3.07324" y="11.1649" width="6" height="6" fill="black">
<rect fill="white" x="3.07324" y="11.1649" width="6" height="6"/>
<path fill-rule="evenodd" clip-rule="evenodd" d="M5.73596 16.3203H6.56732C7.48545 16.3203 8.23004 15.576 8.23004 14.6581V13.8271C8.23004 12.9092 7.48545 12.1649 6.56732 12.1649H5.73596C4.81783 12.1649 4.07324 12.9092 4.07324 13.8271V14.6581C4.07324 15.5775 4.81783 16.3203 5.73596 16.3203ZM4.95421 13.874C4.95421 13.4157 5.32708 13.0429 5.78557 13.0429H6.61693C7.07542 13.0429 7.44829 13.4157 7.44829 13.874V14.7051C7.44829 15.1633 7.07542 15.5361 6.61693 15.5361H5.78557C5.32708 15.5361 4.95421 15.1633 4.95421 14.7051V13.874Z"/>
</mask>
<path fill-rule="evenodd" clip-rule="evenodd" d="M5.73596 16.3203H6.56732C7.48545 16.3203 8.23004 15.576 8.23004 14.6581V13.8271C8.23004 12.9092 7.48545 12.1649 6.56732 12.1649H5.73596C4.81783 12.1649 4.07324 12.9092 4.07324 13.8271V14.6581C4.07324 15.5775 4.81783 16.3203 5.73596 16.3203ZM4.95421 13.874C4.95421 13.4157 5.32708 13.0429 5.78557 13.0429H6.61693C7.07542 13.0429 7.44829 13.4157 7.44829 13.874V14.7051C7.44829 15.1633 7.07542 15.5361 6.61693 15.5361H5.78557C5.32708 15.5361 4.95421 15.1633 4.95421 14.7051V13.874Z" fill="#3F6587"/>
<path d="M6.56732 15.9393H5.73596V16.7012H6.56732V15.9393ZM7.84908 14.6581C7.84908 15.3654 7.27518 15.9393 6.56732 15.9393V16.7012C7.69573 16.7012 8.611 15.7865 8.611 14.6581H7.84908ZM7.84908 13.8271V14.6581H8.611V13.8271H7.84908ZM6.56732 12.5459C7.27518 12.5459 7.84908 13.1198 7.84908 13.8271H8.611C8.611 12.6987 7.69573 11.784 6.56732 11.784V12.5459ZM5.73596 12.5459H6.56732V11.784H5.73596V12.5459ZM4.4542 13.8271C4.4542 13.1198 5.0281 12.5459 5.73596 12.5459V11.784C4.60755 11.784 3.69228 12.6987 3.69228 13.8271H4.4542ZM4.4542 14.6581V13.8271H3.69228V14.6581H4.4542ZM5.73596 15.9393C5.02787 15.9393 4.4542 15.3668 4.4542 14.6581H3.69228C3.69228 15.7883 4.60779 16.7012 5.73596 16.7012V15.9393ZM5.78557 12.662C5.11677 12.662 4.57325 13.2053 4.57325 13.874H5.33517C5.33517 13.6262 5.53738 13.4239 5.78557 13.4239V12.662ZM6.61693 12.662H5.78557V13.4239H6.61693V12.662ZM7.82925 13.874C7.82925 13.2053 7.28573 12.662 6.61693 12.662V13.4239C6.86512 13.4239 7.06733 13.6262 7.06733 13.874H7.82925ZM7.82925 14.7051V13.874H7.06733V14.7051H7.82925ZM6.61693 15.9171C7.28573 15.9171 7.82925 15.3738 7.82925 14.7051H7.06733C7.06733 14.9528 6.86512 15.1552 6.61693 15.1552V15.9171ZM5.78557 15.9171H6.61693V15.1552H5.78557V15.9171ZM4.57325 14.7051C4.57325 15.3738 5.11677 15.9171 5.78557 15.9171V15.1552C5.53738 15.1552 5.33517 14.9528 5.33517 14.7051H4.57325ZM4.57325 13.874V14.7051H5.33517V13.874H4.57325Z" fill="#3F6587" mask="url(#path-5-outside-1_3316_37493)"/>
<path d="M9.04526 4.9992L6.15081 7.89761L4.91696 6.66138L4.91681 6.66123C4.68009 6.42459 4.2964 6.4245 4.05975 6.66129C3.82333 6.89785 3.82288 7.28142 4.05981 7.51812C4.05983 7.51814 4.05985 7.51816 4.05988 7.51818L5.72196 9.17969C5.83948 9.29905 5.99397 9.36017 6.15077 9.36017C6.30642 9.36017 6.46113 9.30084 6.57932 9.18265C6.57933 9.18264 6.57934 9.18263 6.57935 9.18262L9.90476 5.85836C10.1415 5.62169 10.1416 5.23801 9.9047 5.00141C9.6679 4.76492 9.2876 4.76447 9.04753 4.99696L9.04751 4.99694L9.04526 4.9992Z" fill="#F37A20" stroke="#F37A20" stroke-width="0.38096"/>
<mask id="path-8-outside-2_3316_37493" maskUnits="userSpaceOnUse" x="0.0532227" y="-0.000366211" width="25" height="28" fill="black">
<rect fill="white" x="0.0532227" y="-0.000366211" width="25" height="28"/>
<path fill-rule="evenodd" clip-rule="evenodd" d="M4.37866 0.999634H21.0059C22.84 0.999634 24.3313 2.48829 24.3313 4.32392V8.25945H23.4999V4.32392C23.4999 2.94902 22.3812 1.83071 21.0059 1.83071H4.37866C3.00328 1.83071 1.88458 2.94902 1.88458 4.32392V24.2696C1.88458 25.6446 3.00328 26.7629 4.37866 26.7629H13.2584V27.5939H4.37866C2.5424 27.5939 1.05322 26.1053 1.05322 24.2696V4.32392C1.05322 2.48829 2.5424 0.999634 4.37866 0.999634ZM13.2584 20.5298V21.3609H11.4452C11.2163 21.3609 11.0295 21.1739 11.0295 20.9454C11.0295 20.7168 11.2166 20.5298 11.4452 20.5298H13.2584ZM13.4396 13.8812C13.3777 14.1528 13.331 14.4301 13.3006 14.7123H11.4452C11.2163 14.7123 11.0295 14.5253 11.0295 14.2968C11.0295 14.0682 11.2166 13.8812 11.4452 13.8812H13.4396ZM11.4452 7.23267H20.5902C20.8188 7.23267 21.0059 7.41966 21.0059 7.64821C21.0059 7.87675 20.8188 8.06375 20.5902 8.06375H11.4452C11.2163 8.06375 11.0295 7.87675 11.0295 7.64821C11.0295 7.41966 11.2166 7.23267 11.4452 7.23267ZM5.6257 18.8677H6.45706C7.37675 18.8677 8.11978 19.6105 8.11978 20.5298V21.3609C8.11978 22.2787 7.37519 23.023 6.45706 23.023H5.6257C4.70757 23.023 3.96298 22.2787 3.96298 21.3609V20.5298C3.96298 19.612 4.70757 18.8677 5.6257 18.8677ZM6.45706 22.192C6.91556 22.192 7.28842 21.8191 7.28842 21.3609V20.5298C7.28842 20.0716 6.91556 19.6988 6.45706 19.6988H5.6257C5.16721 19.6988 4.79434 20.0716 4.79434 20.5298V21.3609C4.79434 21.8191 5.16721 22.192 5.6257 22.192H6.45706Z"/>
</mask>
<path fill-rule="evenodd" clip-rule="evenodd" d="M4.37866 0.999634H21.0059C22.84 0.999634 24.3313 2.48829 24.3313 4.32392V8.25945H23.4999V4.32392C23.4999 2.94902 22.3812 1.83071 21.0059 1.83071H4.37866C3.00328 1.83071 1.88458 2.94902 1.88458 4.32392V24.2696C1.88458 25.6446 3.00328 26.7629 4.37866 26.7629H13.2584V27.5939H4.37866C2.5424 27.5939 1.05322 26.1053 1.05322 24.2696V4.32392C1.05322 2.48829 2.5424 0.999634 4.37866 0.999634ZM13.2584 20.5298V21.3609H11.4452C11.2163 21.3609 11.0295 21.1739 11.0295 20.9454C11.0295 20.7168 11.2166 20.5298 11.4452 20.5298H13.2584ZM13.4396 13.8812C13.3777 14.1528 13.331 14.4301 13.3006 14.7123H11.4452C11.2163 14.7123 11.0295 14.5253 11.0295 14.2968C11.0295 14.0682 11.2166 13.8812 11.4452 13.8812H13.4396ZM11.4452 7.23267H20.5902C20.8188 7.23267 21.0059 7.41966 21.0059 7.64821C21.0059 7.87675 20.8188 8.06375 20.5902 8.06375H11.4452C11.2163 8.06375 11.0295 7.87675 11.0295 7.64821C11.0295 7.41966 11.2166 7.23267 11.4452 7.23267ZM5.6257 18.8677H6.45706C7.37675 18.8677 8.11978 19.6105 8.11978 20.5298V21.3609C8.11978 22.2787 7.37519 23.023 6.45706 23.023H5.6257C4.70757 23.023 3.96298 22.2787 3.96298 21.3609V20.5298C3.96298 19.612 4.70757 18.8677 5.6257 18.8677ZM6.45706 22.192C6.91556 22.192 7.28842 21.8191 7.28842 21.3609V20.5298C7.28842 20.0716 6.91556 19.6988 6.45706 19.6988H5.6257C5.16721 19.6988 4.79434 20.0716 4.79434 20.5298V21.3609C4.79434 21.8191 5.16721 22.192 5.6257 22.192H6.45706Z" fill="#3F6587"/>
<path d="M24.3313 8.25945V8.6404H24.7123V8.25945H24.3313ZM23.4999 8.25945H23.119V8.6404H23.4999V8.25945ZM13.2584 26.7629H13.6394V26.3819H13.2584V26.7629ZM13.2584 27.5939V27.9749H13.6394V27.5939H13.2584ZM13.2584 21.3609V21.7419H13.6394V21.3609H13.2584ZM13.2584 20.5298H13.6394V20.1489H13.2584V20.5298ZM13.3006 14.7123V15.0933H13.6426L13.6793 14.7532L13.3006 14.7123ZM13.4396 13.8812L13.811 13.966L13.9172 13.5003H13.4396V13.8812ZM21.0059 0.618674H4.37866V1.38059H21.0059V0.618674ZM24.7123 4.32392C24.7123 2.27761 23.0502 0.618674 21.0059 0.618674V1.38059C22.6299 1.38059 23.9503 2.69897 23.9503 4.32392H24.7123ZM24.7123 8.25945V4.32392H23.9503V8.25945H24.7123ZM23.4999 8.6404H24.3313V7.87849H23.4999V8.6404ZM23.119 4.32392V8.25945H23.8809V4.32392H23.119ZM21.0059 2.21167C22.171 2.21167 23.119 3.15954 23.119 4.32392H23.8809C23.8809 2.73849 22.5915 1.44975 21.0059 1.44975V2.21167ZM4.37866 2.21167H21.0059V1.44975H4.37866V2.21167ZM2.26554 4.32392C2.26554 3.15954 3.21355 2.21167 4.37866 2.21167V1.44975C2.79301 1.44975 1.50362 2.73849 1.50362 4.32392H2.26554ZM2.26554 24.2696V4.32392H1.50362V24.2696H2.26554ZM4.37866 26.3819C3.21355 26.3819 2.26554 25.434 2.26554 24.2696H1.50362C1.50362 25.8551 2.79301 27.1438 4.37866 27.1438V26.3819ZM13.2584 26.3819H4.37866V27.1438H13.2584V26.3819ZM13.6394 27.5939V26.7629H12.8775V27.5939H13.6394ZM4.37866 27.9749H13.2584V27.213H4.37866V27.9749ZM0.672263 24.2696C0.672263 26.3158 2.33212 27.9749 4.37866 27.9749V27.213C2.75267 27.213 1.43418 25.8948 1.43418 24.2696H0.672263ZM0.672263 4.32392V24.2696H1.43418V4.32392H0.672263ZM4.37866 0.618674C2.33212 0.618674 0.672263 2.27777 0.672263 4.32392H1.43418C1.43418 2.69881 2.75267 1.38059 4.37866 1.38059V0.618674ZM13.6394 21.3609V20.5298H12.8775V21.3609H13.6394ZM11.4452 21.7419H13.2584V20.9799H11.4452V21.7419ZM10.6486 20.9454C10.6486 21.3842 11.0058 21.7419 11.4452 21.7419V20.9799C11.4366 20.9799 11.4282 20.9768 11.4209 20.9695C11.4136 20.9621 11.4105 20.9538 11.4105 20.9454H10.6486ZM11.4452 20.1489C11.0063 20.1489 10.6486 20.5063 10.6486 20.9454H11.4105C11.4105 20.9371 11.4135 20.9287 11.421 20.9213C11.4284 20.9139 11.4368 20.9108 11.4452 20.9108V20.1489ZM13.2584 20.1489H11.4452V20.9108H13.2584V20.1489ZM13.6793 14.7532C13.7082 14.4858 13.7524 14.2231 13.811 13.966L13.0682 13.7965C13.003 14.0824 12.9538 14.3744 12.9218 14.6715L13.6793 14.7532ZM11.4452 15.0933H13.3006V14.3314H11.4452V15.0933ZM10.6486 14.2968C10.6486 14.7357 11.0058 15.0933 11.4452 15.0933V14.3314C11.4366 14.3314 11.4282 14.3282 11.4209 14.3209C11.4136 14.3136 11.4105 14.3053 11.4105 14.2968H10.6486ZM11.4452 13.5003C11.0063 13.5003 10.6486 13.8577 10.6486 14.2968H11.4105C11.4105 14.2885 11.4135 14.2802 11.421 14.2727C11.4284 14.2653 11.4368 14.2622 11.4452 14.2622V13.5003ZM13.4396 13.5003H11.4452V14.2622H13.4396V13.5003ZM20.5902 6.85171H11.4452V7.61363H20.5902V6.85171ZM21.3868 7.64821C21.3868 7.20914 21.0291 6.85171 20.5902 6.85171V7.61363C20.5986 7.61363 20.607 7.61673 20.6144 7.62416C20.6219 7.6316 20.6249 7.63993 20.6249 7.64821H21.3868ZM20.5902 8.4447C21.0291 8.4447 21.3868 8.08728 21.3868 7.64821H20.6249C20.6249 7.65649 20.6219 7.66482 20.6144 7.67226C20.607 7.67969 20.5986 7.68279 20.5902 7.68279V8.4447ZM11.4452 8.4447H20.5902V7.68279H11.4452V8.4447ZM10.6486 7.64821C10.6486 8.08709 11.0058 8.4447 11.4452 8.4447V7.68279C11.4366 7.68279 11.4282 7.67963 11.4209 7.67232C11.4136 7.665 11.4105 7.65668 11.4105 7.64821H10.6486ZM11.4452 6.85171C11.0063 6.85171 10.6486 7.20914 10.6486 7.64821H11.4105C11.4105 7.63993 11.4135 7.6316 11.421 7.62416C11.4284 7.61673 11.4368 7.61363 11.4452 7.61363V6.85171ZM6.45706 18.4867H5.6257V19.2486H6.45706V18.4867ZM8.50074 20.5298C8.50074 19.3999 7.58703 18.4867 6.45706 18.4867V19.2486C7.16648 19.2486 7.73882 19.821 7.73882 20.5298H8.50074ZM8.50074 21.3609V20.5298H7.73882V21.3609H8.50074ZM6.45706 23.404C7.58547 23.404 8.50074 22.4892 8.50074 21.3609H7.73882C7.73882 22.0682 7.16492 22.6421 6.45706 22.6421V23.404ZM5.6257 23.404H6.45706V22.6421H5.6257V23.404ZM3.58202 21.3609C3.58202 22.4892 4.4973 23.404 5.6257 23.404V22.6421C4.91784 22.6421 4.34394 22.0682 4.34394 21.3609H3.58202ZM3.58202 20.5298V21.3609H4.34394V20.5298H3.58202ZM5.6257 18.4867C4.4973 18.4867 3.58202 19.4015 3.58202 20.5298H4.34394C4.34394 19.8225 4.91784 19.2486 5.6257 19.2486V18.4867ZM6.90746 21.3609C6.90746 21.6086 6.70525 21.811 6.45706 21.811V22.5729C7.12586 22.5729 7.66938 22.0296 7.66938 21.3609H6.90746ZM6.90746 20.5298V21.3609H7.66938V20.5298H6.90746ZM6.45706 20.0797C6.70525 20.0797 6.90746 20.2821 6.90746 20.5298H7.66938C7.66938 19.8611 7.12586 19.3178 6.45706 19.3178V20.0797ZM5.6257 20.0797H6.45706V19.3178H5.6257V20.0797ZM5.1753 20.5298C5.1753 20.2821 5.37751 20.0797 5.6257 20.0797V19.3178C4.9569 19.3178 4.41338 19.8611 4.41338 20.5298H5.1753ZM5.1753 21.3609V20.5298H4.41338V21.3609H5.1753ZM5.6257 21.811C5.37751 21.811 5.1753 21.6086 5.1753 21.3609H4.41338C4.41338 22.0296 4.9569 22.5729 5.6257 22.5729V21.811ZM6.45706 21.811H5.6257V22.5729H6.45706V21.811Z" fill="#3F6587" mask="url(#path-8-outside-2_3316_37493)"/>
<path fill-rule="evenodd" clip-rule="evenodd" d="M20.9969 12.5763H39.2331C41.2448 12.5763 42.8804 14.2132 42.8804 16.233V38.1733C42.8804 40.1931 41.2477 41.83 39.2331 41.83H20.9969C18.9823 41.83 17.3496 40.1931 17.3496 38.1733V16.233C17.3496 14.2132 18.9823 12.5763 20.9969 12.5763ZM23.7323 36.345C24.2338 36.345 24.6441 35.9336 24.6441 35.4308V33.6024C24.6441 33.1053 24.2338 32.6882 23.7323 32.6882H21.9087C21.41 32.6882 20.9969 33.1053 20.9969 33.6024V35.4308C20.9969 35.9336 21.41 36.345 21.9087 36.345H23.7323ZM29.2032 35.4308H38.3213C38.8228 35.4308 39.2331 35.0215 39.2331 34.5166C39.2331 34.0117 38.8249 33.6024 38.3213 33.6024H29.2032C28.6996 33.6024 28.2914 34.0138 28.2914 34.5166C28.2914 35.0194 28.7017 35.4308 29.2032 35.4308ZM29.2032 28.1173H38.3213C38.8228 28.1173 39.2331 27.706 39.2331 27.2032C39.2331 26.7004 38.8228 26.289 38.3213 26.289H29.2032C28.6996 26.289 28.2914 26.7004 28.2914 27.2032C28.2914 27.706 28.7017 28.1173 29.2032 28.1173ZM29.2032 20.8039H38.3213C38.8228 20.8039 39.2331 20.3925 39.2331 19.8897C39.2331 19.3869 38.8228 18.9755 38.3213 18.9755H29.2032C28.6996 18.9755 28.2914 19.3869 28.2914 19.8897C28.2914 20.3925 28.7017 20.8039 29.2032 20.8039ZM26.2934 16.3725C25.9372 16.0154 25.3599 16.0154 25.0043 16.3725L22.4581 18.9264L21.7349 18.2008C21.3787 17.8437 20.8014 17.8437 20.4458 18.2008C20.0902 18.5579 20.0896 19.1367 20.4458 19.4932L21.8135 20.8645C21.9913 21.0405 22.225 21.1319 22.4581 21.1319C22.6912 21.1319 22.9247 21.0427 23.1026 20.8641L26.294 17.6644C26.6524 17.3095 26.6524 16.7267 26.2934 16.3725Z" fill="white"/>
<path d="M23.6761 32.6442L21.8524 32.6442C21.351 32.6442 20.9406 33.0556 20.9406 33.5584L20.9406 35.3867C20.9406 35.8838 21.351 36.3009 21.8524 36.3009L23.6761 36.3009C24.1747 36.3009 24.5879 35.8838 24.5879 35.3867L24.5879 33.5584C24.5879 33.0556 24.1747 32.6442 23.6761 32.6442Z" fill="#E7EDF2"/>
<path d="M25.0032 16.2938C25.3588 15.9367 25.9361 15.9367 26.2922 16.2938C26.6513 16.6481 26.6513 17.2309 26.2928 17.5858L23.1015 20.7854C22.9235 20.964 22.69 21.0533 22.4569 21.0533C22.2238 21.0533 21.9902 20.9619 21.8124 20.7859L20.4447 19.4146C20.0885 19.0581 20.089 18.4793 20.4447 18.1222C20.8003 17.7651 21.3776 17.7651 21.7337 18.1222L22.4569 18.8478L25.0032 16.2938Z" fill="#E7EDF2"/>
<path d="M25.0032 23.349C25.3588 22.9919 25.9361 22.9919 26.2922 23.349C26.6513 23.7032 26.6513 24.286 26.2928 24.641L23.1015 27.8406C22.9235 28.0192 22.69 28.1084 22.4569 28.1084C22.2238 28.1084 21.9902 28.017 21.8124 27.8411L20.4447 26.4698C20.0885 26.1133 20.089 25.5345 20.4447 25.1774C20.8003 24.8203 21.3776 24.8203 21.7337 25.1774L22.4569 25.903L25.0032 23.349Z" fill="#E7EDF2"/>
<path d="M37.5593 10.4569H19.323C17.2034 10.4569 15.4853 12.1801 15.4853 14.3041V36.2444C15.4853 38.3683 17.2034 40.0915 19.323 40.0915H37.5593C39.6789 40.0915 41.397 38.3683 41.397 36.2444V14.3041C41.397 12.1801 39.6766 10.4569 37.5593 10.4569ZM40.1043 36.2444C40.1043 37.652 38.9621 38.7964 37.5593 38.7964H19.323C17.9202 38.7964 16.7781 37.652 16.7781 36.2444V14.3041C16.7781 12.8964 17.9202 11.752 19.323 11.752H37.5593C38.9621 11.752 40.1043 12.8964 40.1043 14.3041V36.2444ZM37.1034 17.3132H27.0735C26.717 17.3132 26.4271 17.6046 26.4271 17.9608C26.4271 18.3168 26.7166 18.6083 27.0735 18.6083H37.1034C37.4598 18.6083 37.7498 18.3169 37.7498 17.9608C37.7498 17.6046 37.4598 17.3132 37.1034 17.3132ZM37.1034 24.6266H27.0735C26.717 24.6266 26.4271 24.9181 26.4271 25.2742C26.4271 25.6302 26.7166 25.9218 27.0735 25.9218H37.1034C37.4598 25.9218 37.7498 25.6303 37.7498 25.2742C37.7498 24.9181 37.4598 24.6266 37.1034 24.6266ZM37.1034 31.9401H27.0735C26.717 31.9401 26.4271 32.2315 26.4271 32.5876C26.4271 32.9437 26.7166 33.2352 27.0735 33.2352H37.1034C37.4599 33.2352 37.7498 32.9453 37.7498 32.5876C37.7498 32.2299 37.4595 31.9401 37.1034 31.9401ZM21.6026 30.1117H20.6908C19.5781 30.1117 18.6766 31.0162 18.6766 32.1305V33.0447C18.6766 34.1591 19.5781 35.0636 20.6908 35.0636H21.6026C22.7152 35.0636 23.6167 34.1591 23.6167 33.0447V32.1305C23.6167 31.0145 22.7169 30.1117 21.6026 30.1117ZM22.3239 33.0447C22.3239 33.4441 21.9998 33.7684 21.6026 33.7684H20.6908C20.2936 33.7684 19.9694 33.4441 19.9694 33.0447V32.1305C19.9694 31.7312 20.2936 31.4068 20.6908 31.4068H21.6026C21.9998 31.4068 22.3239 31.7312 22.3239 32.1305V33.0447Z" fill="#3F6587" stroke="#3F6587" stroke-width="0.38096"/>
<path d="M24.4544 15.061L21.2669 18.2621L19.9009 16.8894L19.9007 16.8892C19.6482 16.6361 19.2388 16.636 18.9864 16.8893C18.7345 17.142 18.734 17.5516 18.9864 17.8044C18.9865 17.8045 18.9865 17.8045 18.9865 17.8045L20.8095 19.6322C20.9348 19.7599 21.0996 19.8253 21.2669 19.8253C21.4331 19.8253 21.5981 19.7618 21.7241 19.6354L25.3714 15.9787C25.6236 15.7258 25.6237 15.3162 25.3713 15.0634C25.1187 14.8104 24.7128 14.8099 24.4566 15.0587L24.4566 15.0587L24.4544 15.061Z" fill="#F37A20" stroke="#F37A20" stroke-width="0.38096"/>
<path d="M24.4544 22.1154L21.2669 25.3166L18.9865 24.8589L20.8095 26.6867C20.9348 26.8143 21.0996 26.8798 21.2669 26.8798C21.4331 26.8798 21.5981 26.8162 21.7241 26.6899C21.7241 26.6899 21.7241 26.6898 21.7241 26.6898L25.3714 23.0332C25.6236 22.7803 25.6237 22.3706 25.3713 22.1178C25.1187 21.8649 24.7128 21.8643 24.4566 22.1132L24.4566 22.1131L24.4544 22.1154Z" fill="#F37A20" stroke="#F37A20" stroke-width="0.38096"/>
</svg>
