<svg width="299" height="210" viewBox="0 0 299 210" fill="none" xmlns="http://www.w3.org/2000/svg">
<rect x="142.804" y="144.464" width="37.1429" height="37.1429" rx="6.75325" fill="white"/>
<rect x="230.728" y="48.5376" width="19.3198" height="19.3198" rx="4.67995" fill="white"/>
<rect x="214.768" y="0.535767" width="35.2797" height="35.2797" rx="6.71993" fill="white"/>
<rect x="186.911" y="186.012" width="23.0655" height="23.0655" rx="4.64286" fill="white"/>
<path fill-rule="evenodd" clip-rule="evenodd" d="M210.521 45.9752H153.607C147.319 45.9752 142.224 51.0467 142.224 57.3041V125.278C142.224 131.535 147.319 136.606 153.607 136.606H181.354V116.781H179.218C177.653 116.781 176.372 115.506 176.372 113.949C176.372 112.391 177.646 111.116 179.218 111.116H181.354V94.1231H179.218C177.653 94.1231 176.372 92.8486 176.372 91.2909C176.372 89.7331 177.646 88.4586 179.218 88.4586H181.354V85.3209C181.354 79.6295 184.126 74.5855 188.394 71.4653H179.218C177.653 71.4653 176.372 70.1908 176.372 68.633C176.372 67.0753 177.646 65.8008 179.218 65.8008H207.675C209.081 65.8008 210.258 66.8295 210.482 68.1682H221.904V57.3041C221.904 51.0467 216.799 45.9752 210.521 45.9752ZM164.989 116.781C164.989 118.339 163.709 119.613 162.144 119.613H156.452C155.745 119.613 155.092 119.35 154.591 118.916C153.89 118.396 153.434 117.564 153.434 116.645V110.98C153.434 109.423 154.714 108.148 156.279 108.148H161.971C162.678 108.148 163.33 108.411 163.832 108.845C164.533 109.366 164.989 110.197 164.989 111.116V116.781ZM170.975 59.6069C171.005 58.8433 170.726 58.0697 170.136 57.4922C169.025 56.3859 167.223 56.3859 166.113 57.4922L158.167 65.4047L155.91 63.1566C154.798 62.0503 152.996 62.0503 151.886 63.1566C151.298 63.7431 151.021 64.5225 151.056 65.2901C151.026 66.0517 151.303 66.823 151.887 67.4038L156.156 71.6522C156.711 72.1974 157.44 72.4806 158.167 72.4806C158.895 72.4806 159.624 72.2041 160.179 71.6508L170.139 61.738C170.731 61.1556 171.01 60.3752 170.975 59.6069ZM163.572 85.0249C163.114 84.7118 162.562 84.528 161.971 84.528L156.279 84.528C154.714 84.528 153.434 85.8025 153.434 87.3603V93.0247C153.434 94.1569 154.126 95.1551 155.114 95.6045C155.57 95.9163 156.12 96.1003 156.711 96.1003H162.402C163.959 96.1003 165.248 94.8081 165.248 93.2681V87.6036C165.248 86.4617 164.555 85.4719 163.572 85.0249Z" fill="#D0DCE5"/>
<path fill-rule="evenodd" clip-rule="evenodd" d="M153.027 92.2091H155.873C159.016 92.2091 161.565 89.6725 161.565 86.5447V83.7124C161.565 80.5846 159.016 78.048 155.873 78.048H153.027C149.885 78.048 147.336 80.5846 147.336 83.7124V86.5447C147.336 89.6778 149.885 92.2091 153.027 92.2091ZM150.351 83.8727C150.351 82.311 151.627 81.0404 153.197 81.0404H156.043C157.612 81.0404 158.888 82.311 158.888 83.8727V86.7049C158.888 88.2665 157.612 89.5371 156.043 89.5371H153.197C151.627 89.5371 150.351 88.2665 150.351 86.7049V83.8727Z" fill="#3F6587"/>
<path d="M154.45 64.4258L164.819 54.0882C165.388 53.5394 166.283 53.5437 166.839 54.0963C167.395 54.6489 167.395 55.5452 166.839 56.0983L155.456 67.4272C155.178 67.7039 154.816 67.8422 154.45 67.8422C154.084 67.8422 153.722 67.7005 153.445 67.4191L147.754 61.7546C147.198 61.202 147.198 60.3058 147.754 59.7526C148.309 59.1994 149.209 59.1994 149.765 59.7526L154.45 64.4258Z" fill="#F37A20"/>
<path fill-rule="evenodd" clip-rule="evenodd" d="M148.383 40H205.297C211.576 40 216.68 45.0732 216.68 51.3289V64.74H213.834V51.3289C213.834 46.6433 210.005 42.8322 205.297 42.8322H148.383C143.675 42.8322 139.846 46.6433 139.846 51.3289V119.302C139.846 123.988 143.675 127.799 148.383 127.799H178.779V130.631H148.383C142.097 130.631 137 125.558 137 119.302V51.3289C137 45.0732 142.097 40 148.383 40ZM178.779 106.557V109.39H172.571C171.788 109.39 171.149 108.752 171.149 107.973C171.149 107.195 171.789 106.557 172.571 106.557H178.779ZM178.779 83.8995V86.7318H172.571C171.788 86.7318 171.149 86.0945 171.149 85.3156C171.149 84.5368 171.789 83.8995 172.571 83.8995H178.779ZM172.571 61.2417H203.874C204.657 61.2417 205.297 61.879 205.297 62.6578C205.297 63.4367 204.657 64.0739 203.874 64.0739H172.571C171.788 64.0739 171.149 63.4367 171.149 62.6578C171.149 61.879 171.789 61.2417 172.571 61.2417ZM152.651 100.893H155.497C158.645 100.893 161.189 103.424 161.189 106.557V109.39C161.189 112.517 158.64 115.054 155.497 115.054H152.651C149.509 115.054 146.96 112.517 146.96 109.39V106.557C146.96 103.43 149.509 100.893 152.651 100.893ZM155.497 112.222C157.067 112.222 158.343 110.951 158.343 109.39V106.557C158.343 104.996 157.067 103.725 155.497 103.725H152.651C151.082 103.725 149.806 104.996 149.806 106.557V109.39C149.806 110.951 151.082 112.222 152.651 112.222H155.497Z" fill="#3F6587"/>
<path fill-rule="evenodd" clip-rule="evenodd" d="M267.685 79.4475H205.263C198.367 79.4475 192.778 85.0261 192.778 91.9093V166.68C192.778 173.563 198.367 179.142 205.263 179.142H267.685C274.581 179.142 280.169 173.563 280.169 166.68V91.9093C280.169 85.0261 274.571 79.4475 267.685 79.4475ZM217.747 157.334C217.747 159.047 216.343 160.449 214.626 160.449H208.384C207.609 160.449 206.895 160.16 206.345 159.685C205.575 159.112 205.074 158.197 205.074 157.185L205.074 150.954C205.074 149.24 206.478 147.838 208.195 147.838H214.437C215.212 147.838 215.926 148.127 216.475 148.603C217.245 149.175 217.747 150.09 217.747 151.103V157.334ZM264.564 157.334H233.353C231.636 157.334 230.232 155.932 230.232 154.218C230.232 152.505 231.629 151.103 233.353 151.103H264.564C266.287 151.103 267.685 152.498 267.685 154.218C267.685 155.939 266.28 157.334 264.564 157.334ZM264.564 132.41H233.353C231.636 132.41 230.232 131.008 230.232 129.295C230.232 127.581 231.629 126.179 233.353 126.179H264.564C266.28 126.179 267.685 127.581 267.685 129.295C267.685 131.008 266.28 132.41 264.564 132.41ZM264.564 107.487H233.353C231.636 107.487 230.232 106.085 230.232 104.371C230.232 102.658 231.629 101.256 233.353 101.256H264.564C266.28 101.256 267.685 102.658 267.685 104.371C267.685 106.085 266.28 107.487 264.564 107.487ZM224.312 94.4484C224.347 93.6067 224.041 92.7536 223.393 92.117C222.174 90.9 220.198 90.9 218.98 92.117L210.265 100.821L207.789 98.3479C206.57 97.1309 204.594 97.1309 203.377 98.3479C202.733 98.9914 202.429 99.8462 202.466 100.689C202.431 101.528 202.735 102.379 203.377 103.019L208.059 107.692C208.667 108.292 209.467 108.603 210.265 108.603C211.063 108.603 211.862 108.299 212.471 107.691L223.395 96.7865C224.043 96.1474 224.349 95.2916 224.312 94.4484ZM223.393 116.16C222.174 114.943 220.198 114.943 218.98 116.16L210.265 124.864L207.789 122.391C206.57 121.174 204.594 121.174 203.377 122.391C202.159 123.608 202.158 125.58 203.377 126.796L208.058 131.469C208.667 132.068 209.467 132.38 210.265 132.38C211.062 132.38 211.862 132.076 212.471 131.467L223.395 120.563C224.622 119.353 224.622 117.367 223.393 116.16Z" fill="white"/>
<path d="M261.955 72.873H199.533C192.64 72.873 187.049 78.4536 187.049 85.3348V160.106C187.049 166.987 192.64 172.567 199.533 172.567H261.955C268.849 172.567 274.44 166.987 274.44 160.106V85.3348C274.44 78.4536 268.841 72.873 261.955 72.873ZM271.319 160.106C271.319 165.26 267.119 169.452 261.955 169.452H199.533C194.37 169.452 190.17 165.26 190.17 160.106V85.3348C190.17 80.1807 194.37 75.9885 199.533 75.9885H261.955C267.119 75.9885 271.319 80.1807 271.319 85.3348V160.106ZM260.395 96.2389H226.063C225.204 96.2389 224.502 96.9399 224.502 97.7966C224.502 98.6534 225.203 99.3544 226.063 99.3544H260.395C261.253 99.3544 261.955 98.6534 261.955 97.7966C261.955 96.9399 261.253 96.2389 260.395 96.2389ZM260.395 121.163H226.063C225.204 121.163 224.502 121.863 224.502 122.72C224.502 123.577 225.203 124.278 226.063 124.278H260.395C261.253 124.278 261.955 123.577 261.955 122.72C261.955 121.863 261.253 121.163 260.395 121.163ZM260.395 146.086H226.063C225.204 146.086 224.502 146.787 224.502 147.644C224.502 148.501 225.203 149.202 226.063 149.202H260.395C261.254 149.202 261.955 148.505 261.955 147.644C261.955 146.783 261.253 146.086 260.395 146.086ZM207.336 139.855H204.215C200.768 139.855 197.973 142.645 197.973 146.086V149.202C197.973 152.642 200.768 155.432 204.215 155.432H207.336C210.783 155.432 213.578 152.642 213.578 149.202V146.086C213.578 142.64 210.789 139.855 207.336 139.855ZM210.457 149.202C210.457 150.919 209.057 152.317 207.336 152.317H204.215C202.494 152.317 201.094 150.919 201.094 149.202V146.086C201.094 144.368 202.494 142.971 204.215 142.971H207.336C209.057 142.971 210.457 144.368 210.457 146.086V149.202Z" fill="#3F6587"/>
<path d="M206.187 99.7428L217.56 88.3714C218.184 87.7677 219.165 87.7724 219.775 88.3803C220.384 88.9882 220.384 89.9741 219.775 90.5826L207.29 103.044C206.986 103.349 206.589 103.501 206.187 103.501C205.785 103.501 205.389 103.345 205.085 103.035L198.843 96.8045C198.233 96.1966 198.234 95.2108 198.843 94.6023C199.452 93.9938 200.439 93.9938 201.049 94.6023L206.187 99.7428Z" fill="#F37A20"/>
<path d="M206.187 123.785L217.56 112.413C218.184 111.809 219.165 111.814 219.775 112.422C220.384 113.03 220.384 114.016 219.775 114.624L207.29 127.086C206.986 127.39 206.589 127.543 206.187 127.543C205.785 127.543 205.389 127.387 205.085 127.077L198.843 120.846C198.233 120.238 198.234 119.252 198.843 118.644C199.452 118.036 200.439 118.036 201.049 118.644L206.187 123.785Z" fill="#F37A20"/>
</svg>
