<svg width="214" height="203" viewBox="0 0 214 203" fill="none" xmlns="http://www.w3.org/2000/svg">
<path d="M83.3447 19.009C87.8882 8.8329 99.7634 4.24351 109.84 8.74272C119.917 13.2419 124.428 25.1473 119.884 35.3234C115.34 45.4995 103.465 50.0889 93.3885 45.5897C83.3116 41.0905 78.8012 29.1851 83.3447 19.009ZM175.602 82.2971C180.145 72.121 192.021 67.5316 202.097 72.0308C212.174 76.53 216.685 88.4354 212.141 98.6115C207.604 108.773 195.723 113.377 185.646 108.878C175.569 104.379 171.065 92.4588 175.602 82.2971ZM171.012 190.729C166.475 200.891 154.593 205.494 144.516 200.995C134.439 196.496 129.935 184.576 134.472 174.415C139.01 164.253 150.891 159.649 160.968 164.148C171.045 168.647 175.549 180.567 171.012 190.729ZM6.82351 67.704C11.3606 57.5423 23.2279 52.9322 33.3191 57.4378C43.4102 61.9433 47.8999 73.8568 43.3628 84.0185C38.8257 94.1802 26.9584 98.7903 16.8673 94.2847C6.77615 89.7792 2.28642 77.8657 6.82351 67.704Z" fill="#E7EDF2"/>
<path opacity="0.4" d="M112.157 66.123C115.225 66.7675 118.394 67.4918 121.362 68.8174C131.668 73.4186 139.234 81.6996 143.642 91.2285L174.931 84.104C172.56 91.3315 174.279 98.8312 178.974 104.035L147.829 110.913C147.749 116.919 146.454 123.039 143.961 128.624C141.84 133.374 139.186 137.402 136.06 140.875L151.061 162.487C144.164 163.136 137.761 167.355 134.613 174.098L119.584 152.472C108.711 156.733 95.8771 157.182 84.2302 151.982C64.6759 143.251 54.4469 122.147 58.5464 101.846L36.7941 92.134C39.5723 90.1291 41.8583 87.3864 43.362 84.0184C44.8658 80.6503 45.3819 77.1175 45.1357 73.4514L66.888 83.1636C73.1262 74.8663 82.1689 69.0294 92.1173 66.5317L91.8148 44.8183C92.3444 45.0892 92.8453 45.3475 93.3877 45.5896C99.5823 48.3554 106.451 47.6936 111.855 44.4096L112.157 66.123ZM92.4561 133.559C105.074 139.192 119.894 133.45 125.691 120.467C131.256 108.002 125.754 92.8744 113.136 87.2409C100.519 81.6073 85.3254 87.4944 79.7601 99.959C73.9634 112.942 79.8386 127.925 92.4561 133.559Z" fill="#D0DCE5"/>
<path d="M78.8223 12.5267C83.3658 2.3506 95.2409 -2.23879 105.318 2.26042C115.395 6.75962 119.905 18.665 115.362 28.8411C112.494 35.2634 106.825 39.2194 100.305 40.5552L100.481 68.8408C104.555 69.0716 108.673 70.0471 112.612 71.806C122.46 76.2032 129.276 84.6323 131.738 94.2248L169.449 86.4455C169.027 82.9427 169.537 79.2692 171.079 75.8148C175.623 65.6387 187.498 61.0493 197.575 65.5485C207.652 70.0477 212.162 81.9531 207.619 92.1292C203.082 102.291 191.2 106.895 181.123 102.395C176.099 100.152 172.473 96.0818 170.398 91.2197L132.979 99.2671C133.807 105.541 132.965 112.104 130.304 118.063C127.849 123.561 124.411 127.965 120.231 131.346L138.938 158.308C144.193 155.51 150.622 155.066 156.446 157.666C166.522 162.165 171.026 174.085 166.489 184.247C161.952 194.408 150.071 199.012 139.994 194.513C129.917 190.014 125.413 178.094 129.95 167.932C131.132 165.284 132.793 163.022 134.808 161.194L116.129 134.245C106.62 139.977 94.6405 141.119 83.8214 136.288C66.922 128.743 59.0051 109.361 65.4179 91.8541L37.7851 79.5163C32.4945 88.3749 21.6623 91.9626 12.3448 87.8024C2.25369 83.2969 -2.23604 71.3835 2.41673 60.9627C6.83814 51.06 18.8211 46.1908 28.9123 50.6964C38.2298 54.8566 42.6741 65.5758 39.8415 74.9104L67.4744 87.2482C73.1421 76.6246 83.915 69.9031 95.4804 68.9214L95.2821 40.7637C93.1309 40.5973 91.0656 39.7787 88.9817 38.8483C78.9048 34.3491 74.2787 22.7028 78.9379 12.2676L78.8223 12.5267ZM90.9225 34.5015C98.4873 37.8791 107.387 34.4332 110.794 26.8018C114.201 19.1705 110.826 10.2439 103.261 6.86629C95.6965 3.4887 86.797 6.93465 83.3897 14.566C79.9824 22.1973 83.3577 31.1239 90.9225 34.5015ZM6.86846 63.261C3.46243 70.8895 6.83366 79.8177 14.4013 83.1966C21.9689 86.5754 30.8669 83.1253 34.2729 75.4969C37.679 67.8684 34.3078 58.9402 26.7401 55.5613C19.1725 52.1825 10.2745 55.6326 6.86846 63.261ZM142.05 189.907C149.615 193.285 158.516 189.836 161.922 182.207C165.328 174.579 161.954 165.649 154.389 162.272C150.221 160.411 145.646 160.612 141.81 162.456L141.943 162.619L137.829 165.546L137.709 165.354C136.415 166.641 135.314 168.187 134.517 169.972C131.111 177.6 134.485 186.529 142.05 189.907ZM183.18 97.7896C190.744 101.167 199.645 97.7184 203.051 90.0899C206.457 82.4614 203.083 73.532 195.519 70.1544C187.954 66.7768 179.053 70.2256 175.647 77.8541C172.241 85.4826 175.615 94.412 183.18 97.7896ZM85.8779 131.682C101.007 138.437 118.809 131.54 125.621 116.283C132.549 100.767 125.685 83.167 110.556 76.4118C95.1691 69.5419 77.74 76.2952 70.8122 91.8113C64.0002 107.068 70.4914 124.812 85.8779 131.682Z" fill="white"/>
</svg>
