<svg width="47" height="48" viewBox="0 0 47 48" fill="none" xmlns="http://www.w3.org/2000/svg">
<path d="M8.46158 14.7075C8.46158 14.3277 8.15369 14.0198 7.77384 14.0198H6.48657C6.10671 14.0198 5.79883 14.3277 5.79883 14.7075C5.79883 15.0874 6.10671 15.3953 6.48657 15.3953H7.77384C8.15369 15.3952 8.46158 15.0874 8.46158 14.7075Z" fill="#F37A20"/>
<path d="M10.6413 17.7777C10.6413 17.3979 10.3334 17.0901 9.95352 17.0901H8.66617C8.28631 17.0901 7.97852 17.398 7.97852 17.7777C7.97852 18.1576 8.2864 18.4655 8.66617 18.4655H9.95352C10.3335 18.4655 10.6413 18.1576 10.6413 17.7777V17.7777Z" fill="#F37A20"/>
<path d="M6.88321 23.1311H5.59595C5.21609 23.1311 4.9082 23.439 4.9082 23.8188C4.9082 24.1985 5.21609 24.5065 5.59595 24.5065H6.88321C7.26307 24.5065 7.57095 24.1986 7.57095 23.8188C7.57095 23.4389 7.26307 23.1311 6.88321 23.1311Z" fill="#F37A20"/>
<path d="M19.3791 5.2937H20.6665C21.0464 5.2937 21.3543 4.98581 21.3543 4.60595C21.3543 4.2261 21.0464 3.91821 20.6665 3.91821H19.3791C18.9993 3.91821 18.6914 4.2261 18.6914 4.60595C18.6914 4.98581 18.9993 5.2937 19.3791 5.2937Z" fill="#F37A20"/>
<path d="M45.429 41.4989L40.4451 36.5152C40.0967 36.1667 39.6334 35.9748 39.1406 35.9748C38.8494 35.9748 38.5694 36.0434 38.3164 36.1701L36.4197 34.2735C37.2785 32.8286 37.7371 31.1744 37.7371 29.4495C37.7371 28.6256 37.6319 27.818 37.4291 27.0414C38.2777 24.8656 38.7458 22.5009 38.7458 20.0284C38.7459 9.34992 30.0583 0.662354 19.3798 0.662354C8.70133 0.662354 0.0136719 9.34992 0.0136719 20.0285C0.0136719 30.707 8.70124 39.3946 19.3797 39.3946C21.459 39.3946 23.462 39.0633 25.3408 38.4537C26.2751 38.7568 27.2615 38.9145 28.2721 38.9145C29.9969 38.9145 31.6511 38.456 33.096 37.5971L34.9931 39.4942C34.6488 40.1847 34.7627 41.0474 35.3377 41.6224L36.3869 42.6716C36.6555 42.9401 37.0909 42.9401 37.3595 42.6716C37.6281 42.4029 37.6281 41.9676 37.3595 41.699L36.3103 40.6499C36.1274 40.4669 36.1274 40.1693 36.3103 39.9864L38.809 37.4876C38.8975 37.3989 39.0154 37.3502 39.1406 37.3502C39.266 37.3502 39.3837 37.399 39.4724 37.4877L44.4563 42.4715C44.8787 42.8938 45.1113 43.4554 45.1113 44.0526C45.1113 44.6499 44.8787 45.2114 44.4563 45.6336C43.5845 46.5055 42.1661 46.5054 41.2941 45.6336L39.6268 43.9663C39.3584 43.6979 38.9229 43.6978 38.6543 43.9664C38.3857 44.235 38.3857 44.6704 38.6544 44.939L40.3217 46.6063C41.0259 47.3104 41.9505 47.6624 42.8754 47.6624C43.8 47.6623 44.725 47.3103 45.429 46.6063C46.1111 45.9243 46.4868 45.0173 46.4868 44.0527C46.4868 43.0881 46.1111 42.1811 45.429 41.4989V41.4989ZM19.3798 2.03775C22.2556 2.03775 24.9754 2.71713 27.3887 3.92206C25.8465 3.9966 24.6147 5.27441 24.6147 6.83478C24.6147 7.61431 24.9184 8.34685 25.4693 8.89653C26.0198 9.44695 26.7521 9.75015 27.5311 9.75015H28.7681C29.5904 9.75015 30.2594 10.4192 30.2594 11.2414C30.2594 11.6396 30.1041 12.014 29.8231 12.2952C29.541 12.5767 29.1662 12.7316 28.768 12.7316H26.0914C24.5107 12.7316 23.2247 14.0176 23.2247 15.5983C23.2247 16.364 23.5229 17.0839 24.0643 17.6254C24.6059 18.1669 25.3256 18.4651 26.0914 18.4651H30.6174C30.9972 18.4651 31.3051 18.1572 31.3051 17.7773C31.3051 17.3975 30.9972 17.0897 30.6174 17.0897H26.0914C25.6931 17.0897 25.3187 16.9345 25.0369 16.6528C24.7552 16.3712 24.6002 15.9967 24.6002 15.5984C24.6002 14.7761 25.2692 14.1072 26.0914 14.1072H28.768C29.5331 14.1072 30.2528 13.8095 30.7951 13.2685C31.3366 12.7269 31.6348 12.0072 31.6348 11.2415C31.6348 9.66074 30.3488 8.37476 28.768 8.37476H27.531C27.1194 8.37476 26.7325 8.21467 26.4413 7.92339C26.1504 7.63304 25.99 7.24639 25.99 6.83478C25.99 5.9851 26.6813 5.29387 27.531 5.29387H29.69C29.7868 5.29387 30.0183 5.52942 30.0988 5.58937C31.0797 6.31934 31.9879 7.15037 32.8026 8.0632C33.2719 8.58901 33.7105 9.14218 34.1155 9.71931C35.3334 11.4545 36.2371 13.3879 36.7801 15.4533C36.9184 15.9795 37.0455 16.5325 37.1291 17.0898C37.1235 17.0898 33.816 17.0898 33.816 17.0898C33.4362 17.0898 33.1283 17.3977 33.1283 17.7774C33.1283 18.1573 33.4362 18.4652 33.816 18.4652H37.3017C37.3463 18.9806 37.3703 19.5017 37.3703 20.0285C37.3703 21.7702 37.1203 23.4543 36.6561 25.0483C36.2171 24.2144 35.6502 23.4421 34.9649 22.7568C33.1772 20.9691 30.8003 19.9846 28.2721 19.9846C26.7422 19.9846 25.2679 20.3457 23.9459 21.0265C23.2588 20.0105 22.0965 19.3409 20.7802 19.3409H17.3174C15.9291 19.3409 14.7999 18.2116 14.7999 16.8234V16.6097C14.7999 15.9937 15.0394 15.4153 15.4747 14.9807C15.91 14.5455 16.4888 14.3058 17.1046 14.3058C18.0557 14.3058 18.9495 13.9354 19.6205 13.2633C20.2933 12.5915 20.6638 11.6978 20.6638 10.7466C20.6638 8.78353 19.0671 7.18636 17.1046 7.18636H6.79406C10.041 4.00376 14.4847 2.03775 19.3798 2.03775V2.03775ZM1.38916 20.0285C1.38916 15.6745 2.9441 11.6772 5.52736 8.56184H17.1048C18.309 8.56184 19.2886 9.54196 19.2886 10.7467C19.2886 11.33 19.0614 11.8781 18.6481 12.2908C18.2362 12.7033 17.6881 12.9305 17.1048 12.9305C16.1216 12.9305 15.1973 13.3132 14.5027 14.0079C13.8075 14.702 13.4246 15.626 13.4246 16.6098V16.8235C13.4246 18.97 15.171 20.7165 17.3176 20.7165H20.7804C21.6009 20.7165 22.3277 21.1232 22.7712 21.7453C22.3511 22.0467 21.9523 22.3841 21.5794 22.7569C20.7436 23.5928 20.0834 24.5575 19.6173 25.6063H12.0326C10.7801 25.6063 9.76103 26.6254 9.76103 27.8779C9.76103 28.4852 9.99732 29.056 10.4264 29.4851C10.8554 29.9142 11.4259 30.1504 12.0326 30.1504H14.4093C15.4502 30.1504 16.2971 30.9968 16.2971 32.0371C16.2971 32.5407 16.1007 33.0143 15.7441 33.371C15.3874 33.7276 14.9134 33.9239 14.4093 33.9239H7.96475C3.95222 30.6214 1.38916 25.6187 1.38916 20.0285V20.0285ZM19.3798 38.0192C15.8943 38.0192 12.6379 37.0218 9.87899 35.2991H14.4093C15.2807 35.2991 16.1002 34.9596 16.7167 34.3433C17.333 33.7269 17.6725 32.9078 17.6725 32.0369C17.6725 30.2381 16.2087 28.7748 14.4093 28.7748H12.0326C11.7932 28.7748 11.5682 28.6815 11.3991 28.5122C11.2297 28.343 11.1365 28.1176 11.1365 27.8777C11.1365 27.3836 11.5386 26.9815 12.0327 26.9815H19.1311C18.9179 27.7765 18.8072 28.6045 18.8072 29.4496C18.8072 31.9778 19.7918 34.3547 21.5795 36.1425C22.1329 36.6958 22.7427 37.172 23.3959 37.566C22.104 37.8619 20.76 38.0192 19.3798 38.0192V38.0192ZM22.5521 35.1698C19.398 32.0157 19.398 26.8836 22.5521 23.7294C24.1291 22.1524 26.2007 21.3638 28.2722 21.3638C30.3437 21.3638 32.4154 22.1524 33.9924 23.7294C37.1465 26.8836 37.1465 32.0157 33.9924 35.1698C30.8384 38.324 25.7061 38.324 22.5521 35.1698V35.1698ZM35.874 38.43L34.2407 36.7966C34.4914 36.5922 34.7333 36.3743 34.9651 36.1425C35.1968 35.9107 35.4149 35.6688 35.6192 35.4181L37.2525 37.0514L35.874 38.43Z" fill="#3F6587"/>
<path d="M32.9192 24.8039C31.678 23.5628 30.0278 22.8792 28.2725 22.8792C26.5173 22.8792 24.8671 23.5628 23.626 24.8039C22.3848 26.045 21.7012 27.6952 21.7012 29.4504C21.7012 31.2058 22.3848 32.8559 23.6259 34.0971C24.8671 35.3382 26.5173 36.0218 28.2725 36.0218C30.0278 36.0218 31.678 35.3382 32.9192 34.0971C34.1603 32.8559 34.8438 31.2058 34.8438 29.4504C34.8438 27.6952 34.1603 26.045 32.9192 24.8039ZM31.9465 33.1244C29.9207 35.1505 26.6244 35.1503 24.5984 33.1244C23.6171 32.1431 23.0766 30.8383 23.0766 29.4503C23.0766 28.0625 23.6171 26.7577 24.5985 25.7764C25.6114 24.7634 26.942 24.2569 28.2725 24.2569C29.6031 24.2569 30.9336 24.7634 31.9466 25.7764C33.9725 27.8023 33.9725 31.0986 31.9465 33.1244Z" fill="#F37A20"/>
</svg>
