<svg width="21" height="16" viewBox="0 0 21 16" fill="none" xmlns="http://www.w3.org/2000/svg">
<path d="M14.7 5.90128C14.7 7.38119 13.5253 8.57985 12.075 8.57985C10.6247 8.57985 9.45 7.38119 9.45 5.90128C9.45 4.42137 10.6247 3.22271 12.075 3.22271C13.5253 3.22271 14.7 4.42137 14.7 5.90128ZM18.9 0.00842285C20.0583 0.00842285 21 0.967686 21 2.15128V9.65128C21 10.8332 20.0583 11.7941 18.9 11.7941H5.25C4.09172 11.7941 3.15 10.8332 3.15 9.65128V2.15128C3.15 0.967686 4.09172 0.00842285 5.25 0.00842285H18.9ZM17.325 1.61557H6.825C6.825 2.79749 5.88328 3.75842 4.725 3.75842V8.04414C5.88328 8.04414 6.825 9.00507 6.825 10.187H17.325C17.325 9.00507 18.2667 8.04414 19.425 8.04414V3.75842C18.2667 3.75842 17.325 2.79749 17.325 1.61557ZM1.575 10.9906C1.575 12.3232 2.63287 13.4013 3.9375 13.4013H17.0625C17.4989 13.4013 17.85 13.7595 17.85 14.2049C17.85 14.6502 17.4989 15.0084 17.0625 15.0084H3.9375C1.76302 15.0084 0 13.2104 0 10.9906V2.95485C0 2.50954 0.352734 2.15128 0.7875 2.15128C1.22227 2.15128 1.575 2.50954 1.575 2.95485V10.9906Z" fill="#3F6587"/>
</svg>
