<svg width="189" height="36" viewBox="0 0 189 36" fill="none" xmlns="http://www.w3.org/2000/svg">
<path d="M29.937 18.2158C29.937 20.758 29.5344 23.0713 28.7291 25.1556C27.9238 27.2399 26.7869 29.0241 25.3184 30.5084C23.8499 31.9927 22.0893 33.1454 20.0366 33.9664C17.9839 34.7717 15.7101 35.1744 13.2153 35.1744H0.52002V1.23354H13.2153C15.7101 1.23354 17.9839 1.64408 20.0366 2.46517C22.0893 3.27046 23.8499 4.42314 25.3184 5.9232C26.7869 7.40748 27.9238 9.19176 28.7291 11.2761C29.5344 13.3603 29.937 15.6736 29.937 18.2158ZM25.2237 18.2158C25.2237 16.1315 24.9394 14.2683 24.371 12.6261C23.8025 10.9839 22.9972 9.59441 21.9551 8.45752C20.913 7.32063 19.6497 6.45217 18.1655 5.85215C16.6812 5.25212 15.0311 4.95211 13.2153 4.95211H5.13863V31.4558H13.2153C15.0311 31.4558 16.6812 31.1558 18.1655 30.5558C19.6497 29.9558 20.913 29.0952 21.9551 27.9741C22.9972 26.8372 23.8025 25.4477 24.371 23.8055C24.9394 22.1633 25.2237 20.3001 25.2237 18.2158Z" fill="#90B9D5"/>
<path d="M53.1451 35.1744H51.274C50.8635 35.1744 50.5319 35.1112 50.2792 34.9849C50.0266 34.8586 49.8608 34.5902 49.7819 34.1796L49.3081 31.9532C48.6765 32.5217 48.0607 33.0348 47.4607 33.4927C46.8607 33.9349 46.2291 34.3138 45.5659 34.6296C44.9027 34.9296 44.1922 35.1586 43.4342 35.3165C42.6921 35.4744 41.8631 35.5534 40.9473 35.5534C40.0157 35.5534 39.1393 35.427 38.3182 35.1744C37.5129 34.906 36.8103 34.5112 36.2102 33.9901C35.6102 33.4691 35.1286 32.8138 34.7654 32.0243C34.4181 31.219 34.2444 30.2716 34.2444 29.182C34.2444 28.2346 34.5049 27.3267 35.026 26.4583C35.5471 25.574 36.3839 24.7924 37.5366 24.1134C38.7051 23.4344 40.2288 22.8818 42.1079 22.4555C43.9869 22.0133 46.2843 21.7607 49.0002 21.6975V19.8264C49.0002 17.9632 48.5976 16.5578 47.7923 15.6104C47.0028 14.6472 45.8264 14.1656 44.2632 14.1656C43.2368 14.1656 42.3684 14.2999 41.6578 14.5683C40.9631 14.8209 40.3552 15.1131 39.8341 15.4446C39.3288 15.7604 38.8867 16.0526 38.5077 16.321C38.1445 16.5736 37.7814 16.7 37.4182 16.7C37.134 16.7 36.8813 16.6289 36.6603 16.4868C36.455 16.3289 36.2892 16.1394 36.1629 15.9183L35.4049 14.5683C36.7313 13.2893 38.1603 12.334 39.692 11.7024C41.2236 11.0708 42.921 10.755 44.7843 10.755C46.1264 10.755 47.3186 10.976 48.3607 11.4182C49.4029 11.8603 50.2792 12.4761 50.9898 13.2656C51.7003 14.0551 52.2372 15.0104 52.6004 16.1315C52.9636 17.2526 53.1451 18.4842 53.1451 19.8264V35.1744ZM42.2026 32.5927C42.9447 32.5927 43.6237 32.5217 44.2395 32.3795C44.8553 32.2216 45.4317 32.0085 45.9685 31.74C46.5212 31.4558 47.0423 31.1163 47.5318 30.7216C48.037 30.3268 48.5265 29.8768 49.0002 29.3715V24.374C47.0581 24.4371 45.408 24.595 44.05 24.8477C42.6921 25.0845 41.5868 25.4003 40.7341 25.7951C39.8814 26.1898 39.2577 26.6556 38.863 27.1925C38.484 27.7294 38.2945 28.3294 38.2945 28.9926C38.2945 29.6242 38.3972 30.1689 38.6024 30.6268C38.8077 31.0848 39.084 31.4637 39.4314 31.7637C39.7788 32.048 40.1894 32.2611 40.6631 32.4032C41.1368 32.5295 41.6499 32.5927 42.2026 32.5927Z" fill="#90B9D5"/>
<path d="M59.5324 35.1744V11.1813H62.043C62.643 11.1813 63.022 11.4734 63.1799 12.0577L63.5115 14.663C64.5536 13.5104 65.7142 12.5787 66.9932 11.8682C68.288 11.1576 69.7802 10.8024 71.4697 10.8024C72.7803 10.8024 73.933 11.0234 74.9277 11.4655C75.9383 11.8919 76.7752 12.5077 77.4384 13.313C78.1173 14.1025 78.6305 15.0578 78.9779 16.1789C79.3253 17.3 79.499 18.5395 79.499 19.8975V35.1744H75.283V19.8975C75.283 18.0816 74.8646 16.6763 74.0277 15.6815C73.2066 14.6709 71.9434 14.1656 70.2381 14.1656C68.9907 14.1656 67.8222 14.4657 66.7327 15.0657C65.6589 15.6657 64.6642 16.4789 63.7483 17.5053V35.1744H59.5324Z" fill="#90B9D5"/>
<path d="M85.8544 35.1744V11.1813H88.365C88.965 11.1813 89.344 11.4734 89.5019 12.0577L89.8098 14.5209C90.694 13.4314 91.6809 12.5393 92.7704 11.8445C93.8757 11.1497 95.1547 10.8024 96.6074 10.8024C98.2338 10.8024 99.5444 11.2524 100.539 12.1524C101.55 13.0524 102.276 14.2683 102.718 15.7999C103.05 14.9315 103.484 14.1814 104.021 13.5498C104.574 12.9182 105.189 12.3972 105.868 11.9866C106.547 11.5761 107.266 11.2761 108.024 11.0866C108.797 10.8971 109.579 10.8024 110.369 10.8024C111.632 10.8024 112.753 11.0076 113.732 11.4182C114.727 11.8129 115.563 12.3972 116.242 13.1709C116.937 13.9446 117.466 14.8999 117.829 16.0368C118.193 17.1579 118.374 18.4448 118.374 19.8975V35.1744H114.158V19.8975C114.158 18.0184 113.748 16.5973 112.927 15.6341C112.105 14.6551 110.913 14.1656 109.35 14.1656C108.655 14.1656 107.992 14.292 107.361 14.5446C106.745 14.7815 106.2 15.1367 105.726 15.6104C105.253 16.0841 104.874 16.6842 104.589 17.4105C104.321 18.1211 104.187 18.9501 104.187 19.8975V35.1744H99.9707V19.8975C99.9707 17.9711 99.5839 16.5342 98.8102 15.5868C98.0364 14.6393 96.9074 14.1656 95.4232 14.1656C94.381 14.1656 93.4099 14.4499 92.5099 15.0183C91.6256 15.571 90.8125 16.3289 90.0703 17.2921V35.1744H85.8544Z" fill="#90B9D5"/>
<path d="M142.381 35.1744H140.51C140.099 35.1744 139.768 35.1112 139.515 34.9849C139.262 34.8586 139.097 34.5902 139.018 34.1796L138.544 31.9532C137.912 32.5217 137.296 33.0348 136.696 33.4927C136.096 33.9349 135.465 34.3138 134.802 34.6296C134.138 34.9296 133.428 35.1586 132.67 35.3165C131.928 35.4744 131.099 35.5534 130.183 35.5534C129.251 35.5534 128.375 35.427 127.554 35.1744C126.749 34.906 126.046 34.5112 125.446 33.9901C124.846 33.4691 124.364 32.8138 124.001 32.0243C123.654 31.219 123.48 30.2716 123.48 29.182C123.48 28.2346 123.741 27.3267 124.262 26.4583C124.783 25.574 125.62 24.7924 126.772 24.1134C127.941 23.4344 129.465 22.8818 131.344 22.4555C133.223 22.0133 135.52 21.7607 138.236 21.6975V19.8264C138.236 17.9632 137.833 16.5578 137.028 15.6104C136.239 14.6472 135.062 14.1656 133.499 14.1656C132.473 14.1656 131.604 14.2999 130.894 14.5683C130.199 14.8209 129.591 15.1131 129.07 15.4446C128.565 15.7604 128.122 16.0526 127.743 16.321C127.38 16.5736 127.017 16.7 126.654 16.7C126.37 16.7 126.117 16.6289 125.896 16.4868C125.691 16.3289 125.525 16.1394 125.399 15.9183L124.641 14.5683C125.967 13.2893 127.396 12.334 128.928 11.7024C130.459 11.0708 132.157 10.755 134.02 10.755C135.362 10.755 136.554 10.976 137.596 11.4182C138.639 11.8603 139.515 12.4761 140.226 13.2656C140.936 14.0551 141.473 15.0104 141.836 16.1315C142.199 17.2526 142.381 18.4842 142.381 19.8264V35.1744ZM131.438 32.5927C132.18 32.5927 132.859 32.5217 133.475 32.3795C134.091 32.2216 134.667 32.0085 135.204 31.74C135.757 31.4558 136.278 31.1163 136.768 30.7216C137.273 30.3268 137.762 29.8768 138.236 29.3715V24.374C136.294 24.4371 134.644 24.595 133.286 24.8477C131.928 25.0845 130.823 25.4003 129.97 25.7951C129.117 26.1898 128.493 26.6556 128.099 27.1925C127.72 27.7294 127.53 28.3294 127.53 28.9926C127.53 29.6242 127.633 30.1689 127.838 30.6268C128.043 31.0848 128.32 31.4637 128.667 31.7637C129.015 32.048 129.425 32.2611 129.899 32.4032C130.372 32.5295 130.886 32.5927 131.438 32.5927Z" fill="#90B9D5"/>
<path d="M148.768 35.1744V11.1813H151.184C151.642 11.1813 151.958 11.2682 152.131 11.4418C152.305 11.6155 152.424 11.9156 152.487 12.3419L152.771 16.0841C153.592 14.4104 154.603 13.1077 155.803 12.1761C157.018 11.2287 158.44 10.755 160.066 10.755C160.729 10.755 161.329 10.8339 161.866 10.9918C162.403 11.1339 162.9 11.3392 163.358 11.6076L162.813 14.7578C162.703 15.1525 162.458 15.3499 162.079 15.3499C161.858 15.3499 161.519 15.2788 161.061 15.1367C160.603 14.9788 159.963 14.8999 159.142 14.8999C157.674 14.8999 156.442 15.3262 155.447 16.1789C154.468 17.0316 153.647 18.2711 152.984 19.8975V35.1744H148.768Z" fill="#90B9D5"/>
<path d="M172.255 0.286133V20.8212H173.345C173.661 20.8212 173.921 20.7817 174.126 20.7028C174.332 20.608 174.561 20.4264 174.813 20.158L182.393 12.034C182.629 11.7813 182.866 11.5761 183.103 11.4182C183.34 11.2603 183.656 11.1813 184.051 11.1813H187.887L179.053 20.5843C178.832 20.8528 178.611 21.0896 178.39 21.2949C178.184 21.5002 177.948 21.6817 177.679 21.8396C177.963 22.0291 178.216 22.2502 178.437 22.5028C178.674 22.7397 178.895 23.016 179.1 23.3318L188.48 35.1744H184.69C184.343 35.1744 184.043 35.1112 183.79 34.9849C183.553 34.8428 183.324 34.6296 183.103 34.3454L175.216 24.5161C174.979 24.1845 174.742 23.9713 174.505 23.8766C174.269 23.766 173.913 23.7108 173.44 23.7108H172.255V35.1744H168.016V0.286133H172.255Z" fill="#90B9D5"/>
</svg>
