<svg width="25" height="21" viewBox="0 0 25 21" fill="none" xmlns="http://www.w3.org/2000/svg">
<path d="M23.75 11.8484C23.75 11.3308 23.3301 10.9109 22.8125 10.9109H2.1875C1.66992 10.9109 1.25 11.3328 1.25 11.8484C1.25 12.364 1.66992 12.7859 2.1875 12.7859H6.96875L10.4457 18.5789C10.6172 18.864 10.9219 19.0359 11.25 19.0359H22.8125C23.3301 19.0359 23.75 18.616 23.75 18.0984C23.75 17.5808 23.3301 17.1609 22.8125 17.1609H11.7812L9.15625 12.7859H22.8125C23.332 12.7859 23.75 12.3679 23.75 11.8484ZM2.1875 9.66089H9.6875C10.0171 9.66089 10.3223 9.48815 10.4918 9.20542L13.9688 3.41089H22.8125C23.332 3.41089 23.75 2.99097 23.75 2.47339C23.75 1.95581 23.332 1.53589 22.8125 1.53589H13.4375C13.1079 1.53589 12.8027 1.70862 12.6332 1.99136L9.15625 7.78589H2.1875C1.66992 7.78589 1.25 8.20776 1.25 8.72339C1.25 9.23901 1.66992 9.66089 2.1875 9.66089Z" fill="#F37A20"/>
</svg>
