<svg width="20" height="16" viewBox="0 0 20 16" fill="none" xmlns="http://www.w3.org/2000/svg">
<path d="M17.9976 10.909C17.7019 10.9134 17.3757 10.9074 17.0307 10.9014C14.8889 10.8633 11.8103 10.8119 10.0002 13.1817C8.18998 10.8119 5.11161 10.8634 2.96949 10.9014C2.62443 10.9074 2.29839 10.9134 2.00287 10.909C1.93202 10.9082 1.25831 10.9298 0 10.9731C0 10.9731 0.0852676 12.5533 1.19697 12.5533C1.59616 12.5533 1.88478 12.5439 1.99137 12.5432C2.30161 12.5473 2.64007 12.5413 2.99847 12.5352C5.9215 12.483 8.24013 12.6462 9.2799 15.1981L9.48725 15.707H9.96327H10.0363H10.5126L10.7201 15.1981C11.7597 12.6462 14.0782 12.4829 17.0014 12.5352C17.3599 12.5415 17.6984 12.5475 18.0086 12.5432C18.1149 12.5439 18.4038 12.5533 18.8029 12.5533C19.9149 12.5533 20 10.9731 20 10.9731C18.742 10.9298 18.0681 10.9084 17.9976 10.909Z" fill="#3F6587"/>
<path fill-rule="evenodd" clip-rule="evenodd" d="M9.88101 2.08521C10.0499 1.62023 10.3902 1.24864 10.8384 1.039C11.7649 0.606371 12.8707 1.00786 13.3038 1.93354C13.4207 2.18305 13.4794 2.44975 13.4794 2.71766C13.4794 2.93053 13.4423 3.14416 13.3673 3.35042C13.2101 3.78458 12.8993 4.13148 12.4946 4.3471C12.5194 4.58849 12.543 4.83018 12.543 5.07234C12.543 5.22958 12.5324 5.38623 12.5218 5.54257L12.5218 5.5426V5.54261V5.54263L12.5214 5.54836C12.6738 5.66982 12.8059 5.81306 12.889 5.9908C12.969 6.16211 13.0094 6.34476 13.0094 6.52848C13.0094 6.67463 12.9839 6.82094 12.9325 6.96233C12.8168 7.28163 12.5837 7.53682 12.2759 7.68051C12.2111 7.71073 12.1406 7.72335 12.0701 7.73596L12.0701 7.73597L12.0701 7.73597L12.0701 7.73597L12.07 7.73598L12.07 7.73598L12.07 7.73598L12.07 7.73598C12.0461 7.74027 12.0221 7.74455 11.9984 7.74952C11.782 8.27079 11.4939 8.77964 11.1453 9.27008C11.8006 9.17377 12.4104 8.9994 12.9631 8.74636C12.9838 8.34762 13.2147 7.9811 13.5859 7.80811C13.8579 7.68051 14.1606 7.6799 14.4356 7.7848C14.6871 7.55721 14.9155 7.30892 15.1205 7.04346C14.9083 6.75653 14.7909 6.41285 14.7909 6.06074C14.7909 5.87256 14.8232 5.68317 14.8894 5.50021C15.2009 4.64477 16.1503 4.20141 17.0061 4.51104C17.8623 4.82282 18.3056 5.7715 17.9951 6.62709C17.8451 7.04116 17.5425 7.37257 17.1429 7.55967C16.7973 7.72161 16.417 7.73741 16.0523 7.64769C15.7738 8.01453 15.4636 8.35192 15.1236 8.65419C15.1262 8.67312 15.1303 8.69205 15.1344 8.71094C15.1412 8.74257 15.148 8.77411 15.148 8.8054C15.148 9.22192 14.9113 9.61544 14.5169 9.80024C14.1821 9.95682 13.8036 9.91572 13.4935 9.72893C12.8149 10.0525 12.0679 10.2723 11.2669 10.3878C11.1565 10.7843 10.8916 11.1173 10.5115 11.295C10.1676 11.4558 9.78178 11.4729 9.42476 11.3432C9.06805 11.2137 8.78342 10.953 8.62392 10.6104C8.53804 10.4289 8.49479 10.2306 8.49219 10.0295C8.04116 9.69703 7.57203 9.43187 7.09309 9.23128C7.00246 9.32345 6.90093 9.40381 6.78162 9.45994C6.2326 9.71635 5.57714 9.47803 5.32026 8.92855C5.30819 8.90259 5.30305 8.8741 5.2979 8.8456C5.29436 8.82595 5.29081 8.80629 5.28499 8.78746C4.8312 8.75326 4.38048 8.78178 3.9362 8.8557C3.84848 9.31363 3.56308 9.70685 3.12922 9.90974C2.3951 10.2527 1.51804 9.93489 1.17405 9.20045C0.830527 8.46617 1.14859 7.58911 1.88334 7.24528C2.54677 6.93458 3.31816 7.17673 3.71521 7.76839C4.32006 7.6684 4.93165 7.63941 5.54141 7.69907C5.63281 7.60491 5.7328 7.52255 5.85073 7.4678C6.1165 7.34328 6.41494 7.32963 6.69099 7.42946C6.96765 7.52961 7.18848 7.73158 7.31332 7.99827L7.35227 8.13108C7.90176 8.34134 8.43268 8.62674 8.94076 8.97471C8.96452 8.95235 8.99061 8.93259 9.0167 8.91283L9.01671 8.91282L9.01671 8.91282L9.01672 8.91281L9.01672 8.91281L9.01673 8.9128L9.01674 8.91279L9.01674 8.91279L9.01675 8.91278L9.04091 8.89435C8.98079 8.53549 8.89506 8.19181 8.7871 7.86546C8.38284 7.85043 8.01217 7.61871 7.83397 7.23838C7.76481 7.08962 7.73091 6.93197 7.73091 6.7757C7.73091 6.56989 7.80928 6.37681 7.92093 6.20014C7.56375 5.71813 7.13956 5.30054 6.65326 4.95548C6.2694 5.21067 5.79123 5.30008 5.35094 5.14043C4.98195 5.00655 4.6872 4.73725 4.52111 4.38176C4.35502 4.02628 4.33739 3.62739 4.47127 3.25841C4.74777 2.49729 5.59217 2.10239 6.3536 2.37874C6.94848 2.59574 7.32037 3.1624 7.32037 3.76311C7.32037 3.82723 7.3055 3.89127 7.29059 3.9555L7.29059 3.95552L7.29059 3.95553L7.29059 3.95554L7.29058 3.95556L7.29058 3.95557L7.29058 3.95558L7.29057 3.9556L7.29057 3.95561C7.28423 3.98291 7.27789 4.01024 7.27268 4.03762C7.91142 4.49402 8.46428 5.04565 8.9173 5.68685C9.30913 5.71706 9.65664 5.94311 9.82687 6.30718C9.89604 6.45533 9.92977 6.61283 9.92977 6.76956C9.92977 6.95543 9.8672 7.1344 9.7735 7.30049C9.93131 7.72437 10.0509 8.17126 10.1347 8.63364C10.1612 8.63793 10.1868 8.64361 10.2129 8.64959C10.4905 8.26558 10.72 7.8693 10.9022 7.46612C10.7736 7.35248 10.6608 7.2235 10.5872 7.06662C10.5073 6.89532 10.4668 6.71236 10.4668 6.52863C10.4668 6.38248 10.4923 6.23587 10.5437 6.09447C10.6595 5.77549 10.8923 5.52076 11.2 5.37721C11.2457 5.35586 11.2948 5.34771 11.3441 5.33953L11.3441 5.33953C11.372 5.3349 11.4 5.33027 11.4273 5.32323C11.4284 5.29727 11.4297 5.2713 11.4311 5.24535L11.4311 5.24519V5.24517V5.24515V5.24513V5.2451V5.24508V5.24506V5.24503V5.24501C11.4341 5.18599 11.4371 5.12702 11.4371 5.0682C11.4371 4.91013 11.4224 4.7539 11.4077 4.59786L11.4023 4.54049C10.7743 4.46366 10.2179 4.08839 9.9448 3.50363C9.82764 3.25365 9.76905 2.98666 9.76905 2.71889C9.76905 2.50557 9.80632 2.29179 9.88101 2.08521ZM8.87807 6.1101C9.24368 6.13632 9.51881 6.45393 9.49243 6.81954C9.46636 7.18515 9.14875 7.46027 8.78391 7.43374C8.41769 7.40782 8.14241 7.09022 8.16879 6.72461C8.19501 6.359 8.51231 6.08388 8.87807 6.1101ZM9.92197 11.0327C10.4886 11.0327 10.9479 10.5733 10.9479 10.0067C10.9479 9.44008 10.4886 8.98074 9.92197 8.98074C9.35535 8.98074 8.896 9.44008 8.896 10.0067C8.896 10.5733 9.35535 11.0327 9.92197 11.0327ZM3.50055 8.57034C3.50055 9.12028 3.05473 9.5661 2.50479 9.5661C1.95485 9.5661 1.50903 9.12028 1.50903 8.57034C1.50903 8.0204 1.95485 7.57458 2.50479 7.57458C3.05473 7.57458 3.50055 8.0204 3.50055 8.57034ZM6.87132 3.85257C6.91073 3.30401 6.49758 2.82752 5.94901 2.78811C5.40076 2.74931 4.92427 3.16154 4.88516 3.7101C4.84575 4.25867 5.25829 4.73531 5.80746 4.77457C6.35557 4.81383 6.8319 4.40098 6.87132 3.85257ZM5.65876 8.41541C5.68514 8.05134 6.00122 7.7779 6.36498 7.80412C6.7289 7.82989 7.00234 8.14611 6.97673 8.50988C6.95051 8.87365 6.63428 9.14739 6.27051 9.12148C5.90629 9.09525 5.633 8.77918 5.65876 8.41541ZM16.5208 4.98047C15.9236 4.93768 15.4048 5.38702 15.3622 5.98435C15.3194 6.58169 15.7687 7.10035 16.3657 7.14329C16.9634 7.18638 17.4817 6.73673 17.525 6.1394C17.5675 5.54237 17.1181 5.02325 16.5208 4.98047ZM14.716 8.80249C14.716 9.16898 14.4189 9.46608 14.0524 9.46608C13.686 9.46608 13.3889 9.16898 13.3889 8.80249C13.3889 8.436 13.686 8.13891 14.0524 8.13891C14.4189 8.13891 14.716 8.436 14.716 8.80249ZM11.7394 7.32712C12.182 7.32712 12.5408 6.9683 12.5408 6.52567C12.5408 6.08304 12.182 5.72421 11.7394 5.72421C11.2968 5.72421 10.9379 6.08304 10.9379 6.52567C10.9379 6.9683 11.2968 7.32712 11.7394 7.32712ZM10.3407 2.62483C10.3917 1.91601 11.0073 1.38247 11.7164 1.43354C12.4254 1.48415 12.9582 2.09989 12.9079 2.80886C12.857 3.51769 12.2417 4.05123 11.5323 4.00062C10.8233 3.94986 10.2903 3.33412 10.3407 2.62483Z" fill="#3F6587"/>
</svg>
