<svg width="20" height="16" viewBox="0 0 20 16" fill="none" xmlns="http://www.w3.org/2000/svg">
<path d="M17.9976 10.2854C17.7019 10.2899 17.3757 10.2839 17.0307 10.2779C14.8889 10.2397 11.8103 10.1884 10.0002 12.5582C8.18998 10.1884 5.11161 10.2399 2.96949 10.2779C2.62443 10.2839 2.29839 10.2899 2.00287 10.2854C1.93202 10.2847 1.25831 10.3063 0 10.3495C0 10.3495 0.0852676 11.9297 1.19697 11.9297C1.59616 11.9297 1.88478 11.9204 1.99137 11.9196C2.30161 11.9238 2.64007 11.9178 2.99847 11.9116C5.9215 11.8595 8.24013 12.0227 9.2799 14.5746L9.48725 15.0834H9.96327H10.0363H10.5126L10.7201 14.5746C11.7597 12.0227 14.0782 11.8594 17.0014 11.9116C17.3599 11.9179 17.6984 11.9239 18.0086 11.9196C18.1149 11.9204 18.4038 11.9297 18.8029 11.9297C19.9149 11.9297 20 10.3495 20 10.3495C18.742 10.3063 18.0681 10.2848 17.9976 10.2854Z" fill="#F3F6F9"/>
<path fill-rule="evenodd" clip-rule="evenodd" d="M9.88052 1.46168C10.0494 0.996692 10.3897 0.625103 10.8379 0.415461C11.7644 -0.0171643 12.8703 0.38433 13.3033 1.31C13.4202 1.55952 13.4789 1.82621 13.4789 2.09413C13.4789 2.30699 13.4418 2.52062 13.3668 2.72689C13.2096 3.16105 12.8988 3.50794 12.4941 3.72357C12.5189 3.96495 12.5425 4.20665 12.5425 4.4488C12.5425 4.60605 12.5319 4.76269 12.5213 4.91904L12.5213 4.91906V4.91908V4.91909L12.5209 4.92483C12.6733 5.04629 12.8054 5.18953 12.8885 5.36727C12.9686 5.53857 13.0089 5.72122 13.0089 5.90495C13.0089 6.0511 12.9834 6.1974 12.9321 6.3388C12.8163 6.65809 12.5832 6.91328 12.2754 7.05698C12.2106 7.08719 12.1401 7.09981 12.0696 7.11243L12.0696 7.11243L12.0696 7.11243L12.0696 7.11244L12.0696 7.11244L12.0695 7.11244L12.0695 7.11245L12.0695 7.11245C12.0456 7.11673 12.0216 7.12102 11.9979 7.12599C11.7816 7.64726 11.4934 8.1561 11.1448 8.64654C11.8001 8.55023 12.4099 8.37586 12.9626 8.12282C12.9833 7.72409 13.2142 7.35756 13.5854 7.18457C13.8574 7.05698 14.1602 7.05637 14.4351 7.16126C14.6866 6.93368 14.915 6.68539 15.12 6.41992C14.9078 6.13299 14.7905 5.78931 14.7905 5.4372C14.7905 5.24903 14.8227 5.05963 14.8889 4.87667C15.2004 4.02124 16.1498 3.57788 17.0056 3.88751C17.8618 4.19929 18.3051 5.14797 17.9946 6.00356C17.8446 6.41762 17.542 6.74903 17.1424 6.93613C16.7969 7.09808 16.4165 7.11387 16.0518 7.02416C15.7733 7.39099 15.4631 7.72838 15.1231 8.03065C15.1257 8.04958 15.1298 8.06851 15.1339 8.08741C15.1407 8.11903 15.1475 8.15057 15.1475 8.18187C15.1475 8.59839 14.9108 8.99191 14.5164 9.17671C14.1816 9.33329 13.8031 9.29218 13.493 9.10539C12.8144 9.42898 12.0674 9.64874 11.2664 9.76422C11.156 10.1608 10.8912 10.4938 10.511 10.6715C10.1671 10.8322 9.78129 10.8494 9.42427 10.7196C9.06756 10.5902 8.78293 10.3295 8.62343 9.9869C8.53755 9.80532 8.49431 9.60703 8.4917 9.40598C8.04067 9.07349 7.57155 8.80834 7.09261 8.60774C7.00197 8.69991 6.90045 8.78027 6.78113 8.8364C6.23211 9.09282 5.57665 8.8545 5.31978 8.30501C5.3077 8.27905 5.30256 8.25056 5.29742 8.22206C5.29387 8.20241 5.29032 8.18276 5.2845 8.16392C4.83071 8.12972 4.37999 8.15825 3.93571 8.23217C3.84799 8.6901 3.56259 9.08331 3.12874 9.2862C2.39461 9.62912 1.51755 9.31136 1.17356 8.57692C0.830039 7.84264 1.14811 6.96558 1.88285 6.62175C2.54628 6.31104 3.31767 6.55319 3.71472 7.14485C4.31957 7.04486 4.93116 7.01588 5.54092 7.07553C5.63232 6.98137 5.73231 6.89902 5.85024 6.84427C6.11602 6.71974 6.41445 6.70609 6.6905 6.80593C6.96716 6.90607 7.18799 7.10805 7.31283 7.37474L7.35178 7.50755C7.90127 7.7178 8.4322 8.0032 8.94027 8.35117C8.96404 8.32882 8.99012 8.30906 9.01621 8.28929L9.01622 8.28929L9.01622 8.28928L9.01623 8.28928L9.01624 8.28927L9.01624 8.28926L9.01625 8.28926L9.01625 8.28925L9.01626 8.28925L9.04042 8.27081C8.9803 7.91195 8.89457 7.56828 8.78661 7.24193C8.38235 7.2269 8.01169 6.99517 7.83348 6.61484C7.76432 6.46609 7.73043 6.30843 7.73043 6.15216C7.73043 5.94635 7.80879 5.75327 7.92044 5.5766C7.56326 5.0946 7.13907 4.677 6.65277 4.33194C6.26891 4.58713 5.79074 4.67654 5.35045 4.51689C4.98147 4.38301 4.68671 4.11371 4.52062 3.75823C4.35454 3.40274 4.3369 3.00385 4.47078 2.63487C4.74729 1.87375 5.59168 1.47885 6.35311 1.75521C6.94799 1.97221 7.31988 2.53887 7.31988 3.13958C7.31988 3.20369 7.30502 3.26774 7.29011 3.33197L7.2901 3.33198L7.2901 3.33199L7.2901 3.33201L7.29009 3.33202L7.29009 3.33204L7.29009 3.33205L7.29009 3.33206L7.29008 3.33208C7.28374 3.35937 7.2774 3.3867 7.27219 3.41409C7.91093 3.87049 8.46379 4.42212 8.91681 5.06331C9.30864 5.09352 9.65615 5.31957 9.82638 5.68365C9.89555 5.83179 9.92928 5.98929 9.92928 6.14603C9.92928 6.3319 9.86671 6.51087 9.77301 6.67695C9.93082 7.10084 10.0504 7.54773 10.1342 8.0101C10.1607 8.0144 10.1863 8.02007 10.2124 8.02605C10.49 7.64204 10.7195 7.24576 10.9017 6.84258C10.7731 6.72894 10.6603 6.59997 10.5867 6.44308C10.5068 6.27178 10.4663 6.08882 10.4663 5.9051C10.4663 5.75895 10.4918 5.61234 10.5432 5.47094C10.659 5.15195 10.8918 4.89722 11.1996 4.75368C11.2452 4.73233 11.2943 4.72417 11.3436 4.716L11.3436 4.716C11.3715 4.71137 11.3995 4.70673 11.4268 4.6997C11.4279 4.67373 11.4292 4.64777 11.4306 4.62181L11.4306 4.62166V4.62164V4.62161V4.62159V4.62157V4.62155V4.62152V4.6215V4.62148C11.4336 4.56246 11.4367 4.50349 11.4367 4.44466C11.4367 4.2866 11.4219 4.13036 11.4072 3.97432L11.4018 3.91695C10.7738 3.84012 10.2174 3.46485 9.94431 2.88009C9.82715 2.63012 9.76857 2.36312 9.76857 2.09536C9.76857 1.88203 9.80583 1.66825 9.88052 1.46168ZM8.87758 5.48656C9.24319 5.51279 9.51832 5.8304 9.49194 6.196C9.46587 6.56161 9.14826 6.83674 8.78342 6.81021C8.4172 6.78429 8.14192 6.46668 8.1683 6.10107C8.19452 5.73547 8.51182 5.46034 8.87758 5.48656ZM9.92149 10.4091C10.4881 10.4091 10.9475 9.9498 10.9475 9.38317C10.9475 8.81654 10.4881 8.3572 9.92149 8.3572C9.35486 8.3572 8.89551 8.81654 8.89551 9.38317C8.89551 9.9498 9.35486 10.4091 9.92149 10.4091ZM3.50006 7.94681C3.50006 8.49675 3.05425 8.94257 2.5043 8.94257C1.95436 8.94257 1.50854 8.49675 1.50854 7.94681C1.50854 7.39686 1.95436 6.95105 2.5043 6.95105C3.05425 6.95105 3.50006 7.39686 3.50006 7.94681ZM6.87083 3.22904C6.91024 2.68047 6.49709 2.20399 5.94853 2.16457C5.40027 2.12577 4.92378 2.538 4.88468 3.08657C4.84526 3.63513 5.2578 4.11177 5.80698 4.15103C6.35508 4.19029 6.83141 3.77745 6.87083 3.22904ZM5.65828 7.79188C5.68465 7.4278 6.00073 7.15436 6.3645 7.18059C6.72842 7.20635 7.00185 7.52258 6.97624 7.88634C6.95002 8.25011 6.63379 8.52386 6.27003 8.49794C5.9058 8.47172 5.63251 8.15564 5.65828 7.79188ZM16.5203 4.35693C15.9231 4.31414 15.4043 4.76349 15.3617 5.36082C15.3189 5.95815 15.7682 6.47681 16.3653 6.51975C16.9629 6.56285 17.4813 6.1132 17.5245 5.51587C17.567 4.91884 17.1176 4.39972 16.5203 4.35693ZM14.7155 8.17896C14.7155 8.54544 14.4184 8.84254 14.052 8.84254C13.6855 8.84254 13.3884 8.54544 13.3884 8.17896C13.3884 7.81247 13.6855 7.51537 14.052 7.51537C14.4184 7.51537 14.7155 7.81247 14.7155 8.17896ZM11.7389 6.70359C12.1815 6.70359 12.5404 6.34476 12.5404 5.90213C12.5404 5.4595 12.1815 5.10068 11.7389 5.10068C11.2963 5.10068 10.9374 5.4595 10.9374 5.90213C10.9374 6.34476 11.2963 6.70359 11.7389 6.70359ZM10.3402 2.0013C10.3912 1.29247 11.0068 0.758938 11.7159 0.810007C12.4249 0.860615 12.9577 1.47635 12.9074 2.18533C12.8565 2.89416 12.2412 3.42769 11.5318 3.37708C10.8228 3.32632 10.2899 2.71058 10.3402 2.0013Z" fill="#F3F6F9"/>
</svg>
