<svg width="33" height="48" viewBox="0 0 33 48" fill="none" xmlns="http://www.w3.org/2000/svg">
<path d="M31.9538 22.6433C32.3341 22.6433 32.6423 22.335 32.6423 21.9548V16.8038C32.6423 15.2069 31.3432 13.9078 29.7463 13.9078H25.3312C23.8316 13.9078 22.5947 15.0535 22.4496 16.5156C22.1716 16.405 21.8898 16.3022 21.6046 16.2069V12.3886C21.6046 11.5667 21.3298 10.808 20.8678 10.1988C20.868 10.1928 20.8687 10.187 20.8687 10.181V5.03014C20.8686 2.62176 18.9092 0.662354 16.5008 0.662354C14.0925 0.662354 12.1331 2.62176 12.1331 5.03014V10.1811C12.1331 10.1871 12.1338 10.193 12.134 10.1989C11.672 10.8081 11.3972 11.5668 11.3972 12.3887V16.207C11.112 16.3022 10.8302 16.4051 10.5522 16.5157C10.4071 15.0536 9.17022 13.9079 7.67063 13.9079H3.25547C1.65858 13.9079 0.359467 15.207 0.359467 16.8039V21.9549C0.359467 22.3351 0.667721 22.6434 1.04794 22.6434C1.42817 22.6434 1.73642 22.3351 1.73642 21.9549V16.8039C1.73642 15.9663 2.41783 15.2849 3.25547 15.2849H7.67063C8.50828 15.2849 9.18968 15.9663 9.18968 16.8039V17.1326C3.9535 19.8041 0.359375 25.2506 0.359375 31.521C0.359375 40.4213 7.6004 47.6623 16.5008 47.6623C25.4013 47.6623 32.6423 40.4213 32.6423 31.5209C32.6423 25.2505 29.0482 19.804 23.812 17.1325V16.8038C23.812 15.9662 24.4934 15.2848 25.3311 15.2848H29.7462C30.5839 15.2848 31.2653 15.9662 31.2653 16.8038V21.9548C31.2654 22.335 31.5736 22.6433 31.9538 22.6433ZM11.3282 17.6924C10.614 18.3932 9.95095 19.2453 9.35427 20.2398C9.20409 20.4902 9.05997 20.7479 8.92099 21.0113C8.37967 20.6877 7.8578 20.3285 7.35925 19.935C8.5483 18.9948 9.88505 18.234 11.3282 17.6924ZM10.5351 20.9483C11.9888 18.5256 13.8416 17.0793 15.8124 16.8051V23.0895C13.8343 22.997 11.9035 22.5069 10.1344 21.6621C10.2629 21.4182 10.3962 21.1797 10.5351 20.9483ZM15.8124 24.4679V30.8324H7.92711C8.00431 27.9499 8.56519 25.2199 9.54503 22.9063C11.497 23.8379 13.6291 24.3745 15.8124 24.4679ZM17.1893 16.806C18.8881 17.0482 20.5315 18.1791 21.8784 20.0522C22.2339 20.5467 22.5627 21.0874 22.8657 21.6641C21.0978 22.5084 19.1686 22.9973 17.1893 23.0896V16.806ZM22.9963 19.2484C22.5772 18.6655 22.1296 18.1445 21.6598 17.6872C23.1085 18.2292 24.4501 18.9922 25.643 19.9355C25.1438 20.3294 24.6213 20.6884 24.0797 21.0123C23.7483 20.3818 23.3865 19.7911 22.9963 19.2484ZM13.51 5.03014C13.51 4.48459 13.6575 3.9731 13.9138 3.53229C14.719 4.26538 16.4658 5.4592 19.4916 5.74248V9.09096C19.029 8.87707 18.5147 8.75673 17.9725 8.75673H15.0292C14.487 8.75673 13.9726 8.87698 13.5101 9.09096V5.03014H13.51ZM19.4131 4.35158C16.8799 4.07178 15.4708 3.09249 14.8565 2.53372C15.3286 2.22162 15.8937 2.03931 16.5008 2.03931C17.9165 2.03931 19.1048 3.02842 19.4131 4.35158ZM12.7742 12.3887C12.7742 11.1453 13.7858 10.1338 15.0291 10.1338H17.9724C19.2158 10.1338 20.2273 11.1454 20.2273 12.3887V15.8145C19.0306 15.5306 17.7831 15.3795 16.5007 15.3795C15.2183 15.3795 13.9707 15.5306 12.774 15.8145V12.3887H12.7742ZM6.30331 20.8536C6.94305 21.3754 7.61941 21.8447 8.32542 22.259C7.24561 24.7659 6.62929 27.7218 6.54988 30.8324H1.75294C1.9336 26.9173 3.6457 23.3953 6.30331 20.8536ZM1.75294 32.2094H15.8124V38.5739C13.6275 38.6671 11.4979 39.2019 9.54778 40.1324C8.82626 38.4214 8.32119 36.4618 8.08096 34.3848C8.03726 34.007 7.69541 33.7353 7.31794 33.78C6.9402 33.8237 6.66949 34.1653 6.71319 34.543C6.97334 36.7916 7.52917 38.9203 8.3278 40.7808C7.62133 41.1956 6.94461 41.6658 6.30377 42.1884C3.6458 39.6468 1.9336 36.1247 1.75294 32.2094ZM11.1233 42.9895C10.7678 42.495 10.4389 41.9541 10.1359 41.3775C11.9036 40.5332 13.8326 40.0444 15.8124 39.9521V46.2358C14.1136 45.9937 12.4702 44.8627 11.1233 42.9895ZM17.1893 46.2367V39.9521C19.17 40.0444 21.0998 40.5336 22.868 41.3786C22.7393 41.6228 22.6058 41.8618 22.4666 42.0937C21.013 44.5164 19.1601 45.9625 17.1893 46.2367ZM17.1893 38.574V32.2094H25.0746C24.9974 35.0914 24.4367 37.8209 23.4573 40.1342C21.5063 39.2025 19.3756 38.6672 17.1893 38.574ZM7.3588 43.1065C7.85799 42.7126 8.38022 42.3531 8.92173 42.0291C9.25321 42.6598 9.61498 43.2507 10.0053 43.7935C10.4244 44.3764 10.872 44.8973 11.3418 45.3547C9.89321 44.8126 8.5517 44.0498 7.3588 43.1065ZM23.6474 42.8021C23.7978 42.5515 23.942 42.2935 24.0811 42.0298C24.6222 42.3536 25.1441 42.7128 25.6429 43.1065C24.4538 44.0468 23.1168 44.8078 21.6735 45.3494C22.3876 44.6487 23.0506 43.7965 23.6474 42.8021ZM26.698 42.1885C26.0579 41.6665 25.382 41.1967 24.6765 40.7823C25.7561 38.2755 26.3724 35.3197 26.4517 32.2094H31.2487C31.0681 36.1247 29.3559 39.6468 26.698 42.1885ZM31.2487 30.8324H17.1893V24.4679C19.3734 24.3747 21.5035 23.8397 23.4539 22.9091C24.1754 24.6201 24.6805 26.5799 24.9208 28.657C24.9645 29.0347 25.3063 29.3054 25.6838 29.2618C26.0616 29.2181 26.3323 28.8765 26.2886 28.4987C26.0284 26.2503 25.4726 24.1216 24.6741 22.2611C25.3806 21.8462 26.0574 21.3759 26.6982 20.8534C29.3559 23.3951 31.0681 26.9172 31.2487 30.8324Z" fill="#3F6587"/>
<path d="M27.5382 13.0765C29.5408 13.0765 31.17 11.4472 31.17 9.44469V6.50122C31.17 6.121 30.8618 5.81274 30.4816 5.81274H26.8023C25.2054 5.81274 23.9062 7.11185 23.9062 8.70875V9.4446C23.9062 11.4472 25.5356 13.0765 27.5382 13.0765ZM26.8024 7.1897H29.7932V9.4446C29.7932 10.688 28.7816 11.6995 27.5383 11.6995C26.2949 11.6995 25.2834 10.6879 25.2834 9.4446V9.39723H28.2742C28.6544 9.39723 28.9627 9.08898 28.9627 8.70875C28.9627 8.32853 28.6544 8.02028 28.2742 8.02028H25.4501C25.7015 7.52806 26.2126 7.1897 26.8024 7.1897Z" fill="#F37A20"/>
<path d="M18.3178 7.43976C18.6469 7.24937 18.7594 6.82821 18.5691 6.49902C18.3787 6.16993 17.9575 6.05739 17.6283 6.24777C17.2877 6.44486 16.8979 6.54905 16.5013 6.54905C16.1044 6.54905 15.7144 6.44468 15.3734 6.24732C15.0445 6.05684 14.6232 6.16901 14.4326 6.4982C14.2421 6.8272 14.3544 7.24845 14.6835 7.43902C15.2338 7.75765 15.8623 7.9261 16.5012 7.9261C17.1397 7.92601 17.7678 7.75783 18.3178 7.43976Z" fill="#F37A20"/>
<path d="M1.8309 9.47728C1.84862 11.4649 3.4703 13.0765 5.46202 13.0765C7.46466 13.0765 9.09388 11.4472 9.09388 9.44469V6.50122C9.09388 6.121 8.78562 5.81274 8.4054 5.81274H3.99024C2.79909 5.81274 1.83008 6.78184 1.83008 7.97291V9.4446C1.83008 9.45166 1.83054 9.45864 1.83063 9.46562C1.83072 9.46956 1.83072 9.47342 1.8309 9.47728ZM5.46202 11.6996C4.39837 11.6996 3.505 10.9592 3.26872 9.96674L7.71701 8.85471V9.44469C7.71701 10.688 6.70541 11.6996 5.46202 11.6996ZM3.99033 7.1897H7.71701V7.43544L3.20712 8.56289V7.97291C3.20703 7.541 3.55843 7.1897 3.99033 7.1897Z" fill="#F37A20"/>
</svg>
