<svg width="259" height="49" viewBox="0 0 259 49" fill="none" xmlns="http://www.w3.org/2000/svg">
<path d="M40.4877 24.696C40.4877 28.1784 39.9361 31.3473 38.833 34.2025C37.7298 37.0577 36.1724 39.5019 34.1608 41.5352C32.1492 43.5684 29.7374 45.1474 26.9255 46.2722C24.1135 47.3753 20.9988 47.9269 17.5812 47.9269H0.19043V1.43258H17.5812C20.9988 1.43258 24.1135 1.99497 26.9255 3.11975C29.7374 4.22289 32.1492 5.8019 34.1608 7.85678C36.1724 9.89003 37.7298 12.3343 38.833 15.1895C39.9361 18.0446 40.4877 21.2135 40.4877 24.696ZM34.031 24.696C34.031 21.8408 33.6417 19.2884 32.863 17.0388C32.0843 14.7893 30.9812 12.8858 29.5536 11.3284C28.126 9.77106 26.3955 8.5814 24.3623 7.75944C22.329 6.93749 20.0687 6.52652 17.5812 6.52652H6.51729V42.833H17.5812C20.0687 42.833 22.329 42.422 24.3623 41.6C26.3955 40.7781 28.126 39.5992 29.5536 38.0635C30.9812 36.5061 32.0843 34.6026 32.863 32.3531C33.6417 30.1035 34.031 27.5512 34.031 24.696Z" fill="#3F6587"/>
<path d="M61.1509 14.5405C63.1192 14.5405 64.9362 14.8758 66.6017 15.5464C68.2672 16.1953 69.7056 17.147 70.9169 18.4016C72.1282 19.6345 73.0692 21.1702 73.7397 23.0088C74.4319 24.8257 74.7779 26.9023 74.7779 29.2383C74.7779 30.1468 74.6806 30.7524 74.4859 31.0553C74.2913 31.3581 73.9235 31.5095 73.3828 31.5095H51.5146C51.5578 33.586 51.839 35.3921 52.3581 36.9279C52.8773 38.4636 53.5911 39.7507 54.4995 40.7889C55.408 41.8055 56.4895 42.5734 57.7441 43.0925C58.9986 43.59 60.4046 43.8388 61.962 43.8388C63.4112 43.8388 64.655 43.6766 65.6932 43.3521C66.7531 43.006 67.6616 42.6383 68.4186 42.249C69.1757 41.8596 69.803 41.5027 70.3005 41.1782C70.8196 40.8322 71.263 40.6591 71.6307 40.6591C72.1066 40.6591 72.4743 40.843 72.7339 41.2107L74.3561 43.3196C73.6423 44.1849 72.788 44.9419 71.793 45.5908C70.798 46.2181 69.7273 46.7372 68.5809 47.1482C67.4561 47.5592 66.2881 47.862 65.0768 48.0567C63.8655 48.273 62.665 48.3811 61.4753 48.3811C59.2041 48.3811 57.106 48.0026 55.1809 47.2455C53.2774 46.4669 51.6227 45.3421 50.2167 43.8712C48.8324 42.3787 47.7509 40.5402 46.9722 38.3555C46.1935 36.1708 45.8042 33.6617 45.8042 30.8282C45.8042 28.5353 46.1502 26.3939 46.8424 24.404C47.5562 22.414 48.5728 20.6944 49.8923 19.2451C51.2117 17.7743 52.8232 16.6279 54.7267 15.8059C56.6301 14.9623 58.7715 14.5405 61.1509 14.5405ZM61.2806 18.7909C58.4903 18.7909 56.2949 19.602 54.6942 21.2243C53.0936 22.8249 52.0986 25.0529 51.7092 27.9081H69.5867C69.5867 26.567 69.4028 25.3449 69.0351 24.2417C68.6674 23.117 68.1266 22.1544 67.4128 21.3541C66.699 20.5321 65.823 19.9049 64.7847 19.4722C63.7681 19.018 62.6001 18.7909 61.2806 18.7909Z" fill="#3F6587"/>
<path d="M82.1699 47.9269V15.0597H85.6091C86.4311 15.0597 86.9502 15.4598 87.1665 16.2601L87.6208 19.8291C89.0484 18.2501 90.6382 16.9739 92.3902 16.0006C94.1639 15.0272 96.208 14.5405 98.5224 14.5405C100.318 14.5405 101.897 14.8434 103.259 15.449C104.644 16.033 105.79 16.8766 106.699 17.9798C107.629 19.0613 108.332 20.3699 108.808 21.9057C109.284 23.4414 109.521 25.1394 109.521 26.9996V47.9269H103.746V26.9996C103.746 24.5121 103.173 22.587 102.027 21.2243C100.902 19.84 99.1713 19.1478 96.8353 19.1478C95.1265 19.1478 93.5258 19.5588 92.0333 20.3807C90.5625 21.2027 89.1998 22.3166 87.9452 23.7226V47.9269H82.1699Z" fill="#3F6587"/>
<path d="M118.227 47.9269V15.0597H121.667C122.489 15.0597 123.008 15.4598 123.224 16.2601L123.646 19.6345C124.857 18.142 126.209 16.9199 127.702 15.9681C129.216 15.0164 130.968 14.5405 132.958 14.5405C135.186 14.5405 136.981 15.157 138.344 16.3899C139.728 17.6229 140.723 19.2884 141.329 21.3865C141.783 20.1969 142.378 19.1694 143.113 18.3042C143.87 17.439 144.714 16.7252 145.644 16.1628C146.574 15.6004 147.558 15.1895 148.596 14.9299C149.656 14.6703 150.727 14.5405 151.809 14.5405C153.539 14.5405 155.075 14.8217 156.416 15.3841C157.778 15.9249 158.925 16.7252 159.855 17.7851C160.807 18.845 161.531 20.1536 162.029 21.711C162.526 23.2467 162.775 25.0096 162.775 26.9996V47.9269H157V26.9996C157 24.4256 156.437 22.4789 155.313 21.1594C154.188 19.8183 152.555 19.1478 150.413 19.1478C149.462 19.1478 148.553 19.3208 147.688 19.6669C146.844 19.9914 146.098 20.4781 145.449 21.127C144.8 21.7759 144.281 22.5978 143.892 23.5928C143.524 24.5662 143.34 25.7018 143.34 26.9996V47.9269H137.565V26.9996C137.565 24.3607 137.035 22.3923 135.975 21.0945C134.915 19.7967 133.369 19.1478 131.335 19.1478C129.908 19.1478 128.578 19.5371 127.345 20.3158C126.133 21.0729 125.019 22.1111 124.003 23.4306V47.9269H118.227Z" fill="#3F6587"/>
<path d="M195.661 47.9269H193.098C192.535 47.9269 192.081 47.8404 191.735 47.6673C191.389 47.4943 191.162 47.1266 191.054 46.5642L190.405 43.5143C189.54 44.293 188.696 44.996 187.874 45.6233C187.052 46.2289 186.187 46.7481 185.279 47.1807C184.37 47.5916 183.397 47.9053 182.358 48.1216C181.342 48.3379 180.206 48.446 178.952 48.446C177.675 48.446 176.475 48.273 175.35 47.9269C174.247 47.5592 173.285 47.0184 172.463 46.3046C171.641 45.5908 170.981 44.6932 170.483 43.6117C170.008 42.5085 169.77 41.2107 169.77 39.7182C169.77 38.4204 170.126 37.1766 170.84 35.987C171.554 34.7757 172.7 33.705 174.279 32.7749C175.88 31.8448 177.967 31.0877 180.541 30.5037C183.115 29.8981 186.263 29.552 189.983 29.4654V26.9023C189.983 24.3499 189.432 22.4248 188.328 21.127C187.247 19.8075 185.635 19.1478 183.494 19.1478C182.088 19.1478 180.898 19.3317 179.925 19.6994C178.973 20.0455 178.141 20.4456 177.427 20.8998C176.735 21.3325 176.129 21.7326 175.61 22.1003C175.112 22.4464 174.615 22.6195 174.117 22.6195C173.728 22.6195 173.382 22.5221 173.079 22.3274C172.798 22.1111 172.571 21.8516 172.398 21.5488L171.359 19.6994C173.176 17.9473 175.134 16.6387 177.232 15.7735C179.33 14.9083 181.655 14.4757 184.208 14.4757C186.046 14.4757 187.679 14.7785 189.107 15.3841C190.535 15.9898 191.735 16.8334 192.709 17.9149C193.682 18.9964 194.417 20.305 194.915 21.8408C195.412 23.3765 195.661 25.0637 195.661 26.9023V47.9269ZM180.671 44.3904C181.688 44.3904 182.618 44.293 183.462 44.0983C184.305 43.882 185.095 43.59 185.83 43.2223C186.587 42.833 187.301 42.3679 187.971 41.8272C188.664 41.2864 189.334 40.6699 189.983 39.9778V33.1318C187.323 33.2183 185.062 33.4346 183.202 33.7807C181.342 34.1051 179.828 34.5378 178.66 35.0785C177.492 35.6193 176.637 36.2574 176.096 36.9928C175.577 37.7282 175.318 38.5502 175.318 39.4586C175.318 40.3239 175.458 41.0701 175.74 41.6974C176.021 42.3247 176.399 42.8438 176.875 43.2548C177.351 43.6441 177.913 43.9361 178.562 44.1308C179.211 44.3038 179.914 44.3904 180.671 44.3904Z" fill="#3F6587"/>
<path d="M204.411 47.9269V15.0597H207.72C208.347 15.0597 208.78 15.1786 209.018 15.4166C209.256 15.6545 209.418 16.0655 209.505 16.6495L209.894 21.7759C211.019 19.4831 212.403 17.6986 214.047 16.4224C215.712 15.1246 217.659 14.4757 219.887 14.4757C220.796 14.4757 221.618 14.5838 222.353 14.8001C223.088 14.9948 223.77 15.276 224.397 15.6437L223.651 19.9589C223.499 20.4997 223.164 20.7701 222.645 20.7701C222.342 20.7701 221.877 20.6727 221.25 20.4781C220.623 20.2618 219.747 20.1536 218.622 20.1536C216.61 20.1536 214.923 20.7376 213.56 21.9057C212.219 23.0737 211.094 24.7717 210.186 26.9996V47.9269H204.411Z" fill="#3F6587"/>
<path d="M236.585 0.134766V28.265H238.077C238.51 28.265 238.867 28.2109 239.148 28.1027C239.429 27.973 239.743 27.7242 240.089 27.3565L250.472 16.2277C250.796 15.8816 251.12 15.6004 251.445 15.3841C251.769 15.1678 252.202 15.0597 252.743 15.0597H257.999L245.897 27.9405C245.594 28.3082 245.291 28.6327 244.988 28.9139C244.707 29.1951 244.383 29.4438 244.015 29.6601C244.404 29.9197 244.75 30.2225 245.053 30.5686C245.378 30.893 245.68 31.2716 245.962 31.7042L258.81 47.9269H253.619C253.143 47.9269 252.732 47.8404 252.386 47.6673C252.061 47.4727 251.748 47.1807 251.445 46.7913L240.641 33.3265C240.316 32.8722 239.992 32.5802 239.667 32.4504C239.343 32.299 238.856 32.2233 238.207 32.2233H236.585V47.9269H230.777V0.134766H236.585Z" fill="#3F6587"/>
</svg>
