<svg width="16" height="16" viewBox="0 0 16 16" fill="none" xmlns="http://www.w3.org/2000/svg">
<path d="M5.67383 3.13166C5.69141 3.16711 5.73242 3.22278 5.81152 3.29397C5.82031 3.30364 5.83203 3.3136 5.84375 3.32356C5.29883 3.33411 4.7627 3.37483 4.25 3.44397V3.06018C4.25 2.55862 4.53418 2.13674 4.86816 1.8344C5.20508 1.53147 5.65332 1.29124 6.14551 1.10374C7.13281 0.726802 8.4541 0.508423 9.875 0.508423C11.2959 0.508423 12.6172 0.726802 13.6045 1.10374C14.0967 1.29124 14.5449 1.53147 14.8818 1.8344C15.2158 2.13674 15.5 2.55862 15.5 3.06018V9.15393C15.5 9.70764 15.2158 10.1295 14.8818 10.4313C14.5449 10.736 14.0967 10.9762 13.6045 11.1637C13.3232 11.2692 13.0156 11.3658 12.6875 11.4449V9.98889C12.8369 9.94495 12.9746 9.89807 13.1035 9.84827C13.5049 9.69592 13.7773 9.53479 13.9385 9.38831C14.0176 9.31799 14.0586 9.2594 14.0762 9.22424C14.0938 9.19495 14.0938 9.1803 14.0938 9.15393V7.90295C13.9385 7.98206 13.7744 8.05237 13.6045 8.11682C13.3232 8.22229 13.0156 8.31897 12.6875 8.39807V6.94202C12.8369 6.89807 12.9746 6.8512 13.1035 6.80139C13.5049 6.64905 13.7773 6.48792 13.9385 6.34143C14.0176 6.27112 14.0586 6.21252 14.0762 6.17737C14.0908 6.151 14.0674 6.13635 14.0938 6.10706V4.85608C13.9385 4.93518 13.7744 5.00549 13.6045 5.06995C13.2031 5.22229 12.7197 5.3512 12.248 5.44788C12.0986 5.22522 11.9258 5.04065 11.7588 4.88831C11.4629 4.6217 11.1172 4.37854 10.7598 4.2262C11.6885 4.15881 12.5 3.98596 13.1035 3.75452C13.5049 3.60217 13.7773 3.44104 13.9385 3.29397C14.0176 3.22278 14.0586 3.16711 14.0762 3.13166C14.0908 3.10442 14.0674 3.08977 14.0938 3.06018C14.0938 3.08596 14.0938 3.07278 14.0762 3.04143C14.0586 3.00598 14.0176 2.95002 13.9385 2.87913C13.7773 2.73323 13.5049 2.56946 13.1035 2.4177C12.3125 2.11594 11.1699 1.88831 9.875 1.88831C8.58008 1.88831 7.4375 2.11594 6.64355 2.4177C6.24512 2.56946 5.97266 2.73323 5.81152 2.87913C5.73242 2.95002 5.69141 3.00598 5.67383 3.04143C5.62988 3.07278 5.62988 3.08596 5.62988 3.06018C5.65625 3.09006 5.65918 3.10442 5.67383 3.13166ZM0.5 6.81018C0.5 6.28284 0.783418 5.88733 1.11934 5.58557C1.45537 5.28088 1.90215 5.04065 2.39434 4.85315C3.38369 4.47815 4.7041 4.25842 6.125 4.25842C7.5459 4.25842 8.86719 4.47815 9.85449 4.85315C10.3467 5.04065 10.7949 5.28088 11.1318 5.58557C11.4658 5.88733 11.75 6.28284 11.75 6.81018V12.9303C11.75 13.4576 11.4658 13.8795 11.1318 14.1813C10.7949 14.486 10.3467 14.7262 9.85449 14.9137C8.86719 15.2887 7.5459 15.5084 6.125 15.5084C4.7041 15.5084 3.38369 15.2887 2.39434 14.9137C1.90215 14.7262 1.45537 14.486 1.11934 14.1813C0.783418 13.8795 0.5 13.4576 0.5 12.9303V6.81018ZM1.92266 6.88049C1.94141 6.91565 1.98154 6.97424 2.06035 7.04456C2.22236 7.19104 2.49658 7.35217 2.89502 7.50452C3.6875 7.80627 4.83008 7.98206 6.125 7.98206C7.41992 7.98206 8.5625 7.80627 9.35352 7.50452C9.75488 7.35217 10.0273 7.19104 10.1885 7.04456C10.2676 6.97424 10.3086 6.91565 10.3262 6.88049C10.3408 6.85413 10.3174 6.83948 10.3438 6.81018C10.3438 6.81018 10.3438 6.8219 10.3262 6.7926C10.3086 6.75745 10.2676 6.69885 10.1885 6.62854C10.0273 6.48206 9.75488 6.32092 9.35352 6.16858C8.5625 5.86682 7.41992 5.66467 6.125 5.66467C4.83008 5.66467 3.6875 5.86682 2.89502 6.16858C2.49658 6.32092 2.22236 6.48206 2.06035 6.62854C1.98154 6.69885 1.94141 6.75745 1.92266 6.7926C1.90566 6.8219 1.87988 6.81018 1.90625 6.81018C1.90625 6.83948 1.90771 6.85413 1.92266 6.88049ZM10.3438 8.60608C10.1885 8.68518 10.0244 8.75549 9.85449 8.81995C8.86719 9.19495 7.5459 9.38831 6.125 9.38831C4.7041 9.38831 3.38369 9.19495 2.39434 8.81995C2.22559 8.75549 2.06182 8.68518 1.90625 8.60608V9.88342C1.90625 9.88635 1.90771 9.901 1.92266 9.92737C1.94141 9.96252 1.98154 10.0211 2.06035 10.0914C2.22236 10.2379 2.49658 10.399 2.89502 10.5514C3.6875 10.8531 4.83008 11.0553 6.125 11.0553C7.41992 11.0553 8.5625 10.8531 9.35352 10.5514C9.75488 10.399 10.0273 10.2379 10.1885 10.0914C10.2676 10.0211 10.3086 9.96252 10.3262 9.92737C10.3408 9.901 10.3174 9.88635 10.3438 9.88342V8.60608ZM2.39434 11.8668C2.22559 11.8024 2.06182 11.7321 1.90625 11.653V12.9303C1.87988 12.9303 1.90566 12.9449 1.92266 12.9742C1.94141 13.0094 1.98154 13.068 2.06035 13.1383C2.22236 13.2848 2.49658 13.4459 2.89502 13.5983C3.6875 13.9 4.83008 14.1022 6.125 14.1022C7.41992 14.1022 8.5625 13.9 9.35352 13.5983C9.75488 13.4459 10.0273 13.2848 10.1885 13.1383C10.2676 13.068 10.3086 13.0094 10.3262 12.9742C10.3438 12.9449 10.3438 12.9303 10.3438 12.9303V11.653C10.1885 11.7321 10.0244 11.8024 9.85449 11.8668C8.86719 12.2418 7.5459 12.4615 6.09863 12.4615C4.7041 12.4615 3.38369 12.2418 2.39434 11.8668Z" fill="#3F6587"/>
</svg>
