<svg width="22" height="16" viewBox="0 0 22 16" fill="none" xmlns="http://www.w3.org/2000/svg">
<path d="M7.40625 8.00842C7.40625 5.90295 8.98226 4.25842 11 4.25842C12.984 4.25842 14.5938 5.90295 14.5938 8.00842C14.5938 10.0787 12.984 11.7584 11 11.7584C8.98226 11.7584 7.40625 10.0787 7.40625 8.00842ZM0.21875 3.00842C0.21875 1.62756 1.29126 0.508423 2.61458 0.508423H19.3854C20.7069 0.508423 21.7812 1.62756 21.7812 3.00842V13.0084C21.7812 14.3873 20.7069 15.5084 19.3854 15.5084H2.61458C1.29126 15.5084 0.21875 14.3873 0.21875 13.0084V3.00842ZM2.01562 4.88342V11.1334C3.33895 11.1334 4.41146 12.2545 4.41146 13.6334H17.5885C17.5885 12.2545 18.6629 11.1334 19.9844 11.1334V4.88342C18.6629 4.88342 17.5885 3.76233 17.5885 2.38342H4.41146C4.41146 3.76233 3.33895 4.88342 2.01562 4.88342Z" fill="#3F6587"/>
</svg>
