<svg width="545" height="440" viewBox="0 0 545 440" fill="none" xmlns="http://www.w3.org/2000/svg">
<g opacity="0.85" filter="url(#filter0_d_2571_10250)">
<path d="M166.614 30.0481L192.162 31.2859V45.5213V59.7566L166.614 30.0481Z" fill="white"/>
<path d="M166.614 30.0481L192.162 31.2859V45.5213V59.7566L166.614 30.0481Z" fill="url(#paint0_linear_2571_10250)"/>
<path d="M217.709 59.7566L192.162 59.7566L192.162 31.286L217.709 59.7566Z" fill="white"/>
<path d="M217.709 59.7566L192.162 59.7566L192.162 31.286L217.709 59.7566Z" fill="url(#paint1_linear_2571_10250)"/>
<path d="M166.614 30.0481L141.067 31.2859V59.7566L166.614 30.0481Z" fill="white"/>
<path d="M166.614 30.0481L141.067 31.2859V59.7566L166.614 30.0481Z" fill="url(#paint2_linear_2571_10250)"/>
<path d="M115.519 59.7566L141.067 59.7566L141.067 31.2859L115.519 59.7566Z" fill="white"/>
<path d="M115.519 59.7566L141.067 59.7566L141.067 31.2859L115.519 59.7566Z" fill="url(#paint3_linear_2571_10250)"/>
<path d="M141.067 59.7566L166.614 30.0481L192.162 59.7566L141.067 59.7566Z" fill="white"/>
<path d="M141.067 59.7566L166.614 30.0481L192.162 59.7566L141.067 59.7566Z" fill="url(#paint4_linear_2571_10250)"/>
<path d="M141.067 59.7566L166.614 121.649L192.162 59.7566L141.067 59.7566Z" fill="white"/>
<path d="M141.067 59.7566L166.614 121.649L192.162 59.7566L141.067 59.7566Z" fill="url(#paint5_linear_2571_10250)"/>
<path d="M192.162 59.7566H217.709L166.614 121.649L192.162 59.7566Z" fill="white"/>
<path d="M192.162 59.7566H217.709L166.614 121.649L192.162 59.7566Z" fill="url(#paint6_linear_2571_10250)"/>
<path d="M141.067 59.7566H115.519L166.614 121.649L141.067 59.7566Z" fill="white"/>
<path d="M141.067 59.7566H115.519L166.614 121.649L141.067 59.7566Z" fill="url(#paint7_linear_2571_10250)"/>
</g>
<g opacity="0.85" filter="url(#filter1_d_2571_10250)">
<path d="M457.538 115.924L478.519 116.945V128.689V140.434L457.538 115.924Z" fill="white"/>
<path d="M457.538 115.924L478.519 116.945V128.689V140.434L457.538 115.924Z" fill="url(#paint8_linear_2571_10250)"/>
<path d="M499.5 140.434L478.519 140.434L478.519 116.945L499.5 140.434Z" fill="white"/>
<path d="M499.5 140.434L478.519 140.434L478.519 116.945L499.5 140.434Z" fill="url(#paint9_linear_2571_10250)"/>
<path d="M457.538 115.924L436.557 116.945V140.434L457.538 115.924Z" fill="white"/>
<path d="M457.538 115.924L436.557 116.945V140.434L457.538 115.924Z" fill="url(#paint10_linear_2571_10250)"/>
<path d="M415.576 140.434L436.557 140.434L436.557 116.945L415.576 140.434Z" fill="white"/>
<path d="M415.576 140.434L436.557 140.434L436.557 116.945L415.576 140.434Z" fill="url(#paint11_linear_2571_10250)"/>
<path d="M436.557 140.434L457.538 115.924L478.519 140.434L436.557 140.434Z" fill="white"/>
<path d="M436.557 140.434L457.538 115.924L478.519 140.434L436.557 140.434Z" fill="url(#paint12_linear_2571_10250)"/>
<path d="M436.557 140.434L457.538 191.495L478.519 140.434L436.557 140.434Z" fill="white"/>
<path d="M436.557 140.434L457.538 191.495L478.519 140.434L436.557 140.434Z" fill="url(#paint13_linear_2571_10250)"/>
<path d="M478.519 140.434H499.5L457.538 191.495L478.519 140.434Z" fill="white"/>
<path d="M478.519 140.434H499.5L457.538 191.495L478.519 140.434Z" fill="url(#paint14_linear_2571_10250)"/>
<path d="M436.557 140.434H415.576L457.538 191.495L436.557 140.434Z" fill="white"/>
<path d="M436.557 140.434H415.576L457.538 191.495L436.557 140.434Z" fill="url(#paint15_linear_2571_10250)"/>
</g>
<g opacity="0.95" filter="url(#filter2_d_2571_10250)">
<path d="M323.605 15.1628L270.721 17.7004V46.8828V76.0652L323.605 15.1628Z" fill="white"/>
<path d="M323.605 15.1628L270.721 17.7004V46.8828V76.0652L323.605 15.1628Z" fill="url(#paint16_linear_2571_10250)"/>
<path d="M217.838 76.0652L270.721 76.0652L270.721 17.7004L217.838 76.0652Z" fill="white"/>
<path d="M217.838 76.0652L270.721 76.0652L270.721 17.7004L217.838 76.0652Z" fill="url(#paint17_linear_2571_10250)"/>
<path d="M323.605 15.1628L376.488 17.7004V76.0652L323.605 15.1628Z" fill="white"/>
<path d="M323.605 15.1628L376.488 17.7004V76.0652L323.605 15.1628Z" fill="url(#paint18_linear_2571_10250)"/>
<path d="M429.372 76.0652L376.488 76.0652L376.488 17.7004L429.372 76.0652Z" fill="white"/>
<path d="M429.372 76.0652L376.488 76.0652L376.488 17.7004L429.372 76.0652Z" fill="url(#paint19_linear_2571_10250)"/>
<path d="M376.488 76.0653L323.605 15.1628L270.721 76.0652L376.488 76.0653Z" fill="white"/>
<path d="M376.488 76.0653L323.605 15.1628L270.721 76.0652L376.488 76.0653Z" fill="url(#paint20_linear_2571_10250)"/>
<path d="M376.488 76.0652L323.605 202.945L270.721 76.0652L376.488 76.0652Z" fill="white"/>
<path d="M376.488 76.0652L323.605 202.945L270.721 76.0652L376.488 76.0652Z" fill="url(#paint21_linear_2571_10250)"/>
<path d="M270.721 76.0652H217.838L323.605 202.945L270.721 76.0652Z" fill="white"/>
<path d="M270.721 76.0652H217.838L323.605 202.945L270.721 76.0652Z" fill="url(#paint22_linear_2571_10250)"/>
<path d="M376.488 76.0652H429.372L323.605 202.945L376.488 76.0652Z" fill="white"/>
<path d="M376.488 76.0652H429.372L323.605 202.945L376.488 76.0652Z" fill="url(#paint23_linear_2571_10250)"/>
</g>
<g opacity="0.9" filter="url(#filter3_d_2571_10250)">
<path d="M72.7265 80.4287L101.34 81.8041V97.6211V113.438L72.7265 80.4287Z" fill="white"/>
<path d="M72.7265 80.4287L101.34 81.8041V97.6211V113.438L72.7265 80.4287Z" fill="url(#paint24_linear_2571_10250)"/>
<path d="M129.953 113.438L101.34 113.438L101.34 81.8042L129.953 113.438Z" fill="white"/>
<path d="M129.953 113.438L101.34 113.438L101.34 81.8042L129.953 113.438Z" fill="url(#paint25_linear_2571_10250)"/>
<path d="M72.7266 80.4287L44.1133 81.8041V113.438L72.7266 80.4287Z" fill="white"/>
<path d="M72.7266 80.4287L44.1133 81.8041V113.438L72.7266 80.4287Z" fill="url(#paint26_linear_2571_10250)"/>
<path d="M15.5 113.438L44.1133 113.438L44.1133 81.8042L15.5 113.438Z" fill="white"/>
<path d="M15.5 113.438L44.1133 113.438L44.1133 81.8042L15.5 113.438Z" fill="url(#paint27_linear_2571_10250)"/>
<path d="M44.1132 113.438L72.7265 80.4287L101.34 113.438L44.1132 113.438Z" fill="white"/>
<path d="M44.1132 113.438L72.7265 80.4287L101.34 113.438L44.1132 113.438Z" fill="url(#paint28_linear_2571_10250)"/>
<path d="M44.1132 113.438L72.7265 182.208L101.34 113.438L44.1132 113.438Z" fill="white"/>
<path d="M44.1132 113.438L72.7265 182.208L101.34 113.438L44.1132 113.438Z" fill="url(#paint29_linear_2571_10250)"/>
<path d="M101.34 113.438H129.953L72.7266 182.208L101.34 113.438Z" fill="white"/>
<path d="M101.34 113.438H129.953L72.7266 182.208L101.34 113.438Z" fill="url(#paint30_linear_2571_10250)"/>
<path d="M44.1133 113.438H15.5L72.7266 182.208L44.1133 113.438Z" fill="white"/>
<path d="M44.1133 113.438H15.5L72.7266 182.208L44.1133 113.438Z" fill="url(#paint31_linear_2571_10250)"/>
</g>
<g opacity="0.9" filter="url(#filter4_d_2571_10250)">
<path d="M188.521 144.55L246.865 147.35V179.558V211.765L188.521 144.55Z" fill="white"/>
<path d="M188.521 144.55L246.865 147.35V179.558V211.765L188.521 144.55Z" fill="url(#paint32_linear_2571_10250)"/>
<path d="M305.209 211.765L246.865 211.765L246.865 147.35L305.209 211.765Z" fill="white"/>
<path d="M305.209 211.765L246.865 211.765L246.865 147.35L305.209 211.765Z" fill="url(#paint33_linear_2571_10250)"/>
<path d="M188.521 144.55L130.177 147.35V211.765L188.521 144.55Z" fill="white"/>
<path d="M188.521 144.55L130.177 147.35V211.765L188.521 144.55Z" fill="url(#paint34_linear_2571_10250)"/>
<path d="M71.8322 211.765L130.177 211.765L130.177 147.35L71.8322 211.765Z" fill="white"/>
<path d="M71.8322 211.765L130.177 211.765L130.177 147.35L71.8322 211.765Z" fill="url(#paint35_linear_2571_10250)"/>
<path d="M130.176 211.765L188.521 144.55L246.865 211.765L130.176 211.765Z" fill="white"/>
<path d="M130.176 211.765L188.521 144.55L246.865 211.765L130.176 211.765Z" fill="url(#paint36_linear_2571_10250)"/>
<path d="M130.176 211.765L188.521 351.797L246.865 211.765L130.176 211.765Z" fill="white"/>
<path d="M130.176 211.765L188.521 351.797L246.865 211.765L130.176 211.765Z" fill="url(#paint37_linear_2571_10250)"/>
<path d="M246.865 211.765H305.209L188.521 351.797L246.865 211.765Z" fill="white"/>
<path d="M246.865 211.765H305.209L188.521 351.797L246.865 211.765Z" fill="url(#paint38_linear_2571_10250)"/>
<path d="M130.176 211.765H71.8322L188.521 351.797L130.176 211.765Z" fill="white"/>
<path d="M130.176 211.765H71.8322L188.521 351.797L130.176 211.765Z" fill="url(#paint39_linear_2571_10250)"/>
</g>
<g opacity="0.9" filter="url(#filter5_d_2571_10250)">
<path d="M210.941 104.474L220.138 104.942V110.32V115.697L210.941 104.474Z" fill="white"/>
<path d="M210.941 104.474L220.138 104.942V110.32V115.697L210.941 104.474Z" fill="url(#paint40_linear_2571_10250)"/>
<path d="M229.335 115.697L220.138 115.697L220.138 104.942L229.335 115.697Z" fill="white"/>
<path d="M229.335 115.697L220.138 115.697L220.138 104.942L229.335 115.697Z" fill="url(#paint41_linear_2571_10250)"/>
<path d="M210.941 104.474L201.744 104.942V115.697L210.941 104.474Z" fill="white"/>
<path d="M210.941 104.474L201.744 104.942V115.697L210.941 104.474Z" fill="url(#paint42_linear_2571_10250)"/>
<path d="M192.547 115.697L201.744 115.697L201.744 104.942L192.547 115.697Z" fill="white"/>
<path d="M192.547 115.697L201.744 115.697L201.744 104.942L192.547 115.697Z" fill="url(#paint43_linear_2571_10250)"/>
<path d="M201.744 115.697L210.941 104.474L220.138 115.697L201.744 115.697Z" fill="white"/>
<path d="M201.744 115.697L210.941 104.474L220.138 115.697L201.744 115.697Z" fill="url(#paint44_linear_2571_10250)"/>
<path d="M201.744 115.697L210.941 139.079L220.138 115.697L201.744 115.697Z" fill="white"/>
<path d="M201.744 115.697L210.941 139.079L220.138 115.697L201.744 115.697Z" fill="url(#paint45_linear_2571_10250)"/>
<path d="M220.138 115.697H229.335L210.941 139.079L220.138 115.697Z" fill="white"/>
<path d="M220.138 115.697H229.335L210.941 139.079L220.138 115.697Z" fill="url(#paint46_linear_2571_10250)"/>
<path d="M201.744 115.697H192.547L210.941 139.079L201.744 115.697Z" fill="white"/>
<path d="M201.744 115.697H192.547L210.941 139.079L201.744 115.697Z" fill="url(#paint47_linear_2571_10250)"/>
</g>
<g opacity="0.9" filter="url(#filter6_d_2571_10250)">
<path d="M457.539 316.302L474.497 317.168V327.133V337.098L457.539 316.302Z" fill="white"/>
<path d="M457.539 316.302L474.497 317.168V327.133V337.098L457.539 316.302Z" fill="url(#paint48_linear_2571_10250)"/>
<path d="M491.454 337.098L474.497 337.098L474.497 317.168L491.454 337.098Z" fill="white"/>
<path d="M491.454 337.098L474.497 337.098L474.497 317.168L491.454 337.098Z" fill="url(#paint49_linear_2571_10250)"/>
<path d="M457.539 316.302L440.582 317.168V337.098L457.539 316.302Z" fill="white"/>
<path d="M457.539 316.302L440.582 317.168V337.098L457.539 316.302Z" fill="url(#paint50_linear_2571_10250)"/>
<path d="M423.625 337.098L440.582 337.098L440.582 317.168L423.625 337.098Z" fill="white"/>
<path d="M423.625 337.098L440.582 337.098L440.582 317.168L423.625 337.098Z" fill="url(#paint51_linear_2571_10250)"/>
<path d="M440.582 337.098L457.539 316.302L474.497 337.098L440.582 337.098Z" fill="white"/>
<path d="M440.582 337.098L457.539 316.302L474.497 337.098L440.582 337.098Z" fill="url(#paint52_linear_2571_10250)"/>
<path d="M440.582 337.098L457.539 380.423L474.497 337.098L440.582 337.098Z" fill="white"/>
<path d="M440.582 337.098L457.539 380.423L474.497 337.098L440.582 337.098Z" fill="url(#paint53_linear_2571_10250)"/>
<path d="M474.497 337.098H491.454L457.539 380.423L474.497 337.098Z" fill="white"/>
<path d="M474.497 337.098H491.454L457.539 380.423L474.497 337.098Z" fill="url(#paint54_linear_2571_10250)"/>
<path d="M440.582 337.098H423.625L457.539 380.423L440.582 337.098Z" fill="white"/>
<path d="M440.582 337.098H423.625L457.539 380.423L440.582 337.098Z" fill="url(#paint55_linear_2571_10250)"/>
</g>
<g filter="url(#filter7_d_2571_10250)">
<path d="M304.637 279.661L335.964 281.209V299.003V316.797L304.637 279.661Z" fill="white"/>
<path d="M304.637 279.661L335.964 281.209V299.003V316.797L304.637 279.661Z" fill="url(#paint56_linear_2571_10250)"/>
<path d="M367.292 316.797L335.964 316.797L335.964 281.209L367.292 316.797Z" fill="white"/>
<path d="M367.292 316.797L335.964 316.797L335.964 281.209L367.292 316.797Z" fill="url(#paint57_linear_2571_10250)"/>
<path d="M304.637 279.661L273.309 281.209V316.797L304.637 279.661Z" fill="white"/>
<path d="M304.637 279.661L273.309 281.209V316.797L304.637 279.661Z" fill="url(#paint58_linear_2571_10250)"/>
<path d="M241.981 316.797L273.309 316.797L273.309 281.209L241.981 316.797Z" fill="white"/>
<path d="M241.981 316.797L273.309 316.797L273.309 281.209L241.981 316.797Z" fill="url(#paint59_linear_2571_10250)"/>
<path d="M273.309 316.797L304.637 279.661L335.964 316.797L273.309 316.797Z" fill="white"/>
<path d="M273.309 316.797L304.637 279.661L335.964 316.797L273.309 316.797Z" fill="url(#paint60_linear_2571_10250)"/>
<path d="M273.309 316.797L304.637 394.163L335.964 316.797L273.309 316.797Z" fill="white"/>
<path d="M273.309 316.797L304.637 394.163L335.964 316.797L273.309 316.797Z" fill="url(#paint61_linear_2571_10250)"/>
<path d="M335.964 316.797H367.292L304.637 394.163L335.964 316.797Z" fill="white"/>
<path d="M335.964 316.797H367.292L304.637 394.163L335.964 316.797Z" fill="url(#paint62_linear_2571_10250)"/>
<path d="M273.309 316.797H241.981L304.637 394.163L273.309 316.797Z" fill="white"/>
<path d="M273.309 316.797H241.981L304.637 394.163L273.309 316.797Z" fill="url(#paint63_linear_2571_10250)"/>
</g>
<g filter="url(#filter8_d_2571_10250)">
<path d="M405.805 202.945L440.581 204.663V224.414V244.166L405.805 202.945Z" fill="white"/>
<path d="M405.805 202.945L440.581 204.663V224.414V244.166L405.805 202.945Z" fill="url(#paint64_linear_2571_10250)"/>
<path d="M475.358 244.166L440.581 244.166L440.581 204.663L475.358 244.166Z" fill="white"/>
<path d="M475.358 244.166L440.581 244.166L440.581 204.663L475.358 244.166Z" fill="url(#paint65_linear_2571_10250)"/>
<path d="M405.805 202.945L371.028 204.663V244.166L405.805 202.945Z" fill="white"/>
<path d="M405.805 202.945L371.028 204.663V244.166L405.805 202.945Z" fill="url(#paint66_linear_2571_10250)"/>
<path d="M336.251 244.166L371.028 244.166L371.028 204.663L336.251 244.166Z" fill="white"/>
<path d="M336.251 244.166L371.028 244.166L371.028 204.663L336.251 244.166Z" fill="url(#paint67_linear_2571_10250)"/>
<path d="M371.028 244.166L405.805 202.945L440.581 244.166L371.028 244.166Z" fill="white"/>
<path d="M371.028 244.166L405.805 202.945L440.581 244.166L371.028 244.166Z" fill="url(#paint68_linear_2571_10250)"/>
<path d="M371.028 244.166L405.805 330.042L440.581 244.166L371.028 244.166Z" fill="white"/>
<path d="M371.028 244.166L405.805 330.042L440.581 244.166L371.028 244.166Z" fill="url(#paint69_linear_2571_10250)"/>
<path d="M440.581 244.166H475.358L405.805 330.042L440.581 244.166Z" fill="white"/>
<path d="M440.581 244.166H475.358L405.805 330.042L440.581 244.166Z" fill="url(#paint70_linear_2571_10250)"/>
<path d="M371.028 244.166H336.251L405.805 330.042L371.028 244.166Z" fill="white"/>
<path d="M371.028 244.166H336.251L405.805 330.042L371.028 244.166Z" fill="url(#paint71_linear_2571_10250)"/>
</g>
<defs>
<filter id="filter0_d_2571_10250" x="100.519" y="15.0481" width="162.19" height="151.601" filterUnits="userSpaceOnUse" color-interpolation-filters="sRGB">
<feFlood flood-opacity="0" result="BackgroundImageFix"/>
<feColorMatrix in="SourceAlpha" type="matrix" values="0 0 0 0 0 0 0 0 0 0 0 0 0 0 0 0 0 0 127 0" result="hardAlpha"/>
<feOffset dx="15" dy="15"/>
<feGaussianBlur stdDeviation="15"/>
<feComposite in2="hardAlpha" operator="out"/>
<feColorMatrix type="matrix" values="0 0 0 0 0 0 0 0 0 0 0 0 0 0 0 0 0 0 0.1 0"/>
<feBlend mode="normal" in2="BackgroundImageFix" result="effect1_dropShadow_2571_10250"/>
<feBlend mode="normal" in="SourceGraphic" in2="effect1_dropShadow_2571_10250" result="shape"/>
</filter>
<filter id="filter1_d_2571_10250" x="400.576" y="100.924" width="143.924" height="135.571" filterUnits="userSpaceOnUse" color-interpolation-filters="sRGB">
<feFlood flood-opacity="0" result="BackgroundImageFix"/>
<feColorMatrix in="SourceAlpha" type="matrix" values="0 0 0 0 0 0 0 0 0 0 0 0 0 0 0 0 0 0 127 0" result="hardAlpha"/>
<feOffset dx="15" dy="15"/>
<feGaussianBlur stdDeviation="15"/>
<feComposite in2="hardAlpha" operator="out"/>
<feColorMatrix type="matrix" values="0 0 0 0 0 0 0 0 0 0 0 0 0 0 0 0 0 0 0.1 0"/>
<feBlend mode="normal" in2="BackgroundImageFix" result="effect1_dropShadow_2571_10250"/>
<feBlend mode="normal" in="SourceGraphic" in2="effect1_dropShadow_2571_10250" result="shape"/>
</filter>
<filter id="filter2_d_2571_10250" x="202.838" y="0.162842" width="271.534" height="247.782" filterUnits="userSpaceOnUse" color-interpolation-filters="sRGB">
<feFlood flood-opacity="0" result="BackgroundImageFix"/>
<feColorMatrix in="SourceAlpha" type="matrix" values="0 0 0 0 0 0 0 0 0 0 0 0 0 0 0 0 0 0 127 0" result="hardAlpha"/>
<feOffset dx="15" dy="15"/>
<feGaussianBlur stdDeviation="15"/>
<feComposite in2="hardAlpha" operator="out"/>
<feColorMatrix type="matrix" values="0 0 0 0 0 0 0 0 0 0 0 0 0 0 0 0 0 0 0.1 0"/>
<feBlend mode="normal" in2="BackgroundImageFix" result="effect1_dropShadow_2571_10250"/>
<feBlend mode="normal" in="SourceGraphic" in2="effect1_dropShadow_2571_10250" result="shape"/>
</filter>
<filter id="filter3_d_2571_10250" x="0.499878" y="65.4287" width="174.453" height="161.779" filterUnits="userSpaceOnUse" color-interpolation-filters="sRGB">
<feFlood flood-opacity="0" result="BackgroundImageFix"/>
<feColorMatrix in="SourceAlpha" type="matrix" values="0 0 0 0 0 0 0 0 0 0 0 0 0 0 0 0 0 0 127 0" result="hardAlpha"/>
<feOffset dx="15" dy="15"/>
<feGaussianBlur stdDeviation="15"/>
<feComposite in2="hardAlpha" operator="out"/>
<feColorMatrix type="matrix" values="0 0 0 0 0 0 0 0 0 0 0 0 0 0 0 0 0 0 0.1 0"/>
<feBlend mode="normal" in2="BackgroundImageFix" result="effect1_dropShadow_2571_10250"/>
<feBlend mode="normal" in="SourceGraphic" in2="effect1_dropShadow_2571_10250" result="shape"/>
</filter>
<filter id="filter4_d_2571_10250" x="56.8322" y="129.55" width="293.377" height="267.248" filterUnits="userSpaceOnUse" color-interpolation-filters="sRGB">
<feFlood flood-opacity="0" result="BackgroundImageFix"/>
<feColorMatrix in="SourceAlpha" type="matrix" values="0 0 0 0 0 0 0 0 0 0 0 0 0 0 0 0 0 0 127 0" result="hardAlpha"/>
<feOffset dx="15" dy="15"/>
<feGaussianBlur stdDeviation="15"/>
<feComposite in2="hardAlpha" operator="out"/>
<feColorMatrix type="matrix" values="0 0 0 0 0 0 0 0 0 0 0 0 0 0 0 0 0 0 0.1 0"/>
<feBlend mode="normal" in2="BackgroundImageFix" result="effect1_dropShadow_2571_10250"/>
<feBlend mode="normal" in="SourceGraphic" in2="effect1_dropShadow_2571_10250" result="shape"/>
</filter>
<filter id="filter5_d_2571_10250" x="177.547" y="89.4741" width="96.7886" height="94.605" filterUnits="userSpaceOnUse" color-interpolation-filters="sRGB">
<feFlood flood-opacity="0" result="BackgroundImageFix"/>
<feColorMatrix in="SourceAlpha" type="matrix" values="0 0 0 0 0 0 0 0 0 0 0 0 0 0 0 0 0 0 127 0" result="hardAlpha"/>
<feOffset dx="15" dy="15"/>
<feGaussianBlur stdDeviation="15"/>
<feComposite in2="hardAlpha" operator="out"/>
<feColorMatrix type="matrix" values="0 0 0 0 0 0 0 0 0 0 0 0 0 0 0 0 0 0 0.1 0"/>
<feBlend mode="normal" in2="BackgroundImageFix" result="effect1_dropShadow_2571_10250"/>
<feBlend mode="normal" in="SourceGraphic" in2="effect1_dropShadow_2571_10250" result="shape"/>
</filter>
<filter id="filter6_d_2571_10250" x="408.625" y="301.302" width="127.829" height="124.121" filterUnits="userSpaceOnUse" color-interpolation-filters="sRGB">
<feFlood flood-opacity="0" result="BackgroundImageFix"/>
<feColorMatrix in="SourceAlpha" type="matrix" values="0 0 0 0 0 0 0 0 0 0 0 0 0 0 0 0 0 0 127 0" result="hardAlpha"/>
<feOffset dx="15" dy="15"/>
<feGaussianBlur stdDeviation="15"/>
<feComposite in2="hardAlpha" operator="out"/>
<feColorMatrix type="matrix" values="0 0 0 0 0 0 0 0 0 0 0 0 0 0 0 0 0 0 0.1 0"/>
<feBlend mode="normal" in2="BackgroundImageFix" result="effect1_dropShadow_2571_10250"/>
<feBlend mode="normal" in="SourceGraphic" in2="effect1_dropShadow_2571_10250" result="shape"/>
</filter>
<filter id="filter7_d_2571_10250" x="226.981" y="264.661" width="185.311" height="174.501" filterUnits="userSpaceOnUse" color-interpolation-filters="sRGB">
<feFlood flood-opacity="0" result="BackgroundImageFix"/>
<feColorMatrix in="SourceAlpha" type="matrix" values="0 0 0 0 0 0 0 0 0 0 0 0 0 0 0 0 0 0 127 0" result="hardAlpha"/>
<feOffset dx="15" dy="15"/>
<feGaussianBlur stdDeviation="15"/>
<feComposite in2="hardAlpha" operator="out"/>
<feColorMatrix type="matrix" values="0 0 0 0 0 0 0 0 0 0 0 0 0 0 0 0 0 0 0.1 0"/>
<feBlend mode="normal" in2="BackgroundImageFix" result="effect1_dropShadow_2571_10250"/>
<feBlend mode="normal" in="SourceGraphic" in2="effect1_dropShadow_2571_10250" result="shape"/>
</filter>
<filter id="filter8_d_2571_10250" x="321.251" y="187.945" width="199.107" height="187.097" filterUnits="userSpaceOnUse" color-interpolation-filters="sRGB">
<feFlood flood-opacity="0" result="BackgroundImageFix"/>
<feColorMatrix in="SourceAlpha" type="matrix" values="0 0 0 0 0 0 0 0 0 0 0 0 0 0 0 0 0 0 127 0" result="hardAlpha"/>
<feOffset dx="15" dy="15"/>
<feGaussianBlur stdDeviation="15"/>
<feComposite in2="hardAlpha" operator="out"/>
<feColorMatrix type="matrix" values="0 0 0 0 0 0 0 0 0 0 0 0 0 0 0 0 0 0 0.1 0"/>
<feBlend mode="normal" in2="BackgroundImageFix" result="effect1_dropShadow_2571_10250"/>
<feBlend mode="normal" in="SourceGraphic" in2="effect1_dropShadow_2571_10250" result="shape"/>
</filter>
<linearGradient id="paint0_linear_2571_10250" x1="214.133" y1="109.271" x2="152.607" y2="40.0166" gradientUnits="userSpaceOnUse">
<stop stop-color="#3F6587"/>
<stop offset="0.515625" stop-color="#3F6587" stop-opacity="0.5"/>
<stop offset="1" stop-color="#3F6587" stop-opacity="0"/>
</linearGradient>
<linearGradient id="paint1_linear_2571_10250" x1="262.162" y1="124.125" x2="168.989" y2="49.5378" gradientUnits="userSpaceOnUse">
<stop stop-color="#3F6587"/>
<stop offset="0.515625" stop-color="#3F6587" stop-opacity="0.5"/>
<stop offset="1" stop-color="#3F6587" stop-opacity="0"/>
</linearGradient>
<linearGradient id="paint2_linear_2571_10250" x1="139.023" y1="73.9919" x2="178.431" y2="18.8263" gradientUnits="userSpaceOnUse">
<stop stop-color="#3F6587"/>
<stop offset="0.515625" stop-color="#3F6587" stop-opacity="0.5"/>
<stop offset="1" stop-color="#3F6587" stop-opacity="0"/>
</linearGradient>
<linearGradient id="paint3_linear_2571_10250" x1="122.673" y1="84.5137" x2="170.859" y2="15.7907" gradientUnits="userSpaceOnUse">
<stop stop-color="#3F6587"/>
<stop offset="0.515625" stop-color="#3F6587" stop-opacity="0.5"/>
<stop offset="1" stop-color="#3F6587" stop-opacity="0"/>
</linearGradient>
<linearGradient id="paint4_linear_2571_10250" x1="163.549" y1="114.841" x2="123.483" y2="59.3115" gradientUnits="userSpaceOnUse">
<stop stop-color="#3F6587"/>
<stop offset="0.515625" stop-color="#3F6587" stop-opacity="0.5"/>
<stop offset="1" stop-color="#3F6587" stop-opacity="0"/>
</linearGradient>
<linearGradient id="paint5_linear_2571_10250" x1="166.614" y1="138.36" x2="168.521" y2="35.6538" gradientUnits="userSpaceOnUse">
<stop stop-color="#3F6587"/>
<stop offset="0.515625" stop-color="#3F6587" stop-opacity="0.5"/>
<stop offset="1" stop-color="#3F6587" stop-opacity="0"/>
</linearGradient>
<linearGradient id="paint6_linear_2571_10250" x1="146.176" y1="202.11" x2="231.536" y2="67.7823" gradientUnits="userSpaceOnUse">
<stop stop-color="#3F6587"/>
<stop offset="0.515625" stop-color="#3F6587" stop-opacity="0.5"/>
<stop offset="1" stop-color="#3F6587" stop-opacity="0"/>
</linearGradient>
<linearGradient id="paint7_linear_2571_10250" x1="158.439" y1="134.028" x2="94.1106" y2="61.9972" gradientUnits="userSpaceOnUse">
<stop stop-color="#3F6587"/>
<stop offset="0.515625" stop-color="#3F6587" stop-opacity="0.5"/>
<stop offset="1" stop-color="#3F6587" stop-opacity="0"/>
</linearGradient>
<linearGradient id="paint8_linear_2571_10250" x1="496.563" y1="181.283" x2="445.777" y2="124.378" gradientUnits="userSpaceOnUse">
<stop stop-color="#3F6587"/>
<stop offset="0.515625" stop-color="#3F6587" stop-opacity="0.5"/>
<stop offset="1" stop-color="#3F6587" stop-opacity="0"/>
</linearGradient>
<linearGradient id="paint9_linear_2571_10250" x1="536.007" y1="193.538" x2="459.216" y2="132.344" gradientUnits="userSpaceOnUse">
<stop stop-color="#3F6587"/>
<stop offset="0.515625" stop-color="#3F6587" stop-opacity="0.5"/>
<stop offset="1" stop-color="#3F6587" stop-opacity="0"/>
</linearGradient>
<linearGradient id="paint10_linear_2571_10250" x1="434.879" y1="152.178" x2="467.438" y2="106.806" gradientUnits="userSpaceOnUse">
<stop stop-color="#3F6587"/>
<stop offset="0.515625" stop-color="#3F6587" stop-opacity="0.5"/>
<stop offset="1" stop-color="#3F6587" stop-opacity="0"/>
</linearGradient>
<linearGradient id="paint11_linear_2571_10250" x1="421.451" y1="160.858" x2="461.266" y2="104.332" gradientUnits="userSpaceOnUse">
<stop stop-color="#3F6587"/>
<stop offset="0.515625" stop-color="#3F6587" stop-opacity="0.5"/>
<stop offset="1" stop-color="#3F6587" stop-opacity="0"/>
</linearGradient>
<linearGradient id="paint12_linear_2571_10250" x1="455.02" y1="185.878" x2="421.919" y2="140.21" gradientUnits="userSpaceOnUse">
<stop stop-color="#3F6587"/>
<stop offset="0.515625" stop-color="#3F6587" stop-opacity="0.5"/>
<stop offset="1" stop-color="#3F6587" stop-opacity="0"/>
</linearGradient>
<linearGradient id="paint13_linear_2571_10250" x1="457.538" y1="205.282" x2="459.118" y2="120.549" gradientUnits="userSpaceOnUse">
<stop stop-color="#3F6587"/>
<stop offset="0.515625" stop-color="#3F6587" stop-opacity="0.5"/>
<stop offset="1" stop-color="#3F6587" stop-opacity="0"/>
</linearGradient>
<linearGradient id="paint14_linear_2571_10250" x1="440.753" y1="257.875" x2="511.311" y2="147.346" gradientUnits="userSpaceOnUse">
<stop stop-color="#3F6587"/>
<stop offset="0.515625" stop-color="#3F6587" stop-opacity="0.5"/>
<stop offset="1" stop-color="#3F6587" stop-opacity="0"/>
</linearGradient>
<linearGradient id="paint15_linear_2571_10250" x1="450.824" y1="201.707" x2="397.727" y2="142.522" gradientUnits="userSpaceOnUse">
<stop stop-color="#3F6587"/>
<stop offset="0.515625" stop-color="#3F6587" stop-opacity="0.5"/>
<stop offset="1" stop-color="#3F6587" stop-opacity="0"/>
</linearGradient>
<linearGradient id="paint16_linear_2571_10250" x1="225.242" y1="177.569" x2="351.22" y2="34.3838" gradientUnits="userSpaceOnUse">
<stop stop-color="#3F6587"/>
<stop offset="0.515625" stop-color="#3F6587" stop-opacity="0.5"/>
<stop offset="1" stop-color="#3F6587" stop-opacity="0"/>
</linearGradient>
<linearGradient id="paint17_linear_2571_10250" x1="125.821" y1="208.02" x2="317.224" y2="53.3033" gradientUnits="userSpaceOnUse">
<stop stop-color="#3F6587"/>
<stop offset="0.515625" stop-color="#3F6587" stop-opacity="0.5"/>
<stop offset="1" stop-color="#3F6587" stop-opacity="0"/>
</linearGradient>
<linearGradient id="paint18_linear_2571_10250" x1="380.719" y1="105.248" x2="300.19" y2="-8.58145" gradientUnits="userSpaceOnUse">
<stop stop-color="#3F6587"/>
<stop offset="0.515625" stop-color="#3F6587" stop-opacity="0.5"/>
<stop offset="1" stop-color="#3F6587" stop-opacity="0"/>
</linearGradient>
<linearGradient id="paint19_linear_2571_10250" x1="414.564" y1="126.817" x2="316.113" y2="-14.9635" gradientUnits="userSpaceOnUse">
<stop stop-color="#3F6587"/>
<stop offset="0.515625" stop-color="#3F6587" stop-opacity="0.5"/>
<stop offset="1" stop-color="#3F6587" stop-opacity="0"/>
</linearGradient>
<linearGradient id="paint20_linear_2571_10250" x1="329.951" y1="188.988" x2="411.831" y2="74.3985" gradientUnits="userSpaceOnUse">
<stop stop-color="#3F6587"/>
<stop offset="0.515625" stop-color="#3F6587" stop-opacity="0.5"/>
<stop offset="1" stop-color="#3F6587" stop-opacity="0"/>
</linearGradient>
<linearGradient id="paint21_linear_2571_10250" x1="323.605" y1="237.203" x2="319.734" y2="26.6531" gradientUnits="userSpaceOnUse">
<stop stop-color="#3F6587"/>
<stop offset="0.515625" stop-color="#3F6587" stop-opacity="0.5"/>
<stop offset="1" stop-color="#3F6587" stop-opacity="0"/>
</linearGradient>
<linearGradient id="paint22_linear_2571_10250" x1="365.912" y1="367.889" x2="191.65" y2="90.9861" gradientUnits="userSpaceOnUse">
<stop stop-color="#3F6587"/>
<stop offset="0.515625" stop-color="#3F6587" stop-opacity="0.5"/>
<stop offset="1" stop-color="#3F6587" stop-opacity="0"/>
</linearGradient>
<linearGradient id="paint23_linear_2571_10250" x1="340.527" y1="228.321" x2="472.25" y2="79.3877" gradientUnits="userSpaceOnUse">
<stop stop-color="#3F6587"/>
<stop offset="0.515625" stop-color="#3F6587" stop-opacity="0.5"/>
<stop offset="1" stop-color="#3F6587" stop-opacity="0"/>
</linearGradient>
<linearGradient id="paint24_linear_2571_10250" x1="125.947" y1="168.454" x2="57.6515" y2="90.9645" gradientUnits="userSpaceOnUse">
<stop stop-color="#3F6587"/>
<stop offset="0.515625" stop-color="#3F6587" stop-opacity="0.5"/>
<stop offset="1" stop-color="#3F6587" stop-opacity="0"/>
</linearGradient>
<linearGradient id="paint25_linear_2571_10250" x1="179.74" y1="184.959" x2="76.0365" y2="101.278" gradientUnits="userSpaceOnUse">
<stop stop-color="#3F6587"/>
<stop offset="0.515625" stop-color="#3F6587" stop-opacity="0.5"/>
<stop offset="1" stop-color="#3F6587" stop-opacity="0"/>
</linearGradient>
<linearGradient id="paint26_linear_2571_10250" x1="41.8242" y1="129.255" x2="85.4963" y2="67.6309" gradientUnits="userSpaceOnUse">
<stop stop-color="#3F6587"/>
<stop offset="0.515625" stop-color="#3F6587" stop-opacity="0.5"/>
<stop offset="1" stop-color="#3F6587" stop-opacity="0"/>
</linearGradient>
<linearGradient id="paint27_linear_2571_10250" x1="23.5117" y1="140.946" x2="76.9055" y2="64.1873" gradientUnits="userSpaceOnUse">
<stop stop-color="#3F6587"/>
<stop offset="0.515625" stop-color="#3F6587" stop-opacity="0.5"/>
<stop offset="1" stop-color="#3F6587" stop-opacity="0"/>
</linearGradient>
<linearGradient id="paint28_linear_2571_10250" x1="69.2929" y1="174.643" x2="24.8885" y2="112.608" gradientUnits="userSpaceOnUse">
<stop stop-color="#3F6587"/>
<stop offset="0.515625" stop-color="#3F6587" stop-opacity="0.5"/>
<stop offset="1" stop-color="#3F6587" stop-opacity="0"/>
</linearGradient>
<linearGradient id="paint29_linear_2571_10250" x1="72.7265" y1="200.776" x2="74.8281" y2="86.6568" gradientUnits="userSpaceOnUse">
<stop stop-color="#3F6587"/>
<stop offset="0.515625" stop-color="#3F6587" stop-opacity="0.5"/>
<stop offset="1" stop-color="#3F6587" stop-opacity="0"/>
</linearGradient>
<linearGradient id="paint30_linear_2571_10250" x1="49.8359" y1="271.608" x2="144.358" y2="121.674" gradientUnits="userSpaceOnUse">
<stop stop-color="#3F6587"/>
<stop offset="0.515625" stop-color="#3F6587" stop-opacity="0.5"/>
<stop offset="1" stop-color="#3F6587" stop-opacity="0"/>
</linearGradient>
<linearGradient id="paint31_linear_2571_10250" x1="63.5703" y1="195.962" x2="-7.83936" y2="115.362" gradientUnits="userSpaceOnUse">
<stop stop-color="#3F6587"/>
<stop offset="0.515625" stop-color="#3F6587" stop-opacity="0.5"/>
<stop offset="1" stop-color="#3F6587" stop-opacity="0"/>
</linearGradient>
<linearGradient id="paint32_linear_2571_10250" x1="297.041" y1="323.791" x2="157.998" y2="165.813" gradientUnits="userSpaceOnUse">
<stop stop-color="#3F6587"/>
<stop offset="0.515625" stop-color="#3F6587" stop-opacity="0.5"/>
<stop offset="1" stop-color="#3F6587" stop-opacity="0"/>
</linearGradient>
<linearGradient id="paint33_linear_2571_10250" x1="406.728" y1="357.399" x2="195.5" y2="186.718" gradientUnits="userSpaceOnUse">
<stop stop-color="#3F6587"/>
<stop offset="0.515625" stop-color="#3F6587" stop-opacity="0.5"/>
<stop offset="1" stop-color="#3F6587" stop-opacity="0"/>
</linearGradient>
<linearGradient id="paint34_linear_2571_10250" x1="125.509" y1="243.972" x2="214.396" y2="118.374" gradientUnits="userSpaceOnUse">
<stop stop-color="#3F6587"/>
<stop offset="0.515625" stop-color="#3F6587" stop-opacity="0.5"/>
<stop offset="1" stop-color="#3F6587" stop-opacity="0"/>
</linearGradient>
<linearGradient id="paint35_linear_2571_10250" x1="88.1686" y1="267.778" x2="196.839" y2="111.337" gradientUnits="userSpaceOnUse">
<stop stop-color="#3F6587"/>
<stop offset="0.515625" stop-color="#3F6587" stop-opacity="0.5"/>
<stop offset="1" stop-color="#3F6587" stop-opacity="0"/>
</linearGradient>
<linearGradient id="paint36_linear_2571_10250" x1="181.519" y1="336.394" x2="91.1411" y2="209.956" gradientUnits="userSpaceOnUse">
<stop stop-color="#3F6587"/>
<stop offset="0.515625" stop-color="#3F6587" stop-opacity="0.5"/>
<stop offset="1" stop-color="#3F6587" stop-opacity="0"/>
</linearGradient>
<linearGradient id="paint37_linear_2571_10250" x1="188.521" y1="389.606" x2="192.794" y2="157.231" gradientUnits="userSpaceOnUse">
<stop stop-color="#3F6587"/>
<stop offset="0.515625" stop-color="#3F6587" stop-opacity="0.5"/>
<stop offset="1" stop-color="#3F6587" stop-opacity="0"/>
</linearGradient>
<linearGradient id="paint38_linear_2571_10250" x1="141.845" y1="533.839" x2="334.201" y2="228.295" gradientUnits="userSpaceOnUse">
<stop stop-color="#3F6587"/>
<stop offset="0.515625" stop-color="#3F6587" stop-opacity="0.5"/>
<stop offset="1" stop-color="#3F6587" stop-opacity="0"/>
</linearGradient>
<linearGradient id="paint39_linear_2571_10250" x1="169.851" y1="379.804" x2="24.467" y2="215.484" gradientUnits="userSpaceOnUse">
<stop stop-color="#3F6587"/>
<stop offset="0.515625" stop-color="#3F6587" stop-opacity="0.5"/>
<stop offset="1" stop-color="#3F6587" stop-opacity="0"/>
</linearGradient>
<linearGradient id="paint40_linear_2571_10250" x1="228.048" y1="134.403" x2="204.699" y2="109.358" gradientUnits="userSpaceOnUse">
<stop stop-color="#3F6587"/>
<stop offset="0.515625" stop-color="#3F6587" stop-opacity="0.5"/>
<stop offset="1" stop-color="#3F6587" stop-opacity="0"/>
</linearGradient>
<linearGradient id="paint41_linear_2571_10250" x1="245.338" y1="140.014" x2="210.547" y2="113.474" gradientUnits="userSpaceOnUse">
<stop stop-color="#3F6587"/>
<stop offset="0.515625" stop-color="#3F6587" stop-opacity="0.5"/>
<stop offset="1" stop-color="#3F6587" stop-opacity="0"/>
</linearGradient>
<linearGradient id="paint42_linear_2571_10250" x1="201.008" y1="121.075" x2="216.114" y2="100.924" gradientUnits="userSpaceOnUse">
<stop stop-color="#3F6587"/>
<stop offset="0.515625" stop-color="#3F6587" stop-opacity="0.5"/>
<stop offset="1" stop-color="#3F6587" stop-opacity="0"/>
</linearGradient>
<linearGradient id="paint43_linear_2571_10250" x1="195.122" y1="125.05" x2="213.608" y2="99.926" gradientUnits="userSpaceOnUse">
<stop stop-color="#3F6587"/>
<stop offset="0.515625" stop-color="#3F6587" stop-opacity="0.5"/>
<stop offset="1" stop-color="#3F6587" stop-opacity="0"/>
</linearGradient>
<linearGradient id="paint44_linear_2571_10250" x1="209.837" y1="136.507" x2="194.486" y2="116.232" gradientUnits="userSpaceOnUse">
<stop stop-color="#3F6587"/>
<stop offset="0.515625" stop-color="#3F6587" stop-opacity="0.5"/>
<stop offset="1" stop-color="#3F6587" stop-opacity="0"/>
</linearGradient>
<linearGradient id="paint45_linear_2571_10250" x1="210.941" y1="145.392" x2="211.697" y2="106.593" gradientUnits="userSpaceOnUse">
<stop stop-color="#3F6587"/>
<stop offset="0.515625" stop-color="#3F6587" stop-opacity="0.5"/>
<stop offset="1" stop-color="#3F6587" stop-opacity="0"/>
</linearGradient>
<linearGradient id="paint46_linear_2571_10250" x1="203.583" y1="169.475" x2="236.466" y2="120.165" gradientUnits="userSpaceOnUse">
<stop stop-color="#3F6587"/>
<stop offset="0.515625" stop-color="#3F6587" stop-opacity="0.5"/>
<stop offset="1" stop-color="#3F6587" stop-opacity="0"/>
</linearGradient>
<linearGradient id="paint47_linear_2571_10250" x1="207.998" y1="143.755" x2="183.592" y2="117.713" gradientUnits="userSpaceOnUse">
<stop stop-color="#3F6587"/>
<stop offset="0.515625" stop-color="#3F6587" stop-opacity="0.5"/>
<stop offset="1" stop-color="#3F6587" stop-opacity="0"/>
</linearGradient>
<linearGradient id="paint48_linear_2571_10250" x1="489.08" y1="371.758" x2="445.802" y2="325.566" gradientUnits="userSpaceOnUse">
<stop stop-color="#3F6587"/>
<stop offset="0.515625" stop-color="#3F6587" stop-opacity="0.5"/>
<stop offset="1" stop-color="#3F6587" stop-opacity="0"/>
</linearGradient>
<linearGradient id="paint49_linear_2571_10250" x1="520.959" y1="382.156" x2="456.579" y2="333.286" gradientUnits="userSpaceOnUse">
<stop stop-color="#3F6587"/>
<stop offset="0.515625" stop-color="#3F6587" stop-opacity="0.5"/>
<stop offset="1" stop-color="#3F6587" stop-opacity="0"/>
</linearGradient>
<linearGradient id="paint50_linear_2571_10250" x1="439.226" y1="347.062" x2="467.255" y2="309.857" gradientUnits="userSpaceOnUse">
<stop stop-color="#3F6587"/>
<stop offset="0.515625" stop-color="#3F6587" stop-opacity="0.5"/>
<stop offset="1" stop-color="#3F6587" stop-opacity="0"/>
</linearGradient>
<linearGradient id="paint51_linear_2571_10250" x1="428.373" y1="354.428" x2="462.677" y2="308.037" gradientUnits="userSpaceOnUse">
<stop stop-color="#3F6587"/>
<stop offset="0.515625" stop-color="#3F6587" stop-opacity="0.5"/>
<stop offset="1" stop-color="#3F6587" stop-opacity="0"/>
</linearGradient>
<linearGradient id="paint52_linear_2571_10250" x1="455.505" y1="375.657" x2="427.021" y2="338.224" gradientUnits="userSpaceOnUse">
<stop stop-color="#3F6587"/>
<stop offset="0.515625" stop-color="#3F6587" stop-opacity="0.5"/>
<stop offset="1" stop-color="#3F6587" stop-opacity="0"/>
</linearGradient>
<linearGradient id="paint53_linear_2571_10250" x1="457.539" y1="392.12" x2="458.947" y2="320.229" gradientUnits="userSpaceOnUse">
<stop stop-color="#3F6587"/>
<stop offset="0.515625" stop-color="#3F6587" stop-opacity="0.5"/>
<stop offset="1" stop-color="#3F6587" stop-opacity="0"/>
</linearGradient>
<linearGradient id="paint54_linear_2571_10250" x1="443.974" y1="436.745" x2="505.019" y2="345.656" gradientUnits="userSpaceOnUse">
<stop stop-color="#3F6587"/>
<stop offset="0.515625" stop-color="#3F6587" stop-opacity="0.5"/>
<stop offset="1" stop-color="#3F6587" stop-opacity="0"/>
</linearGradient>
<linearGradient id="paint55_linear_2571_10250" x1="452.113" y1="389.088" x2="406.876" y2="341.057" gradientUnits="userSpaceOnUse">
<stop stop-color="#3F6587"/>
<stop offset="0.515625" stop-color="#3F6587" stop-opacity="0.5"/>
<stop offset="1" stop-color="#3F6587" stop-opacity="0"/>
</linearGradient>
<linearGradient id="paint56_linear_2571_10250" x1="362.906" y1="378.69" x2="285.839" y2="293.59" gradientUnits="userSpaceOnUse">
<stop stop-color="#3F6587"/>
<stop offset="0.515625" stop-color="#3F6587" stop-opacity="0.5"/>
<stop offset="1" stop-color="#3F6587" stop-opacity="0"/>
</linearGradient>
<linearGradient id="paint57_linear_2571_10250" x1="421.802" y1="397.257" x2="305.844" y2="306.194" gradientUnits="userSpaceOnUse">
<stop stop-color="#3F6587"/>
<stop offset="0.515625" stop-color="#3F6587" stop-opacity="0.5"/>
<stop offset="1" stop-color="#3F6587" stop-opacity="0"/>
</linearGradient>
<linearGradient id="paint58_linear_2571_10250" x1="270.803" y1="334.591" x2="320.362" y2="266.533" gradientUnits="userSpaceOnUse">
<stop stop-color="#3F6587"/>
<stop offset="0.515625" stop-color="#3F6587" stop-opacity="0.5"/>
<stop offset="1" stop-color="#3F6587" stop-opacity="0"/>
</linearGradient>
<linearGradient id="paint59_linear_2571_10250" x1="250.753" y1="347.743" x2="311.371" y2="262.933" gradientUnits="userSpaceOnUse">
<stop stop-color="#3F6587"/>
<stop offset="0.515625" stop-color="#3F6587" stop-opacity="0.5"/>
<stop offset="1" stop-color="#3F6587" stop-opacity="0"/>
</linearGradient>
<linearGradient id="paint60_linear_2571_10250" x1="300.877" y1="385.653" x2="250.5" y2="317.158" gradientUnits="userSpaceOnUse">
<stop stop-color="#3F6587"/>
<stop offset="0.515625" stop-color="#3F6587" stop-opacity="0.5"/>
<stop offset="1" stop-color="#3F6587" stop-opacity="0"/>
</linearGradient>
<linearGradient id="paint61_linear_2571_10250" x1="304.637" y1="415.052" x2="307.066" y2="286.67" gradientUnits="userSpaceOnUse">
<stop stop-color="#3F6587"/>
<stop offset="0.515625" stop-color="#3F6587" stop-opacity="0.5"/>
<stop offset="1" stop-color="#3F6587" stop-opacity="0"/>
</linearGradient>
<linearGradient id="paint62_linear_2571_10250" x1="279.574" y1="494.738" x2="387.131" y2="328.697" gradientUnits="userSpaceOnUse">
<stop stop-color="#3F6587"/>
<stop offset="0.515625" stop-color="#3F6587" stop-opacity="0.5"/>
<stop offset="1" stop-color="#3F6587" stop-opacity="0"/>
</linearGradient>
<linearGradient id="paint63_linear_2571_10250" x1="294.612" y1="409.636" x2="214.042" y2="321.133" gradientUnits="userSpaceOnUse">
<stop stop-color="#3F6587"/>
<stop offset="0.515625" stop-color="#3F6587" stop-opacity="0.5"/>
<stop offset="1" stop-color="#3F6587" stop-opacity="0"/>
</linearGradient>
<linearGradient id="paint64_linear_2571_10250" x1="470.489" y1="312.866" x2="384.945" y2="218.399" gradientUnits="userSpaceOnUse">
<stop stop-color="#3F6587"/>
<stop offset="0.515625" stop-color="#3F6587" stop-opacity="0.5"/>
<stop offset="1" stop-color="#3F6587" stop-opacity="0"/>
</linearGradient>
<linearGradient id="paint65_linear_2571_10250" x1="535.869" y1="333.477" x2="407.153" y2="232.386" gradientUnits="userSpaceOnUse">
<stop stop-color="#3F6587"/>
<stop offset="0.515625" stop-color="#3F6587" stop-opacity="0.5"/>
<stop offset="1" stop-color="#3F6587" stop-opacity="0"/>
</linearGradient>
<linearGradient id="paint66_linear_2571_10250" x1="368.246" y1="263.917" x2="423.255" y2="188.369" gradientUnits="userSpaceOnUse">
<stop stop-color="#3F6587"/>
<stop offset="0.515625" stop-color="#3F6587" stop-opacity="0.5"/>
<stop offset="1" stop-color="#3F6587" stop-opacity="0"/>
</linearGradient>
<linearGradient id="paint67_linear_2571_10250" x1="345.989" y1="278.516" x2="413.273" y2="184.371" gradientUnits="userSpaceOnUse">
<stop stop-color="#3F6587"/>
<stop offset="0.515625" stop-color="#3F6587" stop-opacity="0.5"/>
<stop offset="1" stop-color="#3F6587" stop-opacity="0"/>
</linearGradient>
<linearGradient id="paint68_linear_2571_10250" x1="401.631" y1="320.595" x2="345.714" y2="244.562" gradientUnits="userSpaceOnUse">
<stop stop-color="#3F6587"/>
<stop offset="0.515625" stop-color="#3F6587" stop-opacity="0.5"/>
<stop offset="1" stop-color="#3F6587" stop-opacity="0"/>
</linearGradient>
<linearGradient id="paint69_linear_2571_10250" x1="405.805" y1="353.228" x2="408.501" y2="210.725" gradientUnits="userSpaceOnUse">
<stop stop-color="#3F6587"/>
<stop offset="0.515625" stop-color="#3F6587" stop-opacity="0.5"/>
<stop offset="1" stop-color="#3F6587" stop-opacity="0"/>
</linearGradient>
<linearGradient id="paint70_linear_2571_10250" x1="377.983" y1="441.681" x2="497.367" y2="257.366" gradientUnits="userSpaceOnUse">
<stop stop-color="#3F6587"/>
<stop offset="0.515625" stop-color="#3F6587" stop-opacity="0.5"/>
<stop offset="1" stop-color="#3F6587" stop-opacity="0"/>
</linearGradient>
<linearGradient id="paint71_linear_2571_10250" x1="394.676" y1="347.217" x2="305.244" y2="248.972" gradientUnits="userSpaceOnUse">
<stop stop-color="#3F6587"/>
<stop offset="0.515625" stop-color="#3F6587" stop-opacity="0.5"/>
<stop offset="1" stop-color="#3F6587" stop-opacity="0"/>
</linearGradient>
</defs>
</svg>
