<svg width="192" height="167" viewBox="0 0 192 167" fill="none" xmlns="http://www.w3.org/2000/svg">
<g opacity="0.85" filter="url(#filter0_d_1617_6929)">
<path d="M96.0525 -5.40527L109.671 -4.74276V2.87617V10.4951L96.0525 -5.40527Z" fill="white"/>
<path d="M96.0525 -5.40527L109.671 -4.74276V2.87617V10.4951L96.0525 -5.40527Z" fill="url(#paint0_linear_1617_6929)"/>
<path d="M123.289 10.4951L109.671 10.4951L109.671 -4.74273L123.289 10.4951Z" fill="white"/>
<path d="M123.289 10.4951L109.671 10.4951L109.671 -4.74273L123.289 10.4951Z" fill="url(#paint1_linear_1617_6929)"/>
<path d="M96.0524 -5.40527L82.4341 -4.74276V10.4951L96.0524 -5.40527Z" fill="white"/>
<path d="M96.0524 -5.40527L82.4341 -4.74276V10.4951L96.0524 -5.40527Z" fill="url(#paint2_linear_1617_6929)"/>
<path d="M68.8157 10.4951L82.4341 10.4951L82.4341 -4.74274L68.8157 10.4951Z" fill="white"/>
<path d="M68.8157 10.4951L82.4341 10.4951L82.4341 -4.74274L68.8157 10.4951Z" fill="url(#paint3_linear_1617_6929)"/>
<path d="M82.4342 10.4951L96.0525 -5.40527L109.671 10.4951L82.4342 10.4951Z" fill="white"/>
<path d="M82.4342 10.4951L96.0525 -5.40527L109.671 10.4951L82.4342 10.4951Z" fill="url(#paint4_linear_1617_6929)"/>
<path d="M82.4342 10.4951L96.0525 43.6209L109.671 10.4951L82.4342 10.4951Z" fill="white"/>
<path d="M82.4342 10.4951L96.0525 43.6209L109.671 10.4951L82.4342 10.4951Z" fill="url(#paint5_linear_1617_6929)"/>
<path d="M109.671 10.4951H123.289L96.0525 43.6209L109.671 10.4951Z" fill="white"/>
<path d="M109.671 10.4951H123.289L96.0525 43.6209L109.671 10.4951Z" fill="url(#paint6_linear_1617_6929)"/>
<path d="M82.4341 10.4951H68.8158L96.0525 43.6209L82.4341 10.4951Z" fill="white"/>
<path d="M82.4341 10.4951H68.8158L96.0525 43.6209L82.4341 10.4951Z" fill="url(#paint7_linear_1617_6929)"/>
</g>
<g opacity="0.95" filter="url(#filter1_d_1617_6929)">
<path d="M179.737 -13.3721L151.547 -12.0139V3.60488V19.2237L179.737 -13.3721Z" fill="white"/>
<path d="M179.737 -13.3721L151.547 -12.0139V3.60488V19.2237L179.737 -13.3721Z" fill="url(#paint8_linear_1617_6929)"/>
<path d="M123.357 19.2236L151.547 19.2236L151.547 -12.014L123.357 19.2236Z" fill="white"/>
<path d="M123.357 19.2236L151.547 19.2236L151.547 -12.014L123.357 19.2236Z" fill="url(#paint9_linear_1617_6929)"/>
<path d="M179.737 -13.3721L207.927 -12.0139V19.2237L179.737 -13.3721Z" fill="white"/>
<path d="M179.737 -13.3721L207.927 -12.0139V19.2237L179.737 -13.3721Z" fill="url(#paint10_linear_1617_6929)"/>
<path d="M207.927 19.2237L179.737 -13.3721L151.547 19.2237L207.927 19.2237Z" fill="white"/>
<path d="M207.927 19.2237L179.737 -13.3721L151.547 19.2237L207.927 19.2237Z" fill="url(#paint11_linear_1617_6929)"/>
<path d="M207.927 19.2236L179.737 87.1314L151.547 19.2236L207.927 19.2236Z" fill="white"/>
<path d="M207.927 19.2236L179.737 87.1314L151.547 19.2236L207.927 19.2236Z" fill="url(#paint12_linear_1617_6929)"/>
<path d="M151.548 19.2236H123.358L179.738 87.1314L151.548 19.2236Z" fill="white"/>
<path d="M151.548 19.2236H123.358L179.738 87.1314L151.548 19.2236Z" fill="url(#paint13_linear_1617_6929)"/>
<path d="M207.928 19.2236H236.118L179.738 87.1314L207.928 19.2236Z" fill="white"/>
<path d="M207.928 19.2236H236.118L179.738 87.1314L207.928 19.2236Z" fill="url(#paint14_linear_1617_6929)"/>
</g>
<g opacity="0.9" filter="url(#filter2_d_1617_6929)">
<path d="M46.005 21.5591L61.2576 22.2952V30.7607V39.2262L46.005 21.5591Z" fill="white"/>
<path d="M46.005 21.5591L61.2576 22.2952V30.7607V39.2262L46.005 21.5591Z" fill="url(#paint15_linear_1617_6929)"/>
<path d="M76.5101 39.2261L61.2576 39.2261L61.2576 22.2951L76.5101 39.2261Z" fill="white"/>
<path d="M76.5101 39.2261L61.2576 39.2261L61.2576 22.2951L76.5101 39.2261Z" fill="url(#paint16_linear_1617_6929)"/>
<path d="M46.005 21.5591L30.7524 22.2952V39.2262L46.005 21.5591Z" fill="white"/>
<path d="M46.005 21.5591L30.7524 22.2952V39.2262L46.005 21.5591Z" fill="url(#paint17_linear_1617_6929)"/>
<path d="M15.4999 39.2261L30.7524 39.2261L30.7524 22.2951L15.4999 39.2261Z" fill="white"/>
<path d="M15.4999 39.2261L30.7524 39.2261L30.7524 22.2951L15.4999 39.2261Z" fill="url(#paint18_linear_1617_6929)"/>
<path d="M30.7524 39.2262L46.005 21.5591L61.2576 39.2262L30.7524 39.2262Z" fill="white"/>
<path d="M30.7524 39.2262L46.005 21.5591L61.2576 39.2262L30.7524 39.2262Z" fill="url(#paint19_linear_1617_6929)"/>
<path d="M30.7524 39.2261L46.005 76.0325L61.2576 39.2261L30.7524 39.2261Z" fill="white"/>
<path d="M30.7524 39.2261L46.005 76.0325L61.2576 39.2261L30.7524 39.2261Z" fill="url(#paint20_linear_1617_6929)"/>
<path d="M61.2577 39.2261H76.5103L46.0051 76.0325L61.2577 39.2261Z" fill="white"/>
<path d="M61.2577 39.2261H76.5103L46.0051 76.0325L61.2577 39.2261Z" fill="url(#paint21_linear_1617_6929)"/>
<path d="M30.7526 39.2261H15.5L46.0051 76.0325L30.7526 39.2261Z" fill="white"/>
<path d="M30.7526 39.2261H15.5L46.0051 76.0325L30.7526 39.2261Z" fill="url(#paint22_linear_1617_6929)"/>
</g>
<g opacity="0.9" filter="url(#filter3_d_1617_6929)">
<path d="M107.731 55.8774L138.832 57.3764V74.6142V91.852L107.731 55.8774Z" fill="white"/>
<path d="M107.731 55.8774L138.832 57.3764V74.6142V91.852L107.731 55.8774Z" fill="url(#paint23_linear_1617_6929)"/>
<path d="M169.932 91.852L138.832 91.8521L138.832 57.3764L169.932 91.852Z" fill="white"/>
<path d="M169.932 91.852L138.832 91.8521L138.832 57.3764L169.932 91.852Z" fill="url(#paint24_linear_1617_6929)"/>
<path d="M107.731 55.8774L76.6296 57.3764V91.852L107.731 55.8774Z" fill="white"/>
<path d="M107.731 55.8774L76.6296 57.3764V91.852L107.731 55.8774Z" fill="url(#paint25_linear_1617_6929)"/>
<path d="M45.5287 91.8521L76.6296 91.8521L76.6296 57.3764L45.5287 91.8521Z" fill="white"/>
<path d="M45.5287 91.8521L76.6296 91.8521L76.6296 57.3764L45.5287 91.8521Z" fill="url(#paint26_linear_1617_6929)"/>
<path d="M76.6296 91.852L107.731 55.8774L138.832 91.852L76.6296 91.852Z" fill="white"/>
<path d="M76.6296 91.852L107.731 55.8774L138.832 91.852L76.6296 91.852Z" fill="url(#paint27_linear_1617_6929)"/>
<path d="M76.6296 91.8521L107.731 166.799L138.832 91.8521L76.6296 91.8521Z" fill="white"/>
<path d="M76.6296 91.8521L107.731 166.799L138.832 91.8521L76.6296 91.8521Z" fill="url(#paint28_linear_1617_6929)"/>
<path d="M138.831 91.8521H169.932L107.73 166.799L138.831 91.8521Z" fill="white"/>
<path d="M138.831 91.8521H169.932L107.73 166.799L138.831 91.8521Z" fill="url(#paint29_linear_1617_6929)"/>
<path d="M76.6295 91.8521H45.5286L107.73 166.799L76.6295 91.8521Z" fill="white"/>
<path d="M76.6295 91.8521H45.5286L107.73 166.799L76.6295 91.8521Z" fill="url(#paint30_linear_1617_6929)"/>
</g>
<g opacity="0.9" filter="url(#filter4_d_1617_6929)">
<path d="M119.681 34.4285L124.583 34.6788V37.557V40.4353L119.681 34.4285Z" fill="white"/>
<path d="M119.681 34.4285L124.583 34.6788V37.557V40.4353L119.681 34.4285Z" fill="url(#paint31_linear_1617_6929)"/>
<path d="M129.486 40.4353L124.583 40.4353L124.583 34.6788L129.486 40.4353Z" fill="white"/>
<path d="M129.486 40.4353L124.583 40.4353L124.583 34.6788L129.486 40.4353Z" fill="url(#paint32_linear_1617_6929)"/>
<path d="M119.681 34.4285L114.778 34.6788V40.4353L119.681 34.4285Z" fill="white"/>
<path d="M119.681 34.4285L114.778 34.6788V40.4353L119.681 34.4285Z" fill="url(#paint33_linear_1617_6929)"/>
<path d="M109.875 40.4353L114.778 40.4353L114.778 34.6788L109.875 40.4353Z" fill="white"/>
<path d="M109.875 40.4353L114.778 40.4353L114.778 34.6788L109.875 40.4353Z" fill="url(#paint34_linear_1617_6929)"/>
<path d="M114.778 40.4353L119.681 34.4285L124.583 40.4353L114.778 40.4353Z" fill="white"/>
<path d="M114.778 40.4353L119.681 34.4285L124.583 40.4353L114.778 40.4353Z" fill="url(#paint35_linear_1617_6929)"/>
<path d="M114.778 40.4353L119.681 52.9495L124.583 40.4353L114.778 40.4353Z" fill="white"/>
<path d="M114.778 40.4353L119.681 52.9495L124.583 40.4353L114.778 40.4353Z" fill="url(#paint36_linear_1617_6929)"/>
<path d="M124.583 40.4353H129.486L119.681 52.9495L124.583 40.4353Z" fill="white"/>
<path d="M124.583 40.4353H129.486L119.681 52.9495L124.583 40.4353Z" fill="url(#paint37_linear_1617_6929)"/>
<path d="M114.778 40.4353H109.875L119.681 52.9495L114.778 40.4353Z" fill="white"/>
<path d="M114.778 40.4353H109.875L119.681 52.9495L114.778 40.4353Z" fill="url(#paint38_linear_1617_6929)"/>
</g>
<g filter="url(#filter5_d_1617_6929)">
<path d="M169.626 128.191L186.325 129.019V138.543V148.066L169.626 128.191Z" fill="white"/>
<path d="M169.626 128.191L186.325 129.019V138.543V148.066L169.626 128.191Z" fill="url(#paint39_linear_1617_6929)"/>
<path d="M203.025 148.066L186.325 148.066L186.325 129.019L203.025 148.066Z" fill="white"/>
<path d="M203.025 148.066L186.325 148.066L186.325 129.019L203.025 148.066Z" fill="url(#paint40_linear_1617_6929)"/>
<path d="M169.626 128.191L152.926 129.019V148.066L169.626 128.191Z" fill="white"/>
<path d="M169.626 128.191L152.926 129.019V148.066L169.626 128.191Z" fill="url(#paint41_linear_1617_6929)"/>
<path d="M136.227 148.066L152.926 148.066L152.926 129.019L136.227 148.066Z" fill="white"/>
<path d="M136.227 148.066L152.926 148.066L152.926 129.019L136.227 148.066Z" fill="url(#paint42_linear_1617_6929)"/>
<path d="M152.926 148.066L169.626 128.191L186.325 148.066L152.926 148.066Z" fill="white"/>
<path d="M152.926 148.066L169.626 128.191L186.325 148.066L152.926 148.066Z" fill="url(#paint43_linear_1617_6929)"/>
<path d="M152.926 148.066L169.626 189.474L186.325 148.066L152.926 148.066Z" fill="white"/>
<path d="M152.926 148.066L169.626 189.474L186.325 148.066L152.926 148.066Z" fill="url(#paint44_linear_1617_6929)"/>
<path d="M186.325 148.066H203.025L169.626 189.474L186.325 148.066Z" fill="white"/>
<path d="M186.325 148.066H203.025L169.626 189.474L186.325 148.066Z" fill="url(#paint45_linear_1617_6929)"/>
<path d="M152.926 148.066H136.227L169.626 189.474L152.926 148.066Z" fill="white"/>
<path d="M152.926 148.066H136.227L169.626 189.474L152.926 148.066Z" fill="url(#paint46_linear_1617_6929)"/>
</g>
<g filter="url(#filter6_d_1617_6929)">
<path d="M186.479 109.193L205.017 109.193L205.017 88.0508L186.479 109.193Z" fill="white"/>
<path d="M186.479 109.193L205.017 109.193L205.017 88.0508L186.479 109.193Z" fill="url(#paint47_linear_1617_6929)"/>
<path d="M205.017 109.193H186.479L223.555 155.155L205.017 109.193Z" fill="white"/>
<path d="M205.017 109.193H186.479L223.555 155.155L205.017 109.193Z" fill="url(#paint48_linear_1617_6929)"/>
</g>
<defs>
<filter id="filter0_d_1617_6929" x="53.8157" y="-20.4053" width="114.474" height="109.026" filterUnits="userSpaceOnUse" color-interpolation-filters="sRGB">
<feFlood flood-opacity="0" result="BackgroundImageFix"/>
<feColorMatrix in="SourceAlpha" type="matrix" values="0 0 0 0 0 0 0 0 0 0 0 0 0 0 0 0 0 0 127 0" result="hardAlpha"/>
<feOffset dx="15" dy="15"/>
<feGaussianBlur stdDeviation="15"/>
<feComposite in2="hardAlpha" operator="out"/>
<feColorMatrix type="matrix" values="0 0 0 0 0 0 0 0 0 0 0 0 0 0 0 0 0 0 0.1 0"/>
<feBlend mode="normal" in2="BackgroundImageFix" result="effect1_dropShadow_1617_6929"/>
<feBlend mode="normal" in="SourceGraphic" in2="effect1_dropShadow_1617_6929" result="shape"/>
</filter>
<filter id="filter1_d_1617_6929" x="108.357" y="-28.3721" width="172.76" height="160.504" filterUnits="userSpaceOnUse" color-interpolation-filters="sRGB">
<feFlood flood-opacity="0" result="BackgroundImageFix"/>
<feColorMatrix in="SourceAlpha" type="matrix" values="0 0 0 0 0 0 0 0 0 0 0 0 0 0 0 0 0 0 127 0" result="hardAlpha"/>
<feOffset dx="15" dy="15"/>
<feGaussianBlur stdDeviation="15"/>
<feComposite in2="hardAlpha" operator="out"/>
<feColorMatrix type="matrix" values="0 0 0 0 0 0 0 0 0 0 0 0 0 0 0 0 0 0 0.1 0"/>
<feBlend mode="normal" in2="BackgroundImageFix" result="effect1_dropShadow_1617_6929"/>
<feBlend mode="normal" in="SourceGraphic" in2="effect1_dropShadow_1617_6929" result="shape"/>
</filter>
<filter id="filter2_d_1617_6929" x="0.5" y="6.55908" width="121.01" height="114.473" filterUnits="userSpaceOnUse" color-interpolation-filters="sRGB">
<feFlood flood-opacity="0" result="BackgroundImageFix"/>
<feColorMatrix in="SourceAlpha" type="matrix" values="0 0 0 0 0 0 0 0 0 0 0 0 0 0 0 0 0 0 127 0" result="hardAlpha"/>
<feOffset dx="15" dy="15"/>
<feGaussianBlur stdDeviation="15"/>
<feComposite in2="hardAlpha" operator="out"/>
<feColorMatrix type="matrix" values="0 0 0 0 0 0 0 0 0 0 0 0 0 0 0 0 0 0 0.1 0"/>
<feBlend mode="normal" in2="BackgroundImageFix" result="effect1_dropShadow_1617_6929"/>
<feBlend mode="normal" in="SourceGraphic" in2="effect1_dropShadow_1617_6929" result="shape"/>
</filter>
<filter id="filter3_d_1617_6929" x="30.5286" y="40.8774" width="184.404" height="170.922" filterUnits="userSpaceOnUse" color-interpolation-filters="sRGB">
<feFlood flood-opacity="0" result="BackgroundImageFix"/>
<feColorMatrix in="SourceAlpha" type="matrix" values="0 0 0 0 0 0 0 0 0 0 0 0 0 0 0 0 0 0 127 0" result="hardAlpha"/>
<feOffset dx="15" dy="15"/>
<feGaussianBlur stdDeviation="15"/>
<feComposite in2="hardAlpha" operator="out"/>
<feColorMatrix type="matrix" values="0 0 0 0 0 0 0 0 0 0 0 0 0 0 0 0 0 0 0.1 0"/>
<feBlend mode="normal" in2="BackgroundImageFix" result="effect1_dropShadow_1617_6929"/>
<feBlend mode="normal" in="SourceGraphic" in2="effect1_dropShadow_1617_6929" result="shape"/>
</filter>
<filter id="filter4_d_1617_6929" x="94.8755" y="19.4285" width="79.6104" height="78.521" filterUnits="userSpaceOnUse" color-interpolation-filters="sRGB">
<feFlood flood-opacity="0" result="BackgroundImageFix"/>
<feColorMatrix in="SourceAlpha" type="matrix" values="0 0 0 0 0 0 0 0 0 0 0 0 0 0 0 0 0 0 127 0" result="hardAlpha"/>
<feOffset dx="15" dy="15"/>
<feGaussianBlur stdDeviation="15"/>
<feComposite in2="hardAlpha" operator="out"/>
<feColorMatrix type="matrix" values="0 0 0 0 0 0 0 0 0 0 0 0 0 0 0 0 0 0 0.1 0"/>
<feBlend mode="normal" in2="BackgroundImageFix" result="effect1_dropShadow_1617_6929"/>
<feBlend mode="normal" in="SourceGraphic" in2="effect1_dropShadow_1617_6929" result="shape"/>
</filter>
<filter id="filter5_d_1617_6929" x="121.227" y="113.191" width="126.798" height="121.283" filterUnits="userSpaceOnUse" color-interpolation-filters="sRGB">
<feFlood flood-opacity="0" result="BackgroundImageFix"/>
<feColorMatrix in="SourceAlpha" type="matrix" values="0 0 0 0 0 0 0 0 0 0 0 0 0 0 0 0 0 0 127 0" result="hardAlpha"/>
<feOffset dx="15" dy="15"/>
<feGaussianBlur stdDeviation="15"/>
<feComposite in2="hardAlpha" operator="out"/>
<feColorMatrix type="matrix" values="0 0 0 0 0 0 0 0 0 0 0 0 0 0 0 0 0 0 0.1 0"/>
<feBlend mode="normal" in2="BackgroundImageFix" result="effect1_dropShadow_1617_6929"/>
<feBlend mode="normal" in="SourceGraphic" in2="effect1_dropShadow_1617_6929" result="shape"/>
</filter>
<filter id="filter6_d_1617_6929" x="171.479" y="72.1316" width="134.152" height="128.024" filterUnits="userSpaceOnUse" color-interpolation-filters="sRGB">
<feFlood flood-opacity="0" result="BackgroundImageFix"/>
<feColorMatrix in="SourceAlpha" type="matrix" values="0 0 0 0 0 0 0 0 0 0 0 0 0 0 0 0 0 0 127 0" result="hardAlpha"/>
<feOffset dx="15" dy="15"/>
<feGaussianBlur stdDeviation="15"/>
<feComposite in2="hardAlpha" operator="out"/>
<feColorMatrix type="matrix" values="0 0 0 0 0 0 0 0 0 0 0 0 0 0 0 0 0 0 0.1 0"/>
<feBlend mode="normal" in2="BackgroundImageFix" result="effect1_dropShadow_1617_6929"/>
<feBlend mode="normal" in="SourceGraphic" in2="effect1_dropShadow_1617_6929" result="shape"/>
</filter>
<linearGradient id="paint0_linear_1617_6929" x1="121.383" y1="36.9957" x2="88.4379" y2="0.0619439" gradientUnits="userSpaceOnUse">
<stop stop-color="#3F6587"/>
<stop offset="0.515625" stop-color="#3F6587" stop-opacity="0.5"/>
<stop offset="1" stop-color="#3F6587" stop-opacity="0"/>
</linearGradient>
<linearGradient id="paint1_linear_1617_6929" x1="146.985" y1="44.9459" x2="97.1619" y2="5.2219" gradientUnits="userSpaceOnUse">
<stop stop-color="#3F6587"/>
<stop offset="0.515625" stop-color="#3F6587" stop-opacity="0.5"/>
<stop offset="1" stop-color="#3F6587" stop-opacity="0"/>
</linearGradient>
<linearGradient id="paint2_linear_1617_6929" x1="81.3446" y1="18.114" x2="102.464" y2="-11.3308" gradientUnits="userSpaceOnUse">
<stop stop-color="#3F6587"/>
<stop offset="0.515625" stop-color="#3F6587" stop-opacity="0.5"/>
<stop offset="1" stop-color="#3F6587" stop-opacity="0"/>
</linearGradient>
<linearGradient id="paint3_linear_1617_6929" x1="72.6289" y1="23.7454" x2="98.4541" y2="-12.9381" gradientUnits="userSpaceOnUse">
<stop stop-color="#3F6587"/>
<stop offset="0.515625" stop-color="#3F6587" stop-opacity="0.5"/>
<stop offset="1" stop-color="#3F6587" stop-opacity="0"/>
</linearGradient>
<linearGradient id="paint4_linear_1617_6929" x1="94.4183" y1="39.977" x2="72.9475" y2="10.3391" gradientUnits="userSpaceOnUse">
<stop stop-color="#3F6587"/>
<stop offset="0.515625" stop-color="#3F6587" stop-opacity="0.5"/>
<stop offset="1" stop-color="#3F6587" stop-opacity="0"/>
</linearGradient>
<linearGradient id="paint5_linear_1617_6929" x1="96.0525" y1="52.5648" x2="97.0771" y2="-2.40483" gradientUnits="userSpaceOnUse">
<stop stop-color="#3F6587"/>
<stop offset="0.515625" stop-color="#3F6587" stop-opacity="0.5"/>
<stop offset="1" stop-color="#3F6587" stop-opacity="0"/>
</linearGradient>
<linearGradient id="paint6_linear_1617_6929" x1="85.1578" y1="86.6844" x2="130.922" y2="14.9576" gradientUnits="userSpaceOnUse">
<stop stop-color="#3F6587"/>
<stop offset="0.515625" stop-color="#3F6587" stop-opacity="0.5"/>
<stop offset="1" stop-color="#3F6587" stop-opacity="0"/>
</linearGradient>
<linearGradient id="paint7_linear_1617_6929" x1="91.6946" y1="50.246" x2="57.2499" y2="11.8323" gradientUnits="userSpaceOnUse">
<stop stop-color="#3F6587"/>
<stop offset="0.515625" stop-color="#3F6587" stop-opacity="0.5"/>
<stop offset="1" stop-color="#3F6587" stop-opacity="0"/>
</linearGradient>
<linearGradient id="paint8_linear_1617_6929" x1="127.304" y1="73.5499" x2="194.763" y2="-2.81498" gradientUnits="userSpaceOnUse">
<stop stop-color="#3F6587"/>
<stop offset="0.515625" stop-color="#3F6587" stop-opacity="0.5"/>
<stop offset="1" stop-color="#3F6587" stop-opacity="0"/>
</linearGradient>
<linearGradient id="paint9_linear_1617_6929" x1="74.3067" y1="89.8477" x2="176.661" y2="7.44474" gradientUnits="userSpaceOnUse">
<stop stop-color="#3F6587"/>
<stop offset="0.515625" stop-color="#3F6587" stop-opacity="0.5"/>
<stop offset="1" stop-color="#3F6587" stop-opacity="0"/>
</linearGradient>
<linearGradient id="paint10_linear_1617_6929" x1="210.183" y1="34.8425" x2="167.025" y2="-25.9162" gradientUnits="userSpaceOnUse">
<stop stop-color="#3F6587"/>
<stop offset="0.515625" stop-color="#3F6587" stop-opacity="0.5"/>
<stop offset="1" stop-color="#3F6587" stop-opacity="0"/>
</linearGradient>
<linearGradient id="paint11_linear_1617_6929" x1="183.12" y1="79.6616" x2="227" y2="18.499" gradientUnits="userSpaceOnUse">
<stop stop-color="#3F6587"/>
<stop offset="0.515625" stop-color="#3F6587" stop-opacity="0.5"/>
<stop offset="1" stop-color="#3F6587" stop-opacity="0"/>
</linearGradient>
<linearGradient id="paint12_linear_1617_6929" x1="179.737" y1="105.467" x2="177.657" y2="-7.22202" gradientUnits="userSpaceOnUse">
<stop stop-color="#3F6587"/>
<stop offset="0.515625" stop-color="#3F6587" stop-opacity="0.5"/>
<stop offset="1" stop-color="#3F6587" stop-opacity="0"/>
</linearGradient>
<linearGradient id="paint13_linear_1617_6929" x1="202.29" y1="175.412" x2="108.86" y2="27.5491" gradientUnits="userSpaceOnUse">
<stop stop-color="#3F6587"/>
<stop offset="0.515625" stop-color="#3F6587" stop-opacity="0.5"/>
<stop offset="1" stop-color="#3F6587" stop-opacity="0"/>
</linearGradient>
<linearGradient id="paint14_linear_1617_6929" x1="188.758" y1="100.713" x2="259.292" y2="21.2842" gradientUnits="userSpaceOnUse">
<stop stop-color="#3F6587"/>
<stop offset="0.515625" stop-color="#3F6587" stop-opacity="0.5"/>
<stop offset="1" stop-color="#3F6587" stop-opacity="0"/>
</linearGradient>
<linearGradient id="paint15_linear_1617_6929" x1="74.3748" y1="68.6713" x2="37.8038" y2="27.3443" gradientUnits="userSpaceOnUse">
<stop stop-color="#3F6587"/>
<stop offset="0.515625" stop-color="#3F6587" stop-opacity="0.5"/>
<stop offset="1" stop-color="#3F6587" stop-opacity="0"/>
</linearGradient>
<linearGradient id="paint16_linear_1617_6929" x1="103.05" y1="77.5047" x2="47.5937" y2="32.9362" gradientUnits="userSpaceOnUse">
<stop stop-color="#3F6587"/>
<stop offset="0.515625" stop-color="#3F6587" stop-opacity="0.5"/>
<stop offset="1" stop-color="#3F6587" stop-opacity="0"/>
</linearGradient>
<linearGradient id="paint17_linear_1617_6929" x1="29.5322" y1="47.6916" x2="52.9372" y2="14.7986" gradientUnits="userSpaceOnUse">
<stop stop-color="#3F6587"/>
<stop offset="0.515625" stop-color="#3F6587" stop-opacity="0.5"/>
<stop offset="1" stop-color="#3F6587" stop-opacity="0"/>
</linearGradient>
<linearGradient id="paint18_linear_1617_6929" x1="19.7706" y1="53.9486" x2="48.3875" y2="12.9745" gradientUnits="userSpaceOnUse">
<stop stop-color="#3F6587"/>
<stop offset="0.515625" stop-color="#3F6587" stop-opacity="0.5"/>
<stop offset="1" stop-color="#3F6587" stop-opacity="0"/>
</linearGradient>
<linearGradient id="paint19_linear_1617_6929" x1="44.1747" y1="71.9838" x2="20.3781" y2="38.8726" gradientUnits="userSpaceOnUse">
<stop stop-color="#3F6587"/>
<stop offset="0.515625" stop-color="#3F6587" stop-opacity="0.5"/>
<stop offset="1" stop-color="#3F6587" stop-opacity="0"/>
</linearGradient>
<linearGradient id="paint20_linear_1617_6929" x1="46.005" y1="85.9702" x2="47.1343" y2="24.8925" gradientUnits="userSpaceOnUse">
<stop stop-color="#3F6587"/>
<stop offset="0.515625" stop-color="#3F6587" stop-opacity="0.5"/>
<stop offset="1" stop-color="#3F6587" stop-opacity="0"/>
</linearGradient>
<linearGradient id="paint21_linear_1617_6929" x1="33.8031" y1="123.881" x2="84.4801" y2="43.8182" gradientUnits="userSpaceOnUse">
<stop stop-color="#3F6587"/>
<stop offset="0.515625" stop-color="#3F6587" stop-opacity="0.5"/>
<stop offset="1" stop-color="#3F6587" stop-opacity="0"/>
</linearGradient>
<linearGradient id="paint22_linear_1617_6929" x1="41.1243" y1="83.3938" x2="2.88667" y2="40.409" gradientUnits="userSpaceOnUse">
<stop stop-color="#3F6587"/>
<stop offset="0.515625" stop-color="#3F6587" stop-opacity="0.5"/>
<stop offset="1" stop-color="#3F6587" stop-opacity="0"/>
</linearGradient>
<linearGradient id="paint23_linear_1617_6929" x1="165.578" y1="151.81" x2="91.1232" y2="67.5555" gradientUnits="userSpaceOnUse">
<stop stop-color="#3F6587"/>
<stop offset="0.515625" stop-color="#3F6587" stop-opacity="0.5"/>
<stop offset="1" stop-color="#3F6587" stop-opacity="0"/>
</linearGradient>
<linearGradient id="paint24_linear_1617_6929" x1="224.048" y1="169.797" x2="111.093" y2="78.8919" gradientUnits="userSpaceOnUse">
<stop stop-color="#3F6587"/>
<stop offset="0.515625" stop-color="#3F6587" stop-opacity="0.5"/>
<stop offset="1" stop-color="#3F6587" stop-opacity="0"/>
</linearGradient>
<linearGradient id="paint25_linear_1617_6929" x1="74.1416" y1="109.09" x2="121.778" y2="42.0492" gradientUnits="userSpaceOnUse">
<stop stop-color="#3F6587"/>
<stop offset="0.515625" stop-color="#3F6587" stop-opacity="0.5"/>
<stop offset="1" stop-color="#3F6587" stop-opacity="0"/>
</linearGradient>
<linearGradient id="paint26_linear_1617_6929" x1="54.237" y1="121.831" x2="112.48" y2="38.3218" gradientUnits="userSpaceOnUse">
<stop stop-color="#3F6587"/>
<stop offset="0.515625" stop-color="#3F6587" stop-opacity="0.5"/>
<stop offset="1" stop-color="#3F6587" stop-opacity="0"/>
</linearGradient>
<linearGradient id="paint27_linear_1617_6929" x1="103.998" y1="158.555" x2="55.564" y2="91.0687" gradientUnits="userSpaceOnUse">
<stop stop-color="#3F6587"/>
<stop offset="0.515625" stop-color="#3F6587" stop-opacity="0.5"/>
<stop offset="1" stop-color="#3F6587" stop-opacity="0"/>
</linearGradient>
<linearGradient id="paint28_linear_1617_6929" x1="107.731" y1="187.035" x2="110.027" y2="62.6651" gradientUnits="userSpaceOnUse">
<stop stop-color="#3F6587"/>
<stop offset="0.515625" stop-color="#3F6587" stop-opacity="0.5"/>
<stop offset="1" stop-color="#3F6587" stop-opacity="0"/>
</linearGradient>
<linearGradient id="paint29_linear_1617_6929" x1="82.8497" y1="264.23" x2="185.98" y2="101.074" gradientUnits="userSpaceOnUse">
<stop stop-color="#3F6587"/>
<stop offset="0.515625" stop-color="#3F6587" stop-opacity="0.5"/>
<stop offset="1" stop-color="#3F6587" stop-opacity="0"/>
</linearGradient>
<linearGradient id="paint30_linear_1617_6929" x1="97.7782" y1="181.789" x2="19.9294" y2="94.154" gradientUnits="userSpaceOnUse">
<stop stop-color="#3F6587"/>
<stop offset="0.515625" stop-color="#3F6587" stop-opacity="0.5"/>
<stop offset="1" stop-color="#3F6587" stop-opacity="0"/>
</linearGradient>
<linearGradient id="paint31_linear_1617_6929" x1="128.799" y1="50.4466" x2="116.3" y2="37.0927" gradientUnits="userSpaceOnUse">
<stop stop-color="#3F6587"/>
<stop offset="0.515625" stop-color="#3F6587" stop-opacity="0.5"/>
<stop offset="1" stop-color="#3F6587" stop-opacity="0"/>
</linearGradient>
<linearGradient id="paint32_linear_1617_6929" x1="138.016" y1="53.45" x2="119.416" y2="39.3176" gradientUnits="userSpaceOnUse">
<stop stop-color="#3F6587"/>
<stop offset="0.515625" stop-color="#3F6587" stop-opacity="0.5"/>
<stop offset="1" stop-color="#3F6587" stop-opacity="0"/>
</linearGradient>
<linearGradient id="paint33_linear_1617_6929" x1="114.386" y1="43.3135" x2="122.48" y2="32.5596" gradientUnits="userSpaceOnUse">
<stop stop-color="#3F6587"/>
<stop offset="0.515625" stop-color="#3F6587" stop-opacity="0.5"/>
<stop offset="1" stop-color="#3F6587" stop-opacity="0"/>
</linearGradient>
<linearGradient id="paint34_linear_1617_6929" x1="111.248" y1="45.441" x2="121.154" y2="32.0324" gradientUnits="userSpaceOnUse">
<stop stop-color="#3F6587"/>
<stop offset="0.515625" stop-color="#3F6587" stop-opacity="0.5"/>
<stop offset="1" stop-color="#3F6587" stop-opacity="0"/>
</linearGradient>
<linearGradient id="paint35_linear_1617_6929" x1="119.092" y1="51.5729" x2="110.867" y2="40.7532" gradientUnits="userSpaceOnUse">
<stop stop-color="#3F6587"/>
<stop offset="0.515625" stop-color="#3F6587" stop-opacity="0.5"/>
<stop offset="1" stop-color="#3F6587" stop-opacity="0"/>
</linearGradient>
<linearGradient id="paint36_linear_1617_6929" x1="119.681" y1="56.3283" x2="120.087" y2="35.5627" gradientUnits="userSpaceOnUse">
<stop stop-color="#3F6587"/>
<stop offset="0.515625" stop-color="#3F6587" stop-opacity="0.5"/>
<stop offset="1" stop-color="#3F6587" stop-opacity="0"/>
</linearGradient>
<linearGradient id="paint37_linear_1617_6929" x1="115.759" y1="69.2179" x2="133.385" y2="42.8919" gradientUnits="userSpaceOnUse">
<stop stop-color="#3F6587"/>
<stop offset="0.515625" stop-color="#3F6587" stop-opacity="0.5"/>
<stop offset="1" stop-color="#3F6587" stop-opacity="0"/>
</linearGradient>
<linearGradient id="paint38_linear_1617_6929" x1="118.112" y1="55.4523" x2="105.046" y2="41.5668" gradientUnits="userSpaceOnUse">
<stop stop-color="#3F6587"/>
<stop offset="0.515625" stop-color="#3F6587" stop-opacity="0.5"/>
<stop offset="1" stop-color="#3F6587" stop-opacity="0"/>
</linearGradient>
<linearGradient id="paint39_linear_1617_6929" x1="200.687" y1="181.192" x2="159.424" y2="135.811" gradientUnits="userSpaceOnUse">
<stop stop-color="#3F6587"/>
<stop offset="0.515625" stop-color="#3F6587" stop-opacity="0.5"/>
<stop offset="1" stop-color="#3F6587" stop-opacity="0"/>
</linearGradient>
<linearGradient id="paint40_linear_1617_6929" x1="232.082" y1="191.13" x2="170.079" y2="142.634" gradientUnits="userSpaceOnUse">
<stop stop-color="#3F6587"/>
<stop offset="0.515625" stop-color="#3F6587" stop-opacity="0.5"/>
<stop offset="1" stop-color="#3F6587" stop-opacity="0"/>
</linearGradient>
<linearGradient id="paint41_linear_1617_6929" x1="151.59" y1="157.59" x2="178.147" y2="121.267" gradientUnits="userSpaceOnUse">
<stop stop-color="#3F6587"/>
<stop offset="0.515625" stop-color="#3F6587" stop-opacity="0.5"/>
<stop offset="1" stop-color="#3F6587" stop-opacity="0"/>
</linearGradient>
<linearGradient id="paint42_linear_1617_6929" x1="140.903" y1="164.629" x2="173.388" y2="119.362" gradientUnits="userSpaceOnUse">
<stop stop-color="#3F6587"/>
<stop offset="0.515625" stop-color="#3F6587" stop-opacity="0.5"/>
<stop offset="1" stop-color="#3F6587" stop-opacity="0"/>
</linearGradient>
<linearGradient id="paint43_linear_1617_6929" x1="167.622" y1="184.919" x2="140.627" y2="148.363" gradientUnits="userSpaceOnUse">
<stop stop-color="#3F6587"/>
<stop offset="0.515625" stop-color="#3F6587" stop-opacity="0.5"/>
<stop offset="1" stop-color="#3F6587" stop-opacity="0"/>
</linearGradient>
<linearGradient id="paint44_linear_1617_6929" x1="169.626" y1="200.654" x2="170.931" y2="131.942" gradientUnits="userSpaceOnUse">
<stop stop-color="#3F6587"/>
<stop offset="0.515625" stop-color="#3F6587" stop-opacity="0.5"/>
<stop offset="1" stop-color="#3F6587" stop-opacity="0"/>
</linearGradient>
<linearGradient id="paint45_linear_1617_6929" x1="156.266" y1="243.303" x2="213.926" y2="154.648" gradientUnits="userSpaceOnUse">
<stop stop-color="#3F6587"/>
<stop offset="0.515625" stop-color="#3F6587" stop-opacity="0.5"/>
<stop offset="1" stop-color="#3F6587" stop-opacity="0"/>
</linearGradient>
<linearGradient id="paint46_linear_1617_6929" x1="164.282" y1="197.755" x2="121.144" y2="150.561" gradientUnits="userSpaceOnUse">
<stop stop-color="#3F6587"/>
<stop offset="0.515625" stop-color="#3F6587" stop-opacity="0.5"/>
<stop offset="1" stop-color="#3F6587" stop-opacity="0"/>
</linearGradient>
<linearGradient id="paint47_linear_1617_6929" x1="191.669" y1="127.578" x2="227.728" y2="77.3282" gradientUnits="userSpaceOnUse">
<stop stop-color="#3F6587"/>
<stop offset="0.515625" stop-color="#3F6587" stop-opacity="0.5"/>
<stop offset="1" stop-color="#3F6587" stop-opacity="0"/>
</linearGradient>
<linearGradient id="paint48_linear_1617_6929" x1="217.623" y1="164.348" x2="169.74" y2="111.958" gradientUnits="userSpaceOnUse">
<stop stop-color="#3F6587"/>
<stop offset="0.515625" stop-color="#3F6587" stop-opacity="0.5"/>
<stop offset="1" stop-color="#3F6587" stop-opacity="0"/>
</linearGradient>
</defs>
</svg>
