<svg width="12" height="13" viewBox="0 0 12 13" fill="none" xmlns="http://www.w3.org/2000/svg">
<path d="M9.92857 0.285889H2.07143C1.20371 0.285889 0.5 1.0533 0.5 2.00017V10.5716C0.5 11.5182 1.20371 12.2859 2.07143 12.2859H9.92857C10.7963 12.2859 11.5 11.5182 11.5 10.5716V2.00017C11.5 1.0533 10.7953 0.285889 9.92857 0.285889ZM9.30491 5.60553L6.55491 8.60553C6.40268 8.77428 6.20134 8.85732 6 8.85732C5.79866 8.85732 5.59781 8.77361 5.4446 8.6062L2.6946 5.6062C2.38768 5.27138 2.38768 4.72897 2.6946 4.39415C3.00152 4.05933 3.49873 4.05933 3.80565 4.39415L6 6.78946L8.1946 4.39535C8.50152 4.06053 8.99873 4.06053 9.30565 4.39535C9.61257 4.73017 9.61183 5.27071 9.30491 5.60553Z" fill="#F37A20"/>
</svg>
