<svg width="133" height="110" viewBox="0 0 133 110" fill="none" xmlns="http://www.w3.org/2000/svg">
<path d="M111.752 11.3413C115.447 7.63307 121.455 7.63189 125.15 11.3394L129.478 15.6633C133.213 19.3981 133.174 25.4599 129.419 29.1512L121.554 36.8619L103.907 19.1944L111.752 11.3413ZM117.028 41.2907L88.3343 69.3855C86.9708 70.7299 85.3108 71.7382 83.4927 72.3511L69.363 77.0764C67.4857 77.6498 65.7862 77.1951 64.5017 75.9297C63.2369 74.6644 62.8022 72.7861 63.3555 71.066L68.0588 56.9692C68.6714 55.1107 69.7188 53.4104 71.1218 52.0264L99.4207 23.6687L117.028 41.2907ZM37.8233 71.4417C37.8233 74.9412 34.9974 77.7684 31.4995 77.7684C28.0017 77.7684 25.1758 74.9412 25.1758 71.4417C25.1758 67.9422 28.0017 65.1149 31.4995 65.1149C34.9974 65.1149 37.8233 67.9422 37.8233 71.4417ZM44.1471 71.4417C44.1471 67.9422 46.973 65.1149 50.4708 65.1149C53.9686 65.1149 56.7946 67.9422 56.7946 71.4417C56.7946 74.9412 53.9686 77.7684 50.4708 77.7684C46.973 77.7684 44.1471 74.9412 44.1471 71.4417Z" fill="#F3F6F9"/>
<path d="M6.21875 48.9741C6.21875 40.2407 13.2921 33.1671 22.0163 33.1671H59.9303C63.4255 33.1671 66.2494 35.9926 66.2494 39.4899C66.2494 42.9872 63.4255 45.8127 59.9303 45.8127H22.0163C20.2706 45.8127 18.8568 47.2353 18.8568 48.9741V93.2337C18.8568 94.9724 20.2706 96.3951 22.0163 96.3951H104.163C105.901 96.3951 107.323 94.9724 107.323 93.2337V67.9425C107.323 64.4452 110.147 61.6197 113.642 61.6197C117.137 61.6197 119.961 64.4452 119.961 67.9425V93.2337C119.961 101.967 112.892 109.041 104.163 109.041H22.0163C13.2921 109.041 6.21875 101.967 6.21875 93.2337V48.9741Z" fill="#F3F6F9"/>
<path d="M104.852 3.64716C109.154 -0.722073 116.179 -0.742252 120.52 3.60166L122.868 5.96175C127.19 10.2882 127.19 17.3013 122.868 21.6278L81.7249 62.8947C80.2055 64.418 78.2914 65.4665 76.18 65.9017L59.3083 69.4428C58.6176 69.5615 58.2624 69.4032 57.8678 69.0274C57.4929 68.6515 57.335 68.0976 57.4534 67.5832L60.9856 50.6294C61.4197 48.5522 62.4458 46.6332 63.9455 45.11L104.852 3.64716ZM118.29 5.83909C115.192 2.73715 110.16 2.751 107.082 5.87272L99.1886 13.8788L112.666 27.3846L120.638 19.3923C123.717 16.2983 123.717 11.2893 120.638 8.19918L118.29 5.83909ZM64.0837 51.2822L61.0251 65.8621L75.5288 62.7958C77.0482 62.4793 78.4098 61.7473 79.4951 60.6592L110.436 29.62L96.9785 16.1281L66.1951 47.3454C65.1295 48.4335 64.3994 49.6204 64.0837 51.2822ZM62.1498 24.8721C63.0181 24.8721 63.7285 25.5843 63.7285 26.4548C63.7285 27.3252 63.0181 28.0374 62.1498 28.0374H11.6335C7.27445 28.0374 3.74028 31.5785 3.74028 35.9505V89.7598C3.74028 94.1318 7.27445 97.6729 11.6335 97.6729H103.194C107.555 97.6729 111.088 94.1318 111.088 89.7598V51.7768C111.088 50.9063 111.798 50.1941 112.666 50.1941C113.534 50.1941 114.245 50.9063 114.245 51.7768V89.7598C114.245 95.8726 109.292 100.838 103.194 100.838H11.6335C5.53006 100.838 0.583008 95.8726 0.583008 89.7598V35.9505C0.583008 29.8376 5.53006 24.8721 11.6335 24.8721H62.1498ZM22.6839 62.8551C22.6839 61.1142 24.1047 59.6899 25.8412 59.6899C27.5777 59.6899 28.9985 61.1142 28.9985 62.8551C28.9985 64.596 27.5777 66.0204 25.8412 66.0204C24.1047 66.0204 22.6839 64.596 22.6839 62.8551ZM47.9421 62.8551C47.9421 64.596 46.5213 66.0204 44.7848 66.0204C43.0483 66.0204 41.6276 64.596 41.6276 62.8551C41.6276 61.1142 43.0483 59.6899 44.7848 59.6899C46.5213 59.6899 47.9421 61.1142 47.9421 62.8551Z" fill="white"/>
</svg>
