<svg width="17" height="17" viewBox="0 0 17 17" fill="none" xmlns="http://www.w3.org/2000/svg">
<path d="M11.375 9.66248C11.375 9.38748 11.6 9.16248 11.875 9.16248H12.875C13.15 9.16248 13.375 9.38748 13.375 9.66248V10.6625C13.375 10.9375 13.15 11.1625 12.875 11.1625H11.875C11.6 11.1625 11.375 10.9375 11.375 10.6625V9.66248ZM11.375 3.66248C11.375 3.38748 11.6 3.16248 11.875 3.16248H12.875C13.15 3.16248 13.375 3.38748 13.375 3.66248V4.66248C13.375 4.93748 13.15 5.16248 12.875 5.16248H11.875C11.6 5.16248 11.375 4.93748 11.375 4.66248V3.66248ZM11.875 8.16248C11.6 8.16248 11.375 7.93748 11.375 7.66248V6.66248C11.375 6.38748 11.6 6.16248 11.875 6.16248H12.875C13.15 6.16248 13.375 6.38748 13.375 6.66248V7.66248C13.375 7.93748 13.15 8.16248 12.875 8.16248H11.875ZM14.875 0.162476C15.9781 0.162476 16.875 1.05779 16.875 2.16248V14.1625C16.875 15.2656 15.9781 16.1625 14.875 16.1625H9.875C8.77187 16.1625 7.875 15.2656 7.875 14.1625V2.16248C7.875 1.05779 8.77187 0.162476 9.875 0.162476H14.875ZM14.875 1.66248H9.875C9.6 1.66248 9.375 1.88623 9.375 2.16248V14.1625C9.375 14.4375 9.6 14.6625 9.875 14.6625H14.875C15.15 14.6625 15.375 14.4375 15.375 14.1625V2.16248C15.375 1.88623 15.15 1.66248 14.875 1.66248ZM6.875 5.66248H3.125C2.71094 5.66248 2.375 5.99685 2.375 6.41248V13.9125C2.375 14.3281 2.71094 14.6625 3.125 14.6625H6.91563C7.0125 15.2344 7.26875 15.75 7.6375 16.1625H3.125C1.8825 16.1625 0.875 15.1562 0.875 13.9125V6.41248C0.875 5.16873 1.8825 4.16248 3.125 4.16248H6.875V5.66248ZM5.375 10.1625C5.65 10.1625 5.875 10.3875 5.875 10.6625V11.6625C5.875 11.9375 5.65 12.1625 5.375 12.1625H4.375C4.1 12.1625 3.875 11.9375 3.875 11.6625V10.6625C3.875 10.3875 4.1 10.1625 4.375 10.1625H5.375ZM5.375 7.16248C5.65 7.16248 5.875 7.38748 5.875 7.66248V8.66248C5.875 8.93748 5.65 9.16248 5.375 9.16248H4.375C4.1 9.16248 3.875 8.93748 3.875 8.66248V7.66248C3.875 7.38748 4.1 7.16248 4.375 7.16248H5.375Z" fill="#F37A20"/>
</svg>
