<svg width="26" height="25" viewBox="0 0 26 25" fill="none" xmlns="http://www.w3.org/2000/svg">
<path d="M13 24.5081L12.6101 23.3033H11.3413L12.3657 22.5583L11.9757 21.3477L13 22.0927L14.0244 21.3477L13.6344 22.5583L14.6588 23.3033H13.39L13 24.5081Z" fill="#3F6587"/>
<path d="M13.39 2.3509L13 3.55566L12.6101 2.3509H11.3413L12.3657 1.60593L11.9757 0.395346L13 1.14032L14.0244 0.395346L13.6344 1.60593L14.6588 2.3509H13.39Z" fill="#3F6587"/>
<path d="M2.52397 11.6165L3.54831 10.8715L3.15836 12.0821L4.18271 12.8271H2.91392L2.52397 14.0319L2.13402 12.8271H0.865234L1.88958 12.0821L1.49963 10.8715L2.52397 11.6165Z" fill="#3F6587"/>
<path d="M7.76225 23.1055L7.3723 21.9007H6.10352L7.12785 21.1499L6.73791 19.9452L7.76225 20.6901L8.78659 19.9452L8.39664 21.1499L9.42098 21.9007H8.15219L7.76225 23.1055Z" fill="#3F6587"/>
<path d="M3.9268 19.27L3.53685 18.0653H2.26807L3.29241 17.3203L2.90246 16.1097L3.9268 16.8547L4.95114 16.1097L4.56119 17.3203L5.58554 18.0653H4.32257L3.9268 19.27Z" fill="#3F6587"/>
<path d="M4.32257 7.58906L3.9268 8.79382L3.53685 7.58906H2.26807L3.29241 6.84409L2.90246 5.63351L3.9268 6.37848L4.95114 5.63351L4.56119 6.84409L5.58554 7.58906H4.32257Z" fill="#3F6587"/>
<path d="M8.15219 3.7536L7.76225 4.95837L7.3723 3.7536H6.10352L7.12785 3.00862L6.73791 1.79803L7.76225 2.54883L8.78659 1.79803L8.39664 3.00862L9.42098 3.7536H8.15219Z" fill="#3F6587"/>
<path d="M25.1348 12.8271H23.8661L23.4761 14.0319L23.0862 12.8271H21.8174L22.8417 12.0821L22.4518 10.8715L23.4761 11.6165L24.5004 10.8715L24.1105 12.0821L25.1348 12.8271Z" fill="#3F6587"/>
<path d="M18.2383 23.1055L17.8484 21.9007H16.5796L17.6039 21.1499L17.214 19.9452L18.2383 20.6901L19.2627 19.9452L18.8727 21.1499L19.8971 21.9007H18.6283L18.2383 23.1055Z" fill="#3F6587"/>
<path d="M21.4394 17.3203L21.0494 16.1097L22.0738 16.8547L23.0981 16.1097L22.7082 17.3203L23.7325 18.0653H22.4637L22.0738 19.27L21.678 18.0653H20.415L21.4394 17.3203Z" fill="#3F6587"/>
<path d="M22.4637 7.58906L22.0738 8.79382L21.678 7.58906H20.415L21.4394 6.84409L21.0494 5.63351L22.0738 6.37848L23.0981 5.63351L22.7082 6.84409L23.7325 7.58906H22.4637Z" fill="#3F6587"/>
<path d="M18.6283 3.7536L18.2383 4.95837L17.8484 3.7536H16.5796L17.6039 3.00862L17.214 1.79803L18.2383 2.54883L19.2627 1.79803L18.8727 3.00862L19.8971 3.7536H18.6283Z" fill="#3F6587"/>
</svg>
