<svg width="26" height="25" viewBox="0 0 26 25" fill="none" xmlns="http://www.w3.org/2000/svg">
<path d="M13.0005 24.8845L12.6106 23.6798H11.3418L12.3661 22.9348L11.9762 21.7242L13.0005 22.4692L14.0249 21.7242L13.6349 22.9348L14.6593 23.6798H13.3905L13.0005 24.8845Z" fill="#F3F6F9"/>
<path d="M13.3905 2.72737L13.0005 3.93213L12.6106 2.72737H11.3418L12.3661 1.98239L11.9762 0.771811L13.0005 1.51678L14.0249 0.771811L13.6349 1.98239L14.6593 2.72737H13.3905Z" fill="#F3F6F9"/>
<path d="M2.52397 11.993L3.54831 11.248L3.15836 12.4586L4.18271 13.2036H2.91392L2.52397 14.4083L2.13402 13.2036H0.865234L1.88958 12.4586L1.49963 11.248L2.52397 11.993Z" fill="#F3F6F9"/>
<path d="M7.76225 23.4819L7.3723 22.2772H6.10352L7.12785 21.5264L6.73791 20.3216L7.76225 21.0666L8.78659 20.3216L8.39664 21.5264L9.42098 22.2772H8.15219L7.76225 23.4819Z" fill="#F3F6F9"/>
<path d="M3.92631 19.6465L3.53636 18.4417H2.26758L3.29192 17.6967L2.90197 16.4862L3.92631 17.2311L4.95066 16.4862L4.56071 17.6967L5.58505 18.4417H4.32208L3.92631 19.6465Z" fill="#F3F6F9"/>
<path d="M4.32208 7.96553L3.92631 9.17029L3.53636 7.96553H2.26758L3.29192 7.22055L2.90197 6.00997L3.92631 6.75494L4.95066 6.00997L4.56071 7.22055L5.58505 7.96553H4.32208Z" fill="#F3F6F9"/>
<path d="M8.15219 4.13007L7.76225 5.33484L7.3723 4.13007H6.10352L7.12785 3.38509L6.73791 2.1745L7.76225 2.9253L8.78659 2.1745L8.39664 3.38509L9.42098 4.13007H8.15219Z" fill="#F3F6F9"/>
<path d="M25.1348 13.2036H23.8661L23.4761 14.4083L23.0862 13.2036H21.8174L22.8417 12.4586L22.4518 11.248L23.4761 11.993L24.5004 11.248L24.1105 12.4586L25.1348 13.2036Z" fill="#F3F6F9"/>
<path d="M18.2378 23.4819L17.8479 22.2772H16.5791L17.6034 21.5264L17.2135 20.3216L18.2378 21.0666L19.2622 20.3216L18.8722 21.5264L19.8966 22.2772H18.6278L18.2378 23.4819Z" fill="#F3F6F9"/>
<path d="M21.4394 17.6967L21.0494 16.4862L22.0738 17.2311L23.0981 16.4862L22.7082 17.6967L23.7325 18.4417H22.4637L22.0738 19.6465L21.678 18.4417H20.415L21.4394 17.6967Z" fill="#F3F6F9"/>
<path d="M22.4637 7.96553L22.0738 9.17029L21.678 7.96553H20.415L21.4394 7.22055L21.0494 6.00997L22.0738 6.75494L23.0981 6.00997L22.7082 7.22055L23.7325 7.96553H22.4637Z" fill="#F3F6F9"/>
<path d="M18.6278 4.13007L18.2378 5.33484L17.8479 4.13007H16.5791L17.6034 3.38509L17.2135 2.1745L18.2378 2.9253L19.2622 2.1745L18.8722 3.38509L19.8966 4.13007H18.6278Z" fill="#F3F6F9"/>
</svg>
