<svg width="47" height="44" viewBox="0 0 47 44" fill="none" xmlns="http://www.w3.org/2000/svg">
<path fill-rule="evenodd" clip-rule="evenodd" d="M29.5023 20.9846L10.863 17.7827V42.0252C10.863 43.1688 11.7778 43.9692 12.807 43.9692H44.8254C45.969 43.9692 46.7694 43.0544 46.7694 42.0252V33.1058L29.5023 20.9846Z" fill="#00572E"/>
<path fill-rule="evenodd" clip-rule="evenodd" d="M29.502 0.287109H12.921C11.7775 0.287109 10.9771 1.20192 10.9771 2.23109V11.1505L29.502 22.0139L39.3362 25.3301L46.9978 22.0139V11.1505L29.502 0.287109Z" fill="#0FA86C"/>
<path d="M29.388 11.1504H10.863V22.0138H29.388V11.1504Z" fill="#007D41"/>
<path fill-rule="evenodd" clip-rule="evenodd" d="M24.2422 8.97803H10.863V36.3081H24.1278C25.2713 36.3081 26.0718 35.3932 26.0718 34.3641V11.0364C26.1861 9.89284 25.2713 8.97803 24.2422 8.97803Z" fill="#000003"/>
<path fill-rule="evenodd" clip-rule="evenodd" d="M23.0987 10.1216H10.863V37.4516H23.0987C24.2422 37.4516 25.0426 36.5368 25.0426 35.5076V12.0656C25.0426 11.0364 24.2422 10.1216 23.0987 10.1216Z" fill="#000003"/>
<path fill-rule="evenodd" clip-rule="evenodd" d="M23.0987 10.1216H10.863V35.1646H23.0987C24.2422 35.1646 25.0426 34.2498 25.0426 33.2206V12.0656C25.0426 11.0364 24.2422 10.1216 23.0987 10.1216Z" fill="#000003"/>
<path fill-rule="evenodd" clip-rule="evenodd" d="M21.9551 10.1216H10.863V35.1646H21.9551C23.0987 35.1646 23.8991 34.2498 23.8991 33.2206V12.0656C24.0135 11.0364 23.0987 10.1216 21.9551 10.1216Z" fill="#000003"/>
<path d="M1.94398 10.1216H21.9555C23.099 10.1216 23.8995 11.0364 23.8995 12.0656V32.0771C23.8995 33.2206 22.9847 34.0211 21.9555 34.0211H1.94398C0.800461 34.0211 0 33.1062 0 32.0771V12.0656C0 11.0364 0.914813 10.1216 1.94398 10.1216Z" fill="#007D41"/>
<path fill-rule="evenodd" clip-rule="evenodd" d="M6.17407 28.6459L10.4051 22.1279L6.51713 15.6099H9.60462L11.6629 19.7265C11.8917 20.0696 12.006 20.4126 12.006 20.6413C12.1204 20.2983 12.2347 20.0696 12.4634 19.7265L14.7504 15.6099H17.6092L13.7213 22.0136L17.7236 28.5316H14.7504L12.3491 23.9575C12.2347 23.7288 12.1204 23.6145 12.006 23.3858C11.8917 23.6145 11.8917 23.8432 11.7773 23.9575L9.26157 28.5316H6.17407V28.6459Z" fill="white"/>
<path fill-rule="evenodd" clip-rule="evenodd" d="M44.9416 0.287109H29.5042V11.1505H46.8856V2.23109C46.8856 1.20192 45.9708 0.287109 44.9416 0.287109Z" fill="#3FB981"/>
<path d="M46.9999 22.1284H29.5042V32.9918H46.9999V22.1284Z" fill="#007D41"/>
</svg>
