<svg width="317" height="258" viewBox="0 0 317 258" fill="none" xmlns="http://www.w3.org/2000/svg">
<path d="M304.94 222.007L265.4 251.264C260.219 255.113 253.81 257.23 247.108 257.23H4.91938C2.35877 257.23 0.5 255.099 0.5 252.528V224.306C0.5 221.734 2.62189 219.596 4.91938 219.596L161.755 219.603L175.365 208.507C181.247 203.774 189.155 200.789 197.058 200.789H243.622C249.329 200.789 253.827 205.896 252.876 211.777C252.108 216.407 247.793 219.603 243.11 219.603H220.474C217.914 219.603 216.055 221.734 216.055 224.043C216.055 226.351 218.177 228.482 220.474 228.482H255.771L290.804 202.559C296.013 198.681 303.333 199.813 307.173 205.049C311.262 210.805 310.15 218.155 304.94 222.007Z" fill="white"/>
<path d="M311.391 143.747H239.864C237.051 143.747 234.755 146.043 234.755 148.856V169.292C234.755 172.105 237.051 174.401 239.864 174.401H311.391C314.204 174.401 316.5 172.105 316.5 169.292V148.856C316.5 146.046 314.201 143.747 311.391 143.747ZM290.955 162.906C288.839 162.906 287.123 161.19 287.123 159.074C287.123 156.959 288.839 155.242 290.955 155.242C293.07 155.242 294.787 156.959 294.787 159.074C294.787 161.19 293.078 162.906 290.955 162.906ZM301.173 162.906C299.058 162.906 297.341 161.19 297.341 159.074C297.341 156.959 299.058 155.242 301.173 155.242C303.289 155.242 305.005 156.959 305.005 159.074C305.005 161.19 303.297 162.906 301.173 162.906Z" fill="white"/>
<path d="M305.004 118.201C305.004 120.317 303.288 122.033 301.173 122.033C299.065 122.033 297.341 120.309 297.341 118.201C297.341 116.094 299.049 114.369 301.173 114.369C303.296 114.369 305.004 116.086 305.004 118.201Z" fill="#F3F6F9"/>
<path d="M295.106 159.074C295.106 161.189 293.39 162.906 291.274 162.906C289.167 162.906 287.442 161.182 287.442 159.074C287.442 156.967 289.151 155.242 291.274 155.242C293.398 155.242 295.106 156.959 295.106 159.074Z" fill="#F3F6F9"/>
<path d="M311.391 103.193H239.864C237.051 103.193 234.755 105.489 234.755 108.302V128.739C234.755 131.552 237.051 133.848 239.864 133.848H311.391C314.204 133.848 316.5 131.552 316.5 128.739V108.302C316.5 105.492 314.201 103.193 311.391 103.193ZM290.955 122.352C288.839 122.352 287.123 120.636 287.123 118.521C287.123 116.405 288.839 114.689 290.955 114.689C293.07 114.689 294.787 116.405 294.787 118.521C294.787 120.636 293.078 122.352 290.955 122.352ZM301.173 122.352C299.058 122.352 297.341 120.636 297.341 118.521C297.341 116.405 299.058 114.689 301.173 114.689C303.289 114.689 305.005 116.405 305.005 118.521C305.005 120.636 303.297 122.352 301.173 122.352Z" fill="#BCD4E7"/>
<path d="M175.653 73.1082V39.3438H120.786C113.793 39.3438 108.124 45.0125 108.124 52.0054V161.74C108.124 168.73 113.793 174.401 120.786 174.401H196.756C203.749 174.401 209.417 168.733 209.417 161.74V73.1082H175.653ZM141.888 154.169C141.888 155.831 140.2 157.519 138.538 157.519H128.383C126.689 157.519 125.006 155.831 125.006 154.169V135.572C125.006 133.884 126.689 132.196 128.369 132.196H138.525C140.2 132.196 141.888 133.884 141.888 135.572V154.169ZM167.212 154.169C167.212 155.831 165.524 157.519 163.862 157.519H153.706C152.018 157.519 150.33 155.831 150.33 154.169V101.808C150.33 100.12 152.018 98.4315 153.706 98.4315H163.862C165.524 98.4315 167.212 100.12 167.212 101.808V154.169ZM192.535 154.169C192.535 155.831 190.847 157.519 189.185 157.519H179.029C177.341 157.519 175.653 155.831 175.653 154.169V118.69C175.653 117.002 177.341 115.314 179.029 115.314H189.185C190.847 115.314 192.535 117.002 192.535 118.69V154.169Z" fill="#BCD4E7"/>
<path d="M189.185 115.314H179.029C177.341 115.314 175.652 117.002 175.652 118.69V154.169C175.652 155.831 177.341 157.519 179.029 157.519H189.185C190.846 157.519 192.535 155.831 192.535 154.169V118.69C192.535 117.002 190.846 115.314 189.185 115.314ZM138.538 132.196H128.382C126.689 132.196 125.006 133.884 125.006 135.572V154.169C125.006 155.831 126.689 157.519 128.369 157.519H138.525C140.2 157.519 141.888 155.831 141.888 154.169V135.572C141.888 133.884 140.2 132.196 138.538 132.196ZM163.861 98.4315H153.706C152.017 98.4315 150.329 100.12 150.329 101.808V154.169C150.329 155.831 152.017 157.519 153.706 157.519H163.861C165.523 157.519 167.211 155.831 167.211 154.169V101.808C167.211 100.12 165.523 98.4315 163.861 98.4315ZM175.652 39.3438V73.1082H209.417L175.652 39.3438Z" fill="#F3F6F9"/>
<path d="M199.552 73.7941L162.279 36.5213C160.723 34.9573 158.56 34.0681 156.318 34.0681H117.62C108.296 34.0681 100.738 41.6255 100.738 50.9503L100.74 152.244C100.74 161.566 108.297 169.126 117.622 169.126H185.149C194.474 169.126 202.032 161.566 202.032 152.244V79.782C202.032 77.5398 201.135 75.3768 199.552 73.7941ZM159.826 40.0376L196.07 76.2736H166.157C162.675 76.2736 159.826 73.4248 159.826 69.9428V40.0376ZM197.811 152.244C197.811 159.226 192.132 164.905 185.149 164.905H117.62C110.638 164.905 104.959 159.226 104.959 152.244V50.9503C104.959 43.9679 110.638 38.2887 117.62 38.2887H155.605V69.9428C155.605 75.7619 160.338 80.4942 166.157 80.4942H197.811V152.244Z" fill="#3F6587"/>
<path d="M127.644 152.244H131.865C133.03 152.244 133.975 151.299 133.975 150.133V137.472C133.975 136.306 133.03 135.361 131.865 135.361H127.644C126.479 135.361 125.534 136.306 125.534 137.472V150.133C125.534 151.299 126.479 152.244 127.644 152.244Z" fill="#F37A20"/>
<path d="M152.968 152.244H157.188C158.354 152.244 159.299 151.299 159.299 150.133V103.707C159.299 102.542 158.354 101.597 157.188 101.597H152.968C151.802 101.597 150.857 102.542 150.857 103.707V150.133C150.857 151.299 151.802 152.244 152.968 152.244Z" fill="#F37A20"/>
<path d="M182.512 118.479H178.291C177.126 118.479 176.181 119.424 176.181 120.589V150.133C176.181 151.299 177.126 152.244 178.291 152.244H182.512C183.677 152.244 184.622 151.299 184.622 150.133V120.589C184.622 119.424 183.677 118.479 182.512 118.479Z" fill="#F37A20"/>
<path d="M127.644 152.244H131.865C133.03 152.244 133.975 151.299 133.975 150.133V137.472C133.975 136.306 133.03 135.361 131.865 135.361H127.644C126.479 135.361 125.534 136.306 125.534 137.472V150.133C125.534 151.299 126.479 152.244 127.644 152.244Z" fill="#F37A20"/>
<path d="M297.257 17.0635V23.3731C297.257 28.9215 283.411 33.459 266.364 33.459C249.318 33.459 235.471 28.9215 235.471 23.3773V17.0635C235.471 11.5137 249.318 6.979 266.364 6.979C283.411 6.979 297.257 11.5137 297.257 17.0635Z" fill="#BCD4E7"/>
<path d="M266.364 37.955C254.262 37.955 242.104 35.8173 235.471 31.2495V45.4411C235.471 50.9881 249.318 55.5256 266.364 55.5256C283.411 55.5256 297.257 50.9909 297.257 45.4397V31.2523C290.624 35.8173 278.473 37.955 266.364 37.955ZM235.471 53.3189V67.5105C235.471 73.0548 249.318 77.5922 266.364 77.5922C283.411 77.5922 297.257 73.0575 297.257 67.5064V53.3189C290.619 57.8881 278.459 60.0258 266.364 60.0258C254.269 60.0258 242.109 57.884 235.471 53.3189Z" fill="white"/>
<path d="M304.891 139.28H238.45C234.089 139.28 230.52 142.845 230.52 147.203V162.522C230.52 166.88 234.089 170.445 238.45 170.445H304.891C309.253 170.445 312.821 166.88 312.821 162.522V147.203C312.821 142.845 309.253 139.28 304.891 139.28ZM309.738 162.522C309.738 165.191 307.563 167.364 304.891 167.364H238.45C235.779 167.364 233.603 165.191 233.603 162.522V147.203C233.603 144.535 235.779 142.361 238.45 142.361H304.891C307.563 142.361 309.738 144.535 309.738 147.203V162.522ZM304.891 98.4315H238.45C234.089 98.4315 230.52 101.996 230.52 106.354V121.673C230.52 126.031 234.089 129.596 238.45 129.596H304.891C309.253 129.596 312.821 126.031 312.821 121.673V106.354C312.821 101.996 309.253 98.4315 304.891 98.4315ZM309.738 121.673C309.738 124.342 307.563 126.515 304.891 126.515H238.45C235.779 126.515 233.603 124.342 233.603 121.673V106.354C233.603 103.686 235.779 101.512 238.45 101.512H304.891C307.563 101.512 309.738 103.686 309.738 106.354V121.673ZM287.003 111.197C285.447 111.197 284.184 112.458 284.184 114.014C284.184 115.569 285.447 116.83 287.003 116.83C288.56 116.83 289.822 115.569 289.822 114.014C289.822 112.458 288.554 111.197 287.003 111.197ZM297.225 152.046C295.669 152.046 294.406 153.307 294.406 154.863C294.406 156.418 295.669 157.679 297.225 157.679C298.781 157.679 300.044 156.418 300.044 154.863C300.044 153.312 298.776 152.046 297.225 152.046Z" fill="#3F6587" stroke="#3F6587" stroke-width="0.527569"/>
<path d="M297.082 111.357C295.528 111.357 294.268 112.617 294.268 114.171C294.268 115.724 295.528 116.984 297.082 116.984C298.635 116.984 299.895 115.724 299.895 114.171C299.895 112.617 298.629 111.357 297.082 111.357ZM286.882 152.155C285.329 152.155 284.068 153.416 284.068 154.969C284.068 156.522 285.329 157.783 286.882 157.783C288.436 157.783 289.696 156.522 289.696 154.969C289.696 153.421 288.43 152.155 286.882 152.155Z" fill="#F37A20" stroke="#F37A20" stroke-width="0.527569"/>
<path d="M233.155 46.1554V27.6792C236.085 29.2869 240.233 30.5174 244.923 31.3669C250.076 32.3001 255.933 32.7821 261.653 32.7821C267.374 32.7821 273.263 32.3008 278.416 31.3687C283.083 30.5245 287.194 29.3023 290.026 27.7022V46.267C289.251 46.8878 288.094 47.5188 286.577 48.1217C284.861 48.8034 282.719 49.4357 280.22 49.9755C275.224 51.0551 268.836 51.7581 261.653 51.7581C254.471 51.7581 248.114 51.0548 243.134 49.9747C240.644 49.4347 238.505 48.802 236.782 48.1197C235.176 47.4833 233.958 46.8139 233.155 46.1554ZM233.155 61.1884V49.9409C236.085 51.5463 240.233 52.7756 244.924 53.6245C250.076 54.5569 255.933 55.0389 261.653 55.0389C267.374 55.0389 273.263 54.5576 278.416 53.6255C283.083 52.7813 287.194 51.5591 290.026 49.959V61.1884V61.1975L290.026 61.2066C290.048 61.8417 289.555 62.7076 288.263 63.6914C287.003 64.6514 285.103 65.6284 282.621 66.5037C277.662 68.2522 270.466 69.5635 261.653 69.5635C252.904 69.5635 245.708 68.2523 240.716 66.5033C238.218 65.6279 236.293 64.6502 235.004 63.6883C233.683 62.7024 233.155 61.8298 233.155 61.1884ZM261.779 0.567402C253.104 0.567402 245.227 1.81859 239.5 3.85754C236.638 4.87619 234.285 6.1014 232.637 7.48823C230.992 8.87287 229.993 10.4707 229.993 12.2234V61.1884C229.993 62.941 230.992 64.5389 232.637 65.9235C234.285 67.3104 236.638 68.5356 239.5 69.5542C245.227 71.5932 253.104 72.8444 261.779 72.8444C270.454 72.8444 278.331 71.5932 284.058 69.5542C286.92 68.5356 289.273 67.3104 290.92 65.9235C292.566 64.5389 293.565 62.941 293.565 61.1884V12.2234C293.565 10.4707 292.566 8.87287 290.92 7.48823C289.273 6.1014 286.92 4.87619 284.058 3.85754C278.331 1.81859 270.454 0.567402 261.779 0.567402ZM261.653 3.84822C270.403 3.84822 277.599 5.15945 282.591 6.90841C285.089 7.78385 287.014 8.76156 288.303 9.72346C289.624 10.7093 290.152 11.582 290.152 12.2234V23.9041C289.379 24.5587 288.179 25.227 286.577 25.8637C284.861 26.5458 282.719 27.1784 280.22 27.7184C275.224 28.7983 268.836 29.5013 261.653 29.5013C254.471 29.5013 248.114 28.7979 243.134 27.7179C240.644 27.1779 238.505 26.5452 236.782 25.8629C235.176 25.2264 233.958 24.5571 233.155 23.8986V12.2234C233.155 11.5821 233.683 10.7094 235.004 9.72349C236.294 8.76158 238.219 7.78386 240.718 6.90842C245.71 5.15945 252.906 3.84822 261.653 3.84822Z" fill="#3F6587" stroke="#3F6587" stroke-width="1.05514"/>
<path d="M43.7241 124.382C43.7241 121.048 46.4252 118.344 49.7544 118.344H57.7949C61.1241 118.344 63.8252 121.048 63.8252 124.382V132.432C63.8252 135.766 61.1241 138.47 57.7949 138.47H56.7898V143.501H75.8858C79.7678 143.501 82.9212 146.659 82.9212 150.545V154.57H83.9262C87.2555 154.57 89.9565 157.275 89.9565 160.608V168.658C89.9565 171.991 87.2555 174.696 83.9262 174.696H75.8858C72.5566 174.696 69.8555 171.991 69.8555 168.658V160.608C69.8555 157.275 72.5566 154.57 75.8858 154.57H76.8909V150.545C76.8909 149.992 76.4386 149.539 75.8858 149.539H56.7898V154.57H57.7949C61.1241 154.57 63.8252 157.275 63.8252 160.608V168.658C63.8252 171.991 61.1241 174.696 57.7949 174.696H49.7544C46.4252 174.696 43.7241 171.991 43.7241 168.658V160.608C43.7241 157.275 46.4252 154.57 49.7544 154.57H50.7595V149.539H31.6635C31.1107 149.539 30.6585 149.992 30.6585 150.545V154.57H31.6635C34.9927 154.57 37.6938 157.275 37.6938 160.608V168.658C37.6938 171.991 34.9927 174.696 31.6635 174.696H23.6231C20.2926 174.696 17.5928 171.991 17.5928 168.658V160.608C17.5928 157.275 20.2926 154.57 23.6231 154.57H24.6281V150.545C24.6281 146.659 27.7777 143.501 31.6635 143.501H50.7595V138.47H49.7544C46.4252 138.47 43.7241 135.766 43.7241 132.432V124.382Z" fill="#BCD4E7"/>
<path d="M36.9185 127.028V118.977C36.9185 115.643 39.6195 112.94 42.9488 112.94H50.9892C54.3184 112.94 57.0195 115.643 57.0195 118.977V127.028C57.0195 130.361 54.3184 133.065 50.9892 133.065H48.9791V139.103H69.0801C72.4094 139.103 75.1105 141.807 75.1105 145.14V149.166H77.1206C80.4498 149.166 83.1509 151.87 83.1509 155.203V163.253C83.1509 166.587 80.4498 169.291 77.1206 169.291H69.0801C65.7509 169.291 63.0498 166.587 63.0498 163.253V155.203C63.0498 151.87 65.7509 149.166 69.0801 149.166H71.0902V145.14C71.0902 144.034 70.1857 143.128 69.0801 143.128H48.9791V149.166H50.9892C54.3184 149.166 57.0195 151.87 57.0195 155.203V163.253C57.0195 166.587 54.3184 169.291 50.9892 169.291H42.9488C39.6195 169.291 36.9185 166.587 36.9185 163.253V155.203C36.9185 151.87 39.6195 149.166 42.9488 149.166H44.9589V143.128H24.8578C23.7523 143.128 22.8477 144.034 22.8477 145.14V149.166H24.8578C28.1871 149.166 30.8882 151.87 30.8882 155.203V163.253C30.8882 166.587 28.1871 169.291 24.8578 169.291H16.8174C13.4869 169.291 10.7871 166.587 10.7871 163.253V155.203C10.7871 151.87 13.4869 149.166 16.8174 149.166H18.8275V145.14C18.8275 141.807 21.5273 139.103 24.8578 139.103H44.9589V133.065H42.9488C39.6195 133.065 36.9185 130.361 36.9185 127.028ZM50.9892 116.965H42.9488C41.8432 116.965 40.9387 117.865 40.9387 118.977V127.028C40.9387 128.134 41.8432 129.04 42.9488 129.04H50.9892C52.0948 129.04 52.9993 128.134 52.9993 127.028V118.977C52.9993 117.865 52.0948 116.965 50.9892 116.965ZM14.8073 155.203V163.253C14.8073 164.36 15.7068 165.266 16.8174 165.266H24.8578C25.9634 165.266 26.8679 164.36 26.8679 163.253V155.203C26.8679 154.096 25.9634 153.191 24.8578 153.191H16.8174C15.7068 153.191 14.8073 154.096 14.8073 155.203ZM40.9387 155.203V163.253C40.9387 164.36 41.8432 165.266 42.9488 165.266H50.9892C52.0948 165.266 52.9993 164.36 52.9993 163.253V155.203C52.9993 154.096 52.0948 153.191 50.9892 153.191H42.9488C41.8432 153.191 40.9387 154.096 40.9387 155.203ZM67.07 155.203V163.253C67.07 164.36 67.9746 165.266 69.0801 165.266H77.1206C78.2261 165.266 79.1307 164.36 79.1307 163.253V155.203C79.1307 154.096 78.2261 153.191 77.1206 153.191H69.0801C67.9746 153.191 67.07 154.096 67.07 155.203Z" fill="#3F6587"/>
<path d="M19.2284 163.059H22.3939C23.5593 163.059 24.5041 162.114 24.5041 160.949V157.783C24.5041 156.618 23.5593 155.673 22.3939 155.673H19.2284C18.063 155.673 17.1182 156.618 17.1182 157.783V160.949C17.1182 162.114 18.063 163.059 19.2284 163.059Z" fill="#F37A20"/>
<path d="M45.3427 126.92H48.5081C49.6736 126.92 50.6184 125.976 50.6184 124.81V121.645C50.6184 120.479 49.6736 119.534 48.5081 119.534H45.3427C44.1772 119.534 43.2324 120.479 43.2324 121.645V124.81C43.2324 125.976 44.1772 126.92 45.3427 126.92Z" fill="#F37A20"/>
<path d="M45.3427 163.059H48.5081C49.6736 163.059 50.6184 162.114 50.6184 160.949V157.783C50.6184 156.618 49.6736 155.673 48.5081 155.673H45.3427C44.1772 155.673 43.2324 156.618 43.2324 157.783V160.949C43.2324 162.114 44.1772 163.059 45.3427 163.059Z" fill="white"/>
<path d="M71.4579 163.059H74.6233C75.7888 163.059 76.7336 162.114 76.7336 160.949V157.783C76.7336 156.618 75.7888 155.673 74.6233 155.673H71.4579C70.2925 155.673 69.3477 156.618 69.3477 157.783V160.949C69.3477 162.114 70.2925 163.059 71.4579 163.059Z" fill="white"/>
<path d="M301.585 210.433C301.067 213.859 299.246 216.874 296.465 218.925L260.022 245.803C254.891 249.61 248.525 251.69 241.889 251.69H31.9172C30.9671 251.69 30.002 250.718 30.002 249.529C30.002 248.339 30.9671 247.368 31.9172 247.368H241.646C247.13 247.368 252.587 245.57 257.008 242.313L293.452 215.434C295.311 214.067 296.519 212.057 296.867 209.771C297.213 207.492 296.648 205.213 295.282 203.357C293.904 201.483 291.889 200.269 289.604 199.92C287.345 199.608 285.064 200.148 283.214 201.524L250.358 225.76H217.341C213.773 225.76 211.11 222.855 211.11 219.286C211.11 215.714 214.015 212.804 217.341 212.804H238.444C241.854 212.804 244.808 210.491 245.317 207.42C245.629 205.486 245.115 203.605 243.863 202.127C242.629 200.675 240.823 199.839 238.916 199.839H195.761C189.001 199.839 182.384 202.186 177.127 206.448L163.993 217.125H31.9172C30.9671 217.133 30.002 216.161 30.002 214.972C30.002 213.783 30.9671 212.811 31.9172 212.811H162.455L174.405 203.095C180.429 198.215 188.011 195.524 195.756 195.524H238.673C241.848 195.524 244.853 196.917 246.909 199.339C248.966 201.754 249.847 204.962 249.332 208.126C248.477 213.267 243.692 217.134 238.202 217.134H217.341C216.17 217.134 215.426 218.121 215.426 219.295C215.426 220.46 216.412 221.447 217.341 221.447H248.929L280.625 198.057C283.396 195.998 286.778 195.12 290.223 195.66C293.649 196.175 296.673 197.998 298.734 200.802C301.261 203.57 302.125 207.001 301.585 210.433Z" fill="#3F6587"/>
</svg>
