<svg width="124" height="174" viewBox="0 0 124 174" fill="none" xmlns="http://www.w3.org/2000/svg">
<rect x="4.8077" y="117.88" width="31.5897" height="31.5897" rx="5.74359" fill="#E7EDF2"/>
<rect x="72.2949" y="38.906" width="16.5128" height="16.5128" rx="5.74359" fill="#E7EDF2"/>
<rect x="58.6539" y="0.854736" width="30.1538" height="30.1538" rx="5.74359" fill="#E7EDF2"/>
<rect x="45.0128" y="149.47" width="14.359" height="14.359" rx="5.74359" fill="#E7EDF2"/>
<path fill-rule="evenodd" clip-rule="evenodd" d="M63.8413 38.3113H14.8074C9.39068 38.3113 5.00061 42.6805 5.00061 48.0716V106.633C5.00061 112.024 9.39068 116.394 14.8074 116.394H38.7131V99.3131H36.8727C35.5242 99.3131 34.4209 98.2151 34.4209 96.873C34.4209 95.531 35.5187 94.433 36.8727 94.433H38.7131V79.7925H36.8727C35.5242 79.7925 34.4209 78.6945 34.4209 77.3525C34.4209 76.0104 35.5187 74.9124 36.8727 74.9124H38.7131V72.2091C38.7131 67.3057 41.1012 62.9601 44.7779 60.2719H36.8727C35.5242 60.2719 34.4209 59.1739 34.4209 57.8319C34.4209 56.4898 35.5187 55.3918 36.8727 55.3918H61.3896C62.6011 55.3918 63.6146 56.2781 63.808 57.4313H73.6481V48.0716C73.6481 42.6805 69.2503 38.3113 63.8413 38.3113ZM24.6142 99.3131C24.6142 100.655 23.5109 101.753 22.1625 101.753H17.2591C16.6496 101.753 16.0875 101.526 15.6558 101.153C15.0521 100.704 14.659 99.9883 14.659 99.1963V94.3161C14.659 92.9741 15.7623 91.8761 17.1107 91.8761H22.0141C22.6236 91.8761 23.1856 92.103 23.6173 92.4766C24.221 92.925 24.6142 93.6409 24.6142 94.433V99.3131ZM29.7711 50.0624C29.7993 49.4025 29.5587 48.7333 29.0491 48.2341C28.0914 47.281 26.5392 47.281 25.583 48.2341L18.7366 55.0511L16.7921 53.1143C15.8344 52.1611 14.2822 52.1611 13.326 53.1143C12.821 53.6177 12.5823 54.2863 12.6106 54.9453C12.5826 55.6036 12.8208 56.2708 13.3261 56.7729L17.0036 60.433C17.4817 60.9027 18.11 61.1467 18.7367 61.1467C19.3634 61.1467 19.9913 60.9085 20.4697 60.4317L29.0506 51.8915C29.5593 51.3915 29.7995 50.7221 29.7711 50.0624ZM23.3914 71.9534C22.9972 71.6845 22.5222 71.5268 22.0141 71.5268H17.1107C15.7623 71.5268 14.659 72.6248 14.659 73.9669V78.847C14.659 79.8231 15.256 80.6836 16.1085 81.0703C16.501 81.3381 16.9741 81.496 17.4819 81.496H22.3853C23.7261 81.496 24.837 80.3827 24.837 79.0559V74.1758C24.837 73.1913 24.2392 72.3381 23.3914 71.9534Z" fill="#D0DCE5"/>
<path fill-rule="evenodd" clip-rule="evenodd" d="M14.3088 78.1425H16.7605C19.4681 78.1425 21.6639 75.9571 21.6639 73.2624V70.8223C21.6639 68.1275 19.4681 65.9421 16.7605 65.9421H14.3088C11.6012 65.9421 9.40542 68.1275 9.40542 70.8223V73.2624C9.40542 75.9617 11.6012 78.1425 14.3088 78.1425ZM12.0029 70.9606C12.0029 69.6152 13.1025 68.5205 14.4546 68.5205H16.9063C18.2584 68.5205 19.358 69.6152 19.358 70.9606V73.4006C19.358 74.746 18.2584 75.8407 16.9063 75.8407H14.4546C13.1025 75.8407 12.0029 74.746 12.0029 73.4006V70.9606Z" fill="#3F6587"/>
<path d="M15.5335 54.2071L24.4669 45.3008C24.9572 44.8281 25.7281 44.8317 26.207 45.3078C26.6858 45.784 26.6858 46.5561 26.207 47.0327L16.4002 56.793C16.1609 57.0313 15.8492 57.1504 15.5335 57.1504C15.2179 57.1504 14.9068 57.0284 14.6678 56.7859L9.76438 51.9058C9.28554 51.4297 9.286 50.6575 9.76438 50.181C10.2428 49.7044 11.0186 49.7044 11.4974 50.181L15.5335 54.2071Z" fill="#F37A20"/>
<path fill-rule="evenodd" clip-rule="evenodd" d="M10.3068 33.1624H59.3407C64.7497 33.1624 69.1475 37.5331 69.1475 42.9226V54.4768H66.6958V42.9226C66.6958 38.8858 63.3967 35.6024 59.3407 35.6024H10.3068C6.25076 35.6024 2.95169 38.8858 2.95169 42.9226V101.484C2.95169 105.521 6.25076 108.805 10.3068 108.805H36.4937V111.245H10.3068C4.8916 111.245 0.5 106.874 0.5 101.484V42.9226C0.5 37.5331 4.8916 33.1624 10.3068 33.1624ZM36.4937 90.5041V92.9441H31.1462C30.4711 92.9441 29.9203 92.3951 29.9203 91.7241C29.9203 91.0531 30.472 90.5041 31.1462 90.5041H36.4937ZM36.4937 70.9835V73.4236H31.1462C30.4711 73.4236 29.9203 72.8745 29.9203 72.2035C29.9203 71.5325 30.472 70.9835 31.1462 70.9835H36.4937ZM31.1462 51.4629H58.1148C58.789 51.4629 59.3407 52.0119 59.3407 52.6829C59.3407 53.354 58.789 53.903 58.1148 53.903H31.1462C30.4711 53.903 29.9203 53.354 29.9203 52.6829C29.9203 52.0119 30.472 51.4629 31.1462 51.4629ZM13.9843 85.6239H16.436C19.1482 85.6239 21.3394 87.8047 21.3394 90.5041V92.9441C21.3394 95.6389 19.1436 97.8243 16.436 97.8243H13.9843C11.2767 97.8243 9.08093 95.6389 9.08093 92.9441V90.5041C9.08093 87.8093 11.2767 85.6239 13.9843 85.6239ZM16.436 95.3842C17.7881 95.3842 18.8877 94.2895 18.8877 92.9441V90.5041C18.8877 89.1587 17.7881 88.064 16.436 88.064H13.9843C12.6322 88.064 11.5326 89.1587 11.5326 90.5041V92.9441C11.5326 94.2895 12.6322 95.3842 13.9843 95.3842H16.436Z" fill="#3F6587"/>
<path fill-rule="evenodd" clip-rule="evenodd" d="M113.091 67.1492H59.3115C53.3706 67.1492 48.5557 71.9554 48.5557 77.8855V142.303C48.5557 148.234 53.3706 153.04 59.3115 153.04H113.091C119.032 153.04 123.846 148.234 123.846 142.303V77.8855C123.846 71.9554 119.023 67.1492 113.091 67.1492ZM70.0673 134.251C70.0673 135.727 68.8573 136.935 67.3784 136.935H62.0004C61.3316 136.935 60.715 136.685 60.2414 136.274C59.5795 135.781 59.1486 134.993 59.1486 134.122V128.754C59.1486 127.278 60.3586 126.07 61.8375 126.07H67.2154C67.8842 126.07 68.5008 126.32 68.9744 126.731C69.6363 127.225 70.0673 128.012 70.0673 128.883V134.251ZM110.402 134.251H83.5121C82.0332 134.251 80.8231 133.043 80.8231 131.567C80.8231 130.091 82.0271 128.883 83.5121 128.883H110.402C111.887 128.883 113.091 130.085 113.091 131.567C113.091 133.049 111.881 134.251 110.402 134.251ZM110.402 112.779H83.5121C82.0332 112.779 80.8231 111.571 80.8231 110.094C80.8231 108.618 82.0271 107.41 83.5121 107.41H110.402C111.881 107.41 113.091 108.618 113.091 110.094C113.091 111.571 111.881 112.779 110.402 112.779ZM110.402 91.3059H83.5121C82.0332 91.3059 80.8231 90.0981 80.8231 88.6218C80.8231 87.1456 82.0271 85.9377 83.5121 85.9377H110.402C111.881 85.9377 113.091 87.1456 113.091 88.6218C113.091 90.0981 111.881 91.3059 110.402 91.3059ZM75.7232 80.0732C75.7536 79.3479 75.4897 78.6127 74.9312 78.0641C73.8808 77.0156 72.1784 77.0156 71.1297 78.0641L63.6208 85.5627L61.4881 83.4323C60.4377 82.3838 58.7353 82.3838 57.6866 83.4323C57.1321 83.9866 56.8703 84.723 56.902 85.4486C56.8718 86.1721 57.1332 86.9051 57.6868 87.4569L61.7203 91.483C62.2446 91.9997 62.9337 92.2681 63.621 92.2681C64.3084 92.2681 64.9971 92.0061 65.5218 91.4817L74.9331 82.0874C75.4916 81.5369 75.755 80.7996 75.7232 80.0732ZM74.9312 98.7782C73.8808 97.7297 72.1784 97.7297 71.1297 98.7782L63.6208 106.277L61.4881 104.146C60.4377 103.098 58.7353 103.098 57.6866 104.146C56.6379 105.195 56.6362 106.894 57.6866 107.941L61.72 111.967C62.2444 112.484 62.9334 112.752 63.6208 112.752C64.3082 112.752 64.9969 112.49 65.5215 111.966L74.9329 102.571C75.99 101.529 75.99 99.8183 74.9312 98.7782Z" fill="white"/>
<path d="M108.154 61.4856H54.3752C48.436 61.4856 43.6194 66.2935 43.6194 72.2219V136.64C43.6194 142.568 48.436 147.376 54.3752 147.376H108.154C114.094 147.376 118.91 142.568 118.91 136.64V72.2219C118.91 66.2935 114.087 61.4856 108.154 61.4856ZM116.221 136.64C116.221 141.08 112.603 144.692 108.154 144.692H54.3752C49.9267 144.692 46.3083 141.08 46.3083 136.64V72.2219C46.3083 67.7814 49.9267 64.1697 54.3752 64.1697H108.154C112.603 64.1697 116.221 67.7814 116.221 72.2219V136.64ZM106.81 81.6162H77.2313C76.4919 81.6162 75.8868 82.2201 75.8868 82.9582C75.8868 83.6964 76.4908 84.3003 77.2313 84.3003H106.81C107.549 84.3003 108.154 83.6964 108.154 82.9582C108.154 82.2201 107.549 81.6162 106.81 81.6162ZM106.81 103.089H77.2313C76.4919 103.089 75.8868 103.693 75.8868 104.431C75.8868 105.169 76.4908 105.773 77.2313 105.773H106.81C107.549 105.773 108.154 105.169 108.154 104.431C108.154 103.693 107.549 103.089 106.81 103.089ZM106.81 124.561H77.2313C76.4919 124.561 75.8868 125.165 75.8868 125.904C75.8868 126.642 76.4908 127.246 77.2313 127.246H106.81C107.55 127.246 108.154 126.645 108.154 125.904C108.154 125.162 107.549 124.561 106.81 124.561ZM61.0976 119.193H58.4086C55.439 119.193 53.0307 121.597 53.0307 124.561V127.246C53.0307 130.21 55.439 132.614 58.4086 132.614H61.0976C64.0672 132.614 66.4755 130.21 66.4755 127.246V124.561C66.4755 121.592 64.0722 119.193 61.0976 119.193ZM63.7865 127.246C63.7865 128.725 62.5805 129.93 61.0976 129.93H58.4086C56.9257 129.93 55.7197 128.725 55.7197 127.246V124.561C55.7197 123.082 56.9257 121.877 58.4086 121.877H61.0976C62.5805 121.877 63.7865 123.082 63.7865 124.561V127.246Z" fill="#3F6587"/>
<path d="M60.1078 84.6347L69.9057 74.8378C70.4435 74.3177 71.289 74.3217 71.8142 74.8455C72.3393 75.3692 72.3393 76.2186 71.8142 76.7428L61.0583 87.4791C60.7958 87.7413 60.454 87.8723 60.1078 87.8723C59.7616 87.8723 59.4204 87.7381 59.1582 87.4714L53.7803 82.1032C53.2551 81.5795 53.2557 80.7302 53.7803 80.2059C54.305 79.6817 55.1559 79.6817 55.6811 80.2059L60.1078 84.6347Z" fill="#F37A20"/>
<path d="M60.1078 105.349L69.9057 95.5519C70.4435 95.0318 71.289 95.0359 71.8142 95.5596C72.3393 96.0833 72.3393 96.9327 71.8142 97.4569L61.0583 108.193C60.7958 108.455 60.454 108.586 60.1078 108.586C59.7616 108.586 59.4204 108.452 59.1582 108.185L53.7803 102.817C53.2551 102.294 53.2557 101.444 53.7803 100.92C54.305 100.396 55.1559 100.396 55.6811 100.92L60.1078 105.349Z" fill="#F37A20"/>
</svg>
