<svg width="48" height="47" viewBox="0 0 48 47" fill="none" xmlns="http://www.w3.org/2000/svg">
<path d="M28.8362 30.9054C29.0765 30.6107 29.0323 30.177 28.7376 29.9368C27.348 28.804 25.5937 28.1801 23.7977 28.1801C19.4841 28.1801 15.9746 31.6894 15.9746 36.0031C15.9746 40.3169 19.484 43.8263 23.7977 43.8263C28.1114 43.8263 31.6209 40.3169 31.6209 36.0031C31.6209 34.8404 31.3717 33.7212 30.8803 32.6765C30.7184 32.3324 30.3083 32.1847 29.9642 32.3466C29.6202 32.5084 29.4725 32.9186 29.6343 33.2626C30.0388 34.1225 30.2439 35.0445 30.2439 36.0031C30.2439 39.5575 27.3522 42.4493 23.7977 42.4493C20.2432 42.4493 17.3516 39.5575 17.3516 36.0031C17.3516 32.4486 20.2432 29.5569 23.7977 29.5569C25.2776 29.5569 26.7231 30.0708 27.8676 31.0039C28.1624 31.2441 28.596 31.2 28.8362 30.9054Z" fill="#3F6587"/>
<path d="M23.7988 25.1215C20.8393 25.1215 18.0716 26.2889 16.0056 28.4089C15.7403 28.6812 15.7459 29.1171 16.0182 29.3824C16.2905 29.6479 16.7264 29.6421 16.9917 29.3698C18.7963 27.5181 21.2137 26.4983 23.7987 26.4983C29.0392 26.4983 33.3026 30.7617 33.3026 36.0022C33.3026 41.2427 29.0392 45.5061 23.7987 45.5061C18.5583 45.5061 14.2949 41.2427 14.2949 36.0022C14.2949 34.5291 14.6224 33.1175 15.2685 31.8066C15.4366 31.4656 15.2964 31.0528 14.9553 30.8847C14.6142 30.7166 14.2015 30.8569 14.0334 31.1979C13.2932 32.6998 12.918 34.3162 12.918 36.0022C12.918 42.0019 17.7991 46.883 23.7987 46.883C29.7984 46.883 34.6796 42.0019 34.6796 36.0022C34.6797 30.0026 29.7985 25.1215 23.7988 25.1215Z" fill="#3F6587"/>
<path d="M23.7989 40.9181C24.1793 40.9181 24.4874 40.6099 24.4874 40.2297V39.7454C25.3355 39.4722 25.9772 38.7371 26.1387 37.7746C26.3294 36.6395 25.7403 35.6236 24.6728 35.2467C24.3267 35.1199 23.4184 34.8666 23.1925 34.6037C23.0392 34.431 22.97 34.1915 23.0117 33.9785C23.0531 33.7674 23.1963 33.6 23.4373 33.4813C23.943 33.2323 24.5636 33.673 24.5819 33.6865C24.8751 33.9266 25.3076 33.8848 25.549 33.5921C25.7911 33.2989 25.7496 32.8649 25.4563 32.6229C25.2874 32.4835 24.9331 32.2654 24.4873 32.136V31.7845C24.4873 31.4043 24.1792 31.0961 23.7988 31.0961C23.4185 31.0961 23.1104 31.4043 23.1104 31.7845V32.1325C23.0165 32.1628 22.9224 32.1999 22.8286 32.2461C22.2001 32.5558 21.7853 33.077 21.6604 33.7135C21.5361 34.3485 21.7236 35.0229 22.1625 35.5174C22.5894 35.9987 23.1564 36.1884 23.8129 36.4081C24.4012 36.601 24.8248 37.076 24.7807 37.5464C24.7052 37.996 24.3519 38.4817 23.7547 38.4855C23.2504 38.4885 23.0651 38.3805 22.489 38.004C22.1707 37.796 21.7441 37.8854 21.5361 38.2038C21.328 38.5221 21.4175 38.9487 21.7358 39.1567C22.225 39.4764 22.6013 39.7057 23.1104 39.8059V40.2295C23.1105 40.6099 23.4187 40.9181 23.7989 40.9181Z" fill="#F37A20"/>
<path d="M13.7607 12.6326C13.7607 8.90771 10.7302 5.87732 7.00541 5.87732C3.28048 5.87723 0.25 8.90771 0.25 12.6326C0.25 16.3576 3.28048 19.388 7.00541 19.388C10.7302 19.388 13.7607 16.3575 13.7607 12.6326ZM7.00541 18.011C4.03973 18.011 1.62695 15.5982 1.62695 12.6326C1.62695 9.66705 4.03973 7.25427 7.00541 7.25427C9.97108 7.25427 12.3838 9.66705 12.3838 12.6326C12.3838 15.5982 9.97099 18.011 7.00541 18.011Z" fill="#3F6587"/>
<path d="M40.8079 5.78825C40.4243 5.77035 40.1061 6.06483 40.0888 6.44469C40.0715 6.82454 40.3654 7.14647 40.7451 7.16373C43.6211 7.29482 45.874 9.65482 45.874 12.5365C45.874 15.5022 43.4612 17.9149 40.4955 17.9149C37.5299 17.9149 35.1172 15.5021 35.1172 12.5365C35.1172 10.5379 36.2156 8.7151 37.9838 7.77923C38.3199 7.60133 38.4482 7.18475 38.2703 6.84869C38.0924 6.51262 37.6757 6.38429 37.3398 6.56219C35.1195 7.73719 33.7402 10.0264 33.7402 12.5365C33.7402 16.2614 36.7707 19.2918 40.4955 19.2918C44.2205 19.2918 47.251 16.2613 47.251 12.5365C47.251 8.91705 44.4208 5.95293 40.8079 5.78825Z" fill="#3F6587"/>
<path d="M23.7983 13.9525C27.5232 13.9525 30.5537 10.922 30.5537 7.19709C30.5537 3.47216 27.5232 0.441772 23.7983 0.441772C20.0735 0.441772 17.043 3.47225 17.043 7.19709C17.043 10.922 20.0735 13.9525 23.7983 13.9525ZM23.7983 1.81872C26.764 1.81872 29.1767 4.2315 29.1767 7.19709C29.1767 10.1628 26.764 12.5755 23.7983 12.5755C20.8326 12.5755 18.4199 10.1628 18.4199 7.19709C18.4199 4.2315 20.8327 1.81872 23.7983 1.81872Z" fill="#3F6587"/>
<path d="M22.9465 23.6665H24.6496C25.2823 23.6665 25.797 23.1518 25.797 22.519V21.6724H26.9186C27.2838 21.6724 27.6134 21.4699 27.7784 21.1441C27.9435 20.8183 27.9119 20.4326 27.6958 20.138L24.7233 16.0862C24.5079 15.7927 24.1621 15.6176 23.798 15.6176C23.4341 15.6176 23.0883 15.7928 22.8729 16.0863L19.9003 20.1384C19.6842 20.4329 19.6527 20.8184 19.8177 21.1442C19.9829 21.47 20.3123 21.6724 20.6775 21.6724H21.7992V22.519C21.7991 23.1518 22.3138 23.6665 22.9465 23.6665ZM26.5855 20.9529C26.5856 20.953 26.5854 20.9527 26.5855 20.9529V20.9529ZM21.4928 20.2954L23.798 17.1529L26.1032 20.2954H25.1084C24.7281 20.2954 24.42 20.6037 24.42 20.9839V22.2895H23.1759V20.9839C23.1759 20.6037 22.8678 20.2954 22.4875 20.2954H21.4928Z" fill="#3F6587"/>
<path d="M35.5614 19.2953C35.2633 19.0865 34.8795 19.0318 34.5348 19.1487L29.7755 20.763C29.4296 20.8803 29.1827 21.1779 29.131 21.5394C29.0793 21.901 29.233 22.2558 29.5323 22.4654L30.4511 23.1087L29.9655 23.8022C29.6026 24.3205 29.729 25.0373 30.2472 25.4003L31.6422 26.3771C31.8421 26.517 32.0715 26.5842 32.2987 26.5842C32.6606 26.5842 33.0173 26.4137 33.2402 26.0953L33.7258 25.4017L34.6446 26.045C34.9438 26.2545 35.3295 26.2777 35.6519 26.1056C35.974 25.9334 36.1692 25.5996 36.1612 25.2343L36.0505 20.2098C36.0425 19.846 35.8597 19.504 35.5614 19.2953ZM33.9519 23.8789C33.6403 23.6607 33.2111 23.7366 32.993 24.0479L32.2442 25.1175L31.2251 24.404L31.974 23.3345C32.1921 23.023 32.1165 22.5938 31.8049 22.3757L30.99 21.8051L34.6809 20.5532L34.7667 24.4496L33.9519 23.8789Z" fill="#3F6587"/>
<path d="M13.8654 25.4018L14.351 26.0954C14.574 26.4137 14.9305 26.5842 15.2925 26.5842C15.5198 26.5842 15.7492 26.517 15.9491 26.3771L17.3441 25.4003C17.8623 25.0373 17.9886 24.3205 17.6257 23.8022L17.1401 23.1087L18.059 22.4653C18.3582 22.2557 18.5119 21.901 18.4603 21.5394C18.4086 21.1779 18.1616 20.8803 17.8158 20.763L13.0565 19.1487C12.7118 19.0318 12.3281 19.0865 12.0298 19.2953C11.7316 19.504 11.5487 19.8459 11.5406 20.21L11.4299 25.2343C11.4219 25.5996 11.6171 25.9334 11.9392 26.1056C12.2613 26.2777 12.6472 26.2545 12.9464 26.045L13.8654 25.4018ZM12.9105 20.5532L16.6014 21.8051L15.7865 22.3757C15.4749 22.5938 15.3993 23.023 15.6174 23.3345L16.3663 24.404L15.3473 25.1175L14.5984 24.0479C14.4644 23.8566 14.2509 23.7543 14.0338 23.7543C13.8975 23.7543 13.7598 23.7947 13.6396 23.8789L12.8247 24.4494L12.9105 20.5532Z" fill="#3F6587"/>
<path d="M7.00585 8.9613C4.98118 8.9613 3.33398 10.6085 3.33398 12.6332C3.33398 14.6578 4.98118 16.305 7.00585 16.305C9.03052 16.305 10.6777 14.6578 10.6777 12.6332C10.6777 10.6085 9.03043 8.9613 7.00585 8.9613ZM7.00585 14.9281C5.74043 14.9281 4.71093 13.8986 4.71093 12.6332C4.71093 11.3678 5.74043 10.3383 7.00585 10.3383C8.27127 10.3383 9.30077 11.3678 9.30077 12.6332C9.30077 13.8986 8.27127 14.9281 7.00585 14.9281Z" fill="#F37A20"/>
<path d="M20.7379 7.26977C21.1105 7.34661 21.4743 7.1061 21.5507 6.73359C21.7681 5.6727 22.7136 4.90271 23.7987 4.90271C25.0641 4.90271 26.0936 5.93221 26.0936 7.19762C26.0936 8.46304 25.0641 9.49254 23.7987 9.49254C23.2676 9.49254 22.7689 9.31647 22.3569 8.98325C22.0613 8.74421 21.6279 8.79002 21.3887 9.0857C21.1496 9.38137 21.1955 9.81484 21.4911 10.0539C22.1415 10.5798 22.961 10.8695 23.7987 10.8695C25.8234 10.8695 27.4706 9.22229 27.4706 7.19762C27.4706 5.17296 25.8234 3.52576 23.7987 3.52576C22.0626 3.52576 20.5498 4.75859 20.2016 6.45719C20.1254 6.82961 20.3654 7.1934 20.7379 7.26977Z" fill="#F37A20"/>
<path d="M36.8223 12.5355C36.8223 14.5602 38.4695 16.2074 40.4941 16.2074C42.5188 16.2074 44.166 14.5602 44.166 12.5355C44.166 10.5108 42.5188 8.86365 40.4941 8.86365C38.4695 8.86365 36.8223 10.5108 36.8223 12.5355ZM40.4941 10.2406C41.7595 10.2406 42.789 11.2701 42.789 12.5355C42.789 13.8009 41.7595 14.8304 40.4941 14.8304C39.2287 14.8304 38.1992 13.8009 38.1992 12.5355C38.1992 11.2701 39.2287 10.2406 40.4941 10.2406Z" fill="#F37A20"/>
</svg>
