<svg width="19" height="17" viewBox="0 0 19 17" fill="none" xmlns="http://www.w3.org/2000/svg">
<path d="M6.26875 3.21966C5.87813 3.08154 5.675 2.6531 5.8125 2.26248C6.24375 1.03998 7.40938 0.162476 8.78438 0.162476C10.1281 0.162476 11.3219 1.03998 11.7531 2.26248C11.8906 2.6531 11.6594 3.08154 11.2969 3.21966C10.8781 3.35623 10.4781 3.1531 10.3406 2.76248C10.1125 2.1206 9.5 1.66248 8.78438 1.66248C8.06563 1.66248 7.45312 2.1206 7.22813 2.76248C7.0875 3.1531 6.65938 3.35623 6.26875 3.21966ZM12.625 8.41248C12.625 7.99685 12.9594 7.66248 13.375 7.66248C13.7906 7.66248 14.125 7.99685 14.125 8.41248C14.125 8.8281 13.7906 9.16248 13.375 9.16248C12.9594 9.16248 12.625 8.8281 12.625 8.41248ZM7.125 4.16248H11.8875C12.4375 3.54998 13.2375 3.16248 14.125 3.16248H14.6656C15.1531 3.16248 15.5094 3.62185 15.3906 4.09373L15.125 5.13435C15.7844 5.6781 16.3625 6.3656 16.7094 7.16248H17.125C17.6781 7.16248 18.125 7.60935 18.125 8.16248V11.1625C18.125 11.7156 17.6781 12.1625 17.125 12.1625H16.125C15.7219 12.7 15.2094 13.1562 14.625 13.4937V14.6625C14.625 15.4906 13.9531 16.1625 13.125 16.1625H11.625C10.7969 16.1625 10.125 15.4906 10.125 14.6625V14.1625H8.625V14.6625C8.625 15.4906 7.95312 16.1625 7.125 16.1625H5.625C4.79688 16.1625 4.125 15.4906 4.125 14.6625V13.1625C2.96812 12.2937 2.20062 10.9344 2.13031 9.39373C0.999687 9.2531 0.125 8.25935 0.125 7.11873C0.125 6.24685 0.61625 5.4531 1.39375 5.0656L1.53969 4.9906C1.91 4.80623 2.36063 4.95623 2.54594 5.3281C2.73094 5.69685 2.58094 6.14685 2.21031 6.33435L2.06438 6.40623C1.795 6.5406 1.625 6.8156 1.625 7.11873C1.625 7.50935 1.91031 7.83748 2.28531 7.89998C2.84437 5.74998 4.8 4.16248 7.125 4.16248ZM7.125 5.66248C5.19063 5.66248 3.625 7.2281 3.625 9.16248C3.625 10.3062 4.17188 11.3219 5.025 11.9625C5.40313 12.2469 5.625 12.6906 5.625 13.1625V14.6625H7.125V14.1625C7.125 13.3344 7.79688 12.6625 8.625 12.6625H10.125C10.9531 12.6625 11.625 13.3344 11.625 14.1625V14.6625H13.125V13.4937C13.125 12.9594 13.4094 12.4625 13.8469 12.1937C14.2844 11.9594 14.6438 11.6406 14.925 11.2625C15.2094 10.8844 15.6531 10.6625 16.125 10.6625H16.625V8.65935C16.0625 8.6281 15.5344 8.28435 15.3344 7.76248C15.0906 7.20623 14.7063 6.69685 14.225 6.36248C13.7406 5.99998 13.525 5.38435 13.6687 4.79685L13.6875 4.7281C13.4219 4.80623 13.1875 4.95935 13.0063 5.16248C12.7219 5.48123 12.3156 5.66248 11.8875 5.66248H7.125Z" fill="#F37A20"/>
</svg>
