<svg width="47" height="25" viewBox="0 0 47 25" fill="none" xmlns="http://www.w3.org/2000/svg">
<g clip-path="url(#clip0_3630_42588)">
<path d="M0 0.662354H47V24.6624H0V0.662354Z" fill="#F9FAFC"/>
<g clip-path="url(#clip1_3630_42588)">
<path d="M38.9538 22.6433C39.3341 22.6433 39.6423 22.335 39.6423 21.9548V16.8038C39.6423 15.2069 38.3432 13.9078 36.7463 13.9078H32.3312C30.8316 13.9078 29.5947 15.0535 29.4496 16.5156C29.1716 16.405 28.8898 16.3022 28.6046 16.2069V12.3886C28.6046 11.5667 28.3298 10.808 27.8678 10.1988C27.868 10.1928 27.8687 10.187 27.8687 10.181V5.03014C27.8686 2.62176 25.9092 0.662354 23.5008 0.662354C21.0925 0.662354 19.1331 2.62176 19.1331 5.03014V10.1811C19.1331 10.1871 19.1338 10.193 19.134 10.1989C18.672 10.8081 18.3972 11.5668 18.3972 12.3887V16.207C18.112 16.3022 17.8302 16.4051 17.5522 16.5157C17.4071 15.0536 16.1702 13.9079 14.6706 13.9079H10.2555C8.65858 13.9079 7.35947 15.207 7.35947 16.8039V21.9549C7.35947 22.3351 7.66772 22.6434 8.04794 22.6434C8.42817 22.6434 8.73642 22.3351 8.73642 21.9549V16.8039C8.73642 15.9663 9.41783 15.2849 10.2555 15.2849H14.6706C15.5083 15.2849 16.1897 15.9663 16.1897 16.8039V17.1326C10.9535 19.8041 7.35938 25.2506 7.35938 31.521C7.35938 40.4213 14.6004 47.6623 23.5008 47.6623C32.4013 47.6623 39.6423 40.4213 39.6423 31.5209C39.6423 25.2505 36.0482 19.804 30.812 17.1325V16.8038C30.812 15.9662 31.4934 15.2848 32.3311 15.2848H36.7462C37.5839 15.2848 38.2653 15.9662 38.2653 16.8038V21.9548C38.2654 22.335 38.5736 22.6433 38.9538 22.6433ZM18.3282 17.6924C17.614 18.3932 16.951 19.2453 16.3543 20.2398C16.2041 20.4902 16.06 20.7479 15.921 21.0113C15.3797 20.6877 14.8578 20.3285 14.3593 19.935C15.5483 18.9948 16.885 18.234 18.3282 17.6924ZM17.5351 20.9483C18.9888 18.5256 20.8416 17.0793 22.8124 16.8051V23.0895C20.8343 22.997 18.9035 22.5069 17.1344 21.6621C17.2629 21.4182 17.3962 21.1797 17.5351 20.9483ZM22.8124 24.4679V30.8324H14.9271C15.0043 27.9499 15.5652 25.2199 16.545 22.9063C18.497 23.8379 20.6291 24.3745 22.8124 24.4679ZM24.1893 16.806C25.8881 17.0482 27.5315 18.1791 28.8784 20.0522C29.2339 20.5467 29.5627 21.0874 29.8657 21.6641C28.0978 22.5084 26.1686 22.9973 24.1893 23.0896V16.806ZM29.9963 19.2484C29.5772 18.6655 29.1296 18.1445 28.6598 17.6872C30.1085 18.2292 31.4501 18.9922 32.643 19.9355C32.1438 20.3294 31.6213 20.6884 31.0797 21.0123C30.7483 20.3818 30.3865 19.7911 29.9963 19.2484ZM20.51 5.03014C20.51 4.48459 20.6575 3.9731 20.9138 3.53229C21.719 4.26538 23.4658 5.4592 26.4916 5.74248V9.09096C26.029 8.87707 25.5147 8.75673 24.9725 8.75673H22.0292C21.487 8.75673 20.9726 8.87698 20.5101 9.09096V5.03014H20.51ZM26.4131 4.35158C23.8799 4.07178 22.4708 3.09249 21.8565 2.53372C22.3286 2.22162 22.8937 2.03931 23.5008 2.03931C24.9165 2.03931 26.1048 3.02842 26.4131 4.35158ZM19.7742 12.3887C19.7742 11.1453 20.7858 10.1338 22.0291 10.1338H24.9724C26.2158 10.1338 27.2273 11.1454 27.2273 12.3887V15.8145C26.0306 15.5306 24.7831 15.3795 23.5007 15.3795C22.2183 15.3795 20.9707 15.5306 19.774 15.8145V12.3887H19.7742ZM13.3033 20.8536C13.943 21.3754 14.6194 21.8447 15.3254 22.259C14.2456 24.7659 13.6293 27.7218 13.5499 30.8324H8.75294C8.9336 26.9173 10.6457 23.3953 13.3033 20.8536ZM8.75294 32.2094H22.8124V38.5739C20.6275 38.6671 18.4979 39.2019 16.5478 40.1324C15.8263 38.4214 15.3212 36.4618 15.081 34.3848C15.0373 34.007 14.6954 33.7353 14.3179 33.78C13.9402 33.8237 13.6695 34.1653 13.7132 34.543C13.9733 36.7916 14.5292 38.9203 15.3278 40.7808C14.6213 41.1956 13.9446 41.6658 13.3038 42.1884C10.6458 39.6468 8.9336 36.1247 8.75294 32.2094ZM18.1233 42.9895C17.7678 42.495 17.4389 41.9541 17.1359 41.3775C18.9036 40.5332 20.8326 40.0444 22.8124 39.9521V46.2358C21.1136 45.9937 19.4702 44.8627 18.1233 42.9895ZM24.1893 46.2367V39.9521C26.17 40.0444 28.0998 40.5336 29.868 41.3786C29.7393 41.6228 29.6058 41.8618 29.4666 42.0937C28.013 44.5164 26.1601 45.9625 24.1893 46.2367ZM24.1893 38.574V32.2094H32.0746C31.9974 35.0914 31.4367 37.8209 30.4573 40.1342C28.5063 39.2025 26.3756 38.6672 24.1893 38.574ZM14.3588 43.1065C14.858 42.7126 15.3802 42.3531 15.9217 42.0291C16.2532 42.6598 16.615 43.2507 17.0053 43.7935C17.4244 44.3764 17.872 44.8973 18.3418 45.3547C16.8932 44.8126 15.5517 44.0498 14.3588 43.1065ZM30.6474 42.8021C30.7978 42.5515 30.942 42.2935 31.0811 42.0298C31.6222 42.3536 32.1441 42.7128 32.6429 43.1065C31.4538 44.0468 30.1168 44.8078 28.6735 45.3494C29.3876 44.6487 30.0506 43.7965 30.6474 42.8021ZM33.698 42.1885C33.0579 41.6665 32.382 41.1967 31.6765 40.7823C32.7561 38.2755 33.3724 35.3197 33.4517 32.2094H38.2487C38.0681 36.1247 36.3559 39.6468 33.698 42.1885ZM38.2487 30.8324H24.1893V24.4679C26.3734 24.3747 28.5035 23.8397 30.4539 22.9091C31.1754 24.6201 31.6805 26.5799 31.9208 28.657C31.9645 29.0347 32.3063 29.3054 32.6838 29.2618C33.0616 29.2181 33.3323 28.8765 33.2886 28.4987C33.0284 26.2503 32.4726 24.1216 31.6741 22.2611C32.3806 21.8462 33.0574 21.3759 33.6982 20.8534C36.3559 23.3951 38.0681 26.9172 38.2487 30.8324Z" fill="#3F6587"/>
<path d="M34.5382 13.0765C36.5408 13.0765 38.17 11.4472 38.17 9.44469V6.50122C38.17 6.121 37.8618 5.81274 37.4816 5.81274H33.8023C32.2054 5.81274 30.9062 7.11185 30.9062 8.70875V9.4446C30.9062 11.4472 32.5356 13.0765 34.5382 13.0765ZM33.8024 7.1897H36.7932V9.4446C36.7932 10.688 35.7816 11.6995 34.5383 11.6995C33.2949 11.6995 32.2834 10.6879 32.2834 9.4446V9.39723H35.2742C35.6544 9.39723 35.9627 9.08898 35.9627 8.70875C35.9627 8.32853 35.6544 8.02028 35.2742 8.02028H32.4501C32.7015 7.52806 33.2126 7.1897 33.8024 7.1897Z" fill="#F37A20"/>
<path d="M25.3178 7.43976C25.6469 7.24937 25.7594 6.82821 25.5691 6.49902C25.3787 6.16993 24.9575 6.05739 24.6283 6.24777C24.2877 6.44486 23.8979 6.54905 23.5013 6.54905C23.1044 6.54905 22.7144 6.44468 22.3734 6.24732C22.0445 6.05684 21.6232 6.16901 21.4326 6.4982C21.2421 6.8272 21.3544 7.24845 21.6835 7.43902C22.2338 7.75765 22.8623 7.9261 23.5012 7.9261C24.1397 7.92601 24.7678 7.75783 25.3178 7.43976Z" fill="#F37A20"/>
<path d="M8.8309 9.47728C8.84862 11.4649 10.4703 13.0765 12.462 13.0765C14.4647 13.0765 16.0939 11.4472 16.0939 9.44469V6.50122C16.0939 6.121 15.7856 5.81274 15.4054 5.81274H10.9902C9.79909 5.81274 8.83008 6.78184 8.83008 7.97291V9.4446C8.83008 9.45166 8.83054 9.45864 8.83063 9.46562C8.83072 9.46956 8.83072 9.47342 8.8309 9.47728ZM12.462 11.6996C11.3984 11.6996 10.505 10.9592 10.2687 9.96674L14.717 8.85471V9.44469C14.717 10.688 13.7054 11.6996 12.462 11.6996ZM10.9903 7.1897H14.717V7.43544L10.2071 8.56289V7.97291C10.207 7.541 10.5584 7.1897 10.9903 7.1897Z" fill="#F37A20"/>
</g>
</g>
<defs>
<clipPath id="clip0_3630_42588">
<path d="M0 0.662354H47V24.6624H0V0.662354Z" fill="white"/>
</clipPath>
<clipPath id="clip1_3630_42588">
<rect width="47" height="24" fill="white" transform="translate(0 0.662354)"/>
</clipPath>
</defs>
</svg>
