<svg width="47" height="39" viewBox="0 0 47 39" fill="none" xmlns="http://www.w3.org/2000/svg">
<path d="M42.5938 0.662354H38.8301C38.6597 0.662354 38.4962 0.728294 38.3757 0.84567C38.2552 0.963046 38.1875 1.12224 38.1875 1.28824V8.44118H23.0322C23.0395 8.30992 23.0454 8.17866 23.0454 8.04777C23.0315 6.09827 22.2266 4.23323 20.8064 2.8595C19.3862 1.48577 17.4658 0.714817 15.4643 0.714817C13.4627 0.714817 11.5424 1.48577 10.1222 2.8595C8.70194 4.23323 7.89708 6.09827 7.88315 8.04777C7.88315 8.18009 7.88902 8.31135 7.89637 8.44118H0.642578C0.472156 8.44118 0.308714 8.50712 0.188207 8.62449C0.0677 8.74187 0 8.90106 0 9.06706L0 38.0365C0 38.2025 0.0677 38.3617 0.188207 38.479C0.308714 38.5964 0.472156 38.6624 0.642578 38.6624H42.5938C43.762 38.6611 44.882 38.2086 45.708 37.404C46.5341 36.5994 46.9987 35.5085 47 34.3706V4.95412C46.9987 3.81625 46.5341 2.72534 45.708 1.92074C44.882 1.11615 43.762 0.663584 42.5938 0.662354ZM4.95703 16.3302L5.3334 16.6971L6.00425 18.5311C6.05175 18.6569 6.13881 18.7648 6.25302 18.8395C6.36723 18.9142 6.50274 18.9518 6.64022 18.9471L8.37077 18.8659L10.799 20.3419L10.5353 21.8351C10.5089 21.9831 10.5381 22.1355 10.6176 22.2642L11.811 24.2016C11.8629 24.286 11.9345 24.3572 12.02 24.4095C12.1055 24.4618 12.2024 24.4938 12.303 24.5027L12.0004 26.7488C11.9927 26.8044 11.9927 26.8608 12.0004 26.9165L12.6125 31.2083C12.634 31.3578 12.7102 31.4948 12.8271 31.594C12.944 31.6932 13.0938 31.7479 13.2489 31.748H14.6185C14.7708 31.748 14.9181 31.6952 15.0342 31.5992C15.1503 31.5032 15.2276 31.3701 15.2522 31.2237L15.8151 27.8975L17.3533 25.9927L21.0064 25.5764C21.1619 25.5588 21.3053 25.4865 21.4099 25.3731C21.5144 25.2597 21.5728 25.113 21.5741 24.9605L21.6042 21.5915C21.6053 21.4499 21.5573 21.312 21.468 21.2002L19.6019 18.8755C19.5317 18.7881 19.4388 18.7205 19.3329 18.6795C19.2269 18.6385 19.1117 18.6257 18.999 18.6423L17.5101 18.8623C18.0474 17.8266 18.5236 16.762 18.9366 15.6735C19.0971 15.2443 19.245 14.8084 19.3743 14.3728C19.8988 14.0635 20.3832 13.6937 20.817 13.2716H33.666L34.9985 14.5695V15.7908L32.636 16.656H30.2493L29.3515 15.7819C29.2631 15.6956 29.1507 15.6364 29.0282 15.6115C28.9057 15.5867 28.7783 15.5973 28.6619 15.642L26.8704 16.3298C26.7878 16.3608 26.7128 16.4083 26.6501 16.4693L24.3159 18.7428C24.2561 18.8009 24.2088 18.8698 24.1764 18.9458C24.1441 19.0217 24.1275 19.1031 24.1275 19.1853V21.3537C24.1275 21.4359 24.1441 21.5172 24.1764 21.5932C24.2088 21.6691 24.2561 21.738 24.3159 21.7961L25.89 23.3293C26.0105 23.4466 26.1739 23.5126 26.3442 23.5128H28.0898L30.0749 25.4462V28.1214C30.0748 28.2874 30.1424 28.4467 30.2629 28.5642L32.014 30.2691C32.0736 30.3272 32.1444 30.3734 32.2223 30.4049C32.3003 30.4363 32.3838 30.4525 32.4682 30.4525C32.5526 30.4525 32.6361 30.4363 32.714 30.4049C32.792 30.3734 32.8628 30.3272 32.9224 30.2691L35.1622 28.0874C35.2827 27.97 35.3503 27.8107 35.3502 27.6447V26.6336L36.1948 25.811C36.3153 25.6937 36.3831 25.5346 36.3831 25.3686V23.6262L37.8266 22.2199C37.8863 22.1618 37.9336 22.0929 37.966 22.0169C37.9983 21.941 38.0149 21.8597 38.0149 21.7775C38.0149 21.6953 37.9983 21.6139 37.966 21.538C37.9336 21.4621 37.8863 21.3931 37.8266 21.3351L36.19 19.7428L37.2548 19.4274L37.3026 19.4739C37.5593 19.7212 37.8589 19.9223 38.1875 20.0679V30.7047C38.1875 30.8707 38.2552 31.0299 38.3757 31.1473C38.4962 31.2646 38.6597 31.3306 38.8301 31.3306H42.043V33.8341H4.95703V16.3302ZM12.6661 17.3019L11.3773 16.4829L12.2652 16.3706C12.3948 16.6867 12.5295 16.9968 12.6661 17.3019ZM10.1112 13.2694C10.5451 13.6911 11.0294 14.0603 11.5539 14.3692C11.6274 14.6217 11.7114 14.8738 11.7977 15.1252C11.8021 15.1381 11.8054 15.1503 11.8102 15.1632L10.2607 15.3591C10.1628 15.3712 10.0691 15.405 9.9868 15.458C9.90451 15.511 9.83585 15.5817 9.78614 15.6647C9.73643 15.7477 9.70701 15.8408 9.70016 15.9366C9.69331 16.0325 9.70921 16.1286 9.74662 16.2175L10.0837 17.0222C10.1334 17.1394 10.2184 17.2391 10.3275 17.3083L12.4385 18.6495C12.51 18.6946 12.5899 18.7255 12.6737 18.7405C12.7575 18.7555 12.8435 18.7542 12.9268 18.7368L13.3116 18.6545C13.9821 19.9799 14.5931 20.9856 14.8219 21.3526C14.8761 21.4773 14.9646 21.585 15.0777 21.6638C15.1907 21.7426 15.324 21.7895 15.4626 21.7993C15.5777 21.7974 15.6904 21.7663 15.7894 21.7092C15.8885 21.6521 15.9706 21.5709 16.0277 21.4735C16.1012 21.3612 16.381 20.9127 16.7658 20.2346L18.8195 19.9309L20.3161 21.7954L20.293 24.3937L16.9387 24.7767C16.8547 24.7863 16.7734 24.812 16.6996 24.8523C16.6257 24.8925 16.5607 24.9466 16.5084 25.0113L14.7033 27.2466C14.6361 27.3298 14.5918 27.4283 14.5744 27.5327L14.0732 30.4955H13.8088L13.2859 26.8278L13.6722 23.9613C13.6841 23.873 13.6765 23.7832 13.6499 23.698C13.6233 23.6128 13.5784 23.5341 13.5181 23.4671C13.4578 23.4002 13.3835 23.3465 13.3002 23.3097C13.217 23.273 13.1266 23.2539 13.0352 23.2538H12.7256L11.8422 21.8193L12.1385 20.1412C12.1601 20.0187 12.1437 19.8926 12.0914 19.7791C12.039 19.6657 11.9532 19.57 11.8447 19.5043L8.88043 17.6996C8.76915 17.6324 8.63964 17.5995 8.50884 17.6052L7.05367 17.6735L6.49555 16.1442C6.46359 16.0567 6.41204 15.9773 6.34463 15.9117L4.95703 14.5598V13.2694H10.1112ZM38.1875 18.5669L37.8897 18.2765C37.8074 18.1962 37.7042 18.1392 37.5912 18.1117C37.4782 18.0841 37.3597 18.0871 37.2482 18.1202L34.791 18.8491C34.6849 18.8806 34.589 18.9383 34.5126 19.0167C34.4363 19.095 34.382 19.1912 34.3551 19.2961C34.3282 19.4009 34.3297 19.5107 34.3593 19.6148C34.3889 19.7189 34.4457 19.8138 34.5241 19.8902L36.4617 21.7775L35.2841 22.9245C35.1638 23.0418 35.0962 23.201 35.0961 23.3669V25.1104L34.2516 25.933C34.1311 26.0504 34.0633 26.2097 34.0632 26.3757V27.3854L32.4667 28.9404L31.3585 27.8614V25.1848C31.3584 25.0188 31.2906 24.8597 31.1702 24.7424L28.8088 22.442C28.7491 22.3839 28.6783 22.3378 28.6004 22.3064C28.5225 22.275 28.4389 22.2588 28.3546 22.2589H26.613L25.4153 21.0929V19.4424L27.4656 17.4449L28.7409 16.9553L29.5289 17.7225C29.6493 17.8399 29.8127 17.9059 29.9831 17.9059H32.7531C32.8304 17.906 32.907 17.8924 32.9793 17.8659L35.8676 16.8083C35.9899 16.7635 36.0953 16.6834 36.1697 16.5787C36.2441 16.4741 36.284 16.3498 36.284 16.2225V14.308C36.2839 14.1421 36.2162 13.9829 36.0956 13.8656L35.4839 13.2694H38.1875V18.5669ZM22.853 9.69294H38.1875V12.0176H21.8506C22.318 11.3039 22.657 10.5177 22.853 9.69294ZM15.4645 1.91412C17.1337 1.91592 18.7339 2.56257 19.9142 3.71219C21.0945 4.86181 21.7584 6.42052 21.7603 8.04633C21.7524 9.13981 21.4481 10.2119 20.8781 11.1539C20.3081 12.096 19.4927 12.8747 18.5143 13.411C18.4394 13.4517 18.3736 13.5065 18.3207 13.5722C18.2678 13.6379 18.2289 13.7132 18.2063 13.7937C17.6427 15.6327 16.8828 17.4091 15.9389 19.0937C15.7656 19.4116 15.6047 19.696 15.4641 19.9388C14.6181 18.4879 13.884 16.9777 13.268 15.4207C13.1637 15.1485 13.0667 14.8817 12.9793 14.6227C12.9731 14.6042 12.9672 14.587 12.9614 14.5673C12.8725 14.3012 12.7917 14.0419 12.7219 13.7937C12.6994 13.7132 12.6606 13.6378 12.6078 13.5721C12.5549 13.5064 12.4891 13.4516 12.4142 13.411C11.436 12.8746 10.6206 12.0959 10.0506 11.1539C9.48056 10.2118 9.17621 9.13979 9.1683 8.04633C9.17015 6.42046 9.8341 4.8617 11.0145 3.71206C12.1948 2.56243 13.7952 1.91582 15.4645 1.91412ZM42.5938 37.4106H1.28516V9.69294H8.07555C8.07996 9.71082 8.08657 9.72871 8.09098 9.74516C8.20264 10.2043 8.35942 10.6518 8.55914 11.0817L8.56979 11.1053C8.71724 11.4205 8.88705 11.7254 9.07798 12.0176H4.31445C4.14403 12.0176 3.98059 12.0836 3.86008 12.201C3.73957 12.3183 3.67188 12.4775 3.67188 12.6435V34.46C3.67188 34.626 3.73957 34.7852 3.86008 34.9026C3.98059 35.0199 4.14403 35.0859 4.31445 35.0859H42.6855C42.856 35.0859 43.0194 35.0199 43.1399 34.9026C43.2604 34.7852 43.3281 34.626 43.3281 34.46V31.42C44.0702 31.5948 44.7207 32.0286 45.1564 32.6392C45.5921 33.2498 45.7827 33.9949 45.6922 34.7333C45.6017 35.4716 45.2363 36.152 44.6653 36.6456C44.0942 37.1392 43.3572 37.4116 42.5938 37.4113V37.4106ZM45.565 31.2108C44.7537 30.4865 43.6943 30.0829 42.5938 30.0788H39.4727V1.91412H42.5938C43.4212 1.91506 44.2145 2.23565 44.7996 2.80556C45.3847 3.37546 45.7139 4.14815 45.7148 4.95412V31.3438C45.6678 31.297 45.6146 31.2548 45.565 31.2108Z" fill="#3F6587"/>
<path d="M15.4642 11.5306C16.1719 11.5307 16.8636 11.3264 17.452 10.9435C18.0405 10.5606 18.4991 10.0164 18.77 9.37965C19.0408 8.7429 19.1118 8.0422 18.9738 7.36618C18.8358 6.69016 18.4951 6.06918 17.9948 5.58175C17.4945 5.09433 16.857 4.76236 16.163 4.62782C15.4689 4.49329 14.7495 4.56223 14.0957 4.82593C13.4419 5.08963 12.8831 5.53624 12.4899 6.10929C12.0967 6.68235 11.8868 7.3561 11.8867 8.04535C11.8877 8.96928 12.2649 9.85512 12.9356 10.5085C13.6063 11.1619 14.5156 11.5295 15.4642 11.5306ZM15.4642 5.81256C15.9177 5.81249 16.361 5.94341 16.7381 6.18876C17.1152 6.43412 17.4091 6.78288 17.5827 7.19095C17.7563 7.59902 17.8017 8.04806 17.7133 8.48128C17.6248 8.91451 17.4065 9.31245 17.0858 9.62478C16.7651 9.93711 16.3566 10.1498 15.9118 10.236C15.467 10.3221 15.006 10.2779 14.587 10.1088C14.1681 9.93973 13.81 9.65345 13.5581 9.28615C13.3062 8.91886 13.1718 8.48705 13.1719 8.04535C13.1727 7.45341 13.4144 6.88593 13.8441 6.46736C14.2739 6.0488 14.8565 5.81331 15.4642 5.81256Z" fill="#F37A20"/>
</svg>
