<svg width="14" height="9" viewBox="0 0 14 9" fill="none" xmlns="http://www.w3.org/2000/svg">
<path d="M0 4.28589C0 6.49338 1.82311 8.28589 4.05525 8.28589H6.63214L4.36494 5.34064V6.81615H4.05525C2.64117 6.81615 1.49004 5.6807 1.49004 4.28589C1.49004 2.89108 2.64117 1.75563 4.05525 1.75563H6.71395V0.285889H4.05525C1.81727 0.285889 0 2.08416 0 4.28589Z" fill="#3F6587"/>
<path d="M9.94475 0.285889H7.36786L9.63506 3.23113V1.75563H9.94475C11.3588 1.75563 12.51 2.89108 12.51 4.28589C12.51 5.6807 11.3588 6.81615 9.94475 6.81615H7.28605V8.28589H9.94475C12.1827 8.28589 14 6.48762 14 4.28589C14 2.08416 12.1827 0.285889 9.94475 0.285889Z" fill="#3F6587"/>
<path d="M7.00073 5.97439C7.94629 5.97439 8.71282 5.21831 8.71282 4.28563C8.71282 3.35295 7.94629 2.59687 7.00073 2.59687C6.05517 2.59687 5.28865 3.35295 5.28865 4.28563C5.28865 5.21831 6.05517 5.97439 7.00073 5.97439Z" fill="#3F6587"/>
</svg>
