<svg width="242" height="27" viewBox="0 0 242 27" fill="none" xmlns="http://www.w3.org/2000/svg">
<path d="M64.6808 22.5227C63.5941 22.7935 62.3758 22.9289 61.0916 22.9289C59.7415 22.9289 58.5231 22.7258 57.4036 22.2858C56.284 21.8458 55.2962 21.2365 54.5059 20.4242C53.6827 19.6457 53.057 18.6642 52.596 17.5811C52.135 16.4641 51.9045 15.2456 51.9045 13.8579C51.9045 12.4702 52.135 11.2178 52.596 10.1009C53.057 8.98395 53.7156 8.03623 54.5388 7.25775C55.362 6.47927 56.3169 5.87003 57.4365 5.43002C58.5561 5.02385 59.7415 4.78693 60.9928 4.78693C62.3099 4.78693 63.5612 4.99 64.6808 5.39617C65.8003 5.80233 66.7223 6.37773 67.4467 7.05467L64.8783 10.0332C64.4832 9.55935 63.9563 9.18703 63.3307 8.8824C62.6721 8.57778 61.9477 8.44239 61.1245 8.44239C60.4001 8.44239 59.7744 8.57778 59.1488 8.84856C58.5561 9.11934 58.0292 9.49165 57.6012 9.96551C57.1731 10.4394 56.8109 11.0148 56.5804 11.6579C56.3499 12.3009 56.2182 13.0456 56.2182 13.8241C56.2182 14.6025 56.3169 15.3472 56.5474 16.0241C56.7779 16.7011 57.1072 17.2764 57.5353 17.7503C57.9634 18.2242 58.4902 18.5965 59.1488 18.8673C59.7744 19.138 60.5318 19.2734 61.3221 19.2734C61.7831 19.2734 62.2441 19.2396 62.6721 19.1719C63.1002 19.1042 63.4953 18.9688 63.8575 18.8334V15.6856H60.6635V12.3348H67.5784V21.4396C66.7552 21.9135 65.8003 22.252 64.6808 22.5227Z" fill="#333333"/>
<path d="M70.7068 22.5229V4.14404H74.6582V22.5229H70.7068Z" fill="#333333"/>
<path d="M90.2002 16.3965C90.2002 17.3781 90.0356 18.2919 89.6734 19.0704C89.3112 19.8828 88.8502 20.5597 88.2575 21.1012C87.6647 21.6766 86.9732 22.0828 86.183 22.3874C85.3927 22.6921 84.5365 22.8613 83.6475 22.8613C82.7584 22.8613 81.9352 22.6921 81.112 22.3874C80.3217 22.0828 79.6302 21.6428 79.0375 21.1012C78.4448 20.5258 77.9838 19.8489 77.6216 19.0704C77.2594 18.2581 77.0947 17.3781 77.0947 16.3965C77.0947 15.415 77.2594 14.5011 77.6216 13.7226C77.9838 12.9441 78.4448 12.2672 79.0375 11.6918C79.6302 11.1502 80.3217 10.7102 81.112 10.4395C81.9023 10.1348 82.7584 9.99945 83.6475 9.99945C84.5365 9.99945 85.3927 10.1348 86.183 10.4395C86.9732 10.7441 87.6647 11.1502 88.2575 11.6918C88.8502 12.2333 89.3441 12.9103 89.6734 13.7226C90.0356 14.5349 90.2002 15.415 90.2002 16.3965ZM86.4793 16.3965C86.4793 16.0242 86.4135 15.618 86.2817 15.2457C86.15 14.8734 85.9854 14.5349 85.722 14.2642C85.4915 13.9934 85.1951 13.7565 84.8329 13.5872C84.4707 13.418 84.0755 13.3165 83.6145 13.3165C83.1536 13.3165 82.7584 13.418 82.3962 13.5872C82.034 13.7565 81.7706 13.9934 81.5401 14.2642C81.3096 14.5349 81.1449 14.8734 81.0132 15.2457C80.8815 15.618 80.8486 15.9904 80.8486 16.3965C80.8486 16.7688 80.9144 17.175 81.0132 17.5473C81.1449 17.9196 81.3096 18.2581 81.5401 18.5627C81.7706 18.8673 82.0669 19.1043 82.4291 19.2735C82.7913 19.4427 83.1865 19.5443 83.6475 19.5443C84.1085 19.5443 84.5036 19.4427 84.8658 19.2735C85.228 19.1043 85.4915 18.8673 85.7549 18.5627C85.9854 18.2581 86.183 17.9196 86.2817 17.5473C86.4135 17.175 86.4793 16.8027 86.4793 16.3965Z" fill="#333333"/>
<path d="M105.775 16.3966C105.775 17.2428 105.644 18.0551 105.413 18.8336C105.15 19.6121 104.788 20.289 104.327 20.8983C103.833 21.4737 103.273 21.9475 102.548 22.3199C101.857 22.6922 101.067 22.8614 100.178 22.8614C99.3874 22.8614 98.63 22.6922 97.9385 22.3537C97.247 22.0152 96.6872 21.5414 96.325 20.9321H96.2921V22.5229H92.7358V4.14404H96.6214V11.6919H96.6543C96.9836 11.2857 97.4446 10.9134 98.0373 10.575C98.63 10.2365 99.3544 10.0673 100.244 10.0673C101.1 10.0673 101.857 10.2365 102.548 10.575C103.24 10.9134 103.833 11.3873 104.294 11.9627C104.788 12.5381 105.15 13.215 105.413 13.9935C105.644 14.772 105.775 15.5505 105.775 16.3966ZM102.055 16.3966C102.055 16.0243 101.989 15.6182 101.89 15.2458C101.758 14.8735 101.594 14.5351 101.363 14.2643C101.133 13.9935 100.836 13.7566 100.474 13.5873C100.112 13.4181 99.7167 13.3166 99.2557 13.3166C98.8276 13.3166 98.4324 13.4181 98.0702 13.5873C97.708 13.7566 97.4117 13.9935 97.1812 14.2981C96.9507 14.6027 96.7531 14.9074 96.6214 15.2797C96.4897 15.652 96.4238 16.0243 96.4238 16.4305C96.4238 16.8366 96.4897 17.209 96.6214 17.5813C96.7531 17.9536 96.9507 18.2921 97.1812 18.5628C97.4117 18.8675 97.708 19.1044 98.0702 19.2736C98.4324 19.4429 98.7947 19.5444 99.2557 19.5444C99.7167 19.5444 100.112 19.4429 100.474 19.2736C100.836 19.1044 101.1 18.8675 101.363 18.5628C101.594 18.2582 101.791 17.9198 101.89 17.5474C101.989 17.1751 102.055 16.8028 102.055 16.3966Z" fill="#333333"/>
<path d="M108.08 12.0641C108.772 11.3871 109.595 10.8794 110.517 10.541C111.439 10.2025 112.394 10.0333 113.349 10.0333C114.337 10.0333 115.193 10.1686 115.884 10.4056C116.576 10.6425 117.136 11.0487 117.564 11.5564C117.992 12.0979 118.288 12.741 118.486 13.5533C118.683 14.3657 118.782 15.3134 118.782 16.3965V22.4889H115.226V21.2028H115.127C114.831 21.7105 114.37 22.0828 113.777 22.3535C113.184 22.6243 112.526 22.7597 111.801 22.7597C111.34 22.7597 110.846 22.692 110.319 22.5566C109.825 22.4212 109.364 22.2182 108.936 21.9135C108.508 21.6089 108.179 21.2366 107.916 20.7627C107.652 20.2889 107.521 19.6796 107.521 18.9689C107.521 18.0888 107.751 17.378 108.212 16.8703C108.673 16.3288 109.266 15.9226 110.023 15.618C110.747 15.3134 111.571 15.1441 112.46 15.0426C113.349 14.9411 114.238 14.9072 115.094 14.9072V14.738C115.094 14.1287 114.896 13.6887 114.468 13.418C114.073 13.1472 113.546 12.9779 112.954 12.9779C112.394 12.9779 111.867 13.1133 111.373 13.3503C110.846 13.5872 110.418 13.8918 110.056 14.2303L108.08 12.0641ZM115.193 17.2427H114.699C114.271 17.2427 113.843 17.2765 113.415 17.3104C112.987 17.3442 112.591 17.4119 112.262 17.5473C111.933 17.6488 111.637 17.8181 111.439 18.055C111.208 18.2581 111.11 18.5627 111.11 18.935C111.11 19.1719 111.176 19.3412 111.274 19.5104C111.373 19.6796 111.505 19.815 111.669 19.8827C111.834 19.9843 111.999 20.052 112.229 20.0858C112.427 20.1196 112.624 20.1535 112.822 20.1535C113.612 20.1535 114.205 19.9166 114.633 19.4766C115.061 19.0365 115.259 18.4273 115.259 17.6488V17.2427H115.193Z" fill="#333333"/>
<path d="M121.68 22.5229V4.14404H125.631V22.5229H121.68Z" fill="#333333"/>
<path d="M138.803 6.5471C138.803 6.85172 138.737 7.15634 138.638 7.39327C138.506 7.66405 138.374 7.90097 138.177 8.07021C137.979 8.27329 137.749 8.40868 137.452 8.54406C137.189 8.64561 136.893 8.7133 136.596 8.7133C135.971 8.7133 135.444 8.51022 135.016 8.07021C134.588 7.6302 134.39 7.12249 134.39 6.51325C134.39 6.20863 134.456 5.93785 134.555 5.66707C134.654 5.3963 134.818 5.15937 135.016 4.99014C135.213 4.78705 135.444 4.65167 135.74 4.51628C136.004 4.38089 136.3 4.34705 136.629 4.34705C136.926 4.34705 137.222 4.41474 137.485 4.51628C137.749 4.61782 138.012 4.78705 138.21 4.99014C138.407 5.19322 138.572 5.43015 138.671 5.66707C138.737 5.93785 138.803 6.20863 138.803 6.5471ZM134.654 22.5229V10.4056H138.539V22.5229H134.654Z" fill="#333333"/>
<path d="M157.44 13.858C157.44 15.3811 157.177 16.6673 156.617 17.7504C156.057 18.8335 155.366 19.7474 154.476 20.4582C153.587 21.169 152.567 21.6767 151.447 22.0151C150.328 22.3536 149.208 22.5228 148.055 22.5228H141.799V5.29474H147.858C149.043 5.29474 150.196 5.43012 151.348 5.73474C152.501 6.00552 153.522 6.47938 154.411 7.15632C155.3 7.79941 156.024 8.67943 156.584 9.79638C157.177 10.8795 157.44 12.2334 157.44 13.858ZM153.225 13.858C153.225 12.8765 153.061 12.0641 152.764 11.4549C152.468 10.8118 152.04 10.3041 151.546 9.93177C151.019 9.55945 150.459 9.28867 149.801 9.11944C149.142 8.95021 148.484 8.88251 147.792 8.88251H145.75V18.9351H147.66C148.385 18.9351 149.076 18.8335 149.768 18.6643C150.426 18.495 151.019 18.2243 151.546 17.8181C152.073 17.4458 152.468 16.9042 152.764 16.2611C153.093 15.6181 153.225 14.8057 153.225 13.858Z" fill="#333333"/>
<path d="M171.599 16.5996C171.599 16.7688 171.599 16.938 171.599 17.0734C171.599 17.2427 171.599 17.378 171.566 17.5473H163.038C163.071 17.8858 163.17 18.1904 163.334 18.4612C163.499 18.7319 163.696 18.9689 163.96 19.1719C164.223 19.375 164.52 19.5443 164.849 19.6458C165.178 19.7473 165.508 19.815 165.87 19.815C166.495 19.815 166.989 19.7135 167.417 19.4766C167.845 19.2396 168.175 18.935 168.471 18.5627L171.171 20.3227C170.611 21.1351 169.887 21.7782 168.998 22.2182C168.076 22.6582 167.022 22.8951 165.837 22.8951C164.948 22.8951 164.125 22.7597 163.334 22.4551C162.544 22.1843 161.852 21.7443 161.26 21.2028C160.667 20.6612 160.206 19.9843 159.877 19.2058C159.547 18.4273 159.383 17.5134 159.383 16.498C159.383 15.5165 159.547 14.6026 159.877 13.8241C160.206 13.0118 160.667 12.3349 161.227 11.7933C161.787 11.2179 162.478 10.8117 163.235 10.5071C163.993 10.2025 164.849 10.0333 165.738 10.0333C166.594 10.0333 167.417 10.1686 168.142 10.4733C168.866 10.7779 169.492 11.2179 170.019 11.7595C170.546 12.3349 170.941 13.0118 171.237 13.8241C171.435 14.6364 171.599 15.5503 171.599 16.5996ZM168.01 15.0765C168.01 14.4334 167.812 13.8918 167.417 13.4518C167.022 13.0118 166.462 12.7749 165.672 12.7749C165.31 12.7749 164.948 12.8426 164.618 12.9441C164.289 13.0795 164.026 13.2487 163.795 13.4518C163.565 13.6549 163.367 13.9257 163.235 14.1964C163.104 14.4672 163.005 14.7718 163.005 15.0765H168.01Z" fill="#333333"/>
<path d="M181.741 22.523V15.9228C181.741 15.5844 181.708 15.2459 181.642 14.9413C181.576 14.6367 181.511 14.3659 181.379 14.129C181.247 13.892 181.082 13.7228 180.852 13.5536C180.621 13.4182 180.325 13.3505 179.996 13.3505C179.634 13.3505 179.337 13.4182 179.074 13.5536C178.81 13.6889 178.613 13.892 178.415 14.129C178.251 14.3659 178.119 14.6367 178.02 14.9751C177.921 15.2798 177.888 15.6182 177.888 15.9567V22.523H173.97V10.4058H177.724V12.0981H177.757C177.888 11.8274 178.086 11.5904 178.317 11.3197C178.547 11.0827 178.81 10.8458 179.107 10.6766C179.403 10.5073 179.765 10.3381 180.128 10.2366C180.49 10.135 180.885 10.0673 181.28 10.0673C182.07 10.0673 182.729 10.2027 183.289 10.5073C183.848 10.812 184.277 11.1843 184.639 11.6243C184.968 12.0981 185.231 12.6058 185.363 13.2151C185.528 13.8243 185.594 14.3997 185.594 15.009V22.523H181.741Z" fill="#333333"/>
<path d="M192.772 13.3502V17.9872C192.772 18.5626 192.871 18.9688 193.102 19.2734C193.299 19.5442 193.694 19.7134 194.254 19.7134C194.452 19.7134 194.649 19.7134 194.847 19.6796C195.044 19.6457 195.242 19.6119 195.374 19.5442L195.407 22.455C195.143 22.5566 194.814 22.6243 194.386 22.7258C193.991 22.7935 193.563 22.8273 193.167 22.8273C192.377 22.8273 191.719 22.7258 191.192 22.5227C190.665 22.3196 190.237 22.015 189.908 21.6427C189.578 21.2704 189.348 20.7965 189.216 20.2888C189.084 19.7473 189.019 19.1719 189.019 18.5288V13.4179H187.142V10.4394H189.019V7.25775H192.838V10.4394H195.604V13.4179H192.772V13.3502Z" fill="#333333"/>
<path d="M201.597 6.5471C201.597 6.85172 201.531 7.15634 201.432 7.39327C201.301 7.66405 201.169 7.90097 200.971 8.07021C200.774 8.27329 200.543 8.40868 200.247 8.54406C199.983 8.64561 199.687 8.7133 199.391 8.7133C198.765 8.7133 198.238 8.51022 197.81 8.07021C197.382 7.6302 197.185 7.12249 197.185 6.51325C197.185 6.20863 197.25 5.93785 197.349 5.66707C197.448 5.3963 197.613 5.15937 197.81 4.99014C198.008 4.78705 198.238 4.65167 198.535 4.51628C198.798 4.38089 199.094 4.34705 199.424 4.34705C199.72 4.34705 200.016 4.41474 200.28 4.51628C200.543 4.61782 200.807 4.78705 201.004 4.99014C201.202 5.19322 201.366 5.43015 201.465 5.66707C201.531 5.93785 201.597 6.20863 201.597 6.5471ZM197.415 22.5229V10.4056H201.301V22.5229H197.415Z" fill="#333333"/>
<path d="M211.673 7.05474C211.542 7.02089 211.377 6.95319 211.179 6.91935C210.982 6.8855 210.817 6.8855 210.62 6.8855C210.257 6.8855 209.961 6.95319 209.73 7.08858C209.5 7.22397 209.335 7.3932 209.204 7.59629C209.072 7.79937 209.006 8.07015 208.94 8.34092C208.907 8.6117 208.874 8.88247 208.874 9.15325V10.3717H211.509V13.3503H208.874V22.4889H205.022V13.3503H202.881V10.3717H205.022V9.22094C205.022 8.47631 205.088 7.76552 205.252 7.08858C205.417 6.41164 205.68 5.83625 206.075 5.32854C206.471 4.82084 206.997 4.41468 207.623 4.11006C208.282 3.80543 209.105 3.67004 210.06 3.67004C210.389 3.67004 210.718 3.70389 211.048 3.73774C211.377 3.77158 211.673 3.83928 211.937 3.90697L211.673 7.05474ZM217.304 6.54703C217.304 6.85166 217.238 7.15628 217.139 7.39321C217.008 7.66398 216.843 7.90091 216.645 8.07015C216.448 8.27323 216.217 8.40861 215.921 8.544C215.658 8.64554 215.361 8.71324 215.065 8.71324C214.439 8.71324 213.912 8.51016 213.484 8.07015C213.056 7.63014 212.859 7.12243 212.859 6.51319C212.859 6.20856 212.924 5.93779 213.023 5.66701C213.122 5.39624 213.287 5.15931 213.484 4.99007C213.682 4.78699 213.912 4.65161 214.209 4.51622C214.472 4.38083 214.768 4.34698 215.098 4.34698C215.394 4.34698 215.69 4.41468 215.954 4.51622C216.217 4.61776 216.448 4.78699 216.678 4.99007C216.876 5.19315 217.041 5.43008 217.172 5.66701C217.271 5.93779 217.304 6.20856 217.304 6.54703ZM213.122 22.5228V10.4056H217.041V22.5228H213.122Z" fill="#333333"/>
<path d="M231.792 16.5996C231.792 16.7688 231.792 16.938 231.792 17.0734C231.792 17.2427 231.792 17.378 231.759 17.5473H223.231C223.264 17.8858 223.363 18.1904 223.527 18.4612C223.692 18.7319 223.89 18.9689 224.153 19.1719C224.416 19.375 224.713 19.5443 225.042 19.6458C225.371 19.7473 225.701 19.815 226.063 19.815C226.688 19.815 227.182 19.7135 227.61 19.4766C228.039 19.2396 228.368 18.935 228.664 18.5627L231.364 20.3227C230.805 21.1351 230.08 21.7782 229.191 22.2182C228.269 22.6582 227.215 22.8951 226.03 22.8951C225.141 22.8951 224.318 22.7597 223.527 22.4551C222.737 22.1843 222.046 21.7443 221.453 21.2028C220.86 20.6612 220.399 19.9843 220.07 19.2058C219.741 18.4273 219.576 17.5134 219.576 16.498C219.576 15.5165 219.741 14.6026 220.07 13.8241C220.399 13.0118 220.86 12.3349 221.42 11.7933C221.98 11.2179 222.671 10.8117 223.429 10.5071C224.186 10.2025 225.042 10.0333 225.931 10.0333C226.787 10.0333 227.61 10.1686 228.335 10.4733C229.059 10.7779 229.685 11.2179 230.212 11.7595C230.739 12.3349 231.134 13.0118 231.43 13.8241C231.661 14.6364 231.792 15.5503 231.792 16.5996ZM228.236 15.0765C228.236 14.4334 228.039 13.8918 227.643 13.4518C227.248 13.0118 226.688 12.7749 225.898 12.7749C225.536 12.7749 225.174 12.8426 224.844 12.9441C224.515 13.0795 224.252 13.2487 224.021 13.4518C223.791 13.6549 223.593 13.9257 223.461 14.1964C223.33 14.4672 223.231 14.7718 223.231 15.0765H228.236Z" fill="#333333"/>
<path d="M241.835 13.6887C241.671 13.6549 241.506 13.621 241.342 13.5872C241.177 13.5872 241.012 13.5533 240.848 13.5533C240.321 13.5533 239.893 13.6549 239.53 13.858C239.168 14.061 238.905 14.298 238.674 14.5687C238.477 14.8395 238.312 15.1441 238.213 15.4826C238.115 15.8211 238.082 16.0919 238.082 16.3288V22.5228H234.196V10.4394H237.95V12.1995H237.983C238.279 11.5902 238.707 11.0825 239.267 10.6763C239.827 10.2702 240.452 10.101 241.177 10.101C241.342 10.101 241.473 10.1009 241.638 10.1348C241.803 10.1348 241.901 10.1686 242 10.2025L241.835 13.6887Z" fill="#333333"/>
<path d="M0 13.2859C0 20.4602 5.68577 26.2859 12.6472 26.2859H20.6838L13.613 16.7138V21.5092H12.6472C8.23708 21.5092 4.64702 17.819 4.64702 13.2859C4.64702 8.75275 8.23708 5.06255 12.6472 5.06255H20.9389V0.285889H12.6472C5.66755 0.285889 0 6.13027 0 13.2859Z" fill="url(#paint0_linear_1554_14979)"/>
<path d="M31.0149 0.285889H22.9783L30.0491 9.85793V5.06255H31.0149C35.425 5.06255 39.0151 8.75275 39.0151 13.2859C39.0151 17.819 35.425 21.5092 31.0149 21.5092H22.7232V26.2859H31.0149C37.9946 26.2859 43.6621 20.4415 43.6621 13.2859C43.6621 6.13027 37.9946 0.285889 31.0149 0.285889Z" fill="url(#paint1_linear_1554_14979)"/>
<path d="M21.8337 18.7733C24.7826 18.7733 27.1732 16.3161 27.1732 13.2849C27.1732 10.2537 24.7826 7.79639 21.8337 7.79639C18.8847 7.79639 16.4941 10.2537 16.4941 13.2849C16.4941 16.3161 18.8847 18.7733 21.8337 18.7733Z" fill="url(#paint2_linear_1554_14979)"/>
<defs>
<linearGradient id="paint0_linear_1554_14979" x1="-0.801447" y1="22.8615" x2="44.5732" y2="23.7495" gradientUnits="userSpaceOnUse">
<stop stop-color="#CB1B31"/>
<stop offset="1" stop-color="#EF3F50"/>
</linearGradient>
<linearGradient id="paint1_linear_1554_14979" x1="-0.801447" y1="22.8615" x2="44.5732" y2="23.7495" gradientUnits="userSpaceOnUse">
<stop stop-color="#CB1B31"/>
<stop offset="1" stop-color="#EF3F50"/>
</linearGradient>
<linearGradient id="paint2_linear_1554_14979" x1="26.6768" y1="17.2176" x2="17.1331" y2="8.21866" gradientUnits="userSpaceOnUse">
<stop stop-color="#058F7A"/>
<stop offset="1" stop-color="#09B89D"/>
</linearGradient>
</defs>
</svg>
