<svg width="27" height="16" viewBox="0 0 27 16" fill="none" xmlns="http://www.w3.org/2000/svg">
<path d="M0 7.78589C0 11.9249 3.43613 15.2859 7.64319 15.2859H12.5L8.22689 9.76355V12.5301H7.64319C4.97799 12.5301 2.80838 10.4012 2.80838 7.78589C2.80838 5.17061 4.97799 3.04165 7.64319 3.04165H12.6542V0.285889H7.64319C3.42512 0.285889 0 3.65765 0 7.78589Z" fill="white"/>
<path d="M18.7435 0.285889H13.8867L18.1598 5.80822V3.04165H18.7435C21.4087 3.04165 23.5783 5.17061 23.5783 7.78589C23.5783 10.4012 21.4087 12.5301 18.7435 12.5301H13.7325V15.2859H18.7435C22.9616 15.2859 26.3867 11.9141 26.3867 7.78589C26.3867 3.65765 22.9616 0.285889 18.7435 0.285889Z" fill="white"/>
<path d="M13.1947 10.9518C14.9769 10.9518 16.4216 9.53417 16.4216 7.7854C16.4216 6.03664 14.9769 4.61898 13.1947 4.61898C11.4126 4.61898 9.96786 6.03664 9.96786 7.7854C9.96786 9.53417 11.4126 10.9518 13.1947 10.9518Z" fill="white"/>
</svg>
