<svg width="22" height="23" viewBox="0 0 22 23" fill="none" xmlns="http://www.w3.org/2000/svg">
<path d="M21.6562 8.57026V8.53589C20.3844 3.58589 15.9156 0.285889 11.0344 0.285889C10.1406 0.285889 9.21253 0.389014 8.31878 0.629639H8.25C3.3 1.90151 0 6.37026 0 11.2515C0 12.1453 0.103125 13.039 0.34375 13.8984C0.34375 13.9328 0.34375 13.9671 0.34375 14.0359C0.34375 14.0703 0.378125 14.139 0.4125 14.1734C1.71875 19.0546 6.11875 22.2859 10.9656 22.2859C11.8594 22.2859 12.7531 22.1828 13.6469 21.9421H13.6812C13.6812 21.9421 13.6813 21.9421 13.7156 21.9421H13.75C18.7 20.6703 22 16.2015 22 11.3203C22 10.4265 21.8969 9.49839 21.6562 8.57026ZM20.5906 8.43276L17.1875 9.29214C16.7062 7.53901 16.0187 5.95776 15.1594 4.65151C14.2312 3.20776 13.0969 2.07339 11.8937 1.38589C11.8594 1.35151 11.7906 1.31714 11.7563 1.31714C15.8125 1.59214 19.3875 4.34214 20.5906 8.43276ZM16.8781 13.9328C16.8781 15.3421 16.6719 16.614 16.3281 17.6796C15.95 18.7453 15.4344 19.6046 14.7812 20.189C14.5063 20.4296 14.2313 20.6359 13.8875 20.7734L11.5844 11.6984L16.5 10.4609C16.7406 11.664 16.8781 12.8328 16.8781 13.9328ZM11.4469 2.21089C12.1344 2.58901 12.8219 3.17339 13.4406 3.92964C14.6094 5.30464 15.6406 7.26401 16.2594 9.49839L11.3781 10.7359L9.075 1.66089C9.17812 1.66089 9.31563 1.62651 9.41875 1.62651C10.0719 1.62651 10.7594 1.83276 11.4469 2.21089ZM7.25313 2.48589C7.52813 2.24526 7.8375 2.03901 8.14688 1.90151L10.45 10.9765L5.56875 12.214C5.29375 11.0109 5.19063 9.84214 5.19063 8.74214C5.19063 7.33276 5.39688 6.06089 5.74063 4.99526C6.05 3.92964 6.6 3.07026 7.25313 2.48589ZM10.6562 11.939L12.9594 21.014C12.8562 21.014 12.7188 21.0484 12.6156 21.0484C11.9625 21.0484 11.275 20.8421 10.5875 20.464C9.9 20.0859 9.2125 19.5015 8.59375 18.7453C7.425 17.3703 6.39375 15.4453 5.775 13.1765L10.6562 11.939ZM5.70625 2.79526C5.53438 3.03589 5.39687 3.27651 5.25938 3.55151C4.5375 4.96089 4.15938 6.74839 4.15938 8.74214C4.15938 9.94526 4.29688 11.1828 4.57188 12.4546L1.20312 13.314C1.06562 12.6265 0.996875 11.939 0.996875 11.2515C0.9625 7.81401 2.78438 4.58276 5.70625 2.79526ZM1.44375 14.2765L4.8125 13.4171C5.29375 15.1703 5.98125 16.7515 6.84062 18.0578C7.76875 19.4671 8.83438 20.5671 10.0375 21.289C6.11875 20.8765 2.64687 18.1953 1.44375 14.2765ZM16.4312 19.7078C16.5344 19.5359 16.6719 19.3296 16.775 19.1234C17.4969 17.714 17.875 15.9265 17.875 13.9328C17.875 12.764 17.7375 11.4921 17.4625 10.2203L20.8656 9.36089C21.0031 10.014 21.0719 10.6671 21.0719 11.3203C21.0375 14.7234 19.2844 17.8859 16.4312 19.7078Z" fill="#3F6587"/>
</svg>
