<svg width="22" height="23" viewBox="0 0 22 23" fill="none" xmlns="http://www.w3.org/2000/svg">
<path d="M21.6562 8.94673V8.91235C20.3844 3.96235 15.9156 0.662354 11.0344 0.662354C10.1406 0.662354 9.21253 0.765479 8.31878 1.0061H8.25C3.3 2.27798 0 6.74673 0 11.628C0 12.5217 0.103125 13.4155 0.34375 14.2749C0.34375 14.3092 0.34375 14.3436 0.34375 14.4124C0.34375 14.4467 0.378125 14.5155 0.4125 14.5499C1.71875 19.4311 6.11875 22.6624 10.9656 22.6624C11.8594 22.6624 12.7531 22.5592 13.6469 22.3186H13.6812C13.6812 22.3186 13.6813 22.3186 13.7156 22.3186H13.75C18.7 21.0467 22 16.578 22 11.6967C22 10.803 21.8969 9.87485 21.6562 8.94673ZM20.5906 8.80923L17.1875 9.6686C16.7062 7.91548 16.0187 6.33423 15.1594 5.02798C14.2312 3.58423 13.0969 2.44985 11.8937 1.76235C11.8594 1.72798 11.7906 1.6936 11.7563 1.6936C15.8125 1.9686 19.3875 4.7186 20.5906 8.80923ZM16.8781 14.3092C16.8781 15.7186 16.6719 16.9905 16.3281 18.0561C15.95 19.1217 15.4344 19.9811 14.7812 20.5655C14.5063 20.8061 14.2313 21.0124 13.8875 21.1499L11.5844 12.0749L16.5 10.8374C16.7406 12.0405 16.8781 13.2092 16.8781 14.3092ZM11.4469 2.58735C12.1344 2.96548 12.8219 3.54985 13.4406 4.3061C14.6094 5.6811 15.6406 7.64048 16.2594 9.87485L11.3781 11.1124L9.075 2.03735C9.17812 2.03735 9.31563 2.00298 9.41875 2.00298C10.0719 2.00298 10.7594 2.20923 11.4469 2.58735ZM7.25313 2.86235C7.52813 2.62173 7.8375 2.41548 8.14688 2.27798L10.45 11.353L5.56875 12.5905C5.29375 11.3874 5.19063 10.2186 5.19063 9.1186C5.19063 7.70923 5.39688 6.43735 5.74063 5.37173C6.05 4.3061 6.6 3.44673 7.25313 2.86235ZM10.6562 12.3155L12.9594 21.3905C12.8562 21.3905 12.7188 21.4249 12.6156 21.4249C11.9625 21.4249 11.275 21.2186 10.5875 20.8405C9.9 20.4624 9.2125 19.878 8.59375 19.1217C7.425 17.7467 6.39375 15.8217 5.775 13.553L10.6562 12.3155ZM5.70625 3.17173C5.53438 3.41235 5.39687 3.65298 5.25938 3.92798C4.5375 5.33735 4.15938 7.12485 4.15938 9.1186C4.15938 10.3217 4.29688 11.5592 4.57188 12.8311L1.20312 13.6905C1.06562 13.003 0.996875 12.3155 0.996875 11.628C0.9625 8.19048 2.78438 4.95923 5.70625 3.17173ZM1.44375 14.653L4.8125 13.7936C5.29375 15.5467 5.98125 17.128 6.84062 18.4342C7.76875 19.8436 8.83438 20.9436 10.0375 21.6655C6.11875 21.253 2.64687 18.5717 1.44375 14.653ZM16.4312 20.0842C16.5344 19.9124 16.6719 19.7061 16.775 19.4999C17.4969 18.0905 17.875 16.303 17.875 14.3092C17.875 13.1405 17.7375 11.8686 17.4625 10.5967L20.8656 9.73735C21.0031 10.3905 21.0719 11.0436 21.0719 11.6967C21.0375 15.0999 19.2844 18.2624 16.4312 20.0842Z" fill="#F3F6F9"/>
</svg>
