<svg width="218" height="237" viewBox="0 0 218 237" fill="none" xmlns="http://www.w3.org/2000/svg">
<g opacity="0.3" clip-path="url(#clip0_1715_18671)">
<path d="M214.857 246.503H132.572V200.119C196.743 193.236 246.857 138.942 246.857 73.1279C246.857 38.7039 232.6 5.71699 207.8 -18.2932L218.086 -28.5588C218.972 -29.477 219.429 -30.6404 219.429 -31.8096C219.429 -34.2408 217.467 -36.3721 214.857 -36.3721C213.688 -36.3721 212.518 -35.9265 211.625 -35.0353L174.911 1.60732C158.4 -11.2783 138.743 -18.1221 118.857 -18.1221C93.8859 -18.1221 27.6574 1.60504 27.6574 72.5576C27.6574 92.5243 34.2174 112.525 47.2516 129.11C47.1945 129.19 47.1088 129.19 47.0516 129.19L10.4802 165.69C9.58878 166.602 9.14307 167.287 9.14307 168.94C9.14307 171.372 11.1048 173.503 13.7145 173.503C14.8842 173.503 16.0539 173.057 16.9465 172.166L27.2379 161.895C51.3202 186.62 84.4002 200.878 118.857 200.878C120.401 200.878 121.899 200.702 123.429 200.646V246.503H41.1431C38.6162 246.503 36.5716 248.553 36.5716 251.065C36.5716 253.578 38.6162 255.628 41.1431 255.628H214.857C217.384 255.628 219.429 253.578 219.429 251.065C219.429 248.553 217.372 246.503 214.857 246.503ZM36.6231 73.1279C36.6231 27.9307 73.1888 -8.99707 118.852 -8.99707C164.497 -8.99707 201.08 27.9079 201.08 73.1279C201.08 118.325 164.515 155.253 118.852 155.253C73.2002 155.253 36.6231 118.354 36.6231 73.1279ZM33.6859 155.481L53.0116 136.193C59.4859 142.877 81.2574 163.865 118.857 163.865C167.583 163.865 210.286 124.713 210.286 73.1279C210.286 35.6185 188.732 13.8725 182.017 7.42793L201.337 -11.8543C224.435 10.4791 237.669 41.2304 237.669 73.2363C237.669 138.651 184.383 191.804 118.869 191.804C86.8002 191.753 56.0688 178.522 33.6859 155.481Z" fill="#90B9D5"/>
<path d="M167.338 25.621C141.217 -1.56959 97.9205 -2.4783 70.6767 23.5923C43.4329 49.6628 42.5224 92.8747 68.6439 120.065C94.7655 147.256 137.885 147.98 165.128 121.909C192.372 95.8388 193.46 52.8116 167.338 25.621ZM158.997 115.527C154.404 119.923 149.271 123.404 143.831 126.031L129.132 110.73C133.919 107.334 138.662 103.479 143.226 99.1111C147.791 94.743 151.849 90.1762 155.45 85.545L170.149 100.846C167.293 106.17 163.582 111.14 158.997 115.527ZM75.2236 113.769C68.8696 107.155 70.8973 91.5278 81.5956 74.3936L114.736 108.89C97.1373 118.834 81.5716 120.377 75.2236 113.769ZM86.8721 66.7409C90.3527 62.1892 94.398 57.6092 99.0654 53.1428C103.733 48.6764 108.487 44.8178 113.186 41.5506L149.125 78.9608C145.657 83.5089 141.598 88.0834 136.927 92.5537C132.255 97.0241 127.505 100.879 122.807 104.146L86.8721 66.7409ZM76.9853 30.159C81.5787 25.7634 86.7115 22.2826 92.1515 19.6555L106.851 34.9561C102.063 38.3527 97.3206 42.2071 92.756 46.5752C88.1914 50.9432 84.1335 55.5101 80.532 60.1413L65.8329 44.8407C68.695 39.522 72.4001 34.5468 76.9853 30.159ZM160.759 31.9173C167.113 38.5313 165.085 54.1584 154.387 71.2926L121.071 36.6139C138.672 26.6641 154.411 25.3095 160.759 31.9173ZM174.064 91.7749L160.855 78.0257C167.105 68.4487 171.133 58.8558 172.675 50.2198C178.16 63.4752 178.619 78.2778 174.064 91.7749ZM142.942 19.2698C134.228 20.4401 124.479 24.0579 114.605 29.8829L101.389 16.1255C115.094 12.1524 129.899 13.2393 142.942 19.2698ZM61.9108 53.9032L75.1273 67.6606C68.8777 77.2375 64.8495 86.8305 63.3076 95.4664C57.8167 82.217 57.3573 67.4023 61.9108 53.9032ZM93.0491 126.409C101.757 125.244 111.504 121.628 121.377 115.803L134.598 129.565C120.883 133.528 106.078 132.453 93.0491 126.409Z" fill="#90B9D5"/>
</g>
<defs>
<clipPath id="clip0_1715_18671">
<rect width="256" height="292" fill="white" transform="translate(0 -36.3721)"/>
</clipPath>
</defs>
</svg>
