<svg width="27" height="31" viewBox="0 0 27 31" fill="none" xmlns="http://www.w3.org/2000/svg">
<path d="M1.4294 22.7584L2.50757 23.3809L14.5188 2.57737L13.4407 1.95487L1.4294 22.7584Z" fill="#4F4F4F"/>
<path d="M25.2069 21.0967H1.18445V22.3417H25.2069V21.0967Z" fill="#4F4F4F"/>
<path d="M1.6593 21.7949L13.675 28.7324L14.2975 27.6543L2.2818 20.7168L1.6593 21.7949Z" fill="#4F4F4F"/>
<path d="M12.0989 3.71485L24.1146 10.6523L24.7371 9.57417L12.7214 2.63668L12.0989 3.71485Z" fill="#4F4F4F"/>
<path d="M1.66376 9.56831L2.28625 10.6465L14.302 3.70899L13.6795 2.63082L1.66376 9.56831Z" fill="#4F4F4F"/>
<path d="M11.8803 2.57836L23.8916 23.3818L24.9698 22.7593L12.9585 1.95586L11.8803 2.57836Z" fill="#4F4F4F"/>
<path d="M3.38147 8.74414H2.13647V22.6191H3.38147V8.74414Z" fill="#4F4F4F"/>
<path d="M24.2615 8.74414H23.0165V22.6191H24.2615V8.74414Z" fill="#4F4F4F"/>
<path d="M12.9185 27.2643L13.4623 28.2061L23.9127 22.1723L23.369 21.2305L12.9185 27.2643Z" fill="#4F4F4F"/>
<path d="M25.9122 23.0256C25.1922 24.2781 23.5872 24.7056 22.3347 23.9856C21.0822 23.2656 20.6547 21.6606 21.3747 20.4081C22.0947 19.1556 23.6997 18.7281 24.9522 19.4481C26.2122 20.1756 26.6397 21.7731 25.9122 23.0256Z" fill="#4F4F4F"/>
<path d="M5.01676 10.9573C4.29676 12.2098 2.69176 12.6373 1.43927 11.9173C0.186766 11.1973 -0.240734 9.59227 0.479266 8.33978C1.19927 7.08728 2.80426 6.65978 4.05676 7.37978C5.30926 8.10728 5.73676 9.70477 5.01676 10.9573Z" fill="#4F4F4F"/>
<path d="M0.487322 23.0256C-0.232678 21.7731 0.194822 20.1756 1.44732 19.4481C2.69982 18.7281 4.29732 19.1556 5.02482 20.4081C5.74482 21.6606 5.31732 23.2581 4.06482 23.9856C2.80482 24.7056 1.20732 24.2781 0.487322 23.0256Z" fill="#4F4F4F"/>
<path d="M21.3808 10.9573C20.6608 9.70477 21.0883 8.10728 22.3408 7.37978C23.5933 6.65978 25.1908 7.08728 25.9183 8.33978C26.6383 9.59227 26.2108 11.1898 24.9583 11.9173C23.7058 12.6373 22.1008 12.2098 21.3808 10.9573Z" fill="#4F4F4F"/>
<path d="M13.1984 30.3678C11.7509 30.3678 10.5809 29.1978 10.5809 27.7503C10.5809 26.3028 11.7509 25.1328 13.1984 25.1328C14.6459 25.1328 15.8159 26.3028 15.8159 27.7503C15.8159 29.1903 14.6459 30.3678 13.1984 30.3678Z" fill="#4F4F4F"/>
<path d="M13.1984 6.23207C11.7509 6.23207 10.5809 5.06207 10.5809 3.61457C10.5809 2.16707 11.7509 0.99707 13.1984 0.99707C14.6459 0.99707 15.8159 2.16707 15.8159 3.61457C15.8159 5.06207 14.6459 6.23207 13.1984 6.23207Z" fill="#4F4F4F"/>
</svg>
