<svg width="18" height="17" viewBox="0 0 18 17" fill="none" xmlns="http://www.w3.org/2000/svg">
<path d="M15.1022 13.3174C14.5477 13.4628 13.9653 13.521 13.4385 13.7246C14.3536 12.9101 14.2981 11.6592 14.8804 10.6993C15.0745 10.4375 15.2409 10.1466 15.4627 9.88477C15.1022 10.6702 15.2686 11.6592 14.825 12.4156C14.6586 12.7065 14.4367 12.9974 14.1872 13.2301C14.2704 13.2301 14.3536 13.1428 14.409 13.1137C15.1022 12.3865 15.9896 12.2119 16.7383 11.6301C17.0433 11.3683 17.2929 11.0484 17.4315 10.6993C17.2929 11.8629 16.156 12.9683 15.1022 13.3174Z" fill="#333333"/>
<path d="M17.5704 8.51746C17.2377 9.01199 16.8217 9.47742 16.5167 10.001C16.5444 9.59378 16.5999 9.09925 16.4335 8.72109C16.1839 7.90657 15.9344 7.06297 15.8789 6.16119V5.81212C16.073 6.74299 16.9326 7.35387 16.8772 8.4011C16.9049 8.66291 16.8217 8.86654 16.7663 9.07016L16.794 9.09925L16.8217 9.04107C16.9604 8.54655 17.0158 7.99384 17.2099 7.52841C17.4872 6.85935 17.8477 6.16119 17.7091 5.34668C18.1527 6.30664 18.0141 7.61568 17.5704 8.51746Z" fill="#333333"/>
<path d="M17.0156 3.31106C17.5702 4.12558 17.7089 5.40552 17.2929 6.30731C17.1265 6.68547 17.0433 7.12182 16.9602 7.55816C16.9324 7.47089 16.9324 7.38363 16.9047 7.29636C16.6829 6.39458 15.8787 5.7546 15.546 4.911C15.435 4.6201 15.3518 4.35829 15.2964 4.03831C15.6569 4.73646 16.5442 5.08554 16.7661 5.84187C16.877 6.0455 16.8492 6.27822 16.9324 6.48184C16.9324 6.48184 16.9602 6.48184 16.9602 6.45275C16.8492 5.66733 16.877 4.85282 16.9879 4.0674C16.9879 3.66014 16.9324 3.25289 16.7106 2.90381C16.877 3.02017 16.9324 3.16562 17.0156 3.31106Z" fill="#333333"/>
<path d="M16.6274 3.16628C16.766 3.86443 16.5719 4.56259 16.6828 5.26074C16.3223 4.50441 15.5459 4.15533 15.019 3.54444C14.714 3.19537 14.5754 2.75902 14.4922 2.29359C14.7972 3.07901 15.6291 3.22446 16.1005 3.89352C16.2669 4.03897 16.3223 4.2426 16.4055 4.41714L16.4333 4.38805C16.156 3.77716 16.0728 3.1081 15.8787 2.43904C15.7955 2.14814 15.6014 1.88633 15.3518 1.71179C15.9619 1.85724 16.4887 2.5263 16.6274 3.16628Z" fill="#333333"/>
<path d="M14.9637 1.53739C15.4351 1.97373 15.6292 2.55553 15.7679 3.13732L15.8511 3.31186C15.1856 2.78824 14.5478 2.11918 14.1318 1.39194L13.605 0.839233C14.0764 1.04286 14.5755 1.15922 14.9637 1.53739Z" fill="#333333"/>
<path d="M4.25997 0.926636C3.78857 1.36298 3.45581 1.91569 3.12306 2.41021C2.81803 2.81747 2.40209 3.07928 2.06934 3.42835C2.26344 3.0211 2.26344 2.52657 2.54074 2.1484C2.90122 1.45025 3.62219 1.18844 4.25997 0.926636Z" fill="#333333"/>
<path d="M1.68127 2.438C1.9031 2.1471 2.20813 1.94347 2.51315 1.8562C1.87538 2.32164 1.93083 3.13615 1.709 3.80521C1.65354 4.06702 1.54262 4.29974 1.48716 4.53246H1.51489C1.62581 4.24156 1.79219 3.97975 2.04175 3.71794C2.48543 3.2816 3.15093 3.01979 3.37277 2.37982C3.37277 3.2816 2.6518 3.97975 1.98629 4.47428C1.709 4.73608 1.4317 5.02698 1.29306 5.34697C1.26533 5.11425 1.32078 4.88153 1.32078 4.64882C1.20987 3.89248 1.18214 3.01979 1.68127 2.438Z" fill="#333333"/>
<path d="M0.405906 5.08502C0.378176 4.2996 0.710931 3.65963 1.12687 3.04874L1.1546 3.01965C0.683201 3.80508 1.07141 4.76504 1.04369 5.63773L0.988226 6.53951C0.988226 6.53951 0.988226 6.5686 1.01596 6.5686C1.04369 6.48133 1.04369 6.36497 1.07141 6.24861C1.18233 5.52137 1.79238 4.99775 2.31924 4.50323C2.43016 4.35778 2.54108 4.24142 2.59654 4.09597C2.54108 4.44505 2.45789 4.82322 2.29151 5.1432C1.87557 5.9868 1.12687 6.65587 0.988226 7.61583C0.960497 6.74314 0.350447 6.07407 0.405906 5.08502Z" fill="#333333"/>
<path d="M0.0452727 6.22053C0.100732 5.95872 0.156191 5.726 0.239379 5.49329C0.0452727 6.54052 0.710782 7.29685 0.932618 8.19863C1.01581 8.54771 1.04354 8.89678 1.18218 9.21677C1.18218 9.21677 1.20991 9.21677 1.20991 9.18768C0.877159 8.22772 1.34856 7.32594 1.81996 6.56961C1.93088 6.36598 2.01407 6.13326 2.06953 5.90054C2.12499 6.33689 2.01407 6.83141 1.95861 7.29685C1.84769 7.87864 1.68132 8.43135 1.51494 8.98405C1.40402 9.33313 1.43175 9.74039 1.48721 10.0895L1.43175 10.0604C1.07127 9.39131 0.405757 8.86769 0.18392 8.14045C0.0452727 7.52957 -0.0656454 6.8605 0.0452727 6.22053Z" fill="#333333"/>
<path d="M0.0180085 8.25718C0.101197 9.36259 1.23811 9.94438 1.76497 10.8753C1.87589 11.0498 1.98681 11.2825 2.15318 11.428C2.12545 11.3116 2.01454 11.2243 1.98681 11.0789C1.7927 10.7007 1.73724 10.2353 1.7927 9.76985C1.84816 9.21714 2.06999 8.69353 1.98681 8.08264C2.45821 9.12987 2.31956 10.4389 2.56913 11.5734C2.62458 11.8352 2.76323 12.0388 2.87415 12.2716C1.90362 11.6025 0.600329 10.9625 0.184386 9.71167C-0.00972103 9.27532 -0.00972101 8.7517 0.0180085 8.25718Z" fill="#333333"/>
<path d="M0.572266 10.8174C1.09913 12.0683 2.43014 12.1847 3.31749 12.941C3.48387 13.0864 3.65024 13.2319 3.84435 13.3192C3.65024 13.1155 3.40068 12.9119 3.26203 12.6501C2.73517 11.8938 2.92928 10.8174 2.54106 10.0029C2.90155 10.4393 3.20657 10.9047 3.42841 11.4283C3.73343 12.2428 3.87208 13.1737 4.59305 13.8137C3.78889 13.5519 2.87382 13.6101 2.15285 13.0864C1.40415 12.5628 0.738643 11.7192 0.572266 10.8174Z" fill="#333333"/>
<path d="M1.9585 13.1442C2.81811 14.1624 4.20459 13.8133 5.31377 14.0751C5.48015 14.1042 5.6188 14.1624 5.78517 14.1333C5.64652 14.046 5.45242 14.046 5.31377 13.9587C4.42642 13.6387 4.28778 12.6206 3.81638 11.9515C4.42642 12.3879 4.95329 12.9697 5.50788 13.5224C5.92382 13.9005 6.39522 14.0751 6.92208 14.1914C6.81117 14.2496 6.64479 14.2205 6.50614 14.2496C5.59107 14.4823 4.53734 14.8896 3.56681 14.5405C2.92903 14.3369 2.26352 13.8133 1.9585 13.1442Z" fill="#333333"/>
<path d="M13.4663 15.5004C12.4958 15.8786 11.4975 15.4713 10.7766 14.8895C10.4715 14.6859 10.1942 14.395 9.80602 14.4241C9.66737 14.4241 9.52872 14.4241 9.4178 14.4532C10.1388 14.8023 10.8043 15.2968 11.4421 15.9077C11.3311 16.024 11.1925 16.1404 11.0816 16.2568C10.4993 15.5877 9.83375 14.9477 9.08505 14.5696C8.9464 14.5987 8.80775 14.6859 8.66911 14.7441C8.05906 15.1514 7.47674 15.6459 7.03306 16.2859L6.64485 15.9659C7.2549 15.3259 7.92041 14.8023 8.66911 14.4532C7.94814 14.2205 7.47674 14.8605 6.92214 15.1804C6.28437 15.6459 5.34156 15.8786 4.56513 15.5586C4.14919 15.3841 3.73325 15.1514 3.42822 14.7441C4.03827 15.1804 4.95335 15.2386 5.64659 14.9477C6.58939 14.5114 7.55992 13.9878 8.66911 14.2496C8.83548 14.2496 9.00186 14.4241 9.16824 14.2787C10.0001 14.0459 10.9429 14.2205 11.6639 14.5987L12.4126 14.9186C13.1058 15.1804 13.9932 15.1223 14.5755 14.6859C14.3259 15.0641 13.91 15.355 13.4663 15.5004Z" fill="#333333"/>
<path d="M14.4924 14.4809C13.4109 14.9173 12.3295 14.3936 11.3035 14.2191L11.1094 14.19C11.6085 14.0737 12.0799 13.9282 12.4681 13.55C13.0504 12.9683 13.5496 12.3574 14.1874 11.921C13.716 12.561 13.6605 13.4628 12.8841 13.87C12.69 14.0155 12.4404 14.0155 12.2463 14.1318C12.5236 14.1318 12.8009 14.0446 13.0782 14.0155C14.1319 13.8409 15.3243 14.0155 16.073 13.0846C15.7957 13.6955 15.1302 14.2482 14.4924 14.4809Z" fill="#333333"/>
<path d="M16.4611 11.3115C16.0452 11.6024 15.6015 11.8642 15.1855 12.2132V12.1842C15.8233 11.1078 15.5183 9.59517 15.8788 8.4025L16.0174 7.99524C15.9342 8.75157 16.2393 9.36246 16.2115 10.1188C16.1838 10.5842 16.0452 10.9624 15.8233 11.3406H15.8511C16.1561 10.9333 16.4056 10.4679 16.7661 10.0606C17.3207 9.50791 17.8753 8.92611 17.9585 8.14069C18.1803 9.42064 17.4871 10.5551 16.4611 11.3115Z" fill="#333333"/>
<path d="M14.7421 4.09664C13.6884 1.76946 11.3869 0.285889 9.00213 0.285889C7.94841 0.314978 6.97788 0.547696 6.09053 1.01313C4.50995 1.79855 3.23439 3.51485 2.81844 5.20205C2.12521 8.05285 3.06801 10.9327 5.39729 12.6199C7.06106 13.8708 9.75083 14.1326 11.6364 13.1435C13.3002 12.4163 14.7421 10.6127 15.1858 8.80918C15.6018 7.26742 15.4077 5.43477 14.7421 4.09664ZM15.0472 6.45291C15.0749 6.56927 15.0472 6.71472 15.1026 6.80199L14.1876 6.83108C14.1598 6.86017 14.1321 6.86017 14.1044 6.86017L14.1321 6.83108C14.1044 6.07474 13.938 5.40568 13.6607 4.76571C13.6607 4.47481 13.3834 4.27118 13.2725 4.03846C13.0784 3.89301 12.9952 3.63121 12.7733 3.48576C12.7179 3.42758 12.7179 3.34031 12.6347 3.34031L12.7456 3.31122C12.9675 3.0785 13.217 2.84578 13.3834 2.58398C14.3262 3.68939 14.9363 4.96933 15.0472 6.45291ZM12.4406 10.06C12.3574 9.97277 12.3574 9.82732 12.2188 9.82732C12.1633 9.82732 12.1633 9.85641 12.1633 9.91459C12.1633 9.94368 12.1633 9.97277 12.1633 9.97277L11.886 9.71096C12.0247 9.62369 12.1356 9.44915 12.2188 9.3037C12.4961 8.92554 12.6347 8.4601 12.7733 8.02376C12.8288 8.05285 12.8843 8.05285 12.912 8.02376C12.9675 7.99467 12.9675 7.9074 12.9397 7.87831L12.8288 7.76195C12.8565 7.55832 12.8843 7.35469 12.8843 7.15106L12.9675 7.18015C13.2725 7.18015 13.5775 7.20924 13.8548 7.18015L13.7716 7.23833C13.6884 8.4601 13.3002 9.53642 12.4961 10.4382C12.5515 10.2928 12.4406 10.2055 12.4406 10.06ZM11.6919 11.0491C11.5255 10.8745 11.8028 10.7582 11.8583 10.6127C11.8305 10.4673 11.6642 10.38 11.5255 10.3218C11.4701 10.2928 11.4978 10.2055 11.4701 10.1473C11.5255 10.0891 11.581 10.0309 11.6087 9.94368L11.6364 10.0019L12.0247 10.4382C12.0247 10.5255 12.0524 10.6127 12.1356 10.6709C12.191 10.7 12.2188 10.6418 12.2742 10.6709H12.2465C12.0801 10.8745 11.8583 11.02 11.6919 11.1654L11.6364 11.2236C11.6364 11.1364 11.7474 11.1073 11.6919 11.0491ZM9.91721 5.84203C9.86175 5.87112 9.80629 5.90021 9.75083 5.87112C9.69537 5.81294 9.61218 5.72567 9.52899 5.72567C9.47353 5.75476 9.41807 5.81294 9.36262 5.78385C9.47353 5.6384 9.66764 5.6384 9.77856 5.43477C9.80629 5.3475 9.83402 5.26023 9.80629 5.17296C9.77856 5.14387 9.7231 5.08569 9.69537 5.14387C9.63991 5.26023 9.47353 5.28932 9.41807 5.40568L9.19624 5.31841C9.16851 5.08569 9.22397 4.82389 9.14078 4.62026C9.2517 4.67844 9.39034 4.67844 9.52899 4.70753C9.86175 4.7948 10.139 4.96933 10.4441 5.14387C10.3886 5.17296 10.3054 5.26023 10.25 5.31841C10.25 5.37659 10.3054 5.3475 10.3331 5.40568L10.3886 5.37659C10.2777 5.60931 9.94494 5.58022 9.91721 5.84203ZM10.1945 8.63464C10.1945 8.751 10.0281 8.751 9.94494 8.83827C9.88948 8.80918 9.94494 8.78009 9.94494 8.751C10.0281 8.66373 10.0836 8.60555 10.1945 8.63464ZM11.9969 5.40568C12.1078 5.43477 12.1633 5.55113 12.2742 5.58022C12.3574 5.72567 12.4129 5.90021 12.4406 6.07474C12.3574 6.16201 12.3574 6.39473 12.1633 6.36564C12.1078 6.24928 12.2465 6.1911 12.2188 6.10383C12.2465 6.07474 12.3019 6.07474 12.3019 6.01656C12.3019 5.9293 12.1633 5.9293 12.1633 5.84203C12.1356 5.78385 12.0801 5.78385 12.0247 5.78385C11.9137 5.72567 11.7751 6.04565 11.7474 5.78385C11.7751 5.75476 11.8028 5.69658 11.7751 5.66749C11.6642 5.60931 11.6642 5.46386 11.5532 5.40568C11.3869 5.40568 11.2482 5.3475 11.1096 5.37659C10.9987 5.3475 10.8877 5.28932 10.8323 5.40568C10.8323 5.49295 10.7768 5.55113 10.7768 5.6384C10.7491 5.60931 10.7214 5.58022 10.6936 5.55113C10.9709 5.23114 11.3037 4.88206 11.581 4.56208L11.6087 4.53299C11.7474 4.73662 11.9137 4.91116 12.0247 5.11478C12.0247 5.20205 11.8028 5.3475 11.9969 5.40568ZM12.5515 7.18015C12.4961 7.35469 12.4961 7.55832 12.4683 7.76195C12.4683 7.79104 12.4683 7.82013 12.4406 7.84922C12.3851 7.73286 12.3297 7.58741 12.2188 7.52923C12.1078 7.47105 12.191 7.3256 12.0801 7.23833L11.9692 7.12197C12.1356 7.20924 12.3574 7.20924 12.5515 7.18015ZM11.2205 4.35845C11.0541 4.56208 10.8323 4.73662 10.6936 4.94024L10.6659 4.88206C10.25 4.53299 9.75083 4.35845 9.22397 4.27118L9.14078 4.30027V3.39849L9.11305 3.31122C9.47353 3.3694 9.80629 3.42758 10.139 3.54394C10.555 3.68939 10.9432 3.9221 11.276 4.24209L11.3591 4.27118L11.2205 4.35845ZM10.3609 9.3037C10.6382 9.33279 10.9155 9.39097 11.165 9.50733C11.2205 9.50733 11.3037 9.50733 11.3314 9.44915C11.3037 9.33279 11.4423 9.27461 11.4423 9.18734C11.4978 9.10008 11.4701 8.95463 11.5255 8.89645C11.5255 8.78009 11.5255 8.63464 11.4423 8.54737C11.3591 8.48919 11.3037 8.54737 11.2482 8.57646C11.165 8.63464 11.1928 8.80918 11.0541 8.78009C11.0264 8.83827 10.9709 8.83827 10.9155 8.80918C10.9155 8.78009 10.8877 8.78009 10.8877 8.78009C10.9709 8.72191 11.165 8.751 11.165 8.60555C11.2482 8.54737 11.3314 8.57646 11.4146 8.48919C11.4701 8.40192 11.4978 8.34374 11.5532 8.25647C11.5532 8.22738 11.581 8.19829 11.581 8.14011C11.6087 8.19829 11.6087 8.25647 11.6642 8.28556C11.7474 8.31465 11.7751 8.25647 11.8028 8.19829C11.8028 8.1692 11.8305 8.14011 11.8583 8.1692C11.9415 8.22738 12.0524 8.1692 12.1356 8.19829C12.2188 8.1692 12.3019 8.14011 12.3851 8.14011C12.3019 8.51828 12.1356 8.83827 11.9137 9.18734C11.8305 9.3037 11.7751 9.39097 11.6642 9.50733C11.6364 9.42006 11.6364 9.33279 11.581 9.24552H11.5532C11.4978 9.36188 11.3869 9.44915 11.4146 9.56551C11.3314 9.68187 11.1373 9.5946 11.0264 9.65278C10.8877 9.71096 10.8046 9.56551 10.6936 9.53642C10.5827 9.47824 10.4441 9.47824 10.3054 9.42006C10.3054 9.33279 10.3331 9.3037 10.3609 9.3037ZM9.75083 0.693145C11.0264 0.867683 12.1633 1.42039 13.1338 2.38035L13.0229 2.43853C12.8565 2.64216 12.6347 2.7876 12.5515 3.02032C12.5515 2.96214 12.4406 2.90396 12.4129 2.84578C12.3851 2.67125 12.2188 2.49671 12.0801 2.38035C11.9415 2.35126 11.9137 2.14763 11.7751 2.20581C11.6364 2.08945 11.4978 2.17672 11.3591 2.2349V2.26399C10.7491 1.91491 10.0836 1.6822 9.33489 1.62402C9.30716 1.62402 9.27943 1.65311 9.2517 1.65311C9.27943 1.62402 9.27943 1.53675 9.27943 1.50766C9.2517 1.47857 9.22397 1.42039 9.16851 1.44948C9.14078 1.47857 9.14078 1.50766 9.14078 1.53675C9.16851 1.24585 9.16851 0.867683 9.14078 0.605875C9.33489 0.664055 9.55672 0.634965 9.75083 0.693145ZM9.50126 2.03127C10.0559 2.08945 10.555 2.26399 11.0541 2.49671C11.1373 2.61307 11.276 2.67125 11.276 2.81669C11.1928 3.02032 11.5255 3.02032 11.3869 3.22395C11.3869 3.28213 11.4423 3.34031 11.4423 3.3694C11.4701 3.42758 11.4423 3.51485 11.4978 3.54394C11.6087 3.57303 11.6642 3.39849 11.7751 3.45667C11.9137 3.57303 11.9692 3.74757 11.9692 3.9221C11.9969 4.03846 12.0801 4.09664 12.1633 4.15482C12.3574 4.09664 12.2742 4.32936 12.3851 4.35845C12.5238 4.38754 12.607 4.56208 12.7733 4.56208C12.912 4.67844 12.9952 4.85298 13.1338 4.96933C13.1338 4.99842 13.1338 5.02751 13.1616 5.02751C13.2448 5.0566 13.3002 4.99842 13.3557 4.99842C13.6052 5.52204 13.7162 6.10383 13.7716 6.74381L13.7993 6.80199C13.4943 6.80199 13.1893 6.80199 12.8565 6.83108C12.8565 6.62745 12.8565 6.45291 12.7456 6.27837C12.8011 6.1911 12.8011 6.04565 12.8011 5.9293C12.7733 5.87112 12.7456 5.9293 12.7179 5.9293C12.607 6.04565 12.607 6.1911 12.5515 6.30746C12.4683 6.42382 12.4406 6.62745 12.4961 6.7729L12.5238 6.80199H12.1633C12.2465 6.74381 12.0801 6.62745 12.1633 6.54018L12.3297 6.51109C12.3851 6.39473 12.4961 6.30746 12.4961 6.16201C12.5792 6.07474 12.6347 5.95838 12.5792 5.84203C12.4961 5.66749 12.7179 5.46386 12.5515 5.28932C12.5792 5.23114 12.5238 5.17296 12.4683 5.17296C12.4129 5.14387 12.3574 5.17296 12.3574 5.08569C12.3851 5.02751 12.4683 4.99842 12.4406 4.91115C12.4129 4.85298 12.3297 4.91115 12.3019 4.91115C12.3019 4.82389 12.4406 4.73662 12.3019 4.67844C12.2188 4.64935 12.1633 4.76571 12.0801 4.73662C12.0524 4.70753 12.0247 4.64935 12.0524 4.59117L11.8583 4.32936C11.8305 4.30027 11.7751 4.32936 11.7751 4.30027C11.7751 4.09664 11.5532 3.98028 11.5532 3.80575C11.4701 3.74757 11.5255 3.60212 11.4423 3.54394C11.3869 3.51485 11.3314 3.45667 11.276 3.48576C11.1928 3.3694 11.1096 3.25304 10.9987 3.13668C10.9709 3.13668 10.9432 3.13668 10.9432 3.16577C10.9709 3.25304 11.0541 3.31122 11.0541 3.42758C11.0264 3.42758 11.0264 3.42758 11.0264 3.42758C11.0264 3.51485 11.1096 3.60212 11.165 3.6603C10.6659 3.25304 10.0836 3.04941 9.4458 2.93305C9.33489 2.93305 9.19624 2.87487 9.08532 2.93305C9.11305 2.64216 9.08532 2.32217 9.11305 2.00218V1.97309C9.2517 2.03127 9.36262 2.00218 9.50126 2.03127ZM8.9744 5.87112L9.02986 5.90021C8.9744 5.90021 8.89121 5.87112 8.83575 5.90021C8.80802 5.9293 8.83575 5.98747 8.83575 6.01656C8.94667 6.07474 8.9744 6.24928 9.14078 6.1911C9.19624 6.1911 9.27943 6.22019 9.30716 6.30746C9.39035 6.33655 9.41807 6.51109 9.52899 6.482C9.52899 6.54018 9.50126 6.65654 9.58445 6.71472C9.55672 6.7729 9.50126 6.80199 9.50126 6.86017C9.47353 6.88926 9.47353 6.91835 9.50126 6.94744C9.61218 6.94744 9.61218 7.09288 9.66764 7.18015C9.63991 7.26742 9.66764 7.38378 9.75083 7.44196C9.75083 7.55832 9.69537 7.64559 9.63991 7.76195C9.52899 7.82013 9.30716 7.67468 9.27943 7.9074C9.19624 7.99467 9.27943 8.1692 9.14078 8.1692C8.89121 8.19829 8.64165 8.14011 8.44754 7.96558C8.58619 7.9074 8.80802 7.99467 8.83575 7.79104C8.86348 7.76195 8.89121 7.70377 8.86348 7.67468C8.91894 7.6165 8.94667 7.52923 8.9744 7.44196C8.91894 7.38378 8.94667 7.35469 8.94667 7.29651C8.80802 7.15106 8.64165 7.23833 8.47527 7.23833C8.36435 7.29651 8.47527 7.41287 8.39208 7.47105C8.25343 7.50014 8.25343 7.6165 8.17024 7.70377C8.11479 7.67468 8.08706 7.6165 8.08706 7.55832H8.11479C8.11479 7.58741 8.11479 7.6165 8.14252 7.6165C8.25343 7.64559 8.2257 7.50014 8.25343 7.44196C8.28116 7.35469 8.44754 7.23833 8.30889 7.18015C8.30889 7.15106 8.33662 7.09288 8.28116 7.09288C8.2257 7.12197 8.17024 7.12197 8.17024 7.18015C8.19797 7.23833 8.17025 7.29651 8.11479 7.35469H8.08706C8.08706 7.3256 8.05933 7.29651 8.0316 7.26742C7.94841 7.26742 7.89295 7.3256 7.83749 7.29651C7.72657 7.3256 7.61565 7.3256 7.50474 7.35469C7.50474 7.29651 7.58792 7.29651 7.61565 7.23833C7.58792 7.15106 7.67111 7.06379 7.69884 7.00562C7.72657 6.97653 7.78203 6.97653 7.80976 7.00562C7.83749 7.03471 7.86522 7.06379 7.89295 7.0347L7.92068 6.97653C8.00387 7.0347 7.97614 7.3256 8.14252 7.20924C8.17025 7.09288 8.14252 6.94744 8.19797 6.83108C8.14252 6.71472 8.25343 6.68563 8.30889 6.59836C8.41981 6.59836 8.39208 6.482 8.44754 6.42382C8.58619 6.36564 8.75256 6.33655 8.86348 6.16201C8.83575 6.07474 8.86348 5.95838 8.78029 5.90021C8.80802 5.84203 8.91894 5.81294 8.9744 5.87112ZM8.83575 12.0672L8.75257 12.009C7.5602 11.9509 6.56193 11.4273 5.67459 10.6127C5.81323 10.5837 5.86869 10.7873 6.03507 10.7582C6.20145 10.7291 6.3401 10.5837 6.5342 10.6127C6.61739 10.6127 6.72831 10.6127 6.78377 10.5255C6.8115 10.4382 6.70058 10.38 6.70058 10.2928C7.31063 10.7582 7.97614 11.0491 8.75257 11.1073L8.83575 11.0782V11.9509V12.0672ZM5.48048 7.26742L5.42502 7.18015C5.50821 7.26742 5.61913 7.23833 5.73005 7.20924C5.56367 7.26742 5.61913 7.47105 5.56367 7.58741C5.56367 7.64559 5.64686 7.67468 5.61913 7.73286C5.53594 7.76195 5.53594 7.84922 5.50821 7.93649C5.56367 7.67468 5.48048 7.47105 5.48048 7.26742ZM4.50995 8.40192C4.42676 8.40192 4.45449 8.51828 4.39903 8.54737C4.39903 8.31465 4.31584 8.08193 4.28811 7.84922L4.20492 7.23833L4.17719 7.18015C4.45449 7.20924 4.75951 7.20924 5.06454 7.20924L5.14773 7.18015C5.12 7.3256 5.12 7.52923 5.23091 7.67468C5.20318 7.64559 5.14773 7.52923 5.06454 7.52923C4.89816 7.52923 4.89816 7.76195 4.73178 7.76195C4.59314 7.87831 4.56541 8.05285 4.53768 8.19829C4.59313 8.28556 4.48222 8.34374 4.50995 8.40192ZM5.17545 6.86017L5.09227 6.83108L4.20492 6.86017C4.28811 5.84203 4.56541 4.91116 5.12 4.09664L5.45275 3.63121V3.57303C5.64686 3.83483 5.89642 4.06755 6.11826 4.27118C5.48048 4.96933 5.17546 5.84203 5.09227 6.7729C5.14773 6.80199 5.12 6.83108 5.17545 6.86017ZM8.78029 2.96214C8.61392 2.93305 8.44754 2.99123 8.28116 2.99123C7.5602 3.13668 6.92242 3.45667 6.36783 4.00937L6.3401 3.95119C6.11826 3.74757 5.92415 3.48576 5.70232 3.31122C5.89642 3.19486 6.09053 2.99123 6.28464 2.84578C7.03333 2.32217 7.86522 2.03127 8.78029 1.97309C8.75257 2.32217 8.78029 2.64216 8.78029 2.96214ZM7.36609 8.02376C7.36609 8.05285 7.39382 8.08193 7.44928 8.05285C7.47701 7.99467 7.36609 7.9074 7.44928 7.87831C7.50474 7.93649 7.47701 8.05285 7.50474 8.11102C7.53247 8.14011 7.53247 8.19829 7.53247 8.25647C7.44928 8.37283 7.33836 8.4601 7.25517 8.57646C7.19971 8.43101 7.06106 8.31465 7.0056 8.14011C6.92242 7.96558 6.86696 7.76195 6.78377 7.58741C6.86696 7.67468 7.06106 7.58741 7.06106 7.76195C7.06106 7.76195 7.08879 7.76195 7.11652 7.76195C7.14425 7.73286 7.14425 7.73286 7.17198 7.73286C7.19971 7.76195 7.25517 7.79104 7.19971 7.82013C7.22744 7.93649 7.2829 7.99467 7.36609 8.02376ZM8.30889 10.6127L8.47527 10.7C7.92068 10.5546 7.33836 10.3509 6.83923 9.94368C6.75604 9.8855 6.70058 9.76914 6.58966 9.76914C6.8115 9.56551 7.03333 9.33279 7.22744 9.10008C7.31063 9.27461 7.47701 9.36188 7.61565 9.44915C7.86522 9.56551 8.11479 9.76914 8.39208 9.71096C8.30889 9.74005 8.2257 9.79823 8.14252 9.8855C8.11479 9.97277 8.11479 10.1182 8.00387 10.1473C8.0316 10.3218 8.19797 10.4673 8.30889 10.6127ZM6.28464 9.44915L6.25691 9.24552C6.0628 9.07099 6.11826 8.78009 6.09053 8.57646C5.95188 8.4601 6.0628 8.28556 5.97961 8.1692C5.97961 7.96558 5.70232 7.9074 5.7855 7.70377C5.75778 7.64559 5.70232 7.58741 5.75778 7.50014C5.81323 7.44196 5.95188 7.50014 5.97961 7.41287L6.00734 7.23833C6.0628 7.20924 6.17372 7.29651 6.20145 7.18015C6.25691 7.00561 5.97961 6.80199 6.22918 6.71472C6.31237 6.71472 6.42328 6.68563 6.47874 6.80199C6.50647 6.91835 6.5342 7.06379 6.47874 7.20924C6.56193 7.23833 6.47874 7.3256 6.47874 7.38378C6.42328 7.41287 6.36783 7.47105 6.31237 7.44196C6.28464 7.38378 6.22918 7.3256 6.17372 7.3256C6.11826 7.38378 6.20145 7.47105 6.17372 7.55832C6.14599 7.6165 6.17372 7.64559 6.14599 7.70377C6.11826 7.67468 6.09053 7.67468 6.0628 7.67468C6.00734 7.70377 6.03507 7.76195 6.0628 7.79104C6.11826 7.82013 6.17372 7.87831 6.22918 7.87831L6.25691 7.84922C6.25691 7.73286 6.28464 7.64559 6.31237 7.55832L6.39555 7.6165C6.47874 8.02376 6.67285 8.40192 6.89469 8.751L7.0056 8.86736C6.72831 9.12916 6.42328 9.44915 6.17372 9.74005C6.17372 9.74005 6.17372 9.68187 6.11826 9.68187C6.11826 9.53642 6.31237 9.5946 6.28464 9.44915ZM6.70058 5.49295C6.61739 5.55113 6.5342 5.6384 6.47874 5.72567C6.39555 5.78385 6.31237 5.78385 6.22918 5.87112C6.22918 5.90021 6.28464 5.95838 6.22918 5.98747C6.14599 6.07474 6.00734 5.95838 5.97961 6.10383C5.97961 6.22019 5.81323 6.30746 5.84096 6.42382C5.78551 6.45291 5.7855 6.56927 5.7855 6.65654C5.81323 6.71472 5.75778 6.80199 5.84096 6.86017C5.73005 6.83108 5.56367 6.83108 5.45275 6.88926C5.50821 6.74381 5.50821 6.54018 5.53594 6.39473C5.64686 5.69658 5.95188 5.08569 6.39555 4.53299C6.61739 4.76571 6.83923 5.02751 7.08879 5.23114C6.92242 5.20205 6.89469 5.49295 6.70058 5.49295ZM8.66938 9.10008C8.61392 9.18734 8.66938 9.3037 8.64165 9.39097C8.2257 9.3037 7.83749 9.12916 7.50474 8.83827C7.69884 8.60555 7.94841 8.40192 8.08706 8.1692C8.11479 8.28556 8.2257 8.31465 8.30889 8.37283C8.47527 8.4601 8.69711 8.57646 8.89121 8.48919C8.86348 8.48919 8.86348 8.51828 8.83575 8.51828C8.89121 8.57646 8.80802 8.63464 8.86348 8.69282C8.86348 8.751 8.80802 8.72191 8.80802 8.751C8.83575 8.80918 8.80802 8.92554 8.89121 8.92554C8.91894 8.95463 8.89121 9.01281 8.86348 9.01281C8.80802 9.01281 8.72484 9.01281 8.66938 9.10008ZM7.64338 8.08194C7.69884 8.02376 7.7543 7.93649 7.78203 7.87831L7.89295 7.93649C7.78203 7.93649 7.72657 8.02376 7.64338 8.08194ZM8.53073 5.3475C8.503 5.28932 8.55846 5.26023 8.503 5.23114C8.36435 5.28932 8.41981 5.46386 8.30889 5.58022C8.28116 5.66749 8.19797 5.60931 8.14252 5.66749C8.11479 5.60931 8.0316 5.60931 7.97614 5.6384C7.89295 5.6384 7.89295 5.46386 7.80976 5.55113C7.78203 5.58022 7.80976 5.6384 7.72657 5.60931C7.72657 5.58022 7.69884 5.58022 7.67111 5.58022C7.67111 5.52204 7.7543 5.52204 7.72657 5.46386C7.67111 5.3475 7.53247 5.37659 7.47701 5.28932H7.39382C7.78203 4.88206 8.25343 4.67844 8.75257 4.62026C8.75257 4.85298 8.72484 5.14387 8.80802 5.3475C8.75257 5.26023 8.64165 5.40568 8.53073 5.3475ZM8.80802 4.27118C8.64165 4.24209 8.47527 4.30027 8.33662 4.32936C7.97614 4.41663 7.67111 4.62026 7.36609 4.85298C7.33836 4.88206 7.33836 4.91115 7.31063 4.94024C7.08879 4.73662 6.86696 4.44572 6.61739 4.27118C7.22744 3.74757 7.92068 3.39849 8.75257 3.31122L8.80802 3.28213C8.75257 3.60212 8.75257 3.95119 8.80802 4.27118ZM5.34183 1.91491C6.3401 1.15858 7.47701 0.693145 8.78029 0.634965L8.75257 0.722235V1.53675L8.78029 1.62402C7.53247 1.6822 6.45101 2.17672 5.53594 3.04941L5.50821 3.10759C5.28637 2.87487 5.06454 2.58398 4.81497 2.40944H4.78724C4.98135 2.26399 5.14773 2.06036 5.34183 1.91491ZM2.95709 6.24928C3.12347 4.85298 3.67806 3.6603 4.59314 2.58398L4.62086 2.67125C4.8427 2.90396 5.06454 3.13668 5.25864 3.34031C5.09227 3.45667 4.98135 3.68939 4.8427 3.86392C4.26038 4.70753 3.95536 5.66749 3.87217 6.74381L3.8999 6.88926C3.56714 6.86017 3.23439 6.86017 2.90163 6.88926C2.95709 6.65654 2.92936 6.45291 2.95709 6.24928ZM3.70579 10.1473C3.23439 9.24552 2.98482 8.28556 2.92936 7.20924H3.81671L3.8999 7.18015C3.8999 7.23833 3.8999 7.29651 3.8999 7.35469C3.87217 7.38378 3.92763 7.38378 3.92763 7.41287C3.95536 7.76195 4.01081 8.11102 4.094 8.43101L4.14946 8.48919C4.094 8.43101 4.06627 8.34374 4.01081 8.28556C3.92763 8.28556 3.84444 8.31465 3.81671 8.37283C3.84444 8.4601 3.76125 8.43101 3.70579 8.4601C3.70579 8.43101 3.67806 8.40192 3.65033 8.40192C3.59487 8.40192 3.51168 8.40192 3.48395 8.48919C3.48395 8.54737 3.42849 8.57646 3.42849 8.60555C3.40076 8.751 3.37304 8.95463 3.45622 9.07098C3.45622 9.18734 3.51168 9.27461 3.59487 9.36188C3.6226 9.36188 3.65033 9.33279 3.67806 9.33279C3.76125 9.39097 3.81671 9.56551 3.92763 9.53642C3.95536 9.50733 3.95536 9.47824 3.95536 9.44915C4.01081 9.50733 4.06627 9.65278 4.17719 9.65278C4.20492 9.68187 4.23265 9.74005 4.28811 9.74005C4.42676 9.71096 4.3713 9.91459 4.48222 9.94368C4.56541 10.0019 4.59313 10.1182 4.70405 10.06L4.73178 10.0019C4.75951 10.0309 4.73178 10.0891 4.75951 10.1182C4.81497 10.2346 4.92589 10.2928 5.03681 10.3218C5.12 10.4382 5.23091 10.5546 5.34183 10.6418L5.17545 10.7291L4.53768 11.4273C4.26038 10.9909 3.92763 10.5837 3.70579 10.1473ZM8.19797 13.3181C6.92242 13.1435 5.7855 12.5618 4.78724 11.66L5.45275 10.9618V10.9327C6.36782 11.8636 7.44928 12.2999 8.69711 12.4163L8.80802 12.3872L8.78029 12.4454V13.3472L8.83575 13.4344C8.64165 13.3472 8.39208 13.3472 8.19797 13.3181ZM8.9744 9.53642C8.89121 9.53642 8.83575 9.53642 8.78029 9.50733C8.75257 9.50733 8.75257 9.47824 8.75257 9.44915C8.83575 9.44915 8.89121 9.33279 9.00213 9.36188C9.05759 9.3037 9.05759 9.21643 9.14078 9.18734C9.11305 9.10008 9.22397 9.15826 9.2517 9.10008C9.27943 9.07099 9.30716 9.0419 9.36262 9.07098C9.41807 9.15825 9.55672 9.12917 9.61218 9.24552C9.63991 9.24552 9.63991 9.21643 9.63991 9.18734V9.15825C9.75083 9.15825 9.80629 9.3037 9.88948 9.18734C9.91721 9.15825 9.91721 9.10008 9.88948 9.10008C9.88948 9.10008 9.86175 9.10007 9.86175 9.07098C9.94494 9.0419 9.97267 9.18734 10.0559 9.12916C10.139 9.07099 10.1945 8.98372 10.2777 8.98372L10.3054 9.01281C10.3331 9.21643 10.1668 9.33279 10.0281 9.42006C9.94494 9.44915 9.77856 9.44915 9.77856 9.5946C9.66764 9.68187 9.58445 9.53642 9.4458 9.56551C9.39035 9.53642 9.4458 9.44915 9.36262 9.42006C9.22397 9.50733 9.05759 9.36188 8.9744 9.53642ZM9.19624 11.2236C9.30716 11.2818 9.50126 11.1654 9.58445 11.3109C9.55672 11.3982 9.50126 11.4563 9.50126 11.5436C9.55672 11.66 9.61218 11.8345 9.77856 11.8345C9.80629 11.8927 9.86175 11.8927 9.91721 11.9218C9.66764 11.98 9.39034 11.9509 9.14078 12.0381C9.16851 11.7763 9.14078 11.4854 9.14078 11.2236L9.11305 11.1654C9.14078 11.1654 9.16851 11.1945 9.19624 11.2236ZM9.22397 13.3763L9.16851 13.4054C9.19624 13.0563 9.19624 12.7072 9.16851 12.3581C9.33489 12.4163 9.50126 12.3581 9.66764 12.3581L10.1668 12.2709C10.4163 12.329 10.5827 12.7363 10.86 12.4745C10.9432 12.3581 11.1096 12.3581 11.165 12.2127C11.3314 12.1545 11.3591 11.98 11.4701 11.8927C11.581 11.5727 11.9137 11.5436 12.1078 11.3109C12.2465 11.1654 12.4683 11.0491 12.5515 10.8745L12.5792 10.9618L13.2448 11.6309C12.0801 12.6781 10.7491 13.289 9.22397 13.3763ZM15.0749 7.23833C15.0194 8.80918 14.4648 10.1473 13.4943 11.3109L13.4666 11.3691C13.2725 11.1364 12.9952 10.8455 12.7456 10.6418C12.8843 10.5255 12.9952 10.3509 13.1338 10.2055C13.7439 9.33279 14.1044 8.34374 14.1321 7.23833L14.1044 7.15106L14.1598 7.18015H15.0749L15.1304 7.15106L15.0749 7.23833Z" fill="#333333"/>
<path d="M11.8306 2.00155C11.8306 2.03064 11.8306 2.05973 11.8583 2.08882C11.9969 2.147 11.9969 2.35063 12.191 2.29245C12.2465 2.23427 12.1633 2.17609 12.1633 2.08882C12.1356 2.03064 12.0801 2.00155 12.0247 1.97246C11.9415 2.03064 11.886 1.91428 11.8306 2.00155Z" fill="#333333"/>
<path d="M9.27919 1.42102C9.44557 1.65374 9.7506 1.50829 9.9447 1.4792C10.1111 1.53738 10.2497 1.4792 10.3606 1.36284V1.33375C10.2497 1.18831 10.0556 1.15922 9.86151 1.13013L9.39011 1.33375C9.36238 1.30467 9.27919 1.30467 9.25146 1.36284C9.25146 1.39193 9.27919 1.39193 9.27919 1.42102Z" fill="#333333"/>
</svg>
