<svg width="211" height="170" viewBox="0 0 211 170" fill="none" xmlns="http://www.w3.org/2000/svg">
<path opacity="0.5" d="M205.061 69.8673L169.608 90.5297L169.608 75.8187C169.608 71.5905 166.177 68.16 161.949 68.16H108.051V88.3119C108.051 96.7715 101.193 103.629 92.7338 103.629C84.2742 103.629 77.4165 96.7683 77.4165 88.3119L77.4289 45.4234C77.4289 44.0298 77.7694 42.702 78.3129 41.4728C78.3584 41.3668 78.3933 41.2559 78.4419 41.1524C79.0402 39.9158 79.8667 38.7903 80.9131 37.8655C81.333 37.4941 81.7306 37.1041 82.2157 36.8013C92.4655 30.4127 104.301 27.0269 116.392 27.0269H136.359L169.355 7.96005C174.222 5.16783 180.486 6.84316 183.316 11.7096L208.829 55.9384C211.603 60.8045 209.943 67.0591 205.061 69.8673Z" fill="#BCD4E7"/>
<path opacity="0.5" d="M169.32 75.2601L169.32 90.5774C169.32 94.8057 165.889 98.2361 161.661 98.2361H159.108V113.557C159.108 122.016 152.251 128.874 143.791 128.874C143.791 140.123 134.617 149.297 123.368 149.297H79.7773L46.7812 168.364C41.9148 171.156 35.6506 169.481 32.8201 164.614L7.29125 120.386C4.45914 115.519 6.17436 109.255 11.0408 106.463L36.5697 91.7039C36.5697 75.1867 45.2272 59.879 59.3829 51.3683L80.9006 37.5986C78.7399 39.5095 77.4159 42.2194 77.4159 45.1584V88.3118C77.4159 96.7714 84.2736 103.629 92.7332 103.629C101.193 103.629 108.051 96.7682 108.051 88.3118V67.6014H161.661C165.905 67.6014 169.32 71.3031 169.32 75.2601Z" fill="white"/>
<path d="M55.621 47.4976L63.4392 42.8002C64.6458 42.0822 65.0399 40.5068 64.3116 39.2996C63.5668 38.371 62.0032 37.988 60.7906 38.722L52.9724 43.4129C38.5485 52.0608 29.4475 67.6973 28.9433 84.4506L2.07766 100.47C0.865999 101.198 0.46711 102.763 1.19022 103.971C1.66888 104.768 2.51644 105.217 3.3841 105.217C3.83277 105.217 4.28144 105.097 4.69054 104.858L34.0296 87.358V85.9121C34.0172 70.4097 42.2821 55.7944 55.621 47.4976ZM156.556 59.2727H108.338C106.927 59.2727 106.072 60.4196 106.072 61.5384C106.072 62.6572 107.214 63.8041 108.338 63.8041H156.556C159.373 63.8041 161.374 66.0976 161.374 68.6227V83.6528C161.374 86.4648 159.086 88.4714 156.556 88.4714H151.737V106.054C151.737 113.094 146.012 118.532 139.26 118.532H136.994V120.797C136.994 130.648 128.978 138.38 119.411 138.38H74.6719L40.4632 156.56C39.2267 157.228 38.763 158.784 39.436 160.019C39.8888 163.463 40.7823 163.941 41.6758 163.941C42.0897 163.941 42.5017 163.841 42.8904 163.632L75.312 146.071H118.264C130.126 146.071 139.919 137.037 141.116 125.479C149.828 124.292 156.558 116.803 156.558 107.778V95.0132C162.187 95.0132 166.482 90.4371 166.482 85.0888V69.4843C166.767 63.868 162.204 59.2727 156.556 59.2727Z" fill="white"/>
<path d="M100.105 79.9829C100.105 88.1426 93.522 95.0131 85.0751 95.0131C76.6506 95.0131 69.7578 88.1522 69.7705 79.7117V39.3761C69.7705 34.9596 72.0107 30.9298 75.7602 28.5965C86.4217 21.659 98.7011 18.436 111.277 18.436H130.548L160.348 0.899558C161.546 0.171666 163.121 0.590659 163.839 1.80711C164.557 3.0242 164.148 4.58976 162.932 5.30776L131.908 23.5258H111.252C99.6425 23.5258 88.2949 26.7648 78.4472 32.9077C76.2348 34.283 74.8635 36.7574 74.8635 39.3601V79.6957C74.8635 85.344 80.3076 89.6169 85.6495 89.6169C90.9914 89.6169 95.5738 85.328 95.5738 79.6925V51.614C95.5738 50.4952 96.7156 49.3483 97.8395 49.3483C98.9634 49.3483 100.105 50.208 100.105 51.614V79.9829Z" fill="white"/>
<path d="M201.027 59.7293C202.184 58.9417 203.779 59.2008 204.582 60.3576C205.412 61.5383 205.125 63.102 203.959 63.9189L191.338 72.7104L178.718 81.5019C178.269 81.8109 177.76 81.9605 177.252 81.9605C176.449 81.9605 175.656 81.5817 175.162 80.8736C174.35 79.7155 174.634 78.12 175.786 77.3123L201.027 59.7293Z" fill="white"/>
</svg>
