<svg width="1182" height="447" viewBox="0 0 1182 447" fill="none" xmlns="http://www.w3.org/2000/svg">
<g clip-path="url(#clip0_1944_9542)">
<path d="M0 4.00001C0 1.79087 1.79086 0 4 0H1178C1180.21 0 1182 1.79086 1182 4V444C1182 446.209 1180.21 448 1178 448H4.00002C1.79088 448 0 446.209 0 444V4.00001Z" fill="#F37A20"/>
<path d="M0 4.00001C0 1.79087 1.79086 0 4 0H1178C1180.21 0 1182 1.79086 1182 4V444C1182 446.209 1180.21 448 1178 448H4.00002C1.79088 448 0 446.209 0 444V4.00001Z" fill="url(#paint0_linear_1944_9542)" fill-opacity="0.5"/>
<g opacity="0.85" filter="url(#filter0_d_1944_9542)">
<path d="M193.444 383L215.666 384.081V396.514V408.946L193.444 383Z" fill="white"/>
<path d="M193.444 383L215.666 384.081V396.514V408.946L193.444 383Z" fill="url(#paint1_linear_1944_9542)"/>
<path d="M237.888 408.946L215.666 408.946L215.666 384.081L237.888 408.946Z" fill="white"/>
<path d="M237.888 408.946L215.666 408.946L215.666 384.081L237.888 408.946Z" fill="url(#paint2_linear_1944_9542)"/>
<path d="M193.444 383L171.222 384.081V408.946L193.444 383Z" fill="white"/>
<path d="M193.444 383L171.222 384.081V408.946L193.444 383Z" fill="url(#paint3_linear_1944_9542)"/>
<path d="M148.999 408.946L171.222 408.946L171.222 384.081L148.999 408.946Z" fill="white"/>
<path d="M148.999 408.946L171.222 408.946L171.222 384.081L148.999 408.946Z" fill="url(#paint4_linear_1944_9542)"/>
<path d="M171.222 408.946L193.444 383L215.666 408.946L171.222 408.946Z" fill="white"/>
<path d="M171.222 408.946L193.444 383L215.666 408.946L171.222 408.946Z" fill="url(#paint5_linear_1944_9542)"/>
<path d="M171.222 408.946L193.444 463L215.666 408.946L171.222 408.946Z" fill="white"/>
<path d="M171.222 408.946L193.444 463L215.666 408.946L171.222 408.946Z" fill="url(#paint6_linear_1944_9542)"/>
<path d="M215.667 408.946H237.889L193.444 463L215.667 408.946Z" fill="white"/>
<path d="M215.667 408.946H237.889L193.444 463L215.667 408.946Z" fill="url(#paint7_linear_1944_9542)"/>
<path d="M171.222 408.946H149L193.444 463L171.222 408.946Z" fill="white"/>
<path d="M171.222 408.946H149L193.444 463L171.222 408.946Z" fill="url(#paint8_linear_1944_9542)"/>
</g>
<g filter="url(#filter1_d_1944_9542)">
<path d="M21.5 -18L48.75 -16.6486V-1.10811V14.4324L21.5 -18Z" fill="white"/>
<path d="M21.5 -18L48.75 -16.6486V-1.10811V14.4324L21.5 -18Z" fill="url(#paint9_linear_1944_9542)"/>
<path d="M76 14.4326L48.75 14.4326L48.75 -16.6485L76 14.4326Z" fill="white"/>
<path d="M76 14.4326L48.75 14.4326L48.75 -16.6485L76 14.4326Z" fill="url(#paint10_linear_1944_9542)"/>
<path d="M21.5 -18L-5.75 -16.6486V14.4324L21.5 -18Z" fill="white"/>
<path d="M21.5 -18L-5.75 -16.6486V14.4324L21.5 -18Z" fill="url(#paint11_linear_1944_9542)"/>
<path d="M-5.75 14.4324L21.5 -18L48.75 14.4324L-5.75 14.4324Z" fill="white"/>
<path d="M-5.75 14.4324L21.5 -18L48.75 14.4324L-5.75 14.4324Z" fill="url(#paint12_linear_1944_9542)"/>
<path d="M-5.75 14.4326L21.5 82.0002L48.75 14.4326L-5.75 14.4326Z" fill="white"/>
<path d="M-5.75 14.4326L21.5 82.0002L48.75 14.4326L-5.75 14.4326Z" fill="url(#paint13_linear_1944_9542)"/>
<path d="M48.75 14.4326H76L21.5 82.0002L48.75 14.4326Z" fill="white"/>
<path d="M48.75 14.4326H76L21.5 82.0002L48.75 14.4326Z" fill="url(#paint14_linear_1944_9542)"/>
<path d="M-5.75 14.4326H-33L21.5 82.0002L-5.75 14.4326Z" fill="white"/>
<path d="M-5.75 14.4326H-33L21.5 82.0002L-5.75 14.4326Z" fill="url(#paint15_linear_1944_9542)"/>
</g>
<g opacity="0.95" filter="url(#filter2_d_1944_9542)">
<path d="M146 272L100 274.216V299.703V325.189L146 272Z" fill="white"/>
<path d="M146 272L100 274.216V299.703V325.189L146 272Z" fill="url(#paint16_linear_1944_9542)"/>
<path d="M54 325.189L100 325.189L100 274.216L54 325.189Z" fill="white"/>
<path d="M54 325.189L100 325.189L100 274.216L54 325.189Z" fill="url(#paint17_linear_1944_9542)"/>
<path d="M146 272L192 274.216V325.189L146 272Z" fill="white"/>
<path d="M146 272L192 274.216V325.189L146 272Z" fill="url(#paint18_linear_1944_9542)"/>
<path d="M238 325.189L192 325.189L192 274.216L238 325.189Z" fill="white"/>
<path d="M238 325.189L192 325.189L192 274.216L238 325.189Z" fill="url(#paint19_linear_1944_9542)"/>
<path d="M192 325.189L146 272L100 325.189L192 325.189Z" fill="white"/>
<path d="M192 325.189L146 272L100 325.189L192 325.189Z" fill="url(#paint20_linear_1944_9542)"/>
<path d="M192 325.189L146 436L100 325.189L192 325.189Z" fill="white"/>
<path d="M192 325.189L146 436L100 325.189L192 325.189Z" fill="url(#paint21_linear_1944_9542)"/>
<path d="M100 325.189H54L146 436L100 325.189Z" fill="white"/>
<path d="M100 325.189H54L146 436L100 325.189Z" fill="url(#paint22_linear_1944_9542)"/>
<path d="M192 325.189H238L146 436L192 325.189Z" fill="white"/>
<path d="M192 325.189H238L146 436L192 325.189Z" fill="url(#paint23_linear_1944_9542)"/>
</g>
<g opacity="0.9" filter="url(#filter3_d_1944_9542)">
<path d="M11.7781 266L36.667 267.201V281.015V294.829L11.7781 266Z" fill="white"/>
<path d="M11.7781 266L36.667 267.201V281.015V294.829L11.7781 266Z" fill="url(#paint24_linear_1944_9542)"/>
<path d="M61.5559 294.829L36.667 294.829L36.667 267.201L61.5559 294.829Z" fill="white"/>
<path d="M61.5559 294.829L36.667 294.829L36.667 267.201L61.5559 294.829Z" fill="url(#paint25_linear_1944_9542)"/>
<path d="M11.7776 266L-13.1113 267.201V294.829L11.7776 266Z" fill="white"/>
<path d="M11.7776 266L-13.1113 267.201V294.829L11.7776 266Z" fill="url(#paint26_linear_1944_9542)"/>
<path d="M-13.1108 294.829L11.7781 266L36.667 294.829L-13.1108 294.829Z" fill="white"/>
<path d="M-13.1108 294.829L11.7781 266L36.667 294.829L-13.1108 294.829Z" fill="url(#paint27_linear_1944_9542)"/>
<path d="M-13.1108 294.829L11.7781 354.889L36.667 294.829L-13.1108 294.829Z" fill="white"/>
<path d="M-13.1108 294.829L11.7781 354.889L36.667 294.829L-13.1108 294.829Z" fill="url(#paint28_linear_1944_9542)"/>
<path d="M36.6672 294.829H61.5561L11.7783 354.889L36.6672 294.829Z" fill="white"/>
<path d="M36.6672 294.829H61.5561L11.7783 354.889L36.6672 294.829Z" fill="url(#paint29_linear_1944_9542)"/>
<path d="M-13.1106 294.829H-37.9995L11.7783 354.889L-13.1106 294.829Z" fill="white"/>
<path d="M-13.1106 294.829H-37.9995L11.7783 354.889L-13.1106 294.829Z" fill="url(#paint30_linear_1944_9542)"/>
</g>
<g opacity="0.9" filter="url(#filter4_d_1944_9542)">
<path d="M-2.5 370L48.25 372.446V400.574V428.703L-2.5 370Z" fill="white"/>
<path d="M-2.5 370L48.25 372.446V400.574V428.703L-2.5 370Z" fill="url(#paint31_linear_1944_9542)"/>
<path d="M99 428.703L48.25 428.703L48.25 372.446L99 428.703Z" fill="white"/>
<path d="M99 428.703L48.25 428.703L48.25 372.446L99 428.703Z" fill="url(#paint32_linear_1944_9542)"/>
<path d="M-53.25 428.703L-2.50001 370L48.25 428.703L-53.25 428.703Z" fill="white"/>
<path d="M-53.25 428.703L-2.50001 370L48.25 428.703L-53.25 428.703Z" fill="url(#paint33_linear_1944_9542)"/>
<path d="M-53.25 428.703L-2.5 551L48.25 428.703L-53.25 428.703Z" fill="white"/>
<path d="M-53.25 428.703L-2.5 551L48.25 428.703L-53.25 428.703Z" fill="url(#paint34_linear_1944_9542)"/>
<path d="M48.25 428.703H99L-2.5 551L48.25 428.703Z" fill="white"/>
<path d="M48.25 428.703H99L-2.5 551L48.25 428.703Z" fill="url(#paint35_linear_1944_9542)"/>
</g>
<g opacity="0.9" filter="url(#filter5_d_1944_9542)">
<path d="M133 409L141 409.408V414.105V418.802L133 409Z" fill="white"/>
<path d="M133 409L141 409.408V414.105V418.802L133 409Z" fill="url(#paint36_linear_1944_9542)"/>
<path d="M149 418.802L141 418.802L141 409.408L149 418.802Z" fill="white"/>
<path d="M149 418.802L141 418.802L141 409.408L149 418.802Z" fill="url(#paint37_linear_1944_9542)"/>
<path d="M133 409L125 409.408V418.802L133 409Z" fill="white"/>
<path d="M133 409L125 409.408V418.802L133 409Z" fill="url(#paint38_linear_1944_9542)"/>
<path d="M117 418.802L125 418.802L125 409.408L117 418.802Z" fill="white"/>
<path d="M117 418.802L125 418.802L125 409.408L117 418.802Z" fill="url(#paint39_linear_1944_9542)"/>
<path d="M125 418.802L133 409L141 418.802L125 418.802Z" fill="white"/>
<path d="M125 418.802L133 409L141 418.802L125 418.802Z" fill="url(#paint40_linear_1944_9542)"/>
<path d="M125 418.802L133 439.222L141 418.802L125 418.802Z" fill="white"/>
<path d="M125 418.802L133 439.222L141 418.802L125 418.802Z" fill="url(#paint41_linear_1944_9542)"/>
<path d="M141 418.802H149L133 439.222L141 418.802Z" fill="white"/>
<path d="M141 418.802H149L133 439.222L141 418.802Z" fill="url(#paint42_linear_1944_9542)"/>
<path d="M125 418.802H117L133 439.222L125 418.802Z" fill="white"/>
<path d="M125 418.802H117L133 439.222L125 418.802Z" fill="url(#paint43_linear_1944_9542)"/>
</g>
</g>
<defs>
<filter id="filter0_d_1944_9542" x="133.999" y="368" width="148.89" height="140" filterUnits="userSpaceOnUse" color-interpolation-filters="sRGB">
<feFlood flood-opacity="0" result="BackgroundImageFix"/>
<feColorMatrix in="SourceAlpha" type="matrix" values="0 0 0 0 0 0 0 0 0 0 0 0 0 0 0 0 0 0 127 0" result="hardAlpha"/>
<feOffset dx="15" dy="15"/>
<feGaussianBlur stdDeviation="15"/>
<feComposite in2="hardAlpha" operator="out"/>
<feColorMatrix type="matrix" values="0 0 0 0 0 0 0 0 0 0 0 0 0 0 0 0 0 0 0.1 0"/>
<feBlend mode="normal" in2="BackgroundImageFix" result="effect1_dropShadow_1944_9542"/>
<feBlend mode="normal" in="SourceGraphic" in2="effect1_dropShadow_1944_9542" result="shape"/>
</filter>
<filter id="filter1_d_1944_9542" x="-48" y="-33" width="169" height="160" filterUnits="userSpaceOnUse" color-interpolation-filters="sRGB">
<feFlood flood-opacity="0" result="BackgroundImageFix"/>
<feColorMatrix in="SourceAlpha" type="matrix" values="0 0 0 0 0 0 0 0 0 0 0 0 0 0 0 0 0 0 127 0" result="hardAlpha"/>
<feOffset dx="15" dy="15"/>
<feGaussianBlur stdDeviation="15"/>
<feComposite in2="hardAlpha" operator="out"/>
<feColorMatrix type="matrix" values="0 0 0 0 0 0 0 0 0 0 0 0 0 0 0 0 0 0 0.1 0"/>
<feBlend mode="normal" in2="BackgroundImageFix" result="effect1_dropShadow_1944_9542"/>
<feBlend mode="normal" in="SourceGraphic" in2="effect1_dropShadow_1944_9542" result="shape"/>
</filter>
<filter id="filter2_d_1944_9542" x="39" y="257" width="244" height="224" filterUnits="userSpaceOnUse" color-interpolation-filters="sRGB">
<feFlood flood-opacity="0" result="BackgroundImageFix"/>
<feColorMatrix in="SourceAlpha" type="matrix" values="0 0 0 0 0 0 0 0 0 0 0 0 0 0 0 0 0 0 127 0" result="hardAlpha"/>
<feOffset dx="15" dy="15"/>
<feGaussianBlur stdDeviation="15"/>
<feComposite in2="hardAlpha" operator="out"/>
<feColorMatrix type="matrix" values="0 0 0 0 0 0 0 0 0 0 0 0 0 0 0 0 0 0 0.1 0"/>
<feBlend mode="normal" in2="BackgroundImageFix" result="effect1_dropShadow_1944_9542"/>
<feBlend mode="normal" in="SourceGraphic" in2="effect1_dropShadow_1944_9542" result="shape"/>
</filter>
<filter id="filter3_d_1944_9542" x="-53" y="251" width="159.556" height="148.889" filterUnits="userSpaceOnUse" color-interpolation-filters="sRGB">
<feFlood flood-opacity="0" result="BackgroundImageFix"/>
<feColorMatrix in="SourceAlpha" type="matrix" values="0 0 0 0 0 0 0 0 0 0 0 0 0 0 0 0 0 0 127 0" result="hardAlpha"/>
<feOffset dx="15" dy="15"/>
<feGaussianBlur stdDeviation="15"/>
<feComposite in2="hardAlpha" operator="out"/>
<feColorMatrix type="matrix" values="0 0 0 0 0 0 0 0 0 0 0 0 0 0 0 0 0 0 0.1 0"/>
<feBlend mode="normal" in2="BackgroundImageFix" result="effect1_dropShadow_1944_9542"/>
<feBlend mode="normal" in="SourceGraphic" in2="effect1_dropShadow_1944_9542" result="shape"/>
</filter>
<filter id="filter4_d_1944_9542" x="-119" y="355" width="263" height="241" filterUnits="userSpaceOnUse" color-interpolation-filters="sRGB">
<feFlood flood-opacity="0" result="BackgroundImageFix"/>
<feColorMatrix in="SourceAlpha" type="matrix" values="0 0 0 0 0 0 0 0 0 0 0 0 0 0 0 0 0 0 127 0" result="hardAlpha"/>
<feOffset dx="15" dy="15"/>
<feGaussianBlur stdDeviation="15"/>
<feComposite in2="hardAlpha" operator="out"/>
<feColorMatrix type="matrix" values="0 0 0 0 0 0 0 0 0 0 0 0 0 0 0 0 0 0 0.1 0"/>
<feBlend mode="normal" in2="BackgroundImageFix" result="effect1_dropShadow_1944_9542"/>
<feBlend mode="normal" in="SourceGraphic" in2="effect1_dropShadow_1944_9542" result="shape"/>
</filter>
<filter id="filter5_d_1944_9542" x="102" y="394" width="92" height="90.2222" filterUnits="userSpaceOnUse" color-interpolation-filters="sRGB">
<feFlood flood-opacity="0" result="BackgroundImageFix"/>
<feColorMatrix in="SourceAlpha" type="matrix" values="0 0 0 0 0 0 0 0 0 0 0 0 0 0 0 0 0 0 127 0" result="hardAlpha"/>
<feOffset dx="15" dy="15"/>
<feGaussianBlur stdDeviation="15"/>
<feComposite in2="hardAlpha" operator="out"/>
<feColorMatrix type="matrix" values="0 0 0 0 0 0 0 0 0 0 0 0 0 0 0 0 0 0 0.1 0"/>
<feBlend mode="normal" in2="BackgroundImageFix" result="effect1_dropShadow_1944_9542"/>
<feBlend mode="normal" in="SourceGraphic" in2="effect1_dropShadow_1944_9542" result="shape"/>
</filter>
<linearGradient id="paint0_linear_1944_9542" x1="1227" y1="622" x2="1066.94" y2="24.4779" gradientUnits="userSpaceOnUse">
<stop stop-color="#3F6587"/>
<stop offset="0.0108711" stop-color="#3F6587" stop-opacity="0.5"/>
<stop offset="1" stop-color="#3F6587" stop-opacity="0"/>
</linearGradient>
<linearGradient id="paint1_linear_1944_9542" x1="234.777" y1="452.189" x2="181.018" y2="391.921" gradientUnits="userSpaceOnUse">
<stop stop-color="#3F6587"/>
<stop offset="0.515625" stop-color="#3F6587" stop-opacity="0.5"/>
<stop offset="1" stop-color="#3F6587" stop-opacity="0"/>
</linearGradient>
<linearGradient id="paint2_linear_1944_9542" x1="276.555" y1="465.162" x2="195.254" y2="400.341" gradientUnits="userSpaceOnUse">
<stop stop-color="#3F6587"/>
<stop offset="0.515625" stop-color="#3F6587" stop-opacity="0.5"/>
<stop offset="1" stop-color="#3F6587" stop-opacity="0"/>
</linearGradient>
<linearGradient id="paint3_linear_1944_9542" x1="169.444" y1="421.378" x2="203.905" y2="373.331" gradientUnits="userSpaceOnUse">
<stop stop-color="#3F6587"/>
<stop offset="0.515625" stop-color="#3F6587" stop-opacity="0.5"/>
<stop offset="1" stop-color="#3F6587" stop-opacity="0"/>
</linearGradient>
<linearGradient id="paint4_linear_1944_9542" x1="155.222" y1="430.567" x2="197.363" y2="370.708" gradientUnits="userSpaceOnUse">
<stop stop-color="#3F6587"/>
<stop offset="0.515625" stop-color="#3F6587" stop-opacity="0.5"/>
<stop offset="1" stop-color="#3F6587" stop-opacity="0"/>
</linearGradient>
<linearGradient id="paint5_linear_1944_9542" x1="190.777" y1="457.054" x2="155.741" y2="408.691" gradientUnits="userSpaceOnUse">
<stop stop-color="#3F6587"/>
<stop offset="0.515625" stop-color="#3F6587" stop-opacity="0.5"/>
<stop offset="1" stop-color="#3F6587" stop-opacity="0"/>
</linearGradient>
<linearGradient id="paint6_linear_1944_9542" x1="193.444" y1="477.594" x2="195.116" y2="387.896" gradientUnits="userSpaceOnUse">
<stop stop-color="#3F6587"/>
<stop offset="0.515625" stop-color="#3F6587" stop-opacity="0.5"/>
<stop offset="1" stop-color="#3F6587" stop-opacity="0"/>
</linearGradient>
<linearGradient id="paint7_linear_1944_9542" x1="175.667" y1="533.27" x2="250.343" y2="416.228" gradientUnits="userSpaceOnUse">
<stop stop-color="#3F6587"/>
<stop offset="0.515625" stop-color="#3F6587" stop-opacity="0.5"/>
<stop offset="1" stop-color="#3F6587" stop-opacity="0"/>
</linearGradient>
<linearGradient id="paint8_linear_1944_9542" x1="186.333" y1="473.811" x2="130.127" y2="411.128" gradientUnits="userSpaceOnUse">
<stop stop-color="#3F6587"/>
<stop offset="0.515625" stop-color="#3F6587" stop-opacity="0.5"/>
<stop offset="1" stop-color="#3F6587" stop-opacity="0"/>
</linearGradient>
<linearGradient id="paint9_linear_1944_9542" x1="72.185" y1="68.4865" x2="4.85192" y2="-5.56504" gradientUnits="userSpaceOnUse">
<stop stop-color="#3F6587"/>
<stop offset="0.515625" stop-color="#3F6587" stop-opacity="0.5"/>
<stop offset="1" stop-color="#3F6587" stop-opacity="0"/>
</linearGradient>
<linearGradient id="paint10_linear_1944_9542" x1="123.415" y1="84.7029" x2="22.2399" y2="5.56886" gradientUnits="userSpaceOnUse">
<stop stop-color="#3F6587"/>
<stop offset="0.515625" stop-color="#3F6587" stop-opacity="0.5"/>
<stop offset="1" stop-color="#3F6587" stop-opacity="0"/>
</linearGradient>
<linearGradient id="paint11_linear_1944_9542" x1="-7.93" y1="29.973" x2="35.4055" y2="-29.2989" gradientUnits="userSpaceOnUse">
<stop stop-color="#3F6587"/>
<stop offset="0.515625" stop-color="#3F6587" stop-opacity="0.5"/>
<stop offset="1" stop-color="#3F6587" stop-opacity="0"/>
</linearGradient>
<linearGradient id="paint12_linear_1944_9542" x1="18.23" y1="74.5675" x2="-25.8199" y2="14.9171" gradientUnits="userSpaceOnUse">
<stop stop-color="#3F6587"/>
<stop offset="0.515625" stop-color="#3F6587" stop-opacity="0.5"/>
<stop offset="1" stop-color="#3F6587" stop-opacity="0"/>
</linearGradient>
<linearGradient id="paint13_linear_1944_9542" x1="21.5" y1="100.243" x2="23.6302" y2="-11.8783" gradientUnits="userSpaceOnUse">
<stop stop-color="#3F6587"/>
<stop offset="0.515625" stop-color="#3F6587" stop-opacity="0.5"/>
<stop offset="1" stop-color="#3F6587" stop-opacity="0"/>
</linearGradient>
<linearGradient id="paint14_linear_1944_9542" x1="-0.3" y1="169.838" x2="93.7892" y2="25.1719" gradientUnits="userSpaceOnUse">
<stop stop-color="#3F6587"/>
<stop offset="0.515625" stop-color="#3F6587" stop-opacity="0.5"/>
<stop offset="1" stop-color="#3F6587" stop-opacity="0"/>
</linearGradient>
<linearGradient id="paint15_linear_1944_9542" x1="12.78" y1="95.5137" x2="-57.6117" y2="18.5026" gradientUnits="userSpaceOnUse">
<stop stop-color="#3F6587"/>
<stop offset="0.515625" stop-color="#3F6587" stop-opacity="0.5"/>
<stop offset="1" stop-color="#3F6587" stop-opacity="0"/>
</linearGradient>
<linearGradient id="paint16_linear_1944_9542" x1="60.44" y1="413.838" x2="170.519" y2="289.227" gradientUnits="userSpaceOnUse">
<stop stop-color="#3F6587"/>
<stop offset="0.515625" stop-color="#3F6587" stop-opacity="0.5"/>
<stop offset="1" stop-color="#3F6587" stop-opacity="0"/>
</linearGradient>
<linearGradient id="paint17_linear_1944_9542" x1="-26.04" y1="440.432" x2="140.98" y2="305.968" gradientUnits="userSpaceOnUse">
<stop stop-color="#3F6587"/>
<stop offset="0.515625" stop-color="#3F6587" stop-opacity="0.5"/>
<stop offset="1" stop-color="#3F6587" stop-opacity="0"/>
</linearGradient>
<linearGradient id="paint18_linear_1944_9542" x1="195.68" y1="350.676" x2="125.256" y2="251.531" gradientUnits="userSpaceOnUse">
<stop stop-color="#3F6587"/>
<stop offset="0.515625" stop-color="#3F6587" stop-opacity="0.5"/>
<stop offset="1" stop-color="#3F6587" stop-opacity="0"/>
</linearGradient>
<linearGradient id="paint19_linear_1944_9542" x1="225.12" y1="369.513" x2="139.016" y2="246.014" gradientUnits="userSpaceOnUse">
<stop stop-color="#3F6587"/>
<stop offset="0.515625" stop-color="#3F6587" stop-opacity="0.5"/>
<stop offset="1" stop-color="#3F6587" stop-opacity="0"/>
</linearGradient>
<linearGradient id="paint20_linear_1944_9542" x1="151.52" y1="423.811" x2="223.123" y2="324.007" gradientUnits="userSpaceOnUse">
<stop stop-color="#3F6587"/>
<stop offset="0.515625" stop-color="#3F6587" stop-opacity="0.5"/>
<stop offset="1" stop-color="#3F6587" stop-opacity="0"/>
</linearGradient>
<linearGradient id="paint21_linear_1944_9542" x1="146" y1="465.919" x2="142.606" y2="282.035" gradientUnits="userSpaceOnUse">
<stop stop-color="#3F6587"/>
<stop offset="0.515625" stop-color="#3F6587" stop-opacity="0.5"/>
<stop offset="1" stop-color="#3F6587" stop-opacity="0"/>
</linearGradient>
<linearGradient id="paint22_linear_1944_9542" x1="182.8" y1="580.054" x2="30.3436" y2="338.774" gradientUnits="userSpaceOnUse">
<stop stop-color="#3F6587"/>
<stop offset="0.515625" stop-color="#3F6587" stop-opacity="0.5"/>
<stop offset="1" stop-color="#3F6587" stop-opacity="0"/>
</linearGradient>
<linearGradient id="paint23_linear_1944_9542" x1="160.72" y1="458.162" x2="275.816" y2="328.551" gradientUnits="userSpaceOnUse">
<stop stop-color="#3F6587"/>
<stop offset="0.515625" stop-color="#3F6587" stop-opacity="0.5"/>
<stop offset="1" stop-color="#3F6587" stop-opacity="0"/>
</linearGradient>
<linearGradient id="paint24_linear_1944_9542" x1="58.0714" y1="342.877" x2="-1.60454" y2="275.44" gradientUnits="userSpaceOnUse">
<stop stop-color="#3F6587"/>
<stop offset="0.515625" stop-color="#3F6587" stop-opacity="0.5"/>
<stop offset="1" stop-color="#3F6587" stop-opacity="0"/>
</linearGradient>
<linearGradient id="paint25_linear_1944_9542" x1="104.863" y1="357.291" x2="14.3706" y2="284.565" gradientUnits="userSpaceOnUse">
<stop stop-color="#3F6587"/>
<stop offset="0.515625" stop-color="#3F6587" stop-opacity="0.5"/>
<stop offset="1" stop-color="#3F6587" stop-opacity="0"/>
</linearGradient>
<linearGradient id="paint26_linear_1944_9542" x1="-15.1024" y1="308.643" x2="23.0894" y2="254.968" gradientUnits="userSpaceOnUse">
<stop stop-color="#3F6587"/>
<stop offset="0.515625" stop-color="#3F6587" stop-opacity="0.5"/>
<stop offset="1" stop-color="#3F6587" stop-opacity="0"/>
</linearGradient>
<linearGradient id="paint27_linear_1944_9542" x1="8.79143" y1="348.282" x2="-30.0394" y2="294.252" gradientUnits="userSpaceOnUse">
<stop stop-color="#3F6587"/>
<stop offset="0.515625" stop-color="#3F6587" stop-opacity="0.5"/>
<stop offset="1" stop-color="#3F6587" stop-opacity="0"/>
</linearGradient>
<linearGradient id="paint28_linear_1944_9542" x1="11.7781" y1="371.105" x2="13.6209" y2="271.439" gradientUnits="userSpaceOnUse">
<stop stop-color="#3F6587"/>
<stop offset="0.515625" stop-color="#3F6587" stop-opacity="0.5"/>
<stop offset="1" stop-color="#3F6587" stop-opacity="0"/>
</linearGradient>
<linearGradient id="paint29_linear_1944_9542" x1="-8.13279" y1="432.967" x2="74.5611" y2="302.322" gradientUnits="userSpaceOnUse">
<stop stop-color="#3F6587"/>
<stop offset="0.515625" stop-color="#3F6587" stop-opacity="0.5"/>
<stop offset="1" stop-color="#3F6587" stop-opacity="0"/>
</linearGradient>
<linearGradient id="paint30_linear_1944_9542" x1="3.81388" y1="366.901" x2="-58.5816" y2="296.759" gradientUnits="userSpaceOnUse">
<stop stop-color="#3F6587"/>
<stop offset="0.515625" stop-color="#3F6587" stop-opacity="0.5"/>
<stop offset="1" stop-color="#3F6587" stop-opacity="0"/>
</linearGradient>
<linearGradient id="paint31_linear_1944_9542" x1="91.895" y1="526.541" x2="-29.5997" y2="389.056" gradientUnits="userSpaceOnUse">
<stop stop-color="#3F6587"/>
<stop offset="0.515625" stop-color="#3F6587" stop-opacity="0.5"/>
<stop offset="1" stop-color="#3F6587" stop-opacity="0"/>
</linearGradient>
<linearGradient id="paint32_linear_1944_9542" x1="187.305" y1="555.892" x2="2.98618" y2="407.555" gradientUnits="userSpaceOnUse">
<stop stop-color="#3F6587"/>
<stop offset="0.515625" stop-color="#3F6587" stop-opacity="0.5"/>
<stop offset="1" stop-color="#3F6587" stop-opacity="0"/>
</linearGradient>
<linearGradient id="paint33_linear_1944_9542" x1="-8.59" y1="537.547" x2="-87.6245" y2="427.425" gradientUnits="userSpaceOnUse">
<stop stop-color="#3F6587"/>
<stop offset="0.515625" stop-color="#3F6587" stop-opacity="0.5"/>
<stop offset="1" stop-color="#3F6587" stop-opacity="0"/>
</linearGradient>
<linearGradient id="paint34_linear_1944_9542" x1="-2.5" y1="584.02" x2="1.24732" y2="381.076" gradientUnits="userSpaceOnUse">
<stop stop-color="#3F6587"/>
<stop offset="0.515625" stop-color="#3F6587" stop-opacity="0.5"/>
<stop offset="1" stop-color="#3F6587" stop-opacity="0"/>
</linearGradient>
<linearGradient id="paint35_linear_1944_9542" x1="-43.1" y1="709.986" x2="125.186" y2="443.751" gradientUnits="userSpaceOnUse">
<stop stop-color="#3F6587"/>
<stop offset="0.515625" stop-color="#3F6587" stop-opacity="0.5"/>
<stop offset="1" stop-color="#3F6587" stop-opacity="0"/>
</linearGradient>
<linearGradient id="paint36_linear_1944_9542" x1="147.88" y1="435.138" x2="127.483" y2="413.347" gradientUnits="userSpaceOnUse">
<stop stop-color="#3F6587"/>
<stop offset="0.515625" stop-color="#3F6587" stop-opacity="0.5"/>
<stop offset="1" stop-color="#3F6587" stop-opacity="0"/>
</linearGradient>
<linearGradient id="paint37_linear_1944_9542" x1="162.92" y1="440.039" x2="132.568" y2="416.978" gradientUnits="userSpaceOnUse">
<stop stop-color="#3F6587"/>
<stop offset="0.515625" stop-color="#3F6587" stop-opacity="0.5"/>
<stop offset="1" stop-color="#3F6587" stop-opacity="0"/>
</linearGradient>
<linearGradient id="paint38_linear_1944_9542" x1="124.36" y1="423.498" x2="137.568" y2="405.95" gradientUnits="userSpaceOnUse">
<stop stop-color="#3F6587"/>
<stop offset="0.515625" stop-color="#3F6587" stop-opacity="0.5"/>
<stop offset="1" stop-color="#3F6587" stop-opacity="0"/>
</linearGradient>
<linearGradient id="paint39_linear_1944_9542" x1="119.24" y1="426.97" x2="135.404" y2="405.09" gradientUnits="userSpaceOnUse">
<stop stop-color="#3F6587"/>
<stop offset="0.515625" stop-color="#3F6587" stop-opacity="0.5"/>
<stop offset="1" stop-color="#3F6587" stop-opacity="0"/>
</linearGradient>
<linearGradient id="paint40_linear_1944_9542" x1="132.04" y1="436.976" x2="118.618" y2="419.321" gradientUnits="userSpaceOnUse">
<stop stop-color="#3F6587"/>
<stop offset="0.515625" stop-color="#3F6587" stop-opacity="0.5"/>
<stop offset="1" stop-color="#3F6587" stop-opacity="0"/>
</linearGradient>
<linearGradient id="paint41_linear_1944_9542" x1="133" y1="444.736" x2="133.663" y2="410.851" gradientUnits="userSpaceOnUse">
<stop stop-color="#3F6587"/>
<stop offset="0.515625" stop-color="#3F6587" stop-opacity="0.5"/>
<stop offset="1" stop-color="#3F6587" stop-opacity="0"/>
</linearGradient>
<linearGradient id="paint42_linear_1944_9542" x1="126.6" y1="465.769" x2="155.362" y2="422.81" gradientUnits="userSpaceOnUse">
<stop stop-color="#3F6587"/>
<stop offset="0.515625" stop-color="#3F6587" stop-opacity="0.5"/>
<stop offset="1" stop-color="#3F6587" stop-opacity="0"/>
</linearGradient>
<linearGradient id="paint43_linear_1944_9542" x1="130.44" y1="443.306" x2="109.12" y2="420.648" gradientUnits="userSpaceOnUse">
<stop stop-color="#3F6587"/>
<stop offset="0.515625" stop-color="#3F6587" stop-opacity="0.5"/>
<stop offset="1" stop-color="#3F6587" stop-opacity="0"/>
</linearGradient>
<clipPath id="clip0_1944_9542">
<path d="M0 4.00001C0 1.79087 1.79086 0 4 0H1178C1180.21 0 1182 1.79086 1182 4V444C1182 446.209 1180.21 448 1178 448H4.00002C1.79088 448 0 446.209 0 444V4.00001Z" fill="white"/>
</clipPath>
</defs>
</svg>
