<svg width="14" height="15" viewBox="0 0 14 15" fill="none" xmlns="http://www.w3.org/2000/svg">
<path d="M13.7548 6.85107L12.2598 5.94728C12.2143 5.9198 12.1988 5.8618 12.2244 5.81529L13.0672 4.2851C13.1538 4.1279 13.1519 3.94131 13.0622 3.78589C12.9725 3.63049 12.8118 3.53556 12.6324 3.53195L10.8858 3.49673C10.8327 3.49563 10.7903 3.4532 10.7892 3.40023L10.7833 3.09683C10.7811 2.98376 10.6865 2.89396 10.5746 2.89607C10.4616 2.89828 10.3717 2.99169 10.3739 3.10476L10.3797 3.40835C10.3853 3.68196 10.6039 3.90062 10.8775 3.90612L12.6241 3.94134C12.6725 3.94232 12.6972 3.97265 12.7075 3.99064C12.7179 4.00863 12.7319 4.04513 12.7085 4.08754L11.8657 5.61773C11.7337 5.85742 11.8137 6.15613 12.0479 6.29769L13.5429 7.20148C13.5843 7.2265 13.5905 7.26511 13.5905 7.28589C13.5905 7.30667 13.5843 7.34525 13.5429 7.3703L12.0479 8.27409C11.8137 8.41565 11.7337 8.71435 11.8657 8.95405L12.7085 10.4842C12.7319 10.5266 12.7179 10.5631 12.7075 10.5811C12.6972 10.5991 12.6725 10.6295 12.6241 10.6304L10.8775 10.6657C10.6039 10.6712 10.3852 10.8898 10.3797 11.1634L10.3445 12.91C10.3435 12.9584 10.3132 12.983 10.2952 12.9934C10.2772 13.0038 10.2407 13.0177 10.1983 12.9944L8.66813 12.1516C8.42844 12.0196 8.12976 12.0996 7.98815 12.3338L7.08438 13.8288C7.05934 13.8702 7.02075 13.8764 6.99997 13.8764C6.97919 13.8764 6.94061 13.8702 6.91556 13.8288L6.0118 12.3338C5.87018 12.0996 5.57151 12.0196 5.33181 12.1516L3.80163 12.9944C3.75925 13.0177 3.72271 13.0038 3.70472 12.9934C3.68673 12.983 3.65641 12.9584 3.65542 12.91L3.62023 11.1634C3.61471 10.8898 3.39607 10.6712 3.12246 10.6657L1.37586 10.6304C1.32746 10.6295 1.30282 10.5991 1.29243 10.5811C1.28204 10.5631 1.26812 10.5266 1.29145 10.4842L2.13426 8.95405C2.2663 8.71435 2.18627 8.41565 1.95207 8.27409L0.457051 7.3703C0.415625 7.34525 0.409445 7.30667 0.409445 7.28589C0.409445 7.26511 0.415625 7.22653 0.457051 7.20148L1.95204 6.29769C2.18624 6.15613 2.26628 5.85742 2.13426 5.61773L1.29145 4.08754C1.26809 4.04516 1.28204 4.00863 1.29243 3.99064C1.30282 3.97265 1.32748 3.94232 1.37588 3.94134L3.12246 3.90612C3.39609 3.90062 3.61473 3.68196 3.62026 3.40835L3.65545 1.66177C3.65643 1.61337 3.68676 1.58874 3.70475 1.57835C3.72274 1.56798 3.7593 1.55406 3.80166 1.57736L5.33184 2.42018C5.57154 2.55228 5.87024 2.47219 6.01182 2.23796L6.91559 0.742994C6.94064 0.701568 6.97922 0.695389 7 0.695389C7.02078 0.695389 7.05936 0.701568 7.08441 0.742994L7.98818 2.23796C8.12976 2.47216 8.42844 2.55217 8.66816 2.42018L10.1983 1.57736C10.2407 1.55404 10.2773 1.56798 10.2952 1.57835C10.3132 1.58874 10.3436 1.61337 10.3446 1.66177L10.3544 2.15281C10.3567 2.26588 10.4508 2.35663 10.5633 2.35338C10.6763 2.35111 10.7661 2.25762 10.7639 2.14455L10.754 1.65351C10.7503 1.47411 10.6554 1.31347 10.5 1.22372C10.3446 1.13398 10.158 1.1321 10.0008 1.21869L8.4706 2.06151C8.42409 2.08708 8.36609 2.07157 8.33861 2.02613L7.43485 0.531162C7.34202 0.377572 7.17946 0.285889 7 0.285889C6.82054 0.285889 6.65798 0.377572 6.56515 0.531162L5.66139 2.02613C5.63388 2.07157 5.57588 2.08713 5.52937 2.06151L3.99919 1.21869C3.84202 1.1321 3.65537 1.13398 3.49997 1.22372C3.34458 1.31347 3.24964 1.47411 3.24603 1.65351L3.21084 3.4001C3.20977 3.4532 3.16734 3.49563 3.11421 3.49673L1.36762 3.53195C1.18822 3.53556 1.02755 3.63049 0.937809 3.78589C0.848066 3.94128 0.84618 4.1279 0.932777 4.2851L1.77559 5.81529C1.80121 5.8618 1.78568 5.9198 1.74021 5.94728L0.245246 6.85107C0.0916836 6.9439 0 7.10643 0 7.28589C0 7.46535 0.0916836 7.62788 0.245246 7.72071L1.74024 8.6245C1.78568 8.65198 1.80121 8.70998 1.77559 8.75649L0.932777 10.2867C0.846207 10.4439 0.848066 10.6305 0.937809 10.7859C1.02752 10.9413 1.18822 11.0362 1.3676 11.0398L3.11421 11.075C3.16731 11.0761 3.20975 11.1186 3.21081 11.1717L3.246 12.9183C3.24964 13.0977 3.34455 13.2583 3.49995 13.3481C3.65534 13.4378 3.84199 13.4397 3.99916 13.3531L5.52937 12.5103C5.57586 12.4846 5.63385 12.5002 5.66136 12.5457L6.56512 14.0406C6.65796 14.1942 6.82052 14.2859 6.99997 14.2859C7.17943 14.2859 7.34199 14.1942 7.43482 14.0406L8.33859 12.5457C8.36609 12.5002 8.42404 12.4846 8.4706 12.5103L10.0008 13.3531C10.158 13.4397 10.3446 13.4378 10.5 13.3481C10.6554 13.2583 10.7503 13.0977 10.7539 12.9183L10.7891 11.1717C10.7902 11.1186 10.8326 11.0761 10.8858 11.075L12.6323 11.0398C12.8118 11.0362 12.9724 10.9413 13.0622 10.7859C13.1519 10.6305 13.1538 10.4439 13.0672 10.2867L12.2244 8.75649C12.1988 8.70998 12.2143 8.65198 12.2598 8.6245L13.7548 7.72071C13.9083 7.62788 14 7.46535 14 7.28589C14 7.10643 13.9083 6.9439 13.7548 6.85107Z" fill="#3F6587"/>
<path d="M3.57195 9.60472C3.48157 9.67269 3.46345 9.80107 3.53142 9.89142C3.92725 10.4176 4.44566 10.8535 5.03057 11.152C5.644 11.4651 6.30659 11.6238 6.99995 11.6238C9.39184 11.6238 11.3378 9.67789 11.3378 7.28599C11.3378 4.8941 9.39184 2.94818 6.99995 2.94818C4.60805 2.94818 2.66211 4.89413 2.66211 7.28602C2.66211 7.89745 2.78682 8.48871 3.03284 9.04327C3.07869 9.14663 3.19971 9.19327 3.30302 9.14739C3.40641 9.10154 3.453 8.98057 3.40717 8.87724C3.18451 8.37526 3.07161 7.8399 3.07161 7.28602C3.07161 5.1199 4.83386 3.35768 6.99995 3.35768C9.16604 3.35768 10.9283 5.1199 10.9283 7.28602C10.9283 9.45214 9.16604 11.2144 6.99995 11.2144C5.75378 11.2144 4.60885 10.6424 3.85864 9.64524C3.79067 9.55492 3.66232 9.53668 3.57195 9.60472Z" fill="#3F6587"/>
<path d="M4.40446 8.63377C4.51752 8.63377 4.60921 8.54211 4.60921 8.42902V6.14237C4.60921 6.02928 4.51755 5.93762 4.40446 5.93762C4.29139 5.93762 4.19971 6.02928 4.19971 6.14237V8.42902C4.19971 8.54211 4.29139 8.63377 4.40446 8.63377Z" fill="#3F6587"/>
<path d="M6.17542 8.22436C5.92563 8.22436 5.68446 8.12278 5.5303 7.95268C5.45436 7.8689 5.32489 7.86252 5.24108 7.93843C5.1573 8.01436 5.15093 8.14384 5.22684 8.22764C5.45734 8.482 5.81194 8.63386 6.17539 8.63386C6.61081 8.63386 6.99015 8.34826 7.0578 7.96949C7.13581 7.53254 6.79232 7.23988 6.44481 7.11172C6.15067 7.00322 5.87786 6.88477 5.80885 6.85444C5.73609 6.8011 5.70079 6.71586 5.71402 6.62369C5.7307 6.50759 5.81995 6.41437 5.95279 6.3744C6.31916 6.26393 6.65024 6.52938 6.65691 6.53482C6.74346 6.6069 6.87211 6.5955 6.94465 6.50923C7.01741 6.42266 7.00623 6.29349 6.91966 6.22075C6.89945 6.20377 6.41774 5.80666 5.83469 5.98229C5.54958 6.06817 5.34802 6.29165 5.3087 6.56553C5.27209 6.82054 5.38253 7.06578 5.59693 7.20554C5.60599 7.21147 5.61547 7.21664 5.62534 7.22104C5.63847 7.22689 5.95098 7.36599 6.30314 7.49587C6.55552 7.58898 6.68368 7.73535 6.65473 7.89752C6.6264 8.05598 6.4488 8.22436 6.17542 8.22436Z" fill="#3F6587"/>
<path d="M10.1449 7.28569C10.1449 6.54236 9.54012 5.93762 8.7968 5.93762C8.05346 5.93762 7.44873 6.54238 7.44873 7.28569C7.44873 8.02901 8.05349 8.63377 8.7968 8.63377C9.54014 8.63377 10.1449 8.02903 10.1449 7.28569ZM7.85823 7.28569C7.85823 6.76816 8.27927 6.34712 8.7968 6.34712C9.31434 6.34712 9.73538 6.76816 9.73538 7.28569C9.73538 7.80323 9.31434 8.22427 8.7968 8.22427C8.27927 8.22427 7.85823 7.80323 7.85823 7.28569Z" fill="#3F6587"/>
</svg>
