<svg width="9" height="10" viewBox="0 0 9 10" fill="none" xmlns="http://www.w3.org/2000/svg">
<path d="M6.75 5.6333C6.43939 5.6333 6.1875 5.8852 6.1875 6.1958V7.8833H1.125V2.8208H2.8125C3.12311 2.8208 3.375 2.56908 3.375 2.2583C3.375 1.94752 3.12311 1.6958 2.8125 1.6958H1.125C0.503613 1.6958 0 2.19941 0 2.8208V7.8833C0 8.50451 0.503613 9.0083 1.125 9.0083H6.1875C6.80889 9.0083 7.3125 8.50451 7.3125 7.8833V6.1958C7.3125 5.88467 7.06113 5.6333 6.75 5.6333ZM8.83477 0.172955C8.73281 0.0711953 8.59219 0.00830078 8.4375 0.00830078H5.625C5.31439 0.00830078 5.07832 0.26002 5.07832 0.55498C5.07832 0.865586 5.33004 1.10166 5.64065 1.10166H7.09523L3.14121 5.11826C2.92148 5.33799 2.92148 5.69412 3.14121 5.91385C3.36094 6.13428 3.71777 6.13428 3.9375 5.91455L7.875 1.92783V3.3833C7.875 3.69391 8.12689 3.92998 8.42168 3.92998C8.71646 3.92998 9 3.69443 9 3.3833V0.55498C9 0.41541 8.93672 0.274785 8.83477 0.172955Z" fill="#3F6587"/>
</svg>
