<svg width="17" height="17" viewBox="0 0 17 17" fill="none" xmlns="http://www.w3.org/2000/svg">
<path d="M14.981 1.56409C14.0804 0.661557 12.936 0.162476 11.6852 0.162476C10.2234 0.162476 8.62058 0.846252 7.09185 2.36975L4.41212 5.04704C2.06728 7.39463 2.15358 11.1848 2.65357 12.8255L0.594835 14.8808C0.301722 15.1738 0.301722 15.6496 0.594835 15.9428C0.887948 16.2357 1.36405 16.2357 1.65735 15.9428L3.70983 13.8921C4.25296 14.0561 5.03437 14.1776 5.92553 14.1776C7.7116 14.1776 9.89978 13.6914 11.4945 12.1288L14.1758 9.44902C16.9822 6.61897 16.9352 3.52198 14.981 1.56409ZM4.98434 12.6192L6.44209 11.1623H10.2913C8.89981 12.4708 6.95489 12.678 5.89801 12.678C5.56594 12.6786 5.25638 12.6505 4.98434 12.6192ZM11.3381 10.1347H7.44206L9.41512 8.16278H13.2831C13.2127 8.237 13.1861 8.31513 13.0837 8.38935L11.3381 10.1347ZM14.0992 7.13462H10.4439L11.1474 6.43147C11.4405 6.13852 11.4405 5.66206 11.1474 5.39705C10.8543 5.1041 10.3776 5.1041 10.1124 5.39705L3.98061 11.5254C3.81645 10.0919 3.9728 7.64401 5.52842 6.08458L8.2094 3.4051C9.3382 2.27693 10.5855 1.63566 11.7396 1.63566C12.572 1.63566 13.3459 1.97161 13.975 2.60038C15.1404 3.82199 15.1686 5.50955 14.0992 7.13462Z" fill="#F37A20"/>
</svg>
