<svg width="138" height="142" viewBox="0 0 138 142" fill="none" xmlns="http://www.w3.org/2000/svg">
<path d="M58.1555 7.7207C28.2368 7.7207 3.98047 31.9937 3.98047 61.9329C3.98047 91.8722 28.2368 116.145 58.1555 116.145C88.0742 116.145 112.331 91.88 112.331 61.9329C112.331 31.9859 88.0821 7.7207 58.1555 7.7207ZM60.3173 90.1337C59.7704 90.7332 58.989 91.1241 57.9211 91.1241C57.0853 91.1241 56.3157 90.7439 55.7836 90.1361C50.1629 83.4846 35.5018 65.201 35.5018 55.2109C35.7302 42.7762 45.7578 32.7417 57.9211 32.7417C70.3423 32.7417 80.3673 42.7762 80.3673 55.2059C80.5809 65.1909 65.9172 83.4875 60.3173 90.1337Z" fill="#F3F6F9"/>
<path d="M57.9204 32.7418C45.7571 32.7418 35.7295 42.7763 35.7295 55.2086C35.7295 65.204 50.3906 83.4876 56.0113 90.1338C56.54 90.7333 57.2953 91.1242 57.9204 91.1242C58.7557 91.1242 59.5509 90.744 60.083 90.1362C65.7037 83.4847 80.3674 65.2011 80.3674 55.211C80.5802 42.7763 70.5526 32.7418 57.9204 32.7418ZM58.1548 60.8905C54.1282 60.8905 50.862 57.6221 50.862 53.5927C50.862 49.5633 54.1178 46.2949 58.1548 46.2949C62.1919 46.2949 65.4476 49.5528 65.4476 53.5927C65.4476 57.6325 62.1919 60.8905 58.1548 60.8905ZM134.286 123.365L103.11 92.1668C99.1951 97.9789 94.1865 102.994 88.3757 106.911L119.552 138.109C123.621 142.18 130.218 142.18 134.286 138.109C138.35 134.051 138.35 127.431 134.286 123.365Z" fill="#F9FAFC"/>
<path d="M133.089 130.037L94.2288 91.1503C103.162 81.5068 108.684 68.6053 108.684 54.3746C108.684 24.4354 84.4356 0.162354 54.5091 0.162354C24.5825 0.162354 0.333984 24.4354 0.333984 54.3746C0.333984 84.3138 24.5904 108.587 54.5091 108.587C68.717 108.587 81.6226 103.069 91.2856 94.1111L130.146 132.998C130.536 133.399 131.057 133.608 131.604 133.608C132.151 133.608 132.671 133.404 133.077 132.997C133.896 132.174 133.896 130.871 133.089 130.037ZM54.5091 104.417C26.9267 104.417 4.5013 81.9681 4.5013 54.3746C4.5013 26.7811 26.9345 4.33253 54.5091 4.33253C82.0836 4.33253 104.517 26.7811 104.517 54.3746C104.517 81.9681 82.0915 104.417 54.5091 104.417ZM54.2746 25.1834C42.1113 25.1834 32.0837 35.2179 32.0837 47.6502C32.0837 57.6456 46.7448 75.9292 52.3655 82.5754C52.8942 83.1749 53.6495 83.5658 54.2746 83.5658C55.1099 83.5658 55.9051 83.1855 56.4372 82.5777C62.0579 75.9263 76.7216 57.6427 76.7216 47.6525C76.9344 35.2179 66.9068 25.1834 54.2746 25.1834ZM54.5091 78.6398C43.2052 65.0867 36.251 53.2799 36.251 47.6502C36.251 37.5636 44.4294 29.3536 54.483 29.3536C64.5627 29.3536 72.7645 37.561 72.7645 47.6476C72.7671 53.2799 65.7868 65.1128 54.5091 78.6398ZM54.5091 41.8641C52.217 41.8641 50.3417 43.7407 50.3417 46.0343C50.3417 48.3278 52.217 50.2044 54.5091 50.2044C56.8011 50.2044 58.6764 48.3278 58.6764 46.0343C58.6764 43.7407 56.8011 41.8641 54.5091 41.8641Z" fill="white"/>
</svg>
