<svg width="17" height="19" viewBox="0 0 17 19" fill="none" xmlns="http://www.w3.org/2000/svg">
<path d="M11.9922 9.64766C12.0146 9.63012 12.0327 9.60771 12.0452 9.58212C12.0577 9.55654 12.0641 9.52846 12.0641 9.5C12.0641 9.47154 12.0577 9.44346 12.0452 9.41788C12.0327 9.39229 12.0146 9.36988 11.9922 9.35234L8.67109 6.72734C8.54922 6.63125 8.36875 6.71797 8.36875 6.875L8.36875 8.61172L0.4375 8.61172C0.334375 8.61172 0.25 8.69609 0.25 8.79922L0.25 10.2055C0.25 10.3086 0.334375 10.393 0.4375 10.393L8.36641 10.393L8.36641 12.125C8.36641 12.282 8.54688 12.3687 8.66875 12.2727L11.9922 9.64766ZM11.1719 0.921875L11.1719 2.32813C11.1719 2.43125 11.2563 2.51563 11.3594 2.51563L14.9688 2.51563L14.9688 16.4844L11.3594 16.4844C11.2563 16.4844 11.1719 16.5688 11.1719 16.6719L11.1719 18.0781C11.1719 18.1813 11.2563 18.2656 11.3594 18.2656L16 18.2656C16.4148 18.2656 16.75 17.9305 16.75 17.5156L16.75 1.48438C16.75 1.06953 16.4148 0.734375 16 0.734375L11.3594 0.734375C11.2563 0.734375 11.1719 0.818751 11.1719 0.921875Z" fill="#BCD4E7"/>
</svg>
