<svg width="124" height="125" viewBox="0 0 124 125" fill="none" xmlns="http://www.w3.org/2000/svg">
<path d="M80.8984 34.811L78.8413 22.5223C78.4299 20.0505 79.2285 17.5302 80.9952 15.7595L93.3865 3.3398C95.1532 1.36915 98.6866 2.05418 99.7273 4.64241L105.294 18.583L119.21 23.9438C121.775 25.2052 122.259 28.5284 120.492 30.5175L108.101 42.9371C106.334 44.7079 103.817 45.2901 101.373 45.096L89.1028 43.0342L66.5953 65.1809C64.5381 67.6552 60.8595 67.6552 58.5845 65.1809C56.3338 63.1191 56.3338 59.432 58.5845 57.1518L80.8984 34.811Z" fill="white"/>
<path opacity="0.5" d="M88.7375 52.207L95.6641 53.3695C96.4633 56.2758 96.875 59.3273 96.875 62.5C96.875 81.7539 81.2539 97.375 62 97.375C42.7461 97.375 27.125 81.7539 27.125 62.5C27.125 43.2461 42.7461 27.625 62 27.625C65.1727 27.625 68.2242 28.0367 71.1305 28.618L72.293 35.7625L64.7367 43.3188C63.8406 43.1977 62.9203 42.907 62 42.907C51.2953 42.907 42.625 51.7953 42.625 62.282C42.625 73.2047 51.2953 81.875 62 81.875C72.7047 81.875 81.375 73.2047 81.375 62.282C81.375 61.5797 81.3024 60.6594 81.1813 59.7633L88.7375 52.207ZM120.537 42.0352C122.571 48.2352 124 55.3313 124 62.5C124 96.7453 96.2453 124.5 62 124.5C27.7547 124.5 0 96.7453 0 62.5C0 28.2547 27.7547 0.5 62 0.5C69.1688 0.5 76.0469 1.71675 82.4649 3.95602L69.7742 16.6466C67.2313 16.2204 64.6398 16 62 16C36.1102 16 15.5 36.6102 15.5 62.5C15.5 88.1719 36.1102 109 62 109C87.6719 109 108.5 88.1719 108.5 62.5C108.5 59.8602 108.282 57.2688 107.846 54.7258L120.537 42.0352Z" fill="#D0DCE5"/>
<path d="M81.2991 10.2102C77.3296 9.17815 73.4924 8.62809 69.3717 8.62809C44.326 8.62809 24.0058 28.9482 24.0058 53.9939C24.0058 79.0397 44.326 99.3598 69.3717 99.3598C94.4174 99.3598 114.738 79.0397 114.738 53.9939C114.738 49.8732 114.189 45.8659 113.15 42.0665L115.588 39.6281C116.836 44.1647 117.762 48.9848 117.762 53.9939C117.762 80.722 96.0997 102.384 69.3717 102.384C42.6436 102.384 20.9814 80.722 20.9814 53.9939C20.9814 27.2659 42.6436 5.6037 69.3717 5.6037C74.3808 5.6037 79.0308 6.36206 83.5674 7.76992L81.2991 10.2102ZM100.58 49.0226C100.995 50.6482 101.128 52.3116 101.128 53.9939C101.128 71.5354 86.9132 85.75 69.3717 85.75C51.8302 85.75 37.6156 71.5354 37.6156 53.9939C37.6156 36.4525 51.8302 22.2378 69.3717 22.2378C71.054 22.2378 72.7174 22.3702 74.343 22.6235C74.3241 23.4268 74.3808 24.2339 74.5321 25.0354L74.6455 25.7537C72.9254 25.4324 71.1674 25.2622 69.3717 25.2622C53.5125 25.2622 40.64 38.1348 40.64 53.9939C40.64 69.8531 53.5125 82.7257 69.3717 82.7257C85.2308 82.7257 98.1034 69.8531 98.1034 53.9939C98.1034 52.1982 97.9333 50.4403 97.6119 48.7202L98.3302 48.8336C99.1241 48.9848 99.9369 49.0415 100.58 49.0226ZM69.3717 40.3842C70.279 40.3842 71.1674 40.4787 72.0369 40.6488L69.2583 43.4086C63.4741 43.4653 58.7863 48.1909 58.7863 53.8238C58.7863 59.8348 63.5308 64.4092 69.3717 64.4092C75.1747 64.4092 79.9004 59.8915 79.7869 54.1074L82.7168 51.3287C82.8869 52.1982 82.9814 53.0866 82.9814 53.9939C82.9814 61.5171 76.8949 67.6037 69.3717 67.6037C61.8485 67.6037 55.7619 61.5171 55.7619 53.9939C55.7619 46.4708 61.8485 40.3842 69.3717 40.3842Z" fill="#3F6587"/>
<path d="M71.777 53.6736C71.1721 54.2596 70.227 54.2596 69.6221 53.6736C69.0361 53.0687 69.0361 52.1236 69.6221 51.5187L84.1959 36.9639L81.8142 22.6471C81.4172 20.239 82.2111 17.7835 83.7611 16.0578L93.4959 6.49123C95.1404 4.84936 97.938 5.59393 98.5428 7.8333L102.172 21.1198L115.461 24.7529C117.71 25.3577 118.447 28.1553 116.803 29.7998L107.238 39.3645C105.518 41.0846 103.061 41.8785 100.641 41.4815L86.3319 39.0998L71.777 53.6736ZM95.6319 8.62909L86.0672 18.1956C85.0276 19.2315 84.555 20.704 84.8008 22.15L86.8233 34.3364L99.2611 21.9043L95.6319 8.62909ZM101.151 38.4949C102.588 38.7407 104.062 38.2681 104.932 37.2285L114.667 27.6638L101.397 24.0346L88.9593 36.4724L101.151 38.4949Z" fill="#F37A20"/>
</svg>
