<svg width="27" height="30" viewBox="0 0 27 30" fill="none" xmlns="http://www.w3.org/2000/svg">
<path d="M15.3563 2.39355V3.48105C19.5927 4.32104 22.7845 7.97832 22.7845 12.3623V13.4271C22.7845 16.0949 23.7884 18.6607 25.599 20.6545L26.0285 21.1246C26.516 21.6627 26.6378 22.4217 26.3361 23.073C26.0343 23.7244 25.3727 24.1436 24.6415 24.1436H2.35703C1.62582 24.1436 0.962563 23.7244 0.662999 23.073C0.363436 22.4217 0.483255 21.6627 0.969121 21.1246L1.39949 20.6545C3.21243 18.6607 4.21407 16.0949 4.21407 13.4271V12.3623C4.21407 7.97832 7.35362 4.32104 11.6422 3.48105V2.39355C11.6422 1.39271 12.4721 0.581055 13.4993 0.581055C14.5264 0.581055 15.3563 1.39271 15.3563 2.39355ZM13.4993 29.5811C12.5127 29.5811 11.5668 29.2016 10.8704 28.5219C10.174 27.8422 9.78519 26.868 9.78519 25.9561H17.2133C17.2133 26.868 16.8245 27.8422 16.1281 28.5219C15.4317 29.2016 14.4336 29.5811 13.4993 29.5811Z" fill="#BCD4E7"/>
</svg>
