<svg width="19" height="15" viewBox="0 0 19 15" fill="none" xmlns="http://www.w3.org/2000/svg">
<path d="M17.1528 10.6279H9.76389C9.32689 10.6279 8.97223 10.2359 8.97223 9.75293C8.97223 9.26993 9.32689 8.87793 9.76389 8.87793H17.1528C17.2984 8.87793 17.4167 8.74726 17.4167 8.58626V5.66959C17.4167 5.50859 17.2984 5.37793 17.1528 5.37793H9.76389C9.32689 5.37793 8.97223 4.98593 8.97223 4.50293C8.97223 4.01993 9.32689 3.62793 9.76389 3.62793H17.1528C18.1714 3.62793 19 4.54376 19 5.66959V8.58626C19 9.71209 18.1714 10.6279 17.1528 10.6279Z" fill="#F3F6F9"/>
<path d="M3.43055 10.6279H1.84722C0.828611 10.6279 0 9.71209 0 8.58626V5.66959C0 4.54376 0.828611 3.62793 1.84722 3.62793H3.43055C3.86755 3.62793 4.22222 4.01993 4.22222 4.50293C4.22222 4.98593 3.86755 5.37793 3.43055 5.37793H1.84722C1.70155 5.37793 1.58333 5.50859 1.58333 5.66959V8.58626C1.58333 8.74726 1.70155 8.87793 1.84722 8.87793H3.43055C3.86755 8.87793 4.22222 9.26993 4.22222 9.75293C4.22222 10.2359 3.86755 10.6279 3.43055 10.6279Z" fill="#F3F6F9"/>
<path d="M6.59722 5.08626C6.16022 5.08626 5.80555 4.69426 5.80555 4.21126V2.1696C5.80555 2.0086 5.68733 1.87793 5.54167 1.87793H3.95833C3.52133 1.87793 3.16667 1.48593 3.16667 1.00293C3.16667 0.51993 3.52133 0.12793 3.95833 0.12793H5.54167C6.56028 0.12793 7.38889 1.04376 7.38889 2.1696V4.21126C7.38889 4.69426 7.03422 5.08626 6.59722 5.08626Z" fill="#F3F6F9"/>
<path d="M5.54167 14.1279H3.95833C3.52133 14.1279 3.16667 13.7359 3.16667 13.2529C3.16667 12.7699 3.52133 12.3779 3.95833 12.3779H5.54167C5.68733 12.3779 5.80555 12.2473 5.80555 12.0863V10.0446C5.80555 9.5616 6.16022 9.1696 6.59722 9.1696C7.03422 9.1696 7.38889 9.5616 7.38889 10.0446V12.0863C7.38889 13.2121 6.56028 14.1279 5.54167 14.1279Z" fill="#F3F6F9"/>
<path d="M9.23612 14.1279H7.65278C6.63417 14.1279 5.80555 13.2121 5.80555 12.0863V2.1696C5.80555 1.04376 6.63417 0.12793 7.65278 0.12793H9.23612C9.67311 0.12793 10.0278 0.51993 10.0278 1.00293C10.0278 1.48593 9.67311 1.87793 9.23612 1.87793H7.65278C7.50712 1.87793 7.38889 2.0086 7.38889 2.1696V12.0863C7.38889 12.2473 7.50712 12.3779 7.65278 12.3779H9.23612C9.67311 12.3779 10.0278 12.7699 10.0278 13.2529C10.0278 13.7359 9.67311 14.1279 9.23612 14.1279Z" fill="#F3F6F9"/>
</svg>
