<svg width="30" height="31" viewBox="0 0 30 31" fill="none" xmlns="http://www.w3.org/2000/svg">
<path d="M7.22444 25.2609C6.93131 25.1859 6.77881 25.0653 5.99692 24.2878C5.0694 23.3603 5.01127 23.2684 5.0144 22.7871C5.0144 22.2496 4.84752 22.4421 7.82008 19.4639C10.8176 16.4589 10.6651 16.5889 11.2051 16.5889C11.4595 16.5889 11.5208 16.602 11.7227 16.7064L11.9545 16.8239L13.4064 15.372L13.2239 15.0851C12.8721 14.532 12.537 13.7276 12.387 13.0601C11.9639 11.175 12.4195 9.20248 13.6214 7.69245C15.6946 5.09489 19.4191 4.51488 22.1691 6.37054C23.6798 7.38619 24.6635 8.95122 24.9436 10.7975C25.0017 11.1881 25.0017 12.1125 24.9436 12.5269C24.7579 13.9194 24.1104 15.212 23.1066 16.1951C22.6416 16.677 22.0916 17.0745 21.486 17.3633C20.6885 17.7639 20.0084 17.9527 19.0866 18.0308C17.7747 18.1414 16.3196 17.7764 15.2065 17.0639L14.9196 16.8814L13.4646 18.3333L13.5821 18.5683C13.6864 18.7702 13.6989 18.8314 13.6989 19.0827C13.7021 19.6227 13.8296 19.4702 10.8445 22.4552C8.54259 24.7528 8.18759 25.0922 8.01196 25.1728C7.78758 25.2772 7.43944 25.3159 7.22444 25.2609ZM19.5678 16.9108C21.2379 16.6014 22.6635 15.5139 23.406 13.9876C24.5642 11.5694 23.7835 8.73059 21.5466 7.22994C21.0166 6.8718 20.2741 6.5693 19.5741 6.42929C19.0922 6.33179 18.0672 6.34179 17.5622 6.4493C16.8296 6.6018 16.1327 6.9043 15.5215 7.33744C15.1509 7.59744 14.5383 8.20996 14.2815 8.57434C12.8489 10.58 12.9789 13.3076 14.5971 15.1638C15.4327 16.127 16.589 16.7589 17.849 16.9439C18.2722 17.0089 19.1347 16.9933 19.5709 16.9145L19.5678 16.9108ZM16.4528 23.0565C15.8409 22.8871 15.2321 22.7046 14.6233 22.5165C14.6033 22.4934 15.629 18.8508 15.6715 18.8089C15.6909 18.7858 19.2066 19.7689 19.3497 19.8371C19.4016 19.8596 19.3466 20.0777 18.9097 21.5877C18.734 22.2102 18.5578 22.8321 18.3822 23.4534C18.3597 23.5253 18.324 23.5834 18.3015 23.5834C18.279 23.5803 17.4459 23.3428 16.4521 23.0559L16.4528 23.0565ZM18.8809 23.4965C18.8809 23.4509 19.9034 19.8833 19.9191 19.8733C19.9584 19.8439 23.5223 18.8477 23.536 18.8639C23.5529 18.8795 22.5366 22.4771 22.511 22.4965C22.4941 22.5134 19.0734 23.4896 18.9628 23.5121C18.9172 23.5221 18.8809 23.5121 18.8809 23.4965ZM12.9602 21.9015C13.6627 21.1915 14.2908 20.5465 14.3533 20.4621C14.4958 20.2796 14.6915 19.8527 14.7465 19.6152C14.7696 19.5177 14.7921 19.3227 14.7958 19.1827L14.8058 18.9252L14.9552 18.8827C15.0433 18.8602 15.1184 18.847 15.1246 18.8533C15.1446 18.8764 14.119 22.454 14.0865 22.4865C14.0708 22.499 13.5233 22.6646 12.8658 22.8509L11.6814 23.189L12.9608 21.9034L12.9602 21.9015ZM19.8678 19.3521C19.8478 19.2996 19.8322 19.2477 19.8184 19.1952L19.7791 19.0652L19.9097 19.0427C21.0253 18.8533 22.2241 18.3295 23.1679 17.617C23.301 17.5126 23.376 17.4739 23.3885 17.5026C23.431 17.6395 23.6135 18.2933 23.6104 18.3033C23.581 18.3289 19.8759 19.3708 19.8672 19.3552L19.8678 19.3521ZM7.29944 18.2683C7.25694 18.2358 6.3163 15.0488 6.24442 14.6938C6.2313 14.622 6.36505 14.6582 8.05758 15.1395C9.82199 15.6445 9.88324 15.6639 9.90699 15.7576C9.93262 15.8395 9.91637 15.8651 9.80262 15.9432C9.73449 15.9926 9.16073 16.5458 8.53259 17.1739C8.15508 17.5608 7.76758 17.9389 7.37694 18.3133C7.36444 18.3133 7.32882 18.2933 7.29944 18.2677V18.2683ZM7.98258 14.6188C6.99319 14.3357 6.17942 14.1013 6.17567 14.0982C6.16254 14.0882 7.22757 10.4038 7.24632 10.3806C7.26632 10.365 10.9314 11.39 10.9708 11.4256C10.9776 11.4325 10.7458 12.2725 10.4564 13.2907C9.9745 14.9738 9.91887 15.1432 9.85387 15.1401C9.81137 15.1401 8.97198 14.9026 7.97883 14.6195L7.98258 14.6188ZM10.447 15.0682C10.457 15.0426 10.6264 14.4663 10.8176 13.7888L11.1658 12.5613L11.2151 12.8288C11.2933 13.2907 11.437 13.8182 11.6027 14.277C11.6902 14.5245 11.7552 14.7263 11.752 14.7326C11.7464 14.7395 11.4752 14.8176 11.1539 14.9082C10.8283 14.9988 10.5358 15.0838 10.4995 15.0963C10.4501 15.1095 10.4339 15.0995 10.447 15.067V15.0682ZM9.08573 10.3806C8.09633 10.0975 7.27882 9.85061 7.27007 9.83374C7.23444 9.78186 6.23067 6.23367 6.24442 6.22054C6.26442 6.19804 9.83512 7.22306 9.87137 7.25869C9.91074 7.30119 10.9358 10.9081 10.9095 10.9044L9.08948 10.38L9.08573 10.3806ZM10.877 8.95122L10.4439 7.44807L10.3789 7.21306L11.7883 6.80993C12.5664 6.5918 13.2239 6.39992 13.2564 6.38679C13.2821 6.37429 13.1846 6.5043 13.0383 6.6668C12.2677 7.51682 11.7077 8.53871 11.4076 9.64499C11.3595 9.79811 11.3233 9.95499 11.2976 10.1106C11.2976 10.3581 11.1995 10.0912 10.8776 8.95497L10.877 8.95122Z" fill="#3F6587"/>
</svg>
