<svg width="20" height="21" viewBox="0 0 20 21" fill="none" xmlns="http://www.w3.org/2000/svg">
<path d="M2.22444 20.6374C1.93131 20.5624 1.77881 20.4418 0.996916 19.6642C0.0693969 18.7367 0.0112707 18.6449 0.0143958 18.1636C0.0143958 17.6261 -0.152483 17.8186 2.82008 14.8404C5.81764 11.8353 5.66513 11.9653 6.20515 11.9653C6.45953 11.9653 6.52078 11.9785 6.72266 12.0828L6.95454 12.2003L8.40644 10.7484L8.22394 10.4616C7.87205 9.90842 7.53705 9.10403 7.38704 8.43652C6.96391 6.55148 7.41955 4.57894 8.62144 3.06891C10.6946 0.471358 14.4191 -0.108654 17.1691 1.74701C18.6798 2.76265 19.6635 4.32769 19.9436 6.17397C20.0017 6.56461 20.0017 7.489 19.9436 7.90338C19.7579 9.29591 19.1104 10.5884 18.1066 11.5716C17.6416 12.0535 17.0916 12.451 16.486 12.7397C15.6885 13.1404 15.0084 13.3291 14.0866 13.4072C12.7747 13.5179 11.3196 13.1529 10.2065 12.4404L9.9196 12.2578L8.46457 13.7098L8.58207 13.9448C8.68645 14.1466 8.69895 14.2079 8.69895 14.4591C8.70207 14.9992 8.82957 14.8466 5.84451 17.8317C3.54259 20.1293 3.18759 20.4686 3.01196 20.5493C2.78758 20.6536 2.43944 20.6924 2.22444 20.6374ZM14.5678 12.2872C16.2379 11.9778 17.6635 10.8903 18.406 9.36404C19.5642 6.94586 18.7835 4.10706 16.5466 2.6064C16.0166 2.24827 15.2741 1.94576 14.5741 1.80576C14.0922 1.70826 13.0672 1.71826 12.5622 1.82576C11.8296 1.97826 11.1327 2.28077 10.5215 2.7139C10.1509 2.97391 9.53834 3.58642 9.28146 3.9508C7.84893 5.95647 7.97893 8.68402 9.59709 10.5403C10.4327 11.5035 11.589 12.1353 12.849 12.3203C13.2722 12.3853 14.1347 12.3697 14.5709 12.291L14.5678 12.2872ZM11.4528 18.433C10.8409 18.2636 10.2321 18.0811 9.62334 17.893C9.60334 17.8698 10.629 14.2273 10.6715 14.1854C10.6909 14.1623 14.2066 15.1454 14.3497 15.2135C14.4016 15.236 14.3466 15.4542 13.9097 16.9642C13.734 17.5867 13.5578 18.2086 13.3822 18.8299C13.3597 18.9017 13.324 18.9599 13.3015 18.9599C13.279 18.9567 12.4459 18.7192 11.4521 18.4323L11.4528 18.433ZM13.8809 18.873C13.8809 18.8274 14.9034 15.2598 14.9191 15.2498C14.9584 15.2204 18.5223 14.2241 18.536 14.2404C18.5529 14.256 17.5366 17.8536 17.511 17.873C17.4941 17.8898 14.0734 18.8661 13.9628 18.8886C13.9172 18.8986 13.8809 18.8886 13.8809 18.873ZM7.96018 17.2779C8.66269 16.5679 9.29083 15.9229 9.35333 15.8385C9.49584 15.656 9.69147 15.2292 9.74647 14.9917C9.76959 14.8942 9.79209 14.6991 9.79584 14.5591L9.80584 14.3016L9.95522 14.2591C10.0433 14.2366 10.1184 14.2235 10.1246 14.2298C10.1446 14.2529 9.11895 17.8305 9.08645 17.863C9.07083 17.8755 8.52332 18.0411 7.8658 18.2273L6.68141 18.5655L7.96081 17.2798L7.96018 17.2779ZM14.8678 14.7285C14.8478 14.676 14.8322 14.6241 14.8184 14.5716L14.7791 14.4416L14.9097 14.4191C16.0253 14.2298 17.2241 13.706 18.1679 12.9935C18.301 12.8891 18.376 12.8504 18.3885 12.8791C18.431 13.016 18.6135 13.6698 18.6104 13.6798C18.581 13.7054 14.8759 14.7473 14.8672 14.7316L14.8678 14.7285ZM2.29944 13.6447C2.25694 13.6122 1.3163 10.4253 1.24442 10.0703C1.2313 9.99843 1.36505 10.0347 3.05758 10.5159C4.82199 11.0209 4.88324 11.0403 4.90699 11.1341C4.93262 11.216 4.91637 11.2416 4.80262 11.3197C4.73449 11.3691 4.16073 11.9222 3.53259 12.5504C3.15508 12.9372 2.76758 13.3154 2.37694 13.6898C2.36444 13.6898 2.32882 13.6698 2.29944 13.6441V13.6447ZM2.98258 9.9953C1.99319 9.71217 1.17942 9.47779 1.17567 9.47467C1.16254 9.46467 2.22757 5.78022 2.24632 5.75709C2.26632 5.74146 5.93139 6.76649 5.97077 6.80211C5.97764 6.80899 5.74576 7.649 5.45638 8.66715C4.9745 10.3503 4.91887 10.5197 4.85387 10.5166C4.81137 10.5166 3.97198 10.2791 2.97883 9.99593L2.98258 9.9953ZM5.44701 10.4447C5.45701 10.4191 5.62638 9.8428 5.81764 9.16528L6.16577 7.93776L6.21515 8.20526C6.29327 8.66715 6.43703 9.19466 6.60265 9.65342C6.69016 9.90092 6.75516 10.1028 6.75203 10.1091C6.74641 10.1159 6.47515 10.1941 6.15389 10.2847C5.82826 10.3753 5.53576 10.4603 5.49951 10.4728C5.45013 10.4859 5.43388 10.4759 5.44701 10.4434V10.4447ZM4.08573 5.75709C3.09633 5.47396 2.27882 5.22708 2.27007 5.2102C2.23444 5.15833 1.23067 1.61013 1.24442 1.59701C1.26442 1.57451 4.83512 2.59953 4.87137 2.63515C4.91074 2.67765 5.93577 6.2846 5.90951 6.28085L4.08948 5.75646L4.08573 5.75709ZM5.87701 4.32769L5.44388 2.82453L5.37888 2.58953L6.78828 2.18639C7.56642 1.96826 8.22394 1.77638 8.25644 1.76326C8.28206 1.75076 8.18456 1.88076 8.03831 2.04326C7.26767 2.89328 6.70766 3.91518 6.40765 5.02145C6.35952 5.17458 6.32327 5.33146 6.29765 5.48708C6.29765 5.73459 6.19952 5.46771 5.87764 4.33144L5.87701 4.32769Z" fill="#F3F6F9"/>
</svg>
