<svg width="47" height="46" viewBox="0 0 47 46" fill="none" xmlns="http://www.w3.org/2000/svg">
<path d="M20.0781 19.4905H18.6094V10.678H15.1615L15.749 4.80298H13.4688C13.4688 2.37293 11.4925 0.396729 9.0625 0.396729C6.63245 0.396729 4.65625 2.37293 4.65625 4.80298H2.37602L3.84477 19.4905H0.984375V20.9592H21.5469V0.396729H20.0781V19.4905ZM17.1406 19.4905H11.2656V12.1467H17.1406V19.4905ZM9.0625 1.86548C10.6825 1.86548 12 3.18295 12 4.80298C12 6.42301 10.6825 7.74048 9.0625 7.74048C7.44247 7.74048 6.125 6.42301 6.125 4.80298C6.125 3.18295 7.44247 1.86548 9.0625 1.86548ZM3.99898 6.27173H4.91328C5.51988 7.98062 7.14798 9.20923 9.0625 9.20923C10.977 9.20923 12.6051 7.98062 13.2117 6.27173H14.126L13.6854 10.678H9.79688V19.4905H5.32086L3.99898 6.27173Z" fill="#3F6587"/>
<path d="M46.1094 26.8342H27.0156V45.928H25.5469V25.3655H46.1094V26.8342Z" fill="#F37A20"/>
<path d="M36.3419 28.6624L29.25 34.1782V36.0061H30.7188V43.3499H43.9375V36.0061H45.4062V34.1782L38.3144 28.6624H36.3419ZM39.5312 41.8811H35.125V38.9436H39.5312V41.8811ZM42.4688 41.8811H41V37.4749H33.6562V41.8811H32.1875V36.0061H42.4688V41.8811ZM31.1807 34.5374L36.8456 30.1311H37.8099L43.4748 34.5374H31.1807Z" fill="#3F6587"/>
<path d="M8.32812 7.0061H9.79688V5.53735H11.2656V4.0686H9.79688V2.59985H8.32812V4.0686H6.85938V5.53735H8.32812V7.0061Z" fill="#F37A20"/>
<path d="M12.7344 13.6155H15.6719V15.0842H12.7344V13.6155Z" fill="#F37A20"/>
<path d="M12.7344 16.553H15.6719V18.0217H12.7344V16.553Z" fill="#F37A20"/>
<path d="M6.85938 10.678H8.32812V12.1467H6.85938V10.678Z" fill="#F37A20"/>
<path d="M6.85938 13.6155H8.32812V15.0842H6.85938V13.6155Z" fill="#F37A20"/>
<path d="M6.85938 16.553H8.32812V18.0217H6.85938V16.553Z" fill="#F37A20"/>
<path d="M21.2812 45.928H19.8504V26.8342H1.25V25.3655H21.2812V45.928Z" fill="#3F6587"/>
<path d="M12.6786 41.4124H16.9235L13.5328 32.5851C13.2781 31.9235 12.6864 31.4957 12.0255 31.4957C11.3646 31.4957 10.7729 31.9235 10.5182 32.5851L9.63073 34.8957L7.65457 29.7518C7.40053 29.0902 6.80886 28.6624 6.14796 28.6624C5.48706 28.6624 4.89539 29.0902 4.64069 29.7518L1.25 38.579H5.4949V44.2457H1.57653V45.6624H17.25V44.2457H12.6786V41.4124ZM11.7238 33.1305C11.8257 32.8663 12.2253 32.8663 12.3272 33.1305L14.9643 39.9957H9.08673L9.63073 38.579H11.0459L10.3387 36.7381L11.7238 33.1305ZM5.84624 30.2972C5.94812 30.033 6.3478 30.033 6.44967 30.2972L9.08673 37.1624H3.20918L5.84624 30.2972ZM6.80102 38.579H8.2162L7.12755 41.4124H11.3724V44.2457H6.80102V38.579Z" fill="#F37A20"/>
<path d="M45.0469 19.4905V10.678H39.1719V1.86548H28.8906V19.4905H27.4219V0.396729H25.9531V20.9592H46.5156V19.4905H45.0469ZM43.5781 19.4905H36.2344V12.1467H43.5781V19.4905ZM30.3594 3.33423H37.7031V10.678H34.7656V19.4905H30.3594V3.33423Z" fill="#F37A20"/>
<path d="M37.7031 13.6155H39.1719V15.0842H37.7031V13.6155Z" fill="#3F6587"/>
<path d="M37.7031 16.553H39.1719V18.0217H37.7031V16.553Z" fill="#3F6587"/>
<path d="M40.6406 13.6155H42.1094V15.0842H40.6406V13.6155Z" fill="#3F6587"/>
<path d="M40.6406 16.553H42.1094V18.0217H40.6406V16.553Z" fill="#3F6587"/>
<path d="M34.7656 4.80298H36.2344V6.27173H34.7656V4.80298Z" fill="#3F6587"/>
<path d="M31.8281 4.80298H33.2969V6.27173H31.8281V4.80298Z" fill="#3F6587"/>
<path d="M31.8281 7.74048H33.2969V9.20923H31.8281V7.74048Z" fill="#3F6587"/>
<path d="M34.7656 7.74048H36.2344V9.20923H34.7656V7.74048Z" fill="#3F6587"/>
<path d="M31.8281 16.553H33.2969V18.0217H31.8281V16.553Z" fill="#3F6587"/>
<path d="M31.8281 13.6155H33.2969V15.0842H31.8281V13.6155Z" fill="#3F6587"/>
<path d="M31.8281 10.678H33.2969V12.1467H31.8281V10.678Z" fill="#3F6587"/>
</svg>
