<svg width="34" height="45" viewBox="0 0 34 45" fill="none" xmlns="http://www.w3.org/2000/svg">
<path d="M25.2522 30.9538C26.4537 30.2587 26.7588 28.3722 27.7343 27.3968C28.7098 26.4214 30.5962 26.1181 31.2915 24.9158C31.9773 23.7307 31.3058 21.9475 31.6673 20.594C32.016 19.2834 33.4255 18.0803 33.4255 16.6624C33.4255 15.2444 31.9412 14.0395 31.5915 12.7324C31.2299 11.3789 31.9019 9.59571 31.2163 8.41063C30.5214 7.20923 28.6354 6.90501 27.6599 5.92962C26.6845 4.95423 26.3802 3.0679 25.1787 2.37267C23.9962 1.68835 22.2042 2.35675 20.8566 1.99669C19.6229 1.64649 18.4197 0.162354 17.0016 0.162354C15.5835 0.162354 14.3803 1.64649 13.074 1.99626C11.7161 2.3572 9.92842 1.68688 8.74927 2.37095C7.54778 3.06618 7.24353 4.95251 6.26807 5.92704C5.29347 6.90243 3.40614 7.20665 2.71085 8.40806C2.02502 9.5897 2.6971 11.3772 2.33528 12.7264C1.98462 14.0413 0.500441 15.2444 0.500441 16.6624C0.500441 18.0803 1.98469 19.2852 2.33448 20.5923C2.69605 21.9458 2.0238 23.729 2.70929 24.9141C3.40528 26.1155 5.29089 26.4163 6.26549 27.3959C7.24096 28.3713 7.5452 30.2577 8.74755 30.9538C9.92842 31.637 11.7221 30.9684 13.0688 31.3292C14.3803 31.6756 15.5835 33.1624 17.0016 33.1624C18.4197 33.1624 19.6246 31.6782 20.9327 31.3284C22.2872 30.9709 24.0662 31.6413 25.2522 30.9538ZM16.9243 30.3694C16.2342 30.0255 15.1366 29.0511 13.7031 28.6687C12.267 28.2839 10.8635 28.5569 10.0685 28.5211C9.64283 27.8475 9.17555 26.4887 8.13391 25.448C7.09313 24.4064 5.74037 23.9441 5.0597 23.5127C5.10611 22.7209 5.37339 21.3116 4.9918 19.885C4.60806 18.449 3.63647 17.3593 3.29097 16.6641C3.6344 15.9744 4.60849 14.8792 4.99266 13.4414C5.37374 12.0149 5.10697 10.6158 5.13851 9.80884C5.81351 9.38164 7.16936 8.91767 8.21358 7.87353C9.24946 6.83798 9.72216 5.46642 10.1519 4.79868C10.934 4.76688 12.352 5.03415 13.7787 4.65259C15.2174 4.26802 16.2994 3.29993 16.9999 2.95188C17.6898 3.29495 18.7849 4.26931 20.2219 4.65345C21.6606 5.03767 23.0589 4.76474 23.8556 4.80049C24.2716 5.45791 24.7538 6.83806 25.7902 7.87361C26.8241 8.9083 28.1967 9.38697 28.8645 9.80892C28.895 10.6058 28.6279 12.0124 29.01 13.4424C29.394 14.8784 30.3653 15.9672 30.7108 16.6624C30.369 17.3499 29.3941 18.4482 29.0091 19.8851C28.6306 21.3022 28.8939 22.6437 28.8634 23.5177C28.1882 23.9447 26.8317 24.4097 25.7883 25.453C24.7544 26.4868 24.2766 27.8584 23.8546 28.5253C23.0644 28.5608 21.6596 28.2868 20.2209 28.6716C18.7892 29.0545 17.6978 30.0256 16.9243 30.3694ZM24.4873 16.6624C24.4873 12.4772 21.102 9.09985 17.0016 9.09985C12.9012 9.09985 9.43854 12.4772 9.43854 16.6624C9.43854 20.8372 12.8239 24.2249 16.9243 24.2249C21.0246 24.2249 24.4873 20.8389 24.4873 16.6624ZM17.0016 21.4749C14.3459 21.4749 12.1887 19.3178 12.1887 16.6624C12.1887 14.0086 14.3477 11.8499 16.9243 11.8499C19.5009 11.8499 21.7371 14.0069 21.7371 16.6624C21.7371 19.3178 19.6573 21.4749 17.0016 21.4749ZM31.2167 31.9678C30.9374 31.2615 30.1356 30.9194 29.4325 31.1958C28.7275 31.4751 28.3814 32.2743 28.6604 32.9807L30.742 38.2444L26.6614 37.6804L24.5437 41.3139L22.402 36.0545C22.116 35.3495 21.3088 35.0112 20.6109 35.2999C19.9072 35.5859 19.5693 36.3878 19.8562 37.0908L21.9962 42.3493C22.4333 43.4233 23.413 44.1108 24.685 44.1624C25.7877 44.1624 26.7803 43.55 27.2736 42.5648L28.1692 40.791L30.0178 41.1616C31.0595 41.3805 32.1398 40.9978 32.8256 40.1733C33.5091 39.3529 33.6876 38.226 33.2943 37.2325L31.2167 31.9678ZM13.392 35.3022C12.6925 35.0122 11.8854 35.3532 11.6009 36.0568L9.45917 41.3162L7.34151 37.6828L3.26433 38.2454L5.34159 32.9834C5.62091 32.2771 5.27445 31.4778 4.56947 31.1985C3.86422 30.9194 3.06666 31.2631 2.78734 31.9678L0.705778 37.2315C0.312327 38.2249 0.490918 39.3516 1.17443 40.1723C1.86336 40.9994 2.938 41.3754 3.97706 41.1623L5.83173 40.7903L6.72641 42.5624C7.22196 43.5464 8.21066 44.1591 9.42677 44.1591C10.5801 44.1134 11.5736 43.4193 12.0077 42.3501L14.1494 37.0907C14.4405 36.385 14.0967 35.5858 13.392 35.3022Z" fill="#F37A20"/>
</svg>
