<svg width="36" height="37" viewBox="0 0 36 37" fill="none" xmlns="http://www.w3.org/2000/svg">
<path d="M32.8689 3.31587C30.8423 1.28524 28.2669 0.162354 25.4521 0.162354C22.1624 0.162354 18.5469 1.70079 15.1151 5.12853L9.08452 11.1522C3.4994 16.7336 4.02787 25.9741 5.32123 29.2506L0.334248 34.2337C0.114348 34.4467 0 34.742 0 35.0374C0 35.635 0.483781 36.1624 1.06256 36.1624C1.35283 36.1624 1.64309 36.0569 1.86264 35.8284L6.84963 30.8453C8.06348 31.3199 10.0697 31.6968 12.427 31.6968C16.4464 31.6968 21.3708 30.6112 24.9596 27.0871L30.9936 21.0578C37.3725 14.6889 37.2669 7.72095 32.8689 3.31587ZM10.6748 12.7483L16.7089 6.71899C19.5342 3.90649 22.553 2.41235 25.4451 2.41235C27.5632 2.41235 29.6404 3.27368 31.2765 4.90845C34.2495 7.88829 34.4958 11.9467 32.1997 15.9264H21.8415L24.4628 13.3073C24.9026 12.8678 24.9026 12.1556 24.4628 11.7168C24.023 11.2774 23.3108 11.2774 22.871 11.7168L7.12969 27.4457C6.42109 24.4131 6.18324 17.2413 10.6748 12.7483ZM12.4903 29.4405C10.8543 29.4405 9.66857 29.2471 8.72564 29.0362L12.8598 24.9053L23.992 24.9317L23.4924 25.4942C19.9916 28.9272 15.101 29.4405 12.4903 29.4405ZM26.2403 22.6905H15.0869L19.5271 18.1813H30.5327C30.2301 18.6124 26.2403 22.6905 26.2403 22.6905Z" fill="#3F6587"/>
</svg>
