<svg width="36" height="37" viewBox="0 0 36 37" fill="none" xmlns="http://www.w3.org/2000/svg">
<path d="M22.5 24.8499C22.5 23.9147 23.2523 23.1624 24.1875 23.1624H27.5625C28.4977 23.1624 29.25 23.9147 29.25 24.8499V28.2249C29.25 29.16 28.4977 29.9124 27.5625 29.9124H24.1875C23.2523 29.9124 22.5 29.16 22.5 28.2249V24.8499ZM27 27.6624V25.4124H24.75V27.6624H27ZM22.5 6.84985C22.5 5.91821 23.2523 5.16235 24.1875 5.16235H27.5625C28.4977 5.16235 29.25 5.91821 29.25 6.84985V10.2249C29.25 11.16 28.4977 11.9124 27.5625 11.9124H24.1875C23.2523 11.9124 22.5 11.16 22.5 10.2249V6.84985ZM24.75 7.41235V9.66235H27V7.41235H24.75ZM24.1875 20.9124C23.2523 20.9124 22.5 20.16 22.5 19.2249V15.8499C22.5 14.9147 23.2523 14.1624 24.1875 14.1624H27.5625C28.4977 14.1624 29.25 14.9147 29.25 15.8499V19.2249C29.25 20.16 28.4977 20.9124 27.5625 20.9124H24.1875ZM24.75 16.4124V18.6624H27V16.4124H24.75ZM31.5 0.662354C33.982 0.662354 36 2.67681 36 5.16235V32.1624C36 34.6444 33.982 36.6624 31.5 36.6624H20.25C17.768 36.6624 15.75 34.6444 15.75 32.1624V5.16235C15.75 2.67681 17.768 0.662354 20.25 0.662354H31.5ZM31.5 2.91235H20.25C19.0055 2.91235 18 3.91993 18 5.16235V32.1624C18 33.4069 19.0055 34.4124 20.25 34.4124H31.5C32.7445 34.4124 33.75 33.4069 33.75 32.1624V5.16235C33.75 3.91993 32.7445 2.91235 31.5 2.91235ZM12.375 11.9124H4.5C3.25758 11.9124 2.25 12.9178 2.25 14.1624V32.1624C2.25 33.4069 3.25758 34.4124 4.5 34.4124H13.5C14.1187 34.4124 14.625 34.9186 14.625 35.5374C14.625 36.1561 14.1187 36.6624 13.5 36.6624H4.5C2.01445 36.6624 0 34.6444 0 32.1624V14.1624C0 11.6803 2.01445 9.66235 4.5 9.66235H12.375C12.9937 9.66235 13.5 10.1686 13.5 10.7874C13.5 11.4061 12.9937 11.9124 12.375 11.9124ZM9.5625 23.1624C10.4977 23.1624 11.25 23.9147 11.25 24.8499V28.2249C11.25 29.16 10.4977 29.9124 9.5625 29.9124H6.1875C5.25586 29.9124 4.5 29.16 4.5 28.2249V24.8499C4.5 23.9147 5.25586 23.1624 6.1875 23.1624H9.5625ZM9 27.6624V25.4124H6.75V27.6624H9ZM9.5625 14.1624C10.4977 14.1624 11.25 14.9147 11.25 15.8499V19.2249C11.25 20.16 10.4977 20.9124 9.5625 20.9124H6.1875C5.25586 20.9124 4.5 20.16 4.5 19.2249V15.8499C4.5 14.9147 5.25586 14.1624 6.1875 14.1624H9.5625ZM9 18.6624V16.4124H6.75V18.6624H9Z" fill="#3F6587"/>
</svg>
