<svg width="41" height="37" viewBox="0 0 41 37" fill="none" xmlns="http://www.w3.org/2000/svg">
<path d="M12.4352 8.02329C11.7519 7.91782 11.396 7.34126 11.4957 6.72603C12.1292 3.00087 15.4106 0.162354 19.3611 0.162354C22.8347 0.162354 25.7887 2.3554 26.8778 5.41259C27.0913 5.93501 26.7781 6.64095 26.1873 6.84837C25.5894 7.05509 24.9417 6.74782 24.7352 6.16212C23.9523 3.9761 21.8382 2.41235 19.3611 2.41235C16.5424 2.41235 14.2005 4.43876 13.745 7.09868C13.6382 7.71392 13.0545 8.12173 12.4352 8.02329ZM28.4722 18.7249C28.4722 17.7897 29.2339 17.0374 30.1806 17.0374C31.1273 17.0374 31.8889 17.7897 31.8889 18.7249C31.8889 19.66 31.1273 20.4124 30.1806 20.4124C29.2339 20.4124 28.4722 19.66 28.4722 18.7249ZM34.7717 9.00767L34.1667 11.3491C35.6686 12.5725 36.9854 14.1194 37.7755 15.9124H38.7222C39.9821 15.9124 41 16.9178 41 18.1624V24.9124C41 26.1569 39.9821 27.1624 38.7222 27.1624H36.4444C35.27 28.6459 33.704 29.9467 31.8889 30.7272V32.7874C31.8889 34.6506 30.3585 36.1624 28.4722 36.1624H26.1944C24.3082 36.1624 22.7778 34.6506 22.7778 32.7874V31.6624H18.2222V32.7874C18.2222 34.6506 16.6918 36.1624 14.8056 36.1624H12.5278C10.6415 36.1624 9.11111 34.6506 9.11111 32.7874V29.4124C6.34503 27.3592 4.55556 24.0897 4.55556 20.4124C2.03007 20.3561 0 18.317 0 15.8139C0 14.0702 0.996528 12.4741 2.57531 11.6936L2.90701 11.5319C3.47005 11.2506 4.1541 11.4756 4.43526 12.0311C4.71642 12.5866 4.48865 13.2686 3.92632 13.5428L3.59391 13.7045C2.78743 14.1053 2.21372 14.9209 2.21372 15.8139C2.21372 17.1077 3.34335 18.1624 4.65806 18.1624H4.78333C5.83823 12.9663 10.4351 9.16235 15.8804 9.16235H26.7924C28.0451 7.78423 29.8674 6.91235 31.8889 6.91235H33.1203C34.2307 6.91235 35.0422 7.94595 34.7717 9.00767ZM15.9444 11.4124C10.912 11.4124 6.83333 15.4413 6.83333 20.4124C6.83333 23.3584 8.26406 25.967 10.4778 27.6124L11.3889 28.2874V32.7874C11.3889 33.4061 11.9014 33.9124 12.5278 33.9124H14.8056C15.4319 33.9124 15.9444 33.4061 15.9444 32.7874V29.4124H25.0556V32.7874C25.0556 33.4061 25.5681 33.9124 26.1944 33.9124H28.4722C29.0986 33.9124 29.6111 33.4061 29.6111 32.7874V29.2506L30.9778 28.667C32.4299 28.0413 33.6826 27.0499 34.6222 25.8124L35.3056 24.9124H38.7222V18.1624H36.2807L35.6899 16.8124C35.0564 15.378 34.0528 14.1405 32.8 13.2124L31.5899 12.3124L32.3871 9.16235H31.8889C30.5365 9.16235 29.3335 9.73892 28.4936 10.66L27.8102 11.4124H15.9444Z" fill="#F37A20"/>
</svg>
