<svg width="31" height="15" viewBox="0 0 31 15" fill="none" xmlns="http://www.w3.org/2000/svg">
<g opacity="0.5">
<path d="M5.65049 9.77347C6.57287 9.77347 7.26146 9.60424 7.69715 9.27066C8.12818 8.94049 8.42588 8.36847 8.58192 7.57056C8.72741 6.82475 8.67198 6.30399 8.41724 6.02296C8.15678 5.73592 7.59364 5.59035 6.74351 5.59035H5.26946L4.45227 9.77347H5.65049ZM0.829265 14.9263C0.760842 14.9263 0.695859 14.8959 0.652358 14.8433C0.608781 14.7907 0.591121 14.7215 0.604194 14.6546L2.76989 3.56929C2.79084 3.46213 2.88526 3.3847 2.99504 3.3847H7.66267C9.12961 3.3847 10.2215 3.78096 10.9078 4.56259C11.5978 5.34833 11.8108 6.44667 11.541 7.82702C11.4312 8.38939 11.2424 8.91167 10.9798 9.37926C10.7169 9.84739 10.3694 10.2805 9.94687 10.6669C9.44107 11.1378 8.86861 11.4793 8.24691 11.6803C7.63508 11.8786 6.84931 11.9791 5.91149 11.9791H4.02147L3.48173 14.7416C3.46078 14.8489 3.36644 14.9263 3.25666 14.9263H0.829265Z" fill="#4F4F4F"/>
<path d="M17.1066 11.9791C17.0381 11.9791 16.9732 11.9487 16.9297 11.8961C16.886 11.8435 16.8683 11.7744 16.8814 11.7074L17.8394 6.80262C17.9306 6.33616 17.9081 6.00136 17.7762 5.85989C17.6955 5.77342 17.453 5.62838 16.7359 5.62838H15.0003L13.7959 11.7945C13.7749 11.9017 13.6805 11.9791 13.5707 11.9791H11.1625C11.094 11.9791 11.0291 11.9487 10.9855 11.8961C10.9419 11.8435 10.9243 11.7743 10.9373 11.7074L13.1031 0.62209C13.124 0.514926 13.2184 0.4375 13.3282 0.4375H15.7364C15.8049 0.4375 15.8698 0.467923 15.9134 0.520478C15.957 0.57311 15.9746 0.642245 15.9616 0.709175L15.4389 3.3847H17.306C18.7284 3.3847 19.6929 3.63417 20.2547 4.1474C20.8273 4.67097 21.006 5.50813 20.7858 6.6359L19.7781 11.7945C19.7572 11.9017 19.6629 11.9791 19.553 11.9791H17.1066Z" fill="#4F4F4F"/>
<path d="M24.5962 9.77347C25.5186 9.77347 26.2072 9.60424 26.6429 9.27066C27.0739 8.94057 27.3716 8.36855 27.5277 7.57056C27.6732 6.82475 27.6178 6.30399 27.363 6.02296C27.1025 5.73592 26.5394 5.59035 25.6892 5.59035H24.2152L23.398 9.77347H24.5962ZM19.7751 14.9263C19.7066 14.9263 19.6416 14.8959 19.5981 14.8433C19.5546 14.7907 19.5368 14.7215 19.5499 14.6546L21.7156 3.56929C21.7366 3.46213 21.831 3.3847 21.9408 3.3847H26.6084C28.0754 3.3847 29.1672 3.78096 29.8536 4.56259C30.5435 5.34826 30.7565 6.44659 30.4868 7.82702C30.3769 8.38939 30.1881 8.91167 29.9255 9.37926C29.6626 9.84739 29.3151 10.2805 28.8926 10.6669C28.3868 11.1378 27.8143 11.4793 27.1926 11.6803C26.5808 11.8786 25.795 11.9791 24.8572 11.9791H22.9671L22.4276 14.7416C22.4066 14.8489 22.3122 14.9263 22.2024 14.9263H19.7751Z" fill="#4F4F4F"/>
</g>
</svg>
