<svg width="43" height="44" viewBox="0 0 43 44" fill="none" xmlns="http://www.w3.org/2000/svg">
<g clip-path="url(#clip0_1746_19124)">
<path d="M35.9357 0.62793H24.5373C23.5572 0.62793 22.7627 1.42245 22.7627 2.40253V41.8533C22.7627 42.8334 23.5572 43.6279 24.5373 43.6279H35.9357C36.9158 43.6279 37.7103 42.8334 37.7103 41.8533V2.40253C37.7103 1.42245 36.9158 0.62793 35.9357 0.62793Z" fill="url(#paint0_linear_1746_19124)"/>
<path d="M28.9056 41.8533V43.6279H27.131H15.7326C14.7525 43.6279 13.958 42.8334 13.958 41.8533V13.1184C13.958 12.1383 14.7525 11.3438 15.7326 11.3438H27.131C28.1111 11.3438 28.9056 12.1383 28.9056 13.1184V41.8533Z" fill="url(#paint1_linear_1746_19124)"/>
<path fill-rule="evenodd" clip-rule="evenodd" d="M20.2374 41.8533V43.6279H18.4628H7.0644C6.08431 43.6279 5.28979 42.8334 5.28979 41.8533V23.9025C5.28979 22.9224 6.08431 22.1279 7.0644 22.1279H18.4628C19.4429 22.1279 20.2374 22.9224 20.2374 23.9025V41.8533Z" fill="url(#paint2_linear_1746_19124)"/>
</g>
<defs>
<linearGradient id="paint0_linear_1746_19124" x1="30.2365" y1="0.62793" x2="30.2365" y2="43.6279" gradientUnits="userSpaceOnUse">
<stop stop-color="#EAEAEA"/>
<stop offset="1" stop-color="#B4B4B4"/>
</linearGradient>
<linearGradient id="paint1_linear_1746_19124" x1="21.4318" y1="11.3438" x2="21.4318" y2="43.6279" gradientUnits="userSpaceOnUse">
<stop stop-color="#FAFAFA"/>
<stop offset="1" stop-color="#DDDDDD"/>
</linearGradient>
<linearGradient id="paint2_linear_1746_19124" x1="12.7636" y1="22.1279" x2="12.7636" y2="43.6279" gradientUnits="userSpaceOnUse">
<stop stop-color="#F9F9F9"/>
<stop offset="1" stop-color="#F3F3F3"/>
</linearGradient>
<clipPath id="clip0_1746_19124">
<rect width="43" height="43" fill="white" transform="translate(0 0.62793)"/>
</clipPath>
</defs>
</svg>
