<svg width="16" height="14" viewBox="0 0 16 14" fill="none" xmlns="http://www.w3.org/2000/svg">
<g filter="url(#filter0_d_2074_24418)">
<path d="M14.2014 2.37194C13.65 2.37194 13.2029 2.78771 13.2029 3.30052C13.2029 3.5094 13.2908 3.69261 13.416 3.84768L11.1788 5.51214C11.0301 5.62273 10.8545 5.67508 10.681 5.67508C10.3912 5.67508 10.1074 5.52888 9.96516 5.26419L8.5274 2.5899C8.80979 2.42627 8.98701 2.14769 8.98701 1.8148C8.98701 1.302 8.56267 0.88623 8.01104 0.88623C7.4594 0.88623 6.99013 1.302 6.99013 1.8148C6.99013 2.14769 7.1889 2.42627 7.47188 2.59016L6.05659 5.26444C5.91431 5.50819 5.62976 5.67534 5.34021 5.67534C5.16686 5.67534 4.99125 5.62299 4.84249 5.5124L2.60523 3.84793C2.73129 3.69284 2.79668 3.48855 2.79668 3.30052C2.79668 2.78771 2.34963 2.37194 1.79824 2.37194C1.24686 2.37194 0.799805 2.78771 0.799805 3.30052C0.799805 3.81332 1.24686 4.22909 1.79824 4.22909C1.80443 4.22909 1.80965 4.22639 1.81584 4.22629L3.07687 10.6752C3.16835 11.0286 3.49809 11.2862 3.88498 11.2862H12.1371C12.523 11.2862 12.854 11.0295 12.9229 10.6764L14.1839 4.22514C14.1889 4.22677 14.1964 4.22909 14.2014 4.22909C14.753 4.22909 15.1998 3.81355 15.1998 3.30052C15.1998 2.78748 14.753 2.37194 14.2014 2.37194ZM11.8026 10.1719H4.21946L3.37353 5.8448L4.0959 6.38221C4.44885 6.64477 4.89141 6.78939 5.34196 6.78939C6.10402 6.78939 6.78895 6.39591 7.12941 5.76262L8.01104 4.11998L8.89391 5.76193C9.23438 6.39521 9.9193 6.78869 10.6814 6.78869C11.1322 6.78869 11.5747 6.64409 11.9274 6.38152L12.6498 5.84411L11.8026 10.1719Z" fill="white"/>
</g>
<defs>
<filter id="filter0_d_2074_24418" x="-0.200195" y="0.88623" width="16.3999" height="12.3999" filterUnits="userSpaceOnUse" color-interpolation-filters="sRGB">
<feFlood flood-opacity="0" result="BackgroundImageFix"/>
<feColorMatrix in="SourceAlpha" type="matrix" values="0 0 0 0 0 0 0 0 0 0 0 0 0 0 0 0 0 0 127 0" result="hardAlpha"/>
<feOffset dy="1"/>
<feGaussianBlur stdDeviation="0.5"/>
<feComposite in2="hardAlpha" operator="out"/>
<feColorMatrix type="matrix" values="0 0 0 0 0 0 0 0 0 0 0 0 0 0 0 0 0 0 0.25 0"/>
<feBlend mode="normal" in2="BackgroundImageFix" result="effect1_dropShadow_2074_24418"/>
<feBlend mode="normal" in="SourceGraphic" in2="effect1_dropShadow_2074_24418" result="shape"/>
</filter>
</defs>
</svg>
