<svg width="13" height="17" viewBox="0 0 13 17" fill="none" xmlns="http://www.w3.org/2000/svg">
<path d="M10.5821 9.91248C10.8376 9.74791 11.114 9.51998 11.3209 9.1906C11.6516 8.61966 11.6187 8.04466 11.5996 7.70029C11.5989 7.68747 11.598 7.67471 11.5972 7.66188C11.6022 7.6545 11.6071 7.64705 11.6121 7.6396C11.8041 7.32185 12.0979 6.83435 12.0979 6.16248C12.0979 5.4906 11.7769 5.00341 11.5853 4.71216C11.5805 4.70478 11.5756 4.69745 11.5707 4.69019C11.5716 4.67743 11.5724 4.66474 11.5731 4.65197C11.5923 4.30791 11.6251 3.7326 11.2948 3.16197C10.9625 2.5876 10.4441 2.32635 10.1347 2.17104C10.1248 2.16609 10.1149 2.16127 10.1051 2.15639C10.1002 2.1465 10.0953 2.13661 10.0904 2.12673C9.93504 1.81741 9.67411 1.29891 9.09938 0.966413C8.76185 0.771101 8.37869 0.676819 7.92615 0.676819C7.82239 0.676819 7.71585 0.681947 7.60925 0.687866C7.59637 0.688538 7.58343 0.689332 7.5705 0.690063C7.56311 0.685119 7.55572 0.680176 7.54828 0.675291C7.28496 0.483413 6.79742 0.162476 6.12549 0.162476C5.45355 0.162476 4.96601 0.483413 4.67536 0.674976C4.66911 0.679976 4.65974 0.684663 4.65349 0.689663C4.64099 0.688726 4.62848 0.688101 4.61598 0.687163C4.5066 0.681538 4.40034 0.676226 4.29721 0.676226C3.84498 0.676226 3.46213 0.770351 3.12461 0.965663C2.54987 1.2981 2.28891 1.81654 2.13358 2.12591C2.12864 2.13574 2.12382 2.14557 2.11899 2.15539C2.10917 2.16022 2.09928 2.16504 2.08945 2.16998C1.78012 2.32529 1.26163 2.58623 0.928793 3.16091C0.598453 3.73123 0.630956 4.30623 0.650332 4.64998C0.651004 4.66273 0.651857 4.67555 0.652714 4.68826C0.64752 4.69685 0.642832 4.7031 0.637831 4.71248C0.44594 5.0031 0.125 5.4906 0.125 6.16248C0.125 6.83435 0.445965 7.32154 0.637856 7.61279C0.642519 7.61873 0.64752 7.6281 0.652207 7.63435C0.651582 7.64685 0.650645 7.65935 0.65002 7.67185C0.630643 8.0156 0.597828 8.5906 0.928168 9.16248C1.14194 9.53154 1.42977 9.76373 1.69198 9.92873L0.17873 13.7006C0.0771584 13.9565 0.123069 14.2469 0.299834 14.4584C0.44419 14.6307 0.655802 14.7278 0.87457 14.7278C0.923699 14.7278 0.973204 14.7231 1.02246 14.713L2.43477 14.4307L3.10451 15.7516C3.23336 16.0062 3.48776 16.1625 3.77216 16.1625C3.78291 16.1625 3.79292 16.1621 3.80366 16.1616C4.10056 16.1499 4.35527 15.9716 4.46747 15.6966L5.89422 12.1625H6.38332L7.78344 15.6969C7.89576 15.9718 8.15035 16.15 8.44725 16.1619C8.45694 16.1344 8.44131 16.1625 8.47881 16.1625C8.76302 16.1625 9.0173 16.0071 9.14606 15.7519L9.8158 14.4306L11.2281 14.7129C11.2774 14.723 11.3269 14.7277 11.376 14.7277C11.595 14.7277 11.8063 14.6306 11.9507 14.4583C12.1275 14.2469 12.1734 13.9564 12.0718 13.7005L10.5821 9.91248ZM10.0227 8.41248C9.83299 8.74029 9.31826 8.8231 9.0523 9.08935C8.7864 9.35529 8.70321 9.86966 8.37537 10.0594C8.25298 10.1302 8.10722 10.1479 7.95314 10.1479C7.7995 10.1479 7.6378 10.1302 7.4831 10.1302C7.38347 10.1302 7.28674 10.1375 7.19695 10.1615C6.84117 10.2562 6.51302 10.6625 6.12549 10.6625C5.73858 10.6625 5.4098 10.2578 5.0529 10.1622C4.96289 10.1375 4.866 10.1031 4.766 10.1031C4.61145 10.1031 4.45003 10.1206 4.29658 10.1206C4.14244 10.1206 3.99649 10.1029 3.87404 10.0321C3.54714 9.86873 3.46276 9.35623 3.19742 9.0906C2.93146 8.82498 2.41705 8.7406 2.22734 8.41248C2.04045 8.0906 2.2239 7.6031 2.12546 7.23435C2.03014 6.8781 1.6251 6.54998 1.6251 6.16248C1.6251 5.7756 2.03014 5.44685 2.12546 5.08998C2.22403 4.72091 2.04073 4.23466 2.22787 3.91154C2.41767 3.58435 2.93209 3.49998 3.19836 3.23466C3.46432 2.96879 3.54745 2.45435 3.87529 2.26466C3.99768 2.19385 4.14344 2.17616 4.29752 2.17616C4.45116 2.17616 4.61286 2.1938 4.76756 2.1938C4.86719 2.1938 4.96392 2.18648 5.05371 2.16249C5.4098 2.06716 5.73795 1.66248 6.12549 1.66248C6.51271 1.66248 6.84117 2.06716 7.19808 2.16279C7.28799 2.18684 7.38488 2.19416 7.48466 2.19416C7.63921 2.19416 7.80063 2.17665 7.95408 2.17665C8.10822 2.17665 8.25423 2.19435 8.37662 2.26521C8.70446 2.45483 8.78728 2.96958 9.05355 3.23552C9.31945 3.50152 9.83393 3.58458 10.0236 3.9124C10.2106 4.23552 10.0272 4.72177 10.1258 5.09084C10.2227 5.44685 10.6259 5.77498 10.6259 6.16248C10.6259 6.54935 10.2211 6.8781 10.1255 7.23498C10.0258 7.6031 10.2102 8.0906 10.0227 8.41248ZM6.12549 4.16248C5.02227 4.16248 4.12532 5.05623 4.12532 6.16248C4.12532 7.26654 5.02071 8.16248 6.12549 8.16248C7.23027 8.16248 8.12566 7.26654 8.12566 6.16248C8.12566 5.05623 7.22871 4.16248 6.12549 4.16248Z" fill="#F37A20"/>
</svg>
