<svg width="25" height="24" viewBox="0 0 25 24" fill="none" xmlns="http://www.w3.org/2000/svg">
<path d="M15.5 16.125C15.5 15.5016 16.0016 15 16.625 15H18.875C19.4984 15 20 15.5016 20 16.125V18.375C20 18.9984 19.4984 19.5 18.875 19.5H16.625C16.0016 19.5 15.5 18.9984 15.5 18.375V16.125ZM18.5 18V16.5H17V18H18.5ZM15.5 4.125C15.5 3.50391 16.0016 3 16.625 3H18.875C19.4984 3 20 3.50391 20 4.125V6.375C20 6.99844 19.4984 7.5 18.875 7.5H16.625C16.0016 7.5 15.5 6.99844 15.5 6.375V4.125ZM17 4.5V6H18.5V4.5H17ZM16.625 13.5C16.0016 13.5 15.5 12.9984 15.5 12.375V10.125C15.5 9.50156 16.0016 9 16.625 9H18.875C19.4984 9 20 9.50156 20 10.125V12.375C20 12.9984 19.4984 13.5 18.875 13.5H16.625ZM17 10.5V12H18.5V10.5H17ZM21.5 0C23.1547 0 24.5 1.34297 24.5 3V21C24.5 22.6547 23.1547 24 21.5 24H14C12.3453 24 11 22.6547 11 21V3C11 1.34297 12.3453 0 14 0H21.5ZM21.5 1.5H14C13.1703 1.5 12.5 2.17172 12.5 3V21C12.5 21.8297 13.1703 22.5 14 22.5H21.5C22.3297 22.5 23 21.8297 23 21V3C23 2.17172 22.3297 1.5 21.5 1.5ZM8.75 7.5H3.5C2.67172 7.5 2 8.17031 2 9V21C2 21.8297 2.67172 22.5 3.5 22.5H9.5C9.9125 22.5 10.25 22.8375 10.25 23.25C10.25 23.6625 9.9125 24 9.5 24H3.5C1.84297 24 0.5 22.6547 0.5 21V9C0.5 7.34531 1.84297 6 3.5 6H8.75C9.1625 6 9.5 6.3375 9.5 6.75C9.5 7.1625 9.1625 7.5 8.75 7.5ZM6.875 15C7.49844 15 8 15.5016 8 16.125V18.375C8 18.9984 7.49844 19.5 6.875 19.5H4.625C4.00391 19.5 3.5 18.9984 3.5 18.375V16.125C3.5 15.5016 4.00391 15 4.625 15H6.875ZM6.5 18V16.5H5V18H6.5ZM6.875 9C7.49844 9 8 9.50156 8 10.125V12.375C8 12.9984 7.49844 13.5 6.875 13.5H4.625C4.00391 13.5 3.5 12.9984 3.5 12.375V10.125C3.5 9.50156 4.00391 9 4.625 9H6.875ZM6.5 12V10.5H5V12H6.5Z" fill="#3F6587"/>
</svg>
