<svg width="79" height="78" viewBox="0 0 79 78" fill="none" xmlns="http://www.w3.org/2000/svg">
<path d="M8 19.0001C8 16.791 9.79086 15.0001 12 15.0001H44C46.2091 15.0001 48 16.791 48 19.0001V63.0001C48 65.2093 46.2091 67.0001 44 67.0001H12C9.79086 67.0001 8 65.2093 8 63.0001V19.0001Z" fill="#F3F6F9"/>
<path d="M56.5625 52.4064C56.5625 50.3802 58.1926 48.7501 60.2188 48.7501H65.0938C67.1199 48.7501 68.75 50.3802 68.75 52.4064V57.2814C68.75 59.3075 67.1199 60.9376 65.0938 60.9376H60.2188C58.1926 60.9376 56.5625 59.3075 56.5625 57.2814V52.4064ZM65.0938 58.5001C65.7641 58.5001 66.3125 57.9517 66.3125 57.2814V52.4064C66.3125 51.7361 65.7641 51.1876 65.0938 51.1876H60.2188C59.5484 51.1876 59 51.7361 59 52.4064V57.2814C59 57.9517 59.5484 58.5001 60.2188 58.5001H65.0938ZM60.2188 41.4376C58.1926 41.4376 56.5625 39.8075 56.5625 37.7814V32.9064C56.5625 30.8802 58.1926 29.2501 60.2188 29.2501H65.0938C67.1199 29.2501 68.75 30.8802 68.75 32.9064V37.7814C68.75 39.8075 67.1199 41.4376 65.0938 41.4376H60.2188ZM59 37.7814C59 38.4517 59.5484 39.0001 60.2188 39.0001H65.0938C65.7641 39.0001 66.3125 38.4517 66.3125 37.7814V32.9064C66.3125 32.2361 65.7641 31.6876 65.0938 31.6876H60.2188C59.5484 31.6876 59 32.2361 59 32.9064V37.7814ZM39.5 52.4064C39.5 50.3802 41.1301 48.7501 43.1562 48.7501H48.0312C50.0574 48.7501 51.6875 50.3802 51.6875 52.4064V57.2814C51.6875 59.3075 50.0574 60.9376 48.0312 60.9376H43.1562C41.1301 60.9376 39.5 59.3075 39.5 57.2814V52.4064ZM48.0312 58.5001C48.7016 58.5001 49.25 57.9517 49.25 57.2814V52.4064C49.25 51.7361 48.7016 51.1876 48.0312 51.1876H43.1562C42.4859 51.1876 41.9375 51.7361 41.9375 52.4064V57.2814C41.9375 57.9517 42.4859 58.5001 43.1562 58.5001H48.0312ZM48.0312 10.9689C50.0574 10.9689 51.6875 12.6066 51.6875 14.6251V19.5001C51.6875 21.5263 50.0574 23.1564 48.0312 23.1564H43.1562C41.1301 23.1564 39.5 21.5263 39.5 19.5001V14.6251C39.5 12.6066 41.1301 10.9689 43.1562 10.9689H48.0312ZM41.9375 19.5001C41.9375 20.1704 42.4859 20.7189 43.1562 20.7189H48.0312C48.7016 20.7189 49.25 20.1704 49.25 19.5001V14.6251C49.25 13.9518 48.7016 13.4064 48.0312 13.4064H43.1562C42.4859 13.4064 41.9375 13.9518 41.9375 14.6251V19.5001ZM39.5 32.9064C39.5 30.8802 41.1301 29.2501 43.1562 29.2501H48.0312C50.0574 29.2501 51.6875 30.8802 51.6875 32.9064V37.7814C51.6875 39.8075 50.0574 41.4376 48.0312 41.4376H43.1562C41.1301 41.4376 39.5 39.8075 39.5 37.7814V32.9064ZM48.0312 39.0001C48.7016 39.0001 49.25 38.4517 49.25 37.7814V32.9064C49.25 32.2361 48.7016 31.6876 48.0312 31.6876H43.1562C42.4859 31.6876 41.9375 32.2361 41.9375 32.9064V37.7814C41.9375 38.4517 42.4859 39.0001 43.1562 39.0001H48.0312ZM65.0938 10.9689C67.1199 10.9689 68.75 12.6066 68.75 14.6251V19.5001C68.75 21.5263 67.1199 23.1564 65.0938 23.1564H60.2188C58.1926 23.1564 56.5625 21.5263 56.5625 19.5001V14.6251C56.5625 12.6066 58.1926 10.9689 60.2188 10.9689H65.0938ZM59 19.5001C59 20.1704 59.5484 20.7189 60.2188 20.7189H65.0938C65.7641 20.7189 66.3125 20.1704 66.3125 19.5001V14.6251C66.3125 13.9518 65.7641 13.4064 65.0938 13.4064H60.2188C59.5484 13.4064 59 13.9518 59 14.6251V19.5001ZM29.75 9.75012C29.75 4.36477 34.1223 0.00012207 39.5 0.00012207H68.75C74.1277 0.00012207 78.5 4.36477 78.5 9.75012V68.2501C78.5 73.6279 74.1277 78.0001 68.75 78.0001H39.5C34.1223 78.0001 29.75 73.6279 29.75 68.2501V9.75012ZM32.1875 9.75012V68.2501C32.1875 72.2872 35.4629 75.5626 39.5 75.5626H68.75C72.7871 75.5626 76.0625 72.2872 76.0625 68.2501V9.75012C76.0625 5.71149 72.7871 2.43762 68.75 2.43762H39.5C35.4629 2.43762 32.1875 5.71149 32.1875 9.75012ZM24.875 19.5001C25.5453 19.5001 26.0938 20.0486 26.0938 20.7189C26.0938 21.3892 25.5453 21.9376 24.875 21.9376H9.03125C5.66598 21.9376 2.9375 24.6646 2.9375 28.0314V69.4689C2.9375 72.8357 5.66598 75.5626 9.03125 75.5626H27.3125C27.9828 75.5626 28.5312 76.1111 28.5312 76.7814C28.5312 77.4517 27.9828 78.0001 27.3125 78.0001H9.03125C4.31926 78.0001 0.5 74.1763 0.5 69.4689V28.0314C0.5 23.3239 4.31926 19.5001 9.03125 19.5001H24.875ZM10.25 52.4064C10.25 50.3802 11.8877 48.7501 13.9062 48.7501H18.7812C20.8074 48.7501 22.4375 50.3802 22.4375 52.4064V57.2814C22.4375 59.3075 20.8074 60.9376 18.7812 60.9376H13.9062C11.8877 60.9376 10.25 59.3075 10.25 57.2814V52.4064ZM13.9062 51.1876C13.2329 51.1876 12.6875 51.7361 12.6875 52.4064V57.2814C12.6875 57.9517 13.2329 58.5001 13.9062 58.5001H18.7812C19.4516 58.5001 20 57.9517 20 57.2814V52.4064C20 51.7361 19.4516 51.1876 18.7812 51.1876H13.9062ZM18.7812 29.2501C20.8074 29.2501 22.4375 30.8802 22.4375 32.9064V37.7814C22.4375 39.8075 20.8074 41.4376 18.7812 41.4376H13.9062C11.8877 41.4376 10.25 39.8075 10.25 37.7814V32.9064C10.25 30.8802 11.8877 29.2501 13.9062 29.2501H18.7812ZM12.6875 37.7814C12.6875 38.4517 13.2329 39.0001 13.9062 39.0001H18.7812C19.4516 39.0001 20 38.4517 20 37.7814V32.9064C20 32.2361 19.4516 31.6876 18.7812 31.6876H13.9062C13.2329 31.6876 12.6875 32.2361 12.6875 32.9064V37.7814Z" fill="#3F6587"/>
</svg>
