<svg width="27" height="26" viewBox="0 0 27 26" fill="none" xmlns="http://www.w3.org/2000/svg">
<path d="M24.2387 2.27754C22.775 0.810977 20.915 0 18.8821 0C16.5062 0 13.895 1.11109 11.4164 3.58668L7.06104 7.93711C3.02735 11.9681 3.40902 18.6418 4.34311 21.0082L0.741402 24.6071C0.582585 24.7609 0.5 24.9742 0.5 25.1875C0.5 25.6191 0.849397 26 1.2674 26C1.47704 26 1.68668 25.9238 1.84524 25.7588L5.44695 22.1599C6.32362 22.5027 7.77254 22.7749 9.47506 22.7749C12.378 22.7749 15.9345 21.9908 18.5263 19.4457L22.8843 15.0912C27.4912 10.4914 27.415 5.45898 24.2387 2.27754ZM8.2096 9.08984L12.5675 4.73535C14.608 2.7041 16.7883 1.625 18.877 1.625C20.4067 1.625 21.907 2.24707 23.0886 3.42773C25.2358 5.57984 25.4137 8.51094 23.7554 11.3852H16.2745L18.1675 9.49355C18.4852 9.17617 18.4852 8.66176 18.1675 8.34488C17.8499 8.0275 17.3356 8.0275 17.018 8.34488L5.64922 19.7046C5.13745 17.5145 4.96567 12.3348 8.2096 9.08984ZM9.5208 21.1453C8.3392 21.1453 7.48286 21.0057 6.80185 20.8533L9.78761 17.8699L17.8276 17.889L17.4667 18.2952C14.9384 20.7746 11.4063 21.1453 9.5208 21.1453ZM19.4513 16.2703H11.3961L14.6029 13.0137H22.5514C22.3329 13.325 19.4513 16.2703 19.4513 16.2703Z" fill="#3F6587"/>
</svg>
