<svg width="98" height="127" viewBox="0 0 98 127" fill="none" xmlns="http://www.w3.org/2000/svg">
<path d="M7.16675 36.5001C7.16675 19.6554 20.8221 6.00012 37.6667 6.00012C54.5114 6.00012 68.1667 19.6554 68.1667 36.5001C68.1667 53.3448 54.5114 67.0001 37.6667 67.0001C20.8221 67.0001 7.16675 53.3448 7.16675 36.5001Z" fill="#F3F6F9" fill-opacity="0.2"/>
<path d="M42.431 100.881C41.373 100.466 40.2206 100.954 39.7936 101.966L31.5277 121.797C31.0628 122.883 30.0523 123.007 29.7492 123.031C29.4571 123.043 28.415 123.008 27.8545 121.946L21.751 110.117C21.3405 109.318 20.4485 108.884 19.5562 109.067L6.63935 111.604C5.58135 111.813 4.91846 111.197 4.68933 110.93C4.4604 110.655 3.96302 109.914 4.36571 108.922L12.331 89.237C12.7416 88.2177 12.2363 87.0666 11.2021 86.6598C10.1915 86.28 8.99156 86.7489 8.5722 87.772L0.606875 107.457C-0.214163 109.488 0.156946 111.793 1.5858 113.472C3.01466 115.146 5.2489 115.931 7.42654 115.493L18.8428 113.252L24.2565 123.737C25.3004 125.76 27.3492 127 29.6481 127C29.735 127 29.8159 126.997 29.9028 126.993C32.3027 126.896 34.3616 125.481 35.2686 123.302L43.5345 103.471C43.9468 102.443 43.4668 101.302 42.431 100.881ZM63.298 89.6195C64.9659 89.6195 66.7085 89.806 68.3657 89.806C70.0245 89.806 71.5943 89.6185 72.9155 88.8696C76.4473 86.8634 77.3441 81.4183 80.2114 78.603C83.0787 75.7876 88.6239 74.912 90.6676 71.4418C92.6836 68.0213 90.7095 62.8743 91.7724 58.9676C92.8049 55.1906 96.9479 51.7179 96.9479 47.6251C96.9479 43.5323 92.5851 40.0547 91.5569 36.2819C90.4941 32.3752 92.4694 27.2282 90.4542 23.8077C88.4114 20.34 82.8678 19.4619 80.0005 16.6465C77.1331 13.8312 76.2388 8.38659 72.7071 6.37989C71.3866 5.62955 69.812 5.44103 68.1523 5.44103C66.4983 5.44103 64.7595 5.62657 63.0921 5.62657C62.0165 5.62657 60.9723 5.54905 60.0025 5.29468C56.376 4.28389 52.8393 0.00012207 48.6709 0.00012207C44.5026 0.00012207 40.9658 4.28389 37.1259 5.29344C36.1578 5.54719 35.1157 5.62483 34.0413 5.62483C32.3735 5.62483 30.6308 5.4383 28.9736 5.4383C27.3138 5.4383 25.74 5.62687 24.4238 6.37641C20.882 8.38163 19.9877 13.8263 17.1203 16.6391C14.2556 19.4544 8.70786 20.3325 6.66411 23.8002C4.64815 27.2109 6.62369 32.3702 5.56013 36.2646C4.52941 40.0597 0.166748 43.5323 0.166748 47.6251C0.166748 51.7179 4.52962 55.1955 5.55781 58.9683C6.62061 62.875 4.64456 68.022 6.65951 71.4426C8.70534 74.9103 14.248 75.7784 17.1128 78.6062C19.9801 81.4215 20.8744 86.8661 24.4086 88.8753C25.7291 89.6252 27.3012 89.8122 28.9635 89.8122C30.6164 89.8122 32.3563 89.6271 34.0236 89.6271C35.0993 89.6271 36.1434 89.7041 37.1132 89.959C40.9658 90.9589 44.5026 95.2501 48.6709 95.2501C52.8393 95.2501 56.3811 90.9664 60.2261 89.9568C61.2012 89.6939 62.237 89.6195 63.298 89.6195ZM53.193 89.1234C51.5509 90.19 49.8583 91.2814 48.6709 91.2814C47.4848 91.2814 45.7885 90.185 44.1489 89.1251C42.4022 87.9962 40.4227 86.7173 38.1541 86.1213C36.9422 85.803 35.6288 85.6547 34.0211 85.6547C33.1131 85.6547 32.1845 85.7031 31.2573 85.7535C30.4846 85.7956 29.713 85.8397 28.961 85.8397C27.7372 85.8397 26.9094 85.708 26.4322 85.4367C25.4651 84.8867 24.566 83.1301 23.6962 81.4307C22.7438 79.5694 21.6654 77.4595 19.97 75.7976C18.2799 74.1413 16.13 73.0747 14.2353 72.1321C12.5048 71.2888 10.7162 70.3958 10.1554 69.4532C9.61732 68.5355 9.72848 66.6007 9.83458 64.7156C9.95331 62.632 10.0897 60.2507 9.46322 57.9439C8.85742 55.7167 7.55462 53.7742 6.40391 52.0602C5.32519 50.4529 4.20858 48.7909 4.20858 47.6251C4.20858 46.46 5.32569 44.7949 6.40517 43.1826C7.55487 41.4686 8.85742 39.5264 9.46448 37.2989C10.091 34.9978 9.95685 32.6257 9.83837 30.5297C9.731 28.6495 9.62237 26.7148 10.163 25.5738C10.7236 24.6237 12.5117 23.7414 14.2404 22.8874C16.1351 22.1681 18.285 21.1089 19.9801 19.447C21.6744 17.7838 22.7539 15.6742 23.7063 13.8139C24.5728 12.1147 25.4798 10.3586 26.4398 9.8079C26.9175 9.53703 27.7433 9.40532 28.965 9.40532C29.7178 9.40532 30.4906 9.44989 31.2644 9.49203C32.1996 9.54249 33.1344 9.59209 34.0438 9.59209C35.6503 9.59209 36.9617 9.44384 38.1718 9.12601C40.4403 8.5312 42.4184 7.25202 44.1641 6.12217C45.791 5.06524 47.4836 3.96887 48.6709 3.96887C49.858 3.96887 51.5534 5.06524 53.1955 6.12564C54.9411 7.254 56.9217 8.53293 59.1878 9.12949C60.3996 9.44773 61.7131 9.59606 63.3208 9.59606C64.2287 9.59606 65.1564 9.54762 66.082 9.49675C66.8548 9.4546 67.6263 9.4105 68.3794 9.4105C69.6031 9.4105 70.431 9.54276 70.9082 9.81358C71.8752 10.364 72.7743 12.1202 73.6441 13.8195C74.5965 15.6809 75.675 17.7908 77.3704 19.4527C79.0637 21.1163 81.2128 22.1762 83.1075 23.1114C84.8365 23.9649 86.6266 24.8472 87.1849 25.7977C87.7238 26.7128 87.6131 28.6552 87.5065 30.5354C87.3881 32.6297 87.2529 35.0027 87.8796 37.3071C88.4855 39.5333 89.7882 41.4743 90.9364 43.1883C92.0217 44.7974 93.1333 46.4593 93.1333 47.6251C93.1333 48.7902 92.0162 50.4553 90.9367 52.0676C89.788 53.7816 88.4855 55.7239 87.8774 57.9513C87.2509 60.2529 87.385 62.627 87.5035 64.7205C87.6101 66.6002 87.7206 68.5454 87.1809 69.4607C86.6203 70.4112 84.8312 71.294 83.101 72.147C81.2052 73.0817 79.0564 74.1411 77.3613 75.8057C75.6689 77.4679 74.59 79.576 73.6376 81.4364C72.7683 83.1355 71.8692 84.8917 70.9016 85.4423C70.4239 85.7132 69.598 85.8454 68.3763 85.8454C67.6235 85.8454 66.8507 85.8008 66.0769 85.7582C65.1483 85.7078 64.2178 85.6589 63.3081 85.6589C61.7027 85.6589 60.3903 85.8067 59.1802 86.1245C56.9066 86.7173 54.9361 88.0071 53.193 89.1234ZM70.6747 47.6251C70.6747 35.5452 60.7238 25.797 48.6709 25.797C36.6181 25.797 26.4398 35.5452 26.4398 47.6251C26.4398 59.6752 36.3907 69.4532 48.4436 69.4532C60.4964 69.4532 70.6747 59.6802 70.6747 47.6251ZM48.6709 65.4845C38.6416 65.4845 30.4818 57.4726 30.4818 47.6251C30.4818 37.7777 38.6416 29.7657 48.6709 29.7657C58.7002 29.7657 66.8601 37.7777 66.8601 47.6251C66.8601 57.4726 58.7002 65.4845 48.6709 65.4845ZM88.7881 87.7839C88.3776 86.7607 87.1776 86.2763 86.1582 86.6717C85.124 87.0787 84.6187 88.2297 85.0293 89.2489L92.9946 108.929C93.3973 109.921 92.8999 110.661 92.671 110.937C92.442 111.204 91.7711 111.82 90.7209 111.611L77.8041 109.074C76.9356 108.891 76.0201 109.326 75.6093 110.124L69.5058 121.948C68.9316 123.007 67.8958 123.031 67.5927 123.031C67.2926 123.016 66.2664 122.892 65.8086 121.799L57.5427 101.967C57.1084 100.956 55.94 100.464 54.9053 100.882C53.871 101.297 53.3817 102.456 53.8 103.472L62.066 123.303C62.9739 125.481 65.0318 126.897 67.4318 126.994C67.5169 126.777 67.3906 127 67.6937 127C69.9911 127 72.0389 125.771 73.0873 123.741L78.5011 113.253L89.9173 115.494C92.0803 115.913 94.3307 115.144 95.7581 113.473C97.1869 111.795 97.558 109.49 96.737 107.458L88.7881 87.7839Z" fill="white"/>
</svg>
