<svg width="23" height="30" viewBox="0 0 23 30" fill="none" xmlns="http://www.w3.org/2000/svg">
<path d="M17.2516 20.9941C18.089 20.5202 18.3016 19.234 18.9815 18.5689C19.6613 17.9039 20.9762 17.6971 21.4607 16.8773C21.9388 16.0693 21.4707 14.8535 21.7227 13.9307C21.9657 13.0371 22.9481 12.2168 22.9481 11.25C22.9481 10.2832 21.9136 9.46172 21.6698 8.57051C21.4178 7.64766 21.8862 6.43184 21.4083 5.62383C20.924 4.80469 19.6095 4.59727 18.9297 3.93223C18.2498 3.26719 18.0377 1.98105 17.2003 1.50703C16.3761 1.04045 15.1272 1.49618 14.188 1.25068C13.3281 1.01191 12.4895 0 11.5011 0C10.5128 0 9.67416 1.01191 8.76368 1.25039C7.81725 1.49648 6.57132 1.03945 5.74949 1.50586C4.91209 1.97988 4.70004 3.26602 4.02017 3.93047C3.3409 4.59551 2.02549 4.80293 1.5409 5.62207C1.06289 6.42773 1.53131 7.64648 1.27913 8.56641C1.03474 9.46289 0.000307287 10.2832 0.000307287 11.25C0.000307287 12.2168 1.03479 13.0383 1.27858 13.9295C1.53058 14.8523 1.06204 16.0682 1.53981 16.8762C2.02489 17.6953 3.3391 17.9004 4.01837 18.5684C4.69824 19.2334 4.91029 20.5195 5.74829 20.9941C6.57132 21.46 7.82144 21.0041 8.76008 21.2501C9.67416 21.4863 10.5128 22.5 11.5011 22.5C12.4895 22.5 13.3293 21.4881 14.241 21.2496C15.185 21.0059 16.4249 21.4629 17.2516 20.9941ZM11.4472 20.5957C10.9663 20.3612 10.2013 19.6969 9.20215 19.4361C8.20121 19.1738 7.22304 19.3599 6.66896 19.3355C6.37228 18.8763 6.0466 17.9498 5.32061 17.2402C4.59521 16.5301 3.65238 16.2148 3.17797 15.9207C3.21032 15.3809 3.39661 14.4199 3.13065 13.4473C2.8632 12.4682 2.18602 11.7252 1.94522 11.2512C2.18458 10.781 2.86349 10.0342 3.13125 9.05391C3.39685 8.08125 3.21092 7.12734 3.2329 6.57715C3.70336 6.28588 4.64834 5.96953 5.37613 5.25762C6.09811 4.55156 6.42756 3.61641 6.72707 3.16113C7.27216 3.13945 8.26051 3.32168 9.25486 3.06152C10.2576 2.79932 11.0117 2.13926 11.4999 1.90195C11.9807 2.13586 12.7441 2.8002 13.7456 3.06211C14.7483 3.32408 15.7229 3.13799 16.2782 3.16236C16.5681 3.61061 16.9041 4.55162 17.6265 5.25768C18.3471 5.96314 19.3037 6.28951 19.7692 6.57721C19.7905 7.12055 19.6043 8.07955 19.8706 9.05455C20.1383 10.0337 20.8152 10.776 21.056 11.2501C20.8178 11.7188 20.1383 12.4676 19.87 13.4473C19.6062 14.4135 19.7897 15.3282 19.7684 15.9241C19.2978 16.2152 18.3524 16.5323 17.6252 17.2436C16.9046 17.9485 16.5716 18.8837 16.2775 19.3383C15.7267 19.3626 14.7476 19.1757 13.7449 19.4381C12.747 19.6992 11.9863 20.3613 11.4472 20.5957ZM16.7184 11.25C16.7184 8.39648 14.359 6.09375 11.5011 6.09375C8.64328 6.09375 6.22989 8.39648 6.22989 11.25C6.22989 14.0965 8.58937 16.4062 11.4472 16.4062C14.3051 16.4062 16.7184 14.0977 16.7184 11.25ZM11.5011 14.5312C9.6502 14.5312 8.1467 13.0605 8.1467 11.25C8.1467 9.44063 9.6514 7.96875 11.4472 7.96875C13.243 7.96875 14.8016 9.43945 14.8016 11.25C14.8016 13.0605 13.352 14.5312 11.5011 14.5312ZM21.4086 21.6855C21.214 21.204 20.6551 20.9707 20.1651 21.1591C19.6737 21.3496 19.4325 21.8945 19.627 22.3761L21.0777 25.965L18.2337 25.5805L16.7577 28.0579L15.265 24.4719C15.0657 23.9913 14.5031 23.7606 14.0167 23.9574C13.5262 24.1524 13.2907 24.6992 13.4907 25.1785L14.9822 28.7638C15.2868 29.4961 15.9697 29.9648 16.8562 30C17.6247 30 18.3166 29.5825 18.6604 28.9107L19.2846 27.7014L20.573 27.954C21.299 28.1033 22.052 27.8423 22.53 27.2802C23.0064 26.7208 23.1308 25.9525 22.8566 25.2751L21.4086 21.6855ZM8.98531 23.959C8.49778 23.7612 7.93526 23.9938 7.73699 24.4735L6.24427 28.0594L4.76832 25.5821L1.92665 25.9657L3.37444 22.378C3.56912 21.8964 3.32764 21.3514 2.8363 21.161C2.34476 20.9707 1.78888 21.2051 1.59421 21.6855L0.143421 25.2744C-0.130803 25.9518 -0.00632967 26.7199 0.470058 27.2795C0.950219 27.8435 1.69921 28.0998 2.42341 27.9545L3.71606 27.7009L4.33962 28.9091C4.685 29.58 5.3741 29.9978 6.22169 29.9978C7.02555 29.9666 7.718 29.4933 8.02049 28.7644L9.51321 25.1784C9.71609 24.6973 9.47649 24.1523 8.98531 23.959Z" fill="#F37A20"/>
</svg>
