<svg width="1189" height="600" viewBox="0 0 1189 600" fill="none" xmlns="http://www.w3.org/2000/svg">
<g clip-path="url(#clip0_2530_12189)">
<rect width="1189" height="600" fill="url(#paint0_linear_2530_12189)"/>
<path d="M491.36 869.575C-317.29 863.308 -216.983 149.624 18.5116 -96.3607" stroke="white" stroke-width="2.6229" stroke-miterlimit="10"/>
<path d="M520.395 862.218C-219.021 837.048 -140.251 128.662 70.6212 -110.735" stroke="white" stroke-width="2.6177" stroke-miterlimit="10"/>
<path d="M549.431 854.868C-120.844 810.961 -63.4852 107.834 122.722 -125.114" stroke="white" stroke-width="2.6126" stroke-miterlimit="10"/>
<path d="M578.464 847.524C-22.6679 784.729 13.1366 87.04 174.839 -139.354" stroke="white" stroke-width="2.6074" stroke-miterlimit="10"/>
<path d="M607.5 840.187C75.5769 758.633 89.9127 66.1996 226.914 -153.74" stroke="white" stroke-width="2.6022" stroke-miterlimit="10"/>
<path d="M636.535 832.859C173.986 732.352 166.665 45.213 278.968 -168.129" stroke="white" stroke-width="2.5971" stroke-miterlimit="10"/>
<path d="M665.568 825.537C272.312 706.105 243.309 24.3998 330.849 -182.482" stroke="white" stroke-width="2.5919" stroke-miterlimit="10"/>
<path d="M694.604 818.223C370.756 679.994 320.114 3.54122 382.874 -196.737" stroke="white" stroke-width="2.5868" stroke-miterlimit="10"/>
<path d="M723.637 810.917C469.32 653.878 396.936 -17.3243 434.819 -211.138" stroke="white" stroke-width="2.5816" stroke-miterlimit="10"/>
<path d="M752.672 803.618C568.183 627.576 473.638 -38.1564 486.725 -225.401" stroke="white" stroke-width="2.5764" stroke-miterlimit="10"/>
<path d="M781.708 796.325C667.209 601.45 550.501 -59.1754 538.491 -239.809" stroke="white" stroke-width="2.5713" stroke-miterlimit="10"/>
<path d="M810.716 789.031C766.657 575.175 627.478 -80.0529 590.094 -254.212" stroke="white" stroke-width="2.5661" stroke-miterlimit="10"/>
<path d="M838.588 781.366C865.446 548.823 705.064 -100.643 642.877 -268.103" stroke="white" stroke-width="2.561" stroke-miterlimit="10"/>
<path d="M866.965 773.662C964.248 522.258 782.634 -121.31 695.446 -282.135" stroke="white" stroke-width="2.5558" stroke-miterlimit="10"/>
<path d="M895.411 765.997C1062.61 495.78 859.843 -142.078 747.91 -296.173" stroke="white" stroke-width="2.5507" stroke-miterlimit="10"/>
<path d="M923.999 758.33C1160.91 469.451 936.818 -162.666 800.308 -310.215" stroke="white" stroke-width="2.5455" stroke-miterlimit="10"/>
<path d="M952.68 750.665C1259.11 442.992 1013.86 -183.29 852.687 -324.118" stroke="white" stroke-width="2.5403" stroke-miterlimit="10"/>
<path d="M981.427 742.999C1357.3 416.682 1090.84 -203.915 905.002 -338.168" stroke="white" stroke-width="2.5352" stroke-miterlimit="10"/>
<path d="M1010.22 735.334C1455.57 390.202 1167.61 -224.637 957.294 -352.22" stroke="white" stroke-width="2.53" stroke-miterlimit="10"/>
<path d="M1039.06 727.668C1553.7 363.911 1244.51 -245.259 1009.6 -366.136" stroke="white" stroke-width="2.5249" stroke-miterlimit="10"/>
<path d="M1067.92 720.002C1651.78 337.487 1321.22 -265.981 1061.82 -380.338" stroke="white" stroke-width="2.5197" stroke-miterlimit="10"/>
<path d="M1096.81 712.338C1749.87 311.216 1398.11 -286.456 1114.1 -394.258" stroke="white" stroke-width="2.5145" stroke-miterlimit="10"/>
<path d="M-163.114 327.152C15.5872 -329.081 951.03 -389.34 1231.18 -247.407" stroke="white" stroke-width="2.7054" stroke-miterlimit="10"/>
<path d="M-159.656 341.802C29.6744 -261.615 962.164 -338.241 1238.55 -214.934" stroke="white" stroke-width="2.6998" stroke-miterlimit="10"/>
<path d="M-156.371 356.348C43.9044 -194.225 973.176 -286.971 1245.74 -182.548" stroke="white" stroke-width="2.6941" stroke-miterlimit="10"/>
<path d="M-152.911 370.998C57.9859 -126.839 984.158 -235.845 1253.07 -150.183" stroke="white" stroke-width="2.6885" stroke-miterlimit="10"/>
<path d="M-149.447 385.648C72.2431 -59.4006 995.285 -184.764 1260.44 -117.659" stroke="white" stroke-width="2.6829" stroke-miterlimit="10"/>
<path d="M-146.127 400.336C86.322 7.87902 1006.29 -133.516 1267.62 -85.2126" stroke="white" stroke-width="2.6772" stroke-miterlimit="10"/>
<path d="M-142.658 414.986C100.43 75.2299 1017.27 -82.415 1274.99 -52.6388" stroke="white" stroke-width="2.6716" stroke-miterlimit="10"/>
<path d="M-139.186 429.635C114.653 142.321 1028.42 -31.2271 1282.32 -20.1714" stroke="white" stroke-width="2.6659" stroke-miterlimit="10"/>
<path d="M-135.858 444.324C128.756 209.492 1039.39 19.8471 1289.53 12.512" stroke="white" stroke-width="2.6603" stroke-miterlimit="10"/>
<path d="M-132.381 458.973C142.975 276.364 1050.39 71.0408 1296.86 45.0662" stroke="white" stroke-width="2.6547" stroke-miterlimit="10"/>
<path d="M-128.9 473.623C157.046 343.125 1061.5 122.034 1304.21 77.8153" stroke="white" stroke-width="2.649" stroke-miterlimit="10"/>
<path d="M-125.564 488.357C171.144 409.868 1072.5 173.172 1311.4 110.526" stroke="white" stroke-width="2.6434" stroke-miterlimit="10"/>
<path d="M-122.306 503.961C185.224 476.959 1083.61 223.52 1318.98 142.372" stroke="white" stroke-width="2.6378" stroke-miterlimit="10"/>
<path d="M-119.079 519.308C199.308 544.171 1094.87 273.956 1326.49 174.01" stroke="white" stroke-width="2.6321" stroke-miterlimit="10"/>
<path d="M-115.964 534.716C213.108 611.542 1105.99 324.532 1333.93 206.023" stroke="white" stroke-width="2.6265" stroke-miterlimit="10"/>
<path d="M-112.706 549.993C227.231 679.042 1117.13 375.328 1341.33 237.944" stroke="white" stroke-width="2.6209" stroke-miterlimit="10"/>
<path d="M-109.449 565.193C241.327 746.454 1128.4 426.011 1348.9 270.002" stroke="white" stroke-width="2.6152" stroke-miterlimit="10"/>
<path d="M-106.335 580.369C255.312 814.089 1139.54 476.926 1356.44 301.953" stroke="white" stroke-width="2.6096" stroke-miterlimit="10"/>
<path d="M-103.076 595.453C269.416 881.582 1150.66 527.748 1363.87 334.107" stroke="white" stroke-width="2.604" stroke-miterlimit="10"/>
<path d="M-99.8176 610.491C283.377 949.145 1161.95 578.707 1371.41 366.105" stroke="white" stroke-width="2.5983" stroke-miterlimit="10"/>
<path d="M-96.7053 625.531C297.37 1016.87 1173.07 629.599 1378.83 398.3" stroke="white" stroke-width="2.5927" stroke-miterlimit="10"/>
<path d="M-93.4468 640.499C311.482 1084.45 1184.19 680.519 1386.37 430.333" stroke="white" stroke-width="2.5871" stroke-miterlimit="10"/>
</g>
<defs>
<linearGradient id="paint0_linear_2530_12189" x1="16.4486" y1="-10.6969" x2="74.3687" y2="594.881" gradientUnits="userSpaceOnUse">
<stop stop-color="#F3F6F9"/>
<stop offset="1" stop-color="white"/>
</linearGradient>
<clipPath id="clip0_2530_12189">
<rect width="1189" height="600" fill="white"/>
</clipPath>
</defs>
</svg>
