<svg width="80" height="79" viewBox="0 0 80 79" fill="none" xmlns="http://www.w3.org/2000/svg">
<path d="M14.3334 52.2223C14.3334 26.6945 35.0278 6.00012 60.5556 6.00012C63.7466 6.00012 66.3334 8.58692 66.3334 11.7779C66.3334 37.3057 45.639 58.0001 20.1112 58.0001C16.9202 58.0001 14.3334 55.4133 14.3334 52.2223Z" fill="#F3F6F9"/>
<path d="M72.9164 7.33274C68.4719 2.95438 62.8238 0.500122 56.651 0.500122C49.4489 0.500122 41.5739 3.82426 34.0431 11.2586L20.8178 24.2962C11.483 33.4932 9.95829 47.2544 11 56.456C11.0446 56.8633 11.1269 57.2299 11.1811 57.6185C11.5015 59.9128 12.4898 62.0304 13.9651 63.8067L1.19506 76.4132C0.712811 76.8892 0.712811 77.6606 1.19506 78.1362C1.43611 78.3782 1.74969 78.5001 2.0679 78.5001C2.38611 78.5001 2.69969 78.3811 2.94073 78.143L15.7077 65.5396C17.5117 67.011 19.6644 67.9985 22.0008 68.3153C22.38 68.3668 22.7677 68.4141 23.1639 68.457C24.772 68.6343 26.5096 68.7435 28.346 68.7435C37.1485 68.7435 48.0219 66.399 55.7379 58.7726L68.9508 45.7107C82.9163 31.9134 82.5459 16.8618 72.9164 7.33274ZM13.6265 57.2939C13.5755 56.9286 13.3067 54.6248 13.3067 54.6248C12.6347 45.5725 14.7158 33.8908 22.5629 26.0299L35.7943 12.9862C42.4535 6.41106 49.6757 2.93762 56.6819 2.93762C62.1216 2.93762 67.1401 5.04758 71.1895 9.03442C78.2713 16.0392 79.1972 25.4236 74.3207 34.6251H47.0214L54.7899 26.9561C55.2721 26.4801 55.2721 25.7087 54.7899 25.2331C54.3076 24.7575 53.5263 24.7571 53.0445 25.2331L15.7762 62.0241C14.682 60.6302 13.8719 59.0611 13.6265 57.2939ZM53.9812 57.0501C45.8409 65.103 34.4289 66.305 28.3332 66.305C26.9775 66.305 25.6342 66.2467 24.3271 66.1309C24.3271 66.1309 22.682 65.9479 22.3255 65.8996C20.5277 65.6551 18.9274 64.8466 17.5107 63.7455L29.7375 51.6876H59.4133L53.9812 57.0501ZM67.2065 43.9943L61.8824 49.2501H32.2067L44.5523 37.0626H72.7775C71.2651 39.4087 69.475 41.7396 67.2065 43.9943Z" fill="#3F6587"/>
</svg>
