<svg width="27" height="24" viewBox="0 0 27 24" fill="none" xmlns="http://www.w3.org/2000/svg">
<path d="M8.18906 5.24063C7.73906 5.17031 7.50469 4.78594 7.57031 4.37578C7.9875 1.89234 10.1484 0 12.75 0C15.0375 0 16.9828 1.46203 17.7 3.50016C17.8406 3.84844 17.6344 4.31906 17.2453 4.45734C16.8516 4.59516 16.425 4.39031 16.2891 3.99984C15.7734 2.5425 14.3813 1.5 12.75 1.5C10.8938 1.5 9.35156 2.85094 9.05156 4.62422C8.98125 5.03438 8.59688 5.30625 8.18906 5.24063ZM18.75 12.375C18.75 11.7516 19.2516 11.25 19.875 11.25C20.4984 11.25 21 11.7516 21 12.375C21 12.9984 20.4984 13.5 19.875 13.5C19.2516 13.5 18.75 12.9984 18.75 12.375ZM22.8984 5.89688L22.5 7.45781C23.4891 8.27344 24.3563 9.30469 24.8766 10.5H25.5C26.3297 10.5 27 11.1703 27 12V16.5C27 17.3297 26.3297 18 25.5 18H24C23.2266 18.9891 22.1953 19.8563 21 20.3766V21.75C21 22.9922 19.9922 24 18.75 24H17.25C16.0078 24 15 22.9922 15 21.75V21H12V21.75C12 22.9922 10.9922 24 9.75 24H8.25C7.00781 24 6 22.9922 6 21.75V19.5C4.17844 18.1313 3 15.9516 3 13.5C1.33687 13.4625 0 12.1031 0 10.4344C0 9.27188 0.65625 8.20781 1.69594 7.6875L1.91438 7.57969C2.28516 7.39219 2.73563 7.54219 2.92078 7.9125C3.10594 8.28281 2.95594 8.7375 2.58562 8.92031L2.36672 9.02813C1.83563 9.29531 1.45781 9.83906 1.45781 10.4344C1.45781 11.2969 2.20172 12 3.0675 12H3.15C3.84469 8.53594 6.87188 6 10.4578 6H17.6437C18.4688 5.08125 19.6688 4.5 21 4.5H21.8109C22.5422 4.5 23.0766 5.18906 22.8984 5.89688ZM10.5 7.5C7.18594 7.5 4.5 10.1859 4.5 13.5C4.5 15.4641 5.44219 17.2031 6.9 18.3L7.5 18.75V21.75C7.5 22.1625 7.8375 22.5 8.25 22.5H9.75C10.1625 22.5 10.5 22.1625 10.5 21.75V19.5H16.5V21.75C16.5 22.1625 16.8375 22.5 17.25 22.5H18.75C19.1625 22.5 19.5 22.1625 19.5 21.75V19.3922L20.4 19.0031C21.3563 18.5859 22.1812 17.925 22.8 17.1L23.25 16.5H25.5V12H23.8922L23.5031 11.1C23.0859 10.1438 22.425 9.31875 21.6 8.7L20.8031 8.1L21.3281 6H21C20.1094 6 19.3172 6.38438 18.7641 6.99844L18.3141 7.5H10.5Z" fill="#F37A20"/>
</svg>
