<svg width="93" height="83" viewBox="0 0 93 83" fill="none" xmlns="http://www.w3.org/2000/svg">
<path d="M15 41.0001C15 26.6407 26.6406 15.0001 41 15.0001C55.3594 15.0001 67 26.6407 67 41.0001C67 55.3595 55.3594 67.0001 41 67.0001C26.6406 67.0001 15 55.3595 15 41.0001Z" fill="#F3F6F9"/>
<path d="M27.125 19.4532C26.4146 19.4532 25.8333 18.8697 25.8333 18.1564C25.8333 8.12829 33.9224 0.00012207 43.9167 0.00012207C52.9583 0.00012207 60.45 6.66282 61.7901 15.3648C61.9031 16.0733 61.4188 16.7298 60.563 16.8433C59.9979 16.9568 59.3359 16.4704 59.2391 15.7604C58.0927 8.30336 51.5214 2.59387 43.9167 2.59387C35.2141 2.59387 28.4167 9.56133 28.4167 18.1564C28.4167 18.8697 27.8354 19.4532 27.125 19.4532ZM62 41.5001C62 38.6308 64.3089 36.3126 67.1667 36.3126C70.0245 36.3126 72.3333 38.6308 72.3333 41.5001C72.3333 44.3695 70.0245 46.6876 67.1667 46.6876C64.3089 46.6876 62 44.3695 62 41.5001ZM67.1667 44.0939C68.5875 44.0939 69.75 42.9267 69.75 41.5001C69.75 40.0736 68.5875 38.9064 67.1667 38.9064C65.7458 38.9064 64.5833 40.0736 64.5833 41.5001C64.5833 42.9267 65.7458 44.0939 67.1667 44.0939ZM33.5833 83.0001H28.4167C24.138 83.0001 20.6667 79.5148 20.6667 75.2189V67.4376C14.3924 62.704 10.3333 55.1659 10.3333 46.6876H8.39583C3.75875 46.6876 0 42.9105 0 38.2579C0 33.6054 3.75875 29.8282 8.39583 29.8282H9.04167C9.75531 29.8282 10.3333 30.4118 10.3333 31.1251C10.3333 31.8384 9.75531 32.422 9.04167 32.422H8.39583C5.18604 32.422 2.58333 35.032 2.58333 38.2579C2.58333 41.4839 5.18604 44.0939 8.39583 44.0939H10.4609C11.7574 30.9792 22.7656 20.7501 36.1667 20.7501H60.7729C63.6146 17.5728 67.7479 15.5626 72.3333 15.5626H75.1266C77.6453 15.5626 79.4859 17.9456 78.8724 20.3935L77.5 25.7917C80.9068 28.6124 83.8938 32.1788 85.6859 36.3126H87.8333C90.6911 36.3126 93 38.6308 93 41.5001V57.0626C93 59.932 90.6911 62.2501 87.8333 62.2501H82.6667C80.0026 65.6706 76.4505 68.6697 72.3333 70.4691V75.2189C72.3333 79.5148 68.862 83.0001 64.5833 83.0001H59.4167C55.138 83.0001 51.6667 79.5148 51.6667 75.2189V72.6251H41.3333V75.2189C41.3333 79.5148 37.862 83.0001 33.5833 83.0001ZM61.9354 23.3439H36.1667C23.3307 23.3439 12.9167 33.7999 12.9167 46.6876C12.9167 54.323 16.5656 61.0991 22.2167 65.3626L23.25 66.1407V75.2189C23.25 78.0882 25.5589 80.4064 28.4167 80.4064H33.5833C36.4411 80.4064 38.75 78.0882 38.75 75.2189V72.6251H37.4583C36.7479 72.6251 36.1667 72.0415 36.1667 71.3282C36.1667 70.615 36.7479 70.0314 37.4583 70.0314H55.5417C56.2521 70.0314 56.8333 70.615 56.8333 71.3282C56.8333 72.0415 56.2521 72.6251 55.5417 72.6251H54.25V75.2189C54.25 78.0882 56.5589 80.4064 59.4167 80.4064H64.5833C67.4411 80.4064 69.75 78.0882 69.75 75.2189V68.7669L71.3 68.0861C74.9974 66.465 78.2104 63.9036 80.6 60.6939L81.375 59.6564H87.8333C89.2542 59.6564 90.4167 58.4892 90.4167 57.0626V41.5001C90.4167 40.0736 89.2542 38.9064 87.8333 38.9064H83.9906L83.3125 37.3501C81.6979 33.6378 79.1469 30.4118 75.95 28.0126L74.5776 26.9751L76.3698 19.7613C76.5797 18.9507 75.9661 18.1564 75.1266 18.1564H72.3333C68.5068 18.1564 65.0677 19.8261 62.7104 22.4847L61.9354 23.3439Z" fill="#3F6587"/>
</svg>
