<svg width="37" height="45" viewBox="0 0 37 45" fill="none" xmlns="http://www.w3.org/2000/svg">
<path d="M36.125 30.9749H30.9844V19.9592C30.9844 19.5539 30.6561 19.2249 30.25 19.2249H25.1094V8.20923C25.1094 7.80385 24.7811 7.47485 24.375 7.47485H12.625C12.2189 7.47485 11.8906 7.80385 11.8906 8.20923V19.2249H6.75C6.34389 19.2249 6.01562 19.5539 6.01562 19.9592V30.9749H0.875C0.468891 30.9749 0.140625 31.3039 0.140625 31.7092V43.4592C0.140625 43.8646 0.468891 44.1936 0.875 44.1936H36.125C36.5311 44.1936 36.8594 43.8646 36.8594 43.4592V31.7092C36.8594 31.3039 36.5311 30.9749 36.125 30.9749ZM31.7188 32.4436V35.0771L30.7692 34.1275C30.4821 33.8404 30.0179 33.8404 29.7308 34.1275L28.7812 35.0771V32.4436H31.7188ZM26.5781 25.8342C26.6729 25.8342 26.7683 25.8159 26.8594 25.7784C27.134 25.6646 27.3125 25.3965 27.3125 25.0999V20.6936H29.5156V30.9749H19.2344V20.6936H21.4375V25.0999C21.4375 25.3965 21.616 25.6646 21.8906 25.7784C22.1653 25.8915 22.4803 25.8291 22.6911 25.6191L24.375 23.9351L26.0589 25.6191C26.1992 25.7593 26.3872 25.8342 26.5781 25.8342ZM19.9688 32.4436V35.0771L19.0192 34.1275C18.7321 33.8404 18.2679 33.8404 17.9808 34.1275L17.0312 35.0771V32.4436H19.9688ZM25.8438 20.6936V23.3271L24.8942 22.3775C24.6071 22.0904 24.1429 22.0904 23.8558 22.3775L22.9062 23.3271V20.6936H25.8438ZM17.0312 8.9436H19.9688V11.5771L19.0192 10.6275C18.7321 10.3404 18.2679 10.3404 17.9808 10.6275L17.0312 11.5771V8.9436ZM13.3594 8.9436H15.5625V13.3499C15.5625 13.6465 15.741 13.9146 16.0156 14.0284C16.2895 14.1415 16.6053 14.0798 16.8161 13.8691L18.5 12.1851L20.1839 13.8691C20.3242 14.0093 20.5122 14.0842 20.7031 14.0842C20.7979 14.0842 20.8933 14.0659 20.9844 14.0284C21.259 13.9146 21.4375 13.6465 21.4375 13.3499V8.9436H23.6406V19.2249H13.3594V8.9436ZM11.1562 20.6936H14.0938V24.0614L13.1442 23.1119C12.8571 22.8248 12.3929 22.8248 12.1058 23.1119L11.1562 24.0614V20.6936ZM7.48438 20.6936H9.6875V25.8342C9.6875 26.1309 9.86595 26.399 10.1406 26.5128C10.4145 26.6259 10.731 26.5642 10.9411 26.3534L12.625 24.6695L14.3089 26.3534C14.4492 26.4937 14.6372 26.5686 14.8281 26.5686C14.9229 26.5686 15.0183 26.5502 15.1094 26.5128C15.384 26.399 15.5625 26.1309 15.5625 25.8342V20.6936H17.7656V30.9749H7.48438V20.6936ZM5.28125 32.4436H8.21875V35.0771L7.2692 34.1275C6.98206 33.8404 6.51794 33.8404 6.2308 34.1275L5.28125 35.0771V32.4436ZM11.8906 42.7249H1.60938V32.4436H3.8125V36.8499C3.8125 37.1465 3.99095 37.4146 4.26561 37.5284C4.541 37.6422 4.85605 37.5798 5.06608 37.3691L6.75 35.6851L8.43392 37.3691C8.57419 37.5093 8.76219 37.5842 8.95312 37.5842C9.04786 37.5842 9.14333 37.5659 9.23439 37.5284C9.50905 37.4146 9.6875 37.1465 9.6875 36.8499V32.4436H11.8906V42.7249ZM23.6406 42.7249H13.3594V32.4436H15.5625V36.8499C15.5625 37.1465 15.741 37.4146 16.0156 37.5284C16.2895 37.6422 16.6053 37.5798 16.8161 37.3691L18.5 35.6851L20.1839 37.3691C20.3242 37.5093 20.5122 37.5842 20.7031 37.5842C20.7979 37.5842 20.8933 37.5659 20.9844 37.5284C21.259 37.4146 21.4375 37.1465 21.4375 36.8499V32.4436H23.6406V42.7249ZM35.3906 42.7249H25.1094V32.4436H27.3125V36.8499C27.3125 37.1465 27.491 37.4146 27.7656 37.5284C28.0403 37.6422 28.3553 37.5798 28.5661 37.3691L30.25 35.6851L31.9339 37.3691C32.0742 37.5093 32.2622 37.5842 32.4531 37.5842C32.5479 37.5842 32.6433 37.5659 32.7344 37.5284C33.009 37.4146 33.1875 37.1465 33.1875 36.8499V32.4436H35.3906V42.7249Z" fill="#3F6587"/>
<path d="M17.7656 0.131104H19.2344V3.80298H17.7656V0.131104Z" fill="#F37A20"/>
<path d="M28.0469 12.6155H31.7188V14.0842H28.0469V12.6155Z" fill="#F37A20"/>
<path d="M5.28125 12.6155H8.95313V14.0842H5.28125V12.6155Z" fill="#F37A20"/>
<path d="M26.3965 5.88306L28.9929 3.28665L30.0314 4.32521L27.435 6.92162L26.3965 5.88306Z" fill="#F37A20"/>
<path d="M6.57031 4.32251L7.60888 3.28395L10.2053 5.88035L9.16672 6.91892L6.57031 4.32251Z" fill="#F37A20"/>
</svg>
