<svg width="31" height="31" viewBox="0 0 31 31" fill="none" xmlns="http://www.w3.org/2000/svg">
<g opacity="0.5">
<g clip-path="url(#clip0_2025_39112)">
<path d="M15.6918 0.681641C8.07598 0.681641 8.55156 4.00163 8.55156 4.00163L8.56005 7.4411H15.8277V8.47379H5.67338C5.67338 8.47379 0.799988 7.91821 0.799988 15.6429C0.799987 23.3676 5.05359 23.0937 5.05359 23.0937H7.59217V19.5091C7.59217 19.5091 7.45533 15.2332 11.7778 15.2332C16.1004 15.2332 18.986 15.2332 18.986 15.2332C18.986 15.2332 23.0359 15.2991 23.0359 11.2988C23.0359 7.29848 23.0359 4.6844 23.0359 4.6844C23.0359 4.6844 23.6508 0.681641 15.6918 0.681641ZM11.6845 2.99454C12.4075 2.99454 12.992 3.58201 12.992 4.30887C12.992 5.03574 12.4075 5.62321 11.6845 5.62321C10.9614 5.62321 10.377 5.03574 10.377 4.30887C10.377 3.58201 10.9614 2.99454 11.6845 2.99454Z" fill="#4F4F4F"/>
<path d="M15.9082 30.6818C23.524 30.6818 23.0484 27.3618 23.0484 27.3618L23.0399 23.9223H15.7723V22.8896H25.9266C25.9266 22.8896 30.8 23.4452 30.8 15.7205C30.8 7.99582 26.5464 8.26976 26.5464 8.26976H24.0078V11.8543C24.0078 11.8543 24.1447 16.1302 19.8222 16.1302C15.4996 16.1302 12.614 16.1302 12.614 16.1302C12.614 16.1302 8.56411 16.0644 8.56411 20.0647C8.56411 24.065 8.56411 26.679 8.56411 26.679C8.56411 26.679 7.94924 30.6818 15.9082 30.6818ZM19.9155 28.3689C19.1925 28.3689 18.6081 27.7814 18.6081 27.0546C18.6081 26.3277 19.1925 25.7402 19.9155 25.7402C20.6386 25.7402 21.223 26.3277 21.223 27.0546C21.223 27.7814 20.6386 28.3689 19.9155 28.3689Z" fill="#4F4F4F"/>
</g>
</g>
<defs>
<clipPath id="clip0_2025_39112">
<rect width="30" height="30" fill="white" transform="translate(0.799988 0.681641)"/>
</clipPath>
</defs>
</svg>
