<svg width="211" height="180" viewBox="0 0 211 180" fill="none" xmlns="http://www.w3.org/2000/svg">
<path d="M166.438 84.698L155.461 73.779V58.3343C155.461 51.9864 150.285 46.8406 143.906 46.8406H128.386L117.412 35.9239C112.898 31.4342 105.582 31.4342 101.071 35.9239L90.1036 46.8406H74.5768C68.1952 46.8406 63.022 51.9864 63.022 58.3343V73.7718L52.0473 84.698C47.5337 89.1854 47.5337 96.4647 52.0473 100.952L63.022 111.852V127.297C63.022 133.642 68.1952 138.79 74.5768 138.79H90.0964L101.071 149.707C105.585 154.194 112.9 154.194 117.412 149.707L128.379 138.79H143.906C150.287 138.79 155.461 133.645 155.461 127.297V111.859L166.435 100.943C170.939 96.4552 170.939 89.1758 166.438 84.698ZM107.316 127.297C102.982 127.297 99.6123 123.944 99.6123 119.634C99.6123 115.324 102.766 111.972 107.316 111.972C111.432 111.972 115.019 115.324 115.019 119.634C115.019 123.944 111.432 127.297 107.316 127.297ZM123.95 93.2944L113.093 99.9991V100.478C113.093 103.591 110.445 106.225 107.316 106.225C104.186 106.225 101.538 103.591 101.538 100.478V96.6467C101.538 94.7311 102.501 92.8155 104.427 91.6182L118.148 83.4768C119.833 82.519 120.796 80.8429 120.796 78.9272C120.796 76.0538 118.389 73.6593 115.5 73.6593H102.982C99.8771 73.6593 97.6865 76.0538 97.6865 78.9272C97.6865 82.0401 95.0385 84.6741 91.9091 84.6741C88.7796 84.6741 86.1317 82.0401 86.1317 78.9272C86.1317 69.5886 93.5941 62.1656 102.766 62.1656H115.284C124.888 62.1656 132.351 69.5886 132.351 78.9272C132.351 84.6741 129.222 90.1815 123.95 93.2944Z" fill="#F3F6F9"/>
<path d="M107.315 111.972C102.982 111.972 99.6122 115.324 99.6122 119.634C99.6122 123.944 102.766 127.297 107.315 127.297C111.432 127.297 115.019 123.944 115.019 119.634C115.019 115.324 111.432 111.972 107.315 111.972ZM115.283 62.1655H102.766C93.5941 62.1655 86.1316 69.5886 86.1316 78.9272C86.1316 82.0401 88.7796 84.6741 91.909 84.6741C95.0384 84.6741 97.6864 82.0401 97.6864 78.9272C97.6864 76.0538 99.877 73.6592 102.766 73.6592H115.283C118.172 73.6592 120.796 76.0538 120.796 78.9272C120.796 80.8428 119.833 82.519 118.148 83.4768L104.427 91.6182C102.501 92.8154 101.538 94.7311 101.538 96.6467V100.478C101.538 103.591 104.186 106.225 107.315 106.225C110.445 106.225 113.093 103.591 113.093 100.478V99.999L123.95 93.2943C129.221 90.1815 132.351 84.6741 132.351 78.9272C132.351 69.5886 124.888 62.1655 115.283 62.1655Z" fill="white"/>
<path d="M157.442 79.8458L146.543 68.9177V53.4601C146.543 47.1069 141.404 41.9568 135.07 41.9568H119.66L108.763 31.031C106.531 28.7852 103.591 27.6625 100.651 27.6625C97.7154 27.6625 94.7778 28.7855 92.5382 31.032L81.6483 41.9568H66.2314C59.8949 41.9568 54.7583 47.1069 54.7583 53.4601V68.9105L43.8613 79.8458C39.3796 84.3369 39.3796 91.6223 43.8613 96.1134L54.7583 107.022V122.48C54.7583 128.831 59.8949 133.983 66.2314 133.983H81.6412L92.5382 144.909C94.7707 146.948 97.7106 148.267 100.651 148.267C103.588 148.267 106.523 147.143 108.763 144.897L119.653 133.983H135.07C141.406 133.983 146.543 128.833 146.543 122.48V107.03L157.44 96.1038C161.912 91.6128 161.912 84.3273 157.442 79.8458ZM154.741 93.3862L142.719 105.441V122.48C142.719 126.707 139.286 130.149 135.07 130.149H118.075L106.06 142.196C104.618 143.641 102.682 144.432 100.651 144.432C98.6189 144.432 96.6876 143.634 95.2415 142.186L83.2259 130.149H66.2314C62.015 130.149 58.5827 126.707 58.5827 122.48V105.441L46.5646 93.3862C45.1209 91.9483 44.325 90.0071 44.325 87.97C44.325 85.933 45.1209 83.9918 46.5646 82.5539L58.5827 70.4994V53.4601C58.5827 49.2326 62.015 45.7912 66.2314 45.7912H83.2259L95.2439 33.7439C96.6828 32.294 98.6189 31.496 100.651 31.496C102.682 31.496 104.614 32.2935 106.06 33.7422L118.075 45.7912H135.07C139.286 45.7912 142.719 49.2326 142.719 53.4601V70.4994L154.737 82.5467C156.176 83.9918 156.964 85.933 156.964 87.97C156.964 90.0071 156.176 91.9483 154.741 93.3862Z" fill="#F37A20"/>
<path d="M165.088 163.386L162.67 160.971V157.556C162.67 156.153 161.53 155.015 160.125 155.015H156.707L154.289 152.601C153.295 151.609 151.684 151.609 150.69 152.601L148.274 155.015H144.854C143.449 155.015 142.309 156.153 142.309 157.556V160.97L139.892 163.386C138.898 164.378 138.898 165.987 139.892 166.98L142.309 169.39V172.805C142.309 174.208 143.449 175.346 144.854 175.346H148.273L150.69 177.76C151.684 178.752 153.296 178.752 154.289 177.76L156.705 175.346H160.125C161.531 175.346 162.67 174.208 162.67 172.805V169.391L165.087 166.977C166.079 165.985 166.079 164.376 165.088 163.386ZM152.065 172.805C151.111 172.805 150.369 172.063 150.369 171.11C150.369 170.157 151.063 169.416 152.065 169.416C152.972 169.416 153.762 170.157 153.762 171.11C153.762 172.063 152.972 172.805 152.065 172.805ZM155.729 165.286L153.338 166.769V166.875C153.338 167.563 152.755 168.145 152.065 168.145C151.376 168.145 150.793 167.563 150.793 166.875V166.028C150.793 165.604 151.005 165.181 151.429 164.916L154.452 163.116C154.823 162.904 155.035 162.533 155.035 162.11C155.035 161.474 154.505 160.945 153.868 160.945H151.111C150.427 160.945 149.945 161.474 149.945 162.11C149.945 162.798 149.361 163.38 148.672 163.38C147.983 163.38 147.399 162.798 147.399 162.11C147.399 160.045 149.043 158.404 151.063 158.404H153.821C155.936 158.404 157.58 160.045 157.58 162.11C157.58 163.38 156.891 164.598 155.729 165.286Z" fill="#D0DCE5"/>
<path d="M209.417 136.788L205.895 133.272V128.298C205.895 126.253 204.235 124.596 202.188 124.596H197.209L193.689 121.08C192.24 119.634 189.894 119.634 188.446 121.08L184.928 124.596H179.946C177.899 124.596 176.239 126.253 176.239 128.298V133.269L172.719 136.788C171.271 138.233 171.271 140.578 172.719 142.023L176.239 145.533V150.507C176.239 152.551 177.899 154.209 179.946 154.209H184.925L188.446 157.724C189.894 159.169 192.241 159.169 193.689 157.724L197.207 154.209H202.188C204.236 154.209 205.895 152.551 205.895 150.507V145.535L209.416 142.02C210.861 140.574 210.861 138.23 209.417 136.788ZM190.45 150.507C189.059 150.507 187.978 149.427 187.978 148.039C187.978 146.651 188.99 145.572 190.45 145.572C191.77 145.572 192.921 146.651 192.921 148.039C192.921 149.427 191.77 150.507 190.45 150.507ZM195.786 139.557L192.303 141.716V141.87C192.303 142.873 191.454 143.721 190.45 143.721C189.446 143.721 188.596 142.873 188.596 141.87V140.636C188.596 140.019 188.905 139.402 189.523 139.017L193.925 136.395C194.465 136.086 194.774 135.546 194.774 134.93C194.774 134.004 194.002 133.233 193.075 133.233H189.059C188.063 133.233 187.36 134.004 187.36 134.93C187.36 135.932 186.511 136.78 185.507 136.78C184.503 136.78 183.653 135.932 183.653 134.93C183.653 131.922 186.048 129.531 188.99 129.531H193.006C196.087 129.531 198.481 131.922 198.481 134.93C198.481 136.78 197.477 138.554 195.786 139.557Z" fill="#D0DCE5"/>
<path d="M38.2844 37.1505L34.7627 33.634V28.66C34.7627 26.6157 33.1023 24.9584 31.0558 24.9584H26.0768L22.556 21.4427C21.1079 19.9968 18.7609 19.9968 17.3137 21.4427L13.7951 24.9584H8.81387C6.76653 24.9584 5.10689 26.6157 5.10689 28.66V33.6317L1.58603 37.1505C0.13799 38.5956 0.13799 40.94 1.58603 42.3851L5.10689 45.8954V50.8694C5.10689 52.913 6.76653 54.571 8.81387 54.571H13.7928L17.3137 58.0867C18.7617 59.5319 21.1087 59.5319 22.556 58.0867L26.0745 54.571H31.0558C33.1031 54.571 34.7627 52.9138 34.7627 50.8694V45.8978L38.2836 42.382C39.7285 40.9369 39.7285 38.5926 38.2844 37.1505ZM19.317 50.8694C17.9269 50.8694 16.8457 49.7898 16.8457 48.4017C16.8457 47.0136 17.8574 45.934 19.317 45.934C20.6376 45.934 21.7883 47.0136 21.7883 48.4017C21.7883 49.7898 20.6376 50.8694 19.317 50.8694ZM24.6535 39.9189L21.1705 42.0782V42.2324C21.1705 43.2349 20.321 44.0832 19.317 44.0832C18.313 44.0832 17.4635 43.2349 17.4635 42.2324V40.9986C17.4635 40.3816 17.7724 39.7647 18.3902 39.3791L22.7923 36.7572C23.3329 36.4487 23.6418 35.9089 23.6418 35.292C23.6418 34.3666 22.8695 33.5954 21.9428 33.5954H17.9269C16.9306 33.5954 16.2278 34.3666 16.2278 35.292C16.2278 36.2945 15.3783 37.1428 14.3743 37.1428C13.3704 37.1428 12.5208 36.2945 12.5208 35.292C12.5208 32.2845 14.9149 29.8939 17.8574 29.8939H21.8733C24.9547 29.8939 27.3488 32.2845 27.3488 35.292C27.3488 37.1428 26.3448 38.9164 24.6535 39.9189Z" fill="#D0DCE5"/>
<path d="M63.6171 13.7567L61.3569 11.4998V8.30759C61.3569 6.99555 60.2913 5.93196 58.9778 5.93196H55.7824L53.5227 3.6756C52.5934 2.74762 51.0871 2.74762 50.1583 3.6756L47.9001 5.93196H44.7032C43.3892 5.93196 42.3241 6.99555 42.3241 8.30759V11.4984L40.0644 13.7567C39.1351 14.6842 39.1351 16.1888 40.0644 17.1162L42.3241 19.3691V22.5614C42.3241 23.8729 43.3892 24.937 44.7032 24.937H47.8986L50.1583 27.1934C51.0876 28.1209 52.5939 28.1209 53.5227 27.1934L55.7809 24.937H58.9778C60.2918 24.937 61.3569 23.8734 61.3569 22.5614V19.3706L63.6166 17.1143C64.544 16.1868 64.544 14.6822 63.6171 13.7567ZM51.444 22.5614C50.5518 22.5614 49.8579 21.8685 49.8579 20.9776C49.8579 20.0868 50.5072 19.3939 51.444 19.3939C52.2916 19.3939 53.0301 20.0868 53.0301 20.9776C53.0301 21.8685 52.2916 22.5614 51.444 22.5614ZM54.8689 15.5335L52.6336 16.9193V17.0182C52.6336 17.6616 52.0883 18.2061 51.444 18.2061C50.7997 18.2061 50.2544 17.6616 50.2544 17.0182V16.2264C50.2544 15.8304 50.4527 15.4345 50.8492 15.187L53.6744 13.5043C54.0214 13.3063 54.2196 12.9599 54.2196 12.5639C54.2196 11.97 53.724 11.4751 53.1292 11.4751H50.5518C49.9125 11.4751 49.4614 11.97 49.4614 12.5639C49.4614 13.2073 48.9162 13.7518 48.2719 13.7518C47.6275 13.7518 47.0823 13.2073 47.0823 12.5639C47.0823 10.6337 48.6188 9.09947 50.5072 9.09947H53.0846C55.0622 9.09947 56.5987 10.6337 56.5987 12.5639C56.5987 13.7518 55.9544 14.8901 54.8689 15.5335Z" fill="#D0DCE5"/>
<path d="M92.7974 114.179C92.7974 112.061 94.5098 110.345 96.6218 110.345C98.7252 110.345 100.446 112.061 100.446 114.179C100.446 116.297 98.7252 118.013 96.6218 118.013C94.5184 118.013 92.7974 116.297 92.7974 114.179Z" fill="#3F6587"/>
<path d="M92.654 56.6625H108.238C116.604 56.6625 123.392 63.4686 123.392 71.8564C123.392 77.3684 120.405 82.473 115.592 85.1308L99.7948 93.0513C98.8089 93.6011 98.1515 94.7246 98.1515 95.9415V100.759C98.1515 101.818 97.2925 102.676 96.2394 102.676C95.1862 102.676 94.3272 101.818 94.3272 100.759V95.9415C94.3272 93.3293 95.7374 90.7171 98.0201 89.6674L113.817 81.7469C117.335 79.7841 119.568 75.9785 119.568 71.8564C119.568 65.6015 114.477 60.4969 108.236 60.4969H92.654C86.4155 60.4969 81.3244 65.6015 81.3244 71.8564V74.3968C81.3244 75.4512 80.4653 76.314 79.4122 76.314C78.359 76.314 77.5 75.4565 77.5 74.3968V71.8564C77.5 63.4686 84.2882 56.6625 92.654 56.6625Z" fill="#3F6587"/>
</svg>
