<svg width="117" height="24" viewBox="0 0 117 24" fill="none" xmlns="http://www.w3.org/2000/svg">
<path d="M22.8426 0.5H0.5V22.5595H22.8426V0.5Z" fill="url(#paint0_linear_1371_23153)"/>
<path fill-rule="evenodd" clip-rule="evenodd" d="M21.5162 21.2495L19.2758 17.1296C20.0417 15.8992 20.3235 14.4341 20.0678 13.0122C19.8121 11.5903 19.0366 10.3105 17.8885 9.41569C16.7404 8.52088 15.2996 8.07328 13.8395 8.15782C12.3793 8.24237 11.0013 8.85317 9.96705 9.87434C8.93278 10.8955 8.31414 12.256 8.22851 13.6977C8.14288 15.1393 8.59622 16.5619 9.50252 17.6954C10.4088 18.829 11.705 19.5946 13.1452 19.8471C14.5853 20.0995 16.0693 19.8213 17.3154 19.0651L21.5162 21.2495Z" fill="white"/>
<path d="M14.2112 17.7535C16.2899 17.7535 17.9751 16.0897 17.9751 14.0373C17.9751 11.9849 16.2899 10.321 14.2112 10.321C12.1324 10.321 10.4473 11.9849 10.4473 14.0373C10.4473 16.0897 12.1324 17.7535 14.2112 17.7535Z" fill="url(#paint1_linear_1371_23153)"/>
<path fill-rule="evenodd" clip-rule="evenodd" d="M43.6957 12.594C43.7101 12.5952 43.7237 12.6015 43.7339 12.6116C43.7441 12.6217 43.7505 12.635 43.7517 12.6493V16.4374C43.7517 17.2503 43.8805 18.2181 44.9223 18.2181C45.9641 18.2181 46.093 17.2503 46.093 16.4374V12.6659C46.0929 12.6521 46.098 12.6388 46.1073 12.6286C46.1167 12.6184 46.1295 12.612 46.1434 12.6106H48.1094C48.1232 12.612 48.1361 12.6184 48.1454 12.6286C48.1547 12.6388 48.1598 12.6521 48.1598 12.6659V16.7858C48.1598 18.8541 47.0788 19.938 44.9447 19.938C42.8107 19.938 41.7241 18.8319 41.7241 16.7858V12.6659C41.7241 12.6521 41.7292 12.6388 41.7385 12.6286C41.7478 12.6184 41.7607 12.612 41.7745 12.6106L43.6957 12.594Z" fill="#333333"/>
<path fill-rule="evenodd" clip-rule="evenodd" d="M51.9118 10.1493C51.9118 10.3866 51.8405 10.6186 51.707 10.816C51.5734 11.0133 51.3836 11.1671 51.1615 11.2579C50.9394 11.3488 50.695 11.3725 50.4593 11.3262C50.2235 11.2799 50.0069 11.1656 49.8369 10.9978C49.667 10.83 49.5512 10.6162 49.5043 10.3834C49.4574 10.1506 49.4815 9.90931 49.5735 9.69003C49.6655 9.47075 49.8213 9.28333 50.0211 9.15147C50.221 9.01961 50.456 8.94923 50.6964 8.94923C50.8562 8.9485 51.0146 8.97904 51.1624 9.03909C51.3102 9.09913 51.4445 9.1875 51.5575 9.29908C51.6705 9.41066 51.76 9.54324 51.8208 9.68916C51.8816 9.83509 51.9126 9.99147 51.9118 10.1493V10.1493ZM51.671 19.6887H49.7274C49.7203 19.6887 49.7132 19.6873 49.7067 19.6844C49.7002 19.6816 49.6944 19.6774 49.6896 19.6722C49.6849 19.667 49.6813 19.6608 49.6791 19.6541C49.6769 19.6474 49.6762 19.6403 49.677 19.6334V12.6654C49.6769 12.6517 49.682 12.6384 49.6914 12.6282C49.7007 12.618 49.7135 12.6115 49.7274 12.6101H51.671C51.6848 12.6115 51.6977 12.618 51.707 12.6282C51.7163 12.6384 51.7215 12.6517 51.7214 12.6654V19.6334C51.7222 19.6403 51.7215 19.6474 51.7193 19.6541C51.7171 19.6608 51.7135 19.667 51.7088 19.6722C51.704 19.6774 51.6982 19.6816 51.6917 19.6844C51.6851 19.6873 51.6781 19.6887 51.671 19.6887V19.6887Z" fill="#333333"/>
<path fill-rule="evenodd" clip-rule="evenodd" d="M58.1909 14.6406C58.1913 14.6511 58.1883 14.6614 58.1825 14.6701C58.1766 14.6788 58.1681 14.6855 58.1582 14.6892C58.1483 14.6928 58.1374 14.6933 58.1272 14.6906C58.117 14.6878 58.1079 14.6819 58.1012 14.6738C57.9178 14.4849 57.6979 14.3343 57.4545 14.2307C57.2111 14.1272 56.9492 14.0729 56.6842 14.071C55.5247 14.071 54.8694 15.1383 54.8694 16.178C54.8334 16.5579 54.9174 16.9394 55.1099 17.2702C55.3024 17.6011 55.594 17.8649 55.9445 18.0255C56.295 18.1862 56.6873 18.2357 57.0675 18.1672C57.4477 18.0988 57.797 17.9158 58.0676 17.6435C58.0755 17.6359 58.0854 17.6307 58.0961 17.6287C58.1069 17.6266 58.118 17.6277 58.1282 17.6318C58.1383 17.6359 58.147 17.6429 58.1532 17.6518C58.1593 17.6608 58.1627 17.6713 58.1629 17.6822V19.4684C58.1663 19.4753 58.1681 19.4828 58.1681 19.4905C58.1681 19.4982 58.1663 19.5057 58.1629 19.5126C57.6277 19.7964 57.0283 19.941 56.4209 19.9329C55.9309 19.9281 55.4469 19.8264 54.9974 19.6338C54.5478 19.4412 54.1419 19.1617 53.8036 18.8117C53.4653 18.4617 53.2014 18.0483 53.0276 17.5959C52.8538 17.1436 52.7735 16.6615 52.7914 16.178C52.7718 15.6841 52.8535 15.1913 53.0317 14.7294C53.2098 14.2675 53.4808 13.8459 53.8282 13.49C54.1756 13.134 54.5923 12.8512 55.0532 12.6583C55.5142 12.4655 56.0099 12.3666 56.5105 12.3678C57.0868 12.3637 57.6537 12.5127 58.1517 12.7991C58.1551 12.806 58.1569 12.8135 58.1569 12.8212C58.1569 12.8289 58.1551 12.8365 58.1517 12.8433L58.1909 14.6406Z" fill="#333333"/>
<path fill-rule="evenodd" clip-rule="evenodd" d="M61.4844 15.1994H61.5124L63.6464 12.6169C63.6609 12.6118 63.6767 12.6118 63.6912 12.6169H66.2005C66.2115 12.617 66.2222 12.6203 66.2312 12.6264C66.2403 12.6325 66.2473 12.6411 66.2515 12.6511C66.2557 12.6611 66.2568 12.6721 66.2547 12.6827C66.2526 12.6934 66.2474 12.7031 66.2397 12.7109L63.2992 15.7414L66.4918 19.6124C66.498 19.6206 66.5018 19.6304 66.5027 19.6406C66.5037 19.6509 66.5017 19.6611 66.4971 19.6703C66.4924 19.6795 66.4853 19.6872 66.4764 19.6926C66.4676 19.698 66.4574 19.7009 66.447 19.7009H63.8929C63.8868 19.7038 63.8801 19.7054 63.8733 19.7054C63.8665 19.7054 63.8598 19.7038 63.8537 19.7009L61.5124 16.7036H61.4844V19.6345C61.4844 19.6492 61.4785 19.6633 61.468 19.6736C61.4575 19.684 61.4433 19.6898 61.4284 19.6898H59.4904C59.4829 19.6907 59.4752 19.6899 59.468 19.6874C59.4608 19.685 59.4542 19.6809 59.4488 19.6756C59.4435 19.6703 59.4394 19.6638 59.4369 19.6567C59.4344 19.6496 59.4335 19.642 59.4344 19.6345V9.53661C59.4335 9.52913 59.4344 9.52155 59.4369 9.51443C59.4394 9.50732 59.4435 9.50086 59.4488 9.49553C59.4542 9.49021 59.4608 9.48616 59.468 9.4837C59.4752 9.48123 59.4829 9.48042 59.4904 9.48131H61.4284C61.4358 9.48131 61.4431 9.48274 61.4498 9.48551C61.4566 9.48829 61.4628 9.49237 61.468 9.4975C61.4732 9.50264 61.4773 9.50873 61.4802 9.51544C61.483 9.52215 61.4844 9.52934 61.4844 9.53661V15.1994Z" fill="#333333"/>
<path fill-rule="evenodd" clip-rule="evenodd" d="M73.572 17.8424H76.5574C76.5645 17.8417 76.5716 17.8424 76.5784 17.8445C76.5852 17.8467 76.5914 17.8502 76.5967 17.8549C76.602 17.8596 76.6062 17.8654 76.6091 17.8718C76.612 17.8782 76.6134 17.8852 76.6134 17.8922V19.6342C76.6143 19.6417 76.6135 19.6493 76.611 19.6564C76.6085 19.6635 76.6044 19.6699 76.599 19.6753C76.5936 19.6806 76.5871 19.6846 76.5798 19.6871C76.5726 19.6896 76.565 19.6904 76.5574 19.6895H71.4716C71.4645 19.6895 71.4575 19.6881 71.4509 19.6853C71.4444 19.6824 71.4386 19.6782 71.4338 19.673C71.4291 19.6678 71.4255 19.6616 71.4233 19.6549C71.4211 19.6483 71.4204 19.6412 71.4212 19.6342V9.53626C71.4204 9.52927 71.4211 9.5222 71.4233 9.51551C71.4255 9.50882 71.4291 9.50266 71.4338 9.49743C71.4386 9.49221 71.4444 9.48804 71.4509 9.4852C71.4575 9.48236 71.4645 9.48091 71.4716 9.48096H73.516C73.5234 9.48096 73.5306 9.48239 73.5374 9.48517C73.5442 9.48795 73.5504 9.49202 73.5556 9.49716C73.5608 9.50229 73.5649 9.50839 73.5678 9.5151C73.5706 9.52181 73.572 9.529 73.572 9.53626V17.8424Z" fill="#333333"/>
<path fill-rule="evenodd" clip-rule="evenodd" d="M84.2929 16.1501C84.2929 17.1387 83.8952 18.0867 83.1872 18.7857C82.4792 19.4847 81.519 19.8774 80.5178 19.8774C79.5166 19.8774 78.5564 19.4847 77.8484 18.7857C77.1404 18.0867 76.7427 17.1387 76.7427 16.1501C76.7427 15.1616 77.1404 14.2135 77.8484 13.5145C78.5564 12.8155 79.5166 12.4229 80.5178 12.4229C81.519 12.4229 82.4792 12.8155 83.1872 13.5145C83.8952 14.2135 84.2929 15.1616 84.2929 16.1501V16.1501ZM78.8207 16.1501C78.8207 17.1013 79.4648 18.1299 80.501 18.1299C81.5372 18.1299 82.1813 17.1013 82.1813 16.1501C82.1813 15.199 81.5428 14.1538 80.501 14.1538C79.4592 14.1538 78.8207 15.1658 78.8207 16.1501V16.1501Z" fill="#333333"/>
<path fill-rule="evenodd" clip-rule="evenodd" d="M92.3129 16.1501C92.3129 16.6396 92.2153 17.1243 92.0256 17.5765C91.8358 18.0287 91.5578 18.4396 91.2072 18.7857C90.8567 19.1318 90.4405 19.4064 89.9825 19.5937C89.5245 19.781 89.0336 19.8774 88.5378 19.8774C88.042 19.8774 87.5511 19.781 87.0931 19.5937C86.6351 19.4064 86.2189 19.1318 85.8684 18.7857C85.5178 18.4396 85.2398 18.0287 85.0501 17.5765C84.8603 17.1243 84.7627 16.6396 84.7627 16.1501C84.7627 15.6607 84.8603 15.176 85.0501 14.7238C85.2398 14.2715 85.5178 13.8607 85.8684 13.5145C86.2189 13.1684 86.6351 12.8939 87.0931 12.7066C87.5511 12.5193 88.042 12.4229 88.5378 12.4229C89.0336 12.4229 89.5245 12.5193 89.9825 12.7066C90.4405 12.8939 90.8567 13.1684 91.2072 13.5145C91.5578 13.8607 91.8358 14.2715 92.0256 14.7238C92.2153 15.176 92.3129 15.6607 92.3129 16.1501V16.1501ZM86.8407 16.1501C86.8407 17.1013 87.4848 18.1299 88.521 18.1299C89.5572 18.1299 90.2013 17.1013 90.2013 16.1501C90.2013 15.199 89.5572 14.1538 88.521 14.1538C87.4848 14.1538 86.8407 15.1658 86.8407 16.1501V16.1501Z" fill="#333333"/>
<path fill-rule="evenodd" clip-rule="evenodd" d="M95.3264 15.1991L97.4603 12.6165C97.4748 12.6115 97.4907 12.6115 97.5052 12.6165H100.014C100.025 12.6167 100.036 12.62 100.045 12.6261C100.054 12.6322 100.061 12.6407 100.065 12.6508C100.07 12.6608 100.071 12.6718 100.069 12.6824C100.067 12.693 100.061 12.7028 100.054 12.7105L97.1131 15.741L100.306 19.6121C100.312 19.6203 100.316 19.6301 100.317 19.6403C100.318 19.6505 100.316 19.6608 100.311 19.67C100.306 19.6792 100.299 19.6869 100.29 19.6923C100.281 19.6977 100.271 19.7006 100.261 19.7006H97.7124C97.7054 19.704 97.6978 19.7057 97.69 19.7057C97.6822 19.7057 97.6745 19.704 97.6676 19.7006L95.3264 16.7033V19.6342C95.3271 19.6412 95.3264 19.6483 95.3242 19.6549C95.3221 19.6616 95.3185 19.6678 95.3137 19.673C95.309 19.6782 95.3031 19.6824 95.2966 19.6853C95.2901 19.6881 95.2831 19.6895 95.2759 19.6895H93.3324C93.3175 19.6895 93.3033 19.6837 93.2928 19.6733C93.2823 19.6629 93.2764 19.6489 93.2764 19.6342V9.53626C93.2764 9.529 93.2778 9.52181 93.2806 9.5151C93.2834 9.50839 93.2876 9.50229 93.2928 9.49716C93.298 9.49202 93.3042 9.48795 93.3109 9.48517C93.3177 9.48239 93.325 9.48096 93.3324 9.48096H95.2759C95.2831 9.48091 95.2901 9.48236 95.2966 9.4852C95.3031 9.48804 95.309 9.49221 95.3137 9.49743C95.3185 9.50266 95.3221 9.50882 95.3242 9.51551C95.3264 9.5222 95.3271 9.52927 95.3264 9.53626V15.1991Z" fill="#333333"/>
<path fill-rule="evenodd" clip-rule="evenodd" d="M102.927 12.594C102.94 12.5954 102.953 12.6018 102.963 12.612C102.972 12.6222 102.977 12.6355 102.977 12.6493V16.4374C102.977 17.2503 103.111 18.2181 104.148 18.2181C105.184 18.2181 105.318 17.2503 105.318 16.4374V12.6659C105.32 12.6516 105.326 12.6383 105.336 12.6282C105.346 12.6181 105.36 12.6118 105.374 12.6106H107.312C107.327 12.6106 107.341 12.6164 107.352 12.6268C107.362 12.6372 107.368 12.6512 107.368 12.6659V16.7858C107.368 18.8541 106.287 19.938 104.148 19.938C102.008 19.938 100.933 18.8319 100.933 16.7858V12.6659C100.933 12.6521 100.938 12.6388 100.947 12.6286C100.956 12.6184 100.969 12.612 100.983 12.6106L102.927 12.594Z" fill="#333333"/>
<path fill-rule="evenodd" clip-rule="evenodd" d="M110.841 13.247C111.09 12.9691 111.396 12.7469 111.739 12.5952C112.082 12.4436 112.453 12.366 112.829 12.3677C114.862 12.3677 116.106 14.2424 116.106 16.106C116.106 17.9697 114.907 19.9218 112.784 19.9218C112.417 19.9287 112.052 19.8514 111.72 19.696C111.388 19.5405 111.096 19.3112 110.869 19.0259V19.0259V23.45C110.867 23.4637 110.861 23.4764 110.851 23.4856C110.84 23.4948 110.827 23.4998 110.813 23.4998H108.875C108.868 23.5005 108.861 23.4998 108.854 23.4977C108.847 23.4955 108.841 23.492 108.836 23.4873C108.83 23.4826 108.826 23.4768 108.823 23.4704C108.82 23.464 108.819 23.457 108.819 23.45V12.6663C108.819 12.6517 108.825 12.6376 108.835 12.6272C108.846 12.6169 108.86 12.611 108.875 12.611H110.813C110.827 12.6123 110.841 12.6185 110.851 12.6286C110.861 12.6387 110.868 12.6521 110.869 12.6663V13.2636L110.841 13.247ZM114.028 16.1337C114.028 15.1825 113.384 14.1539 112.348 14.1539C111.311 14.1539 110.667 15.1825 110.667 16.1337C110.667 17.0849 111.311 18.1301 112.348 18.1301C113.384 18.1301 114.039 17.0904 114.039 16.1337H114.028Z" fill="#333333"/>
<path fill-rule="evenodd" clip-rule="evenodd" d="M39.4048 17.2285C40.1469 16.0329 40.4188 14.6099 40.1686 13.2296C39.9185 11.8492 39.1639 10.6076 38.0479 9.74021C36.9319 8.87284 35.5323 8.44014 34.1146 8.52422C32.6969 8.60829 31.3597 9.20329 30.3569 10.1963C29.3541 11.1893 28.7555 12.5112 28.6745 13.9112C28.5935 15.3112 29.0359 16.6918 29.9176 17.7911C30.7994 18.8904 32.0592 19.6318 33.458 19.8747C34.8568 20.1176 36.2973 19.845 37.506 19.1087L41.4267 21.1549C41.4716 21.1549 41.5276 21.1272 41.4996 21.083L39.4048 17.2285ZM31.8657 16.7806C31.3546 16.2754 31.0067 15.6319 30.8659 14.9315C30.7251 14.2312 30.7978 13.5053 31.0747 12.8457C31.3517 12.1861 31.8205 11.6223 32.4219 11.2257C33.0232 10.8291 33.7302 10.6174 34.4534 10.6174C35.1766 10.6174 35.8836 10.8291 36.485 11.2257C37.0864 11.6223 37.5552 12.1861 37.8321 12.8457C38.1091 13.5053 38.1817 14.2312 38.0409 14.9315C37.9002 15.6319 37.5522 16.2754 37.0411 16.7806C36.3544 17.4573 35.4237 17.8374 34.4534 17.8374C33.4831 17.8374 32.5525 17.4573 31.8657 16.7806V16.7806Z" fill="#333333"/>
<defs>
<linearGradient id="paint0_linear_1371_23153" x1="0.5" y1="22.5595" x2="22.5577" y2="0.218697" gradientUnits="userSpaceOnUse">
<stop stop-color="#C42126"/>
<stop offset="0.38" stop-color="#E63446"/>
<stop offset="0.63" stop-color="#E63446"/>
<stop offset="1" stop-color="#E63446"/>
</linearGradient>
<linearGradient id="paint1_linear_1371_23153" x1="11.5451" y1="16.6751" x2="17.0415" y2="11.1081" gradientUnits="userSpaceOnUse">
<stop stop-color="#08AE95"/>
<stop offset="0.12" stop-color="#08AE95"/>
<stop offset="0.47" stop-color="#08AE95"/>
<stop offset="0.99" stop-color="#039E84"/>
<stop offset="1" stop-color="#039E84"/>
</linearGradient>
</defs>
</svg>
