<svg width="43" height="34" viewBox="0 0 43 34" fill="none" xmlns="http://www.w3.org/2000/svg">
<g opacity="0.5">
<g clip-path="url(#clip0_1746_19132)">
<path fill-rule="evenodd" clip-rule="evenodd" d="M21.4674 29.3297C9.64099 29.3297 0.0537109 22.9089 0.0537109 14.9884C0.0537109 7.06781 9.64099 0.646973 21.4674 0.646973C33.2939 0.646973 42.8811 7.06781 42.8811 14.9884C42.8811 22.9089 33.2939 29.3297 21.4674 29.3297ZM24.7452 6.25396C15.756 6.25396 8.46888 10.6435 8.46888 16.0583C8.46888 21.4731 15.756 25.8627 24.7452 25.8627C33.7342 25.8627 40.368 22.8616 40.368 16.0583C40.368 9.25713 33.7342 6.25396 24.7452 6.25396Z" fill="#BDBDBD"/>
<path fill-rule="evenodd" clip-rule="evenodd" d="M32.6658 22.8598C32.6658 22.8598 33.9619 23.2509 34.7149 23.6319C34.9761 23.7641 35.4282 24.0279 35.7542 24.3743C36.0736 24.7135 36.2294 25.0573 36.2294 25.0573L41.3371 33.6692L33.0816 33.6729L29.2211 26.4233C29.2211 26.4233 28.4306 25.0651 27.9441 24.6713C27.5384 24.3428 27.3654 24.2258 26.9642 24.2258C26.6849 24.2258 25.0027 24.2258 25.0027 24.2258L25.0042 33.6676L17.699 33.6707V9.55225H32.3689C32.3689 9.55225 39.0505 9.67275 39.0505 16.0297C39.0505 22.3866 32.6658 22.8598 32.6658 22.8598ZM29.4883 14.7839L25.0658 14.781L25.0636 18.8821L29.4883 18.8806C29.4883 18.8806 31.5374 18.8743 31.5374 16.7945C31.5374 14.6729 29.4883 14.7839 29.4883 14.7839Z" fill="#333333"/>
</g>
</g>
<defs>
<clipPath id="clip0_1746_19132">
<rect width="43" height="33.3191" fill="white" transform="translate(0 0.46875)"/>
</clipPath>
</defs>
</svg>
