<svg width="21" height="18" viewBox="0 0 21 18" fill="none" xmlns="http://www.w3.org/2000/svg">
<path d="M13.65 9.12793V2.72305C13.65 1.58252 12.7083 0.62793 11.55 0.62793H2.1C0.943359 0.62793 0 1.58252 0 2.72305V9.09805C0 10.2967 0.943359 11.2529 2.1 11.2529L3.15 11.2533V13.0546C3.15 13.3201 3.44941 13.4736 3.65859 13.316L6.37383 11.2534L11.55 11.2496C12.7083 11.2529 13.65 10.2967 13.65 9.12793ZM18.9 4.87793H14.7V9.12793C14.7 10.8834 13.2848 12.3151 11.55 12.3151L8.4 12.3151V13.377C8.4 14.5474 9.34336 15.4721 10.4705 15.4721L14.5983 15.4719L17.3135 17.5344C17.5514 17.7209 17.85 17.5682 17.85 17.3025V15.5016H18.9C20.0566 15.5016 21 14.547 21 13.4065V6.97305C21 5.83086 20.0583 4.87793 18.9 4.87793Z" fill="#99B8CC"/>
</svg>
