<svg width="31" height="24" viewBox="0 0 31 24" fill="none" xmlns="http://www.w3.org/2000/svg">
<g opacity="0.5">
<g clip-path="url(#clip0_2025_39121)">
<path fill-rule="evenodd" clip-rule="evenodd" d="M15.3773 20.1938C7.1263 20.1938 0.4375 15.7142 0.4375 10.1882C0.4375 4.66227 7.1263 0.182617 15.3773 0.182617C23.6283 0.182617 30.3171 4.66227 30.3171 10.1882C30.3171 15.7142 23.6283 20.1938 15.3773 20.1938ZM17.6641 4.09447C11.3926 4.09447 6.30855 7.15696 6.30855 10.9347C6.30855 14.7125 11.3926 17.775 17.6641 17.775C23.9355 17.775 28.5638 15.6812 28.5638 10.9347C28.5638 6.1897 23.9355 4.09447 17.6641 4.09447Z" fill="#BDBDBD"/>
<path fill-rule="evenodd" clip-rule="evenodd" d="M23.19 15.6798C23.19 15.6798 24.0943 15.9527 24.6196 16.2185C24.8019 16.3108 25.1172 16.4948 25.3447 16.7365C25.5676 16.9732 25.6762 17.213 25.6762 17.213L29.2398 23.2213L23.4801 23.2239L20.7867 18.166C20.7867 18.166 20.2352 17.2184 19.8958 16.9437C19.6127 16.7145 19.492 16.6329 19.2121 16.6329C19.0173 16.6329 17.8437 16.6329 17.8437 16.6329L17.8447 23.2202L12.748 23.2224V6.39551H22.9829C22.9829 6.39551 27.6445 6.47958 27.6445 10.9147C27.6445 15.3497 23.19 15.6798 23.19 15.6798ZM20.9732 10.0455L17.8877 10.0435L17.8862 12.9047L20.9732 12.9037C20.9732 12.9037 22.4027 12.8993 22.4027 11.4482C22.4027 9.96804 20.9732 10.0455 20.9732 10.0455Z" fill="#333333"/>
</g>
</g>
<defs>
<clipPath id="clip0_2025_39121">
<rect width="30" height="23.2459" fill="white" transform="translate(0.400024 0.0585938)"/>
</clipPath>
</defs>
</svg>
