<svg width="401" height="390" viewBox="0 0 401 390" fill="none" xmlns="http://www.w3.org/2000/svg">
<path d="M210.686 53.1655H244.486C274.763 3.58539 321.219 1.76691 349.412 6.99499C353.845 7.81158 357.256 11.2371 358.051 15.6402C363.281 43.8439 361.462 90.3005 311.557 120.236V154.377C311.557 164.04 306.479 172.945 298.181 177.871L264.646 197.727C261.841 199.394 258.355 199.432 255.513 197.84C252.671 196.211 250.928 193.18 250.928 189.921V146.458C250.928 137.856 247.518 129.33 241.455 123.267C235.392 117.204 227.207 114.135 218.606 114.135H175.143C171.876 114.135 168.858 112.392 167.24 109.55C165.623 106.708 165.653 103.222 167.32 100.418L187.204 66.8827C192.115 58.5842 201.035 53.1655 210.686 53.1655Z" fill="#BCD4E7"/>
<path fill-rule="evenodd" clip-rule="evenodd" d="M119.678 182.275C125.123 166.511 132.038 151.961 140.329 145.367C163.053 126.951 202.235 129.831 202.235 129.831L202.323 129.942C211.049 129.794 219.823 133.052 226.485 139.714C235.63 148.859 238.36 161.977 234.673 173.493C232.932 182.017 225.508 212.602 206.062 228.118C183.326 246.208 105.04 241.047 105.04 241.047C105.04 241.047 106.461 231.914 109.208 220.016L119.678 182.275Z" fill="#BCD4E7"/>
<path d="M204.111 177.562C204.087 177.562 200.526 198.163 188.7 207.346C179.861 214.196 151.701 214.616 137.111 214.072C137.453 212.339 137.905 210.175 138.457 207.731L158.677 184.38C162.252 180.248 157.912 174.214 152.858 176.013L147.847 177.785C150.872 171.188 153.496 168.113 155.339 166.683C167.195 157.49 188.428 158.689 188.677 158.704C194.083 158.83 194.307 151.104 189.183 150.779C188.152 150.508 164.499 149.367 150.454 160.411C145.561 164.194 141.204 171.635 137.126 183.149C136.016 186.274 139.052 189.329 142.223 188.212L145.987 186.875L131.773 203.281C131.353 203.769 131.057 204.355 130.909 204.983C129.275 212.059 128.435 217.157 128.435 217.157C127.938 220.095 130.453 221.654 132.107 221.763C133.71 221.866 139.506 222.213 147.038 222.213C162.146 222.213 184.26 220.868 193.597 213.61C207.888 202.504 211.817 179.831 211.974 178.887C212.826 173.715 205.008 172.35 204.111 177.562Z" fill="white"/>
<path d="M297.868 187.258L297.872 187.255C307.24 182.55 313.161 173.003 313.161 162.504V125.653C364.665 93.9779 366.48 45.2784 361.032 15.8878C360.012 10.2625 355.647 5.88592 349.997 4.84458C320.616 -0.603537 271.924 1.21039 239.902 52.3806H203.389C192.835 52.3806 183.297 58.7112 178.644 68.0247C178.643 68.0252 178.643 68.0256 178.643 68.0261L158.833 107.621L158.829 107.63C157.457 110.397 157.597 113.678 159.225 116.304C160.843 118.912 163.702 120.529 166.799 120.529H211.589C220.571 120.529 229.149 124.077 235.482 130.411C241.816 136.744 245.364 145.322 245.364 154.304V199.094C245.364 202.165 246.976 205.051 249.595 206.667C252.207 208.279 255.489 208.447 258.271 207.056L297.868 187.258ZM290.061 170.911L289.972 170.949L289.885 170.993L263.177 184.637V154.304C263.177 151.693 262.985 149.139 262.605 146.488C274.906 143.539 285.753 139.73 295.348 135.399V162.504C295.348 166.297 293.246 169.567 290.061 170.911ZM194.575 75.9872L194.578 75.982C196.302 72.5145 199.771 70.1935 203.389 70.1935H230.499C226.156 79.8645 222.317 90.9633 219.111 103.275C216.542 102.901 213.885 102.716 211.589 102.716H181.211L194.575 75.9872ZM304.255 85.8135C317.761 85.8135 328.781 75.201 328.781 61.287C328.781 48.1316 317.817 36.7606 304.255 36.7606C290.692 36.7606 279.728 48.1316 279.728 61.287C279.728 75.201 290.748 85.8135 304.255 85.8135ZM310.968 61.287C310.968 65.2985 308.046 68.0005 304.255 68.0005C300.463 68.0005 297.541 65.2985 297.541 61.287C297.541 57.8485 300.593 54.5736 304.255 54.5736C307.916 54.5736 310.968 57.8485 310.968 61.287ZM335.473 78.6638C324.888 97.6082 302.804 118.105 257.004 129.811C254.659 125.446 251.663 121.387 248.067 117.826C244.506 114.23 240.447 111.234 236.082 108.889C247.784 63.067 267.954 41.0077 287.222 30.4084C306.655 19.7184 327.718 19.2915 344.006 21.8861C346.62 38.1729 346.186 59.2325 335.473 78.6638Z" fill="white" stroke="white" stroke-width="5.31697"/>
<path d="M326.951 59.2569C326.951 71.3979 317.368 80.6372 305.57 80.6372C293.773 80.6372 284.19 71.3979 284.19 59.2569C284.19 47.8032 293.773 37.8767 305.57 37.8767C317.368 37.8767 326.951 47.8032 326.951 59.2569ZM305.57 74.5285C314.008 74.5285 320.842 68.0381 320.842 59.2569C320.842 51.163 314.008 43.9853 305.57 43.9853C297.133 43.9853 290.299 51.163 290.299 59.2569C290.299 68.0381 297.133 74.5285 305.57 74.5285ZM299.844 180.399L263.841 198.42C257.77 201.474 250.593 196.701 250.593 190.211V148.023C250.593 139.166 247.08 130.652 240.781 124.39C234.519 118.091 226.005 114.578 217.148 114.578H174.956C168.144 114.578 163.714 107.401 166.76 101.33L184.764 64.9838C188.384 57.7298 195.787 53.1483 203.9 53.1483H240.437C272.469 5.03009 321.415 1.75662 349.82 6.67752C354.249 7.44759 357.723 10.9032 358.487 15.3472C363.412 43.7562 360.128 92.7399 311.679 124.734V161.271C311.679 169.365 307.098 176.772 299.844 180.399ZM256.129 141.38C304.158 129.545 329.356 107.019 342.07 83.7679C355.203 59.7533 355.509 34.0015 352.493 16.3933C351.805 14.4882 350.698 13.0259 348.789 12.6976C331.15 9.64709 305.418 9.95634 281.403 23.0976C258.152 35.8112 235.626 61.0132 223.791 109.042C231.809 110.379 239.292 114.235 245.133 120.038C250.936 125.879 254.449 133.362 256.129 141.38ZM256.701 190.211C256.701 192.502 259.107 193.953 261.13 192.96L297.133 174.939C302.287 172.343 305.57 167.075 305.57 161.271V128.552C292.437 136.264 276.325 142.793 256.358 147.565L256.701 148.023V190.211ZM217.644 108.47C222.378 88.8457 228.907 72.7341 236.619 59.2569H203.9C198.1 59.2569 192.812 62.8839 190.228 68.0381L172.222 104.041C171.207 106.064 172.684 108.47 174.956 108.47H217.148H217.644Z" fill="#3F6587"/>
<path d="M179.971 185.498L178.767 185.579C178.808 186.181 179.287 186.66 179.888 186.702L179.971 185.498ZM179.971 185.498C178.767 185.579 178.767 185.579 178.767 185.578L178.767 185.577L178.767 185.572L178.766 185.554L178.762 185.49C178.758 185.433 178.754 185.351 178.748 185.244C178.737 185.03 178.722 184.717 178.707 184.316C178.678 183.514 178.649 182.36 178.652 180.939C178.658 178.101 178.789 174.191 179.291 169.909C180.284 161.431 182.766 151.163 188.928 145.055C197.53 136.378 211.47 136.38 220.072 145.059C228.669 153.733 228.669 167.775 220.072 176.45C213.913 182.664 203.736 185.171 195.349 186.174C191.116 186.681 187.259 186.812 184.46 186.818C183.06 186.821 181.923 186.792 181.133 186.763C180.738 186.748 180.429 186.733 180.218 186.721C180.113 186.716 180.032 186.711 179.976 186.707L179.912 186.703L179.895 186.702L179.89 186.702L179.889 186.702C179.888 186.702 179.888 186.702 179.971 185.498ZM187.805 180.43C186.753 180.467 185.752 180.502 184.849 180.562C184.866 177.945 185.001 174.463 185.445 170.517C186.417 162.447 188.736 154.081 193.315 149.453C199.495 143.227 209.517 143.228 215.687 149.453C221.862 155.684 221.862 165.825 215.687 172.056C211.103 176.681 202.812 179.009 194.617 179.983L194.616 179.983C192.669 180.216 190.795 180.315 189.059 180.384C188.635 180.4 188.216 180.415 187.805 180.43Z" fill="#F37A20" stroke="#F37A20" stroke-width="2.41349" stroke-linejoin="round"/>
<g opacity="0.6">
<path d="M37.0905 267.46H44.8225C51.7484 256.118 62.3756 255.702 68.8247 256.898C69.8389 257.085 70.619 257.869 70.801 258.876C71.9972 265.328 71.5812 275.955 60.1652 282.803V290.613C60.1652 292.823 59.0036 294.86 57.1053 295.987L49.434 300.529C48.7925 300.911 47.9951 300.919 47.3449 300.555C46.6948 300.182 46.2961 299.489 46.2961 298.743V288.801C46.2961 286.833 45.516 284.883 44.1291 283.496C42.7421 282.109 40.8698 281.407 38.9021 281.407H28.9597C28.2126 281.407 27.522 281.008 27.1521 280.358C26.782 279.708 26.7891 278.911 27.1704 278.269L31.7188 270.598C32.8422 268.7 34.8827 267.46 37.0905 267.46Z" fill="#BCD4E7"/>
<path fill-rule="evenodd" clip-rule="evenodd" d="M16.2738 296.995C17.5194 293.389 19.1014 290.06 20.998 288.552C26.1963 284.339 35.1592 284.998 35.1592 284.998L35.1795 285.024C37.1754 284.99 39.1821 285.735 40.7059 287.259C42.7963 289.349 43.4213 292.347 42.5807 294.98C42.1846 296.922 40.4875 303.929 36.0346 307.482C30.8337 311.62 12.9253 310.439 12.9253 310.439C12.9253 310.439 13.2503 308.35 13.8788 305.628L16.2738 296.995Z" fill="#BCD4E7"/>
</g>
<g opacity="0.4">
<path d="M108.821 272.664H113.848C118.351 265.289 125.261 265.019 129.454 265.797C130.113 265.918 130.621 266.428 130.739 267.082C131.517 271.277 131.246 278.187 123.824 282.639V287.717C123.824 289.155 123.068 290.479 121.834 291.212L116.846 294.165C116.429 294.413 115.911 294.418 115.488 294.182C115.065 293.939 114.806 293.489 114.806 293.004V286.539C114.806 285.26 114.299 283.992 113.397 283.09C112.495 282.188 111.278 281.732 109.999 281.732H103.534C103.048 281.732 102.599 281.473 102.359 281.05C102.118 280.627 102.123 280.109 102.371 279.692L105.328 274.704C106.059 273.47 107.385 272.664 108.821 272.664Z" fill="#BCD4E7"/>
<path fill-rule="evenodd" clip-rule="evenodd" d="M98.1189 290.59C98.7964 288.629 99.657 286.818 100.689 285.997C103.516 283.706 108.392 284.064 108.392 284.064L108.401 284.076C109.488 284.056 110.581 284.462 111.411 285.291C112.55 286.431 112.889 288.065 112.428 289.5C112.21 290.564 111.286 294.365 108.868 296.295C106.039 298.546 96.2974 297.903 96.2974 297.903C96.2974 297.903 96.4742 296.767 96.816 295.286L98.1189 290.59Z" fill="#BCD4E7"/>
</g>
<g opacity="0.8">
<path d="M38.4002 152.189H51.8739C63.9429 132.425 82.4617 131.701 93.6998 133.785C95.4671 134.11 96.8266 135.476 97.1438 137.231C99.2283 148.474 98.5032 166.992 78.6099 178.925V192.535C78.6099 196.387 76.5858 199.936 73.2778 201.9L59.9098 209.815C58.792 210.48 57.4024 210.495 56.2695 209.86C55.1366 209.211 54.4418 208.003 54.4418 206.704V189.378C54.4418 185.949 53.0823 182.551 50.6655 180.134C48.2487 177.717 44.986 176.493 41.5572 176.493H24.2316C22.9296 176.493 21.7263 175.799 21.0816 174.666C20.4368 173.533 20.449 172.143 21.1135 171.025L29.0396 157.657C30.9972 154.349 34.5529 152.189 38.4002 152.189Z" fill="#BCD4E7"/>
<path fill-rule="evenodd" clip-rule="evenodd" d="M9.71581 200.233C11.5318 194.976 13.8381 190.123 16.6032 187.924C24.1818 181.782 37.2489 182.743 37.2489 182.743L37.2807 182.783C40.1905 182.734 43.1161 183.82 45.3377 186.041C48.3916 189.095 49.3002 193.477 48.0636 197.322C47.4764 200.189 44.9975 210.358 38.5253 215.521C30.9429 221.555 4.83398 219.833 4.83398 219.833C4.83398 219.833 5.30789 216.788 6.2241 212.82L9.71581 200.233Z" fill="#BCD4E7"/>
<path d="M37.8715 198.656C37.8632 198.656 36.6758 205.526 32.7316 208.589C29.7838 210.873 20.3925 211.013 15.5266 210.832C15.6408 210.254 15.7913 209.533 15.9755 208.717L22.7188 200.93C23.9112 199.551 22.4637 197.539 20.7783 198.139L19.1071 198.73C20.116 196.53 20.9912 195.505 21.6057 195.028C25.5598 191.962 32.6411 192.362 32.7241 192.367C34.5268 192.409 34.6015 189.832 32.8928 189.724C32.5489 189.633 24.6605 189.253 19.9765 192.936C18.3448 194.198 16.8917 196.679 15.5316 200.519C15.1615 201.561 16.174 202.58 17.2313 202.208L18.4868 201.762L13.7463 207.233C13.6062 207.396 13.5076 207.591 13.4583 207.801C12.9134 210.161 12.6331 211.861 12.6331 211.861C12.4675 212.841 13.306 213.361 13.8579 213.397C14.3924 213.431 16.3254 213.547 18.8372 213.547C23.8758 213.547 31.2511 213.098 34.3649 210.678C39.1311 206.974 40.4414 199.412 40.4938 199.098C40.7777 197.373 38.1704 196.918 37.8715 198.656Z" fill="white" stroke="white" stroke-width="2.26524"/>
<path d="M84.415 155.425C84.415 160.375 80.5079 164.142 75.6979 164.142C70.888 164.142 66.9808 160.375 66.9808 155.425C66.9808 150.755 70.888 146.708 75.6979 146.708C80.5079 146.708 84.415 150.755 84.415 155.425ZM75.6979 159.161C77.7682 159.161 79.4338 157.635 79.4338 155.425C79.4338 153.494 77.7682 151.689 75.6979 151.689C73.6276 151.689 71.962 153.494 71.962 155.425C71.962 157.635 73.6276 159.161 75.6979 159.161ZM72.6781 204.692L56.8939 212.584C56.1156 212.973 55.1971 212.926 54.4655 212.475C53.7339 212.024 53.2825 211.214 53.2825 210.358V192.503C53.2825 188.643 51.757 184.954 49.0329 182.23C46.3088 179.506 42.6196 177.98 38.7592 177.98H20.9046C20.0407 177.98 19.2398 177.529 18.7861 176.797C18.3323 176.066 18.291 175.147 18.677 174.369L26.5739 158.585C28.2613 155.207 31.7108 152.934 35.4902 152.934H50.6362C63.0737 132.567 82.1579 131.82 93.7392 133.967C95.5605 134.303 96.9615 135.71 97.2884 137.519C99.4365 149.105 98.6893 168.189 78.1885 180.486V195.772C78.1885 199.555 76.056 202.995 72.6781 204.692ZM56.3024 183.973C75.3399 179.288 84.6174 170.835 89.0694 162.865C93.6614 154.537 93.6614 145.524 92.4628 138.798C85.7382 137.609 76.7253 137.606 68.3973 142.187C60.2873 146.648 51.9749 155.923 47.2895 174.96C49.2197 175.894 51.0098 177.155 52.5509 178.712C54.1075 180.253 55.3684 182.043 56.3024 183.973ZM58.2637 206.326L70.4521 200.1C72.1488 199.384 73.2073 197.671 73.2073 195.772V183.304C68.8488 185.405 63.7897 187.242 57.8901 188.581C58.1392 189.951 58.2637 191.211 58.2637 192.503V206.326ZM42.5418 173.373C44.0206 167.473 45.8574 162.274 47.9588 157.915H35.4902C33.5974 157.915 31.8726 159.114 31.029 160.811L24.9348 172.999H38.7592C39.9111 172.999 41.312 173.123 42.5418 173.373Z" fill="white"/>
</g>
<g opacity="0.8">
<path d="M174.812 278.207H190.085C203.767 255.803 224.76 254.981 237.499 257.343C239.503 257.712 241.044 259.26 241.404 261.25C243.766 273.995 242.945 294.988 220.393 308.515V323.943C220.393 328.309 218.099 332.333 214.349 334.559L199.195 343.532C197.928 344.285 196.353 344.302 195.068 343.583C193.784 342.847 192.996 341.477 192.996 340.004V320.364C192.996 316.477 191.455 312.625 188.716 309.885C185.976 307.145 182.277 305.758 178.39 305.758H158.75C157.274 305.758 155.91 304.971 155.179 303.686C154.448 302.402 154.462 300.827 155.215 299.56L164.2 284.406C166.42 280.656 170.45 278.207 174.812 278.207Z" fill="#BCD4E7"/>
<path fill-rule="evenodd" clip-rule="evenodd" d="M133.687 336.553C136.148 329.429 139.273 322.854 143.02 319.875C153.288 311.553 170.994 312.854 170.994 312.854L171.035 312.906C174.978 312.84 178.941 314.312 181.952 317.322C186.084 321.454 187.317 327.381 185.652 332.585C184.865 336.439 181.51 350.258 172.723 357.268C162.449 365.443 127.073 363.111 127.073 363.111C127.073 363.111 127.715 358.984 128.956 353.607L133.687 336.553Z" fill="#BCD4E7"/>
<path d="M140.502 336.566C139.887 338.298 140.987 339.986 142.553 340.385L138.294 345.3L138.292 345.303C137.982 345.664 137.766 346.093 137.658 346.551L137.658 346.551L137.657 346.556C137.284 348.171 137.001 349.56 136.812 350.547C136.717 351.04 136.646 351.434 136.598 351.704C136.574 351.84 136.556 351.944 136.543 352.016L136.53 352.098L136.526 352.119L136.525 352.123L136.525 352.125L136.525 352.125C136.347 353.183 136.722 354.051 137.308 354.634C137.853 355.178 138.583 355.481 139.227 355.524L139.229 355.524C139.967 355.571 142.612 355.729 146.048 355.729C149.488 355.729 153.753 355.577 157.708 355.004C161.607 354.439 165.422 353.439 167.783 351.604C171.248 348.91 173.401 344.872 174.691 341.552C175.989 338.211 176.467 335.46 176.509 335.204L176.51 335.203C176.656 334.312 176.431 333.506 175.936 332.895C175.459 332.306 174.782 331.96 174.103 331.843C173.424 331.727 172.67 331.827 172.022 332.228C171.359 332.639 170.888 333.319 170.729 334.196L140.502 336.566ZM140.502 336.566C140.502 336.566 140.502 336.566 140.502 336.566L141.569 336.944L140.502 336.565L140.502 336.566ZM150.494 330.399C152.928 328.512 156.416 327.64 159.439 327.265C160.929 327.079 162.264 327.02 163.232 327.007C163.715 327.001 164.105 327.006 164.375 327.013C164.511 327.016 164.616 327.02 164.687 327.023C164.758 327.026 164.795 327.029 164.797 327.029L164.797 327.029L164.817 327.03L164.838 327.03C165.738 327.051 166.512 326.738 167.063 326.178C167.598 325.635 167.862 324.924 167.894 324.237C167.926 323.55 167.73 322.824 167.262 322.239C166.791 321.651 166.091 321.265 165.239 321.192C165.141 321.176 165.047 321.168 164.989 321.163C164.863 321.152 164.705 321.141 164.52 321.133C164.147 321.116 163.645 321.105 163.042 321.111C161.837 321.124 160.211 321.206 158.395 321.454C154.797 321.943 150.303 323.099 146.896 325.777L150.494 330.399Z" fill="white" stroke="white" stroke-width="2.26524"/>
<path d="M226.975 281.878C226.975 287.49 222.545 291.76 217.093 291.76C211.64 291.76 207.211 287.49 207.211 281.878C207.211 276.584 211.64 271.996 217.093 271.996C222.545 271.996 226.975 276.584 226.975 281.878ZM217.093 286.113C219.44 286.113 221.328 284.384 221.328 281.878C221.328 279.69 219.44 277.643 217.093 277.643C214.746 277.643 212.858 279.69 212.858 281.878C212.858 284.384 214.746 286.113 217.093 286.113ZM213.67 337.728L195.777 346.674C194.894 347.115 193.853 347.062 193.024 346.551C192.194 346.039 191.683 345.121 191.683 344.151V323.911C191.683 319.535 189.953 315.353 186.865 312.265C183.777 309.176 179.595 307.447 175.219 307.447H154.979C154 307.447 153.092 306.935 152.577 306.106C152.063 305.277 152.016 304.236 152.454 303.353L161.406 285.46C163.319 281.631 167.229 279.055 171.513 279.055H188.683C202.782 255.966 224.416 255.119 237.545 257.554C239.609 257.934 241.197 259.53 241.568 261.58C244.003 274.714 243.156 296.348 219.916 310.288V327.616C219.916 331.904 217.499 335.804 213.67 337.728ZM195.106 314.241C216.687 308.929 227.204 299.348 232.251 290.313C237.456 280.872 237.456 270.655 236.098 263.031C228.475 261.682 218.257 261.679 208.817 266.872C199.623 271.929 190.2 282.443 184.889 304.024C187.077 305.083 189.106 306.512 190.853 308.277C192.618 310.023 194.047 312.053 195.106 314.241ZM197.329 339.58L211.146 332.522C213.07 331.71 214.27 329.769 214.27 327.616V313.482C209.329 315.864 203.594 317.947 196.906 319.464C197.188 321.017 197.329 322.446 197.329 323.911V339.58ZM179.507 302.224C181.183 295.536 183.266 289.642 185.648 284.702H171.513C169.368 284.702 167.412 286.06 166.456 287.984L159.548 301.8H175.219C176.525 301.8 178.113 301.942 179.507 302.224Z" fill="white"/>
</g>
</svg>
