<svg width="48" height="48" viewBox="0 0 48 48" fill="none" xmlns="http://www.w3.org/2000/svg">
<path d="M10.7404 38.6277C10.5032 38.4033 10.2638 38.1774 10.0243 37.9493C13.5911 34.4503 17.2234 30.1516 17.2234 24.3206C17.2234 18.4897 13.5911 14.191 10.0243 10.6912C10.2638 10.4631 10.5032 10.2372 10.7404 10.0128C13.8155 7.10788 16.4704 4.59901 16.4704 1.73172V0.97876H14.9645V1.73172C14.9645 2.22793 14.8365 2.7294 14.6151 3.23765H3.26647C3.0451 2.7294 2.91709 2.22793 2.91709 1.73172V0.97876H1.41117V1.73172C1.41117 4.59901 4.06612 7.10788 7.14122 10.0136C7.37841 10.238 7.61785 10.4638 7.85729 10.692C4.2905 14.191 0.658203 18.4897 0.658203 24.3206C0.658203 30.1516 4.2905 34.4503 7.85729 37.95C7.61785 38.1782 7.37841 38.4041 7.14122 38.6285C4.06612 41.5334 1.41117 44.0423 1.41117 46.9095V47.6625H2.91709V46.9095C2.91709 46.4133 3.0451 45.9119 3.26647 45.4036H14.6159C14.8365 45.9119 14.9645 46.4133 14.9645 46.9095V47.6625H16.4704V46.9095C16.4704 44.0423 13.8155 41.5334 10.7404 38.6277ZM4.16702 4.74358H13.7146C13.3472 5.23526 12.9112 5.73674 12.4285 6.24951H5.45308C4.97043 5.73674 4.53371 5.23526 4.16702 4.74358ZM6.95298 7.75543H10.9279C10.5326 8.13643 10.1245 8.5227 9.70582 8.91876C9.45433 9.1567 9.19832 9.3984 8.94081 9.64311C8.68254 9.3984 8.42729 9.1567 8.1758 8.91876C7.75715 8.5227 7.34829 8.13643 6.95298 7.75543ZM8.94081 11.7364C9.85189 12.6279 10.7524 13.5533 11.5845 14.5321H6.29715C7.12918 13.5533 8.02972 12.6279 8.94081 11.7364ZM3.33123 19.0499H10.4467V17.544H4.12485C4.44787 16.9981 4.79875 16.4687 5.17599 15.9537V16.038H12.7056V15.9537C13.0829 16.468 13.4337 16.9981 13.7568 17.544H11.9527V19.0499H14.5511C14.7718 19.5371 14.9577 20.0415 15.1211 20.5558H2.76123C2.92462 20.0415 3.10985 19.5371 3.33123 19.0499ZM2.3727 22.0617H15.5097C15.6 22.5497 15.652 23.0542 15.6836 23.5677H2.19877C2.22964 23.0542 2.28159 22.5497 2.3727 22.0617ZM2.76048 28.0855H5.17599V26.5795H2.37195C2.28159 26.0916 2.22964 25.5871 2.19801 25.0736H15.6828C15.652 25.5871 15.6 26.0916 15.5089 26.5795H6.68191V28.0855H15.1204C14.957 28.5997 14.7718 29.1042 14.5504 29.5914H3.33047C3.10985 29.1042 2.92387 28.5997 2.76048 28.0855ZM5.17599 32.6876C4.79875 32.1725 4.44787 31.6432 4.12485 31.0973H13.7568C13.4345 31.6432 13.0829 32.1725 12.7056 32.6876V32.6032H5.17599V32.6876ZM6.29715 34.1092H11.5845C10.7524 35.088 9.85189 36.0134 8.94081 36.9049C8.02972 36.0134 7.12918 35.088 6.29715 34.1092ZM8.1758 39.7225C8.42729 39.4846 8.68329 39.2429 8.94081 38.9982C9.19907 39.2436 9.45433 39.4853 9.70582 39.7225C10.1245 40.1186 10.5333 40.5048 10.9279 40.8858H6.95298C7.34829 40.5048 7.75715 40.1186 8.1758 39.7225ZM4.16702 43.8977C4.53446 43.406 4.97043 42.9045 5.45308 42.3918H12.4293C12.9119 42.9045 13.3479 43.406 13.7154 43.8977H4.16702Z" fill="#F37A20"/>
<path d="M43.5783 41.6386H42.3638C44.1393 38.4242 45.0843 34.7919 45.0843 31.0972C45.0843 25.0185 42.5385 19.2199 38.0907 15.0922L40.135 13.0479L38.6284 11.5412L41.3292 8.8418L42.0852 9.59702L45.3937 6.25913L39.812 0.662354L36.5035 4.01982L37.2504 4.76676L34.5473 7.46086L33.0466 5.96021L22.5051 16.5017L20.9992 14.9958L17.6756 18.3194L27.7759 28.4196L31.0995 25.096L29.5935 23.5901L33.8177 19.366C35.99 21.3274 37.5908 23.8672 38.4123 26.6547C37.0629 26.9513 36.0487 28.1531 36.0487 29.5912C36.0487 31.2274 37.3619 32.5564 38.9883 32.5956C38.9288 33.225 38.8294 33.85 38.6954 34.4667C38.1066 34.2393 37.4695 34.109 36.8017 34.109H25.5072C23.4313 34.109 21.7424 35.7979 21.7424 37.8738V38.6268H31.5912C31.5558 38.8738 31.5309 39.1237 31.5309 39.3798V41.6386H20.9894C18.9135 41.6386 17.2246 43.3275 17.2246 45.4035V47.6624H47.3432V45.4035C47.3432 43.3275 45.6543 41.6386 43.5783 41.6386ZM39.818 2.80077L43.2689 6.26215L42.0792 7.46312L38.6253 4.01154L39.818 2.80077ZM38.3159 5.8307L40.2638 7.77711L37.5637 10.4757L35.6127 8.5248L38.3159 5.8307ZM27.7759 26.2895L19.805 18.3186L20.9992 17.1244L28.9701 25.0953L27.7759 26.2895ZM28.5289 22.5247L23.5698 17.5656L33.0466 8.08884L38.0057 13.0479L28.5289 22.5247ZM34.8839 18.2998L37.0261 16.1576C41.1922 20.003 43.5783 25.4183 43.5783 31.0972C43.5783 33.7672 43.0528 36.4025 42.0453 38.8482C41.8985 37.3889 41.1515 36.1066 40.059 35.2445C40.3037 34.2506 40.4603 33.2318 40.5258 32.2063C41.4437 31.6897 42.0724 30.7177 42.0724 29.5912C42.0724 28.26 41.199 27.1411 39.9995 26.7443C39.1584 23.5156 37.3649 20.5602 34.8839 18.2998ZM37.5546 29.5912C37.5546 28.7607 38.23 28.0853 39.0606 28.0853C39.8911 28.0853 40.5665 28.7607 40.5665 29.5912C40.5665 30.4217 39.8911 31.0972 39.0606 31.0972C38.23 31.0972 37.5546 30.4217 37.5546 29.5912ZM23.3771 37.1209C23.6881 36.2444 24.5253 35.6149 25.5072 35.6149H33.1197C32.6777 36.0471 32.3155 36.5569 32.0467 37.1209H23.3771ZM45.8372 46.1564H18.7305V45.4035C18.7305 44.1581 19.744 43.1446 20.9894 43.1446H34.5428V41.6386H33.0368V39.3798C33.0368 37.3038 34.7257 35.6149 36.8017 35.6149C38.8776 35.6149 40.5665 37.3038 40.5665 39.3798V41.6386H36.0487V43.1446H43.5783C44.8237 43.1446 45.8372 44.1581 45.8372 45.4035V46.1564Z" fill="#3F6587"/>
</svg>
