<svg width="250" height="250" viewBox="0 0 250 250" fill="none" xmlns="http://www.w3.org/2000/svg">
<g opacity="0.3">
<path d="M101.128 0.726562C45.6891 0.726562 0.396484 45.997 0.396484 101.835C0.396484 157.673 45.6891 202.944 101.128 202.944C156.566 202.944 202.297 157.673 202.297 101.835C202.297 45.997 157.452 0.726562 101.128 0.726562Z" fill="#90B9D5"/>
<path d="M243.736 216.409L185.515 158.223C178.205 169.063 168.851 178.415 158 185.721L216.221 243.907C223.818 251.5 236.138 251.5 243.736 243.907C251.323 236.339 251.323 223.992 243.736 216.409Z" fill="#F3F6F9"/>
</g>
<path d="M223.942 219.561L162.315 158.208C175.903 142.425 183.786 122.003 183.786 99.5859C183.786 49.766 143.226 9.39844 93.1972 9.39844C43.1685 9.39844 3 49.779 3 99.5859C3 149.393 43.5561 189.773 93.1972 189.773C115.705 189.773 136.249 181.553 152.08 168.029L213.707 229.382C215.449 230.705 217.235 231.398 219.02 231.398C220.806 231.398 222.586 230.721 223.946 229.366C226.685 226.672 226.685 222.25 223.942 219.561ZM93.5892 175.898C50.9513 175.898 16.9369 141.645 16.9369 99.5859C16.9369 57.5273 50.9513 23.2734 93.5892 23.2734C136.227 23.2734 170.241 57.1371 170.241 99.5859C170.241 142.035 135.835 175.898 93.5892 175.898Z" fill="white"/>
<g clip-path="url(#clip0_1944_9502)">
<path d="M94.5432 42.3516C127.373 42.3516 153.981 68.9434 153.981 101.754C153.981 134.564 127.373 161.156 94.5432 161.156C61.7131 161.156 35.1055 134.564 35.1055 101.754C35.1055 68.9434 61.7131 42.3516 94.5432 42.3516ZM94.5432 150.018C96.2613 150.018 100.603 148.348 105.595 138.788C107.638 134.68 109.194 129.692 110.703 124.03H78.3836C79.6838 129.692 81.4483 134.68 83.4915 138.788C88.2744 148.348 92.8251 150.018 94.5432 150.018ZM76.5494 112.892H112.537C112.909 109.342 113.118 105.606 113.118 101.754C113.118 97.902 112.909 94.1662 112.537 90.616H76.5494C76.1779 94.1662 75.9689 97.902 75.9689 101.754C75.9689 105.606 76.1779 109.342 76.5494 112.892ZM110.703 79.478C109.194 73.8162 107.638 68.8274 105.595 64.7319C100.603 55.1648 96.2613 53.4895 94.5432 53.4895C92.8251 53.4895 88.2744 55.1648 83.4915 64.7319C81.4483 68.8274 79.6838 73.8162 78.3836 79.478H110.703ZM123.751 90.616C124.076 94.2126 124.262 97.9484 124.262 101.754C124.262 105.559 124.076 109.295 123.751 112.892H141.536C142.395 109.318 142.836 105.583 142.836 101.754C142.836 97.9252 142.395 94.1894 141.536 90.616H123.751ZM114.534 57.8078C117.808 63.7596 120.408 71.1478 122.103 79.478H137.403C132.435 69.9412 124.355 62.2792 114.534 57.8078ZM74.5526 57.8078C64.7315 62.2792 56.6609 69.9412 51.69 79.478H66.9836C68.6785 71.1478 71.2789 63.7596 74.5526 57.8078ZM46.25 101.754C46.25 105.583 46.6982 109.318 47.5433 112.892H65.3351C65.0101 109.295 64.8243 105.559 64.8243 101.754C64.8243 97.9484 65.0101 94.2126 65.3351 90.616H47.5433C46.6982 94.1894 46.25 97.9252 46.25 101.754ZM137.403 124.03H122.103C120.408 132.36 117.808 139.739 114.534 145.702C124.355 141.224 132.435 133.567 137.403 124.03ZM66.9836 124.03H51.69C56.6609 133.567 64.7315 141.224 74.5526 145.702C71.2789 139.739 68.6785 132.36 66.9836 124.03Z" fill="white"/>
</g>
<defs>
<clipPath id="clip0_1944_9502">
<rect width="118.875" height="118.805" fill="white" transform="translate(35.1055 42.3516)"/>
</clipPath>
</defs>
</svg>
