<svg width="41" height="38" viewBox="0 0 41 38" fill="none" xmlns="http://www.w3.org/2000/svg">
<path d="M33.9433 4.83444C34.7065 4.83444 35.3252 4.21578 35.3252 3.45262C35.3252 2.68946 34.7065 2.0708 33.9433 2.0708C33.1802 2.0708 32.5615 2.68946 32.5615 3.45262C32.5615 4.21578 33.1802 4.83444 33.9433 4.83444Z" fill="black"/>
<path d="M11.144 33.1636C11.5256 33.1636 11.8349 32.8542 11.8349 32.4726C11.8349 32.0911 11.5256 31.7817 11.144 31.7817C10.7625 31.7817 10.4531 32.0911 10.4531 32.4726C10.4531 32.8542 10.7625 33.1636 11.144 33.1636Z" fill="black"/>
<path d="M36.7065 1.38231C37.0881 1.38231 37.3974 1.07298 37.3974 0.691397C37.3974 0.309819 37.0881 0.000488281 36.7065 0.000488281C36.325 0.000488281 36.0156 0.309819 36.0156 0.691397C36.0156 1.07298 36.325 1.38231 36.7065 1.38231Z" fill="black"/>
<path d="M2.16161 2.07371C2.54319 2.07371 2.85252 1.76438 2.85252 1.3828C2.85252 1.00123 2.54319 0.691895 2.16161 0.691895C1.78003 0.691895 1.4707 1.00123 1.4707 1.3828C1.4707 1.76438 1.78003 2.07371 2.16161 2.07371Z" fill="black"/>
<path d="M38.9739 33.8538C39.0707 33.9499 39.1939 34.0151 39.3277 34.0413C39.4616 34.0675 39.6002 34.0535 39.7261 34.001C39.8521 33.9486 39.9596 33.86 40.0353 33.7465C40.111 33.633 40.1513 33.4997 40.1513 33.3633C40.1513 33.2269 40.111 33.0935 40.0353 32.98C39.9596 32.8665 39.8521 32.778 39.7261 32.7255C39.6002 32.673 39.4616 32.659 39.3277 32.6852C39.1939 32.7114 39.0707 32.7767 38.9739 32.8727C38.9091 32.937 38.8577 33.0134 38.8227 33.0976C38.7876 33.1818 38.7695 33.2721 38.7695 33.3633C38.7695 33.4545 38.7876 33.5448 38.8227 33.629C38.8577 33.7132 38.9091 33.7896 38.9739 33.8538Z" fill="black"/>
<path d="M9.86453 15.5308C9.69772 15.4833 9.51914 15.5003 9.36426 15.5784C9.20939 15.6564 9.08954 15.7899 9.02853 15.9523C8.97961 16.0824 8.97112 16.2244 9.00415 16.3594C9.03719 16.4945 9.11022 16.6165 9.21369 16.7094C9.31716 16.8023 9.44626 16.8618 9.58411 16.8802C9.72195 16.8985 9.86213 16.8748 9.98631 16.8122C10.1105 16.7496 10.2129 16.651 10.2801 16.5293C10.3473 16.4076 10.3763 16.2684 10.3631 16.1299C10.3499 15.9915 10.2953 15.8603 10.2064 15.7534C10.1174 15.6465 9.99827 15.5689 9.86453 15.5308Z" fill="black"/>
<path d="M11.2884 11.9195C11.2099 11.8735 11.1232 11.8435 11.0331 11.8311C10.943 11.8188 10.8514 11.8243 10.7634 11.8474C10.6755 11.8705 10.593 11.9107 10.5206 11.9658C10.4483 12.0209 10.3875 12.0897 10.3418 12.1682C10.1829 12.4377 10.0447 12.7072 9.91344 12.9835C9.7477 13.3397 9.60012 13.704 9.47126 14.0752C9.44199 14.1613 9.43005 14.2525 9.4361 14.3433C9.44216 14.4341 9.46609 14.5228 9.50654 14.6043C9.54699 14.6859 9.60314 14.7586 9.67179 14.8184C9.74043 14.8781 9.82021 14.9238 9.90653 14.9526C9.97819 14.9747 10.0527 14.9863 10.1276 14.9872C10.2725 14.9875 10.4138 14.9424 10.5315 14.8581C10.6493 14.7738 10.7376 14.6546 10.784 14.5173C10.8836 14.1968 11.0036 13.8829 11.1433 13.5777C11.2547 13.3407 11.3793 13.11 11.5164 12.8868C11.5665 12.8088 11.6004 12.7215 11.6161 12.6301C11.6317 12.5387 11.6289 12.445 11.6076 12.3548C11.5863 12.2645 11.5471 12.1795 11.4922 12.1047C11.4374 12.0299 11.368 11.9669 11.2884 11.9195Z" fill="black"/>
<path d="M26.7235 19.1115C26.8622 18.4998 26.9225 17.873 26.9031 17.2461C26.9031 17.0628 26.8303 16.8871 26.7007 16.7575C26.5712 16.628 26.3954 16.5552 26.2122 16.5552C26.0289 16.5552 25.8532 16.628 25.7236 16.7575C25.5941 16.8871 25.5213 17.0628 25.5213 17.2461C25.5354 17.7545 25.4867 18.2627 25.3762 18.7592C25.3557 18.8476 25.3529 18.9393 25.3678 19.0288C25.3828 19.1184 25.4153 19.2041 25.4634 19.2811C25.5115 19.3581 25.5744 19.4249 25.6483 19.4776C25.7223 19.5303 25.8059 19.5679 25.8944 19.5883H26.0464C26.1956 19.5926 26.3422 19.5485 26.4642 19.4626C26.5863 19.3766 26.6772 19.2535 26.7235 19.1115Z" fill="black"/>
<path d="M23.5798 21.8387C22.6508 22.6882 21.4749 23.2191 20.2233 23.3541C18.9717 23.4891 17.7096 23.2212 16.6208 22.5894C15.5319 21.9575 14.6731 20.9948 14.1692 19.8411C13.6654 18.6875 13.5428 17.4032 13.8193 16.175C14.0958 14.9469 14.7569 13.839 15.7066 13.0126C16.6562 12.1862 17.8447 11.6844 19.0993 11.5801C20.3538 11.4759 21.6089 11.7747 22.6819 12.433C23.7549 13.0914 24.5899 14.0749 25.0653 15.2406C25.1275 15.3995 25.1897 15.5653 25.238 15.7242C25.2626 15.8134 25.3048 15.8968 25.3622 15.9693C25.4196 16.0419 25.491 16.1022 25.5722 16.1467C25.6533 16.1911 25.7425 16.2188 25.8346 16.2281C25.9267 16.2374 26.0196 16.2282 26.108 16.2009C26.1964 16.1736 26.2785 16.1288 26.3492 16.0692C26.42 16.0096 26.4781 15.9363 26.52 15.8539C26.5619 15.7714 26.5869 15.6813 26.5933 15.589C26.5998 15.4967 26.5877 15.4041 26.5577 15.3166C26.4955 15.1162 26.4264 14.9158 26.3435 14.7155C25.756 13.2782 24.7252 12.0659 23.4012 11.2548C22.0772 10.4437 20.5289 10.0761 18.9816 10.2056C17.4343 10.3351 15.9686 10.9548 14.7978 11.9746C13.627 12.9945 12.812 14.3613 12.4715 15.8762C12.131 17.3911 12.2827 18.9752 12.9045 20.3979C13.5263 21.8207 14.5858 23.008 15.9289 23.7872C17.272 24.5663 18.8286 24.8966 20.3724 24.7301C21.9161 24.5636 23.3665 23.9089 24.5126 22.8613C24.6482 22.7376 24.7291 22.5651 24.7375 22.3818C24.7459 22.1984 24.6812 22.0193 24.5575 21.8837C24.4338 21.7481 24.2613 21.6672 24.078 21.6587C23.8946 21.6503 23.7154 21.7151 23.5798 21.8387Z" fill="black"/>
<path d="M38.7798 34.5445C38.7155 34.4798 38.6391 34.4284 38.5549 34.3933C38.4707 34.3582 38.3804 34.3402 38.2892 34.3402C38.198 34.3402 38.1077 34.3582 38.0235 34.3933C37.9393 34.4284 37.8629 34.4798 37.7987 34.5445L35.9263 36.41C35.8071 36.529 35.6456 36.5958 35.4772 36.5958C35.3088 36.5958 35.1473 36.529 35.0281 36.41L28.4161 29.8878C28.2979 29.7709 28.2309 29.6119 28.2296 29.4456C28.2401 29.2855 28.3061 29.134 28.4161 29.0173L31.2281 26.2536C31.3473 26.1346 31.5088 26.0678 31.6772 26.0678C31.8456 26.0678 32.0071 26.1346 32.1263 26.2536L34.9314 29.0173C34.9956 29.082 35.0721 29.1334 35.1562 29.1685C35.2404 29.2036 35.3307 29.2216 35.422 29.2216C35.5132 29.2216 35.6035 29.2036 35.6877 29.1685C35.7719 29.1334 35.8483 29.082 35.9125 29.0173C36.0412 28.8878 36.1134 28.7127 36.1134 28.5302C36.1134 28.3476 36.0412 28.1725 35.9125 28.0431L33.1212 25.2173C32.744 24.8472 32.2367 24.6399 31.7083 24.6399C31.1799 24.6399 30.6726 24.8472 30.2954 25.2173L28.4161 23.3449C28.8287 22.7407 29.1761 22.0946 29.4525 21.4173C29.9751 20.1278 30.2363 18.7473 30.2209 17.3561C30.2055 15.9648 29.9138 14.5905 29.3627 13.3129C28.6207 11.5975 27.4403 10.1077 25.9401 8.99313C24.4399 7.87856 22.6727 7.17854 20.8161 6.96343V5.52634C20.8163 4.98606 20.6056 4.46706 20.2287 4.0799C19.8519 3.69274 19.3388 3.46802 18.7987 3.45361H4.86996C4.32987 3.46802 3.81676 3.69274 3.43992 4.0799C3.06308 4.46706 2.85231 4.98606 2.8525 5.52634V8.98089H2.16159C1.89344 8.97446 1.62669 9.0214 1.37684 9.11896C1.12698 9.21651 0.899005 9.36275 0.706153 9.54918C0.513301 9.7356 0.35942 9.95849 0.253451 10.2049C0.147481 10.4513 0.0915367 10.7163 0.0888672 10.9845V21.4863C0.0915367 21.7546 0.147481 22.0196 0.253451 22.266C0.35942 22.5124 0.513301 22.7353 0.706153 22.9217C0.899005 23.1081 1.12698 23.2544 1.37684 23.3519C1.62669 23.4495 1.89344 23.4964 2.16159 23.49H4.23432V26.9445C4.23417 27.486 4.4459 28.006 4.82421 28.3933C5.20252 28.7807 5.71739 29.0046 6.25869 29.0173H13.5823C13.7656 29.0173 13.9413 28.9445 14.0709 28.8149C14.2004 28.6853 14.2732 28.5096 14.2732 28.3263C14.2732 28.1431 14.2004 27.9674 14.0709 27.8378C13.9413 27.7082 13.7656 27.6354 13.5823 27.6354H6.25869C6.08395 27.6232 5.9204 27.545 5.80111 27.4167C5.68183 27.2885 5.61571 27.1197 5.61614 26.9445V23.49H10.791C11.7766 24.908 13.0906 26.0665 14.6209 26.8666C16.1513 27.6667 17.8525 28.0845 19.5794 28.0845C21.7269 28.0851 23.8262 27.4479 25.611 26.2536L27.442 28.0776C27.0686 28.4531 26.859 28.961 26.859 29.4905C26.859 30.02 27.0686 30.528 27.442 30.9034L33.2525 36.6173C33.0693 36.6173 32.8935 36.69 32.764 36.8196C32.6344 36.9492 32.5616 37.1249 32.5616 37.3082C32.5616 37.4914 32.6344 37.6671 32.764 37.7967C32.8935 37.9263 33.0693 37.9991 33.2525 37.9991H35.4427C35.9759 37.9984 36.4874 37.7874 36.866 37.4118L38.7383 35.5394C38.8079 35.4778 38.8644 35.4028 38.9044 35.3188C38.9443 35.2349 38.9669 35.1437 38.9707 35.0508C38.9746 34.9579 38.9597 34.8652 38.9269 34.7782C38.8941 34.6912 38.844 34.6117 38.7798 34.5445ZM23.1998 25.9634C21.8303 26.5514 20.3393 26.8003 18.8531 26.6891C17.3669 26.5779 15.9295 26.1098 14.6628 25.3246C13.3961 24.5394 12.3376 23.4602 11.5769 22.1785C10.8163 20.8969 10.3761 19.4507 10.2936 17.9627C10.2844 17.7795 10.2029 17.6074 10.0668 17.4843C9.93076 17.3612 9.75138 17.2972 9.56814 17.3063C9.3849 17.3155 9.2128 17.3971 9.08971 17.5331C8.96662 17.6692 8.90261 17.8486 8.91178 18.0318C8.97949 19.2748 9.26722 20.4959 9.76159 21.6383C9.83069 21.7973 9.90668 21.9562 9.98269 22.1082H2.16159C2.07496 22.1147 1.98788 22.1037 1.90564 22.0756C1.8234 22.0476 1.7477 22.0032 1.68311 21.9451C1.61853 21.8869 1.56641 21.8163 1.52989 21.7375C1.49338 21.6586 1.47324 21.5732 1.47069 21.4863V10.9845C1.47324 10.8977 1.49338 10.8122 1.52989 10.7334C1.56641 10.6546 1.61853 10.5839 1.68311 10.5258C1.7477 10.4677 1.8234 10.4233 1.90564 10.3952C1.98788 10.3672 2.07496 10.3561 2.16159 10.3627H10.9638C11.147 10.3627 11.3228 10.2899 11.4523 10.1603C11.5819 10.0308 11.6547 9.85504 11.6547 9.6718C11.6547 9.48855 11.5819 9.31282 11.4523 9.18325C11.3228 9.05368 11.147 8.98089 10.9638 8.98089H4.23432V5.52634C4.23376 5.35229 4.29892 5.18443 4.41677 5.05634C4.53461 4.92825 4.69646 4.84936 4.86996 4.83543H18.7987C18.9722 4.84936 19.134 4.92825 19.2519 5.05634C19.3697 5.18443 19.4349 5.35229 19.4343 5.52634V6.90816C18.0426 6.92127 16.6669 7.20766 15.3856 7.75107C14.0449 8.31413 12.8356 9.14932 11.8343 10.2038C11.7056 10.3332 11.6334 10.5084 11.6334 10.6909C11.6334 10.8734 11.7056 11.0485 11.8343 11.178C11.8986 11.2427 11.975 11.2941 12.0592 11.3292C12.1434 11.3643 12.2337 11.3823 12.3249 11.3823C12.4161 11.3823 12.5064 11.3643 12.5906 11.3292C12.6748 11.2941 12.7512 11.2427 12.8154 11.178C13.6874 10.2371 14.7464 9.48872 15.9245 8.98089C18.1862 8.02577 20.7334 8.0016 23.0128 8.91362C25.2922 9.82564 27.1197 11.6002 28.0983 13.8518C28.5746 14.9673 28.8256 16.166 28.837 17.3789C28.8484 18.5918 28.6199 19.795 28.1647 20.9193C27.7095 22.0436 27.0365 23.0668 26.1844 23.9301C25.3323 24.7934 24.318 25.4797 23.1998 25.9496V25.9634ZM27.587 24.4503L29.3143 26.1707L28.4161 27.0689L26.6958 25.3485C27.0116 25.0684 27.3093 24.7684 27.587 24.4503Z" fill="black"/>
<path d="M36.8245 29.8873C36.7597 29.9515 36.7083 30.028 36.6733 30.1122C36.6382 30.1963 36.6201 30.2867 36.6201 30.3779C36.6201 30.4691 36.6382 30.5594 36.6733 30.6436C36.7083 30.7278 36.7597 30.8042 36.8245 30.8684L37.7641 31.7804C37.8287 31.8444 37.9052 31.8951 37.9894 31.9295C38.0736 31.9639 38.1637 31.9813 38.2547 31.9808C38.3899 31.9789 38.5216 31.9373 38.6334 31.8613C38.7453 31.7852 38.8323 31.678 38.8838 31.553C38.9353 31.4279 38.949 31.2905 38.9231 31.1578C38.8972 31.025 38.833 30.9028 38.7383 30.8062L37.8056 29.8666C37.74 29.8032 37.6625 29.7534 37.5776 29.7201C37.4926 29.6867 37.4019 29.6706 37.3107 29.6725C37.2195 29.6744 37.1296 29.6944 37.0461 29.7313C36.9627 29.7682 36.8873 29.8212 36.8245 29.8873Z" fill="black"/>
<path d="M22.6883 3.94356C22.7843 3.84671 22.8496 3.7236 22.8758 3.58973C22.902 3.45586 22.888 3.31723 22.8355 3.19131C22.7831 3.0654 22.6945 2.95783 22.581 2.88216C22.4675 2.80649 22.3342 2.76611 22.1977 2.76611C22.0613 2.76611 21.928 2.80649 21.8145 2.88216C21.701 2.95783 21.6124 3.0654 21.56 3.19131C21.5075 3.31723 21.4935 3.45586 21.5197 3.58973C21.5459 3.7236 21.6111 3.84671 21.7072 3.94356C21.7714 4.00832 21.8478 4.05972 21.932 4.0948C22.0162 4.12987 22.1065 4.14793 22.1977 4.14793C22.289 4.14793 22.3793 4.12987 22.4635 4.0948C22.5476 4.05972 22.6241 4.00832 22.6883 3.94356Z" fill="black"/>
<path d="M24.8996 30.5955C24.8035 30.6923 24.7383 30.8154 24.7121 30.9493C24.6859 31.0832 24.6999 31.2218 24.7524 31.3477C24.8048 31.4736 24.8934 31.5812 25.0069 31.6569C25.1204 31.7326 25.2537 31.7729 25.3901 31.7729C25.5265 31.7729 25.6599 31.7326 25.7734 31.6569C25.8869 31.5812 25.9754 31.4736 26.0279 31.3477C26.0804 31.2218 26.0944 31.0832 26.0682 30.9493C26.042 30.8154 25.9767 30.6923 25.8807 30.5955C25.8164 30.5307 25.74 30.4793 25.6558 30.4442C25.5716 30.4092 25.4813 30.3911 25.3901 30.3911C25.2989 30.3911 25.2086 30.4092 25.1244 30.4442C25.0402 30.4793 24.9638 30.5307 24.8996 30.5955Z" fill="black"/>
<path d="M25.3898 21.3445C25.7523 21.3445 26.0461 21.0506 26.0461 20.6881C26.0461 20.3256 25.7523 20.0317 25.3898 20.0317C25.0273 20.0317 24.7334 20.3256 24.7334 20.6881C24.7334 21.0506 25.0273 21.3445 25.3898 21.3445Z" fill="black"/>
<path d="M22.2746 31.2517C22.1785 31.3486 22.1133 31.4717 22.0871 31.6056C22.0609 31.7394 22.0749 31.8781 22.1274 32.004C22.1798 32.1299 22.2684 32.2375 22.3819 32.3131C22.4954 32.3888 22.6287 32.4292 22.7651 32.4292C22.9015 32.4292 23.0349 32.3888 23.1484 32.3131C23.2619 32.2375 23.3504 32.1299 23.4029 32.004C23.4554 31.8781 23.4694 31.7394 23.4432 31.6056C23.417 31.4717 23.3517 31.3486 23.2557 31.2517C23.1914 31.187 23.115 31.1356 23.0308 31.1005C22.9466 31.0654 22.8563 31.0474 22.7651 31.0474C22.6739 31.0474 22.5836 31.0654 22.4994 31.1005C22.4152 31.1356 22.3388 31.187 22.2746 31.2517Z" fill="black"/>
<path d="M19.655 31.3459C19.558 31.4424 19.4917 31.5655 19.4648 31.6996C19.4378 31.8338 19.4512 31.9729 19.5034 32.0994C19.5555 32.2259 19.6441 32.334 19.7578 32.4101C19.8715 32.4862 20.0053 32.5268 20.1421 32.5268C20.2789 32.5268 20.4126 32.4862 20.5264 32.4101C20.6401 32.334 20.7286 32.2259 20.7808 32.0994C20.833 31.9729 20.8464 31.8338 20.8194 31.6996C20.7924 31.5655 20.7262 31.4424 20.6292 31.3459C20.4997 31.2172 20.3246 31.145 20.1421 31.145C19.9596 31.145 19.7844 31.2172 19.655 31.3459Z" fill="black"/>
<path d="M33.8534 18.4694C33.8553 19.7879 33.681 21.1007 33.3353 22.373C33.2593 22.6425 33.1764 22.9189 33.0865 23.1814C33.0573 23.2676 33.0453 23.3587 33.0514 23.4495C33.0574 23.5403 33.0814 23.6291 33.1218 23.7106C33.1623 23.7921 33.2184 23.8649 33.2871 23.9246C33.3557 23.9844 33.4355 24.03 33.5218 24.0589C33.5952 24.0683 33.6695 24.0683 33.7429 24.0589C33.8877 24.0592 34.029 24.0141 34.1468 23.9298C34.2646 23.8455 34.3529 23.7263 34.3993 23.589C34.496 23.2989 34.5858 23.0018 34.6687 22.6978C35.0479 21.3086 35.2385 19.8748 35.2353 18.4349C35.2439 15.9469 34.6683 13.4916 33.5546 11.2667C32.441 9.04184 30.8205 7.10954 28.8236 5.6254C28.6752 5.51729 28.4899 5.47257 28.3085 5.50107C28.1271 5.52958 27.9645 5.62898 27.8564 5.7774C27.7482 5.92583 27.7035 6.11112 27.732 6.29252C27.7605 6.47392 27.8599 6.63656 28.0084 6.74467C29.8339 8.10364 31.3142 9.87299 32.3296 11.9098C33.345 13.9465 33.867 16.1936 33.8534 18.4694Z" fill="black"/>
<path d="M24.5057 4.835C25.1499 5.05811 25.7759 5.33068 26.3781 5.65027C26.5402 5.73731 26.7303 5.75636 26.9066 5.70324C26.9938 5.67694 27.075 5.6337 27.1456 5.57601C27.2161 5.51832 27.2746 5.4473 27.3177 5.367C27.3608 5.2867 27.3877 5.1987 27.3968 5.10802C27.4058 5.01735 27.397 4.92577 27.3707 4.83851C27.3444 4.75126 27.3011 4.67004 27.2435 4.5995C27.1858 4.52895 27.1147 4.47046 27.0344 4.42736C26.3663 4.07594 25.6736 3.77345 24.9617 3.52227C24.7885 3.46285 24.5989 3.47458 24.4344 3.5549C24.2698 3.63522 24.1439 3.77755 24.0843 3.95063C24.0536 4.03636 24.0402 4.12729 24.0448 4.21821C24.0494 4.30913 24.072 4.39824 24.1111 4.48043C24.1503 4.56261 24.2053 4.63624 24.273 4.69709C24.3408 4.75794 24.4198 4.80481 24.5057 4.835Z" fill="black"/>
<path d="M17.4864 30.6085C16.8422 30.3854 16.2162 30.1128 15.6141 29.7932C15.5338 29.743 15.444 29.7098 15.3503 29.6957C15.2567 29.6816 15.1611 29.6869 15.0696 29.7113C14.978 29.7357 14.8925 29.7787 14.8183 29.8375C14.7441 29.8964 14.6827 29.9699 14.6381 30.0534C14.5935 30.137 14.5665 30.2288 14.5589 30.3232C14.5513 30.4176 14.5631 30.5126 14.5937 30.6022C14.6244 30.6919 14.6731 30.7743 14.7369 30.8443C14.8007 30.9143 14.8782 30.9704 14.9646 31.0092C15.6315 31.3631 16.3244 31.6657 17.0373 31.9143C17.1109 31.9385 17.1879 31.9502 17.2653 31.9488C17.4272 31.9471 17.5832 31.8885 17.7063 31.7834C17.8294 31.6784 17.9117 31.5334 17.9389 31.3738C17.966 31.2143 17.9363 31.0503 17.8548 30.9104C17.7734 30.7705 17.6455 30.6637 17.4933 30.6085H17.4864Z" fill="black"/>
<path d="M7.6889 15.1997H3.54345C3.36021 15.1997 3.18447 15.2725 3.0549 15.4021C2.92533 15.5316 2.85254 15.7074 2.85254 15.8906C2.85254 16.0739 2.92533 16.2496 3.0549 16.3792C3.18447 16.5087 3.36021 16.5815 3.54345 16.5815H7.6889C7.87214 16.5815 8.04788 16.5087 8.17745 16.3792C8.30702 16.2496 8.37981 16.0739 8.37981 15.8906C8.37981 15.7074 8.30702 15.5316 8.17745 15.4021C8.04788 15.2725 7.87214 15.1997 7.6889 15.1997Z" fill="black"/>
<path d="M8.37984 12.438H5.75439C5.57115 12.438 5.39541 12.5108 5.26584 12.6404C5.13627 12.7699 5.06348 12.9457 5.06348 13.1289C5.06348 13.3121 5.13627 13.4879 5.26584 13.6174C5.39541 13.747 5.57115 13.8198 5.75439 13.8198H8.37984C8.56308 13.8198 8.73882 13.747 8.86839 13.6174C8.99796 13.4879 9.07075 13.3121 9.07075 13.1289C9.07075 12.9457 8.99796 12.7699 8.86839 12.6404C8.73882 12.5108 8.56308 12.438 8.37984 12.438Z" fill="black"/>
<path d="M7.6889 18.6567H3.54345C3.36021 18.6567 3.18447 18.7295 3.0549 18.8591C2.92533 18.9887 2.85254 19.1644 2.85254 19.3476C2.85254 19.5309 2.92533 19.7066 3.0549 19.8362C3.18447 19.9658 3.36021 20.0386 3.54345 20.0386H7.6889C7.87214 20.0386 8.04788 19.9658 8.17745 19.8362C8.30702 19.7066 8.37981 19.5309 8.37981 19.3476C8.37981 19.1644 8.30702 18.9887 8.17745 18.8591C8.04788 18.7295 7.87214 18.6567 7.6889 18.6567Z" fill="black"/>
<path d="M3.54345 13.8198C3.92503 13.8198 4.23436 13.5105 4.23436 13.1289C4.23436 12.7473 3.92503 12.438 3.54345 12.438C3.16187 12.438 2.85254 12.7473 2.85254 13.1289C2.85254 13.5105 3.16187 13.8198 3.54345 13.8198Z" fill="black"/>
<path d="M6.36919 6.26101C6.22884 6.24855 6.08803 6.2793 5.96564 6.34914C5.84326 6.41898 5.74516 6.52457 5.6845 6.65175C5.62383 6.77893 5.60351 6.92162 5.62624 7.06069C5.64898 7.19975 5.71369 7.32853 5.81169 7.42977C5.9097 7.53101 6.03632 7.59986 6.17457 7.62709C6.31282 7.65433 6.4561 7.63864 6.58518 7.58213C6.71426 7.52562 6.82297 7.43099 6.89675 7.31094C6.97052 7.19089 7.00582 7.05115 6.99792 6.91046C6.9963 6.74226 6.93016 6.58111 6.81317 6.46026C6.69617 6.33941 6.53725 6.26808 6.36919 6.26101Z" fill="black"/>
<path d="M13.6168 6.91015C13.6168 6.72691 13.544 6.55117 13.4144 6.4216C13.2849 6.29203 13.1091 6.21924 12.9259 6.21924H8.99462C8.81138 6.21924 8.63564 6.29203 8.50607 6.4216C8.3765 6.55117 8.30371 6.72691 8.30371 6.91015C8.30371 7.09339 8.3765 7.26912 8.50607 7.39869C8.63564 7.52826 8.81138 7.60106 8.99462 7.60106H12.9259C13.1091 7.60106 13.2849 7.52826 13.4144 7.39869C13.544 7.26912 13.6168 7.09339 13.6168 6.91015Z" fill="black"/>
<path d="M7.68896 24.8755C7.50572 24.8755 7.32998 24.9483 7.20041 25.0779C7.07084 25.2074 6.99805 25.3832 6.99805 25.5664C6.99805 25.7496 7.07084 25.9254 7.20041 26.0549C7.32998 26.1845 7.50572 26.2573 7.68896 26.2573H9.88605C10.0693 26.2573 10.245 26.1845 10.3746 26.0549C10.5042 25.9254 10.577 25.7496 10.577 25.5664C10.577 25.3832 10.5042 25.2074 10.3746 25.0779C10.245 24.9483 10.0693 24.8755 9.88605 24.8755H7.68896Z" fill="black"/>
<path d="M39.4707 36.6177H38.7798C38.5965 36.6177 38.4208 36.6905 38.2912 36.82C38.1617 36.9496 38.0889 37.1253 38.0889 37.3086C38.0889 37.4918 38.1617 37.6676 38.2912 37.7971C38.4208 37.9267 38.5965 37.9995 38.7798 37.9995H39.4707C39.6539 37.9995 39.8297 37.9267 39.9592 37.7971C40.0888 37.6676 40.1616 37.4918 40.1616 37.3086C40.1616 37.1253 40.0888 36.9496 39.9592 36.82C39.8297 36.6905 39.6539 36.6177 39.4707 36.6177Z" fill="black"/>
</svg>
