<svg width="31" height="32" viewBox="0 0 31 32" fill="none" xmlns="http://www.w3.org/2000/svg">
<path d="M19.8291 5.65799L23.25 4.375L24.5336 0.953557C24.6365 0.680732 24.8969 0.5 25.1875 0.5C25.4781 0.5 25.7385 0.680732 25.8414 0.953557L27.125 4.375L30.5459 5.65799C30.8184 5.76031 31 6.02127 31 6.3125C31 6.60313 30.8184 6.86348 30.5459 6.96641L27.125 8.25L25.8414 11.6709C25.7385 11.9434 25.4781 12.125 25.1875 12.125C24.8969 12.125 24.6365 11.9434 24.5336 11.6709L23.25 8.25L19.8291 6.96641C19.5021 6.86348 19.375 6.60313 19.375 6.3125C19.375 6.02127 19.5021 5.76031 19.8291 5.65799ZM10.6562 4.93748C10.8137 4.59479 11.1588 4.375 11.5402 4.375C11.9156 4.375 12.2607 4.59479 12.4182 4.93748L15.609 11.8404L22.5113 15.0312C22.8564 15.1887 23.0744 15.5338 23.0744 15.9152C23.0744 16.2906 22.8564 16.6357 22.5113 16.7932L15.609 19.984L12.4182 26.8863C12.2607 27.2314 11.9156 27.4494 11.5402 27.4494C11.1588 27.4494 10.8137 27.2314 10.6562 26.8863L7.46543 19.984L0.562602 16.7932C0.219604 16.6357 0 16.2906 0 15.9152C0 15.5338 0.219604 15.1887 0.562602 15.0312L7.46543 11.8404L10.6562 4.93748ZM10.1053 13.0635C9.81465 13.6871 9.31211 14.1896 8.68848 14.4803L5.58969 15.9152L8.68848 17.3441C9.31211 17.5803 9.81465 18.1373 10.1053 18.7609L11.5402 21.8609L12.9691 18.7609C13.2053 18.1373 13.7623 17.5803 14.3859 17.3441L17.4859 15.9152L14.3859 14.4803C13.7623 14.1896 13.2053 13.6871 12.9691 13.0635L11.5402 9.96348L10.1053 13.0635ZM24.5336 20.3291C24.6365 20.0021 24.8969 19.875 25.1875 19.875C25.4781 19.875 25.7385 20.0021 25.8414 20.3291L27.125 23.75L30.5459 25.0336C30.8184 25.1365 31 25.3969 31 25.6875C31 25.9781 30.8184 26.2385 30.5459 26.3414L27.125 27.625L25.8414 31.0459C25.7385 31.3184 25.4781 31.5 25.1875 31.5C24.8969 31.5 24.6365 31.3184 24.5336 31.0459L23.25 27.625L19.8291 26.3414C19.5021 26.2385 19.375 25.9781 19.375 25.6875C19.375 25.3969 19.5021 25.1365 19.8291 25.0336L23.25 23.75L24.5336 20.3291Z" fill="white"/>
</svg>
