<svg width="133" height="138" viewBox="0 0 133 138" fill="none" xmlns="http://www.w3.org/2000/svg">
<path d="M59.8926 11.5374C59.8926 6.91278 63.5914 3.16235 68.1697 3.16235C72.748 3.16235 76.4468 6.91278 76.4468 11.5374V19.9124H59.8926V11.5374ZM76.4468 53.4124V61.7874H59.8926V53.4124H76.4468ZM68.1697 137.162C63.5914 137.162 59.8926 133.42 59.8926 128.787V95.2874H76.4468V128.787C76.4468 133.42 72.748 137.162 68.1697 137.162Z" fill="#F3F6F9"/>
<path d="M116.126 19.9124C117.212 19.9124 118.273 20.3547 119.049 21.1398L131.464 33.7049C133.068 35.3276 133.068 37.9971 131.464 39.6198L119.049 52.1823C118.273 52.9674 117.212 53.4124 116.126 53.4124H18.2745C13.9368 53.4124 9.99738 49.6698 9.99738 45.0374V28.2874C9.99738 23.6628 13.9368 19.9124 18.2745 19.9124H116.126ZM117.833 61.7874C122.411 61.7874 126.11 65.5299 126.11 70.1624V86.9124C126.11 91.5448 122.411 95.2874 117.833 95.2874H20.2222C19.1229 95.2874 18.0702 94.8424 17.2942 94.0573L4.87849 81.4948C3.26316 79.8721 3.26316 77.2026 4.87849 75.5799L17.2942 63.0174C18.0702 62.2323 19.1229 61.5518 20.2222 61.5518L117.833 61.7874Z" fill="#F3F6F9"/>
<path d="M60.617 2.30359C60.617 1.18797 61.5144 0.283447 62.6112 0.283447C63.7081 0.283447 64.6055 1.18797 64.6055 2.30359V12.4043H108.679C109.826 12.4043 110.897 12.8967 111.67 13.7603L124.085 27.9089C125.406 29.424 125.406 31.7472 124.085 33.2623L111.67 47.4033C110.897 48.2618 109.826 48.7668 108.679 48.7668H64.6055V60.8877H110.474C114.886 60.8877 118.451 64.4987 118.451 68.9683V89.1697C118.451 93.6392 114.886 97.2502 110.474 97.2502H64.6055V127.552C64.6055 128.663 63.7081 129.573 62.6112 129.573C61.5144 129.573 60.617 128.663 60.617 127.552V97.2502H16.5411C15.4019 97.2502 14.315 96.7452 13.5597 95.8867L1.15012 81.7457C-0.193269 80.2306 -0.193269 77.9074 1.15012 76.3923L13.5597 62.2513C14.315 61.1655 15.4019 60.8877 16.5411 60.8877H60.617V48.7668H14.7488C10.3439 48.7668 6.77171 45.1558 6.77171 40.6863V20.4849C6.77171 16.0229 10.3439 12.4043 14.7488 12.4043H60.617V2.30359ZM108.679 16.4446H14.7488C12.5451 16.4446 10.7603 18.2526 10.7603 20.4849V40.6863C10.7603 42.9084 12.5451 44.7266 14.7488 44.7266H108.679L121.093 30.5856L108.679 16.4446ZM4.1318 79.069L16.5411 93.21H110.474C112.667 93.21 114.462 91.3918 114.462 89.1697V68.9683C114.462 66.7461 112.667 64.928 110.474 64.928H16.5411L4.1318 79.069Z" fill="white"/>
</svg>
