<svg width="425" height="294" viewBox="0 0 425 294" fill="none" xmlns="http://www.w3.org/2000/svg">
<path d="M292.084 63.1383L293.603 61.6213L313.396 81.4413C320.399 88.4533 320.399 99.8371 313.386 106.851L292.084 63.1383ZM292.084 63.1383L293.603 61.6213C290.097 58.1102 285.495 56.3537 280.896 56.3537C276.297 56.3537 271.697 58.1102 268.19 61.6212L268.19 61.6212L156.588 173.364C156.587 173.364 156.587 173.364 156.587 173.364C155.555 174.398 154.851 175.712 154.561 177.143C154.56 177.147 154.559 177.15 154.559 177.154L145.965 217.831C145.214 220.913 145.161 223.356 145.768 225.26C146.413 227.282 147.742 228.5 149.235 229.114C150.629 229.687 152.053 229.694 153.018 229.606C153.518 229.561 153.945 229.485 154.251 229.419C154.405 229.386 154.531 229.355 154.624 229.331C154.645 229.325 154.664 229.32 154.682 229.315L197.982 220.646L197.985 220.645C199.419 220.356 200.736 219.652 201.772 218.616L201.773 218.615L313.385 106.852L292.084 63.1383Z" fill="#3F6587" stroke="#3F6587" stroke-width="4.29366"/>
<path opacity="0.5" d="M305.629 155.211C309.21 151.598 315.032 151.597 318.613 155.209L322.807 159.422C326.426 163.061 326.388 168.968 322.749 172.565L315.127 180.078L298.026 162.863L305.629 155.211ZM310.742 184.393L282.935 211.768C281.614 213.078 280.005 214.061 278.243 214.658L264.55 219.262C262.731 219.821 261.084 219.378 259.839 218.145C258.614 216.912 258.192 215.082 258.729 213.406L263.287 199.67C263.88 197.859 264.895 196.202 266.255 194.854L293.679 167.223L310.742 184.393Z" fill="#333333"/>
<path opacity="0.3" d="M279.154 229.321C281.559 226.894 285.469 226.893 287.874 229.32L290.691 232.149C293.122 234.594 293.096 238.561 290.653 240.976L285.533 246.023L274.047 234.46L279.154 229.321ZM282.588 248.921L263.912 267.307C263.024 268.187 261.944 268.847 260.76 269.248L251.564 272.34C250.342 272.716 249.236 272.418 248.4 271.59C247.576 270.762 247.293 269.533 247.654 268.407L250.715 259.181C251.114 257.965 251.795 256.852 252.709 255.947L271.127 237.388L282.588 248.921Z" fill="#333333"/>
<path d="M194.554 236.756L194.552 236.758C193.071 238.231 191.191 239.229 189.15 239.639L189.144 239.64L139.244 249.58C139.24 249.581 139.235 249.583 139.23 249.584C139.096 249.619 138.921 249.661 138.711 249.706C138.296 249.795 137.723 249.896 137.049 249.957C135.779 250.072 133.768 250.081 131.735 249.249C129.496 248.333 127.507 246.495 126.565 243.556C125.704 240.871 125.841 237.651 126.746 233.942L136.65 187.298C136.652 187.29 136.654 187.282 136.655 187.274C137.072 185.237 138.08 183.368 139.554 181.9L268.326 53.6277L268.326 53.6275C272.771 49.2002 278.601 46.9884 284.419 46.9884C290.236 46.9884 296.067 49.2 300.512 53.6278L323.35 76.3797C332.235 85.2303 332.235 99.6058 323.339 108.458L323.337 108.461M194.554 236.756L323.337 108.461M194.554 236.756L323.337 108.461M194.554 236.756L323.337 108.461M310.11 89.6057L310.122 89.6174L310.134 89.6289C311.664 91.1307 311.698 93.6373 310.11 95.2185L288.031 117.209L259.534 88.82L281.583 66.8544C283.151 65.2933 285.703 65.2914 287.273 66.8547L310.11 89.6057ZM274.797 130.404L183.08 221.769L147.437 228.921L154.566 193.403L246.3 102.016L274.797 130.404Z" fill="#F37A20" stroke="white" stroke-width="9.02422"/>
<g filter="url(#filter0_d_3038_8732)">
<path d="M206.865 25.6228L207.798 24.6895L216.756 33.6507C220.062 36.9577 220.062 42.3265 216.751 45.6342L206.865 25.6228ZM206.865 25.6228L207.798 24.6895C206.143 23.0338 203.971 22.2057 201.801 22.2057C199.632 22.2057 197.46 23.0338 195.805 24.6894L195.805 24.6894L145.297 75.2121C144.782 75.7276 144.43 76.3833 144.285 77.0972C144.284 77.0996 144.284 77.1019 144.283 77.1042L140.396 95.4869C140.05 96.9092 140.013 98.0843 140.315 99.03C140.64 100.049 141.319 100.675 142.083 100.99C142.788 101.279 143.496 101.279 143.959 101.237C144.202 101.215 144.409 101.178 144.559 101.146C144.634 101.13 144.696 101.115 144.743 101.103C144.749 101.101 144.755 101.099 144.76 101.098L164.345 97.1802L164.347 97.1798C165.063 97.0356 165.721 96.6844 166.238 96.1674L166.239 96.1667L216.751 45.6348L206.865 25.6228Z" fill="#3F6587" stroke="#3F6587" stroke-width="2.64046"/>
<path d="M144.506 93.2737C144.497 93.2764 144.484 93.2798 144.47 93.2836C144.434 93.293 144.383 93.3054 144.321 93.3187C144.197 93.3452 144.024 93.3762 143.82 93.3947C143.42 93.431 142.862 93.424 142.33 93.2055C141.775 92.9775 141.278 92.5293 141.031 91.7553C140.793 91.0088 140.799 89.9987 141.131 88.6437L145.022 70.2407C145.022 70.2399 145.022 70.239 145.023 70.2382C145.135 69.6806 145.41 69.1688 145.812 68.7668L196.319 18.2439L196.648 18.573L196.319 18.2439C197.814 16.7484 199.775 16.0005 201.736 16.0005C203.697 16.0005 205.658 16.7484 207.153 18.2439L216.11 27.2052C219.096 30.1919 219.096 35.0415 216.106 38.0289L144.506 93.2737ZM144.506 93.2737L164.119 89.3505L164.12 89.3504C164.678 89.2379 165.19 88.9641 165.593 88.5617L165.594 88.5614L216.106 38.0292L144.506 93.2737ZM212.708 30.6034L212.711 30.606C213.822 31.7019 213.826 33.5068 212.708 34.6252L203.153 44.1824L190.175 31.1995L199.728 21.6422C199.729 21.6422 199.729 21.6422 199.729 21.6422C200.838 20.5325 202.639 20.5309 203.751 21.6423L212.708 30.6034ZM199.763 47.5784L162.613 84.7408L146.388 88.0102L149.636 71.7598L186.785 34.5956L199.763 47.5784Z" fill="white" stroke="white"/>
</g>
<path d="M115.968 239.74C115.284 237.929 113.55 236.731 111.614 236.731H108.497L94.0415 222.09C90.4089 218.392 84.0489 218.392 80.4169 222.09L69.6412 233.016L52.764 191.991C49.7524 184.67 37.9708 184.67 34.9592 191.991L16.5641 236.731H5.31862C2.65634 236.731 0.5 238.927 0.5 241.611C0.5 244.295 2.65634 246.492 5.31862 246.492H19.7745C21.7224 246.492 23.4734 245.309 24.2263 243.479L43.8676 195.736L63.5095 243.49C64.8292 246.693 68.9154 247.532 71.3699 245.073L87.2352 228.983L103.101 245.052C103.98 246.004 105.245 246.492 106.51 246.492C106.51 246.492 108.615 246.486 111.337 246.476C114.809 246.462 117.196 242.988 115.968 239.74V239.74Z" fill="white"/>
<path d="M323.104 240.41C323.1 240.411 323.096 240.412 323.091 240.413C323.024 240.431 322.936 240.453 322.829 240.475C322.619 240.521 322.328 240.572 321.986 240.603C321.339 240.662 320.325 240.665 319.307 240.246C318.19 239.788 317.2 238.87 316.73 237.397C316.299 236.045 316.362 234.403 316.83 232.479L321.998 208.037C321.999 208.033 322 208.029 322.001 208.025C322.209 207.001 322.714 206.06 323.454 205.321L390.636 138.118L390.637 138.118C392.914 135.839 395.904 134.699 398.89 134.699C401.875 134.699 404.865 135.839 407.143 138.118L419.058 150.038C423.608 154.589 423.607 161.979 419.051 166.531M323.104 240.41L419.051 166.531M323.104 240.41L349.144 235.201L349.147 235.201C350.174 234.994 351.118 234.49 351.861 233.747L351.862 233.746L419.051 166.531M323.104 240.41L419.051 166.531" fill="#3F6587" stroke="#3F6587" stroke-width="4.29366"/>
<path d="M418.244 156.465C422.402 152.31 422.402 145.566 418.25 141.412L406.335 129.492C404.256 127.413 401.529 126.372 398.803 126.372C396.076 126.372 393.349 127.413 391.27 129.492L392.02 130.242L391.27 129.492L324.087 196.696C323.488 197.294 323.08 198.056 322.911 198.886C322.911 198.888 322.911 198.89 322.91 198.892L317.736 223.359C317.287 225.2 317.261 226.636 317.614 227.742C317.987 228.91 318.751 229.607 319.607 229.958C320.412 230.289 321.239 230.295 321.807 230.243C322.1 230.216 322.35 230.172 322.529 230.133C322.619 230.114 322.693 230.096 322.747 230.082C322.761 230.078 322.774 230.075 322.785 230.072L348.857 224.857L348.859 224.856C349.69 224.689 350.454 224.281 351.054 223.681L351.055 223.68L418.244 156.465ZM418.244 156.465L417.447 155.667L418.244 156.464L418.244 156.465ZM413.07 151.282L400.687 163.667L384.079 147.053L396.46 134.667C397.755 133.372 399.857 133.37 401.155 134.667C401.155 134.667 401.155 134.667 401.155 134.667L413.07 146.587L413.076 146.593C414.369 147.868 414.378 149.974 413.07 151.282C413.07 151.282 413.07 151.282 413.07 151.282ZM395.523 168.839L346.534 217.845L325.771 222.028L329.927 201.232L378.915 152.225L395.523 168.839Z" fill="white" stroke="white" stroke-width="2.25606"/>
<defs>
<filter id="filter0_d_3038_8732" x="123.79" y="0.500488" width="141.765" height="147.077" filterUnits="userSpaceOnUse" color-interpolation-filters="sRGB">
<feFlood flood-opacity="0" result="BackgroundImageFix"/>
<feColorMatrix in="SourceAlpha" type="matrix" values="0 0 0 0 0 0 0 0 0 0 0 0 0 0 0 0 0 0 127 0" result="hardAlpha"/>
<feOffset dx="15" dy="15"/>
<feGaussianBlur stdDeviation="15"/>
<feComposite in2="hardAlpha" operator="out"/>
<feColorMatrix type="matrix" values="0 0 0 0 0 0 0 0 0 0 0 0 0 0 0 0 0 0 0.05 0"/>
<feBlend mode="normal" in2="BackgroundImageFix" result="effect1_dropShadow_3038_8732"/>
<feBlend mode="normal" in="SourceGraphic" in2="effect1_dropShadow_3038_8732" result="shape"/>
</filter>
</defs>
</svg>
