<svg width="141" height="61" viewBox="0 0 141 61" fill="none" xmlns="http://www.w3.org/2000/svg">
<path fill-rule="evenodd" clip-rule="evenodd" d="M36.7271 21.9405C33.0057 16.0085 26.3828 11.992 18.7507 11.9302C13.0739 11.8066 8.91094 16.5646 9.28939 21.5079C9.54169 26.6367 13.8939 29.8499 18.5614 33.063C17.1107 33.9899 15.66 34.9786 14.3354 35.9673C13.8939 36.338 13.3893 36.647 12.9478 37.0177C7.46021 33.5574 1.78344 29.4173 0.33271 21.9405C-1.87492 10.1382 7.20791 0.12793 18.5614 0.12793C30.2304 0.12793 38.8717 10.509 36.7271 21.9405Z" fill="#277CC0"/>
<path fill-rule="evenodd" clip-rule="evenodd" d="M18.7508 11.9302C26.3829 12.0538 33.0058 16.0084 36.7273 21.9405C35.3396 29.4173 29.5998 33.6192 24.1122 37.0795C22.3461 35.6583 20.3908 34.3607 18.4985 33.063C23.1661 29.8498 27.5183 26.6367 27.7706 21.5079C28.149 16.6264 24.1122 12.1156 18.7508 11.9302Z" fill="#F18700"/>
<path fill-rule="evenodd" clip-rule="evenodd" d="M30.4195 50.1792C29.4734 55.8023 24.5535 60.1277 18.5614 60.1277C12.5692 60.1277 7.58626 55.8641 6.64014 50.1792C9.98312 52.4037 14.0199 53.7014 18.4352 53.7631C21.5259 53.8249 24.2381 51.415 24.112 48.1401C23.9858 45.0505 21.7151 42.826 18.4983 40.6633C20.2013 39.4892 22.1566 38.377 24.112 37.1411C28.4642 40.4779 31.3025 44.6179 30.4195 50.1792Z" fill="#277CC0"/>
<path fill-rule="evenodd" clip-rule="evenodd" d="M18.4985 33.063C20.3907 34.3606 22.346 35.6583 24.1122 37.0795C22.1568 38.3153 20.2015 39.4276 18.4985 40.6016C16.7954 39.4276 14.8401 38.3153 12.8848 37.0795C13.3263 36.7087 13.7678 36.338 14.2724 36.029C15.6601 34.9786 17.1108 34.0517 18.4985 33.063Z" fill="#126DB0"/>
<path fill-rule="evenodd" clip-rule="evenodd" d="M18.3724 53.7634C14.0202 53.7634 9.98337 52.404 6.57731 50.1795C5.63118 44.68 8.53264 40.5399 12.8218 37.0796C14.7771 38.3154 16.7324 39.4277 18.4354 40.6017C15.2817 42.7645 12.9479 44.989 12.8848 48.0786C12.8848 51.2918 15.4078 53.7016 18.3724 53.7634Z" fill="#EF7C04"/>
<path d="M52.7482 31.8168C51.8021 31.1989 50.7298 30.8281 49.7206 30.3956C48.9637 30.0866 48.1437 29.8394 47.4499 29.3451C46.693 28.789 46.3776 27.9857 46.6299 27.1824C46.8822 26.3791 47.6391 26.1937 48.396 26.1319C49.2791 26.0701 50.2252 26.1319 51.2344 26.1319C51.9913 26.1937 52.7482 26.2555 53.5682 26.3173C53.6943 26.3173 53.9466 26.4409 54.0097 26.1937C54.0728 25.514 54.0097 24.8343 54.0097 24.1546C54.0097 24.031 53.8205 24.031 53.6943 24.031C51.1713 23.5985 48.6483 23.3513 46.1253 24.031C44.8007 24.4018 43.9177 25.2668 43.6654 26.6881C43.2238 29.0362 44.1069 31.0135 46.2514 32.1875C47.2606 32.7437 48.3329 33.0526 49.3421 33.4852C49.9098 33.7323 50.4775 33.9795 50.919 34.4121C51.6128 35.0918 51.739 35.8951 51.4867 36.7601C51.2975 37.5634 50.6036 37.8106 49.8467 37.9342C48.0806 38.1814 46.3776 37.9342 44.6746 37.8106C44.4223 37.8106 44.1069 37.5016 43.9807 37.996C43.7915 38.6139 43.9807 40.0351 44.2961 40.1587H44.3592C46.5668 40.5295 48.7745 40.7766 50.919 40.3441C52.8113 40.0351 54.1989 39.0464 54.5774 37.1309C54.9558 35.0918 54.5774 33.0526 52.7482 31.8168Z" fill="#277CC0"/>
<path d="M140.864 30.9517C140.675 28.7272 139.224 27.6767 136.954 27.9857C135.881 28.1093 134.935 28.48 133.926 29.2215C134.305 28.1711 133.611 28.2329 133.043 28.2946C132.665 28.2946 132.286 28.3564 131.908 28.2946C131.34 28.2329 131.214 28.4182 131.214 28.9744C131.214 32.0022 131.214 35.03 131.214 38.0578C131.214 38.7375 130.899 39.6026 131.34 40.0351C131.782 40.4677 132.728 40.0969 133.422 40.2205C133.926 40.2823 134.115 40.0969 134.115 39.6026C134.115 37.2545 134.115 34.9064 134.115 32.5583C134.115 30.9517 134.242 30.7663 135.881 30.4574C135.945 30.4574 136.008 30.4574 136.071 30.4574C137.585 30.2102 138.089 30.581 138.089 32.064C138.089 34.0413 138.089 36.0186 138.089 37.996C138.089 38.7375 137.774 39.7262 138.215 40.0969C138.72 40.4677 139.729 40.2205 140.486 40.2205C140.864 40.2205 140.991 40.0969 140.991 39.7262C140.927 36.7601 141.117 33.8559 140.864 30.9517Z" fill="#277CC0"/>
<path d="M66.0572 32.3111C66.0572 31.5078 65.9942 30.6427 65.7418 29.8394C65.4265 28.789 64.7326 28.171 63.5973 27.9857C62.1466 27.6767 60.822 28.0475 59.5605 28.789C59.4343 28.8508 59.119 29.2215 59.119 28.7272C59.119 28.171 58.8036 28.171 58.362 28.171C57.8574 28.171 57.3528 28.171 56.9113 28.171C56.4698 28.1092 56.3436 28.2946 56.3436 28.7272C56.3436 30.5191 56.3436 32.3111 56.3436 34.1031C56.3436 35.895 56.3436 37.687 56.3436 39.479C56.3436 39.9733 56.4698 40.0969 56.9744 40.0969C57.479 40.0351 57.9836 40.0351 58.5513 40.0969C59.119 40.1587 59.2451 39.9115 59.2451 39.4172C59.2451 37.1309 59.2451 34.8446 59.2451 32.4965C59.2451 30.8281 59.4343 30.5809 61.2004 30.272C61.3897 30.272 61.5789 30.2102 61.7681 30.2102C62.6512 30.1484 63.1558 30.5191 63.2188 31.446C63.2188 31.755 63.2819 32.0639 63.2819 32.4347C63.2819 34.7828 63.2819 37.1309 63.2819 39.479C63.2819 40.0351 63.4711 40.2205 63.9757 40.1587C64.5434 40.0969 65.048 40.0969 65.6157 40.1587C66.0572 40.2205 66.1834 40.0351 66.1834 39.6026C66.0572 37.1309 66.1203 34.721 66.0572 32.3111Z" fill="#277CC0"/>
<path d="M93.8733 35.4007C93.8733 31.755 93.8733 28.0475 93.8733 24.4017C93.8733 23.9692 93.8733 23.6603 93.3057 23.722C92.738 23.7838 92.1703 23.7838 91.6026 23.722C91.098 23.6603 90.9088 23.8456 90.9088 24.34C90.9088 26.8734 90.9088 29.4069 90.9088 31.9404C90.9088 34.4738 90.9088 37.0073 90.9088 39.5408C90.9088 39.9733 91.035 40.2205 91.5396 40.1587C92.1072 40.0969 92.738 40.0969 93.3057 40.1587C93.7472 40.1587 93.8733 40.0351 93.8733 39.6026C93.8733 38.1813 93.8733 36.8219 93.8733 35.4007Z" fill="#277CC0"/>
<path d="M87.8812 23.722C87.3766 23.7838 86.872 23.7838 86.3043 23.722C85.7366 23.6603 85.6105 23.8456 85.6105 24.4017C85.6105 27.4913 85.6105 30.581 85.6105 33.6088C85.6105 35.5861 85.6105 37.5017 85.6105 39.479C85.6105 39.9733 85.7366 40.2205 86.2412 40.1587C86.7458 40.0969 87.3135 40.0969 87.8812 40.1587C88.3858 40.2205 88.5119 40.0351 88.5119 39.5408C88.5119 37.0073 88.5119 34.4738 88.5119 31.9404C88.5119 29.4069 88.5119 26.8734 88.5119 24.34C88.5119 23.9074 88.4489 23.6603 87.8812 23.722Z" fill="#277CC0"/>
<path d="M71.4817 34.6592C71.4817 32.6819 71.4817 30.6427 71.4817 28.6654C71.4817 28.2329 71.3555 28.1093 70.914 28.1093C70.3463 28.171 69.7156 28.171 69.1479 28.1093C68.6433 28.0475 68.4541 28.2328 68.4541 28.789C68.4541 32.5583 68.4541 36.3894 68.5172 40.1587C68.5172 40.7148 68.3279 41.1474 68.0126 41.5799C67.6341 42.0125 66.8141 42.2596 66.9403 42.8776C67.0664 43.3719 67.6972 43.8044 68.1387 44.237C68.1387 44.2988 68.2018 44.2988 68.2649 44.3606C68.4541 44.6077 68.5802 44.6077 68.8325 44.4224C69.4002 43.8662 69.9679 43.4337 70.5356 42.8776C71.2925 42.1361 71.6078 41.271 71.5448 40.2205C71.4186 38.3049 71.4817 36.513 71.4817 34.6592Z" fill="#277CC0"/>
<path d="M69.8417 23.722C68.5171 23.722 68.5171 23.722 68.5171 24.9579C68.5171 26.3791 68.5171 26.3791 70.0309 26.3791C70.1571 26.3791 70.2832 26.3791 70.4094 26.3791C71.5447 26.3791 71.5447 26.3791 71.5447 25.2668C71.4816 23.722 71.4817 23.722 69.8417 23.722Z" fill="#277CC0"/>
<path d="M114.625 26.1937C115.824 26.1937 115.824 26.1937 115.824 24.8961C115.824 23.6602 115.824 23.6602 114.562 23.6602C113.364 23.6602 113.364 23.6602 113.364 24.9579C113.364 26.1937 113.364 26.1937 114.625 26.1937Z" fill="#277CC0"/>
<path d="M110.084 26.1937C111.282 26.1937 111.282 26.1937 111.282 24.8961C111.282 23.722 111.282 23.722 110.147 23.722C108.885 23.722 108.885 23.722 108.885 24.9579C108.822 26.1937 108.822 26.1937 110.084 26.1937Z" fill="#277CC0"/>
<path d="M106.299 28.4182C106.362 27.9857 105.984 28.171 105.732 28.1093C104.533 28.0475 103.335 28.2328 102.136 27.9857C101.064 27.7385 99.9917 27.8003 98.9194 28.0475C97.2794 28.3564 96.2702 29.4069 96.081 31.0135C95.9549 32.0639 95.9549 33.1762 96.081 34.2267C96.1441 35.03 96.4595 35.7715 97.0902 36.2658C97.4687 36.513 97.5317 36.6984 97.1533 37.0073C96.3333 37.6252 96.2702 38.5521 96.5225 39.479C96.7748 40.3441 97.5317 40.5912 98.3517 40.7148C99.7394 40.9002 101.127 41.0856 102.515 41.2092C102.956 41.2709 103.082 41.5181 103.082 41.9507C103.082 42.3214 103.019 42.6304 102.578 42.754C102.325 42.8157 102.073 42.8775 101.821 42.8775C100.496 42.9393 99.1717 42.9393 97.9102 42.754C96.3964 42.5068 96.3964 42.5068 96.1441 43.9898C96.081 44.4223 96.1441 44.6695 96.6487 44.7313C97.9733 45.0403 99.3609 45.102 100.749 45.1638C101.821 45.102 102.893 45.102 103.965 44.7931C105.038 44.4841 105.732 43.8044 105.858 42.6922C105.921 42.2596 105.921 41.8271 105.921 41.3945C105.858 39.9115 105.164 39.17 103.65 38.9846C102.515 38.8611 101.379 38.7375 100.244 38.6139C99.8655 38.5521 99.3609 38.6139 99.4871 38.0578C99.5502 37.5634 99.8655 37.2545 100.433 37.2545C101.001 37.2545 101.505 37.2545 102.073 37.1927C103.839 37.0073 105.101 36.0186 105.353 34.6592C105.605 33.3616 105.605 32.064 105.353 30.7663C105.227 30.0866 105.164 29.7776 105.984 29.6541C106.678 29.5305 106.236 28.8508 106.299 28.4182ZM102.641 33.6705C102.641 33.7941 102.578 33.9177 102.578 34.1031C102.325 34.8446 101.442 35.1535 100.055 34.9682C99.2348 34.8446 98.8563 34.4738 98.7932 33.6705C98.7932 33.2998 98.7932 32.9908 98.7932 32.6201C98.7932 32.5583 98.7932 32.4347 98.7932 32.3729C98.7932 30.5809 99.8024 29.8394 101.632 30.3956C102.262 30.5809 102.578 30.9517 102.641 31.5696C102.641 32.1875 102.641 32.929 102.641 33.6705Z" fill="#277CC0"/>
<path d="M128.88 28.1093C127.114 28.171 125.348 28.0475 123.645 27.8003C123.077 27.8003 122.573 27.8621 122.005 27.9857C120.113 28.3564 119.166 29.4069 118.977 31.2606C118.914 32.2493 118.914 33.1762 118.977 34.1649C119.04 35.03 119.356 35.7715 120.05 36.3276C120.365 36.5748 120.365 36.6983 120.05 36.9455C119.23 37.6252 119.103 38.4903 119.356 39.479C119.671 40.4059 120.428 40.5912 121.248 40.7148C122.573 40.9002 123.897 41.0238 125.222 41.2092C125.852 41.3327 126.105 41.7035 125.916 42.3214C125.726 42.8775 125.159 42.8775 124.654 42.9393C123.014 43.0629 121.437 43.0011 119.797 42.6304C119.608 42.5686 119.419 42.5068 119.23 42.5686C119.103 42.6304 118.788 44.5459 118.914 44.6077C118.977 44.6695 119.103 44.7313 119.23 44.7313C121.563 45.2874 123.96 45.411 126.357 44.9167C127.429 44.7313 128.249 44.1752 128.502 43.0629C128.628 42.445 128.691 41.8271 128.628 41.2092C128.439 39.8497 127.745 39.17 126.357 39.0464C125.159 38.9229 123.96 38.7993 122.762 38.6757C122.509 38.6757 122.257 38.6139 122.194 38.3667C122.131 38.1196 122.194 37.8724 122.383 37.687C122.573 37.4398 122.825 37.3163 123.203 37.378C123.708 37.4398 124.276 37.3781 124.843 37.3163C126.672 37.0691 127.871 36.1422 128.123 34.6592C128.312 33.238 128.375 31.8168 127.997 30.3956C127.871 30.0248 127.997 29.963 128.312 29.8394C129.069 29.6541 129.322 29.1597 129.069 28.4182C129.195 28.171 129.069 28.1093 128.88 28.1093ZM125.6 32.6819V32.7437C125.6 34.721 124.717 35.4007 122.762 34.9064C122.257 34.7828 121.879 34.4738 121.816 33.9177C121.689 33.0526 121.689 32.1257 121.816 31.2606C121.816 31.1371 121.879 30.9517 122.005 30.8281C122.383 30.272 123.519 30.0248 124.528 30.272C125.285 30.4573 125.6 31.0135 125.6 31.6932C125.663 32.0022 125.6 32.3729 125.6 32.6819Z" fill="#277CC0"/>
<path d="M114.625 27.7385C113.301 27.3678 111.976 27.3678 110.651 27.6149C108.633 27.9857 107.498 29.2215 107.308 31.1988C107.182 32.0639 107.308 32.929 107.245 33.6705C107.245 34.4738 107.245 35.0918 107.245 35.7715C107.308 38.1196 108.318 39.479 110.399 39.9733C111.471 40.2205 112.607 40.2823 113.679 40.0969C116.076 39.6644 117.211 38.5521 117.4 36.204C117.527 34.4738 117.59 32.6819 117.337 30.8899C117.085 29.2833 116.202 28.2328 114.625 27.7385ZM114.373 36.3276C114.31 37.0073 113.805 37.4398 113.174 37.5634C112.607 37.687 112.039 37.687 111.408 37.5634C110.714 37.3781 110.273 36.9455 110.21 36.204C110.147 35.4007 110.21 34.5974 110.21 33.7941C110.21 33.0526 110.21 32.3111 110.21 31.5696C110.273 30.5191 110.841 29.963 111.976 29.9012C113.49 29.7776 114.247 30.2102 114.373 31.3224C114.562 32.9908 114.562 34.6592 114.373 36.3276Z" fill="#277CC0"/>
<path d="M83.1506 31.5696C83.0875 29.2833 82.0153 28.2328 79.7445 27.9857C78.2307 27.8003 76.78 27.9239 75.3293 28.2328C73.6263 28.6036 74.0047 28.3564 73.9416 29.963C73.9416 30.4573 74.0678 30.5191 74.5724 30.4574C75.8339 30.3338 77.0323 30.2102 78.2938 30.272C79.9338 30.3338 80.2492 30.7045 80.3122 32.2493C80.3122 32.3111 80.3122 32.4347 80.3122 32.4965C80.3753 32.929 80.1861 32.9908 79.8076 32.9908C78.9876 32.9908 78.1046 32.9908 77.2846 32.9908C73.9416 33.1762 72.8063 34.5356 73.2478 37.8106C73.437 39.17 74.257 40.0351 75.5816 40.3441C77.3477 40.7148 78.9246 40.3441 80.5645 39.4172C80.4384 40.0969 80.7537 40.2205 81.2584 40.1587C81.763 40.0969 82.2676 40.0969 82.7091 40.1587C83.0875 40.1587 83.2137 40.0351 83.2137 39.6644C83.1506 36.9455 83.2137 34.2267 83.1506 31.5696ZM80.3122 36.204C80.3122 36.2658 80.3122 36.2658 80.3122 36.3276C80.3122 37.8106 80.3122 37.8106 78.7984 38.1814C78.6092 38.2431 78.42 38.2431 78.2307 38.3049C76.4016 38.6139 75.7077 38.0578 75.8339 36.2658C75.897 35.3389 76.2754 34.9064 77.2846 34.7828C78.1677 34.721 78.9876 34.721 79.8707 34.721C80.1861 34.721 80.2492 34.8446 80.2492 35.1536C80.3122 35.4625 80.3122 35.8333 80.3122 36.204Z" fill="#277CC0"/>
</svg>
