<svg width="19" height="20" viewBox="0 0 19 20" fill="none" xmlns="http://www.w3.org/2000/svg">
<g clip-path="url(#clip0_641_127074)">
<path d="M17.8122 5.71037C17.5899 5.80386 17.4864 6.05719 17.5808 6.27735C18.0254 7.31783 18.2507 8.42767 18.2507 9.56767C18.2507 10.2674 18.1624 10.9459 17.9979 11.5974C17.8701 12.0075 17.6417 12.3875 17.3281 12.7313C17.3342 12.5835 17.3403 12.4358 17.3403 12.285C17.3433 10.6202 16.8805 8.86497 16.0188 7.21227C16.6491 6.67545 17.051 6.01195 17.1911 5.27005C17.2337 5.03481 17.0784 4.80862 16.8409 4.76338C16.6034 4.71815 16.375 4.87497 16.3324 5.11021C16.2411 5.6018 15.9822 6.05116 15.5803 6.43418C15.4555 6.2291 15.3246 6.02703 15.1875 5.82497C14.4202 4.7091 13.5068 3.74402 12.508 2.97497C13.8265 3.05942 15.0444 3.3791 16.0279 3.92195C16.1832 4.00941 16.3872 4.0064 16.5303 3.88576C16.7161 3.73195 16.7404 3.45751 16.5851 3.27354C15.1754 1.32227 12.7364 0.245605 9.7159 0.245605C4.52744 0.245605 0.304199 4.42862 0.304199 9.56767C0.304199 10.4543 0.432084 11.3108 0.666539 12.1221C0.681763 12.1764 0.693943 12.2307 0.709167 12.285C0.712212 12.297 0.718302 12.3061 0.721347 12.3151C1.90885 16.1151 5.48962 18.8867 9.71285 18.8867C11.6677 18.8867 13.4824 18.2926 14.9896 17.2793C15.0048 17.2702 15.0201 17.2642 15.0322 17.2551C15.1236 17.1948 15.2088 17.1315 15.2941 17.0651C17.0236 15.7985 18.3055 13.9588 18.8414 11.8296C18.8718 11.7331 18.8992 11.6305 18.9205 11.531C18.9266 11.5069 18.9266 11.4827 18.9297 11.4586C19.0576 10.8464 19.1246 10.2131 19.1246 9.56465C19.1246 8.30703 18.8749 7.08561 18.3846 5.93656C18.2933 5.71941 18.0345 5.61688 17.8122 5.71037ZM14.4659 6.31656C14.609 6.52767 14.746 6.73878 14.877 6.95592C14.1766 7.35703 13.2936 7.59529 12.3375 7.66465C12.2553 6.16878 12.0787 4.72719 11.7925 3.52989C12.7882 4.26275 13.7016 5.20973 14.4659 6.31656ZM13.1657 1.7264C13.6042 1.90132 14.0396 2.12449 14.4537 2.40497C13.793 2.24211 13.0896 2.14259 12.3588 2.1064C12.6572 1.91338 12.9343 1.78068 13.1657 1.7264ZM12.0087 1.36751C11.7651 1.49719 11.5124 1.66005 11.2566 1.85307C11.1409 1.59672 11.0191 1.37053 10.8882 1.17751C11.2383 1.21672 11.6159 1.27703 12.0087 1.36751ZM7.84635 7.69783C8.47359 7.9783 9.15869 8.19846 9.87728 8.35227C10.4223 8.46688 10.9643 8.53021 11.5002 8.5483C11.5093 8.87402 11.5154 9.20878 11.5154 9.55259C11.5154 11.5943 11.351 13.2893 11.1135 14.6132C10.331 14.5801 9.52407 14.4775 8.71414 14.3086C7.63016 14.0764 6.60708 13.7386 5.6784 13.3043C5.98288 11.9472 6.54923 10.3005 7.45051 8.47592C7.57535 8.21053 7.70933 7.95116 7.84635 7.69783ZM6.31782 5.69529C5.95548 5.35751 5.68144 5.01068 5.49571 4.65783C6.31478 4.16926 7.22215 3.77116 8.19042 3.48164C8.7659 3.30973 9.34747 3.18307 9.92904 3.09561C9.08865 4.02449 8.25436 5.20672 7.48705 6.54275C7.04859 6.29243 6.6558 6.00894 6.31782 5.69529ZM11.4637 7.67672C11.0008 7.65862 10.5258 7.60132 10.06 7.5018C9.42663 7.3691 8.82375 7.17608 8.26958 6.93481C9.08561 5.52037 9.9808 4.28989 10.8608 3.37307C11.1348 4.44672 11.3662 5.8883 11.4637 7.67672ZM9.70372 1.11418C9.85292 1.11719 10.0356 1.29211 10.2274 1.63592C10.13 1.5937 10.0326 1.55449 9.93513 1.5183C9.5393 1.36751 9.14651 1.25291 8.75981 1.16846C9.07038 1.13227 9.38401 1.11418 9.70372 1.11418ZM5.25516 3.2464C5.3526 2.79703 5.62664 2.39592 6.04683 2.06116C7.06686 1.75957 8.2574 1.83195 9.5058 2.28434C8.98208 2.37481 8.45532 2.49545 7.93465 2.64926C6.96942 2.93576 6.05901 3.32783 5.22471 3.80735C5.20949 3.61735 5.21862 3.43037 5.25516 3.2464ZM4.43609 2.93275C4.42391 2.97799 4.41173 3.02021 4.4026 3.06846C4.3143 3.47862 4.32343 3.89481 4.42696 4.311C3.48609 4.95338 2.66702 5.7164 2.01237 6.56989C1.81446 6.82926 1.63785 7.09465 1.47647 7.36307C1.96061 5.58672 3.01718 4.04259 4.43609 2.93275ZM4.57615 16.3112C3.11462 15.2164 2.02455 13.6693 1.50692 11.8808C1.43385 11.5974 1.38513 11.3108 1.36686 11.0213C1.65917 11.4315 2.01542 11.8356 2.43865 12.2247C3.07808 12.8097 3.8393 13.3345 4.68577 13.7839C4.51526 14.7429 4.46654 15.6115 4.57615 16.3112ZM3.03545 11.5853C2.2925 10.9037 1.78096 10.1859 1.5191 9.46815C1.72615 8.66592 2.12503 7.86069 2.71269 7.09164C3.2699 6.35878 3.96414 5.70132 4.76189 5.13434C4.99026 5.54449 5.31301 5.94561 5.72103 6.32561C6.11077 6.68751 6.56141 7.01322 7.06686 7.29973C6.9268 7.5591 6.79282 7.82449 6.66189 8.09291C5.88545 9.67021 5.25212 11.3591 4.8776 12.8942C4.18641 12.5112 3.56221 12.0708 3.03545 11.5853ZM9.72199 18.0151C9.70067 18.0151 9.67936 18.0181 9.66109 18.0212C8.35788 18.0121 7.12471 17.7166 6.01942 17.1888C5.99506 17.1677 5.96462 17.1496 5.93417 17.1345C5.44699 16.8993 5.25212 15.8256 5.50484 14.185C6.43962 14.6012 7.4566 14.9299 8.52535 15.1561C9.33529 15.328 10.1422 15.4335 10.9338 15.4727C10.5471 17.1405 10.0508 18.0151 9.72199 18.0151ZM14.7643 16.3775C13.6742 17.1737 12.3863 17.7196 10.9887 17.9277C11.3388 17.3275 11.622 16.4831 11.8351 15.4908C13.0713 15.4758 14.2436 15.2978 15.2819 14.951C15.5438 14.8635 15.7904 14.767 16.0279 14.6615C15.7417 15.3612 15.3185 15.9432 14.7643 16.3775ZM16.3598 13.5124C15.967 13.7507 15.5164 13.9588 15.0048 14.1277C14.1005 14.4293 13.0835 14.5921 12.0026 14.6193C12.2614 13.0781 12.3863 11.2897 12.3863 9.54957C12.3863 9.2118 12.3832 8.871 12.371 8.53323C13.4611 8.46084 14.4689 8.18037 15.2941 7.70989C16.0584 9.20878 16.4694 10.7891 16.4664 12.2789C16.4664 12.7132 16.4298 13.1264 16.3598 13.5124Z" fill="url(#paint0_radial_641_127074)"/>
</g>
<defs>
<radialGradient id="paint0_radial_641_127074" cx="0" cy="0" r="1" gradientUnits="userSpaceOnUse" gradientTransform="translate(18.2715 3.72935) scale(15.5987 15.4501)">
<stop stop-color="white"/>
<stop offset="0.0598" stop-color="#EBF8FD"/>
<stop offset="0.1829" stop-color="#B6E7F7"/>
<stop offset="0.3589" stop-color="#60CCEE"/>
<stop offset="0.544" stop-color="#00ADE4"/>
<stop offset="1" stop-color="#002345"/>
</radialGradient>
<clipPath id="clip0_641_127074">
<rect width="19" height="19" fill="white" transform="translate(0 0.0678711)"/>
</clipPath>
</defs>
</svg>
