<svg width="26" height="23" viewBox="0 0 26 23" fill="none" xmlns="http://www.w3.org/2000/svg">
<path d="M2.1019 14.0088L2.16882 14.0644C2.09632 13.5642 2.05728 13.0195 2.20228 12.5414C2.41978 11.7744 2.69306 11.0296 2.83248 10.2347C2.94402 9.61774 3.07229 8.92295 2.99979 8.3282C2.91614 8.65059 2.83248 8.96741 2.65402 9.24533C1.9792 10.2847 1.28765 11.5076 1.7617 12.8305C1.75054 12.8471 1.73381 12.8638 1.71708 12.8527C1.52746 12.4136 1.48285 11.9189 1.36015 11.452C1.03111 10.2125 0.077442 9.17307 0.356292 7.73901C0.205713 8.05028 0.149943 8.40046 0.071865 8.73952C-0.0954452 9.61774 0.071865 10.546 0.311676 11.3575C0.607258 12.3636 1.59439 13.0862 2.1019 14.0088Z" fill="#418FDE"/>
<path d="M1.84537 7.57261C2.06845 7.11682 2.43096 6.68327 2.86597 6.36088C3.82521 5.6383 4.87369 4.70449 4.89042 3.48165C4.56695 4.35987 3.60213 4.72673 2.96077 5.32703C2.62058 5.64386 2.35846 6.02738 2.20788 6.42758L2.18557 6.41091C2.26365 6.05517 2.41423 5.73835 2.52019 5.39373C2.79904 4.45992 2.74885 3.34269 3.66348 2.7146C3.19501 2.83688 2.79904 3.13704 2.44769 3.52612C1.70595 4.3432 1.77287 5.54936 1.86768 6.61657C1.90114 6.95007 1.88441 7.23355 1.84537 7.57261Z" fill="#418FDE"/>
<path d="M2.96057 4.90986C3.47366 4.43185 4.06482 4.07611 4.49982 3.50916C5.01849 2.82548 5.47022 2.05842 6.15062 1.46924C5.23041 1.82497 4.23771 2.19183 3.64097 3.13675C3.28961 3.68702 3.23384 4.33735 2.96057 4.90986Z" fill="#418FDE"/>
<path d="M3.34578 7.32755C3.56886 6.87732 3.70828 6.36595 3.76963 5.87125C3.68597 6.08247 3.5577 6.27702 3.37924 6.44377C2.63192 7.14968 1.75633 7.83891 1.58902 8.83942C1.56671 8.98394 1.54998 9.12845 1.51094 9.26741C1.47748 9.28409 1.47748 9.24518 1.46633 9.23406L1.56114 8.00011C1.65037 6.79394 1.01459 5.45438 1.71171 4.39273C1.68941 4.38717 1.67268 4.40941 1.65594 4.41496C1.02017 5.22093 0.596313 6.11026 0.596313 7.19414C0.596313 8.53371 1.37152 9.47307 1.46633 10.7293C1.6671 9.41749 2.77135 8.48369 3.34578 7.32755Z" fill="#418FDE"/>
<path d="M1.86786 15.5596C2.58729 16.1265 3.44615 16.5656 4.10424 17.0659C3.97597 16.7379 3.76404 16.4378 3.68039 16.0987C3.29557 14.548 3.5075 12.747 2.84384 11.313C2.96653 12.1301 2.64306 12.8527 2.57056 13.6308C2.50922 14.27 2.62076 14.8926 2.87172 15.4262C2.94422 15.5874 3.07807 15.7263 3.11711 15.8931C2.8773 15.6763 2.70441 15.4039 2.54268 15.1371C1.76747 13.8865 0.144565 13.075 0.0330251 11.552C-0.0227449 12.2301 0.0386022 12.9471 0.261682 13.5474C0.568418 14.3701 1.17073 15.0093 1.86786 15.5596Z" fill="#418FDE"/>
<path d="M11.6495 19.6672C10.3947 19.6672 9.2681 20.2731 8.16943 20.7289C7.17114 21.1402 5.84939 21.0624 4.96265 20.451C5.39765 20.9957 5.98324 21.3347 6.59113 21.5626C7.71211 22.0073 9.02271 21.6682 9.98195 21.0568C10.6679 20.6177 11.2591 19.9952 12.0789 19.9952C13.4007 19.9952 14.7893 21.3459 15.9772 22.5687C16.1613 22.4186 16.3565 22.263 16.5071 22.0907C15.2634 20.9123 13.5066 19.6672 11.6495 19.6672Z" fill="#418FDE"/>
<path d="M9.40802 19.8007C9.60322 19.7507 9.83745 19.7674 10.0159 19.7007C9.2686 19.5506 8.54916 19.3227 7.96915 18.7946C7.13818 18.0387 6.40202 17.2327 5.51527 16.6436C6.2124 17.5774 6.40759 18.9336 7.67915 19.4061C7.90223 19.4894 8.16435 19.5061 8.35954 19.6284C8.11416 19.6673 7.90223 19.5895 7.67357 19.5395C6.03393 19.1893 4.03737 19.6395 2.81042 18.2499C3.27332 19.1615 4.23256 19.8785 5.15834 20.1787C6.58048 20.6567 8.06954 20.1286 9.40802 19.8007Z" fill="#418FDE"/>
<path d="M6.66391 19.1169C5.5987 18.2609 5.43697 16.977 4.96292 15.8542C4.66734 15.1538 4.18772 14.5257 3.67463 13.9143C4.23791 15.0371 3.99252 16.4823 4.72311 17.5384C4.95177 17.8719 5.26966 18.1887 5.56524 18.4499L5.55408 18.4666C5.28639 18.3443 5.04658 18.1553 4.80119 17.9552C3.52405 16.8936 1.59999 16.7602 0.835938 15.0315C1.04229 16.2988 2.05172 17.4216 3.14482 18.1331C4.18214 18.8112 5.51504 18.739 6.66391 19.1169Z" fill="#418FDE"/>
<path d="M21.5043 3.50916C21.9394 4.08167 22.5305 4.43185 23.0436 4.90986C22.7703 4.33735 22.7146 3.68702 22.3688 3.13675C21.772 2.19183 20.7793 1.82497 19.8591 1.46924C20.5284 2.05842 20.9801 2.81992 21.5043 3.50916Z" fill="#418FDE"/>
<path d="M23.4843 5.39373C23.5847 5.73279 23.7352 6.05518 23.8189 6.41091L23.7966 6.42759C23.646 6.02738 23.3839 5.64386 23.0437 5.32703C22.4023 4.72117 21.4375 4.35987 21.1196 3.4761C21.1364 4.70449 22.1848 5.6383 23.1441 6.35533C23.5735 6.67771 23.9416 7.11126 24.1647 7.56705C24.1256 7.22799 24.1089 6.94451 24.1424 6.61657C24.2428 5.54381 24.3041 4.3432 23.5679 3.52612C23.2166 3.13704 22.8206 2.83133 22.3521 2.7146C23.2556 3.34269 23.2054 4.45993 23.4843 5.39373Z" fill="#418FDE"/>
<path d="M24.4437 7.99501L24.5385 9.22897C24.5274 9.24009 24.5274 9.27344 24.4939 9.26232C24.4549 9.12336 24.4381 8.97884 24.4158 8.83433C24.2485 7.83938 23.3674 7.14458 22.6256 6.43867C22.4472 6.27192 22.3189 6.07738 22.2352 5.86616C22.2966 6.36085 22.436 6.87222 22.6591 7.32245C23.2335 8.47859 24.3378 9.4124 24.5385 10.7297C24.6333 9.46798 25.4085 8.53417 25.4085 7.19461C25.4085 6.11073 24.9847 5.22139 24.3489 4.41543C24.3322 4.40431 24.3155 4.38764 24.2931 4.39319C24.9903 5.45484 24.3489 6.79441 24.4437 7.99501Z" fill="#418FDE"/>
<path d="M24.6446 11.4463C24.5219 11.9132 24.4772 12.4135 24.2876 12.847C24.2709 12.8582 24.2542 12.8359 24.243 12.8248C24.7171 11.5019 24.0255 10.2846 23.3507 9.23966C23.1722 8.9673 23.0886 8.64491 23.0049 8.32253C22.9324 8.92283 23.0607 9.61207 23.1722 10.229C23.3172 11.0239 23.5849 11.7687 23.8024 12.5358C23.9474 13.0138 23.9084 13.5529 23.8359 14.0588L23.9028 14.0032C24.4047 13.0805 25.3975 12.3579 25.6986 11.3463C25.9384 10.5403 26.1057 9.60651 25.9384 8.72829C25.8603 8.38923 25.799 8.03905 25.654 7.72778C25.9273 9.1674 24.9736 10.2068 24.6446 11.4463Z" fill="#418FDE"/>
<path d="M17.8293 20.7289C16.725 20.2731 15.6041 19.6672 14.3492 19.6672C12.4977 19.6672 10.7353 20.9179 9.50281 22.0907C9.65339 22.263 9.84858 22.4242 10.0326 22.5687C11.2149 21.3514 12.6092 19.9952 13.9309 19.9952C14.7508 19.9952 15.3419 20.6177 16.0279 21.0568C16.9816 21.6627 18.2922 22.0073 19.4187 21.5626C20.021 21.3347 20.6066 20.9957 21.0472 20.451C20.1549 21.0568 18.8276 21.1402 17.8293 20.7289Z" fill="#418FDE"/>
<path d="M23.4679 15.1262C23.3006 15.393 23.1333 15.6709 22.8935 15.8821C22.9325 15.7209 23.0664 15.5764 23.1389 15.4152C23.3899 14.876 23.5014 14.259 23.44 13.6198C23.362 12.8417 23.0385 12.1191 23.1668 11.302C22.4975 12.7361 22.715 14.537 22.3302 16.0877C22.2466 16.4324 22.0346 16.7325 21.9064 17.0549C22.5645 16.5547 23.4233 16.1155 24.1428 15.5486C24.8399 15.0039 25.4422 14.3591 25.7601 13.5253C25.9887 12.925 26.0445 12.208 25.9887 11.5299C25.8716 13.064 24.2431 13.8755 23.4679 15.1262Z" fill="#418FDE"/>
<path d="M21.1923 17.9552C20.9469 18.1553 20.7071 18.3443 20.4394 18.4666L20.4283 18.4499C20.7238 18.1831 21.0417 17.8663 21.2704 17.5384C22.001 16.4823 21.7556 15.0315 22.3189 13.9143C21.8058 14.5257 21.3262 15.1538 21.0306 15.8542C20.5565 16.977 20.3948 18.2609 19.3296 19.1169C20.4785 18.739 21.8114 18.8112 22.8431 18.1387C23.9306 17.4272 24.9401 16.3044 25.152 15.0371C24.3935 16.7602 22.475 16.8936 21.1923 17.9552Z" fill="#418FDE"/>
<path d="M18.3316 19.5451C18.1029 19.5951 17.891 19.6674 17.6456 19.634C17.8408 19.5117 18.0974 19.4951 18.326 19.4117C19.5976 18.9337 19.7928 17.5774 20.4899 16.6492C19.6032 17.2384 18.867 18.0443 18.036 18.8003C17.456 19.3283 16.7366 19.5506 15.9893 19.7063C16.1677 19.773 16.402 19.7563 16.5972 19.8063C17.9412 20.1398 19.4247 20.6623 20.8524 20.1898C21.7726 19.8841 22.7319 19.1671 23.2003 18.2611C21.9678 19.6451 19.9657 19.2005 18.3316 19.5451Z" fill="#418FDE"/>
<path d="M12.9994 0.568604C7.92435 0.568604 3.79736 4.68179 3.79736 9.7399C3.79736 14.798 7.92435 18.9112 12.9994 18.9112C18.0745 18.9112 22.2015 14.798 22.2015 9.7399C22.2015 4.68179 18.0745 0.568604 12.9994 0.568604ZM12.9994 11.4908C12.029 11.4908 11.2427 10.7071 11.2427 9.7399C11.2427 8.77275 12.029 7.98902 12.9994 7.98902C13.9698 7.98902 14.7562 8.77275 14.7562 9.7399C14.7562 10.7071 13.9698 11.4908 12.9994 11.4908ZM14.3212 8.26693C13.9977 7.9779 13.5794 7.79447 13.1165 7.76668V6.26592C13.9921 6.29372 14.7896 6.64389 15.3864 7.20529L14.3212 8.26693ZM12.8879 7.76668C12.425 7.79447 12.0067 7.9779 11.6832 8.26693L10.618 7.20529C11.2148 6.64389 12.0123 6.29372 12.8879 6.26592V7.76668ZM11.5271 8.42813C11.2371 8.75051 11.053 9.16739 11.0252 9.62873H9.51937C9.54726 8.75607 9.89861 7.96123 10.4619 7.36648L11.5271 8.42813ZM11.0252 9.85107C11.053 10.3124 11.2371 10.7293 11.5271 11.0517L10.4619 12.1133C9.89861 11.5186 9.54726 10.7237 9.51937 9.85107H11.0252ZM11.6832 11.2129C12.0067 11.5019 12.425 11.6853 12.8879 11.7131V13.2139C12.0123 13.1861 11.2148 12.8359 10.618 12.2745L11.6832 11.2129ZM13.111 11.7076C13.5739 11.6798 13.9921 11.4963 14.3156 11.2073L15.3808 12.269C14.7841 12.8303 13.9866 13.1805 13.111 13.2083V11.7076ZM14.4773 11.0517C14.7673 10.7293 14.9514 10.3124 14.9793 9.85107H16.4851C16.4572 10.7237 16.1058 11.5186 15.5425 12.1133L14.4773 11.0517ZM14.9793 9.62873C14.9514 9.16739 14.7673 8.75051 14.4773 8.42813L15.5425 7.36648C16.1058 7.96123 16.4572 8.75607 16.4851 9.62873H14.9793ZM15.5425 7.04965C14.9012 6.44935 14.0535 6.07138 13.111 6.04359V4.37608C14.5108 4.40387 15.7823 4.97083 16.7249 5.87128L15.5425 7.04965ZM12.8879 6.04359C11.9509 6.07138 11.0977 6.44935 10.4563 7.04965L9.27398 5.87128C10.2165 4.97083 11.4881 4.40387 12.8879 4.37608V6.04359ZM10.3002 7.20529C9.69783 7.8445 9.3186 8.68937 9.29071 9.62873H7.61761C7.6455 8.23358 8.21435 6.96628 9.11783 6.02692L10.3002 7.20529ZM9.29629 9.85107C9.32418 10.7849 9.70341 11.6353 10.3057 12.2745L9.11783 13.4529C8.21435 12.5135 7.6455 11.2462 7.61761 9.85107H9.29629ZM10.4619 12.4301C11.1032 13.0305 11.9509 13.4084 12.8935 13.4362V15.1037C11.4936 15.0759 10.2221 14.509 9.27956 13.6085L10.4619 12.4301ZM13.111 13.4307C14.0479 13.4029 14.9012 13.0249 15.5425 12.4246L16.7249 13.603C15.7823 14.5034 14.5108 15.0704 13.111 15.0982V13.4307ZM15.6987 12.269C16.301 11.6297 16.6802 10.7849 16.7081 9.84551H18.3812C18.3533 11.2407 17.7845 12.508 16.881 13.4473L15.6987 12.269ZM16.7081 9.62873C16.6802 8.69493 16.301 7.8445 15.6987 7.20529L16.881 6.02692C17.7845 6.96628 18.3533 8.23358 18.3812 9.62873H16.7081ZM16.881 5.71565C15.8995 4.77628 14.5721 4.1871 13.111 4.15931V2.68078C14.9793 2.70857 16.6747 3.46451 17.9239 4.67067L16.881 5.71565ZM12.8879 4.15375C11.4267 4.18154 10.0994 4.77073 9.11783 5.71009L8.07493 4.67067C9.32417 3.46451 11.0196 2.70857 12.8879 2.68078V4.15375ZM8.96167 5.87128C8.01916 6.84955 7.42799 8.17244 7.40011 9.62873H5.9222C5.95009 7.76668 6.70856 6.07694 7.91877 4.83187L8.96167 5.87128ZM7.40011 9.85107C7.42799 11.3074 8.01916 12.6302 8.96167 13.6085L7.91877 14.6479C6.70856 13.4029 5.95009 11.7131 5.9222 9.85107H7.40011ZM9.11783 13.7642C10.0994 14.7035 11.4267 15.2927 12.8879 15.3205V16.7935C11.0196 16.7657 9.32417 16.0097 8.07493 14.8036L9.11783 13.7642ZM13.111 15.3261C14.5721 15.2983 15.8995 14.7091 16.881 13.7697L17.9239 14.8091C16.6747 16.0153 14.9793 16.7712 13.111 16.799V15.3261ZM17.0428 13.6085C17.9853 12.6302 18.5764 11.3074 18.6043 9.85107H20.0822C20.0543 11.7131 19.2959 13.4029 18.0857 14.6479L17.0428 13.6085ZM18.6043 9.62873C18.5764 8.17244 17.9853 6.84955 17.0428 5.87128L18.0857 4.83187C19.2959 6.07694 20.0543 7.76668 20.0822 9.62873H18.6043ZM18.0857 4.51504C16.7918 3.26441 15.0462 2.48624 13.111 2.45845V0.790938C15.5035 0.81873 17.673 1.78588 19.268 3.33667L18.0857 4.51504ZM12.8879 2.45845C10.9582 2.48624 9.20706 3.26441 7.91319 4.51504L6.73644 3.33667C8.33147 1.78588 10.5009 0.81873 12.8935 0.790938V2.45845H12.8879ZM7.75704 4.67067C6.50221 5.96021 5.72143 7.69998 5.69354 9.62873H4.02044C4.04833 7.2442 5.01873 5.08199 6.57471 3.4923L7.75704 4.67067ZM5.69912 9.85107C5.72701 11.7743 6.50779 13.5196 7.76261 14.8091L6.57471 15.9819C5.01873 14.3978 4.05391 12.2356 4.02602 9.85107H5.69912ZM7.91877 14.9648C9.21264 16.2154 10.9582 16.9936 12.8935 17.0214V18.6889C10.5009 18.6611 8.33147 17.6939 6.73644 16.1431L7.91877 14.9648ZM13.111 17.0214C15.0406 16.9936 16.7918 16.2154 18.0857 14.9648L19.268 16.1431C17.673 17.6939 15.5035 18.6611 13.111 18.6889V17.0214ZM18.2418 14.8036C19.4966 13.514 20.2774 11.7743 20.3053 9.84551H21.9784C21.9505 12.23 20.9801 14.3922 19.4241 15.9819L18.2418 14.8036ZM20.3053 9.62873C20.2774 7.70554 19.4966 5.96021 18.2418 4.67067L19.4241 3.4923C20.9801 5.08199 21.9505 7.2442 21.9784 9.62873H20.3053Z" fill="#418FDE"/>
<path d="M13.5293 7.61694L13.4735 7.6225V7.6892L13.5293 7.68364V7.61694Z" fill="#418FDE"/>
<path d="M13.4624 7.52808H13.3899V7.58366H13.4624V7.52808Z" fill="#418FDE"/>
<path d="M13.2559 7.51115L13.3228 7.52227L13.3284 7.46668L13.2614 7.45557L13.2559 7.51115Z" fill="#418FDE"/>
<path d="M13.2003 7.48888L13.1389 7.48332L13.1445 7.42773L13.2114 7.43329L13.2003 7.48888Z" fill="#418FDE"/>
<path d="M12.7374 7.41675H12.6649V7.47233H12.7374V7.41675Z" fill="#418FDE"/>
<path d="M12.5031 7.52799L12.57 7.53911L12.5756 7.48353L12.5142 7.47241L12.5031 7.52799Z" fill="#418FDE"/>
<path d="M12.5145 7.61688L12.4364 7.59465L12.4531 7.53906L12.5256 7.5613L12.5145 7.61688Z" fill="#418FDE"/>
<path d="M12.3807 7.68364L12.3695 7.62806L12.4253 7.61694L12.4364 7.67253L12.3807 7.68364Z" fill="#418FDE"/>
<path d="M5.10253 13.4365V13.5588H5.1583L5.14715 13.4199L5.07465 13.3921V13.342H5.03003V13.4365H5.10253Z" fill="#418FDE"/>
<path d="M5.4928 13.7756L5.63222 13.8423L5.67684 13.9702L5.74376 14.0202L5.80511 14.1592L5.77165 14.2259L5.66569 14.1314L5.59318 14.0258L5.55414 13.9424L5.4928 13.7756Z" fill="#418FDE"/>
<path d="M7.83535 16.6602L7.88554 16.7825L7.81862 16.8214L7.77958 16.7658L7.69034 16.738L7.67919 16.6546L7.60669 16.5435L7.71823 16.5601L7.83535 16.6602Z" fill="#418FDE"/>
<path d="M12.7151 8.22255H12.6147L12.598 8.01689L12.6538 7.97798V7.87237H12.3303L12.3192 7.76677L12.3638 7.73897L12.2913 7.71118L12.2355 7.78344L12.2188 7.86682L12.124 7.88349V7.92796H12.057V8.05024L11.7949 8.26702L11.2763 8.25034C11.2372 8.33372 11.148 8.23923 11.148 8.23923C11.1312 8.18364 10.9974 8.23923 10.9974 8.23923C10.9974 8.34484 10.8189 8.19476 10.8189 8.19476L10.4955 7.96131C10.3114 7.79456 10.0326 8.00577 10.0214 8.0558C10.0326 8.1892 9.8095 8.08359 9.8095 8.08359C9.8095 8.08359 9.62546 8.02801 9.59757 8.10027C9.56969 8.17253 9.44699 8.15585 9.44699 8.15585L9.43026 8.19476L9.33545 8.21143L9.31872 8.26702L9.20718 8.28369L9.48603 8.27258C9.55853 8.26146 9.45815 8.43377 9.41353 8.42265L9.28526 8.43377L9.24064 8.47824H9.11795L9.06218 8.55605L8.88372 8.54494C8.88372 8.54494 8.78333 8.62831 8.78891 8.6561C8.80006 8.6839 8.77217 8.76727 8.74429 8.76727C8.7164 8.76727 8.66063 8.85065 8.67737 8.87844C8.6941 8.90623 8.6216 9.00072 8.6216 9.00072L8.60486 9.09521L8.54909 9.11189V9.36757L8.43755 9.44539V9.55656L8.27024 9.73443L8.28698 9.8845L8.14755 10.0346L8.16428 10.1847L8.08063 10.2124L8.0639 10.2791L8.02486 10.4737L8.11967 10.4848C8.16428 10.4681 8.1587 10.6071 8.11967 10.6238C8.08063 10.6404 7.98024 10.6793 8.03601 10.7183C8.09178 10.7572 7.88543 10.746 7.88543 10.6905C7.88543 10.6349 7.77389 10.5849 7.74601 10.6071C7.71812 10.6238 7.67351 10.5237 7.67351 10.5237C7.57312 10.4181 7.25523 10.5348 7.25523 10.5348L7.21061 10.6849C7.11023 10.7016 7.0433 10.8739 7.0433 10.8739C6.95965 10.9017 6.89272 11.0073 6.92061 11.0351C6.94849 11.0629 6.87599 11.074 6.87599 11.074V11.2797L6.83138 11.3464L6.84253 11.5687C6.8983 11.5687 6.88715 11.6743 6.88715 11.6743C6.79234 11.6854 6.81465 11.8077 6.81465 11.8077L6.61945 11.8744L6.58041 11.93L6.3406 11.9189L6.27368 11.9856L6.20675 11.9189H5.74386L5.72713 11.8744L5.63232 11.8577L5.62117 11.7521L5.48174 11.7632L5.45386 11.8188L5.30328 11.8299C5.31443 11.9244 5.1527 12.0634 5.13597 12.0245C5.11924 11.9856 5.01327 11.8855 5.06347 11.8633C5.10808 11.8466 5.23078 11.8244 5.23078 11.8244V11.7577L4.885 11.7466L4.84596 11.8021L4.70654 11.8133V11.9633L4.63961 11.98C4.595 12.0078 4.65077 12.1134 4.65077 12.1134C4.71769 12.1801 4.63961 12.2802 4.63961 12.2802C4.58384 12.3357 4.68423 12.4413 4.68423 12.4413C4.75673 12.458 4.63961 12.5136 4.63961 12.5136C4.65635 12.6081 4.71212 12.6359 4.71212 12.6359C4.65635 12.7304 4.75115 12.7749 4.75115 12.7749L4.76231 12.936L4.82923 12.975V13.0806L4.86827 13.1473H5.01885L5.0077 12.9138C4.87943 12.7637 5.11924 12.7248 5.13039 12.7804C5.14154 12.836 5.24193 12.8638 5.24193 12.8638C5.25866 13.0027 5.4204 13.0861 5.46501 12.9472C5.50963 12.8082 5.54867 12.8916 5.57655 12.9583C5.60444 13.025 5.7829 13.1862 5.7829 13.1862H5.92233L5.93906 13.3196C6.09521 13.3085 6.14541 13.3307 6.20675 13.5419C6.27368 13.7587 6.44656 13.8143 6.44656 13.8143L6.57484 13.8031C6.57484 13.692 6.70311 13.8198 6.70311 13.881C6.70311 13.9365 6.95407 14.1533 6.95407 14.1533L7.20504 14.2089L7.43927 14.3979L7.61774 14.3812H7.69024C7.73485 14.22 7.95793 14.3923 7.98024 14.4479C7.99697 14.5035 8.14755 14.598 8.16428 14.5535C8.18101 14.5091 8.28698 14.5369 8.30371 14.6758C8.32044 14.8148 8.38736 14.787 8.38736 14.787L8.91718 14.7759L9.10122 14.6147L9.57526 14.6036C9.81508 14.5924 9.67007 14.2645 9.61988 14.2645C9.53623 14.1978 9.64777 13.9254 9.64777 13.9254L8.97295 13.2973C8.81679 13.2973 8.95622 13.0694 8.95622 13.0694C9.07891 12.9916 8.92833 12.8749 8.92833 12.8749C8.94506 12.7637 8.86141 12.6303 8.86141 12.6303C8.6941 12.5192 8.73871 12.3024 8.73871 12.3024V12.1523C8.59929 12.0189 8.79448 12.0022 8.79448 12.0022C8.86141 11.8911 8.74987 11.8077 8.74987 11.8077L8.73871 11.6854L8.58813 11.6687L8.5714 11.2296L8.23678 10.7516C8.16986 10.7349 8.22005 10.6182 8.22005 10.6182C8.30371 10.5737 8.20332 10.457 8.20332 10.457L8.19217 10.2514L8.38736 10.2347L8.43198 10.1624H8.52679L8.51563 9.91785C8.56025 9.79557 8.67179 9.86227 8.67179 9.86227L8.80006 9.87339L8.87256 9.73443L8.88929 9.62326L8.78891 9.61214C8.67737 9.54544 8.73314 9.30087 8.73314 9.30087C8.9116 9.03963 9.11237 9.18971 9.11237 9.18971L9.24064 9.17859C9.43584 9.31199 9.25738 9.551 9.25738 9.551C9.21834 9.60658 9.24064 9.78445 9.24064 9.78445L9.28526 10.0846L9.16257 10.1902C9.06218 10.2458 9.06218 10.3792 9.17372 10.407C9.24622 10.4181 9.21834 10.596 9.1068 10.4737C8.93949 10.4737 9.2016 10.6238 9.12353 10.5849C9.29084 10.6682 9.2518 10.5126 9.2518 10.5126L9.47488 10.3347C9.55853 10.268 9.70911 10.4737 9.70911 10.5015C9.70911 10.5293 10.0772 10.5126 10.0772 10.5126C10.1776 10.5793 10.2166 10.746 10.2166 10.746C10.317 10.6126 10.5345 10.7349 10.3728 10.8127C10.5234 10.9072 10.5234 10.9906 10.5234 10.9906C10.646 10.9517 10.646 11.0462 10.646 11.074C10.646 11.1018 10.6851 10.935 10.6851 10.935C10.5457 10.8294 10.8691 10.7961 10.7799 10.9795L10.7241 11.0629L10.8189 11.1351L10.8301 11.3519C11.0364 11.3352 10.9807 11.0796 10.9807 11.0796L11.0755 11.0629C11.0755 10.9795 11.1424 11.024 11.1424 11.024C11.0755 10.7071 11.293 10.6516 11.293 10.6516C11.4157 10.6238 11.4213 10.3681 11.4213 10.3681C11.3376 10.3292 11.3822 10.2013 11.477 10.3125C11.5718 10.4237 11.4213 10.0846 11.4213 10.0846L11.3488 10.0179L11.2484 10.0068L11.2372 9.90118H11.0699L11.042 10.0346L10.9807 10.0624L10.9639 10.0235L10.9361 10.1291H10.7687L10.7576 10.0179L10.858 9.99011L10.897 9.93453L10.9249 9.78445H11.0476L11.2037 9.73998C11.2149 9.57879 11.2986 9.6177 11.2986 9.6177L11.3543 9.66217L11.438 9.72887L11.4491 9.78445L11.3934 9.81224L11.3822 9.89006L11.4101 9.99567H11.4826C11.5105 9.84559 11.7057 9.84559 11.7615 9.94009L11.8172 9.80668C11.6889 9.73998 11.8172 9.63993 11.8507 9.6844C11.8897 9.72887 11.9734 9.56212 11.9734 9.56212C11.9734 9.56212 12.0403 9.64549 11.9734 9.53433C11.9065 9.42316 12.018 9.36757 12.018 9.36757C12.0013 9.25641 12.1407 9.27308 12.1407 9.27308L12.1518 9.12301L12.0236 9.11189C11.9957 9.24529 11.8841 9.12856 11.9399 9.10077C11.9957 9.07298 12.0515 9.0174 12.0515 9.0174V8.92291L12.1072 8.90623L12.1184 8.81174H12.2578L12.3805 8.75615L12.4084 8.71169L12.5367 8.70057L12.7207 8.53382L12.704 8.46156C12.5924 8.46156 12.704 8.37819 12.704 8.37819L12.7151 8.22255Z" fill="#418FDE"/>
<path d="M8.97858 10.0797L8.81127 10.063L8.82243 10.1297H8.86704C8.93954 10.2631 8.8782 10.5799 8.8782 10.5799C8.8782 10.5799 8.76666 10.591 8.74993 10.5355C8.7332 10.4799 8.683 10.6577 8.72204 10.6855C8.76108 10.7133 8.88935 10.6855 8.9005 10.7911C8.91166 10.8967 8.98416 10.7244 8.98416 10.7244L8.97858 10.0797Z" fill="#418FDE"/>
<path d="M8.81128 10.8409V11.0632L8.95628 11.2633L9.01205 11.1299L9.03436 11.0466L8.96744 11.0188L8.97859 10.8798L9.03436 10.8687L9.03994 10.802L8.90051 10.8965L8.81128 10.8409Z" fill="#418FDE"/>
<path d="M9.05102 11.4692V11.3748L8.98409 11.3859L8.97852 11.4581L9.05102 11.4692Z" fill="#418FDE"/>
<path d="M8.96724 11.9192V11.8525L8.88916 11.8637V11.9304L8.96724 11.9192Z" fill="#418FDE"/>
<path d="M9.07884 11.6298C9.10114 11.6298 9.11788 11.6131 9.11788 11.5909C9.11788 11.5687 9.10114 11.552 9.07884 11.552C9.05653 11.552 9.03979 11.5687 9.03979 11.5909C9.03979 11.6131 9.05653 11.6298 9.07884 11.6298Z" fill="#418FDE"/>
<path d="M9.14023 11.8246C9.1618 11.8246 9.17927 11.8072 9.17927 11.7857C9.17927 11.7642 9.1618 11.7468 9.14023 11.7468C9.11867 11.7468 9.1012 11.7642 9.1012 11.7857C9.1012 11.8072 9.11867 11.8246 9.14023 11.8246Z" fill="#418FDE"/>
<path d="M9.14573 10.7519C9.16729 10.7519 9.18477 10.7345 9.18477 10.713C9.18477 10.6915 9.16729 10.6741 9.14573 10.6741C9.12417 10.6741 9.10669 10.6915 9.10669 10.713C9.10669 10.7345 9.12417 10.7519 9.14573 10.7519Z" fill="#418FDE"/>
<path d="M12.1183 9.44015H12.174L12.1852 9.5013L12.1461 9.53465L12.1294 9.58467L12.0569 9.60135L11.8896 9.76254L11.8784 9.8348L11.8338 9.9015L11.7781 10.0405L11.5829 10.0516L11.5438 10.2183L11.5717 10.3628L11.739 10.4295L11.7557 10.335L11.8115 10.3073L11.8227 10.2128L11.8617 10.1461L11.9175 10.0794L11.9342 10.0071L12.029 9.95152L12.1406 9.92929L12.1852 9.87371L12.2019 9.76254L12.2131 9.67916L12.2521 9.61802L12.3636 9.57356V9.39569H12.3079L12.2967 9.32899L12.1963 9.31787L12.174 9.3679H12.1294L12.1183 9.44015Z" fill="#418FDE"/>
<path d="M12.5532 9.96838V9.83498L12.5365 9.7127L12.3971 9.646L12.2967 9.74049L12.2799 9.87389V9.95726L12.1851 9.97394L12.1684 10.2296L12.0959 10.2574L12.1071 10.3519L12.0067 10.3797L11.9063 10.4075L11.8896 10.5298L11.8171 10.5742L11.778 10.6854L11.7334 10.9578C11.7334 10.9578 11.8171 11.119 11.8617 11.0411C11.9063 10.9689 11.9844 10.9578 11.9844 10.9578L12.0122 10.8911L12.2632 10.9022C12.2799 10.7966 12.4026 10.8355 12.4026 10.8855C12.4026 10.93 12.4974 10.8966 12.4974 10.8966L12.5644 10.791H12.6648L12.6759 10.6799L12.7205 10.6521V10.4853C12.8711 10.4408 12.8488 10.2963 12.8488 10.2963L12.8878 10.2519L12.8711 10.1852C12.7986 10.1574 12.8321 10.0907 12.8823 10.1073C12.9269 10.124 12.8153 10.024 12.8153 10.024C12.7596 10.0684 12.715 9.96838 12.715 9.96838H12.5532Z" fill="#418FDE"/>
<path d="M12.7039 11.1021C12.6927 11.2133 12.5533 11.2522 12.5533 11.2522L12.4529 11.2244L12.3971 11.1799L12.386 11.0465L12.4696 11.0354L12.4864 11.091L12.7039 11.1021Z" fill="#418FDE"/>
<path d="M13.2061 10.5015C13.2284 10.5849 13.2228 10.3681 13.2619 10.3793C13.3009 10.3904 13.273 10.2458 13.273 10.2458L13.1057 10.3681C13.1838 10.3793 13.1949 10.4626 13.2061 10.5015Z" fill="#418FDE"/>
<path d="M13.6968 10.0126C13.7359 10.0959 13.7247 10.2182 13.8641 10.3127C13.9087 10.3461 13.8362 10.4072 13.7916 10.3794C13.747 10.3516 13.6132 10.146 13.6132 10.146V10.0237C13.641 9.95142 13.6801 9.97921 13.6968 10.0126Z" fill="#418FDE"/>
<path d="M13.6969 12.864L13.7248 12.8918L13.7527 12.9419L13.814 12.8363L13.7638 12.8196L13.6969 12.864Z" fill="#418FDE"/>
<path d="M14.8064 12.5806L14.8789 12.5306L14.851 12.4861L14.7729 12.5306L14.8064 12.5806Z" fill="#418FDE"/>
<path d="M17.4891 14.5369L17.5728 14.5758L17.5839 14.737C17.6955 14.8482 18.058 14.7537 18.058 14.7259C18.058 14.6981 18.0412 14.3813 18.0412 14.3813L17.9966 14.3368L17.9855 14.1034C18.0245 13.9811 17.807 13.8032 17.7903 13.8421C17.7735 13.881 17.6508 13.8532 17.6508 13.8866C17.6508 13.9255 17.5783 14.1089 17.6118 14.1756C17.6508 14.2423 17.5839 14.2423 17.5728 14.309C17.5616 14.3646 17.4668 14.4758 17.4891 14.5369Z" fill="#418FDE"/>
<path d="M17.283 14.1592C17.2662 14.2315 17.1993 14.2704 17.1603 14.2426C17.1212 14.2148 17.2049 14.287 17.2272 14.3259C17.2439 14.3649 17.2997 14.3649 17.322 14.3259C17.3387 14.287 17.3331 14.2037 17.3499 14.1648C17.3666 14.1314 17.2941 14.1203 17.283 14.1592Z" fill="#418FDE"/>
<path d="M16.9203 12.4417H16.8534V12.6195H16.9203V12.4417Z" fill="#418FDE"/>
<path d="M17.8124 10.635C17.7734 10.5794 17.9965 10.4849 18.0355 10.5961C18.0745 10.7073 18.0355 10.6906 17.9965 10.6795C17.963 10.6684 17.8682 10.7073 17.8124 10.635Z" fill="#418FDE"/>
<path d="M18.0135 9.37915L18.0023 9.43473L18.1027 9.45141L18.1139 9.39583L18.0135 9.37915Z" fill="#418FDE"/>
<path d="M17.751 9.54016L17.7566 9.55684L17.8124 9.5346L17.79 9.49014L17.7789 9.45679L17.751 9.47346L17.6841 9.51237L17.6227 9.47346L17.5948 9.52349L17.6673 9.56795L17.6841 9.57907L17.6952 9.56795L17.751 9.54016Z" fill="#418FDE"/>
<path d="M18.1023 7.25563H17.9629C17.9629 7.25563 18.0075 7.27231 17.8792 7.15002C17.751 7.02774 17.6673 7.17782 17.6673 7.17782L17.5167 7.19449V7.34457L17.4442 7.37236L17.4554 7.46685L17.5558 7.45573C17.5558 7.45573 17.5558 7.5669 17.5836 7.52243C17.6115 7.47797 17.8458 7.53355 17.8235 7.64472C17.8179 7.68919 18.0577 7.81147 18.0298 7.96155C18.1525 7.97822 18.1246 8.1005 18.1246 8.1005L18.2808 8.11718L18.3254 8.02269L18.37 8.0338V7.97822L18.2696 7.95043L18.2529 7.65028L18.186 7.60581L18.2027 7.52799L18.1302 7.5002L18.1692 7.37792L18.1023 7.25563Z" fill="#418FDE"/>
<path d="M18.5096 8.2118L18.4371 8.20068L18.2698 8.22848L18.175 8.40634C18.175 8.40634 18.2196 8.43413 18.2586 8.50083C18.2977 8.56753 18.3144 8.95106 18.2028 9.01776C18.0913 9.08446 18.214 9.04555 18.214 9.04555L18.1973 9.25121C18.2252 9.3457 18.2698 9.29568 18.2977 9.25121C18.3255 9.20675 18.3534 9.19563 18.3925 9.1456C18.4315 9.10114 18.4873 9.0122 18.4928 8.95106C18.504 8.88436 18.5486 8.78431 18.5207 8.75652C18.4928 8.72873 18.5486 8.59533 18.5486 8.59533C18.5486 8.59533 18.5877 8.51751 18.5486 8.44525C18.5096 8.36743 18.5598 8.28406 18.5877 8.25071L18.5096 8.2118Z" fill="#418FDE"/>
<path d="M18.6211 8.59521L18.6267 8.52295L18.6824 8.52851L18.6769 8.60632L18.6211 8.59521Z" fill="#418FDE"/>
<path d="M18.6155 8.85632L18.5653 8.82853L18.5932 8.77295L18.6434 8.80074L18.6155 8.85632Z" fill="#418FDE"/>
<path d="M18.5375 8.11167L18.4984 8.0283C18.4984 8.0283 18.4984 7.95604 18.5152 7.91713C18.5319 7.87822 18.4761 7.84487 18.4482 7.83375C18.4203 7.82264 18.4315 7.75038 18.4203 7.71147C18.4092 7.67256 18.3478 7.64477 18.3478 7.64477C18.3478 7.64477 18.3311 7.50581 18.3311 7.47802C18.3311 7.45023 18.2475 7.41132 18.2753 7.38353C18.3032 7.35574 18.32 7.31683 18.3478 7.30015C18.3757 7.28348 18.32 7.15008 18.3646 7.17787C18.4092 7.20566 18.4092 7.25568 18.4315 7.28903C18.4482 7.32794 18.4203 7.45579 18.4705 7.48358C18.5152 7.51137 18.4594 7.60586 18.5375 7.60586C18.61 7.60586 18.5653 7.78373 18.5653 7.78373C18.5653 7.78373 18.5486 7.91713 18.5932 7.92269C18.6378 7.93381 18.61 8.15614 18.61 8.15614L18.5375 8.11167Z" fill="#418FDE"/>
<path d="M17.9353 6.59443C17.9632 6.63333 18.019 6.66113 18.019 6.70003C18.019 6.73894 18.0022 6.76674 18.058 6.77229C18.1138 6.78341 18.1528 6.76118 18.1695 6.8112C18.1863 6.85567 18.1863 6.93349 18.1807 6.97239C18.1695 7.0113 18.1918 7.06689 18.2365 7.06689C18.2811 7.06689 18.2922 7.078 18.2922 7.1058C18.2922 7.13359 18.348 7.00019 18.348 7.00019C18.3034 6.96128 18.2643 6.8779 18.2643 6.8779C18.2643 6.8779 18.2197 6.7445 18.2197 6.72783C18.2197 6.71115 18.1528 6.68892 18.1249 6.68336C18.097 6.67224 18.0524 6.58887 18.0524 6.58887L17.9353 6.59443Z" fill="#418FDE"/>
<path d="M18.0242 6.50534C17.9963 6.46643 17.9684 6.43864 17.9294 6.42197C17.8904 6.40529 17.8625 6.38306 17.829 6.38306C17.79 6.38306 17.7565 6.34415 17.7732 6.29968C17.79 6.25522 17.7454 6.23298 17.7454 6.19408C17.7454 6.15517 17.7732 6.15517 17.8179 6.18296C17.8625 6.21075 17.8569 6.22187 17.8904 6.26633C17.9294 6.3108 17.9461 6.36083 17.9852 6.34971C18.0242 6.33859 18.0521 6.43308 18.0856 6.40529C18.1246 6.3775 18.1134 6.47199 18.1134 6.47199L18.0242 6.50534Z" fill="#418FDE"/>
<path d="M16.9424 7.56688C16.9926 7.6169 16.6636 7.60578 16.6636 7.56688C16.6636 7.52797 16.6915 7.40012 16.7751 7.42792C16.8588 7.45571 16.8699 7.26117 16.8699 7.26117C16.8699 7.26117 16.7974 7.27228 16.8588 7.23337C16.9257 7.19446 16.8588 7.13888 16.8309 7.11109C16.803 7.0833 16.7751 7.03327 16.7751 7.03327H16.9034C16.9592 6.99436 16.9759 6.8165 16.9759 6.8165C17.0874 6.8554 17.1432 6.77759 17.1432 6.77759C17.1432 6.77759 17.1599 6.83317 17.199 6.8832C17.238 6.92766 17.1042 6.9499 17.1543 6.97769C17.199 7.00548 17.2213 7.08886 17.199 7.11665C17.1822 7.14444 17.0763 7.12776 17.0763 7.08886C17.0763 7.04995 17.0372 7.13332 17.0763 7.18335C17.1153 7.22781 17.0317 7.29452 17.0093 7.29452C16.9926 7.29452 16.8699 7.31119 16.9703 7.37233C17.0707 7.42792 17.1822 7.40012 17.1822 7.40012C17.1822 7.40012 17.2659 7.38901 17.2938 7.43903C17.3217 7.4835 17.2826 7.49462 17.238 7.49462C17.1934 7.49462 16.9703 7.47794 16.9703 7.47794C16.9703 7.47794 16.9145 7.53908 16.9424 7.56688Z" fill="#418FDE"/>
<path d="M16.3456 7.65022C16.3902 7.6391 16.5017 7.63355 16.524 7.66134C16.5408 7.68913 16.4571 7.72804 16.4571 7.72804L16.3456 7.74471C16.3121 7.70025 16.301 7.66134 16.3456 7.65022Z" fill="#418FDE"/>
<path d="M17.5446 6.86695C17.6171 6.82804 17.7788 6.82804 17.7676 6.77245C17.7565 6.71687 17.8624 6.7002 17.8624 6.7002L17.8903 6.81136L17.974 6.86695L17.9851 6.97256C17.9851 6.97256 18.013 6.95588 17.9126 6.98367C17.8123 7.01146 17.8736 7.05593 17.8736 7.05593L17.6505 7.06705L17.6226 6.97256L17.5446 6.86695Z" fill="#418FDE"/>
<path d="M17.1825 6.35503C17.2383 6.35503 17.1658 6.5718 17.3108 6.54957C17.4614 6.5329 17.3219 6.61627 17.4335 6.62183C17.545 6.63295 17.5171 6.53845 17.5562 6.47175C17.5952 6.40505 17.5729 6.36614 17.5116 6.34947C17.4446 6.33279 17.4446 6.33279 17.4279 6.25498C17.4112 6.18272 17.3331 6.16048 17.3331 6.16048L17.3052 6.04932L17.1825 6.12158L17.0598 6.28277C17.0598 6.41617 17.1267 6.35503 17.1825 6.35503Z" fill="#418FDE"/>
<path d="M17.4275 7.15007L17.4554 7.09448L17.5056 7.11672L17.4777 7.17786L17.4275 7.15007Z" fill="#418FDE"/>
<path d="M17.3887 7.06104H17.3329V7.12773H17.3887V7.06104Z" fill="#418FDE"/>
<path d="M17.3774 5.81055L17.3886 5.89392L17.3328 5.89948L17.3217 5.81611L17.3774 5.81055Z" fill="#418FDE"/>
<path d="M17.277 6.68311H17.2212V6.72757H17.277V6.68311Z" fill="#418FDE"/>
<path d="M17.0709 6.68321L17.0653 6.62763L17.1601 6.62207L17.1657 6.67765L17.0709 6.68321Z" fill="#418FDE"/>
<path d="M16.3068 7.58918L16.2566 7.56695L16.2845 7.50024L16.3347 7.52248L16.3068 7.58918Z" fill="#418FDE"/>
<path d="M16.0167 7.41655L16.0111 7.36097L16.1059 7.34985L16.1115 7.40544L16.0167 7.41655Z" fill="#418FDE"/>
<path d="M14.4102 7.40039L14.2039 7.40595L14.2094 7.46153L14.4102 7.45597V7.40039Z" fill="#418FDE"/>
<path d="M14.0702 7.47779L14.0479 7.39442L14.1036 7.3833L14.1204 7.46668L14.0702 7.47779Z" fill="#418FDE"/>
<path d="M14.0311 7.53917L14.0144 7.48359L14.0423 7.47803L14.059 7.52805L14.0311 7.53917Z" fill="#418FDE"/>
<path d="M14.4943 7.37763L14.4832 7.44433L14.5835 7.45544C14.5835 7.45544 14.6282 7.49435 14.6282 7.52214C14.6282 7.54994 14.6951 7.57773 14.7285 7.57773C14.7676 7.57773 14.868 7.49991 14.868 7.49991C14.868 7.49991 14.9126 7.36651 14.8791 7.37763C14.8401 7.38874 14.7676 7.44433 14.7564 7.38874C14.7453 7.33316 14.6337 7.36095 14.6337 7.36095L14.4943 7.37763Z" fill="#418FDE"/>
<path d="M14.9572 7.27783C14.9572 7.30562 14.9405 7.34453 14.9962 7.35565C15.052 7.36676 15.1524 7.31674 15.1635 7.37232C15.1747 7.4279 15.1747 7.46681 15.2472 7.4946C15.3197 7.5224 15.3699 7.53351 15.4257 7.53351C15.4814 7.53351 15.6041 7.51684 15.6041 7.51684C15.6041 7.51684 15.738 7.53907 15.7603 7.5613C15.8607 7.66691 15.9276 7.69471 15.9555 7.64468C15.9834 7.60021 15.9443 7.4946 15.9387 7.4557C15.9276 7.41679 15.7993 7.23892 15.7547 7.27783C15.7101 7.31674 15.6989 7.27783 15.6153 7.30562C15.5316 7.33341 15.3532 7.31674 15.3476 7.27783C15.3364 7.23892 15.2082 7.22224 15.2082 7.18334C15.2082 7.14443 15.1133 7.09996 15.1245 7.15554C15.1357 7.21113 15.0576 7.23892 15.0408 7.22224C15.013 7.20001 14.9572 7.27783 14.9572 7.27783Z" fill="#418FDE"/>
<path d="M17.0875 6.07724L17.1544 5.87158C17.0596 5.8549 17.0819 5.74929 17.0819 5.74929C17.0708 5.66592 16.9425 5.57142 16.8979 5.59922C16.8533 5.62701 16.87 5.40467 16.87 5.40467C16.87 5.40467 16.9536 5.34909 16.9927 5.37688C17.0317 5.40467 16.6748 4.90998 16.6023 4.95445C16.5298 4.99891 16.3625 4.90998 16.3681 4.82105C16.3792 4.73767 16.0334 4.45419 16.0334 4.45419C16.0334 4.45419 15.9219 4.38194 15.9052 4.43752C15.8884 4.4931 15.8494 4.53201 15.9052 4.5598C15.9609 4.58759 15.9498 4.51534 16.0167 4.57648C16.0836 4.64318 16.2007 4.72655 16.1561 4.78214C16.1115 4.83772 16.0557 4.85995 16.0557 4.85995L16.1227 4.93777H16.2231L16.2398 5.09896C16.2398 5.09896 16.3513 5.15455 16.3792 5.22125C16.4071 5.28795 16.4071 5.32686 16.3792 5.36021C16.3513 5.39912 16.2956 5.46582 16.3067 5.52696C16.3179 5.59366 16.3904 5.62145 16.3904 5.62145L16.4629 5.63257L16.5186 5.66036V5.78264C16.5911 5.76597 16.7138 5.86602 16.7027 5.93272C16.6915 5.99942 16.7194 5.96051 16.8142 6.02721C16.909 6.09391 16.8811 6.10503 16.9425 6.14949C17.0038 6.1884 17.0596 6.16061 17.0875 6.07724Z" fill="#418FDE"/>
<path d="M15.5591 4.79872C15.548 4.75981 15.5313 4.63197 15.587 4.63752C15.6428 4.64864 15.6038 4.63752 15.6707 4.66532C15.7376 4.69311 15.7432 4.62085 15.7432 4.62085H15.8436L15.9718 4.72646L15.9551 4.80983L15.8603 4.82095C15.8157 4.74869 15.7209 4.77648 15.7376 4.83763C15.7543 4.90433 15.693 5.02661 15.6539 5.03217C15.6149 5.04328 15.4978 5.04328 15.5034 4.9877C15.5201 4.93212 15.5591 4.79872 15.5591 4.79872Z" fill="#418FDE"/>
<path d="M15.4868 4.54845V4.47619C15.4868 4.47619 15.4756 4.40393 15.431 4.40393C15.3864 4.40393 15.3027 4.34835 15.3195 4.30944C15.3362 4.27053 15.1633 4.23162 15.1633 4.23162C15.1633 4.23162 15.0072 4.08154 15.0629 4.09822C15.1187 4.11489 15.0908 4.03152 15.0908 4.03152C15.0908 4.03152 14.9793 4.04819 14.9514 4.04264C14.9235 4.03152 14.9347 3.94814 14.9347 3.94814C14.9347 3.94814 14.8231 3.92035 14.8231 3.94814C14.8231 3.97593 14.8622 3.97593 14.8789 4.03152C14.8956 4.0871 14.89 4.18159 14.9737 4.19827C15.0574 4.21494 15.0741 4.23718 15.0852 4.27609C15.0964 4.315 15.1968 4.32055 15.1968 4.32055L15.2693 4.35946L15.4868 4.54845Z" fill="#418FDE"/>
<path d="M14.4833 3.59254L14.4554 3.51472L14.3829 3.49805V3.58142L14.4833 3.59254Z" fill="#418FDE"/>
<path d="M14.455 3.19829C14.3602 3.12603 14.5833 3.25387 14.5833 3.25387C14.6558 3.25387 14.706 3.30946 14.706 3.33725C14.706 3.36504 14.8063 3.35392 14.8063 3.35392L14.8175 3.28722L14.745 3.19273L14.6781 3.14826C14.6781 3.14826 14.5777 3.13715 14.5777 3.10935C14.5777 3.08712 14.494 3.22608 14.455 3.19829Z" fill="#418FDE"/>
<path d="M16.1617 3.25371C16.1338 3.33708 16.1227 3.44825 16.0781 3.44825C16.0335 3.44825 16.0502 3.57053 16.0502 3.57053C16.0502 3.57053 16.1729 3.57053 16.2063 3.58165C16.2454 3.59277 16.2454 3.68726 16.2454 3.68726C16.3848 3.67614 16.4406 3.86512 16.4239 3.91515C16.4071 3.95962 16.4796 3.95962 16.4796 3.95962C16.4796 3.95962 16.4796 4.10969 16.4629 4.1486C16.4462 4.18751 16.5856 4.2153 16.619 4.27089C16.6581 4.32647 16.6023 4.51545 16.5744 4.52657C16.5465 4.53769 16.6469 4.56548 16.6414 4.60995C16.6302 4.65441 16.6692 4.60995 16.6804 4.68776C16.6915 4.76002 16.7083 4.92121 16.7083 4.92121L16.8365 4.93233C16.8533 4.81005 17.0931 4.80449 17.1321 4.82116C17.2883 4.87675 17.411 5.12131 17.411 5.1769C17.411 5.23248 17.3106 5.2436 17.3106 5.2436L17.3273 5.51596C17.4835 5.56042 17.6173 5.78832 17.595 5.82723C17.5783 5.86613 17.7066 5.85502 17.7066 5.85502C17.7233 5.68827 17.885 5.74385 17.8906 5.79943C17.9018 5.85502 17.9296 5.9773 17.9296 5.9773L17.9743 6.06068L18.0412 6.12738L18.1416 6.11626L18.1695 6.17184L18.2921 6.18852C18.2921 6.18852 18.3925 6.29969 18.4037 6.32748C18.4148 6.35527 18.5543 6.34415 18.5877 6.35527C18.6268 6.36639 18.6825 6.39418 18.6881 6.43865C18.6993 6.48311 18.755 6.56093 18.755 6.56093C18.755 6.56093 18.8666 6.58872 18.8777 6.62763C18.8889 6.66654 18.9335 6.74991 18.9335 6.74991L19.0283 6.82773L19.0395 6.91111L19.1399 6.92222L19.1677 7.03339L19.335 7.02227L19.4299 6.95557C19.5525 6.88887 19.6362 6.8055 19.6418 6.76659C19.6529 6.72768 19.6697 6.58872 19.7645 6.61651C19.8593 6.64431 19.7924 6.41085 19.7924 6.41085C19.7924 6.41085 19.6641 6.31636 19.6697 6.2719C19.6808 6.22743 19.5414 6.13294 19.547 6.09403C19.5581 6.05512 19.4243 5.98286 19.4354 5.94395C19.4466 5.90504 19.3685 5.80499 19.3685 5.80499L19.2291 5.67159L19.2124 5.58822L19.1008 5.5771L18.8777 5.30474L18.8889 5.22692L18.822 5.21581V5.1102L18.755 5.07129L18.6547 5.06017L18.4483 4.83784L18.4316 4.73223H18.3312L18.3479 4.53769C18.4148 4.45431 18.3758 4.29312 18.3758 4.29312C18.3758 4.29312 18.2475 4.35982 18.1806 4.33203C18.1137 4.30424 18.2085 4.23753 18.2085 4.23753V4.16528L18.1527 4.10969C18.1527 4.10969 17.9966 4.12637 17.9854 4.09858C17.9743 4.07078 17.9464 3.9485 17.9464 3.9485L17.9352 3.78731L17.8683 3.75952L17.8571 3.70393L17.7568 3.71505V3.60388L17.701 3.58721L17.6452 3.55941L17.6341 3.44825L17.4277 3.43713L17.3608 3.34264L17.2883 3.23147L17.0541 3.2148L16.9983 3.15921L16.9035 3.14254L16.8365 3.11475L16.8087 3.15921L16.6302 3.17033L16.619 3.22591C16.541 3.26482 16.1729 3.22591 16.1617 3.25371Z" fill="#418FDE"/>
<path d="M17.1376 3.00901C17.1209 2.93675 17.3216 2.87005 17.3718 2.92564C17.4164 2.98122 17.5503 2.99234 17.567 3.27026C17.5726 3.37031 17.3997 3.16465 17.3997 3.16465L17.2603 3.12018C17.1822 3.1035 17.1432 3.05904 17.1376 3.00901Z" fill="#418FDE"/>
<path d="M14.416 3.12582L14.3658 3.10358L14.4049 3.01465L14.4551 3.04244L14.416 3.12582Z" fill="#418FDE"/>
<path d="M13.9365 2.20327L13.8138 2.08099V1.97538L13.7748 1.93647L13.7357 1.80307L13.613 1.76416L13.4903 1.80863L13.3621 1.892L13.2226 1.90868L13.1501 1.99205L13.4457 2.01984L13.5015 2.11434L13.7134 2.13101L13.8529 2.26997C13.9811 2.32555 14.009 2.26997 13.9365 2.20327Z" fill="#418FDE"/>
<path d="M13.9198 1.74171C13.8975 1.65833 13.7804 1.84732 13.9031 1.88067C14.0257 1.91958 14.1429 1.88067 14.1429 1.88067L14.1707 1.82508L14.6336 1.8362C14.6727 1.79729 14.6894 1.74171 14.6894 1.74171C14.6894 1.74171 14.801 1.7028 14.8456 1.72503C14.8902 1.74171 14.8567 1.59163 14.8065 1.61387C14.7619 1.63054 14.6671 1.62498 14.6671 1.62498H14.4998C14.4886 1.55828 14.3436 1.58608 14.3325 1.62498C14.3269 1.65833 14.2711 1.66945 14.2711 1.66945L14.0592 1.68613C14.0369 1.74171 13.9309 1.78062 13.9198 1.74171Z" fill="#418FDE"/>
<path d="M12.9992 3.32571C13.1442 3.37018 13.1944 3.33683 13.2056 3.29792C13.2167 3.25901 13.2223 3.25345 13.2781 3.24234C13.3338 3.23122 13.2669 3.12005 13.2111 3.13117C13.1554 3.14229 13.0996 3.11449 13.0885 3.06447C13.0773 3.02 12.9881 2.89772 12.9769 2.99221C12.9658 3.0867 12.91 3.0867 12.9211 3.1534C12.9379 3.21455 12.9658 3.3146 12.9992 3.32571Z" fill="#418FDE"/>
<path d="M11.9342 3.43174C11.9286 3.39839 12.1182 3.39283 12.1461 3.42063C12.174 3.44842 12.1573 3.49844 12.2409 3.49844C12.3246 3.49844 12.2856 3.55403 12.28 3.58182C12.2688 3.60961 12.1796 3.59849 12.1684 3.5707C12.1573 3.54291 12.0179 3.53179 12.0179 3.53179C12.0179 3.53179 11.9454 3.47621 11.9342 3.43174Z" fill="#418FDE"/>
<path d="M14.9905 1.53592L15.0129 1.55815L15.0296 1.54147L15.1244 1.46366L15.0854 1.41919L15.0129 1.48033L14.9682 1.43031L14.9292 1.47477L14.9905 1.53592Z" fill="#418FDE"/>
<path d="M14.5776 1.31931L14.5888 1.30819L14.6948 1.24149L14.6613 1.19702L14.5776 1.25261L14.5163 1.2137L14.4884 1.26372L14.5609 1.30819L14.5776 1.31931Z" fill="#418FDE"/>
<path d="M14.243 3.23131L14.3043 3.3258L14.349 3.29245L14.2876 3.1924L14.2765 3.18128H14.2653L14.1705 3.17017L14.1649 3.22575L14.243 3.23131Z" fill="#418FDE"/>
<path d="M11.2093 5.79395L11.2205 5.89955H11.3599C11.4157 5.89955 11.3153 5.83285 11.3153 5.83285C11.3153 5.83285 11.2037 5.84397 11.2093 5.79395Z" fill="#418FDE"/>
<path d="M11.3878 5.79935L11.4213 5.75488L11.4771 5.79935L11.4436 5.84382L11.3878 5.79935Z" fill="#418FDE"/>
<path d="M9.69824 4.04306L9.73728 4.00415L9.79305 4.05973L9.75401 4.09864L9.69824 4.04306Z" fill="#418FDE"/>
<path d="M12.3137 16.1657L12.3527 16.2046L12.3974 16.1602L12.4252 16.1324L12.3918 16.1101L12.297 16.0657L12.2747 16.1157L12.3304 16.1435L12.3137 16.1657Z" fill="#418FDE"/>
<path d="M11.5833 15.4878L11.6502 15.5323L11.6837 15.4878L11.6447 15.46L11.6725 15.4378L11.6391 15.3933L11.5833 15.4433L11.5554 15.4656L11.5833 15.4878Z" fill="#418FDE"/>
<path d="M18.5709 13.659C18.5598 13.609 18.504 13.5923 18.4984 13.5923L18.4817 13.6479C18.4873 13.6479 18.4928 13.6534 18.4984 13.659L18.5096 13.709C18.504 13.7146 18.4984 13.7201 18.4984 13.7257L18.5375 13.7646C18.5653 13.7201 18.5765 13.6923 18.5709 13.659Z" fill="#418FDE"/>
<path d="M18.6545 13.481L18.5653 13.4755L18.5709 13.3921L18.6601 13.4032L18.6545 13.481Z" fill="#418FDE"/>
<path d="M20.8018 12.7529C20.8408 12.7307 20.891 12.6806 20.8854 12.7862C20.8799 12.8919 20.8353 12.8585 20.8018 12.8919C20.7683 12.9252 20.746 12.7862 20.8018 12.7529Z" fill="#418FDE"/>
<path d="M21.2757 12.3525V12.3414C21.2757 12.3247 21.2701 12.3025 21.2589 12.2803L21.2087 12.3081C21.2143 12.3192 21.2143 12.3359 21.2199 12.347C21.2199 12.3636 21.2255 12.3803 21.2366 12.3914C21.2478 12.397 21.2589 12.4026 21.2757 12.397L21.2645 12.3414C21.2645 12.347 21.2701 12.347 21.2757 12.3525Z" fill="#418FDE"/>
<path d="M21.1531 12.397C21.1698 12.4526 21.1865 12.5082 21.1865 12.5138L21.2367 12.4915C21.2367 12.4915 21.2144 12.436 21.2033 12.3804L21.1531 12.397Z" fill="#418FDE"/>
<path d="M20.9467 12.6193L20.891 12.6138C20.8854 12.6582 20.8966 12.7138 20.9412 12.7194L20.9523 12.6638C20.9523 12.6638 20.9467 12.6416 20.9467 12.6193Z" fill="#418FDE"/>
<path d="M20.7067 11.5022C20.7011 11.4856 20.6955 11.4689 20.6788 11.4633C20.6398 11.4467 20.5673 11.4745 20.5338 11.4967L20.5673 11.5412C20.6007 11.5189 20.6509 11.5078 20.6565 11.5134C20.6565 11.5134 20.6565 11.5134 20.6565 11.5078L20.7067 11.5022Z" fill="#418FDE"/>
<path d="M18.1358 8.50609C18.0967 8.545 18.0131 8.56167 18.0131 8.56167L17.9852 8.66728L17.9406 8.70619C17.9406 8.70619 17.9517 8.73398 17.9406 8.80068C17.9294 8.86738 17.8458 8.90629 17.8458 8.90629L17.8067 8.95076C17.8067 8.95076 17.5836 8.96188 17.5558 8.95076C17.4721 8.91185 17.5279 8.80068 17.5836 8.8118C17.6394 8.82292 17.5725 8.65061 17.5725 8.65061L17.645 8.63949C17.645 8.63949 17.6561 8.47274 17.684 8.47274C17.7119 8.47274 17.6729 8.41716 17.6394 8.38936C17.6004 8.36157 17.5558 8.26708 17.5167 8.2782C17.4777 8.28931 17.3327 8.2782 17.3327 8.2782L17.3048 8.33378L17.2044 8.35045C17.2044 8.35045 17.2156 8.42271 17.1932 8.44495C17.1375 8.51165 16.9256 8.65061 17.0148 8.41716L17.0427 8.36157V8.2782L16.8754 8.26708C16.8754 8.26708 16.7917 8.23929 16.7917 8.20038C16.7917 8.16147 16.7806 8.117 16.7806 8.117L16.5854 7.90023L16.3511 7.87244L16.3344 7.82797L16.195 7.81129C16.0277 7.72792 15.8771 7.80018 15.905 7.94469C15.9328 8.08365 15.9775 8.13924 15.8882 8.13924C15.7934 8.13924 15.7767 8.06698 15.7767 8.06698C15.7767 8.06698 15.7042 8.03919 15.7042 8.0781C15.7042 8.117 15.6763 8.18926 15.7042 8.22817C15.7321 8.26708 15.6652 8.32266 15.6373 8.29487C15.6094 8.26708 15.5369 8.1837 15.5536 8.15591C15.5703 8.12812 15.4253 7.95025 15.5703 7.92246C15.7209 7.89467 15.5592 7.81129 15.615 7.78906L15.6875 7.75015H15.76L15.8046 7.71124L15.6819 7.69457L15.6094 7.68345L15.47 7.67233C15.3305 7.76683 15.3026 7.87799 15.3026 7.87799C15.2301 8.01695 15.0517 7.82241 15.1186 7.74459C15.1855 7.66678 14.9123 7.73348 14.8676 7.77239C14.823 7.81129 14.6836 7.78906 14.6836 7.78906C14.6557 7.87244 14.5274 7.77794 14.5609 7.72236C14.5999 7.66678 14.5999 7.62787 14.5999 7.62787L14.5553 7.61675L14.4996 7.72236C14.3713 7.72236 14.3322 7.79462 14.3601 7.84464C14.388 7.88911 14.3211 7.83353 14.3044 7.90023C14.2876 7.96693 14.3155 7.96693 14.3713 7.99472C14.4271 8.02251 14.3434 8.02251 14.3824 8.06698C14.4215 8.11145 14.533 8.06698 14.4661 8.13368C14.3992 8.20038 14.2709 8.17259 14.2709 8.17259C14.2597 8.25596 14.0869 8.23929 14.0646 8.2115C14.0478 8.1837 13.9084 8.01695 13.9084 8.01695L13.7299 8.00584C13.7132 7.87244 13.8136 7.93914 13.8526 7.83909C13.8917 7.73348 13.9084 7.56673 13.9084 7.56673C13.9084 7.56673 13.7578 7.55561 13.7522 7.60563C13.7411 7.6501 13.6519 7.68345 13.6519 7.68345C13.6519 7.68345 13.5794 7.71124 13.6072 7.75015C13.6351 7.78906 13.5515 7.80574 13.5515 7.80574C13.5515 7.80574 13.5682 7.86688 13.5403 7.88911C13.4678 7.96693 13.2782 7.90023 13.2503 7.87244L13.1388 7.82797L13.0272 7.75571L12.899 7.81129L12.8599 7.8502H12.7205L12.7093 7.96137L12.9603 7.98916L12.977 8.22261L12.8767 8.18926H12.8097L12.7818 8.13368L12.7261 8.12256V8.32822L12.7818 8.37269L12.8265 8.41716L12.9213 8.42827L12.938 8.53944L13.1722 8.55056L13.2001 8.59502L13.3395 8.60614L13.6072 8.8785L13.5905 8.96187L13.5459 8.98967C13.5626 9.05637 13.4232 9.01746 13.4232 9.01746V9.07304L13.4901 9.08416L13.557 9.12307L13.6519 8.96187C13.7522 8.89517 13.8024 8.98967 13.808 9.04525C13.8192 9.10083 13.7634 9.08972 13.7634 9.08972V9.22312L13.8192 9.23979C13.914 9.35096 13.7801 9.41766 13.7801 9.41766L13.7522 9.51215C13.7244 9.59553 13.624 9.57885 13.624 9.57885L13.5849 9.63444L13.4734 9.66223L13.6909 9.69002C13.7132 9.6122 13.769 9.59553 13.7969 9.63444C13.8247 9.67335 13.8247 9.74005 13.8247 9.74005L13.8805 9.75116L13.8694 9.85677L13.9251 9.87345V10.1736L13.9921 10.2459C14.1036 10.2014 14.1036 10.2736 14.0478 10.3126C13.9921 10.3515 14.0311 10.5182 14.0311 10.5182L13.9865 10.5627V10.6405L13.9307 10.6794V10.785C13.8359 10.7406 13.7244 10.7572 13.6965 10.785C13.6128 10.7294 13.4344 10.7461 13.4344 10.7961C13.4901 10.8684 13.3674 10.8906 13.3674 10.8906L13.3005 10.9629C13.3451 11.0574 13.2559 11.0685 13.2559 11.0685V11.2464L13.1443 11.352L13.1555 11.5965C13.1555 11.6632 13.2949 11.6688 13.3228 11.6354C13.3507 11.5965 13.4622 11.7133 13.4622 11.7133H13.5459L13.5626 11.5465L13.5069 11.5187V11.2464L13.6017 11.1408C13.7132 11.1018 13.6742 11.3853 13.6742 11.4131C13.6853 11.5187 13.7299 11.5076 13.7745 11.4854C13.8694 11.4465 13.7913 11.591 13.7188 11.5799C13.6463 11.5687 13.6909 11.6744 13.6909 11.6744L13.7355 11.691L13.6519 11.7577L13.5794 11.8411L13.4845 11.8133L13.373 11.8022L13.334 11.7355L13.267 11.7244L13.2559 11.8578L13.2113 11.9134L13.0997 12.0245C13.2503 12.0245 13.083 12.1301 13.044 12.1301C13.1276 12.1579 13.0328 12.2413 12.8209 12.1746V12.2413L12.7484 12.2524L12.8153 12.3247L12.8878 12.3358L12.8599 12.497C12.8599 12.6193 12.5532 12.5359 12.5253 12.5081L12.5141 12.6749L12.4584 12.686L12.4695 12.7971L12.4584 12.9583L12.5588 12.9417V13.0084L12.8097 13.0195L13.1722 12.636L13.3842 12.5915C13.4009 12.497 13.4957 12.6082 13.4957 12.6082C13.5905 12.597 13.6072 12.6637 13.6072 12.6637L13.7299 12.6804C13.8303 12.7082 13.769 12.7193 13.7745 12.7582C13.7857 12.8138 13.8303 12.7971 13.8303 12.7971L13.847 12.6749L13.9028 12.686L13.847 12.6193L13.7467 12.5748L13.6351 12.5303C13.5626 12.4247 13.6519 12.447 13.7299 12.4581H13.8526C13.8526 12.4581 13.9921 12.6471 13.9921 12.6915C13.9921 12.736 14.059 12.7471 14.059 12.7471L14.1426 12.736L14.1705 12.8027H14.2542L14.2821 12.8583H14.4494L14.4605 12.7749L14.3044 12.7471L14.2932 12.6526L14.1817 12.6248C14.1426 12.4636 14.2096 12.4192 14.2542 12.4914L14.3099 12.5026L14.2932 12.3636L14.3601 12.3469L14.3434 12.1524L14.2876 12.1357V12.069L14.5219 12.0801C14.5051 11.9578 14.533 11.9022 14.533 11.9022H14.5999L14.6111 11.9467L14.8955 11.9745L15.0963 11.7466C15.0851 11.7299 15.1186 11.7188 15.0963 11.6966C15.0684 11.6688 15.0294 11.6966 14.9848 11.6688C14.9401 11.641 14.9848 11.4798 14.9736 11.4465C14.9624 11.4076 15.1298 11.352 15.1019 11.4353C15.074 11.5187 15.1019 11.5576 15.1019 11.5576C15.2246 11.4465 15.325 11.5687 15.3138 11.5965C15.3026 11.6243 15.3807 11.6521 15.4253 11.6243C15.47 11.5965 15.5257 11.7077 15.509 11.7633C15.4923 11.8189 15.325 11.8078 15.3138 11.7522C15.3026 11.6966 15.2748 11.7133 15.258 11.7411C15.2413 11.7688 15.1576 11.7855 15.1075 11.7577C15.0963 11.7522 15.0963 11.7466 15.0907 11.7411L14.8899 11.9689H14.9011C15.0126 12.0357 14.9569 12.119 14.9178 12.1357C14.8788 12.1524 14.8174 12.1524 14.8174 12.1524L14.8007 12.1913L14.5609 12.208L14.5442 12.3025C14.4215 12.2858 14.3769 12.4136 14.4047 12.4803C14.4326 12.547 14.4047 12.6026 14.4047 12.6026L14.5051 12.6471L14.6334 12.6082C14.6501 12.5137 14.7338 12.497 14.8119 12.4414C14.8844 12.3858 15.0071 12.547 14.968 12.6193C14.929 12.6915 14.929 12.7249 14.929 12.7249L14.9401 12.8083L14.8453 12.8472L14.7728 12.8861L14.7617 12.9305H14.5107L14.4661 12.975L14.3434 12.9861L14.3044 13.0417L14.2207 13.0528C14.2207 13.0528 14.0813 13.1195 14.1371 13.1918C14.1928 13.2696 13.9028 13.2585 13.8415 13.1529C13.8247 13.2474 13.7188 13.164 13.7188 13.164L13.6184 13.1362L13.6072 12.9972C13.5905 12.9028 13.412 12.9028 13.4232 12.9695C13.4344 13.0362 13.0886 12.9972 13.0886 12.9972L12.977 13.0528L12.8767 13.114L12.8655 13.1584L12.6982 13.1751L12.6257 13.214L12.5978 13.1584H12.5253L12.4528 13.264C12.2576 13.2752 12.0736 13.3863 12.0903 13.4308C12.107 13.4753 12.0178 13.5253 12.0178 13.5253L11.9341 13.5531L11.8784 13.6365L11.7668 13.6754L11.7501 13.8699L11.6943 13.9088V13.9922L11.6274 14.0089V14.0533L11.5326 14.0645L11.5884 14.2034L11.6609 14.2423C11.7891 14.259 11.7334 14.4202 11.7334 14.4202L11.8059 14.4313L11.8449 14.5369L11.9174 14.687C11.9453 14.7982 12.0289 14.7704 12.068 14.7648C12.107 14.7537 12.1405 14.876 12.1405 14.876L12.5086 14.8871C12.5086 14.8871 12.4918 14.926 12.5532 14.9427C12.6201 14.9593 13.044 14.9816 13.0607 14.9538C13.044 14.8704 13.2949 14.8482 13.3953 14.926C13.4957 14.9983 13.6351 14.9538 13.6351 14.9538L13.7745 15.1205L13.8694 15.3262L14.0255 15.3707L14.1371 15.3985L14.1761 15.5597L14.2597 15.5708L14.2876 15.6764C14.388 15.7486 14.2597 15.9098 14.2597 15.9098V16.1155L14.3322 16.1544L14.3211 16.2322L14.4438 16.3545L14.5832 16.3656L14.9346 16.738L15.2134 16.8214L15.258 16.9715L15.3305 16.9604L15.3863 16.9159L15.6094 16.9048L15.7209 16.7992L15.8436 16.7825L16.8754 15.9098L16.7806 15.8542V15.6486C16.9479 15.5263 16.959 15.3095 16.7973 15.2929C16.6802 15.2762 16.7304 15.1539 16.8419 15.1317L16.9088 15.1039V15.0205L17.1207 14.8259V14.6759L16.6579 14.2923C16.4515 14.2201 16.6579 13.7699 16.7973 13.7754C16.9367 13.7865 16.7861 13.0806 16.7861 13.0806L16.7136 13.0417L16.7304 12.8138H16.63L16.4627 13.0306L16.418 13.1807C16.4013 13.3752 15.8269 13.3419 15.799 13.3141C15.7711 13.2863 15.5759 13.2029 15.5759 13.2029C15.5759 13.2029 15.4253 13.0806 15.3975 13.1195C15.3696 13.1584 15.2413 13.0751 15.2413 13.1029C15.2413 13.1306 15.1186 13.0362 15.1186 13.0362L14.9346 12.9695L15.074 12.9417L15.0461 12.8305L15.2859 12.9528C15.3138 12.9917 15.4365 12.9806 15.4365 12.9806L15.4755 13.025C15.4755 13.025 15.548 13.0139 15.5982 13.0695C15.6428 13.1251 15.8882 13.0806 15.8882 13.0806L15.9552 13.1362L16.0555 13.1751L16.3455 13.1862L16.3567 13.0084L16.4125 12.9528L16.4013 12.8416L16.4682 12.786V12.6915L16.524 12.6749L16.5352 12.4692L16.5798 12.4581V12.0079L16.4404 11.8745C16.4292 11.9189 16.2842 11.9189 16.2842 11.9189C16.2842 11.9189 16.2452 11.9856 16.2173 11.9856C16.1894 11.9856 16.2563 12.069 16.234 12.1246C16.2173 12.1802 16.1392 12.1802 16.1392 12.1802L15.9998 12.2191L15.9607 12.2635H15.8102L15.7934 12.1413L15.9607 12.0968L16.0555 12.0523L16.1002 11.9578C16.1113 11.8633 16.2229 11.8745 16.2229 11.8745C16.2229 11.8745 16.4348 11.6966 16.4459 11.6132C16.4571 11.5298 16.5296 11.2964 16.6579 11.2964H16.8977C16.9925 11.2575 16.9646 11.1352 16.9646 11.1352L17.0873 11.1185L17.104 11.1852C17.104 11.1852 17.2713 11.2019 17.2881 11.1741C17.3048 11.1463 17.3438 11.0796 17.3884 11.1074C17.4331 11.1352 17.5836 11.0407 17.5836 11.0407C17.5948 10.974 17.8235 11.0018 17.8235 11.0018L17.8513 10.9184C17.8513 10.9184 17.6952 10.7016 17.6673 10.7016C17.6394 10.7016 17.4888 10.5682 17.4721 10.6183C17.3215 10.5794 17.3327 10.3737 17.3327 10.3737L17.2769 10.2403C17.2769 10.1625 17.1375 10.0068 17.1096 10.0235C16.9702 9.91791 17.0706 9.80119 17.1096 9.79007C17.1486 9.77895 17.2379 9.65111 17.2379 9.65111L17.2825 9.51771L17.4386 9.47324L17.4554 9.35096L17.3717 9.33984C17.3717 9.33984 17.4665 9.17309 17.5111 9.17309C17.5558 9.17309 17.8625 9.17309 17.8904 9.15642C17.9183 9.13974 17.974 8.98967 17.974 8.96187C17.974 8.93408 18.0465 8.92297 18.0744 8.91741C18.1023 8.90629 18.1692 8.83403 18.186 8.79512C18.2362 8.70063 18.1748 8.46718 18.1358 8.50609Z" fill="#418FDE"/>
<path d="M12.9993 11.8855C13.0104 11.8744 13.0272 11.9299 13.055 11.9188C13.0829 11.9133 13.0941 11.9689 13.0662 11.9689C13.0383 11.9689 13.0383 12.0022 13.0383 12.0189C13.0383 12.0356 13.0383 12.0689 13.016 12.0911C12.9937 12.1134 12.977 12.0967 12.9491 12.0856C12.9212 12.0689 12.91 12.0689 12.871 12.0689C12.8375 12.0689 12.8654 12.1245 12.8654 12.1245C12.8654 12.1245 12.7204 12.1189 12.7483 12.0967C12.7762 12.0745 12.8041 12.0689 12.7818 12.0522C12.7595 12.0356 12.7818 12.0244 12.7818 11.9966C12.7818 11.9689 12.8487 11.98 12.832 11.9633C12.8097 11.9411 12.832 11.8632 12.8654 11.9077L12.8877 11.8577C12.8654 11.8355 12.8822 11.8299 12.8375 11.8132C12.7985 11.7965 12.832 11.7132 12.832 11.7132L12.8375 11.6576C12.8487 11.5853 12.9881 11.5798 12.9993 11.6409C13.0049 11.7021 12.9993 11.7465 12.9993 11.7465L13.0383 11.7632C13.0383 11.7632 13.0327 11.8077 12.9993 11.8077C12.9658 11.8077 12.9993 11.8299 12.977 11.8521L12.9993 11.8855Z" fill="#418FDE"/>
<path d="M12.5422 11.9579C12.5645 11.9135 12.6092 11.7356 12.6649 11.7912C12.7207 11.8468 12.7542 11.7912 12.7542 11.7912C12.7542 11.7912 12.782 11.819 12.7653 11.8745C12.7542 11.9301 12.7374 11.9857 12.704 11.9968C12.6705 12.0024 12.6426 12.0246 12.598 12.0302C12.5645 12.0357 12.5422 11.9579 12.5422 11.9579Z" fill="#418FDE"/>
</svg>
