<svg width="18" height="26" viewBox="0 0 18 26" fill="none" xmlns="http://www.w3.org/2000/svg">
<g clip-path="url(#clip0_1494_7773)">
<path d="M17.1234 6.90405L12.1312 1.70386C11.5641 1.11509 10.8047 0.785889 10.0078 0.785889H3C1.34297 0.785889 0 2.18481 0 3.91089L0.000304688 22.6609C0.000304688 24.387 1.34327 25.7859 3.0003 25.7859H15C16.657 25.7859 18 24.387 18 22.6609V9.11108C18 8.28101 17.6859 7.48999 17.1234 6.90405ZM10.5 2.44995C10.7099 2.52642 10.9062 2.63774 11.0681 2.80635L16.0603 8.00654C16.2234 8.17358 16.3312 8.37866 16.4016 8.59839H11.25C10.8375 8.59839 10.5 8.24683 10.5 7.81714V2.44995ZM16.5 22.6609C16.5 23.5222 15.8269 24.2234 15 24.2234H3C2.17313 24.2234 1.5 23.5222 1.5 22.6609V3.91089C1.5 3.04956 2.17313 2.34839 3 2.34839H9V7.81714C9 9.11108 10.0078 10.1609 11.25 10.1609H16.5V22.6609ZM3 13.2859V21.0984C3 21.9612 3.67172 22.6609 4.5 22.6609H13.5C14.3283 22.6609 15 21.9612 15 21.0984V13.2859C15 12.4231 14.3283 11.7234 13.5 11.7234H4.5C3.67172 11.7234 3 12.4216 3 13.2859ZM6 21.0984H4.5V19.5359H6V21.0984ZM6 17.9734H4.5V16.4109H6V17.9734ZM10.5 21.0984H7.5V19.5359H10.5V21.0984ZM10.5 17.9734H7.5V16.4109H10.5V17.9734ZM13.5 21.0984H12V19.5359H13.5V21.0984ZM13.5 17.9734H12V16.4109H13.5V17.9734ZM13.5 14.8484H4.5V13.2859H13.5V14.8484Z" fill="#3F6587"/>
</g>
<defs>
<clipPath id="clip0_1494_7773">
<rect width="18" height="25" fill="white" transform="translate(0 0.785889)"/>
</clipPath>
</defs>
</svg>
