<svg width="44" height="36" viewBox="0 0 44 36" fill="none" xmlns="http://www.w3.org/2000/svg">
<path d="M38.0108 13.1335C36.9223 10.8025 34.5909 9.19604 31.9438 9.19604C29.1387 9.19604 26.728 10.9221 25.7289 13.4685C23.5453 14.2478 22 16.3464 22 18.821C22 21.9656 24.4994 24.5085 27.59 24.5085H37.9033C41.0006 24.5085 43.5 21.9656 43.5 18.821C43.5 15.7175 41.0409 13.1882 38.0108 13.1335ZM37.91 22.321H27.5967C25.6886 22.321 24.15 20.7556 24.15 18.821C24.15 16.9343 25.6147 15.4167 27.4422 15.3347C27.7714 13.0994 29.6527 11.3835 31.9438 11.3835C34.3457 11.3835 36.2941 13.2805 36.4789 15.682C36.9156 15.4684 37.394 15.3231 37.9066 15.3231C39.8114 15.321 41.35 16.8865 41.35 18.821C41.35 20.7556 39.8114 22.321 37.91 22.321ZM27.7042 27.9744L27.7394 28.1563L22.0452 27.0113C21.5364 26.9148 21.1803 27.1062 20.9384 27.4753L17.7 32.3835L14.4669 27.4617C14.2234 27.1028 13.8035 26.9148 13.3664 27.0002L7.67227 28.1453L8.79766 22.3518C8.88164 21.9246 8.70527 21.4802 8.34414 21.2321L3.50664 17.946L8.34414 14.6566C8.70527 14.4088 8.88164 13.9648 8.79766 13.5369L7.67563 7.74683L13.3698 8.89185C13.7427 8.97729 14.2197 8.78589 14.4683 8.43042L17.7 3.50513L20.9337 8.427C21.1773 8.78589 21.5972 8.97388 22.0343 8.88843L29.31 7.4187C29.8979 7.29907 30.2755 6.7269 30.1579 6.13696C30.0487 5.53882 29.4773 5.14575 28.8981 5.27427L22.3225 6.59839L18.5869 0.933105C18.3853 0.634033 18.0494 0.446045 17.7 0.446045C17.3506 0.446045 17.0147 0.634033 16.8131 0.933105L13.0775 6.59839L6.50522 5.27358C6.15181 5.19702 5.79102 5.31665 5.53906 5.573C5.28711 5.82935 5.17759 6.20532 5.24478 6.55601L6.5462 13.2463L0.978711 17.0437C0.684766 17.2488 0.5 17.5769 0.5 17.946C0.5 18.3135 0.684766 18.6467 0.978711 18.8518L6.54654 22.6458L5.24478 29.3347C5.17759 29.6851 5.28677 30.0607 5.53873 30.3177C5.79068 30.5748 6.15181 30.6852 6.50488 30.6168L13.0775 29.2937L16.8064 34.9593C17.0147 35.2546 17.3506 35.446 17.7 35.446C18.0527 35.446 18.3887 35.2581 18.5902 34.959L22.3225 29.2937L28.8901 30.6185C29.2512 30.6954 29.6123 30.5758 29.8562 30.3194C30.1166 30.0631 30.2174 29.6871 30.1502 29.3364L29.8116 27.5625C29.8048 27.5269 29.6437 26.6978 28.7521 26.6909C28.0805 26.6824 27.5698 27.3044 27.7042 27.9744ZM17.1155 12.7644C18.4055 12.6188 19.6115 12.9613 20.579 13.6333C20.9846 13.9152 21.5586 13.8823 21.9704 13.4398C22.4096 12.9676 22.2915 12.1799 21.7626 11.8156C20.1859 10.7341 18.177 10.2488 16.0539 10.7341C13.1783 11.3904 11.035 13.6941 10.5378 16.6541C9.75172 21.3025 13.2052 25.3425 17.7 25.3425C18.7676 25.3425 19.7855 25.105 20.7033 24.6793C21.1127 24.4894 21.5962 23.8173 21.1392 23.1105C20.8448 22.6548 20.2846 22.4712 19.7961 22.6959C19.158 22.9978 18.4458 23.155 17.7 23.155C14.6793 23.155 12.2706 20.4972 12.6085 17.3541C12.8625 14.9724 14.7706 13.031 17.1155 12.7644Z" fill="white"/>
</svg>
