<svg width="11" height="11" viewBox="0 0 11 11" fill="none" xmlns="http://www.w3.org/2000/svg">
<path d="M5.5 3.55356C4.46445 3.55356 3.64258 4.39302 3.64258 5.41098C3.64258 6.42895 4.44727 7.30356 5.5 7.30356C6.55274 7.30356 7.35742 6.46411 7.35742 5.44614C7.35742 4.42817 6.53516 3.55356 5.5 3.55356ZM10.4473 7.22349L9.21289 5.42856L10.4463 3.65102C10.57 3.4728 10.4679 3.22641 10.2544 3.18774L8.12547 2.80298L7.74071 0.67407C7.70213 0.460594 7.45574 0.358445 7.27742 0.482195L5.5 1.73305L3.70508 0.499578C3.52686 0.375906 3.28047 0.477957 3.2418 0.691453L2.875 2.82114L0.745314 3.20591C0.531896 3.24302 0.429767 3.49106 0.553439 3.65122L1.78692 5.44614L0.553517 7.22368C0.429845 7.4019 0.531935 7.64829 0.745392 7.68696L2.8743 8.07173L3.25906 10.2006C3.29764 10.4141 3.54402 10.5163 3.72235 10.3925L5.5 9.15903L7.27754 10.3924C7.4558 10.5161 7.70235 10.4141 7.74082 10.2006L8.12559 8.07169L10.2545 7.68692C10.4688 7.64927 10.5703 7.40122 10.4473 7.22349ZM5.5 7.92856C4.11934 7.92856 3.01758 6.80923 3.01758 5.44614C3.01758 4.06548 4.13692 2.96372 5.5 2.96372C6.86309 2.96372 7.98242 4.08286 7.98242 5.44614C7.98242 6.827 6.88086 7.92856 5.5 7.92856Z" fill="#99B8CC"/>
</svg>
