<svg width="13" height="11" viewBox="0 0 13 11" fill="none" xmlns="http://www.w3.org/2000/svg">
<path d="M2.14823 8.88354H4.18334C4.54966 7.96968 5.4235 7.32085 6.45765 7.32085C7.49179 7.32085 8.36544 7.96987 8.73195 8.88354H10.7671L11.3429 8.04331C11.465 7.86505 11.3642 7.61851 11.1533 7.58003L9.0507 7.19526L8.67196 5.06519C8.63386 4.85171 8.39052 4.74956 8.2144 4.87327L6.4588 6.10687L4.70321 4.87327C4.52719 4.74956 4.28384 4.85165 4.24565 5.06519L3.86563 7.19409L1.76204 7.58081C1.5512 7.61942 1.45032 7.86597 1.5725 8.04409L2.14823 8.88354ZM4.86602 8.88354H8.04889C7.72944 8.32515 7.14032 7.94585 6.45707 7.94585C5.77381 7.94585 5.18623 8.32495 4.86602 8.88354ZM11.5751 9.49097H1.4073C1.15267 9.49097 0.944336 9.71948 0.944336 9.95972C0.944336 10.2351 1.15267 10.446 1.4073 10.446H11.5751C11.8471 10.446 12.0554 10.2351 12.0554 9.95972C12.0554 9.71948 11.8471 9.49097 11.5751 9.49097ZM5.32512 2.80933L5.88261 2.37144V4.19604C5.88261 4.54155 6.15903 4.82104 6.49989 4.82104C6.84075 4.82104 7.11718 4.54155 7.11718 4.19604V2.37144L7.6573 2.80933C7.92292 3.02476 8.31162 2.98022 8.52478 2.71167C8.73793 2.44194 8.69476 2.04878 8.42833 1.83276L6.88512 0.582764C6.85697 0.560068 6.82404 0.548662 6.79329 0.531572C6.76887 0.517877 6.74729 0.501592 6.72099 0.491299C6.65035 0.463363 6.57512 0.446045 6.49989 0.446045C6.42466 0.446045 6.34943 0.463363 6.27806 0.491279C6.25298 0.501592 6.22983 0.517881 6.20668 0.531572C6.17582 0.548662 6.14302 0.560068 6.11409 0.582764L4.57088 1.83276C4.30468 2.04878 4.24488 2.44214 4.47443 2.71167C4.68662 2.9812 5.07628 3.02417 5.32512 2.80933Z" fill="#99B8CC"/>
</svg>
