<svg width="269" height="240" viewBox="0 0 269 240" fill="none" xmlns="http://www.w3.org/2000/svg">
<g clip-path="url(#clip0_1860_22889)">
<rect x="269" y="221.446" width="268.5" height="221" rx="4" transform="rotate(-180 269 221.446)" fill="#99B8CC"/>
<path d="M-9.88025 178.55C-9.88025 178.55 -9.71407 123.246 -10.1222 117.126C11.0376 117.126 31.0647 102.202 52.2847 86.388L52.8779 85.946L52.7499 77.6486C76.05 60.3035 100.869 42.446 130.25 42.446C161.85 42.446 186.196 57.8534 208.022 73.946C208.362 74.1968 208.701 76.2587 209.04 78.3127L210.047 82.6261C233.066 99.7473 253.409 117.126 276.75 117.126C276.915 123.902 275.75 176.446 275.75 176.446C250.115 176.446 227.146 187.927 208.022 198.946L208.022 190.453C186.806 202.727 164.227 206.946 135.25 206.946C96.5584 206.946 81.6011 195.597 52.7499 181.561L52.7499 191.446C37.2346 184.12 18.0739 178.55 -9.88025 178.55Z" fill="#F2F2F2"/>
<rect x="176.75" y="8.44604" width="89" height="25" rx="4" fill="white"/>
<rect x="184.75" y="16.446" width="9" height="9" rx="2" fill="#3F6587"/>
<path d="M203.96 17.939V24.446H203.339C203.243 24.446 203.162 24.431 203.096 24.401C203.033 24.368 202.972 24.314 202.912 24.239L199.514 19.901C199.532 20.099 199.541 20.282 199.541 20.45V24.446H198.475V17.939H199.109C199.16 17.939 199.204 17.942 199.24 17.948C199.279 17.951 199.312 17.96 199.339 17.975C199.369 17.987 199.397 18.0065 199.424 18.0335C199.451 18.0575 199.481 18.0905 199.514 18.1325L202.925 22.4885C202.916 22.3835 202.909 22.28 202.903 22.178C202.897 22.076 202.894 21.9815 202.894 21.8945V17.939H203.96ZM206.324 19.829V24.446H205.208V19.829H206.324ZM206.477 18.4835C206.477 18.5795 206.458 18.6695 206.419 18.7535C206.38 18.8375 206.327 18.911 206.261 18.974C206.198 19.037 206.123 19.088 206.036 19.127C205.949 19.163 205.856 19.181 205.757 19.181C205.661 19.181 205.57 19.163 205.483 19.127C205.399 19.088 205.325 19.037 205.262 18.974C205.199 18.911 205.148 18.8375 205.109 18.7535C205.073 18.6695 205.055 18.5795 205.055 18.4835C205.055 18.3845 205.073 18.2915 205.109 18.2045C205.148 18.1175 205.199 18.0425 205.262 17.9795C205.325 17.9165 205.399 17.867 205.483 17.831C205.57 17.792 205.661 17.7725 205.757 17.7725C205.856 17.7725 205.949 17.792 206.036 17.831C206.123 17.867 206.198 17.9165 206.261 17.9795C206.327 18.0425 206.38 18.1175 206.419 18.2045C206.458 18.2915 206.477 18.3845 206.477 18.4835ZM209.145 22.025C209.283 22.025 209.403 22.007 209.505 21.971C209.607 21.932 209.691 21.8795 209.757 21.8135C209.826 21.7475 209.877 21.668 209.91 21.575C209.946 21.482 209.964 21.38 209.964 21.269C209.964 21.041 209.895 20.861 209.757 20.729C209.622 20.594 209.418 20.5265 209.145 20.5265C208.872 20.5265 208.666 20.594 208.528 20.729C208.393 20.861 208.326 21.041 208.326 21.269C208.326 21.377 208.342 21.4775 208.375 21.5705C208.411 21.6635 208.462 21.7445 208.528 21.8135C208.597 21.8795 208.683 21.932 208.785 21.971C208.89 22.007 209.01 22.025 209.145 22.025ZM210.4 24.653C210.4 24.563 210.373 24.4895 210.319 24.4325C210.265 24.3755 210.192 24.332 210.099 24.302C210.006 24.269 209.896 24.245 209.77 24.23C209.647 24.215 209.515 24.2045 209.374 24.1985C209.236 24.1895 209.092 24.182 208.942 24.176C208.795 24.17 208.651 24.158 208.51 24.14C208.387 24.209 208.287 24.29 208.209 24.383C208.134 24.476 208.096 24.584 208.096 24.707C208.096 24.788 208.116 24.863 208.155 24.932C208.197 25.004 208.261 25.0655 208.348 25.1165C208.438 25.1675 208.554 25.2065 208.695 25.2335C208.836 25.2635 209.008 25.2785 209.212 25.2785C209.419 25.2785 209.598 25.262 209.748 25.229C209.898 25.199 210.021 25.1555 210.117 25.0985C210.216 25.0445 210.288 24.9785 210.333 24.9005C210.378 24.8255 210.4 24.743 210.4 24.653ZM211.507 19.9865V20.4005C211.507 20.5325 211.428 20.6135 211.269 20.6435L210.855 20.72C210.918 20.879 210.949 21.053 210.949 21.242C210.949 21.47 210.903 21.677 210.81 21.863C210.72 22.046 210.594 22.202 210.432 22.331C210.27 22.46 210.078 22.5605 209.856 22.6325C209.637 22.7015 209.4 22.736 209.145 22.736C209.055 22.736 208.968 22.7315 208.884 22.7225C208.8 22.7135 208.717 22.7015 208.636 22.6865C208.492 22.7735 208.42 22.871 208.42 22.979C208.42 23.072 208.462 23.141 208.546 23.186C208.633 23.228 208.747 23.258 208.888 23.276C209.029 23.294 209.19 23.306 209.37 23.312C209.55 23.315 209.734 23.324 209.923 23.339C210.112 23.354 210.297 23.381 210.477 23.42C210.657 23.456 210.817 23.5145 210.958 23.5955C211.099 23.6765 211.212 23.7875 211.296 23.9285C211.383 24.0665 211.426 24.245 211.426 24.464C211.426 24.668 211.375 24.866 211.273 25.058C211.174 25.25 211.029 25.421 210.837 25.571C210.648 25.721 210.414 25.841 210.135 25.931C209.859 26.024 209.544 26.0705 209.19 26.0705C208.842 26.0705 208.539 26.036 208.281 25.967C208.023 25.901 207.808 25.811 207.637 25.697C207.466 25.586 207.339 25.457 207.255 25.31C207.171 25.163 207.129 25.01 207.129 24.851C207.129 24.635 207.193 24.455 207.322 24.311C207.454 24.164 207.634 24.047 207.862 23.96C207.739 23.897 207.642 23.813 207.57 23.708C207.498 23.603 207.462 23.465 207.462 23.294C207.462 23.225 207.474 23.1545 207.498 23.0825C207.525 23.0075 207.562 22.934 207.61 22.862C207.661 22.79 207.724 22.7225 207.799 22.6595C207.874 22.5935 207.963 22.535 208.065 22.484C207.831 22.358 207.646 22.19 207.511 21.98C207.379 21.77 207.313 21.524 207.313 21.242C207.313 21.014 207.358 20.8085 207.448 20.6255C207.541 20.4395 207.669 20.282 207.831 20.153C207.996 20.021 208.189 19.9205 208.411 19.8515C208.636 19.7825 208.881 19.748 209.145 19.748C209.343 19.748 209.529 19.769 209.703 19.811C209.877 19.85 210.036 19.9085 210.18 19.9865H211.507ZM213.324 20.324C213.504 20.156 213.702 20.0195 213.918 19.9145C214.134 19.8095 214.387 19.757 214.678 19.757C214.93 19.757 215.154 19.8005 215.349 19.8875C215.544 19.9715 215.706 20.0915 215.835 20.2475C215.967 20.4005 216.066 20.585 216.132 20.801C216.201 21.014 216.235 21.2495 216.235 21.5075V24.446H215.124V21.5075C215.124 21.2255 215.059 21.008 214.93 20.855C214.801 20.699 214.605 20.621 214.341 20.621C214.149 20.621 213.969 20.6645 213.801 20.7515C213.633 20.8385 213.474 20.957 213.324 21.107V24.446H212.212V17.759H213.324V20.324ZM218.77 24.518C218.368 24.518 218.059 24.4055 217.843 24.1805C217.63 23.9525 217.523 23.639 217.523 23.24V20.6615H217.051C216.991 20.6615 216.94 20.642 216.898 20.603C216.856 20.564 216.835 20.5055 216.835 20.4275V19.9865L217.577 19.865L217.811 18.605C217.826 18.545 217.855 18.4985 217.897 18.4655C217.939 18.4325 217.993 18.416 218.059 18.416H218.635V19.8695H219.868V20.6615H218.635V23.1635C218.635 23.3075 218.669 23.42 218.738 23.501C218.81 23.582 218.908 23.6225 219.031 23.6225C219.1 23.6225 219.157 23.615 219.202 23.6C219.25 23.582 219.29 23.564 219.323 23.546C219.359 23.528 219.391 23.5115 219.418 23.4965C219.445 23.4785 219.472 23.4695 219.499 23.4695C219.532 23.4695 219.559 23.4785 219.58 23.4965C219.601 23.5115 219.623 23.5355 219.647 23.5685L219.98 24.1085C219.818 24.2435 219.632 24.3455 219.422 24.4145C219.212 24.4835 218.995 24.518 218.77 24.518Z" fill="#333333"/>
<rect x="228.75" y="16.446" width="9" height="9" rx="2" fill="#F3F6F9"/>
<path d="M248.253 21.1925C248.253 21.6695 248.173 22.1075 248.014 22.5065C247.855 22.9055 247.632 23.249 247.344 23.537C247.056 23.825 246.709 24.0485 246.304 24.2075C245.899 24.3665 245.449 24.446 244.954 24.446H242.475V17.939H244.954C245.449 17.939 245.899 18.02 246.304 18.182C246.709 18.341 247.056 18.5645 247.344 18.8525C247.632 19.1375 247.855 19.4795 248.014 19.8785C248.173 20.2775 248.253 20.7155 248.253 21.1925ZM247.011 21.1925C247.011 20.8355 246.963 20.516 246.867 20.234C246.774 19.949 246.637 19.709 246.457 19.514C246.28 19.316 246.064 19.1645 245.809 19.0595C245.557 18.9545 245.272 18.902 244.954 18.902H243.69V23.483H244.954C245.272 23.483 245.557 23.4305 245.809 23.3255C246.064 23.2205 246.28 23.0705 246.457 22.8755C246.637 22.6775 246.774 22.4375 246.867 22.1555C246.963 21.8705 247.011 21.5495 247.011 21.1925ZM251.47 22.475C251.149 22.49 250.879 22.5185 250.66 22.5605C250.441 22.5995 250.266 22.6505 250.134 22.7135C250.002 22.7765 249.907 22.85 249.85 22.934C249.793 23.018 249.765 23.1095 249.765 23.2085C249.765 23.4035 249.822 23.543 249.936 23.627C250.053 23.711 250.204 23.753 250.39 23.753C250.618 23.753 250.815 23.7125 250.98 23.6315C251.148 23.5475 251.311 23.4215 251.47 23.2535V22.475ZM248.923 20.4725C249.454 19.9865 250.093 19.7435 250.84 19.7435C251.11 19.7435 251.352 19.7885 251.565 19.8785C251.778 19.9655 251.958 20.0885 252.105 20.2475C252.252 20.4035 252.363 20.591 252.438 20.81C252.516 21.029 252.555 21.269 252.555 21.53V24.446H252.051C251.946 24.446 251.865 24.431 251.808 24.401C251.751 24.368 251.706 24.3035 251.673 24.2075L251.574 23.8745C251.457 23.9795 251.343 24.0725 251.232 24.1535C251.121 24.2315 251.005 24.2975 250.885 24.3515C250.765 24.4055 250.636 24.446 250.498 24.473C250.363 24.503 250.213 24.518 250.048 24.518C249.853 24.518 249.673 24.4925 249.508 24.4415C249.343 24.3875 249.201 24.308 249.081 24.203C248.961 24.098 248.868 23.9675 248.802 23.8115C248.736 23.6555 248.703 23.474 248.703 23.267C248.703 23.15 248.722 23.0345 248.761 22.9205C248.8 22.8035 248.863 22.6925 248.95 22.5875C249.04 22.4825 249.156 22.3835 249.297 22.2905C249.438 22.1975 249.61 22.1165 249.814 22.0475C250.021 21.9785 250.261 21.923 250.534 21.881C250.807 21.836 251.119 21.809 251.47 21.8V21.53C251.47 21.221 251.404 20.993 251.272 20.846C251.14 20.696 250.95 20.621 250.701 20.621C250.521 20.621 250.371 20.642 250.251 20.684C250.134 20.726 250.03 20.774 249.94 20.828C249.85 20.879 249.768 20.9255 249.693 20.9675C249.621 21.0095 249.54 21.0305 249.45 21.0305C249.372 21.0305 249.306 21.011 249.252 20.972C249.198 20.93 249.154 20.882 249.121 20.828L248.923 20.4725ZM257.664 19.829L255.148 25.715C255.115 25.793 255.072 25.8515 255.018 25.8905C254.967 25.9325 254.887 25.9535 254.779 25.9535H253.951L254.815 24.0995L252.948 19.829H253.924C254.011 19.829 254.079 19.85 254.127 19.892C254.178 19.934 254.215 19.982 254.239 20.036L255.22 22.43C255.253 22.511 255.28 22.592 255.301 22.673C255.325 22.754 255.348 22.8365 255.369 22.9205C255.396 22.8365 255.423 22.754 255.45 22.673C255.477 22.589 255.507 22.5065 255.54 22.4255L256.467 20.036C256.491 19.976 256.53 19.9265 256.584 19.8875C256.641 19.8485 256.704 19.829 256.773 19.829H257.664Z" fill="#333333"/>
</g>
<path d="M4.06 232.876C4.06 233.283 4.01 233.649 3.91 233.976C3.81 234.303 3.66 234.581 3.46 234.811C3.26333 235.041 3.01667 235.218 2.72 235.341C2.42333 235.464 2.07833 235.526 1.685 235.526C1.505 235.526 1.32833 235.514 1.155 235.491C0.981667 235.471 0.8 235.438 0.61 235.391C0.62 235.258 0.631667 235.124 0.645 234.991C0.658333 234.858 0.67 234.724 0.68 234.591C0.69 234.518 0.718333 234.459 0.765 234.416C0.815 234.369 0.885 234.346 0.975 234.346C1.03167 234.346 1.105 234.358 1.195 234.381C1.28833 234.404 1.405 234.416 1.545 234.416C1.735 234.416 1.90333 234.389 2.05 234.336C2.19667 234.279 2.31833 234.191 2.415 234.071C2.515 233.951 2.59 233.796 2.64 233.606C2.69 233.413 2.715 233.179 2.715 232.906V228.216H4.06V232.876ZM7.94109 233.256C7.58443 233.273 7.28443 233.304 7.04109 233.351C6.79776 233.394 6.60276 233.451 6.45609 233.521C6.30943 233.591 6.20443 233.673 6.14109 233.766C6.07776 233.859 6.04609 233.961 6.04609 234.071C6.04609 234.288 6.10943 234.443 6.23609 234.536C6.36609 234.629 6.53443 234.676 6.74109 234.676C6.99443 234.676 7.21276 234.631 7.39609 234.541C7.58276 234.448 7.76443 234.308 7.94109 234.121V233.256ZM5.11109 231.031C5.70109 230.491 6.41109 230.221 7.24109 230.221C7.54109 230.221 7.80943 230.271 8.04609 230.371C8.28276 230.468 8.48276 230.604 8.64609 230.781C8.80943 230.954 8.93276 231.163 9.01609 231.406C9.10276 231.649 9.14609 231.916 9.14609 232.206V235.446H8.58609C8.46943 235.446 8.37943 235.429 8.31609 235.396C8.25276 235.359 8.20276 235.288 8.16609 235.181L8.05609 234.811C7.92609 234.928 7.79943 235.031 7.67609 235.121C7.55276 235.208 7.42443 235.281 7.29109 235.341C7.15776 235.401 7.01443 235.446 6.86109 235.476C6.71109 235.509 6.54443 235.526 6.36109 235.526C6.14443 235.526 5.94443 235.498 5.76109 235.441C5.57776 235.381 5.41943 235.293 5.28609 235.176C5.15276 235.059 5.04943 234.914 4.97609 234.741C4.90276 234.568 4.86609 234.366 4.86609 234.136C4.86609 234.006 4.88776 233.878 4.93109 233.751C4.97443 233.621 5.04443 233.498 5.14109 233.381C5.24109 233.264 5.36943 233.154 5.52609 233.051C5.68276 232.948 5.87443 232.858 6.10109 232.781C6.33109 232.704 6.59776 232.643 6.90109 232.596C7.20443 232.546 7.55109 232.516 7.94109 232.506V232.206C7.94109 231.863 7.86776 231.609 7.72109 231.446C7.57443 231.279 7.36276 231.196 7.08609 231.196C6.88609 231.196 6.71943 231.219 6.58609 231.266C6.45609 231.313 6.34109 231.366 6.24109 231.426C6.14109 231.483 6.04943 231.534 5.96609 231.581C5.88609 231.628 5.79609 231.651 5.69609 231.651C5.60943 231.651 5.53609 231.629 5.47609 231.586C5.41609 231.539 5.36776 231.486 5.33109 231.426L5.11109 231.031ZM11.4642 230.946C11.5676 230.843 11.6759 230.748 11.7892 230.661C11.9059 230.571 12.0276 230.496 12.1542 230.436C12.2842 230.373 12.4226 230.324 12.5692 230.291C12.7159 230.254 12.8759 230.236 13.0492 230.236C13.3292 230.236 13.5776 230.284 13.7942 230.381C14.0109 230.474 14.1909 230.608 14.3342 230.781C14.4809 230.951 14.5909 231.156 14.6642 231.396C14.7409 231.633 14.7792 231.894 14.7792 232.181V235.446H13.5442V232.181C13.5442 231.868 13.4726 231.626 13.3292 231.456C13.1859 231.283 12.9676 231.196 12.6742 231.196C12.4609 231.196 12.2609 231.244 12.0742 231.341C11.8876 231.438 11.7109 231.569 11.5442 231.736V235.446H10.3092V230.316H11.0642C11.2242 230.316 11.3292 230.391 11.3792 230.541L11.4642 230.946Z" fill="#333333"/>
<path d="M23.2458 229.286V231.426H25.9558V232.501H23.2458V235.446H21.8958V228.216H26.4558V229.286H23.2458ZM30.2207 232.291C30.2207 232.131 30.1973 231.981 30.1507 231.841C30.1073 231.698 30.0407 231.573 29.9507 231.466C29.8607 231.359 29.7457 231.276 29.6057 231.216C29.469 231.153 29.309 231.121 29.1257 231.121C28.769 231.121 28.4873 231.223 28.2807 231.426C28.0773 231.629 27.9473 231.918 27.8907 232.291H30.2207ZM27.8657 233.036C27.8857 233.299 27.9323 233.528 28.0057 233.721C28.079 233.911 28.1757 234.069 28.2957 234.196C28.4157 234.319 28.5573 234.413 28.7207 234.476C28.8873 234.536 29.0707 234.566 29.2707 234.566C29.4707 234.566 29.6423 234.543 29.7857 234.496C29.9323 234.449 30.059 234.398 30.1657 234.341C30.2757 234.284 30.3707 234.233 30.4507 234.186C30.534 234.139 30.614 234.116 30.6907 234.116C30.794 234.116 30.8707 234.154 30.9207 234.231L31.2757 234.681C31.139 234.841 30.9857 234.976 30.8157 235.086C30.6457 235.193 30.4673 235.279 30.2807 235.346C30.0973 235.409 29.909 235.454 29.7157 235.481C29.5257 235.508 29.3407 235.521 29.1607 235.521C28.804 235.521 28.4723 235.463 28.1657 235.346C27.859 235.226 27.5923 235.051 27.3657 234.821C27.139 234.588 26.9607 234.301 26.8307 233.961C26.7007 233.618 26.6357 233.221 26.6357 232.771C26.6357 232.421 26.6923 232.093 26.8057 231.786C26.919 231.476 27.0807 231.208 27.2907 230.981C27.504 230.751 27.7623 230.569 28.0657 230.436C28.3723 230.303 28.7173 230.236 29.1007 230.236C29.424 230.236 29.7223 230.288 29.9957 230.391C30.269 230.494 30.504 230.646 30.7007 230.846C30.8973 231.043 31.0507 231.286 31.1607 231.576C31.274 231.863 31.3307 232.191 31.3307 232.561C31.3307 232.748 31.3107 232.874 31.2707 232.941C31.2307 233.004 31.154 233.036 31.0407 233.036H27.8657ZM33.4925 234.116C33.6325 234.286 33.7841 234.406 33.9475 234.476C34.1141 234.546 34.2891 234.581 34.4725 234.581C34.6625 234.581 34.8325 234.548 34.9825 234.481C35.1358 234.411 35.2658 234.304 35.3725 234.161C35.4791 234.014 35.5608 233.829 35.6175 233.606C35.6741 233.379 35.7025 233.109 35.7025 232.796C35.7025 232.233 35.6091 231.826 35.4225 231.576C35.2358 231.323 34.9675 231.196 34.6175 231.196C34.3808 231.196 34.1741 231.251 33.9975 231.361C33.8208 231.468 33.6525 231.619 33.4925 231.816V234.116ZM33.4925 230.946C33.6991 230.729 33.9275 230.558 34.1775 230.431C34.4308 230.301 34.7191 230.236 35.0425 230.236C35.3391 230.236 35.6058 230.294 35.8425 230.411C36.0825 230.528 36.2858 230.696 36.4525 230.916C36.6225 231.133 36.7525 231.396 36.8425 231.706C36.9325 232.016 36.9775 232.364 36.9775 232.751C36.9775 233.168 36.9258 233.546 36.8225 233.886C36.7191 234.226 36.5708 234.518 36.3775 234.761C36.1875 235.001 35.9575 235.188 35.6875 235.321C35.4175 235.454 35.1175 235.521 34.7875 235.521C34.6275 235.521 34.4825 235.504 34.3525 235.471C34.2225 235.441 34.1025 235.398 33.9925 235.341C33.8825 235.284 33.7808 235.216 33.6875 235.136C33.5975 235.053 33.5108 234.961 33.4275 234.861L33.3725 235.206C33.3525 235.293 33.3175 235.354 33.2675 235.391C33.2208 235.428 33.1558 235.446 33.0725 235.446H32.2575V228.016H33.4925V230.946Z" fill="#333333"/>
<path d="M52.3269 228.216V235.446H51.1419V230.776C51.1419 230.589 51.1519 230.388 51.1719 230.171L48.9869 234.276C48.8836 234.473 48.7252 234.571 48.5119 234.571H48.3219C48.1086 234.571 47.9502 234.473 47.8469 234.276L45.6369 230.156C45.6469 230.266 45.6552 230.374 45.6619 230.481C45.6686 230.588 45.6719 230.686 45.6719 230.776V235.446H44.4869V228.216H45.5019C45.5619 228.216 45.6136 228.218 45.6569 228.221C45.7002 228.224 45.7386 228.233 45.7719 228.246C45.8086 228.259 45.8402 228.281 45.8669 228.311C45.8969 228.341 45.9252 228.381 45.9519 228.431L48.1169 232.446C48.1736 232.553 48.2252 232.663 48.2719 232.776C48.3219 232.889 48.3702 233.006 48.4169 233.126C48.4636 233.003 48.5119 232.884 48.5619 232.771C48.6119 232.654 48.6652 232.543 48.7219 232.436L50.8569 228.431C50.8836 228.381 50.9119 228.341 50.9419 228.311C50.9719 228.281 51.0036 228.259 51.0369 228.246C51.0736 228.233 51.1136 228.224 51.1569 228.221C51.2002 228.218 51.2519 228.216 51.3119 228.216H52.3269ZM56.3281 233.256C55.9714 233.273 55.6714 233.304 55.4281 233.351C55.1847 233.394 54.9897 233.451 54.8431 233.521C54.6964 233.591 54.5914 233.673 54.5281 233.766C54.4647 233.859 54.4331 233.961 54.4331 234.071C54.4331 234.288 54.4964 234.443 54.6231 234.536C54.7531 234.629 54.9214 234.676 55.1281 234.676C55.3814 234.676 55.5997 234.631 55.7831 234.541C55.9697 234.448 56.1514 234.308 56.3281 234.121V233.256ZM53.4981 231.031C54.0881 230.491 54.7981 230.221 55.6281 230.221C55.9281 230.221 56.1964 230.271 56.4331 230.371C56.6697 230.468 56.8697 230.604 57.0331 230.781C57.1964 230.954 57.3197 231.163 57.4031 231.406C57.4897 231.649 57.5331 231.916 57.5331 232.206V235.446H56.9731C56.8564 235.446 56.7664 235.429 56.7031 235.396C56.6397 235.359 56.5897 235.288 56.5531 235.181L56.4431 234.811C56.3131 234.928 56.1864 235.031 56.0631 235.121C55.9397 235.208 55.8114 235.281 55.6781 235.341C55.5447 235.401 55.4014 235.446 55.2481 235.476C55.0981 235.509 54.9314 235.526 54.7481 235.526C54.5314 235.526 54.3314 235.498 54.1481 235.441C53.9647 235.381 53.8064 235.293 53.6731 235.176C53.5397 235.059 53.4364 234.914 53.3631 234.741C53.2897 234.568 53.2531 234.366 53.2531 234.136C53.2531 234.006 53.2747 233.878 53.3181 233.751C53.3614 233.621 53.4314 233.498 53.5281 233.381C53.6281 233.264 53.7564 233.154 53.9131 233.051C54.0697 232.948 54.2614 232.858 54.4881 232.781C54.7181 232.704 54.9847 232.643 55.2881 232.596C55.5914 232.546 55.9381 232.516 56.3281 232.506V232.206C56.3281 231.863 56.2547 231.609 56.1081 231.446C55.9614 231.279 55.7497 231.196 55.4731 231.196C55.2731 231.196 55.1064 231.219 54.9731 231.266C54.8431 231.313 54.7281 231.366 54.6281 231.426C54.5281 231.483 54.4364 231.534 54.3531 231.581C54.2731 231.628 54.1831 231.651 54.0831 231.651C53.9964 231.651 53.9231 231.629 53.8631 231.586C53.8031 231.539 53.7547 231.486 53.7181 231.426L53.4981 231.031ZM59.8612 231.206C60.0212 230.899 60.2112 230.659 60.4312 230.486C60.6512 230.309 60.9112 230.221 61.2112 230.221C61.4478 230.221 61.6378 230.273 61.7812 230.376L61.7012 231.301C61.6845 231.361 61.6595 231.404 61.6262 231.431C61.5962 231.454 61.5545 231.466 61.5012 231.466C61.4512 231.466 61.3762 231.458 61.2762 231.441C61.1795 231.424 61.0845 231.416 60.9912 231.416C60.8545 231.416 60.7328 231.436 60.6262 231.476C60.5195 231.516 60.4228 231.574 60.3362 231.651C60.2528 231.724 60.1778 231.814 60.1112 231.921C60.0478 232.028 59.9878 232.149 59.9312 232.286V235.446H58.6962V230.316H59.4212C59.5478 230.316 59.6362 230.339 59.6862 230.386C59.7362 230.429 59.7695 230.509 59.7862 230.626L59.8612 231.206Z" fill="#333333"/>
<path d="M72.8977 232.716L72.0177 230.311C71.9744 230.204 71.9294 230.078 71.8827 229.931C71.836 229.784 71.7894 229.626 71.7427 229.456C71.6994 229.626 71.6544 229.786 71.6077 229.936C71.561 230.083 71.516 230.211 71.4727 230.321L70.5977 232.716H72.8977ZM75.2727 235.446H74.2327C74.116 235.446 74.021 235.418 73.9477 235.361C73.8744 235.301 73.8194 235.228 73.7827 235.141L73.2427 233.666H70.2477L69.7077 235.141C69.681 235.218 69.6294 235.288 69.5527 235.351C69.476 235.414 69.381 235.446 69.2677 235.446H68.2177L71.0627 228.216H72.4327L75.2727 235.446ZM77.0513 234.116C77.1913 234.286 77.343 234.406 77.5063 234.476C77.673 234.546 77.853 234.581 78.0463 234.581C78.233 234.581 78.4013 234.546 78.5513 234.476C78.7013 234.406 78.828 234.299 78.9313 234.156C79.038 234.013 79.1196 233.833 79.1763 233.616C79.233 233.396 79.2613 233.138 79.2613 232.841C79.2613 232.541 79.2363 232.288 79.1863 232.081C79.1396 231.871 79.0713 231.701 78.9813 231.571C78.8913 231.441 78.7813 231.346 78.6513 231.286C78.5246 231.226 78.3796 231.196 78.2163 231.196C77.9596 231.196 77.7413 231.251 77.5613 231.361C77.3813 231.468 77.2113 231.619 77.0513 231.816V234.116ZM76.9863 231.016C77.1963 230.779 77.4346 230.588 77.7013 230.441C77.968 230.294 78.2813 230.221 78.6413 230.221C78.9213 230.221 79.1763 230.279 79.4063 230.396C79.6396 230.513 79.8396 230.683 80.0063 230.906C80.1763 231.126 80.3063 231.399 80.3963 231.726C80.4896 232.049 80.5363 232.421 80.5363 232.841C80.5363 233.224 80.4846 233.579 80.3813 233.906C80.278 234.233 80.1296 234.516 79.9363 234.756C79.7463 234.996 79.5146 235.184 79.2413 235.321C78.9713 235.454 78.668 235.521 78.3313 235.521C78.0446 235.521 77.7996 235.478 77.5963 235.391C77.393 235.301 77.2113 235.178 77.0513 235.021V237.121H75.8163V230.316H76.5713C76.7313 230.316 76.8363 230.391 76.8863 230.541L76.9863 231.016ZM82.6649 231.206C82.8249 230.899 83.0149 230.659 83.2349 230.486C83.4549 230.309 83.7149 230.221 84.0149 230.221C84.2516 230.221 84.4416 230.273 84.5849 230.376L84.5049 231.301C84.4882 231.361 84.4632 231.404 84.4299 231.431C84.3999 231.454 84.3582 231.466 84.3049 231.466C84.2549 231.466 84.1799 231.458 84.0799 231.441C83.9832 231.424 83.8882 231.416 83.7949 231.416C83.6582 231.416 83.5366 231.436 83.4299 231.476C83.3232 231.516 83.2266 231.574 83.1399 231.651C83.0566 231.724 82.9816 231.814 82.9149 231.921C82.8516 232.028 82.7916 232.149 82.7349 232.286V235.446H81.4999V230.316H82.2249C82.3516 230.316 82.4399 230.339 82.4899 230.386C82.5399 230.429 82.5732 230.509 82.5899 230.626L82.6649 231.206Z" fill="#333333"/>
<path d="M99.5085 228.216V235.446H98.3235V230.776C98.3235 230.589 98.3335 230.388 98.3535 230.171L96.1685 234.276C96.0652 234.473 95.9069 234.571 95.6935 234.571H95.5035C95.2902 234.571 95.1319 234.473 95.0285 234.276L92.8185 230.156C92.8285 230.266 92.8369 230.374 92.8435 230.481C92.8502 230.588 92.8535 230.686 92.8535 230.776V235.446H91.6685V228.216H92.6835C92.7435 228.216 92.7952 228.218 92.8385 228.221C92.8819 228.224 92.9202 228.233 92.9535 228.246C92.9902 228.259 93.0219 228.281 93.0485 228.311C93.0785 228.341 93.1069 228.381 93.1335 228.431L95.2985 232.446C95.3552 232.553 95.4069 232.663 95.4535 232.776C95.5035 232.889 95.5519 233.006 95.5985 233.126C95.6452 233.003 95.6935 232.884 95.7435 232.771C95.7935 232.654 95.8469 232.543 95.9035 232.436L98.0385 228.431C98.0652 228.381 98.0935 228.341 98.1235 228.311C98.1535 228.281 98.1852 228.259 98.2185 228.246C98.2552 228.233 98.2952 228.224 98.3385 228.221C98.3819 228.218 98.4335 228.216 98.4935 228.216H99.5085ZM103.51 233.256C103.153 233.273 102.853 233.304 102.61 233.351C102.366 233.394 102.171 233.451 102.025 233.521C101.878 233.591 101.773 233.673 101.71 233.766C101.646 233.859 101.615 233.961 101.615 234.071C101.615 234.288 101.678 234.443 101.805 234.536C101.935 234.629 102.103 234.676 102.31 234.676C102.563 234.676 102.781 234.631 102.965 234.541C103.151 234.448 103.333 234.308 103.51 234.121V233.256ZM100.68 231.031C101.27 230.491 101.98 230.221 102.81 230.221C103.11 230.221 103.378 230.271 103.615 230.371C103.851 230.468 104.051 230.604 104.215 230.781C104.378 230.954 104.501 231.163 104.585 231.406C104.671 231.649 104.715 231.916 104.715 232.206V235.446H104.155C104.038 235.446 103.948 235.429 103.885 235.396C103.821 235.359 103.771 235.288 103.735 235.181L103.625 234.811C103.495 234.928 103.368 235.031 103.245 235.121C103.121 235.208 102.993 235.281 102.86 235.341C102.726 235.401 102.583 235.446 102.43 235.476C102.28 235.509 102.113 235.526 101.93 235.526C101.713 235.526 101.513 235.498 101.33 235.441C101.146 235.381 100.988 235.293 100.855 235.176C100.721 235.059 100.618 234.914 100.545 234.741C100.471 234.568 100.435 234.366 100.435 234.136C100.435 234.006 100.456 233.878 100.5 233.751C100.543 233.621 100.613 233.498 100.71 233.381C100.81 233.264 100.938 233.154 101.095 233.051C101.251 232.948 101.443 232.858 101.67 232.781C101.9 232.704 102.166 232.643 102.47 232.596C102.773 232.546 103.12 232.516 103.51 232.506V232.206C103.51 231.863 103.436 231.609 103.29 231.446C103.143 231.279 102.931 231.196 102.655 231.196C102.455 231.196 102.288 231.219 102.155 231.266C102.025 231.313 101.91 231.366 101.81 231.426C101.71 231.483 101.618 231.534 101.535 231.581C101.455 231.628 101.365 231.651 101.265 231.651C101.178 231.651 101.105 231.629 101.045 231.586C100.985 231.539 100.936 231.486 100.9 231.426L100.68 231.031ZM110.391 230.316L107.596 236.856C107.56 236.943 107.511 237.008 107.451 237.051C107.395 237.098 107.306 237.121 107.186 237.121H106.266L107.226 235.061L105.151 230.316H106.236C106.333 230.316 106.408 230.339 106.461 230.386C106.518 230.433 106.56 230.486 106.586 230.546L107.676 233.206C107.713 233.296 107.743 233.386 107.766 233.476C107.793 233.566 107.818 233.658 107.841 233.751C107.871 233.658 107.901 233.566 107.931 233.476C107.961 233.383 107.995 233.291 108.031 233.201L109.061 230.546C109.088 230.479 109.131 230.424 109.191 230.381C109.255 230.338 109.325 230.316 109.401 230.316H110.391Z" fill="#333333"/>
<path d="M120.015 232.876C120.015 233.283 119.965 233.649 119.865 233.976C119.765 234.303 119.615 234.581 119.415 234.811C119.218 235.041 118.971 235.218 118.675 235.341C118.378 235.464 118.033 235.526 117.64 235.526C117.46 235.526 117.283 235.514 117.11 235.491C116.936 235.471 116.755 235.438 116.565 235.391C116.575 235.258 116.586 235.124 116.6 234.991C116.613 234.858 116.625 234.724 116.635 234.591C116.645 234.518 116.673 234.459 116.72 234.416C116.77 234.369 116.84 234.346 116.93 234.346C116.986 234.346 117.06 234.358 117.15 234.381C117.243 234.404 117.36 234.416 117.5 234.416C117.69 234.416 117.858 234.389 118.005 234.336C118.151 234.279 118.273 234.191 118.37 234.071C118.47 233.951 118.545 233.796 118.595 233.606C118.645 233.413 118.67 233.179 118.67 232.906V228.216H120.015V232.876ZM125.645 230.316V235.446H124.89C124.726 235.446 124.623 235.371 124.58 235.221L124.495 234.811C124.285 235.024 124.053 235.198 123.8 235.331C123.546 235.461 123.248 235.526 122.905 235.526C122.625 235.526 122.376 235.479 122.16 235.386C121.946 235.289 121.766 235.154 121.62 234.981C121.473 234.808 121.361 234.603 121.285 234.366C121.211 234.126 121.175 233.863 121.175 233.576V230.316H122.41V233.576C122.41 233.889 122.481 234.133 122.625 234.306C122.771 234.476 122.99 234.561 123.28 234.561C123.493 234.561 123.693 234.514 123.88 234.421C124.066 234.324 124.243 234.193 124.41 234.026V230.316H125.645ZM128.024 230.946C128.128 230.843 128.236 230.748 128.349 230.661C128.466 230.571 128.588 230.496 128.714 230.436C128.844 230.373 128.983 230.324 129.129 230.291C129.276 230.254 129.436 230.236 129.609 230.236C129.889 230.236 130.138 230.284 130.354 230.381C130.571 230.474 130.751 230.608 130.894 230.781C131.041 230.951 131.151 231.156 131.224 231.396C131.301 231.633 131.339 231.894 131.339 232.181V235.446H130.104V232.181C130.104 231.868 130.033 231.626 129.889 231.456C129.746 231.283 129.528 231.196 129.234 231.196C129.021 231.196 128.821 231.244 128.634 231.341C128.448 231.438 128.271 231.569 128.104 231.736V235.446H126.869V230.316H127.624C127.784 230.316 127.889 230.391 127.939 230.541L128.024 230.946Z" fill="#333333"/>
<path d="M141.605 232.876C141.605 233.283 141.555 233.649 141.455 233.976C141.355 234.303 141.205 234.581 141.005 234.811C140.809 235.041 140.562 235.218 140.265 235.341C139.969 235.464 139.624 235.526 139.23 235.526C139.05 235.526 138.874 235.514 138.7 235.491C138.527 235.471 138.345 235.438 138.155 235.391C138.165 235.258 138.177 235.124 138.19 234.991C138.204 234.858 138.215 234.724 138.225 234.591C138.235 234.518 138.264 234.459 138.31 234.416C138.36 234.369 138.43 234.346 138.52 234.346C138.577 234.346 138.65 234.358 138.74 234.381C138.834 234.404 138.95 234.416 139.09 234.416C139.28 234.416 139.449 234.389 139.595 234.336C139.742 234.279 139.864 234.191 139.96 234.071C140.06 233.951 140.135 233.796 140.185 233.606C140.235 233.413 140.26 233.179 140.26 232.906V228.216H141.605V232.876ZM147.236 230.316V235.446H146.481C146.317 235.446 146.214 235.371 146.171 235.221L146.086 234.811C145.876 235.024 145.644 235.198 145.391 235.331C145.137 235.461 144.839 235.526 144.496 235.526C144.216 235.526 143.967 235.479 143.751 235.386C143.537 235.289 143.357 235.154 143.211 234.981C143.064 234.808 142.952 234.603 142.876 234.366C142.802 234.126 142.766 233.863 142.766 233.576V230.316H144.001V233.576C144.001 233.889 144.072 234.133 144.216 234.306C144.362 234.476 144.581 234.561 144.871 234.561C145.084 234.561 145.284 234.514 145.471 234.421C145.657 234.324 145.834 234.193 146.001 234.026V230.316H147.236ZM149.71 228.016V235.446H148.475V228.016H149.71Z" fill="#333333"/>
<path d="M161.261 232.716L160.381 230.311C160.338 230.204 160.293 230.078 160.246 229.931C160.2 229.784 160.153 229.626 160.106 229.456C160.063 229.626 160.018 229.786 159.971 229.936C159.925 230.083 159.88 230.211 159.836 230.321L158.961 232.716H161.261ZM163.636 235.446H162.596C162.48 235.446 162.385 235.418 162.311 235.361C162.238 235.301 162.183 235.228 162.146 235.141L161.606 233.666H158.611L158.071 235.141C158.045 235.218 157.993 235.288 157.916 235.351C157.84 235.414 157.745 235.446 157.631 235.446H156.581L159.426 228.216H160.796L163.636 235.446ZM168.493 230.316V235.446H167.738C167.574 235.446 167.471 235.371 167.428 235.221L167.343 234.811C167.133 235.024 166.901 235.198 166.648 235.331C166.394 235.461 166.096 235.526 165.753 235.526C165.473 235.526 165.224 235.479 165.008 235.386C164.794 235.289 164.614 235.154 164.468 234.981C164.321 234.808 164.209 234.603 164.133 234.366C164.059 234.126 164.023 233.863 164.023 233.576V230.316H165.258V233.576C165.258 233.889 165.329 234.133 165.473 234.306C165.619 234.476 165.838 234.561 166.128 234.561C166.341 234.561 166.541 234.514 166.728 234.421C166.914 234.324 167.091 234.193 167.258 234.026V230.316H168.493ZM171.592 232.756C171.746 232.756 171.879 232.736 171.992 232.696C172.106 232.653 172.199 232.594 172.272 232.521C172.349 232.448 172.406 232.359 172.442 232.256C172.482 232.153 172.502 232.039 172.502 231.916C172.502 231.663 172.426 231.463 172.272 231.316C172.122 231.166 171.896 231.091 171.592 231.091C171.289 231.091 171.061 231.166 170.907 231.316C170.757 231.463 170.682 231.663 170.682 231.916C170.682 232.036 170.701 232.148 170.737 232.251C170.777 232.354 170.834 232.444 170.907 232.521C170.984 232.594 171.079 232.653 171.192 232.696C171.309 232.736 171.442 232.756 171.592 232.756ZM172.987 235.676C172.987 235.576 172.957 235.494 172.897 235.431C172.837 235.368 172.756 235.319 172.652 235.286C172.549 235.249 172.427 235.223 172.287 235.206C172.151 235.189 172.004 235.178 171.847 235.171C171.694 235.161 171.534 235.153 171.367 235.146C171.204 235.139 171.044 235.126 170.887 235.106C170.751 235.183 170.639 235.273 170.552 235.376C170.469 235.479 170.427 235.599 170.427 235.736C170.427 235.826 170.449 235.909 170.492 235.986C170.539 236.066 170.611 236.134 170.707 236.191C170.807 236.248 170.936 236.291 171.092 236.321C171.249 236.354 171.441 236.371 171.667 236.371C171.897 236.371 172.096 236.353 172.262 236.316C172.429 236.283 172.566 236.234 172.672 236.171C172.782 236.111 172.862 236.038 172.912 235.951C172.962 235.868 172.987 235.776 172.987 235.676ZM174.217 230.491V230.951C174.217 231.098 174.129 231.188 173.952 231.221L173.492 231.306C173.562 231.483 173.597 231.676 173.597 231.886C173.597 232.139 173.546 232.369 173.442 232.576C173.342 232.779 173.202 232.953 173.022 233.096C172.842 233.239 172.629 233.351 172.382 233.431C172.139 233.508 171.876 233.546 171.592 233.546C171.492 233.546 171.396 233.541 171.302 233.531C171.209 233.521 171.117 233.508 171.027 233.491C170.867 233.588 170.787 233.696 170.787 233.816C170.787 233.919 170.834 233.996 170.927 234.046C171.024 234.093 171.151 234.126 171.307 234.146C171.464 234.166 171.642 234.179 171.842 234.186C172.042 234.189 172.247 234.199 172.457 234.216C172.667 234.233 172.872 234.263 173.072 234.306C173.272 234.346 173.451 234.411 173.607 234.501C173.764 234.591 173.889 234.714 173.982 234.871C174.079 235.024 174.127 235.223 174.127 235.466C174.127 235.693 174.071 235.913 173.957 236.126C173.847 236.339 173.686 236.529 173.472 236.696C173.262 236.863 173.002 236.996 172.692 237.096C172.386 237.199 172.036 237.251 171.642 237.251C171.256 237.251 170.919 237.213 170.632 237.136C170.346 237.063 170.107 236.963 169.917 236.836C169.727 236.713 169.586 236.569 169.492 236.406C169.399 236.243 169.352 236.073 169.352 235.896C169.352 235.656 169.424 235.456 169.567 235.296C169.714 235.133 169.914 235.003 170.167 234.906C170.031 234.836 169.922 234.743 169.842 234.626C169.762 234.509 169.722 234.356 169.722 234.166C169.722 234.089 169.736 234.011 169.762 233.931C169.792 233.848 169.834 233.766 169.887 233.686C169.944 233.606 170.014 233.531 170.097 233.461C170.181 233.388 170.279 233.323 170.392 233.266C170.132 233.126 169.927 232.939 169.777 232.706C169.631 232.473 169.557 232.199 169.557 231.886C169.557 231.633 169.607 231.404 169.707 231.201C169.811 230.994 169.952 230.819 170.132 230.676C170.316 230.529 170.531 230.418 170.777 230.341C171.027 230.264 171.299 230.226 171.592 230.226C171.812 230.226 172.019 230.249 172.212 230.296C172.406 230.339 172.582 230.404 172.742 230.491H174.217Z" fill="#333333"/>
<path d="M184.882 229.531C184.842 229.601 184.799 229.653 184.752 229.686C184.709 229.716 184.654 229.731 184.587 229.731C184.517 229.731 184.441 229.706 184.357 229.656C184.277 229.603 184.181 229.544 184.067 229.481C183.954 229.418 183.821 229.361 183.667 229.311C183.517 229.258 183.339 229.231 183.132 229.231C182.946 229.231 182.782 229.254 182.642 229.301C182.502 229.344 182.384 229.406 182.287 229.486C182.194 229.566 182.124 229.663 182.077 229.776C182.031 229.886 182.007 230.008 182.007 230.141C182.007 230.311 182.054 230.453 182.147 230.566C182.244 230.679 182.371 230.776 182.527 230.856C182.684 230.936 182.862 231.008 183.062 231.071C183.262 231.134 183.467 231.203 183.677 231.276C183.887 231.346 184.092 231.429 184.292 231.526C184.492 231.619 184.671 231.739 184.827 231.886C184.984 232.029 185.109 232.206 185.202 232.416C185.299 232.626 185.347 232.881 185.347 233.181C185.347 233.508 185.291 233.814 185.177 234.101C185.067 234.384 184.904 234.633 184.687 234.846C184.474 235.056 184.212 235.223 183.902 235.346C183.592 235.466 183.237 235.526 182.837 235.526C182.607 235.526 182.381 235.503 182.157 235.456C181.934 235.413 181.719 235.349 181.512 235.266C181.309 235.183 181.117 235.083 180.937 234.966C180.757 234.849 180.597 234.719 180.457 234.576L180.852 233.931C180.886 233.884 180.929 233.846 180.982 233.816C181.036 233.783 181.092 233.766 181.152 233.766C181.236 233.766 181.326 233.801 181.422 233.871C181.519 233.938 181.634 234.013 181.767 234.096C181.901 234.179 182.056 234.256 182.232 234.326C182.412 234.393 182.627 234.426 182.877 234.426C183.261 234.426 183.557 234.336 183.767 234.156C183.977 233.973 184.082 233.711 184.082 233.371C184.082 233.181 184.034 233.026 183.937 232.906C183.844 232.786 183.719 232.686 183.562 232.606C183.406 232.523 183.227 232.453 183.027 232.396C182.827 232.339 182.624 232.278 182.417 232.211C182.211 232.144 182.007 232.064 181.807 231.971C181.607 231.878 181.429 231.756 181.272 231.606C181.116 231.456 180.989 231.269 180.892 231.046C180.799 230.819 180.752 230.541 180.752 230.211C180.752 229.948 180.804 229.691 180.907 229.441C181.014 229.191 181.167 228.969 181.367 228.776C181.567 228.583 181.814 228.428 182.107 228.311C182.401 228.194 182.737 228.136 183.117 228.136C183.544 228.136 183.937 228.203 184.297 228.336C184.657 228.469 184.964 228.656 185.217 228.896L184.882 229.531ZM189.611 232.291C189.611 232.131 189.588 231.981 189.541 231.841C189.498 231.698 189.431 231.573 189.341 231.466C189.251 231.359 189.136 231.276 188.996 231.216C188.859 231.153 188.699 231.121 188.516 231.121C188.159 231.121 187.878 231.223 187.671 231.426C187.468 231.629 187.338 231.918 187.281 232.291H189.611ZM187.256 233.036C187.276 233.299 187.323 233.528 187.396 233.721C187.469 233.911 187.566 234.069 187.686 234.196C187.806 234.319 187.948 234.413 188.111 234.476C188.278 234.536 188.461 234.566 188.661 234.566C188.861 234.566 189.033 234.543 189.176 234.496C189.323 234.449 189.449 234.398 189.556 234.341C189.666 234.284 189.761 234.233 189.841 234.186C189.924 234.139 190.004 234.116 190.081 234.116C190.184 234.116 190.261 234.154 190.311 234.231L190.666 234.681C190.529 234.841 190.376 234.976 190.206 235.086C190.036 235.193 189.858 235.279 189.671 235.346C189.488 235.409 189.299 235.454 189.106 235.481C188.916 235.508 188.731 235.521 188.551 235.521C188.194 235.521 187.863 235.463 187.556 235.346C187.249 235.226 186.983 235.051 186.756 234.821C186.529 234.588 186.351 234.301 186.221 233.961C186.091 233.618 186.026 233.221 186.026 232.771C186.026 232.421 186.083 232.093 186.196 231.786C186.309 231.476 186.471 231.208 186.681 230.981C186.894 230.751 187.153 230.569 187.456 230.436C187.763 230.303 188.108 230.236 188.491 230.236C188.814 230.236 189.113 230.288 189.386 230.391C189.659 230.494 189.894 230.646 190.091 230.846C190.288 231.043 190.441 231.286 190.551 231.576C190.664 231.863 190.721 232.191 190.721 232.561C190.721 232.748 190.701 232.874 190.661 232.941C190.621 233.004 190.544 233.036 190.431 233.036H187.256ZM192.883 234.116C193.023 234.286 193.175 234.406 193.338 234.476C193.505 234.546 193.685 234.581 193.878 234.581C194.065 234.581 194.233 234.546 194.383 234.476C194.533 234.406 194.66 234.299 194.763 234.156C194.87 234.013 194.951 233.833 195.008 233.616C195.065 233.396 195.093 233.138 195.093 232.841C195.093 232.541 195.068 232.288 195.018 232.081C194.971 231.871 194.903 231.701 194.813 231.571C194.723 231.441 194.613 231.346 194.483 231.286C194.356 231.226 194.211 231.196 194.048 231.196C193.791 231.196 193.573 231.251 193.393 231.361C193.213 231.468 193.043 231.619 192.883 231.816V234.116ZM192.818 231.016C193.028 230.779 193.266 230.588 193.533 230.441C193.8 230.294 194.113 230.221 194.473 230.221C194.753 230.221 195.008 230.279 195.238 230.396C195.471 230.513 195.671 230.683 195.838 230.906C196.008 231.126 196.138 231.399 196.228 231.726C196.321 232.049 196.368 232.421 196.368 232.841C196.368 233.224 196.316 233.579 196.213 233.906C196.11 234.233 195.961 234.516 195.768 234.756C195.578 234.996 195.346 235.184 195.073 235.321C194.803 235.454 194.5 235.521 194.163 235.521C193.876 235.521 193.631 235.478 193.428 235.391C193.225 235.301 193.043 235.178 192.883 235.021V237.121H191.648V230.316H192.403C192.563 230.316 192.668 230.391 192.718 230.541L192.818 231.016Z" fill="#333333"/>
<path d="M210.518 231.831C210.518 232.361 210.43 232.853 210.253 233.306C210.08 233.756 209.833 234.146 209.513 234.476C209.193 234.806 208.808 235.064 208.358 235.251C207.908 235.434 207.408 235.526 206.858 235.526C206.311 235.526 205.813 235.434 205.363 235.251C204.913 235.064 204.526 234.806 204.203 234.476C203.883 234.146 203.635 233.756 203.458 233.306C203.281 232.853 203.193 232.361 203.193 231.831C203.193 231.301 203.281 230.811 203.458 230.361C203.635 229.908 203.883 229.516 204.203 229.186C204.526 228.856 204.913 228.599 205.363 228.416C205.813 228.229 206.311 228.136 206.858 228.136C207.225 228.136 207.57 228.179 207.893 228.266C208.216 228.349 208.513 228.469 208.783 228.626C209.053 228.779 209.295 228.968 209.508 229.191C209.725 229.411 209.908 229.658 210.058 229.931C210.208 230.204 210.321 230.501 210.398 230.821C210.478 231.141 210.518 231.478 210.518 231.831ZM209.143 231.831C209.143 231.434 209.09 231.079 208.983 230.766C208.876 230.449 208.725 230.181 208.528 229.961C208.331 229.741 208.091 229.573 207.808 229.456C207.528 229.339 207.211 229.281 206.858 229.281C206.505 229.281 206.186 229.339 205.903 229.456C205.623 229.573 205.383 229.741 205.183 229.961C204.986 230.181 204.835 230.449 204.728 230.766C204.621 231.079 204.568 231.434 204.568 231.831C204.568 232.228 204.621 232.584 204.728 232.901C204.835 233.214 204.986 233.481 205.183 233.701C205.383 233.918 205.623 234.084 205.903 234.201C206.186 234.318 206.505 234.376 206.858 234.376C207.211 234.376 207.528 234.318 207.808 234.201C208.091 234.084 208.331 233.918 208.528 233.701C208.725 233.481 208.876 233.214 208.983 232.901C209.09 232.584 209.143 232.228 209.143 231.831ZM212.661 228.016V232.271H212.891C212.974 232.271 213.039 232.261 213.086 232.241C213.136 232.218 213.186 232.173 213.236 232.106L214.511 230.531C214.564 230.461 214.623 230.408 214.686 230.371C214.753 230.334 214.838 230.316 214.941 230.316H216.071L214.476 232.221C214.363 232.371 214.239 232.486 214.106 232.566C214.176 232.616 214.238 232.674 214.291 232.741C214.348 232.808 214.401 232.879 214.451 232.956L216.161 235.446H215.046C214.949 235.446 214.866 235.431 214.796 235.401C214.726 235.368 214.668 235.309 214.621 235.226L213.311 233.281C213.264 233.204 213.216 233.154 213.166 233.131C213.116 233.108 213.041 233.096 212.941 233.096H212.661V235.446H211.426V228.016H212.661ZM218.478 235.526C218.031 235.526 217.688 235.401 217.448 235.151C217.211 234.898 217.093 234.549 217.093 234.106V231.241H216.568C216.501 231.241 216.445 231.219 216.398 231.176C216.351 231.133 216.328 231.068 216.328 230.981V230.491L217.153 230.356L217.413 228.956C217.43 228.889 217.461 228.838 217.508 228.801C217.555 228.764 217.615 228.746 217.688 228.746H218.328V230.361H219.698V231.241H218.328V234.021C218.328 234.181 218.366 234.306 218.443 234.396C218.523 234.486 218.631 234.531 218.768 234.531C218.845 234.531 218.908 234.523 218.958 234.506C219.011 234.486 219.056 234.466 219.093 234.446C219.133 234.426 219.168 234.408 219.198 234.391C219.228 234.371 219.258 234.361 219.288 234.361C219.325 234.361 219.355 234.371 219.378 234.391C219.401 234.408 219.426 234.434 219.453 234.471L219.823 235.071C219.643 235.221 219.436 235.334 219.203 235.411C218.97 235.488 218.728 235.526 218.478 235.526Z" fill="#333333"/>
<path d="M233.309 228.216V235.446H232.619C232.513 235.446 232.423 235.429 232.349 235.396C232.279 235.359 232.211 235.299 232.144 235.216L228.369 230.396C228.389 230.616 228.399 230.819 228.399 231.006V235.446H227.214V228.216H227.919C227.976 228.216 228.024 228.219 228.064 228.226C228.108 228.229 228.144 228.239 228.174 228.256C228.208 228.269 228.239 228.291 228.269 228.321C228.299 228.348 228.333 228.384 228.369 228.431L232.159 233.271C232.149 233.154 232.141 233.039 232.134 232.926C232.128 232.813 232.124 232.708 232.124 232.611V228.216H233.309ZM236.838 230.236C237.218 230.236 237.563 230.298 237.873 230.421C238.186 230.544 238.453 230.719 238.673 230.946C238.896 231.173 239.068 231.449 239.188 231.776C239.308 232.103 239.368 232.468 239.368 232.871C239.368 233.278 239.308 233.644 239.188 233.971C239.068 234.298 238.896 234.576 238.673 234.806C238.453 235.036 238.186 235.213 237.873 235.336C237.563 235.459 237.218 235.521 236.838 235.521C236.455 235.521 236.106 235.459 235.793 235.336C235.48 235.213 235.211 235.036 234.988 234.806C234.768 234.576 234.596 234.298 234.473 233.971C234.353 233.644 234.293 233.278 234.293 232.871C234.293 232.468 234.353 232.103 234.473 231.776C234.596 231.449 234.768 231.173 234.988 230.946C235.211 230.719 235.48 230.544 235.793 230.421C236.106 230.298 236.455 230.236 236.838 230.236ZM236.838 234.571C237.265 234.571 237.58 234.428 237.783 234.141C237.99 233.854 238.093 233.434 238.093 232.881C238.093 232.328 237.99 231.906 237.783 231.616C237.58 231.326 237.265 231.181 236.838 231.181C236.405 231.181 236.083 231.328 235.873 231.621C235.666 231.911 235.563 232.331 235.563 232.881C235.563 233.431 235.666 233.851 235.873 234.141C236.083 234.428 236.405 234.571 236.838 234.571ZM244.779 230.316L242.744 235.446H241.624L239.589 230.316H240.609C240.702 230.316 240.779 230.338 240.839 230.381C240.902 230.424 240.944 230.479 240.964 230.546L241.954 233.286C242.007 233.446 242.054 233.603 242.094 233.756C242.134 233.909 242.169 234.063 242.199 234.216C242.232 234.063 242.269 233.909 242.309 233.756C242.349 233.603 242.397 233.446 242.454 233.286L243.464 230.546C243.487 230.479 243.529 230.424 243.589 230.381C243.649 230.338 243.721 230.316 243.804 230.316H244.779Z" fill="#333333"/>
<path d="M258.225 231.831C258.225 232.361 258.137 232.848 257.96 233.291C257.783 233.734 257.535 234.116 257.215 234.436C256.895 234.756 256.51 235.004 256.06 235.181C255.61 235.358 255.11 235.446 254.56 235.446H251.805V228.216H254.56C255.11 228.216 255.61 228.306 256.06 228.486C256.51 228.663 256.895 228.911 257.215 229.231C257.535 229.548 257.783 229.928 257.96 230.371C258.137 230.814 258.225 231.301 258.225 231.831ZM256.845 231.831C256.845 231.434 256.792 231.079 256.685 230.766C256.582 230.449 256.43 230.183 256.23 229.966C256.033 229.746 255.793 229.578 255.51 229.461C255.23 229.344 254.913 229.286 254.56 229.286H253.155V234.376H254.56C254.913 234.376 255.23 234.318 255.51 234.201C255.793 234.084 256.033 233.918 256.23 233.701C256.43 233.481 256.582 233.214 256.685 232.901C256.792 232.584 256.845 232.228 256.845 231.831ZM262.454 232.291C262.454 232.131 262.431 231.981 262.384 231.841C262.341 231.698 262.274 231.573 262.184 231.466C262.094 231.359 261.979 231.276 261.839 231.216C261.702 231.153 261.542 231.121 261.359 231.121C261.002 231.121 260.721 231.223 260.514 231.426C260.311 231.629 260.181 231.918 260.124 232.291H262.454ZM260.099 233.036C260.119 233.299 260.166 233.528 260.239 233.721C260.312 233.911 260.409 234.069 260.529 234.196C260.649 234.319 260.791 234.413 260.954 234.476C261.121 234.536 261.304 234.566 261.504 234.566C261.704 234.566 261.876 234.543 262.019 234.496C262.166 234.449 262.292 234.398 262.399 234.341C262.509 234.284 262.604 234.233 262.684 234.186C262.767 234.139 262.847 234.116 262.924 234.116C263.027 234.116 263.104 234.154 263.154 234.231L263.509 234.681C263.372 234.841 263.219 234.976 263.049 235.086C262.879 235.193 262.701 235.279 262.514 235.346C262.331 235.409 262.142 235.454 261.949 235.481C261.759 235.508 261.574 235.521 261.394 235.521C261.037 235.521 260.706 235.463 260.399 235.346C260.092 235.226 259.826 235.051 259.599 234.821C259.372 234.588 259.194 234.301 259.064 233.961C258.934 233.618 258.869 233.221 258.869 232.771C258.869 232.421 258.926 232.093 259.039 231.786C259.152 231.476 259.314 231.208 259.524 230.981C259.737 230.751 259.996 230.569 260.299 230.436C260.606 230.303 260.951 230.236 261.334 230.236C261.657 230.236 261.956 230.288 262.229 230.391C262.502 230.494 262.737 230.646 262.934 230.846C263.131 231.043 263.284 231.286 263.394 231.576C263.507 231.863 263.564 232.191 263.564 232.561C263.564 232.748 263.544 232.874 263.504 232.941C263.464 233.004 263.387 233.036 263.274 233.036H260.099ZM267.621 231.316C267.588 231.369 267.553 231.408 267.516 231.431C267.479 231.451 267.433 231.461 267.376 231.461C267.316 231.461 267.251 231.444 267.181 231.411C267.114 231.378 267.036 231.341 266.946 231.301C266.856 231.258 266.753 231.219 266.636 231.186C266.523 231.153 266.388 231.136 266.231 231.136C265.988 231.136 265.796 231.188 265.656 231.291C265.519 231.394 265.451 231.529 265.451 231.696C265.451 231.806 265.486 231.899 265.556 231.976C265.629 232.049 265.724 232.114 265.841 232.171C265.961 232.228 266.096 232.279 266.246 232.326C266.396 232.369 266.548 232.418 266.701 232.471C266.858 232.524 267.011 232.586 267.161 232.656C267.311 232.723 267.444 232.809 267.561 232.916C267.681 233.019 267.776 233.144 267.846 233.291C267.919 233.438 267.956 233.614 267.956 233.821C267.956 234.068 267.911 234.296 267.821 234.506C267.734 234.713 267.604 234.893 267.431 235.046C267.258 235.196 267.043 235.314 266.786 235.401C266.533 235.484 266.239 235.526 265.906 235.526C265.729 235.526 265.556 235.509 265.386 235.476C265.219 235.446 265.058 235.403 264.901 235.346C264.748 235.289 264.604 235.223 264.471 235.146C264.341 235.069 264.226 234.986 264.126 234.896L264.411 234.426C264.448 234.369 264.491 234.326 264.541 234.296C264.591 234.266 264.654 234.251 264.731 234.251C264.808 234.251 264.879 234.273 264.946 234.316C265.016 234.359 265.096 234.406 265.186 234.456C265.276 234.506 265.381 234.553 265.501 234.596C265.624 234.639 265.779 234.661 265.966 234.661C266.113 234.661 266.238 234.644 266.341 234.611C266.448 234.574 266.534 234.528 266.601 234.471C266.671 234.414 266.721 234.349 266.751 234.276C266.784 234.199 266.801 234.121 266.801 234.041C266.801 233.921 266.764 233.823 266.691 233.746C266.621 233.669 266.526 233.603 266.406 233.546C266.289 233.489 266.154 233.439 266.001 233.396C265.851 233.349 265.696 233.299 265.536 233.246C265.379 233.193 265.224 233.131 265.071 233.061C264.921 232.988 264.786 232.896 264.666 232.786C264.549 232.676 264.454 232.541 264.381 232.381C264.311 232.221 264.276 232.028 264.276 231.801C264.276 231.591 264.318 231.391 264.401 231.201C264.484 231.011 264.606 230.846 264.766 230.706C264.929 230.563 265.131 230.449 265.371 230.366C265.614 230.279 265.894 230.236 266.211 230.236C266.564 230.236 266.886 230.294 267.176 230.411C267.466 230.528 267.708 230.681 267.901 230.871L267.621 231.316Z" fill="#333333"/>
<defs>
<clipPath id="clip0_1860_22889">
<rect x="269" y="221.446" width="268.5" height="221" rx="4" transform="rotate(-180 269 221.446)" fill="white"/>
</clipPath>
</defs>
</svg>
