<svg width="12" height="11" viewBox="0 0 12 11" fill="none" xmlns="http://www.w3.org/2000/svg">
<path d="M1.64823 8.88354H3.68334C4.04966 7.96968 4.9235 7.32085 5.95765 7.32085C6.99179 7.32085 7.86544 7.96987 8.23195 8.88354H10.2671L10.8429 8.04331C10.965 7.86505 10.8642 7.61851 10.6533 7.58003L8.5507 7.19526L8.17196 5.06519C8.13386 4.85171 7.89052 4.74956 7.7144 4.87327L5.9588 6.10687L4.20321 4.87327C4.02719 4.74956 3.78384 4.85165 3.74565 5.06519L3.36563 7.19409L1.26204 7.58081C1.0512 7.61942 0.950316 7.86597 1.0725 8.04409L1.64823 8.88354ZM4.36602 8.88354H7.54889C7.22944 8.32515 6.64032 7.94585 5.95707 7.94585C5.27381 7.94585 4.68623 8.32495 4.36602 8.88354ZM11.0751 9.49097H0.907299C0.652669 9.49097 0.444336 9.71948 0.444336 9.95972C0.444336 10.2351 0.652669 10.4285 0.907299 10.4285H11.0751C11.3298 10.4285 11.5381 10.2175 11.5381 9.95972C11.5554 9.71948 11.3471 9.49097 11.0751 9.49097ZM5.61409 4.68433C5.64223 4.70702 5.67516 4.71843 5.70591 4.73552C5.73033 4.74921 5.75192 4.7655 5.77821 4.77579C5.84943 4.80347 5.92466 4.82104 5.99989 4.82104C6.07512 4.82104 6.1498 4.80373 6.22134 4.77581C6.24763 4.76551 6.26922 4.74923 6.29364 4.73554C6.32439 4.71845 6.35732 4.70704 6.38546 4.68435L7.92867 3.43435C8.19507 3.21833 8.23828 2.82517 8.02512 2.55544C7.81255 2.28571 7.42346 2.24235 7.15765 2.45778L6.61718 2.89526V1.07104C6.61718 0.725537 6.34075 0.446045 5.99989 0.446045C5.65903 0.446045 5.38261 0.725537 5.38261 1.07104V2.89565L4.82512 2.45776C4.57628 2.24233 4.18855 2.28687 3.97443 2.55542C3.76127 2.82515 3.80444 3.21831 4.07088 3.43433L5.61409 4.68433Z" fill="#99B8CC"/>
</svg>
