<svg width="48" height="48" viewBox="0 0 48 48" fill="none" xmlns="http://www.w3.org/2000/svg">
<path d="M42.9062 31.0061C43.3703 31.0061 43.75 30.6264 43.75 30.1624C43.75 29.6983 43.3726 29.3186 42.9062 29.3186H40.375V25.9436H42.9062C43.3703 25.9436 43.75 25.5639 43.75 25.0999C43.75 24.6358 43.3726 24.2561 42.9062 24.2561H40.375V23.4124C40.375 21.5482 38.8642 20.0374 37 20.0374H36.1562V17.5061C36.1562 17.0397 35.7766 16.6624 35.3125 16.6624C34.8484 16.6624 34.4688 17.0397 34.4688 17.5061V20.0374H31.0938V17.5061C31.0938 17.0397 30.7141 16.6624 30.25 16.6624C29.7859 16.6624 29.4062 17.0397 29.4062 17.5061V20.0374H26.0312V17.5061C26.0312 17.0397 25.6516 16.6624 25.1875 16.6624C24.7234 16.6624 24.3438 17.0397 24.3438 17.5061V20.0374H23.5C21.6358 20.0374 20.125 21.5482 20.125 23.4124V24.2561H17.5938C17.1274 24.2561 16.75 24.6358 16.75 25.0999C16.75 25.5639 17.1274 25.9436 17.5938 25.9436H20.125V29.3186H17.5938C17.1274 29.3186 16.75 29.6983 16.75 30.1624C16.75 30.6264 17.1274 31.0061 17.5938 31.0061H20.125V34.3811H17.5938C17.1274 34.3811 16.75 34.7608 16.75 35.2249C16.75 35.6889 17.1274 36.0686 17.5938 36.0686H20.125V36.9124C20.125 38.7765 21.6358 40.2874 23.5 40.2874H24.3438V42.8186C24.3438 43.2827 24.7234 43.6624 25.1875 43.6624C25.6516 43.6624 26.0312 43.285 26.0312 42.8186V40.2874H29.4062V42.8186C29.4062 43.285 29.7836 43.6624 30.25 43.6624C30.7164 43.6624 31.0938 43.285 31.0938 42.8186V40.2874H34.4688V42.8186C34.4688 43.285 34.8461 43.6624 35.3125 43.6624C35.7789 43.6624 36.1562 43.285 36.1562 42.8186V40.2874H37C38.8642 40.2874 40.375 38.7765 40.375 36.9124V36.0686H42.9062C43.3726 36.0686 43.75 35.6912 43.75 35.2249C43.75 34.7585 43.3726 34.3811 42.9062 34.3811H40.375V31.0061H42.9062ZM38.6875 36.9124C38.6875 37.8426 37.9302 38.5999 37 38.5999H23.5C22.5698 38.5999 21.8125 37.8426 21.8125 36.9124V23.4124C21.8125 22.4821 22.5698 21.7249 23.5 21.7249H37C37.9302 21.7249 38.6875 22.4821 38.6875 23.4124V36.9124Z" fill="#3F6587"/>
<path d="M21.2813 13.6311C21.5391 13.6311 21.75 13.4202 21.75 13.1624C21.75 12.9045 21.5404 12.6936 21.2813 12.6936H19.875V10.8186H21.2813C21.5391 10.8186 21.75 10.6077 21.75 10.3499C21.75 10.092 21.5404 9.8811 21.2813 9.8811H19.875V9.41235C19.875 8.37671 19.0356 7.53735 18 7.53735H17.5313V6.1311C17.5313 5.872 17.3203 5.66235 17.0625 5.66235C16.8047 5.66235 16.5938 5.872 16.5938 6.1311V7.53735H14.7188V6.1311C14.7188 5.872 14.5078 5.66235 14.25 5.66235C13.9922 5.66235 13.7813 5.872 13.7813 6.1311V7.53735H11.9063V6.1311C11.9063 5.872 11.6953 5.66235 11.4375 5.66235C11.1797 5.66235 10.9688 5.872 10.9688 6.1311V7.53735H10.5C9.46436 7.53735 8.625 8.37671 8.625 9.41235V9.8811H7.21875C6.95965 9.8811 6.75 10.092 6.75 10.3499C6.75 10.6077 6.95965 10.8186 7.21875 10.8186H8.625V12.6936H7.21875C6.95965 12.6936 6.75 12.9045 6.75 13.1624C6.75 13.4202 6.95965 13.6311 7.21875 13.6311H8.625V15.5061H7.21875C6.95965 15.5061 6.75 15.717 6.75 15.9749C6.75 16.2327 6.95965 16.4436 7.21875 16.4436H8.625V16.9124C8.625 17.948 9.46436 18.7874 10.5 18.7874H10.9688V20.1936C10.9688 20.4514 11.1797 20.6624 11.4375 20.6624C11.6953 20.6624 11.9063 20.4527 11.9063 20.1936V18.7874H13.7813V20.1936C13.7813 20.4527 13.9909 20.6624 14.25 20.6624C14.5091 20.6624 14.7188 20.4527 14.7188 20.1936V18.7874H16.5938V20.1936C16.5938 20.4527 16.8034 20.6624 17.0625 20.6624C17.3216 20.6624 17.5313 20.4527 17.5313 20.1936V18.7874H18C19.0356 18.7874 19.875 17.948 19.875 16.9124V16.4436H21.2813C21.5404 16.4436 21.75 16.234 21.75 15.9749C21.75 15.7158 21.5404 15.5061 21.2813 15.5061H19.875V13.6311H21.2813ZM18.9375 16.9124C18.9375 17.4292 18.5168 17.8499 18 17.8499H10.5C9.9832 17.8499 9.5625 17.4292 9.5625 16.9124V9.41235C9.5625 8.89556 9.9832 8.47485 10.5 8.47485H18C18.5168 8.47485 18.9375 8.89556 18.9375 9.41235V16.9124Z" fill="#3F6587" stroke="#3F6587" stroke-width="0.5" stroke-linejoin="round"/>
<path d="M35.5625 23.4124H25.4375C24.5041 23.4124 23.75 24.1665 23.75 25.0999V35.2249C23.75 36.1567 24.5057 36.9124 25.4375 36.9124H35.5625C36.4943 36.9124 37.25 36.1567 37.25 35.2249V25.0999C37.25 24.1665 36.4959 23.4124 35.5625 23.4124ZM35.5625 35.2249H25.4375V25.0999H35.5625V35.2249Z" fill="#F37A20"/>
<rect x="11.75" y="10.6624" width="5" height="5" rx="1" fill="#F37A20"/>
</svg>
