<svg width="95" height="20" viewBox="0 0 95 20" fill="none" xmlns="http://www.w3.org/2000/svg">
<g clip-path="url(#clip0_1527_10585)">
<path d="M21.1982 5.1195H25.9513V6.08458H24.2066V10.9281H22.946V6.08458H21.1982V5.1195ZM27.8787 10.9281V8.37664H30.1106V10.9281H31.3712V5.1195H30.0954V7.41156H27.8787V5.1195H26.6181V10.9281H27.8787ZM32.3942 10.9281H36.4165V9.96299H33.6548V8.40982H36.1577V7.44474H33.6548V6.08458H36.3282V5.1195H32.3942V10.9281ZM41.4466 9.4895H41.4314L40.5301 5.1195H39.23L40.6611 10.9281H42.0891L43.2279 6.50379H43.2431L44.2997 10.9281H45.6942L47.1893 5.1195H45.9865L45.0426 9.4895H45.0274L44.0043 5.1195H42.5854L41.4466 9.4895ZM47.6155 8.0268C47.6155 9.73982 48.4925 11.0517 50.4351 11.0517C52.3747 11.0517 53.2547 9.74283 53.2547 8.0268C53.2547 6.31379 52.3777 5.00188 50.4351 5.00188C48.4925 4.99887 47.6155 6.31077 47.6155 8.0268ZM48.9553 8.0268C48.9553 7.02855 49.1928 5.90061 50.4351 5.90061C51.6774 5.90061 51.9149 7.02855 51.9149 8.0268C51.9149 9.02204 51.6774 10.15 50.4351 10.15C49.1928 10.15 48.9553 9.02204 48.9553 8.0268ZM55.3434 8.58776H56.6771C57.0912 8.60283 57.1704 9.04617 57.2038 9.36887C57.2587 9.89363 57.3165 10.4154 57.4231 10.9281H58.8115C58.5771 10.6054 58.5284 9.92379 58.4705 9.55283C58.3639 8.7476 58.3639 8.1595 57.3987 8.05696V8.04188C58.1234 7.89109 58.6167 7.39045 58.6167 6.63347C58.6167 5.45125 57.5845 5.12855 56.5766 5.1195H54.0829V10.9281H55.3434V8.58776ZM55.3434 6.08458H56.397C56.9511 6.09363 57.2739 6.31077 57.2739 6.82347C57.2739 7.33918 56.9481 7.61061 56.397 7.61966H55.3434V6.08458ZM63.3788 10.9281V9.96299H60.8364V5.1195H59.5788V10.9281H63.3788ZM64.0609 10.9281H66.0583C67.8853 10.9432 69.024 10.0444 69.024 8.02379C69.024 6.00315 67.8853 5.10141 66.0583 5.1195H64.0609V10.9281ZM65.3215 6.08458H65.9731C67.4681 6.0695 67.6873 7.09791 67.6873 8.02379C67.6873 8.94664 67.4681 9.97807 65.9731 9.96299H65.3215V6.08458ZM74.4317 10.9281C75.333 10.9914 76.7946 10.5752 76.7946 9.42315C76.7946 8.57268 76.2434 8.06601 75.5035 7.9122V7.89712C76.0881 7.7041 76.5357 7.26077 76.5357 6.62744C76.5357 5.49347 75.4639 5.05918 74.4165 5.12252H72.2151V10.9311H74.4317V10.9281ZM73.4696 9.96299V8.41887H74.453C75.0468 8.41887 75.4518 8.52442 75.4518 9.19093C75.4518 9.86045 75.0468 9.96299 74.453 9.96299H73.4696ZM73.4696 7.45379V6.08458H74.453C74.9798 6.08458 75.2721 6.30172 75.2721 6.76918C75.2721 7.23664 74.9798 7.45379 74.453 7.45379H73.4696ZM78.387 10.9281L78.8255 9.6976H81.1487L81.572 10.9281H82.8386L80.8016 5.1195H79.3066L77.1843 10.9281H78.387ZM79.1513 8.73252L80.0099 6.25347H80.0282L80.8321 8.73252H79.1513ZM88.7792 10.9281V5.1195H87.6008V9.67347L87.5856 9.69156L85.3506 5.12252H83.4841V10.9311H84.6625V6.11776L84.6777 6.09966L86.9918 10.9281H88.7792ZM91.072 5.1195H89.8144V10.9281H91.072V7.96649H91.0872L93.1273 10.9281H94.6954L92.3569 7.71918L94.5096 5.1195H93.0389L91.0902 7.63172H91.075V5.1195H91.072Z" fill="#002345"/>
<path d="M17.8125 6.42878C17.5902 6.52227 17.4867 6.77561 17.581 6.99577C18.0256 8.03624 18.2509 9.14608 18.2509 10.2861C18.2509 10.9858 18.1626 11.6643 17.9982 12.3158C17.8703 12.7259 17.6419 13.1059 17.3283 13.4497C17.3344 13.302 17.3405 13.1542 17.3405 13.0034C17.3435 11.3386 16.8807 9.58339 16.019 7.93069C16.6493 7.39386 17.0512 6.73037 17.1913 5.98846C17.2339 5.75323 17.0786 5.52704 16.8411 5.4818C16.6036 5.43656 16.3753 5.59338 16.3326 5.82862C16.2413 6.32021 15.9825 6.76958 15.5806 7.15259C15.4557 6.94751 15.3248 6.74545 15.1878 6.54339C14.4205 5.42751 13.507 4.46243 12.5083 3.69339C13.8267 3.77783 15.0447 4.09751 16.0282 4.64037C16.1834 4.72783 16.3875 4.72481 16.5306 4.60418C16.7163 4.45037 16.7407 4.17592 16.5854 3.99196C15.1756 2.04069 12.7367 0.96402 9.71614 0.96402C4.52768 0.96402 0.304443 5.14704 0.304443 10.2861C0.304443 11.1728 0.432328 12.0293 0.666783 12.8405C0.682007 12.8948 0.694187 12.9491 0.709411 13.0034C0.712456 13.0154 0.718546 13.0245 0.721591 13.0335C1.90909 16.8335 5.48986 19.6051 9.7131 19.6051C11.6679 19.6051 13.4826 19.011 14.9899 17.9977C15.0051 17.9886 15.0203 17.9826 15.0325 17.9735C15.1238 17.9132 15.2091 17.8499 15.2943 17.7835C17.0238 16.5169 18.3057 14.6772 18.8416 12.548C18.8721 12.4515 18.8995 12.3489 18.9208 12.2494C18.9269 12.2253 18.9269 12.2012 18.9299 12.177C19.0578 11.5648 19.1248 10.9315 19.1248 10.2831C19.1248 9.02545 18.8751 7.80402 18.3849 6.65497C18.2935 6.43783 18.0347 6.33529 17.8125 6.42878ZM14.4661 7.03497C14.6093 7.24608 14.7463 7.45719 14.8772 7.67434C14.1769 8.07545 13.2939 8.3137 12.3378 8.38307C12.2556 6.88719 12.079 5.44561 11.7927 4.24831C12.7884 4.98116 13.7019 5.92815 14.4661 7.03497ZM13.166 2.44481C13.6044 2.61973 14.0399 2.84291 14.454 3.12338C13.7932 2.96053 13.0899 2.861 12.3591 2.82481C12.6575 2.6318 12.9346 2.4991 13.166 2.44481ZM12.0089 2.08592C11.7653 2.21561 11.5126 2.37846 11.2568 2.57148C11.1411 2.31513 11.0193 2.08894 10.8884 1.89592C11.2386 1.93513 11.6161 1.99545 12.0089 2.08592ZM7.84659 8.41624C8.47383 8.69672 9.15893 8.91688 9.87752 9.07069C10.4226 9.18529 10.9645 9.24862 11.5004 9.26672C11.5096 9.59243 11.5157 9.92719 11.5157 10.271C11.5157 12.3128 11.3512 14.0077 11.1137 15.3316C10.3312 15.2985 9.52431 15.1959 8.71438 15.027C7.6304 14.7948 6.60733 14.457 5.67864 14.0227C5.98313 12.6656 6.54948 11.0189 7.45076 9.19434C7.5756 8.92894 7.70957 8.66958 7.84659 8.41624ZM6.31807 6.4137C5.95573 6.07592 5.68169 5.7291 5.49595 5.37624C6.31502 4.88767 7.22239 4.48958 8.19066 4.20005C8.76614 4.02815 9.34771 3.90148 9.92928 3.81402C9.0889 4.74291 8.2546 5.92513 7.4873 7.26116C7.04883 7.01085 6.65605 6.72735 6.31807 6.4137ZM11.4639 8.39513C11.0011 8.37704 10.5261 8.31973 10.0602 8.22021C9.42688 8.08751 8.82399 7.8945 8.26983 7.65323C9.08585 6.23878 9.98104 5.00831 10.861 4.09148C11.1351 5.16513 11.3665 6.60672 11.4639 8.39513ZM9.70396 1.83259C9.85316 1.83561 10.0359 2.01053 10.2277 2.35434C10.1302 2.31211 10.0328 2.27291 9.93537 2.23672C9.53954 2.08592 9.14675 1.97132 8.76005 1.88688C9.07063 1.85069 9.38425 1.83259 9.70396 1.83259ZM5.2554 3.96481C5.35284 3.51545 5.62688 3.11434 6.04707 2.77958C7.0671 2.47799 8.25765 2.55037 9.50605 3.00275C8.98233 3.09323 8.45556 3.21386 7.93489 3.36767C6.96967 3.65418 6.05925 4.04624 5.22496 4.52577C5.20973 4.33577 5.21887 4.14878 5.2554 3.96481ZM4.43633 3.65116C4.42415 3.6964 4.41198 3.73862 4.40284 3.78688C4.31454 4.19704 4.32367 4.61323 4.4272 5.02942C3.48633 5.6718 2.66726 6.43481 2.01262 7.28831C1.8147 7.54767 1.6381 7.81307 1.47672 8.08148C1.96085 6.30513 3.01742 4.761 4.43633 3.65116ZM4.5764 17.0296C3.11486 15.9348 2.0248 14.3877 1.50717 12.5993C1.43409 12.3158 1.38537 12.0293 1.3671 11.7397C1.65941 12.1499 2.01566 12.554 2.4389 12.9431C3.07832 13.5281 3.83954 14.0529 4.68601 14.5023C4.5155 15.4613 4.46678 16.3299 4.5764 17.0296ZM3.03569 12.3037C2.29274 11.6221 1.78121 10.9043 1.51935 10.1866C1.7264 9.38434 2.12528 8.5791 2.71294 7.81005C3.27015 7.07719 3.96438 6.41973 4.76214 5.85275C4.9905 6.26291 5.31326 6.66402 5.72127 7.04402C6.11101 7.40592 6.56165 7.73164 7.0671 8.01815C6.92704 8.27751 6.79306 8.54291 6.66214 8.81132C5.88569 10.3886 5.25236 12.0775 4.87784 13.6126C4.18665 13.2296 3.56246 12.7893 3.03569 12.3037ZM9.72223 18.7335C9.70092 18.7335 9.6796 18.7366 9.66133 18.7396C8.35813 18.7305 7.12496 18.435 6.01967 17.9072C5.99531 17.8861 5.96486 17.868 5.93441 17.8529C5.44723 17.6177 5.25236 16.544 5.50508 14.9034C6.43986 15.3196 7.45685 15.6483 8.5256 15.8745C9.33553 16.0464 10.1424 16.152 10.9341 16.1912C10.5474 17.8589 10.0511 18.7335 9.72223 18.7335ZM14.7645 17.0959C13.6745 17.8921 12.3865 18.438 10.9889 18.6461C11.3391 18.0459 11.6222 17.2015 11.8354 16.2093C13.0716 16.1942 14.2439 16.0162 15.2822 15.6694C15.544 15.582 15.7907 15.4854 16.0282 15.3799C15.7419 16.0796 15.3187 16.6616 14.7645 17.0959ZM16.3601 14.2308C15.9673 14.4691 15.5166 14.6772 15.0051 14.8461C14.1008 15.1477 13.0838 15.3105 12.0028 15.3377C12.2617 13.7966 12.3865 12.0081 12.3865 10.268C12.3865 9.93021 12.3834 9.58942 12.3713 9.25164C13.4613 9.17926 14.4692 8.89878 15.2943 8.42831C16.0586 9.92719 16.4697 11.5075 16.4666 12.9974C16.4666 13.4316 16.4301 13.8448 16.3601 14.2308Z" fill="url(#paint0_radial_1527_10585)"/>
</g>
<defs>
<radialGradient id="paint0_radial_1527_10585" cx="0" cy="0" r="1" gradientUnits="userSpaceOnUse" gradientTransform="translate(18.2717 4.44777) scale(15.5987 15.4501)">
<stop stop-color="white"/>
<stop offset="0.0598" stop-color="#EBF8FD"/>
<stop offset="0.1829" stop-color="#B6E7F7"/>
<stop offset="0.3589" stop-color="#60CCEE"/>
<stop offset="0.544" stop-color="#00ADE4"/>
<stop offset="1" stop-color="#002345"/>
</radialGradient>
<clipPath id="clip0_1527_10585">
<rect width="95" height="19" fill="white" transform="translate(0 0.785889)"/>
</clipPath>
</defs>
</svg>
