<svg width="12" height="11" viewBox="0 0 12 11" fill="none" xmlns="http://www.w3.org/2000/svg">
<path d="M8.76374 7.63352H7.65167L8.41933 5.88157C8.47799 5.7476 8.43368 5.59172 8.31328 5.50598C8.19157 5.41961 8.02678 5.42725 7.91517 5.52338L5.35962 7.6933C5.25913 7.77906 5.22419 7.91674 5.27099 8.03841C5.31783 8.16049 5.43698 8.24115 5.56987 8.24115H6.68254L5.91487 9.9931C5.85621 10.1271 5.90052 10.2829 6.02093 10.3687C6.07641 10.4089 6.14229 10.446 6.19021 10.446C6.2657 10.446 6.34057 10.4201 6.40045 10.3688L8.956 8.19889C9.05649 8.11313 9.09143 7.97545 9.04463 7.85377C9.0153 7.7136 8.8975 7.63352 8.76374 7.63352ZM2.61643 5.52024C1.87012 4.79016 1.87012 3.60129 2.61643 2.8679C3.30782 2.19153 4.39593 2.14758 5.14403 2.72385C5.54334 2.46995 6.01512 2.31858 6.52663 2.31858C6.5416 2.31858 6.55158 2.32346 6.56656 2.32346L6.74375 1.801C6.81113 1.60081 6.61897 1.41526 6.41432 1.48108L4.91243 1.97375L4.20367 0.587036C4.10634 0.399048 3.83431 0.399048 3.73688 0.587036L3.02811 1.97375L1.52632 1.48293C1.32168 1.41702 1.13201 1.605 1.19929 1.8052L1.70082 3.27493L0.283285 3.96829C0.0911187 4.0635 0.0911187 4.32961 0.283285 4.42493L1.70082 5.11829L1.19869 6.5886C1.13131 6.78879 1.32348 6.97434 1.52812 6.91086L2.70867 6.52512C2.70627 6.47727 2.69629 6.4343 2.69629 6.38547C2.69629 6.14133 2.74121 5.90696 2.81858 5.68469C2.7482 5.63157 2.67832 5.56516 2.61643 5.52024ZM10.333 4.85032C10.1952 4.12375 9.54837 3.57102 8.76573 3.57102C8.52116 3.57102 8.28896 3.62961 8.08172 3.72727C7.73153 3.25657 7.17051 2.94602 6.52762 2.94602C5.46946 2.94602 4.61096 3.78586 4.61096 4.82102C4.61096 4.83079 4.61595 4.84299 4.61595 4.85276C3.88422 4.9968 3.33318 5.62766 3.33318 6.38352C3.33318 7.14387 3.88622 7.77454 4.62094 7.91555C4.63014 7.66106 4.73582 7.41321 4.93819 7.24055L7.49175 5.055C7.66764 4.90305 7.89125 4.82102 8.10688 4.82102C8.31032 4.82102 8.50519 4.88297 8.6713 5.00077C9.03526 5.25995 9.16564 5.70584 8.98854 6.12791L8.60262 7.00858H8.74631C9.14342 7.00858 9.50399 7.25291 9.64315 7.6162C9.68413 7.72336 9.71608 7.83469 9.71608 7.94602H10.0419C10.924 7.94602 11.6387 7.24485 11.6387 6.38157C11.6407 5.61399 11.0777 4.98313 10.333 4.85032ZM4.00801 4.38743C4.09535 3.90891 4.32505 3.48157 4.6445 3.13743C4.43327 3.01829 4.21764 2.92844 3.9541 2.92844C3.25032 2.92844 2.67632 3.48997 2.67632 4.17844C2.67632 4.54465 2.84104 4.86946 3.09799 5.09895C3.33917 4.8054 3.64663 4.55149 4.00801 4.38743Z" fill="#99B8CC"/>
</svg>
