<svg width="144" height="136" viewBox="0 0 144 136" fill="none" xmlns="http://www.w3.org/2000/svg">
<path d="M0 6.28589C0 5.18139 0.8955 4.28589 2 4.28589H94C95.1 4.28589 96 5.18139 96 6.28589C96 7.39089 95.1 8.28589 94 8.28589H88V23.4534C88 30.9109 85.55 38.1859 81 44.1109L62.525 68.2859L68.725 76.4109C68.05 77.7609 67.425 79.1609 66.875 80.5859L58.4 69.5109C57.875 68.5609 57.875 67.7859 58.4 67.0609L77.825 41.6859C81.825 36.4359 84 30.0359 84 23.4534V8.06089H12V23.4534C12 30.0359 14.1675 36.4359 18.17 41.6859L37.6 67.0609C38.125 67.7859 38.125 68.5609 37.6 69.5109L18.17 94.8859C14.1675 100.136 12 106.311 12 113.111V128.286H77.8C79.325 129.736 80.975 131.061 82.7 132.286H2C0.8955 132.286 0 131.386 0 130.286C0 129.186 0.8955 128.286 2 128.286H8V113.111C8 105.661 10.4575 98.3859 14.9925 92.4609L33.475 68.2859L14.9925 44.1109C10.4575 38.1859 8 30.9109 8 23.4534V8.28589H2C0.8955 8.28589 0 7.39089 0 6.28589ZM72 96.2859C72 76.4109 88.125 60.2859 108 60.2859C127.875 60.2859 144 76.4109 144 96.2859C144 116.161 127.875 132.286 108 132.286C88.125 132.286 72 116.161 72 96.2859ZM108 128.286C125.675 128.286 140 113.961 140 96.2859C140 78.6109 125.675 64.2859 108 64.2859C90.325 64.2859 76 78.6109 76 96.2859C76 113.961 90.325 128.286 108 128.286Z" fill="#3F6587"/>
<path d="M25 116.786H67.8C68.5 118.161 69.275 119.486 70.125 120.786H23C21.895 120.786 21 119.886 21 118.786V113.811C21 110.186 22.22 106.461 24.475 103.386L43.375 77.6109C44.05 76.7109 45.3 76.5109 46.175 77.1609C47.075 77.8359 47.275 79.0859 46.625 79.9609L27.7 105.736C25.95 108.136 25 111.036 25 113.811V116.786ZM27.2 35.8859C27.55 35.2109 28.025 34.7859 29 34.7859H65C65.75 34.7859 66.45 35.2109 66.8 35.8859C67.125 36.5609 67.05 37.3859 66.6 37.9859L48.6 61.9859C48.225 62.4859 47.625 62.7859 47 62.7859C46.375 62.7859 45.775 62.4859 45.4 61.9859L27.4 37.9859C26.95 37.3859 26.875 36.5609 27.2 35.8859ZM33 38.7859L47 57.4609L61 38.7859H33ZM106.775 76.7859C108.1 76.7859 108.775 77.6859 108.775 78.7859V94.7859H121C122.1 94.7859 123 95.6859 123 96.7859C123 97.8859 122.1 98.7859 121 98.7859H106.775C105.9 98.7859 104.775 97.8859 104.775 96.7859V78.7859C104.775 77.6859 105.9 76.7859 106.775 76.7859Z" fill="#F37A20"/>
</svg>
