<svg width="48" height="55" viewBox="0 0 48 55" fill="none" xmlns="http://www.w3.org/2000/svg">
<g clip-path="url(#clip0_3569_42407)">
<circle cx="29.5" cy="44.6624" r="2" fill="#F37A20"/>
<circle cx="41.5" cy="44.6624" r="2" fill="#F37A20"/>
<path d="M13.8193 28.8635H7.55273V30.4302H13.8193V28.8635Z" fill="#F37A20"/>
<path d="M47.4153 37.9129L45.0653 33.213C44.9326 32.9475 44.6613 32.78 44.3646 32.78H39.6647V30.43C39.6647 29.9975 39.314 29.6467 38.8814 29.6467H23.215C22.7824 29.6467 22.4316 29.9975 22.4316 30.43V44.5298C22.4316 44.9624 22.7824 45.3131 23.215 45.3131H26.4595C26.8836 46.9822 28.5806 47.9913 30.2496 47.5671C31.3572 47.2856 32.2221 46.4207 32.5036 45.3131H38.2093C38.6334 46.9822 40.3304 47.9913 41.9994 47.5671C43.107 47.2856 43.9719 46.4207 44.2534 45.3131H46.7146C47.1472 45.3131 47.4979 44.9624 47.4979 44.5298V38.2633C47.4979 38.1416 47.4696 38.0217 47.4153 37.9129ZM29.4815 46.0965C28.6162 46.0965 27.9149 45.3951 27.9149 44.5298C27.9149 43.6645 28.6162 42.9632 29.4815 42.9632C30.3468 42.9632 31.0482 43.6645 31.0482 44.5298C31.0473 45.3947 30.3464 46.0956 29.4815 46.0965ZM38.098 43.7465H32.5036C32.1484 42.3667 30.9063 41.4008 29.4815 41.3965C28.0568 41.4008 26.8146 42.3667 26.4595 43.7465H23.9983V31.2134H38.098V43.7465ZM42.798 34.3467H43.8804L45.4472 37.4799H42.798V34.3467ZM41.2313 46.0965C40.3661 46.0965 39.6647 45.3951 39.6647 44.5298C39.6647 43.6645 40.3661 42.9632 41.2313 42.9632C42.0966 42.9632 42.798 43.6645 42.798 44.5298C42.7971 45.3947 42.0962 46.0956 41.2313 46.0965ZM45.9312 43.7465H44.2534C43.8982 42.3667 42.6561 41.4008 41.2313 41.3965C40.6796 41.3997 40.1388 41.5502 39.6647 41.8325V34.3467H41.2313V38.2633C41.2313 38.6958 41.5821 39.0466 42.0146 39.0466H45.9312V43.7465Z" fill="#3F6587"/>
<path d="M19.3002 11.6252H17.7344V13.1919H19.3002V11.6252Z" fill="#3F6587"/>
<path d="M22.435 11.6252H20.8691V13.1919H22.435V11.6252Z" fill="#3F6587"/>
<path d="M25.5659 11.6252H24V13.1919H25.5659V11.6252Z" fill="#3F6587"/>
<path d="M28.6967 11.6252H27.1309V13.1919H28.6967V11.6252Z" fill="#3F6587"/>
<path d="M43.6515 13.7443L41.2246 11.3171C39.4203 9.51505 36.9764 8.50007 34.4264 8.4936H28.3511L24.6647 2.5954C24.5215 2.36637 24.2705 2.22714 24.0004 2.22704H21.6504C21.2176 2.22724 20.8669 2.57826 20.8671 3.01114C20.8671 3.07499 20.8749 3.13853 20.8904 3.20051L22.2137 8.4936H15.9668L13.7843 1.21881C13.6849 0.887367 13.3798 0.6604 13.0339 0.6604H9.1173C8.68472 0.6604 8.33398 1.01113 8.33398 1.44372V9.27692H8.34133C8.33878 9.48372 8.41868 9.68307 8.5635 9.83073L13.4592 14.7265C15.4791 16.7596 18.2284 17.8999 21.0943 17.8934H21.3076L19.3613 22.2755C19.1857 22.6708 19.3638 23.1337 19.7591 23.3093C19.7821 23.3195 19.8055 23.3286 19.8294 23.3365L22.1778 24.1199C22.5068 24.2294 22.8686 24.1098 23.0675 23.8257L27.2175 17.8934H41.9307C43.2725 17.8959 44.3622 16.8102 44.3648 15.4684C44.3659 14.8217 44.1092 14.2012 43.6515 13.7443ZM23.5662 3.79368L26.5037 8.4936H23.8287L22.6537 3.79368H23.5662ZM9.90062 2.22704H12.451L14.331 8.4936H9.90062V2.22704ZM22.119 22.4487L21.1432 22.1233L23.7177 16.3268H26.4016L22.119 22.4487ZM42.7343 15.7898C42.6038 16.1182 42.284 16.3319 41.9307 16.3268H28.3134L28.5473 15.9925C28.7952 15.638 28.7087 15.1495 28.3542 14.9016C28.2226 14.8096 28.066 14.7602 27.9054 14.7602H23.2086C22.8988 14.7602 22.6182 14.9426 22.4926 15.2257L22.0035 16.3268H21.0943C18.6441 16.3322 16.2937 15.3571 14.5669 13.6189L11.0082 10.0602H34.4264C36.1342 10.0676 37.7957 10.6161 39.1723 11.6269H33.4002V13.1935H40.885L42.5457 14.8543C42.7966 15.0968 42.8717 15.4691 42.7343 15.7898Z" fill="#F37A20"/>
<path d="M19.7037 45.5199C19.2105 44.9903 18.549 44.6479 17.8317 44.551L20.8228 36.1759C20.9681 35.7679 20.7552 35.3194 20.3472 35.1741C20.3425 35.1724 20.3377 35.1708 20.3329 35.1692L18.4227 34.5325L16.9391 26.3725C16.8715 26 16.547 25.7292 16.1684 25.7292H13.0352V23.3793C13.0352 22.9467 12.6844 22.5959 12.2518 22.5959H9.11856C8.68597 22.5959 8.33524 22.9467 8.33524 23.3793V25.7292H5.20196C4.82332 25.7292 4.49893 26.0001 4.43127 26.3725L2.94766 34.5325L1.03754 35.1692C0.626782 35.3066 0.405298 35.7509 0.542673 36.1616C0.544239 36.1664 0.545904 36.1711 0.547568 36.1759L3.53868 44.5513C2.82262 44.6489 2.16229 44.9911 1.66977 45.5199C1.38631 45.8769 0.957832 46.0882 0.502038 46.0956V47.6622C1.35086 47.6576 2.15915 47.2984 2.73156 46.6716C3.01503 46.3143 3.4437 46.1029 3.89969 46.0956C4.06517 46.0942 4.22937 46.1248 4.38329 46.1857C4.38985 46.1887 4.39406 46.1949 4.40072 46.1977C4.64639 46.3201 4.86944 46.4833 5.06047 46.6804C5.63876 47.3019 6.44793 47.6571 7.29685 47.6622C8.14548 47.6575 8.95357 47.2981 9.52559 46.6712C10.0184 46.0275 10.9397 45.9051 11.5834 46.3978C11.686 46.4763 11.7778 46.5682 11.8565 46.6708C12.4279 47.298 13.2356 47.6574 14.084 47.6622C14.9325 47.6571 15.741 47.3017 16.3184 46.68C16.5078 46.4844 16.7288 46.3219 16.9721 46.1996C16.9792 46.1967 16.9837 46.19 16.9905 46.1869C17.1449 46.1252 17.3096 46.0943 17.4758 46.0957C17.9307 46.103 18.3583 46.3143 18.6405 46.6713C19.2122 47.2981 20.02 47.6574 20.8684 47.6623V46.0957C20.4135 46.0882 19.9859 45.8769 19.7037 45.5199ZM9.90188 24.1626H11.4685V25.7292H9.90188V24.1626ZM9.90188 44.631C9.35454 44.8003 8.85938 45.1062 8.46302 45.5199C7.96894 46.1643 7.04599 46.2861 6.40161 45.792C6.29939 45.7137 6.20794 45.6221 6.12951 45.5199C5.88639 45.2824 5.61683 45.0734 5.32612 44.8973L2.29202 36.4024L9.90188 33.866V44.631ZM10.4374 32.0359L4.64267 33.9675L5.85564 27.2959H15.5148L16.7277 33.9675L10.933 32.0359C10.7722 31.9824 10.5983 31.9824 10.4374 32.0359ZM16.0427 44.9024C15.7554 45.0777 15.4889 45.285 15.2482 45.5203C14.7564 46.1633 13.8364 46.2858 13.1934 45.794C13.0905 45.7153 12.9984 45.6232 12.9197 45.5203C12.521 45.1024 12.0212 44.7946 11.4686 44.6266V33.866L19.0785 36.4024L16.0427 44.9024Z" fill="#3F6587"/>
<path d="M31.8315 11.6252H30.2656V13.1919H31.8315V11.6252Z" fill="#3F6587"/>
</g>
<defs>
<clipPath id="clip0_3569_42407">
<rect width="47" height="54" fill="white" transform="translate(0.5 0.662354)"/>
</clipPath>
</defs>
</svg>
