<svg width="114" height="25" viewBox="0 0 114 25" fill="none" xmlns="http://www.w3.org/2000/svg">
<g clip-path="url(#clip0_1527_10451)">
<path d="M2.10202 13.7267L2.16894 13.7823C2.09644 13.2821 2.0574 12.7374 2.2024 12.2593C2.41991 11.4923 2.69318 10.7475 2.8326 9.95261C2.94415 9.33564 3.07242 8.64084 2.99992 8.0461C2.91626 8.36848 2.8326 8.68531 2.65414 8.96323C1.97932 10.0026 1.28777 11.2255 1.76182 12.5484C1.75067 12.565 1.73393 12.5817 1.7172 12.5706C1.52759 12.1315 1.48297 11.6368 1.36028 11.1699C1.03123 9.93038 0.0775641 8.89097 0.356414 7.45691C0.205835 7.76818 0.150065 8.11835 0.0719871 8.45741C-0.0953231 9.33564 0.071987 10.2639 0.311798 11.0754C0.60738 12.0815 1.59451 12.8041 2.10202 13.7267Z" fill="#418FDE"/>
<path d="M1.84537 7.29035C2.06845 6.83456 2.43096 6.40101 2.86597 6.07863C3.82521 5.35604 4.87369 4.42224 4.89042 3.1994C4.56695 4.07762 3.60213 4.44447 2.96077 5.04477C2.62058 5.3616 2.35846 5.74513 2.20788 6.14533L2.18557 6.12865C2.26365 5.77292 2.41423 5.45609 2.52019 5.11147C2.79904 4.17767 2.74885 3.06044 3.66348 2.43234C3.19501 2.55463 2.79904 2.85478 2.44769 3.24386C1.70595 4.06094 1.77287 5.26711 1.86768 6.33431C1.90114 6.66781 1.88441 6.95129 1.84537 7.29035Z" fill="#418FDE"/>
<path d="M2.96069 4.6277C3.47378 4.14968 4.06494 3.79394 4.49995 3.22699C5.01861 2.54331 5.47035 1.77626 6.15074 1.18707C5.23053 1.54281 4.23783 1.90966 3.64109 2.85458C3.28974 3.40486 3.23397 4.05519 2.96069 4.6277Z" fill="#418FDE"/>
<path d="M3.3459 7.04546C3.56898 6.59523 3.7084 6.08386 3.76975 5.58917C3.6861 5.80038 3.55783 5.99493 3.37936 6.16168C2.63204 6.86759 1.75645 7.55683 1.58914 8.55733C1.56683 8.70185 1.5501 8.84637 1.51106 8.98532C1.4776 9.002 1.4776 8.96309 1.46645 8.95197L1.56126 7.71802C1.65049 6.51185 1.01471 5.17229 1.71184 4.11064C1.68953 4.10508 1.6728 4.12732 1.65607 4.13287C1.02029 4.93884 0.596436 5.82818 0.596436 6.91206C0.596436 8.25162 1.37164 9.19098 1.46645 10.4472C1.66722 9.1354 2.77147 8.2016 3.3459 7.04546Z" fill="#418FDE"/>
<path d="M1.86786 15.2773C2.58729 15.8443 3.44615 16.2834 4.10424 16.7836C3.97597 16.4557 3.76404 16.1555 3.68039 15.8165C3.29557 14.2657 3.5075 12.4648 2.84384 11.0307C2.96653 11.8478 2.64306 12.5704 2.57056 13.3486C2.50922 13.9878 2.62076 14.6103 2.87172 15.1439C2.94422 15.3051 3.07807 15.4441 3.11711 15.6108C2.8773 15.394 2.70441 15.1217 2.54268 14.8549C1.76747 13.6043 0.144565 12.7927 0.0330251 11.2697C-0.0227449 11.9479 0.0386022 12.6649 0.261682 13.2652C0.568418 14.0878 1.17073 14.727 1.86786 15.2773Z" fill="#418FDE"/>
<path d="M11.6497 19.3849C10.3949 19.3849 9.26834 19.9908 8.16967 20.4466C7.17139 20.8579 5.84963 20.7801 4.96289 20.1687C5.3979 20.7134 5.98348 21.0525 6.59138 21.2803C7.71236 21.725 9.02295 21.386 9.9822 20.7745C10.6682 20.3354 11.2593 19.7129 12.0792 19.7129C13.4009 19.7129 14.7896 21.0636 15.9775 22.2864C16.1615 22.1363 16.3567 21.9807 16.5073 21.8084C15.2636 20.63 13.5069 19.3849 11.6497 19.3849Z" fill="#418FDE"/>
<path d="M9.40814 19.5186C9.60334 19.4685 9.83757 19.4852 10.016 19.4185C9.26872 19.2684 8.54928 19.0406 7.96928 18.5125C7.1383 17.7566 6.40214 16.9506 5.51539 16.3614C6.21252 17.2952 6.40772 18.6515 7.67927 19.1239C7.90235 19.2073 8.16447 19.224 8.35967 19.3463C8.11428 19.3852 7.90235 19.3074 7.6737 19.2573C6.03406 18.9072 4.03749 19.3574 2.81055 17.9678C3.27344 18.8794 4.23268 19.5964 5.15847 19.8965C6.5806 20.3746 8.06966 19.8465 9.40814 19.5186Z" fill="#418FDE"/>
<path d="M6.66415 18.8348C5.59894 17.9788 5.43721 16.6948 4.96316 15.572C4.66758 14.8717 4.18796 14.2436 3.67488 13.6321C4.23815 14.7549 3.99277 16.2001 4.72335 17.2562C4.95201 17.5897 5.2699 17.9065 5.56548 18.1678L5.55433 18.1844C5.28663 18.0622 5.04682 17.8732 4.80143 17.6731C3.5243 16.6114 1.60023 16.478 0.836182 14.7494C1.04253 16.0167 2.05197 17.1395 3.14506 17.8509C4.18238 18.5291 5.51529 18.4568 6.66415 18.8348Z" fill="#418FDE"/>
<path d="M21.5046 3.22699C21.9396 3.7995 22.5308 4.14968 23.0438 4.6277C22.7706 4.05519 22.7148 3.40486 22.369 2.85458C21.7723 1.90966 20.7796 1.54281 19.8594 1.18707C20.5286 1.77626 20.9804 2.53775 21.5046 3.22699Z" fill="#418FDE"/>
<path d="M23.4843 5.11147C23.5847 5.45053 23.7352 5.77292 23.8189 6.12865L23.7966 6.14533C23.646 5.74513 23.3839 5.3616 23.0437 5.04477C22.4023 4.43891 21.4375 4.07762 21.1196 3.19384C21.1364 4.42224 22.1848 5.35604 23.1441 6.07307C23.5735 6.39545 23.9416 6.82901 24.1647 7.28479C24.1256 6.94573 24.1089 6.66226 24.1424 6.33431C24.2428 5.26155 24.3041 4.06094 23.5679 3.24386C23.2166 2.85478 22.8206 2.54907 22.3521 2.43234C23.2556 3.06044 23.2054 4.17767 23.4843 5.11147Z" fill="#418FDE"/>
<path d="M24.4438 7.71283L24.5387 8.94679C24.5275 8.95791 24.5275 8.99126 24.494 8.98014C24.455 8.84118 24.4383 8.69666 24.416 8.55215C24.2487 7.5572 23.3675 6.8624 22.6257 6.15649C22.4473 5.98974 22.319 5.7952 22.2354 5.58398C22.2967 6.07867 22.4361 6.59004 22.6592 7.04027C23.2336 8.19641 24.3379 9.13022 24.5387 10.4475C24.6335 9.1858 25.4087 8.25199 25.4087 6.91243C25.4087 5.82855 24.9848 4.93921 24.349 4.13325C24.3323 4.12213 24.3156 4.10545 24.2933 4.11101C24.9904 5.17266 24.349 6.51223 24.4438 7.71283Z" fill="#418FDE"/>
<path d="M24.6447 11.1641C24.522 11.6311 24.4774 12.1313 24.2878 12.5649C24.271 12.576 24.2543 12.5537 24.2431 12.5426C24.7172 11.2197 24.0256 10.0024 23.3508 8.95748C23.1723 8.68512 23.0887 8.36273 23.005 8.04035C22.9325 8.64065 23.0608 9.32989 23.1723 9.94687C23.3174 10.7417 23.585 11.4865 23.8026 12.2536C23.9476 12.7316 23.9085 13.2708 23.836 13.7766L23.9029 13.721C24.4049 12.7983 25.3976 12.0757 25.6987 11.0641C25.9385 10.2581 26.1059 9.32433 25.9385 8.44611C25.8605 8.10705 25.7991 7.75687 25.6541 7.4456C25.9274 8.88522 24.9737 9.92463 24.6447 11.1641Z" fill="#418FDE"/>
<path d="M17.8294 20.4466C16.7252 19.9908 15.6042 19.3849 14.3493 19.3849C12.4978 19.3849 10.7354 20.6356 9.50293 21.8084C9.65351 21.9807 9.8487 22.1419 10.0327 22.2864C11.2151 21.0691 12.6093 19.7129 13.9311 19.7129C14.7509 19.7129 15.3421 20.3354 16.028 20.7745C16.9817 21.3804 18.2923 21.725 19.4188 21.2803C20.0212 21.0525 20.6067 20.7134 21.0473 20.1687C20.155 20.7745 18.8277 20.8579 17.8294 20.4466Z" fill="#418FDE"/>
<path d="M23.4681 14.8439C23.3007 15.1107 23.1334 15.3886 22.8936 15.5998C22.9327 15.4386 23.0665 15.2941 23.139 15.1329C23.39 14.5937 23.5015 13.9768 23.4402 13.3375C23.3621 12.5594 23.0386 11.8368 23.1669 11.0197C22.4977 12.4538 22.7152 14.2547 22.3303 15.8055C22.2467 16.1501 22.0348 16.4502 21.9065 16.7726C22.5646 16.2724 23.4234 15.8333 24.1429 15.2663C24.84 14.7216 25.4423 14.0768 25.7602 13.2431C25.9889 12.6428 26.0446 11.9257 25.9889 11.2476C25.8717 12.7817 24.2433 13.5932 23.4681 14.8439Z" fill="#418FDE"/>
<path d="M21.1923 17.6731C20.9469 17.8732 20.7071 18.0622 20.4394 18.1844L20.4283 18.1678C20.7238 17.901 21.0417 17.5841 21.2704 17.2562C22.001 16.2001 21.7556 14.7494 22.3189 13.6321C21.8058 14.2436 21.3262 14.8717 21.0306 15.572C20.5565 16.6948 20.3948 17.9788 19.3296 18.8348C20.4785 18.4568 21.8114 18.5291 22.8431 17.8565C23.9306 17.145 24.9401 16.0222 25.152 14.7549C24.3935 16.478 22.475 16.6114 21.1923 17.6731Z" fill="#418FDE"/>
<path d="M18.3316 19.2629C18.1029 19.313 17.891 19.3852 17.6456 19.3519C17.8408 19.2296 18.0974 19.2129 18.326 19.1295C19.5976 18.6515 19.7928 17.2953 20.4899 16.367C19.6032 16.9562 18.867 17.7622 18.036 18.5181C17.456 19.0461 16.7366 19.2685 15.9893 19.4241C16.1677 19.4908 16.402 19.4741 16.5972 19.5242C17.9412 19.8577 19.4247 20.3802 20.8524 19.9077C21.7726 19.602 22.7319 18.885 23.2003 17.9789C21.9678 19.363 19.9657 18.9183 18.3316 19.2629Z" fill="#418FDE"/>
<path d="M12.9994 0.286545C7.92435 0.286545 3.79736 4.39973 3.79736 9.45784C3.79736 14.516 7.92435 18.6291 12.9994 18.6291C18.0745 18.6291 22.2015 14.516 22.2015 9.45784C22.2015 4.39973 18.0745 0.286545 12.9994 0.286545ZM12.9994 11.2087C12.029 11.2087 11.2427 10.425 11.2427 9.45784C11.2427 8.49069 12.029 7.70696 12.9994 7.70696C13.9698 7.70696 14.7562 8.49069 14.7562 9.45784C14.7562 10.425 13.9698 11.2087 12.9994 11.2087ZM14.3212 7.98488C13.9977 7.69584 13.5794 7.51242 13.1165 7.48462V5.98387C13.9921 6.01166 14.7896 6.36183 15.3864 6.92323L14.3212 7.98488ZM12.8879 7.48462C12.425 7.51242 12.0067 7.69584 11.6832 7.98488L10.618 6.92323C11.2148 6.36183 12.0123 6.01166 12.8879 5.98387V7.48462ZM11.5271 8.14607C11.2371 8.46845 11.053 8.88533 11.0252 9.34667H9.51937C9.54726 8.47401 9.89861 7.67917 10.4619 7.08442L11.5271 8.14607ZM11.0252 9.56901C11.053 10.0304 11.2371 10.4472 11.5271 10.7696L10.4619 11.8313C9.89861 11.2365 9.54726 10.4417 9.51937 9.56901H11.0252ZM11.6832 10.9308C12.0067 11.2198 12.425 11.4033 12.8879 11.4311V12.9318C12.0123 12.904 11.2148 12.5539 10.618 11.9925L11.6832 10.9308ZM13.111 11.4255C13.5739 11.3977 13.9921 11.2143 14.3156 10.9253L15.3808 11.9869C14.7841 12.5483 13.9866 12.8985 13.111 12.9263V11.4255ZM14.4773 10.7696C14.7673 10.4472 14.9514 10.0304 14.9793 9.56901H16.4851C16.4572 10.4417 16.1058 11.2365 15.5425 11.8313L14.4773 10.7696ZM14.9793 9.34667C14.9514 8.88533 14.7673 8.46845 14.4773 8.14607L15.5425 7.08442C16.1058 7.67917 16.4572 8.47401 16.4851 9.34667H14.9793ZM15.5425 6.7676C14.9012 6.16729 14.0535 5.78932 13.111 5.76153V4.09402C14.5108 4.12181 15.7823 4.68877 16.7249 5.58922L15.5425 6.7676ZM12.8879 5.76153C11.9509 5.78932 11.0977 6.16729 10.4563 6.7676L9.27398 5.58922C10.2165 4.68877 11.4881 4.12181 12.8879 4.09402V5.76153ZM10.3002 6.92323C9.69783 7.56244 9.3186 8.40731 9.29071 9.34667H7.61761C7.6455 7.95153 8.21435 6.68422 9.11783 5.74486L10.3002 6.92323ZM9.29629 9.56901C9.32418 10.5028 9.70341 11.3532 10.3057 11.9925L9.11783 13.1708C8.21435 12.2315 7.6455 10.9642 7.61761 9.56901H9.29629ZM10.4619 12.1481C11.1032 12.7484 11.9509 13.1264 12.8935 13.1542V14.8217C11.4936 14.7939 10.2221 14.2269 9.27956 13.3265L10.4619 12.1481ZM13.111 13.1486C14.0479 13.1208 14.9012 12.7428 15.5425 12.1425L16.7249 13.3209C15.7823 14.2214 14.5108 14.7883 13.111 14.8161V13.1486ZM15.6987 11.9869C16.301 11.3477 16.6802 10.5028 16.7081 9.56345H18.3812C18.3533 10.9586 17.7845 12.2259 16.881 13.1653L15.6987 11.9869ZM16.7081 9.34667C16.6802 8.41287 16.301 7.56244 15.6987 6.92323L16.881 5.74486C17.7845 6.68422 18.3533 7.95153 18.3812 9.34667H16.7081ZM16.881 5.43359C15.8995 4.49423 14.5721 3.90504 13.111 3.87725V2.39872C14.9793 2.42651 16.6747 3.18245 17.9239 4.38862L16.881 5.43359ZM12.8879 3.87169C11.4267 3.89948 10.0994 4.48867 9.11783 5.42803L8.07493 4.38862C9.32417 3.18245 11.0196 2.42651 12.8879 2.39872V3.87169ZM8.96167 5.58922C8.01916 6.56749 7.42799 7.89038 7.40011 9.34667H5.9222C5.95009 7.48462 6.70856 5.79488 7.91877 4.54981L8.96167 5.58922ZM7.40011 9.56901C7.42799 11.0253 8.01916 12.3482 8.96167 13.3265L7.91877 14.3659C6.70856 13.1208 5.95009 11.4311 5.9222 9.56901H7.40011ZM9.11783 13.4821C10.0994 14.4215 11.4267 15.0106 12.8879 15.0384V16.5114C11.0196 16.4836 9.32417 15.7277 8.07493 14.5215L9.11783 13.4821ZM13.111 15.044C14.5721 15.0162 15.8995 14.427 16.881 13.4877L17.9239 14.5271C16.6747 15.7332 14.9793 16.4892 13.111 16.517V15.044ZM17.0428 13.3265C17.9853 12.3482 18.5764 11.0253 18.6043 9.56901H20.0822C20.0543 11.4311 19.2959 13.1208 18.0857 14.3659L17.0428 13.3265ZM18.6043 9.34667C18.5764 7.89038 17.9853 6.56749 17.0428 5.58922L18.0857 4.54981C19.2959 5.79488 20.0543 7.48462 20.0822 9.34667H18.6043ZM18.0857 4.23298C16.7918 2.98235 15.0462 2.20418 13.111 2.17639V0.508879C15.5035 0.536671 17.673 1.50383 19.268 3.05461L18.0857 4.23298ZM12.8879 2.17639C10.9582 2.20418 9.20706 2.98235 7.91319 4.23298L6.73644 3.05461C8.33147 1.50383 10.5009 0.536671 12.8935 0.508879V2.17639H12.8879ZM7.75704 4.38862C6.50221 5.67816 5.72143 7.41792 5.69354 9.34667H4.02044C4.04833 6.96214 5.01873 4.79993 6.57471 3.21024L7.75704 4.38862ZM5.69912 9.56901C5.72701 11.4922 6.50779 13.2375 7.76261 14.5271L6.57471 15.6999C5.01873 14.1157 4.05391 11.9535 4.02602 9.56901H5.69912ZM7.91877 14.6827C9.21264 15.9333 10.9582 16.7115 12.8935 16.7393V18.4068C10.5009 18.379 8.33147 17.4119 6.73644 15.8611L7.91877 14.6827ZM13.111 16.7393C15.0406 16.7115 16.7918 15.9333 18.0857 14.6827L19.268 15.8611C17.673 17.4119 15.5035 18.379 13.111 18.4068V16.7393ZM18.2418 14.5215C19.4966 13.232 20.2774 11.4922 20.3053 9.56345H21.9784C21.9505 11.948 20.9801 14.1102 19.4241 15.6999L18.2418 14.5215ZM20.3053 9.34667C20.2774 7.42348 19.4966 5.67816 18.2418 4.38862L19.4241 3.21024C20.9801 4.79993 21.9505 6.96214 21.9784 9.34667H20.3053Z" fill="#418FDE"/>
<path d="M13.5292 7.33469L13.4734 7.34024V7.40694L13.5292 7.40139V7.33469Z" fill="#418FDE"/>
<path d="M13.4624 7.24588H13.3899V7.30146H13.4624V7.24588Z" fill="#418FDE"/>
<path d="M13.2559 7.22898L13.3228 7.2401L13.3284 7.18452L13.2614 7.1734L13.2559 7.22898Z" fill="#418FDE"/>
<path d="M13.2003 7.20679L13.1389 7.20123L13.1445 7.14565L13.2114 7.1512L13.2003 7.20679Z" fill="#418FDE"/>
<path d="M12.7373 7.13463H12.6648V7.19021H12.7373V7.13463Z" fill="#418FDE"/>
<path d="M12.5029 7.24592L12.5699 7.25704L12.5754 7.20145L12.5141 7.19034L12.5029 7.24592Z" fill="#418FDE"/>
<path d="M12.5146 7.33472L12.4365 7.31248L12.4533 7.2569L12.5258 7.27913L12.5146 7.33472Z" fill="#418FDE"/>
<path d="M12.3808 7.40139L12.3696 7.3458L12.4254 7.33469L12.4366 7.39027L12.3808 7.40139Z" fill="#418FDE"/>
<path d="M5.10253 13.1545V13.2768H5.1583L5.14715 13.1378L5.07465 13.11V13.06H5.03003V13.1545H5.10253Z" fill="#418FDE"/>
<path d="M5.49292 13.4935L5.63235 13.5602L5.67696 13.6881L5.74389 13.7381L5.80523 13.8771L5.77177 13.9438L5.66581 13.8493L5.59331 13.7437L5.55427 13.6603L5.49292 13.4935Z" fill="#418FDE"/>
<path d="M7.83535 16.3781L7.88554 16.5004L7.81862 16.5393L7.77958 16.4837L7.69034 16.4559L7.67919 16.3726L7.60669 16.2614L7.71823 16.2781L7.83535 16.3781Z" fill="#418FDE"/>
<path d="M12.7151 7.94042H12.6147L12.598 7.73476L12.6538 7.69585V7.59024H12.3303L12.3192 7.48463L12.3638 7.45684L12.2913 7.42905L12.2355 7.50131L12.2188 7.58468L12.124 7.60136V7.64582H12.057V7.76811L11.7949 7.98488L11.2763 7.96821C11.2372 8.05158 11.148 7.95709 11.148 7.95709C11.1312 7.90151 10.9974 7.95709 10.9974 7.95709C10.9974 8.0627 10.8189 7.91262 10.8189 7.91262L10.4955 7.67917C10.3114 7.51242 10.0326 7.72364 10.0214 7.77367C10.0326 7.90707 9.8095 7.80146 9.8095 7.80146C9.8095 7.80146 9.62546 7.74587 9.59757 7.81813C9.56969 7.89039 9.44699 7.87372 9.44699 7.87372L9.43026 7.91262L9.33545 7.9293L9.31872 7.98488L9.20718 8.00156L9.48603 7.99044C9.55853 7.97933 9.45815 8.15163 9.41353 8.14052L9.28526 8.15163L9.24064 8.1961H9.11795L9.06218 8.27392L8.88372 8.2628C8.88372 8.2628 8.78333 8.34618 8.78891 8.37397C8.80006 8.40176 8.77217 8.48514 8.74429 8.48514C8.7164 8.48514 8.66063 8.56851 8.67737 8.5963C8.6941 8.62409 8.6216 8.71859 8.6216 8.71859L8.60486 8.81308L8.54909 8.82975V9.08544L8.43755 9.16326V9.27442L8.27024 9.45229L8.28698 9.60237L8.14755 9.75244L8.16428 9.90252L8.08063 9.93031L8.0639 9.99701L8.02486 10.1916L8.11967 10.2027C8.16428 10.186 8.1587 10.325 8.11967 10.3416C8.08063 10.3583 7.98024 10.3972 8.03601 10.4361C8.09178 10.475 7.88543 10.4639 7.88543 10.4083C7.88543 10.3527 7.77389 10.3027 7.74601 10.325C7.71812 10.3416 7.67351 10.2416 7.67351 10.2416C7.57312 10.136 7.25523 10.2527 7.25523 10.2527L7.21061 10.4028C7.11023 10.4194 7.0433 10.5918 7.0433 10.5918C6.95965 10.6195 6.89272 10.7252 6.92061 10.7529C6.94849 10.7807 6.87599 10.7919 6.87599 10.7919V10.9975L6.83138 11.0642L6.84253 11.2866C6.8983 11.2866 6.88715 11.3922 6.88715 11.3922C6.79234 11.4033 6.81465 11.5256 6.81465 11.5256L6.61945 11.5923L6.58041 11.6478L6.3406 11.6367L6.27368 11.7034L6.20675 11.6367H5.74386L5.72713 11.5923L5.63232 11.5756L5.62117 11.47L5.48174 11.4811L5.45386 11.5367L5.30328 11.5478C5.31443 11.6423 5.1527 11.7812 5.13597 11.7423C5.11924 11.7034 5.01327 11.6034 5.06347 11.5811C5.10808 11.5645 5.23078 11.5422 5.23078 11.5422V11.4755L4.885 11.4644L4.84596 11.52L4.70654 11.5311V11.6812L4.63961 11.6979C4.595 11.7257 4.65077 11.8313 4.65077 11.8313C4.71769 11.898 4.63961 11.998 4.63961 11.998C4.58384 12.0536 4.68423 12.1592 4.68423 12.1592C4.75673 12.1759 4.63961 12.2315 4.63961 12.2315C4.65635 12.326 4.71212 12.3538 4.71212 12.3538C4.65635 12.4483 4.75115 12.4927 4.75115 12.4927L4.76231 12.6539L4.82923 12.6928V12.7984L4.86827 12.8651H5.01885L5.0077 12.6317C4.87943 12.4816 5.11924 12.4427 5.13039 12.4983C5.14154 12.5539 5.24193 12.5817 5.24193 12.5817C5.25866 12.7206 5.4204 12.804 5.46501 12.665C5.50963 12.5261 5.54867 12.6094 5.57655 12.6761C5.60444 12.7428 5.7829 12.904 5.7829 12.904H5.92233L5.93906 13.0374C6.09521 13.0263 6.14541 13.0486 6.20675 13.2598C6.27368 13.4765 6.44656 13.5321 6.44656 13.5321L6.57484 13.521C6.57484 13.4098 6.70311 13.5377 6.70311 13.5988C6.70311 13.6544 6.95407 13.8712 6.95407 13.8712L7.20504 13.9268L7.43927 14.1158L7.61774 14.0991H7.69024C7.73485 13.9379 7.95793 14.1102 7.98024 14.1658C7.99697 14.2214 8.14755 14.3159 8.16428 14.2714C8.18101 14.2269 8.28698 14.2547 8.30371 14.3937C8.32044 14.5326 8.38736 14.5048 8.38736 14.5048L8.91718 14.4937L9.10122 14.3325L9.57526 14.3214C9.81508 14.3103 9.67007 13.9824 9.61988 13.9824C9.53623 13.9157 9.64777 13.6433 9.64777 13.6433L8.97295 13.0152C8.81679 13.0152 8.95622 12.7873 8.95622 12.7873C9.07891 12.7095 8.92833 12.5928 8.92833 12.5928C8.94506 12.4816 8.86141 12.3482 8.86141 12.3482C8.6941 12.237 8.73871 12.0203 8.73871 12.0203V11.8702C8.59929 11.7368 8.79448 11.7201 8.79448 11.7201C8.86141 11.6089 8.74987 11.5256 8.74987 11.5256L8.73871 11.4033L8.58813 11.3866L8.5714 10.9475L8.23678 10.4695C8.16986 10.4528 8.22005 10.3361 8.22005 10.3361C8.30371 10.2916 8.20332 10.1749 8.20332 10.1749L8.19217 9.96922L8.38736 9.95254L8.43198 9.88029H8.52679L8.51563 9.63572C8.56025 9.51343 8.67179 9.58013 8.67179 9.58013L8.80006 9.59125L8.87256 9.45229L8.88929 9.34112L8.78891 9.33001C8.67737 9.26331 8.73314 9.01874 8.73314 9.01874C8.9116 8.7575 9.11237 8.90757 9.11237 8.90757L9.24064 8.89646C9.43584 9.02986 9.25738 9.26887 9.25738 9.26887C9.21834 9.32445 9.24064 9.50232 9.24064 9.50232L9.28526 9.80247L9.16257 9.90808C9.06218 9.96366 9.06218 10.0971 9.17372 10.1249C9.24622 10.136 9.21834 10.3138 9.1068 10.1916C8.93949 10.1916 9.2016 10.3416 9.12353 10.3027C9.29084 10.3861 9.2518 10.2305 9.2518 10.2305L9.47488 10.0526C9.55853 9.98589 9.70911 10.1916 9.70911 10.2193C9.70911 10.2471 10.0772 10.2305 10.0772 10.2305C10.1776 10.2972 10.2166 10.4639 10.2166 10.4639C10.317 10.3305 10.5345 10.4528 10.3728 10.5306C10.5234 10.6251 10.5234 10.7085 10.5234 10.7085C10.646 10.6696 10.646 10.7641 10.646 10.7919C10.646 10.8196 10.6851 10.6529 10.6851 10.6529C10.5457 10.5473 10.8691 10.5139 10.7799 10.6974L10.7241 10.7807L10.8189 10.853L10.8301 11.0698C11.0364 11.0531 10.9807 10.7974 10.9807 10.7974L11.0755 10.7807C11.0755 10.6974 11.1424 10.7418 11.1424 10.7418C11.0755 10.425 11.293 10.3694 11.293 10.3694C11.4157 10.3416 11.4213 10.0859 11.4213 10.0859C11.3376 10.047 11.3822 9.91919 11.477 10.0304C11.5718 10.1415 11.4213 9.80247 11.4213 9.80247L11.3488 9.73577L11.2484 9.72465L11.2372 9.61904H11.0699L11.042 9.75244L10.9807 9.78024L10.9639 9.74133L10.9361 9.84694H10.7687L10.7576 9.73577L10.858 9.70798L10.897 9.65239L10.9249 9.50232H11.0476L11.2037 9.45785C11.2149 9.29666 11.2986 9.33557 11.2986 9.33557L11.3543 9.38003L11.438 9.44673L11.4491 9.50232L11.3934 9.53011L11.3822 9.60793L11.4101 9.71353H11.4826C11.5105 9.56346 11.7057 9.56346 11.7615 9.65795L11.8172 9.52455C11.6889 9.45785 11.8172 9.3578 11.8507 9.40227C11.8897 9.44673 11.9734 9.27998 11.9734 9.27998C11.9734 9.27998 12.0403 9.36336 11.9734 9.25219C11.9065 9.14102 12.018 9.08544 12.018 9.08544C12.0013 8.97427 12.1407 8.99095 12.1407 8.99095L12.1518 8.84087L12.0236 8.82975C11.9957 8.96316 11.8841 8.84643 11.9399 8.81864C11.9957 8.79085 12.0515 8.73526 12.0515 8.73526V8.64077L12.1072 8.62409L12.1184 8.5296H12.2578L12.3805 8.47402L12.4084 8.42955L12.5367 8.41844L12.7207 8.25168L12.704 8.17943C12.5924 8.17943 12.704 8.09605 12.704 8.09605L12.7151 7.94042Z" fill="#418FDE"/>
<path d="M8.97858 9.79754L8.81127 9.78087L8.82243 9.84757H8.86704C8.93954 9.98097 8.8782 10.2978 8.8782 10.2978C8.8782 10.2978 8.76666 10.3089 8.74993 10.2533C8.7332 10.1977 8.683 10.3756 8.72204 10.4034C8.76108 10.4312 8.88935 10.4034 8.9005 10.509C8.91166 10.6146 8.98416 10.4423 8.98416 10.4423L8.97858 9.79754Z" fill="#418FDE"/>
<path d="M8.81128 10.5588V10.7811L8.95628 10.9812L9.01205 10.8478L9.03436 10.7644L8.96744 10.7366L8.97859 10.5977L9.03436 10.5866L9.03994 10.5199L8.90051 10.6144L8.81128 10.5588Z" fill="#418FDE"/>
<path d="M9.05102 11.187V11.0925L8.98409 11.1036L8.97852 11.1759L9.05102 11.187Z" fill="#418FDE"/>
<path d="M8.96724 11.6371V11.5704L8.88916 11.5815V11.6482L8.96724 11.6371Z" fill="#418FDE"/>
<path d="M9.07884 11.3477C9.10114 11.3477 9.11788 11.331 9.11788 11.3088C9.11788 11.2866 9.10114 11.2699 9.07884 11.2699C9.05653 11.2699 9.03979 11.2866 9.03979 11.3088C9.03979 11.331 9.05653 11.3477 9.07884 11.3477Z" fill="#418FDE"/>
<path d="M9.14011 11.5424C9.16167 11.5424 9.17915 11.525 9.17915 11.5035C9.17915 11.482 9.16167 11.4646 9.14011 11.4646C9.11855 11.4646 9.10107 11.482 9.10107 11.5035C9.10107 11.525 9.11855 11.5424 9.14011 11.5424Z" fill="#418FDE"/>
<path d="M9.14573 10.4697C9.16729 10.4697 9.18477 10.4523 9.18477 10.4308C9.18477 10.4093 9.16729 10.3919 9.14573 10.3919C9.12417 10.3919 9.10669 10.4093 9.10669 10.4308C9.10669 10.4523 9.12417 10.4697 9.14573 10.4697Z" fill="#418FDE"/>
<path d="M12.1181 9.1581H12.1739L12.1851 9.21924L12.146 9.25259L12.1293 9.30261L12.0568 9.31929L11.8895 9.48048L11.8783 9.55274L11.8337 9.61944L11.7779 9.7584L11.5827 9.76952L11.5437 9.93627L11.5716 10.0808L11.7389 10.1475L11.7556 10.053L11.8114 10.0252L11.8226 9.93071L11.8616 9.86401L11.9174 9.79731L11.9341 9.72505L12.0289 9.66946L12.1404 9.64723L12.1851 9.59165L12.2018 9.48048L12.2129 9.39711L12.252 9.33596L12.3635 9.2915V9.11363H12.3077L12.2966 9.04693L12.1962 9.03581L12.1739 9.08584H12.1293L12.1181 9.1581Z" fill="#418FDE"/>
<path d="M12.5532 9.68628V9.55288L12.5365 9.43059L12.3971 9.36389L12.2967 9.45838L12.2799 9.59178V9.67516L12.1851 9.69183L12.1684 9.94752L12.0959 9.97531L12.1071 10.0698L12.0067 10.0976L11.9063 10.1254L11.8896 10.2477L11.8171 10.2921L11.778 10.4033L11.7334 10.6757C11.7334 10.6757 11.8171 10.8369 11.8617 10.759C11.9063 10.6868 11.9844 10.6757 11.9844 10.6757L12.0122 10.609L12.2632 10.6201C12.2799 10.5145 12.4026 10.5534 12.4026 10.6034C12.4026 10.6479 12.4974 10.6145 12.4974 10.6145L12.5644 10.5089H12.6648L12.6759 10.3977L12.7205 10.37V10.2032C12.8711 10.1587 12.8488 10.0142 12.8488 10.0142L12.8878 9.96975L12.8711 9.90305C12.7986 9.87526 12.8321 9.80856 12.8823 9.82524C12.9269 9.84191 12.8153 9.74186 12.8153 9.74186C12.7596 9.78633 12.715 9.68628 12.715 9.68628H12.5532Z" fill="#418FDE"/>
<path d="M12.7039 10.82C12.6927 10.9312 12.5533 10.9701 12.5533 10.9701L12.4529 10.9423L12.3971 10.8978L12.386 10.7644L12.4696 10.7533L12.4864 10.8089L12.7039 10.82Z" fill="#418FDE"/>
<path d="M13.2061 10.2193C13.2284 10.3027 13.2228 10.0859 13.2619 10.0971C13.3009 10.1082 13.273 9.96365 13.273 9.96365L13.1057 10.0859C13.1838 10.0971 13.1949 10.1804 13.2061 10.2193Z" fill="#418FDE"/>
<path d="M13.6969 9.73048C13.736 9.81386 13.7248 9.93614 13.8642 10.0306C13.9089 10.064 13.8364 10.1251 13.7917 10.0973C13.7471 10.0695 13.6133 9.86388 13.6133 9.86388V9.7416C13.6412 9.66934 13.6802 9.69713 13.6969 9.73048Z" fill="#418FDE"/>
<path d="M13.6968 12.5819L13.7247 12.6097L13.7525 12.6598L13.8139 12.5542L13.7637 12.5375L13.6968 12.5819Z" fill="#418FDE"/>
<path d="M14.8064 12.2985L14.8789 12.2484L14.851 12.204L14.7729 12.2484L14.8064 12.2985Z" fill="#418FDE"/>
<path d="M17.4892 14.2548L17.5729 14.2937L17.584 14.4549C17.6956 14.566 18.0581 14.4715 18.0581 14.4438C18.0581 14.416 18.0414 14.0991 18.0414 14.0991L17.9967 14.0547L17.9856 13.8212C18.0246 13.6989 17.8071 13.5211 17.7904 13.56C17.7737 13.5989 17.651 13.5711 17.651 13.6044C17.651 13.6433 17.5785 13.8268 17.6119 13.8935C17.651 13.9602 17.584 13.9602 17.5729 14.0269C17.5617 14.0825 17.4669 14.1936 17.4892 14.2548Z" fill="#418FDE"/>
<path d="M17.2831 13.8771C17.2663 13.9494 17.1994 13.9883 17.1604 13.9605C17.1213 13.9327 17.205 14.0049 17.2273 14.0439C17.244 14.0828 17.2998 14.0828 17.3221 14.0439C17.3388 14.0049 17.3333 13.9216 17.35 13.8827C17.3667 13.8493 17.2942 13.8382 17.2831 13.8771Z" fill="#418FDE"/>
<path d="M16.9204 12.1595H16.8535V12.3374H16.9204V12.1595Z" fill="#418FDE"/>
<path d="M17.8124 10.3529C17.7734 10.2973 17.9965 10.2028 18.0355 10.3139C18.0745 10.4251 18.0355 10.4084 17.9965 10.3973C17.963 10.3862 17.8682 10.4251 17.8124 10.3529Z" fill="#418FDE"/>
<path d="M18.0134 9.09697L18.0022 9.15255L18.1026 9.16923L18.1137 9.11364L18.0134 9.09697Z" fill="#418FDE"/>
<path d="M17.7511 9.25795L17.7567 9.27462L17.8125 9.25239L17.7902 9.20792L17.779 9.17458L17.7511 9.19125L17.6842 9.23016L17.6229 9.19125L17.595 9.24128L17.6675 9.28574L17.6842 9.29686L17.6954 9.28574L17.7511 9.25795Z" fill="#418FDE"/>
<path d="M18.1024 6.97359H17.963C17.963 6.97359 18.0076 6.99026 17.8793 6.86798C17.7511 6.7457 17.6674 6.89577 17.6674 6.89577L17.5168 6.91245V7.06252L17.4443 7.09032L17.4555 7.18481L17.5559 7.17369C17.5559 7.17369 17.5559 7.28486 17.5838 7.24039C17.6116 7.19592 17.8459 7.25151 17.8236 7.36268C17.818 7.40714 18.0578 7.52943 18.0299 7.6795C18.1526 7.69618 18.1247 7.81846 18.1247 7.81846L18.2809 7.83514L18.3255 7.74064L18.3701 7.75176V7.69618L18.2697 7.66839L18.253 7.36823L18.1861 7.32377L18.2028 7.24595L18.1303 7.21816L18.1693 7.09587L18.1024 6.97359Z" fill="#418FDE"/>
<path d="M18.5096 7.92977L18.4371 7.91866L18.2698 7.94645L18.175 8.12431C18.175 8.12431 18.2196 8.15211 18.2586 8.21881C18.2977 8.28551 18.3144 8.66903 18.2028 8.73573C18.0913 8.80243 18.214 8.76353 18.214 8.76353L18.1973 8.96918C18.2252 9.06368 18.2698 9.01365 18.2977 8.96918C18.3255 8.92472 18.3534 8.9136 18.3925 8.86358C18.4315 8.81911 18.4873 8.73018 18.4928 8.66903C18.504 8.60233 18.5486 8.50228 18.5207 8.47449C18.4928 8.4467 18.5486 8.3133 18.5486 8.3133C18.5486 8.3133 18.5877 8.23548 18.5486 8.16322C18.5096 8.08541 18.5598 8.00203 18.5877 7.96868L18.5096 7.92977Z" fill="#418FDE"/>
<path d="M18.6211 8.31318L18.6267 8.24092L18.6824 8.24648L18.6769 8.3243L18.6211 8.31318Z" fill="#418FDE"/>
<path d="M18.6156 8.5743L18.5654 8.5465L18.5933 8.49092L18.6435 8.51871L18.6156 8.5743Z" fill="#418FDE"/>
<path d="M18.5373 7.82957L18.4983 7.74619C18.4983 7.74619 18.4983 7.67393 18.515 7.63503C18.5318 7.59612 18.476 7.56277 18.4481 7.55165C18.4202 7.54053 18.4314 7.46827 18.4202 7.42937C18.4091 7.39046 18.3477 7.36267 18.3477 7.36267C18.3477 7.36267 18.331 7.22371 18.331 7.19591C18.331 7.16812 18.2473 7.12921 18.2752 7.10142C18.3031 7.07363 18.3198 7.03472 18.3477 7.01805C18.3756 7.00137 18.3198 6.86797 18.3645 6.89576C18.4091 6.92355 18.4091 6.97358 18.4314 7.00693C18.4481 7.04584 18.4202 7.17368 18.4704 7.20147C18.515 7.22927 18.4593 7.32376 18.5373 7.32376C18.6098 7.32376 18.5652 7.50163 18.5652 7.50163C18.5652 7.50163 18.5485 7.63503 18.5931 7.64058C18.6377 7.6517 18.6098 7.87404 18.6098 7.87404L18.5373 7.82957Z" fill="#418FDE"/>
<path d="M17.9353 6.31228C17.9632 6.35118 18.019 6.37898 18.019 6.41788C18.019 6.45679 18.0022 6.48458 18.058 6.49014C18.1138 6.50126 18.1528 6.47903 18.1695 6.52905C18.1863 6.57352 18.1863 6.65134 18.1807 6.69024C18.1695 6.72915 18.1918 6.78474 18.2365 6.78474C18.2811 6.78474 18.2922 6.79585 18.2922 6.82364C18.2922 6.85144 18.348 6.71804 18.348 6.71804C18.3034 6.67913 18.2643 6.59575 18.2643 6.59575C18.2643 6.59575 18.2197 6.46235 18.2197 6.44568C18.2197 6.429 18.1528 6.40677 18.1249 6.40121C18.097 6.39009 18.0524 6.30672 18.0524 6.30672L17.9353 6.31228Z" fill="#418FDE"/>
<path d="M18.0242 6.22312C17.9963 6.18421 17.9684 6.15642 17.9294 6.13974C17.8904 6.12307 17.8625 6.10083 17.829 6.10083C17.79 6.10083 17.7565 6.06192 17.7732 6.01746C17.79 5.97299 17.7454 5.95076 17.7454 5.91185C17.7454 5.87294 17.7732 5.87294 17.8179 5.90073C17.8625 5.92852 17.8569 5.93964 17.8904 5.98411C17.9294 6.02857 17.9461 6.0786 17.9852 6.06748C18.0242 6.05637 18.0521 6.15086 18.0856 6.12307C18.1246 6.09527 18.1134 6.18977 18.1134 6.18977L18.0242 6.22312Z" fill="#418FDE"/>
<path d="M16.9424 7.28471C16.9926 7.33473 16.6636 7.32362 16.6636 7.28471C16.6636 7.2458 16.6915 7.11796 16.7751 7.14575C16.8588 7.17354 16.8699 6.979 16.8699 6.979C16.8699 6.979 16.7974 6.99012 16.8588 6.95121C16.9257 6.9123 16.8588 6.85672 16.8309 6.82892C16.803 6.80113 16.7751 6.75111 16.7751 6.75111H16.9034C16.9592 6.7122 16.9759 6.53433 16.9759 6.53433C17.0874 6.57324 17.1432 6.49542 17.1432 6.49542C17.1432 6.49542 17.1599 6.55101 17.199 6.60103C17.238 6.6455 17.1042 6.66773 17.1543 6.69552C17.199 6.72332 17.2213 6.80669 17.199 6.83448C17.1822 6.86227 17.0763 6.8456 17.0763 6.80669C17.0763 6.76778 17.0372 6.85116 17.0763 6.90118C17.1153 6.94565 17.0317 7.01235 17.0093 7.01235C16.9926 7.01235 16.8699 7.02902 16.9703 7.09017C17.0707 7.14575 17.1822 7.11796 17.1822 7.11796C17.1822 7.11796 17.2659 7.10684 17.2938 7.15687C17.3217 7.20133 17.2826 7.21245 17.238 7.21245C17.1934 7.21245 16.9703 7.19578 16.9703 7.19578C16.9703 7.19578 16.9145 7.25692 16.9424 7.28471Z" fill="#418FDE"/>
<path d="M16.3456 7.36798C16.3902 7.35686 16.5017 7.3513 16.524 7.3791C16.5408 7.40689 16.4571 7.4458 16.4571 7.4458L16.3456 7.46247C16.3121 7.41801 16.301 7.3791 16.3456 7.36798Z" fill="#418FDE"/>
<path d="M17.5447 6.5847C17.6172 6.5458 17.7789 6.5458 17.7678 6.49021C17.7566 6.43463 17.8626 6.41795 17.8626 6.41795L17.8905 6.52912L17.9741 6.5847L17.9853 6.69031C17.9853 6.69031 18.0131 6.67364 17.9128 6.70143C17.8124 6.72922 17.8737 6.77369 17.8737 6.77369L17.6506 6.78481L17.6228 6.69031L17.5447 6.5847Z" fill="#418FDE"/>
<path d="M17.1825 6.07289C17.2383 6.07289 17.1658 6.28967 17.3108 6.26744C17.4614 6.25076 17.3219 6.33414 17.4335 6.33969C17.545 6.35081 17.5171 6.25632 17.5562 6.18962C17.5952 6.12292 17.5729 6.08401 17.5116 6.06733C17.4446 6.05066 17.4446 6.05066 17.4279 5.97284C17.4112 5.90058 17.3331 5.87835 17.3331 5.87835L17.3052 5.76718L17.1825 5.83944L17.0598 6.00063C17.0598 6.13403 17.1267 6.07289 17.1825 6.07289Z" fill="#418FDE"/>
<path d="M17.4275 6.86801L17.4554 6.81242L17.5056 6.83466L17.4777 6.8958L17.4275 6.86801Z" fill="#418FDE"/>
<path d="M17.3888 6.77896H17.333V6.84566H17.3888V6.77896Z" fill="#418FDE"/>
<path d="M17.3775 5.52846L17.3887 5.61183L17.3329 5.61739L17.3218 5.53402L17.3775 5.52846Z" fill="#418FDE"/>
<path d="M17.277 6.40105H17.2212V6.44551H17.277V6.40105Z" fill="#418FDE"/>
<path d="M17.0708 6.40103L17.0652 6.34545L17.16 6.33989L17.1656 6.39547L17.0708 6.40103Z" fill="#418FDE"/>
<path d="M16.3068 7.30703L16.2566 7.2848L16.2845 7.21809L16.3347 7.24033L16.3068 7.30703Z" fill="#418FDE"/>
<path d="M16.0166 7.13446L16.011 7.07888L16.1058 7.06776L16.1114 7.12335L16.0166 7.13446Z" fill="#418FDE"/>
<path d="M14.4102 7.11815L14.2039 7.12371L14.2094 7.17929L14.4102 7.17373V7.11815Z" fill="#418FDE"/>
<path d="M14.0702 7.19573L14.0479 7.11236L14.1036 7.10124L14.1204 7.18462L14.0702 7.19573Z" fill="#418FDE"/>
<path d="M14.0311 7.25708L14.0144 7.2015L14.0423 7.19594L14.059 7.24596L14.0311 7.25708Z" fill="#418FDE"/>
<path d="M14.4943 7.09557L14.4832 7.16227L14.5835 7.17338C14.5835 7.17338 14.6282 7.21229 14.6282 7.24009C14.6282 7.26788 14.6951 7.29567 14.7285 7.29567C14.7676 7.29567 14.868 7.21785 14.868 7.21785C14.868 7.21785 14.9126 7.08445 14.8791 7.09557C14.8401 7.10668 14.7676 7.16227 14.7564 7.10668C14.7453 7.0511 14.6337 7.07889 14.6337 7.07889L14.4943 7.09557Z" fill="#418FDE"/>
<path d="M14.9572 6.9956C14.9572 7.02339 14.9405 7.0623 14.9962 7.07342C15.052 7.08454 15.1524 7.03451 15.1635 7.09009C15.1747 7.14568 15.1747 7.18459 15.2472 7.21238C15.3197 7.24017 15.3699 7.25129 15.4257 7.25129C15.4814 7.25129 15.6041 7.23461 15.6041 7.23461C15.6041 7.23461 15.738 7.25684 15.7603 7.27908C15.8607 7.38469 15.9276 7.41248 15.9555 7.36245C15.9834 7.31799 15.9443 7.21238 15.9387 7.17347C15.9276 7.13456 15.7993 6.95669 15.7547 6.9956C15.7101 7.03451 15.6989 6.9956 15.6153 7.02339C15.5316 7.05119 15.3532 7.03451 15.3476 6.9956C15.3364 6.95669 15.2082 6.94002 15.2082 6.90111C15.2082 6.8622 15.1133 6.81773 15.1245 6.87332C15.1357 6.9289 15.0576 6.95669 15.0408 6.94002C15.013 6.91778 14.9572 6.9956 14.9572 6.9956Z" fill="#418FDE"/>
<path d="M17.0875 5.79509L17.1544 5.58943C17.0596 5.57275 17.0819 5.46714 17.0819 5.46714C17.0708 5.38377 16.9425 5.28927 16.8979 5.31707C16.8533 5.34486 16.87 5.12252 16.87 5.12252C16.87 5.12252 16.9536 5.06694 16.9927 5.09473C17.0317 5.12252 16.6748 4.62783 16.6023 4.6723C16.5298 4.71676 16.3625 4.62783 16.3681 4.5389C16.3792 4.45552 16.0334 4.17204 16.0334 4.17204C16.0334 4.17204 15.9219 4.09979 15.9052 4.15537C15.8884 4.21095 15.8494 4.24986 15.9052 4.27765C15.9609 4.30544 15.9498 4.23319 16.0167 4.29433C16.0836 4.36103 16.2007 4.4444 16.1561 4.49999C16.1115 4.55557 16.0557 4.5778 16.0557 4.5778L16.1227 4.65562H16.2231L16.2398 4.81681C16.2398 4.81681 16.3513 4.8724 16.3792 4.9391C16.4071 5.0058 16.4071 5.04471 16.3792 5.07806C16.3513 5.11697 16.2956 5.18367 16.3067 5.24481C16.3179 5.31151 16.3904 5.3393 16.3904 5.3393L16.4629 5.35042L16.5186 5.37821V5.50049C16.5911 5.48382 16.7138 5.58387 16.7027 5.65057C16.6915 5.71727 16.7194 5.67836 16.8142 5.74506C16.909 5.81176 16.8811 5.82288 16.9425 5.86734C17.0038 5.90625 17.0596 5.87846 17.0875 5.79509Z" fill="#418FDE"/>
<path d="M15.5591 4.51661C15.548 4.4777 15.5313 4.34986 15.587 4.35542C15.6428 4.36654 15.6038 4.35542 15.6707 4.38321C15.7376 4.411 15.7432 4.33875 15.7432 4.33875H15.8436L15.9718 4.44435L15.9551 4.52773L15.8603 4.53885C15.8157 4.46659 15.7209 4.49438 15.7376 4.55552C15.7543 4.62222 15.693 4.7445 15.6539 4.75006C15.6149 4.76118 15.4978 4.76118 15.5034 4.7056C15.5201 4.65001 15.5591 4.51661 15.5591 4.51661Z" fill="#418FDE"/>
<path d="M15.4867 4.26634V4.19408C15.4867 4.19408 15.4755 4.12182 15.4309 4.12182C15.3863 4.12182 15.3026 4.06624 15.3194 4.02733C15.3361 3.98842 15.1632 3.94952 15.1632 3.94952C15.1632 3.94952 15.007 3.79944 15.0628 3.81611C15.1186 3.83279 15.0907 3.74941 15.0907 3.74941C15.0907 3.74941 14.9792 3.76609 14.9513 3.76053C14.9234 3.74941 14.9345 3.66604 14.9345 3.66604C14.9345 3.66604 14.823 3.63825 14.823 3.66604C14.823 3.69383 14.862 3.69383 14.8788 3.74941C14.8955 3.805 14.8899 3.89949 14.9736 3.91617C15.0572 3.93284 15.074 3.95507 15.0851 3.99398C15.0963 4.03289 15.1967 4.03845 15.1967 4.03845L15.2692 4.07736L15.4867 4.26634Z" fill="#418FDE"/>
<path d="M14.4834 3.31047L14.4556 3.23265L14.3831 3.21597V3.29935L14.4834 3.31047Z" fill="#418FDE"/>
<path d="M14.4551 2.91606C14.3603 2.8438 14.5834 2.97165 14.5834 2.97165C14.6559 2.97165 14.7061 3.02723 14.7061 3.05502C14.7061 3.08281 14.8065 3.0717 14.8065 3.0717L14.8176 3.005L14.7451 2.9105L14.6782 2.86604C14.6782 2.86604 14.5778 2.85492 14.5778 2.82713C14.5778 2.80489 14.4941 2.94385 14.4551 2.91606Z" fill="#418FDE"/>
<path d="M16.1617 2.97151C16.1338 3.05488 16.1227 3.16605 16.0781 3.16605C16.0335 3.16605 16.0502 3.28834 16.0502 3.28834C16.0502 3.28834 16.1729 3.28834 16.2063 3.29945C16.2454 3.31057 16.2454 3.40506 16.2454 3.40506C16.3848 3.39394 16.4406 3.58293 16.4239 3.63295C16.4071 3.67742 16.4796 3.67742 16.4796 3.67742C16.4796 3.67742 16.4796 3.8275 16.4629 3.86641C16.4462 3.90531 16.5856 3.93311 16.619 3.98869C16.6581 4.04427 16.6023 4.23326 16.5744 4.24437C16.5465 4.25549 16.6469 4.28328 16.6414 4.32775C16.6302 4.37222 16.6692 4.32775 16.6804 4.40557C16.6915 4.47783 16.7083 4.63902 16.7083 4.63902L16.8365 4.65013C16.8533 4.52785 17.0931 4.52229 17.1321 4.53897C17.2883 4.59455 17.411 4.83912 17.411 4.8947C17.411 4.95029 17.3106 4.9614 17.3106 4.9614L17.3273 5.23376C17.4835 5.27823 17.6173 5.50612 17.595 5.54503C17.5783 5.58394 17.7066 5.57282 17.7066 5.57282C17.7233 5.40607 17.885 5.46165 17.8906 5.51724C17.9018 5.57282 17.9296 5.69511 17.9296 5.69511L17.9743 5.77848L18.0412 5.84518L18.1416 5.83406L18.1695 5.88965L18.2921 5.90632C18.2921 5.90632 18.3925 6.01749 18.4037 6.04528C18.4148 6.07307 18.5543 6.06196 18.5877 6.07307C18.6268 6.08419 18.6825 6.11198 18.6881 6.15645C18.6993 6.20092 18.755 6.27873 18.755 6.27873C18.755 6.27873 18.8666 6.30653 18.8777 6.34543C18.8889 6.38434 18.9335 6.46772 18.9335 6.46772L19.0283 6.54554L19.0395 6.62891L19.1399 6.64003L19.1677 6.75119L19.335 6.74008L19.4299 6.67338C19.5525 6.60668 19.6362 6.5233 19.6418 6.48439C19.6529 6.44548 19.6697 6.30653 19.7645 6.33432C19.8593 6.36211 19.7924 6.12866 19.7924 6.12866C19.7924 6.12866 19.6641 6.03417 19.6697 5.9897C19.6808 5.94523 19.5414 5.85074 19.547 5.81183C19.5581 5.77292 19.4243 5.70066 19.4354 5.66176C19.4466 5.62285 19.3685 5.5228 19.3685 5.5228L19.2291 5.3894L19.2124 5.30602L19.1008 5.2949L18.8777 5.02254L18.8889 4.94473L18.822 4.93361V4.828L18.755 4.78909L18.6547 4.77798L18.4483 4.55564L18.4316 4.45003H18.3312L18.3479 4.25549C18.4148 4.17211 18.3758 4.01092 18.3758 4.01092C18.3758 4.01092 18.2475 4.07762 18.1806 4.04983C18.1137 4.02204 18.2085 3.95534 18.2085 3.95534V3.88308L18.1527 3.8275C18.1527 3.8275 17.9966 3.84417 17.9854 3.81638C17.9743 3.78859 17.9464 3.6663 17.9464 3.6663L17.9352 3.50511L17.8683 3.47732L17.8571 3.42174L17.7568 3.43285V3.32169L17.701 3.30501L17.6452 3.27722L17.6341 3.16605L17.4277 3.15493L17.3608 3.06044L17.2883 2.94928L17.0541 2.9326L16.9983 2.87702L16.9035 2.86034L16.8365 2.83255L16.8087 2.87702L16.6302 2.88813L16.619 2.94372C16.541 2.98263 16.1729 2.94372 16.1617 2.97151Z" fill="#418FDE"/>
<path d="M17.1375 2.72685C17.1207 2.65459 17.3215 2.58789 17.3717 2.64347C17.4163 2.69906 17.5502 2.71017 17.5669 2.98809C17.5725 3.08814 17.3996 2.88248 17.3996 2.88248L17.2602 2.83801C17.1821 2.82134 17.143 2.77687 17.1375 2.72685Z" fill="#418FDE"/>
<path d="M14.4162 2.84359L14.366 2.82136L14.405 2.73242L14.4552 2.76021L14.4162 2.84359Z" fill="#418FDE"/>
<path d="M13.9365 1.92104L13.8138 1.79876V1.69315L13.7748 1.65424L13.7357 1.52084L13.613 1.48193L13.4903 1.5264L13.3621 1.60978L13.2226 1.62645L13.1501 1.70983L13.4457 1.73762L13.5015 1.83211L13.7134 1.84879L13.8529 1.98774C13.9811 2.04333 14.009 1.98774 13.9365 1.92104Z" fill="#418FDE"/>
<path d="M13.9198 1.4595C13.8975 1.37612 13.7804 1.56511 13.9031 1.59846C14.0257 1.63737 14.1429 1.59846 14.1429 1.59846L14.1707 1.54287L14.6336 1.55399C14.6727 1.51508 14.6894 1.4595 14.6894 1.4595C14.6894 1.4595 14.801 1.42059 14.8456 1.44282C14.8902 1.4595 14.8567 1.30942 14.8065 1.33166C14.7619 1.34833 14.6671 1.34277 14.6671 1.34277H14.4998C14.4886 1.27607 14.3436 1.30386 14.3325 1.34277C14.3269 1.37612 14.2711 1.38724 14.2711 1.38724L14.0592 1.40391C14.0369 1.4595 13.9309 1.49841 13.9198 1.4595Z" fill="#418FDE"/>
<path d="M12.9992 3.04349C13.1442 3.08795 13.1944 3.0546 13.2056 3.01569C13.2167 2.97679 13.2223 2.97123 13.2781 2.96011C13.3338 2.94899 13.2669 2.83783 13.2111 2.84894C13.1554 2.86006 13.0996 2.83227 13.0885 2.78224C13.0773 2.73778 12.9881 2.61549 12.9769 2.70998C12.9658 2.80448 12.91 2.80448 12.9211 2.87118C12.9379 2.93232 12.9658 3.03237 12.9992 3.04349Z" fill="#418FDE"/>
<path d="M11.9342 3.14961C11.9286 3.11626 12.1182 3.1107 12.1461 3.13849C12.174 3.16628 12.1573 3.21631 12.2409 3.21631C12.3246 3.21631 12.2856 3.27189 12.28 3.29968C12.2688 3.32748 12.1796 3.31636 12.1684 3.28857C12.1573 3.26078 12.0179 3.24966 12.0179 3.24966C12.0179 3.24966 11.9454 3.19408 11.9342 3.14961Z" fill="#418FDE"/>
<path d="M14.9905 1.25386L15.0129 1.27609L15.0296 1.25941L15.1244 1.1816L15.0854 1.13713L15.0129 1.19827L14.9682 1.14825L14.9292 1.19271L14.9905 1.25386Z" fill="#418FDE"/>
<path d="M14.5778 1.03717L14.5889 1.02605L14.6949 0.959353L14.6614 0.914886L14.5778 0.97047L14.5164 0.931562L14.4885 0.981587L14.561 1.02605L14.5778 1.03717Z" fill="#418FDE"/>
<path d="M14.2431 2.94923L14.3045 3.04373L14.3491 3.01038L14.2877 2.91033L14.2766 2.89921H14.2654L14.1706 2.88809L14.165 2.94368L14.2431 2.94923Z" fill="#418FDE"/>
<path d="M11.2094 5.51183L11.2206 5.61743H11.36C11.4158 5.61743 11.3154 5.55073 11.3154 5.55073C11.3154 5.55073 11.2039 5.56185 11.2094 5.51183Z" fill="#418FDE"/>
<path d="M11.3877 5.51718L11.4212 5.47272L11.4769 5.51718L11.4435 5.56165L11.3877 5.51718Z" fill="#418FDE"/>
<path d="M9.69824 3.76095L9.73728 3.72205L9.79305 3.77763L9.75401 3.81654L9.69824 3.76095Z" fill="#418FDE"/>
<path d="M12.3137 15.8835L12.3527 15.9225L12.3974 15.878L12.4252 15.8502L12.3918 15.828L12.297 15.7835L12.2747 15.8335L12.3304 15.8613L12.3137 15.8835Z" fill="#418FDE"/>
<path d="M11.5833 15.2056L11.6502 15.2501L11.6837 15.2056L11.6447 15.1778L11.6725 15.1556L11.6391 15.1111L11.5833 15.1611L11.5554 15.1834L11.5833 15.2056Z" fill="#418FDE"/>
<path d="M18.5709 13.3769C18.5598 13.3269 18.504 13.3102 18.4984 13.3102L18.4817 13.3658C18.4873 13.3658 18.4928 13.3713 18.4984 13.3769L18.5096 13.4269C18.504 13.4325 18.4984 13.438 18.4984 13.4436L18.5375 13.4825C18.5653 13.438 18.5765 13.4102 18.5709 13.3769Z" fill="#418FDE"/>
<path d="M18.6547 13.1989L18.5654 13.1933L18.571 13.1099L18.6602 13.1211L18.6547 13.1989Z" fill="#418FDE"/>
<path d="M20.8018 12.4708C20.8408 12.4486 20.891 12.3986 20.8854 12.5042C20.8799 12.6098 20.8353 12.5764 20.8018 12.6098C20.7683 12.6431 20.746 12.5042 20.8018 12.4708Z" fill="#418FDE"/>
<path d="M21.2757 12.0705V12.0593C21.2757 12.0427 21.2701 12.0204 21.2589 11.9982L21.2087 12.026C21.2143 12.0371 21.2143 12.0538 21.2199 12.0649C21.2199 12.0816 21.2255 12.0982 21.2366 12.1094C21.2478 12.1149 21.2589 12.1205 21.2757 12.1149L21.2645 12.0593C21.2645 12.0649 21.2701 12.0649 21.2757 12.0705Z" fill="#418FDE"/>
<path d="M21.1531 12.1148C21.1698 12.1704 21.1865 12.226 21.1865 12.2315L21.2367 12.2093C21.2367 12.2093 21.2144 12.1537 21.2033 12.0981L21.1531 12.1148Z" fill="#418FDE"/>
<path d="M20.9467 12.3373L20.891 12.3317C20.8854 12.3762 20.8966 12.4317 20.9412 12.4373L20.9523 12.3817C20.9523 12.3817 20.9467 12.3595 20.9467 12.3373Z" fill="#418FDE"/>
<path d="M20.7068 11.2201C20.7012 11.2034 20.6957 11.1867 20.6789 11.1812C20.6399 11.1645 20.5674 11.1923 20.5339 11.2145L20.5674 11.259C20.6009 11.2368 20.6511 11.2257 20.6566 11.2312C20.6566 11.2312 20.6566 11.2312 20.6566 11.2257L20.7068 11.2201Z" fill="#418FDE"/>
<path d="M18.1356 8.22394C18.0966 8.26285 18.0129 8.27952 18.0129 8.27952L17.9851 8.38513L17.9404 8.42404C17.9404 8.42404 17.9516 8.45183 17.9404 8.51853C17.9293 8.58523 17.8456 8.62414 17.8456 8.62414L17.8066 8.66861C17.8066 8.66861 17.5835 8.67972 17.5556 8.66861C17.472 8.6297 17.5277 8.51853 17.5835 8.52965C17.6393 8.54077 17.5724 8.36846 17.5724 8.36846L17.6449 8.35734C17.6449 8.35734 17.656 8.19059 17.6839 8.19059C17.7118 8.19059 17.6727 8.135 17.6393 8.10721C17.6002 8.07942 17.5556 7.98493 17.5166 7.99605C17.4776 8.00716 17.3326 7.99605 17.3326 7.99605L17.3047 8.05163L17.2043 8.0683C17.2043 8.0683 17.2154 8.14056 17.1931 8.1628C17.1374 8.2295 16.9254 8.36846 17.0147 8.135L17.0425 8.07942V7.99605L16.8752 7.98493C16.8752 7.98493 16.7916 7.95714 16.7916 7.91823C16.7916 7.87932 16.7804 7.83485 16.7804 7.83485L16.5852 7.61808L16.351 7.59029L16.3343 7.54582L16.1948 7.52914C16.0275 7.44577 15.877 7.51803 15.9048 7.66254C15.9327 7.8015 15.9773 7.85709 15.8881 7.85709C15.7933 7.85709 15.7766 7.78483 15.7766 7.78483C15.7766 7.78483 15.7041 7.75704 15.7041 7.79595C15.7041 7.83485 15.6762 7.90711 15.7041 7.94602C15.732 7.98493 15.665 8.04051 15.6371 8.01272C15.6093 7.98493 15.5368 7.90155 15.5535 7.87376C15.5702 7.84597 15.4252 7.6681 15.5702 7.64031C15.7208 7.61252 15.5591 7.52914 15.6148 7.50691L15.6873 7.468H15.7598L15.8045 7.42909L15.6818 7.41242L15.6093 7.4013L15.4698 7.39018C15.3304 7.48468 15.3025 7.59584 15.3025 7.59584C15.23 7.7348 15.0516 7.54026 15.1185 7.46244C15.1854 7.38463 14.9121 7.45133 14.8675 7.49024C14.8229 7.52914 14.6835 7.50691 14.6835 7.50691C14.6556 7.59029 14.5273 7.49579 14.5608 7.44021C14.5998 7.38463 14.5998 7.34572 14.5998 7.34572L14.5552 7.3346L14.4994 7.44021C14.3712 7.44021 14.3321 7.51247 14.36 7.56249C14.3879 7.60696 14.321 7.55138 14.3042 7.61808C14.2875 7.68478 14.3154 7.68478 14.3712 7.71257C14.4269 7.74036 14.3433 7.74036 14.3823 7.78483C14.4214 7.8293 14.5329 7.78483 14.466 7.85153C14.3991 7.91823 14.2708 7.89044 14.2708 7.89044C14.2596 7.97381 14.0867 7.95714 14.0644 7.92935C14.0477 7.90155 13.9083 7.7348 13.9083 7.7348L13.7298 7.72369C13.7131 7.59029 13.8135 7.65699 13.8525 7.55694C13.8915 7.45133 13.9083 7.28458 13.9083 7.28458C13.9083 7.28458 13.7577 7.27346 13.7521 7.32348C13.741 7.36795 13.6517 7.4013 13.6517 7.4013C13.6517 7.4013 13.5792 7.42909 13.6071 7.468C13.635 7.50691 13.5513 7.52359 13.5513 7.52359C13.5513 7.52359 13.5681 7.58473 13.5402 7.60696C13.4677 7.68478 13.2781 7.61808 13.2502 7.59029L13.1386 7.54582L13.0271 7.47356L12.8988 7.52914L12.8598 7.56805H12.7204L12.7092 7.67922L12.9602 7.70701L12.9769 7.94046L12.8765 7.90711H12.8096L12.7817 7.85153L12.7259 7.84041V8.04607L12.7817 8.09054L12.8263 8.135L12.9211 8.14612L12.9379 8.25729L13.1721 8.26841L13.2 8.31287L13.3394 8.32399L13.6071 8.59635L13.5904 8.67972L13.5458 8.70752C13.5625 8.77422 13.4231 8.73531 13.4231 8.73531V8.79089L13.49 8.80201L13.5569 8.84092L13.6517 8.67972C13.7521 8.61302 13.8023 8.70752 13.8079 8.7631C13.819 8.81868 13.7633 8.80757 13.7633 8.80757V8.94097L13.819 8.95764C13.9139 9.06881 13.78 9.13551 13.78 9.13551L13.7521 9.23C13.7242 9.31338 13.6238 9.2967 13.6238 9.2967L13.5848 9.35229L13.4733 9.38008L13.6908 9.40787C13.7131 9.33005 13.7688 9.31338 13.7967 9.35229C13.8246 9.3912 13.8246 9.4579 13.8246 9.4579L13.8804 9.46901L13.8692 9.57462L13.925 9.5913V9.89145L13.9919 9.96371C14.1035 9.91924 14.1035 9.9915 14.0477 10.0304C13.9919 10.0693 14.031 10.2361 14.031 10.2361L13.9864 10.2805V10.3584L13.9306 10.3973V10.5029C13.8358 10.4584 13.7242 10.4751 13.6963 10.5029C13.6127 10.4473 13.4342 10.464 13.4342 10.514C13.49 10.5862 13.3673 10.6085 13.3673 10.6085L13.3004 10.6807C13.345 10.7752 13.2558 10.7863 13.2558 10.7863V10.9642L13.1442 11.0698L13.1554 11.3144C13.1554 11.3811 13.2948 11.3866 13.3227 11.3533C13.3506 11.3144 13.4621 11.4311 13.4621 11.4311H13.5458L13.5625 11.2644L13.5067 11.2366V10.9642L13.6015 10.8586C13.7131 10.8197 13.674 11.1032 13.674 11.131C13.6852 11.2366 13.7298 11.2255 13.7744 11.2032C13.8692 11.1643 13.7912 11.3088 13.7187 11.2977C13.6462 11.2866 13.6908 11.3922 13.6908 11.3922L13.7354 11.4089L13.6517 11.4756L13.5792 11.559L13.4844 11.5312L13.3729 11.52L13.3338 11.4533L13.2669 11.4422L13.2558 11.5756L13.2111 11.6312L13.0996 11.7424C13.2502 11.7424 13.0829 11.848 13.0438 11.848C13.1275 11.8758 13.0327 11.9592 12.8208 11.8925V11.9592L12.7483 11.9703L12.8152 12.0425L12.8877 12.0537L12.8598 12.2148C12.8598 12.3371 12.5531 12.2538 12.5252 12.226L12.514 12.3927L12.4583 12.4038L12.4694 12.515L12.4583 12.6762L12.5586 12.6595V12.7262L12.8096 12.7373L13.1721 12.3538L13.384 12.3093C13.4008 12.2148 13.4956 12.326 13.4956 12.326C13.5904 12.3149 13.6071 12.3816 13.6071 12.3816L13.7298 12.3983C13.8302 12.4261 13.7688 12.4372 13.7744 12.4761C13.7856 12.5317 13.8302 12.515 13.8302 12.515L13.8469 12.3927L13.9027 12.4038L13.8469 12.3371L13.7465 12.2927L13.635 12.2482C13.5625 12.1426 13.6517 12.1648 13.7298 12.1759H13.8525C13.8525 12.1759 13.9919 12.3649 13.9919 12.4094C13.9919 12.4539 14.0589 12.465 14.0589 12.465L14.1425 12.4539L14.1704 12.5206H14.254L14.2819 12.5761H14.4492L14.4604 12.4928L14.3042 12.465L14.2931 12.3705L14.1815 12.3427C14.1425 12.1815 14.2094 12.137 14.254 12.2093L14.3098 12.2204L14.2931 12.0814L14.36 12.0648L14.3433 11.8702L14.2875 11.8536V11.7868L14.5217 11.798C14.505 11.6757 14.5329 11.6201 14.5329 11.6201H14.5998L14.611 11.6646L14.8954 11.6924L15.0962 11.4645C15.085 11.4478 15.1185 11.4367 15.0962 11.4144C15.0683 11.3866 15.0293 11.4144 14.9846 11.3866C14.94 11.3589 14.9846 11.1977 14.9735 11.1643C14.9623 11.1254 15.1296 11.0698 15.1018 11.1532C15.0739 11.2366 15.1018 11.2755 15.1018 11.2755C15.2244 11.1643 15.3248 11.2866 15.3137 11.3144C15.3025 11.3422 15.3806 11.37 15.4252 11.3422C15.4698 11.3144 15.5256 11.4256 15.5089 11.4811C15.4921 11.5367 15.3248 11.5256 15.3137 11.47C15.3025 11.4144 15.2746 11.4311 15.2579 11.4589C15.2412 11.4867 15.1575 11.5034 15.1073 11.4756C15.0962 11.47 15.0962 11.4645 15.0906 11.4589L14.8898 11.6868H14.901C15.0125 11.7535 14.9568 11.8369 14.9177 11.8536C14.8787 11.8702 14.8173 11.8702 14.8173 11.8702L14.8006 11.9091L14.5608 11.9258L14.5441 12.0203C14.4214 12.0036 14.3767 12.1315 14.4046 12.1982C14.4325 12.2649 14.4046 12.3205 14.4046 12.3205L14.505 12.3649L14.6333 12.326C14.65 12.2315 14.7337 12.2148 14.8117 12.1593C14.8842 12.1037 15.0069 12.2649 14.9679 12.3371C14.9289 12.4094 14.9289 12.4427 14.9289 12.4427L14.94 12.5261L14.8452 12.565L14.7727 12.6039L14.7616 12.6484H14.5106L14.466 12.6929L14.3433 12.704L14.3042 12.7596L14.2206 12.7707C14.2206 12.7707 14.0812 12.8374 14.1369 12.9096C14.1927 12.9875 13.9027 12.9763 13.8414 12.8707C13.8246 12.9652 13.7187 12.8818 13.7187 12.8818L13.6183 12.8541L13.6071 12.7151C13.5904 12.6206 13.4119 12.6206 13.4231 12.6873C13.4342 12.754 13.0885 12.7151 13.0885 12.7151L12.9769 12.7707L12.8765 12.8318L12.8654 12.8763L12.6981 12.893L12.6256 12.9319L12.5977 12.8763H12.5252L12.4527 12.9819C12.2575 12.993 12.0734 13.1042 12.0902 13.1486C12.1069 13.1931 12.0177 13.2431 12.0177 13.2431L11.934 13.2709L11.8782 13.3543L11.7667 13.3932L11.75 13.5878L11.6942 13.6267V13.71L11.6273 13.7267V13.7712L11.5325 13.7823L11.5882 13.9213L11.6607 13.9602C11.789 13.9768 11.7332 14.138 11.7332 14.138L11.8057 14.1492L11.8448 14.2548L11.9173 14.4048C11.9452 14.516 12.0288 14.4882 12.0679 14.4827C12.1069 14.4715 12.1404 14.5938 12.1404 14.5938L12.5084 14.6049C12.5084 14.6049 12.4917 14.6438 12.5531 14.6605C12.62 14.6772 13.0438 14.6994 13.0606 14.6716C13.0438 14.5883 13.2948 14.566 13.3952 14.6438C13.4956 14.7161 13.635 14.6716 13.635 14.6716L13.7744 14.8384L13.8692 15.0441L14.0254 15.0885L14.1369 15.1163L14.176 15.2775L14.2596 15.2886L14.2875 15.3942C14.3879 15.4665 14.2596 15.6277 14.2596 15.6277V15.8333L14.3321 15.8722L14.321 15.9501L14.4437 16.0723L14.5831 16.0835L14.9344 16.4559L15.2133 16.5393L15.2579 16.6893L15.3304 16.6782L15.3862 16.6337L15.6093 16.6226L15.7208 16.517L15.8435 16.5003L16.8752 15.6277L16.7804 15.5721V15.3664C16.9477 15.2442 16.9589 15.0274 16.7972 15.0107C16.68 14.994 16.7302 14.8717 16.8418 14.8495L16.9087 14.8217V14.7383L17.1206 14.5438V14.3937L16.6577 14.0102C16.4514 13.9379 16.6577 13.4877 16.7972 13.4933C16.9366 13.5044 16.786 12.7985 16.786 12.7985L16.7135 12.7596L16.7302 12.5317H16.6299L16.4625 12.7484L16.4179 12.8985C16.4012 13.0931 15.8268 13.0597 15.7989 13.0319C15.771 13.0041 15.5758 12.9208 15.5758 12.9208C15.5758 12.9208 15.4252 12.7985 15.3973 12.8374C15.3694 12.8763 15.2412 12.7929 15.2412 12.8207C15.2412 12.8485 15.1185 12.754 15.1185 12.754L14.9344 12.6873L15.0739 12.6595L15.046 12.5483L15.2858 12.6706C15.3137 12.7095 15.4364 12.6984 15.4364 12.6984L15.4754 12.7429C15.4754 12.7429 15.5479 12.7318 15.5981 12.7874C15.6427 12.8429 15.8881 12.7985 15.8881 12.7985L15.955 12.8541L16.0554 12.893L16.3454 12.9041L16.3566 12.7262L16.4123 12.6706L16.4012 12.5595L16.4681 12.5039V12.4094L16.5239 12.3927L16.535 12.1871L16.5797 12.1759V11.7257L16.4402 11.5923C16.4291 11.6368 16.2841 11.6368 16.2841 11.6368C16.2841 11.6368 16.245 11.7035 16.2172 11.7035C16.1893 11.7035 16.2562 11.7868 16.2339 11.8424C16.2172 11.898 16.1391 11.898 16.1391 11.898L15.9996 11.9369L15.9606 11.9814H15.81L15.7933 11.8591L15.9606 11.8146L16.0554 11.7702L16.1 11.6757C16.1112 11.5812 16.2227 11.5923 16.2227 11.5923C16.2227 11.5923 16.4347 11.4144 16.4458 11.3311C16.457 11.2477 16.5295 11.0142 16.6577 11.0142H16.8975C16.9924 10.9753 16.9645 10.853 16.9645 10.853L17.0872 10.8364L17.1039 10.9031C17.1039 10.9031 17.2712 10.9197 17.2879 10.892C17.3047 10.8642 17.3437 10.7975 17.3883 10.8253C17.4329 10.853 17.5835 10.7586 17.5835 10.7586C17.5947 10.6919 17.8233 10.7196 17.8233 10.7196L17.8512 10.6363C17.8512 10.6363 17.6951 10.4195 17.6672 10.4195C17.6393 10.4195 17.4887 10.2861 17.472 10.3361C17.3214 10.2972 17.3326 10.0915 17.3326 10.0915L17.2768 9.95815C17.2768 9.88033 17.1374 9.7247 17.1095 9.74137C16.97 9.63576 17.0704 9.51904 17.1095 9.50792C17.1485 9.4968 17.2377 9.36896 17.2377 9.36896L17.2824 9.23556L17.4385 9.19109L17.4552 9.06881L17.3716 9.05769C17.3716 9.05769 17.4664 8.89094 17.511 8.89094C17.5556 8.89094 17.8624 8.89094 17.8903 8.87427C17.9181 8.85759 17.9739 8.70752 17.9739 8.67972C17.9739 8.65193 18.0464 8.64082 18.0743 8.63526C18.1022 8.62414 18.1691 8.55188 18.1858 8.51297C18.236 8.41848 18.1747 8.18503 18.1356 8.22394Z" fill="#418FDE"/>
<path d="M12.9992 11.6033C13.0103 11.5922 13.027 11.6477 13.0549 11.6366C13.0828 11.6311 13.094 11.6867 13.0661 11.6867C13.0382 11.6867 13.0382 11.72 13.0382 11.7367C13.0382 11.7534 13.0382 11.7867 13.0159 11.8089C12.9936 11.8312 12.9768 11.8145 12.949 11.8034C12.9211 11.7867 12.9099 11.7867 12.8709 11.7867C12.8374 11.7867 12.8653 11.8423 12.8653 11.8423C12.8653 11.8423 12.7203 11.8367 12.7482 11.8145C12.7761 11.7923 12.804 11.7867 12.7817 11.77C12.7593 11.7534 12.7817 11.7422 12.7817 11.7145C12.7817 11.6867 12.8486 11.6978 12.8318 11.6811C12.8095 11.6589 12.8318 11.581 12.8653 11.6255L12.8876 11.5755C12.8653 11.5533 12.882 11.5477 12.8374 11.531C12.7984 11.5143 12.8318 11.431 12.8318 11.431L12.8374 11.3754C12.8486 11.3031 12.988 11.2976 12.9992 11.3587C13.0047 11.4199 12.9992 11.4643 12.9992 11.4643L13.0382 11.481C13.0382 11.481 13.0326 11.5255 12.9992 11.5255C12.9657 11.5255 12.9992 11.5477 12.9768 11.5699L12.9992 11.6033Z" fill="#418FDE"/>
<path d="M12.5422 11.6758C12.5645 11.6314 12.6092 11.4535 12.6649 11.5091C12.7207 11.5647 12.7542 11.5091 12.7542 11.5091C12.7542 11.5091 12.782 11.5369 12.7653 11.5925C12.7542 11.6481 12.7374 11.7036 12.704 11.7148C12.6705 11.7203 12.6426 11.7425 12.598 11.7481C12.5645 11.7537 12.5422 11.6758 12.5422 11.6758Z" fill="#418FDE"/>
</g>
<path d="M38.416 15.3619C38.772 15.3619 39.09 15.3019 39.37 15.1819C39.65 15.0619 39.886 14.8939 40.078 14.6779C40.274 14.4619 40.422 14.2039 40.522 13.9039C40.626 13.6039 40.678 13.2739 40.678 12.9139V7.68789H41.836V12.9139C41.836 13.4099 41.756 13.8699 41.596 14.2939C41.44 14.7179 41.214 15.0859 40.918 15.3979C40.626 15.7059 40.268 15.9479 39.844 16.1239C39.42 16.2999 38.944 16.3879 38.416 16.3879C37.888 16.3879 37.412 16.2999 36.988 16.1239C36.564 15.9479 36.204 15.7059 35.908 15.3979C35.612 15.0859 35.384 14.7179 35.224 14.2939C35.068 13.8699 34.99 13.4099 34.99 12.9139V7.68789H36.148V12.9079C36.148 13.2679 36.198 13.5979 36.298 13.8979C36.402 14.1979 36.55 14.4559 36.742 14.6719C36.938 14.8879 37.176 15.0579 37.456 15.1819C37.74 15.3019 38.06 15.3619 38.416 15.3619ZM44.5024 11.0899C44.6344 10.9419 44.7744 10.8079 44.9224 10.6879C45.0704 10.5679 45.2264 10.4659 45.3904 10.3819C45.5584 10.2939 45.7344 10.2279 45.9184 10.1839C46.1064 10.1359 46.3084 10.1119 46.5244 10.1119C46.8564 10.1119 47.1484 10.1679 47.4004 10.2799C47.6564 10.3879 47.8684 10.5439 48.0364 10.7479C48.2084 10.9479 48.3384 11.1899 48.4264 11.4739C48.5144 11.7579 48.5584 12.0719 48.5584 12.4159V16.2859H47.4844V12.4159C47.4844 11.9559 47.3784 11.5999 47.1664 11.3479C46.9584 11.0919 46.6404 10.9639 46.2124 10.9639C45.8964 10.9639 45.6004 11.0399 45.3244 11.1919C45.0524 11.3439 44.8004 11.5499 44.5684 11.8099V16.2859H43.4944V10.2079H44.1364C44.2884 10.2079 44.3824 10.2819 44.4184 10.4299L44.5024 11.0899ZM51.3138 10.2079V16.2859H50.2458V10.2079H51.3138ZM51.5418 8.29989C51.5418 8.40389 51.5198 8.50189 51.4758 8.59389C51.4358 8.68189 51.3798 8.76189 51.3078 8.83389C51.2398 8.90189 51.1578 8.95589 51.0618 8.99589C50.9698 9.03589 50.8718 9.05589 50.7678 9.05589C50.6638 9.05589 50.5658 9.03589 50.4738 8.99589C50.3858 8.95589 50.3078 8.90189 50.2398 8.83389C50.1718 8.76189 50.1178 8.68189 50.0778 8.59389C50.0378 8.50189 50.0178 8.40389 50.0178 8.29989C50.0178 8.19589 50.0378 8.09789 50.0778 8.00589C50.1178 7.90989 50.1718 7.82789 50.2398 7.75989C50.3078 7.68789 50.3858 7.63189 50.4738 7.59189C50.5658 7.55189 50.6638 7.53189 50.7678 7.53189C50.8718 7.53189 50.9698 7.55189 51.0618 7.59189C51.1578 7.63189 51.2398 7.68789 51.3078 7.75989C51.3798 7.82789 51.4358 7.90989 51.4758 8.00589C51.5198 8.09789 51.5418 8.19589 51.5418 8.29989ZM54.9347 16.3819C54.4547 16.3819 54.0847 16.2479 53.8247 15.9799C53.5687 15.7119 53.4407 15.3259 53.4407 14.8219V11.1019H52.7087C52.6447 11.1019 52.5907 11.0839 52.5467 11.0479C52.5027 11.0079 52.4807 10.9479 52.4807 10.8679V10.4419L53.4767 10.3159L53.7227 8.43789C53.7347 8.37789 53.7607 8.32989 53.8007 8.29389C53.8447 8.25389 53.9007 8.23389 53.9687 8.23389H54.5087V10.3279H56.2667V11.1019H54.5087V14.7499C54.5087 15.0059 54.5707 15.1959 54.6947 15.3199C54.8187 15.4439 54.9787 15.5059 55.1747 15.5059C55.2867 15.5059 55.3827 15.4919 55.4627 15.4639C55.5467 15.4319 55.6187 15.3979 55.6787 15.3619C55.7387 15.3259 55.7887 15.2939 55.8287 15.2659C55.8727 15.2339 55.9107 15.2179 55.9427 15.2179C55.9987 15.2179 56.0487 15.2519 56.0927 15.3199L56.4047 15.8299C56.2207 16.0019 55.9987 16.1379 55.7387 16.2379C55.4787 16.3339 55.2107 16.3819 54.9347 16.3819ZM61.4023 12.5839C61.4023 12.3359 61.3663 12.1099 61.2943 11.9059C61.2263 11.6979 61.1243 11.5199 60.9883 11.3719C60.8563 11.2199 60.6943 11.1039 60.5023 11.0239C60.3103 10.9399 60.0923 10.8979 59.8483 10.8979C59.3363 10.8979 58.9303 11.0479 58.6303 11.3479C58.3343 11.6439 58.1503 12.0559 58.0783 12.5839H61.4023ZM62.2663 15.4339C62.1343 15.5939 61.9763 15.7339 61.7923 15.8539C61.6083 15.9699 61.4103 16.0659 61.1983 16.1419C60.9903 16.2179 60.7743 16.2739 60.5503 16.3099C60.3263 16.3499 60.1043 16.3699 59.8843 16.3699C59.4643 16.3699 59.0763 16.2999 58.7203 16.1599C58.3683 16.0159 58.0623 15.8079 57.8023 15.5359C57.5463 15.2599 57.3463 14.9199 57.2023 14.5159C57.0583 14.1119 56.9863 13.6479 56.9863 13.1239C56.9863 12.6999 57.0503 12.3039 57.1783 11.9359C57.3103 11.5679 57.4983 11.2499 57.7423 10.9819C57.9863 10.7099 58.2843 10.4979 58.6363 10.3459C58.9883 10.1899 59.3843 10.1119 59.8243 10.1119C60.1883 10.1119 60.5243 10.1739 60.8323 10.2979C61.1443 10.4179 61.4123 10.5939 61.6363 10.8259C61.8643 11.0539 62.0423 11.3379 62.1703 11.6779C62.2983 12.0139 62.3623 12.3979 62.3623 12.8299C62.3623 12.9979 62.3443 13.1099 62.3083 13.1659C62.2723 13.2219 62.2043 13.2499 62.1043 13.2499H58.0423C58.0543 13.6339 58.1063 13.9679 58.1983 14.2519C58.2943 14.5359 58.4263 14.7739 58.5943 14.9659C58.7623 15.1539 58.9623 15.2959 59.1943 15.3919C59.4263 15.4839 59.6863 15.5299 59.9743 15.5299C60.2423 15.5299 60.4723 15.4999 60.6643 15.4399C60.8603 15.3759 61.0283 15.3079 61.1683 15.2359C61.3083 15.1639 61.4243 15.0979 61.5163 15.0379C61.6123 14.9739 61.6943 14.9419 61.7623 14.9419C61.8503 14.9419 61.9183 14.9759 61.9663 15.0439L62.2663 15.4339ZM67.6341 11.6539C67.4341 11.3859 67.2181 11.1999 66.9861 11.0959C66.7541 10.9879 66.4941 10.9339 66.2061 10.9339C65.6421 10.9339 65.2081 11.1359 64.9041 11.5399C64.6001 11.9439 64.4481 12.5199 64.4481 13.2679C64.4481 13.6639 64.4821 14.0039 64.5501 14.2879C64.6181 14.5679 64.7181 14.7999 64.8501 14.9839C64.9821 15.1639 65.1441 15.2959 65.3361 15.3799C65.5281 15.4639 65.7461 15.5059 65.9901 15.5059C66.3421 15.5059 66.6481 15.4259 66.9081 15.2659C67.1721 15.1059 67.4141 14.8799 67.6341 14.5879V11.6539ZM68.7021 7.44789V16.2859H68.0661C67.9141 16.2859 67.8181 16.2119 67.7781 16.0639L67.6821 15.3259C67.4221 15.6379 67.1261 15.8899 66.7941 16.0819C66.4621 16.2739 66.0781 16.3699 65.6421 16.3699C65.2941 16.3699 64.9781 16.3039 64.6941 16.1719C64.4101 16.0359 64.1681 15.8379 63.9681 15.5779C63.7681 15.3179 63.6141 14.9939 63.5061 14.6059C63.3981 14.2179 63.3441 13.7719 63.3441 13.2679C63.3441 12.8199 63.4041 12.4039 63.5241 12.0199C63.6441 11.6319 63.8161 11.2959 64.0401 11.0119C64.2641 10.7279 64.5381 10.5059 64.8621 10.3459C65.1901 10.1819 65.5581 10.0999 65.9661 10.0999C66.3381 10.0999 66.6561 10.1639 66.9201 10.2919C67.1881 10.4159 67.4261 10.5899 67.6341 10.8139V7.44789H68.7021ZM80.6773 7.68789V16.2859H80.0953C80.0033 16.2859 79.9253 16.2699 79.8613 16.2379C79.8013 16.2059 79.7413 16.1519 79.6813 16.0759L74.7073 9.59589C74.7153 9.69589 74.7213 9.79389 74.7253 9.88989C74.7293 9.98589 74.7313 10.0759 74.7313 10.1599V16.2859H73.7113V7.68789H74.3113C74.3633 7.68789 74.4073 7.69189 74.4433 7.69989C74.4793 7.70389 74.5113 7.71389 74.5393 7.72989C74.5673 7.74189 74.5953 7.76189 74.6233 7.78989C74.6513 7.81389 74.6813 7.84589 74.7133 7.88589L79.6873 14.3599C79.6793 14.2559 79.6713 14.1559 79.6633 14.0599C79.6593 13.9599 79.6573 13.8659 79.6573 13.7779V7.68789H80.6773ZM85.7416 13.5499C85.2496 13.5659 84.8296 13.6059 84.4816 13.6699C84.1376 13.7299 83.8556 13.8099 83.6356 13.9099C83.4196 14.0099 83.2616 14.1279 83.1616 14.2639C83.0656 14.3999 83.0176 14.5519 83.0176 14.7199C83.0176 14.8799 83.0436 15.0179 83.0956 15.1339C83.1476 15.2499 83.2176 15.3459 83.3056 15.4219C83.3976 15.4939 83.5036 15.5479 83.6236 15.5839C83.7476 15.6159 83.8796 15.6319 84.0196 15.6319C84.2076 15.6319 84.3796 15.6139 84.5356 15.5779C84.6916 15.5379 84.8376 15.4819 84.9736 15.4099C85.1136 15.3379 85.2456 15.2519 85.3696 15.1519C85.4976 15.0519 85.6216 14.9379 85.7416 14.8099V13.5499ZM82.2916 11.0659C82.6276 10.7419 82.9896 10.4999 83.3776 10.3399C83.7656 10.1799 84.1956 10.0999 84.6676 10.0999C85.0076 10.0999 85.3096 10.1559 85.5736 10.2679C85.8376 10.3799 86.0596 10.5359 86.2396 10.7359C86.4196 10.9359 86.5556 11.1779 86.6476 11.4619C86.7396 11.7459 86.7856 12.0579 86.7856 12.3979V16.2859H86.3116C86.2076 16.2859 86.1276 16.2699 86.0716 16.2379C86.0156 16.2019 85.9716 16.1339 85.9396 16.0339L85.8196 15.4579C85.6596 15.6059 85.5036 15.7379 85.3516 15.8539C85.1996 15.9659 85.0396 16.0619 84.8716 16.1419C84.7036 16.2179 84.5236 16.2759 84.3316 16.3159C84.1436 16.3599 83.9336 16.3819 83.7016 16.3819C83.4656 16.3819 83.2436 16.3499 83.0356 16.2859C82.8276 16.2179 82.6456 16.1179 82.4896 15.9859C82.3376 15.8539 82.2156 15.6879 82.1236 15.4879C82.0356 15.2839 81.9916 15.0439 81.9916 14.7679C81.9916 14.5279 82.0576 14.2979 82.1896 14.0779C82.3216 13.8539 82.5356 13.6559 82.8316 13.4839C83.1276 13.3119 83.5136 13.1719 83.9896 13.0639C84.4656 12.9519 85.0496 12.8879 85.7416 12.8719V12.3979C85.7416 11.9259 85.6396 11.5699 85.4356 11.3299C85.2316 11.0859 84.9336 10.9639 84.5416 10.9639C84.2776 10.9639 84.0556 10.9979 83.8756 11.0659C83.6996 11.1299 83.5456 11.2039 83.4136 11.2879C83.2856 11.3679 83.1736 11.4419 83.0776 11.5099C82.9856 11.5739 82.8936 11.6059 82.8016 11.6059C82.7296 11.6059 82.6676 11.5879 82.6156 11.5519C82.5636 11.5119 82.5196 11.4639 82.4836 11.4079L82.2916 11.0659ZM93.9704 16.2859H92.9024V11.1019H89.7704V14.7499C89.7704 15.0059 89.8324 15.1959 89.9564 15.3199C90.0804 15.4439 90.2404 15.5059 90.4364 15.5059C90.5484 15.5059 90.6444 15.4919 90.7244 15.4639C90.8084 15.4319 90.8804 15.3979 90.9404 15.3619C91.0004 15.3259 91.0504 15.2939 91.0904 15.2659C91.1344 15.2339 91.1724 15.2179 91.2044 15.2179C91.2604 15.2179 91.3104 15.2519 91.3544 15.3199L91.6664 15.8299C91.4824 16.0019 91.2604 16.1379 91.0004 16.2379C90.7404 16.3339 90.4724 16.3819 90.1964 16.3819C89.7164 16.3819 89.3464 16.2479 89.0864 15.9799C88.8304 15.7119 88.7024 15.3259 88.7024 14.8219V11.1019H87.9704C87.9064 11.1019 87.8524 11.0839 87.8084 11.0479C87.7644 11.0079 87.7424 10.9479 87.7424 10.8679V10.4419L88.7384 10.3099L88.9844 8.43789C88.9964 8.37789 89.0224 8.32989 89.0624 8.29389C89.1064 8.25389 89.1624 8.23389 89.2304 8.23389H89.7704V10.3279H93.9704V16.2859ZM94.2344 8.25789C94.2344 8.36189 94.2124 8.45989 94.1684 8.55189C94.1284 8.63989 94.0724 8.71789 94.0004 8.78589C93.9324 8.85389 93.8524 8.90789 93.7604 8.94789C93.6684 8.98789 93.5704 9.00789 93.4664 9.00789C93.3624 9.00789 93.2644 8.98789 93.1724 8.94789C93.0844 8.90789 93.0064 8.85389 92.9384 8.78589C92.8704 8.71789 92.8164 8.63989 92.7764 8.55189C92.7364 8.45989 92.7164 8.36189 92.7164 8.25789C92.7164 8.15389 92.7364 8.05589 92.7764 7.96389C92.8164 7.86789 92.8704 7.78589 92.9384 7.71789C93.0064 7.64589 93.0844 7.58989 93.1724 7.54989C93.2644 7.50989 93.3624 7.48989 93.4664 7.48989C93.5704 7.48989 93.6684 7.50989 93.7604 7.54989C93.8524 7.58989 93.9324 7.64589 94.0004 7.71789C94.0724 7.78589 94.1284 7.86789 94.1684 7.96389C94.2124 8.05589 94.2344 8.15389 94.2344 8.25789ZM98.2869 10.1119C98.7309 10.1119 99.1309 10.1859 99.4869 10.3339C99.8429 10.4819 100.147 10.6919 100.399 10.9639C100.651 11.2359 100.843 11.5659 100.975 11.9539C101.111 12.3379 101.179 12.7679 101.179 13.2439C101.179 13.7239 101.111 14.1559 100.975 14.5399C100.843 14.9239 100.651 15.2519 100.399 15.5239C100.147 15.7959 99.8429 16.0059 99.4869 16.1539C99.1309 16.2979 98.7309 16.3699 98.2869 16.3699C97.8389 16.3699 97.4349 16.2979 97.0749 16.1539C96.7189 16.0059 96.4149 15.7959 96.1629 15.5239C95.9109 15.2519 95.7169 14.9239 95.5809 14.5399C95.4489 14.1559 95.3829 13.7239 95.3829 13.2439C95.3829 12.7679 95.4489 12.3379 95.5809 11.9539C95.7169 11.5659 95.9109 11.2359 96.1629 10.9639C96.4149 10.6919 96.7189 10.4819 97.0749 10.3339C97.4349 10.1859 97.8389 10.1119 98.2869 10.1119ZM98.2869 15.5359C98.8869 15.5359 99.3349 15.3359 99.6309 14.9359C99.9269 14.5319 100.075 13.9699 100.075 13.2499C100.075 12.5259 99.9269 11.9619 99.6309 11.5579C99.3349 11.1539 98.8869 10.9519 98.2869 10.9519C97.9829 10.9519 97.7169 11.0039 97.4889 11.1079C97.2649 11.2119 97.0769 11.3619 96.9249 11.5579C96.7769 11.7539 96.6649 11.9959 96.5889 12.2839C96.5169 12.5679 96.4809 12.8899 96.4809 13.2499C96.4809 13.9699 96.6289 14.5319 96.9249 14.9359C97.2249 15.3359 97.6789 15.5359 98.2869 15.5359ZM103.542 11.0899C103.674 10.9419 103.814 10.8079 103.962 10.6879C104.11 10.5679 104.266 10.4659 104.43 10.3819C104.598 10.2939 104.774 10.2279 104.958 10.1839C105.146 10.1359 105.348 10.1119 105.564 10.1119C105.896 10.1119 106.188 10.1679 106.44 10.2799C106.696 10.3879 106.908 10.5439 107.076 10.7479C107.248 10.9479 107.378 11.1899 107.466 11.4739C107.554 11.7579 107.598 12.0719 107.598 12.4159V16.2859H106.524V12.4159C106.524 11.9559 106.418 11.5999 106.206 11.3479C105.998 11.0919 105.68 10.9639 105.252 10.9639C104.936 10.9639 104.64 11.0399 104.364 11.1919C104.092 11.3439 103.84 11.5499 103.608 11.8099V16.2859H102.534V10.2079H103.176C103.328 10.2079 103.422 10.2819 103.458 10.4299L103.542 11.0899ZM112.765 11.2099C112.717 11.2979 112.643 11.3419 112.543 11.3419C112.483 11.3419 112.415 11.3199 112.339 11.2759C112.263 11.2319 112.169 11.1839 112.057 11.1319C111.949 11.0759 111.819 11.0259 111.667 10.9819C111.515 10.9339 111.335 10.9099 111.127 10.9099C110.947 10.9099 110.785 10.9339 110.641 10.9819C110.497 11.0259 110.373 11.0879 110.269 11.1679C110.169 11.2479 110.091 11.3419 110.035 11.4499C109.983 11.5539 109.957 11.6679 109.957 11.7919C109.957 11.9479 110.001 12.0779 110.089 12.1819C110.181 12.2859 110.301 12.3759 110.449 12.4519C110.597 12.5279 110.765 12.5959 110.953 12.6559C111.141 12.7119 111.333 12.7739 111.529 12.8419C111.729 12.9059 111.923 12.9779 112.111 13.0579C112.299 13.1379 112.467 13.2379 112.615 13.3579C112.763 13.4779 112.881 13.6259 112.969 13.8019C113.061 13.9739 113.107 14.1819 113.107 14.4259C113.107 14.7059 113.057 14.9659 112.957 15.2059C112.857 15.4419 112.709 15.6479 112.513 15.8239C112.317 15.9959 112.077 16.1319 111.793 16.2319C111.509 16.3319 111.181 16.3819 110.809 16.3819C110.385 16.3819 110.001 16.3139 109.657 16.1779C109.313 16.0379 109.021 15.8599 108.781 15.6439L109.033 15.2359C109.065 15.1839 109.103 15.1439 109.147 15.1159C109.191 15.0879 109.247 15.0739 109.315 15.0739C109.387 15.0739 109.463 15.1019 109.543 15.1579C109.623 15.2139 109.719 15.2759 109.831 15.3439C109.947 15.4119 110.087 15.4739 110.251 15.5299C110.415 15.5859 110.619 15.6139 110.863 15.6139C111.071 15.6139 111.253 15.5879 111.409 15.5359C111.565 15.4799 111.695 15.4059 111.799 15.3139C111.903 15.2219 111.979 15.1159 112.027 14.9959C112.079 14.8759 112.105 14.7479 112.105 14.6119C112.105 14.4439 112.059 14.3059 111.967 14.1979C111.879 14.0859 111.761 13.9919 111.613 13.9159C111.465 13.8359 111.295 13.7679 111.103 13.7119C110.915 13.6519 110.721 13.5899 110.521 13.5259C110.325 13.4619 110.131 13.3899 109.939 13.3099C109.751 13.2259 109.583 13.1219 109.435 12.9979C109.287 12.8739 109.167 12.7219 109.075 12.5419C108.987 12.3579 108.943 12.1359 108.943 11.8759C108.943 11.6439 108.991 11.4219 109.087 11.2099C109.183 10.9939 109.323 10.8059 109.507 10.6459C109.691 10.4819 109.917 10.3519 110.185 10.2559C110.453 10.1599 110.759 10.1119 111.103 10.1119C111.503 10.1119 111.861 10.1759 112.177 10.3039C112.497 10.4279 112.773 10.5999 113.005 10.8199L112.765 11.2099Z" fill="#333333"/>
<defs>
<clipPath id="clip0_1527_10451">
<rect width="26" height="22" fill="white" transform="translate(0 0.285889)"/>
</clipPath>
</defs>
</svg>
