<svg width="23" height="24" viewBox="0 0 23 24" fill="none" xmlns="http://www.w3.org/2000/svg">
<path fill-rule="evenodd" clip-rule="evenodd" d="M1.40345 15.106C2.30206 14.2074 3.52084 13.7026 4.79167 13.7026H12.4583C13.7292 13.7026 14.9479 14.2074 15.8466 15.106C16.7452 16.0046 17.25 17.2234 17.25 18.4942V20.4109C17.25 20.9402 16.8209 21.3692 16.2917 21.3692C15.7624 21.3692 15.3333 20.9402 15.3333 20.4109V18.4942C15.3333 17.7317 15.0304 17.0005 14.4913 16.4613C13.9521 15.9221 13.2208 15.6192 12.4583 15.6192H4.79167C4.02917 15.6192 3.2979 15.9221 2.75873 16.4613C2.21957 17.0005 1.91667 17.7317 1.91667 18.4942V20.4109C1.91667 20.9402 1.48761 21.3692 0.958333 21.3692C0.42906 21.3692 0 20.9402 0 20.4109V18.4942C0 17.2234 0.504835 16.0046 1.40345 15.106Z" fill="#3F6587"/>
<path fill-rule="evenodd" clip-rule="evenodd" d="M8.62516 4.11922C7.03734 4.11922 5.75016 5.4064 5.75016 6.99422C5.75016 8.58204 7.03734 9.86922 8.62516 9.86922C10.213 9.86922 11.5002 8.58204 11.5002 6.99422C11.5002 5.4064 10.213 4.11922 8.62516 4.11922ZM3.8335 6.99422C3.8335 4.34786 5.9788 2.20256 8.62516 2.20256C11.2715 2.20256 13.4168 4.34786 13.4168 6.99422C13.4168 9.64059 11.2715 11.7859 8.62516 11.7859C5.9788 11.7859 3.8335 9.64059 3.8335 6.99422Z" fill="#3F6587"/>
<path fill-rule="evenodd" clip-rule="evenodd" d="M18.2387 14.5459C18.371 14.0334 18.8937 13.7252 19.4062 13.8576C20.4341 14.123 21.3448 14.7223 21.9953 15.5614C22.6457 16.4005 22.9991 17.4318 22.9999 18.4935L22.9999 20.4109C22.9999 20.9402 22.5708 21.3692 22.0416 21.3692C21.5123 21.3692 21.0832 20.9402 21.0832 20.4109L21.0832 18.4949C21.0832 18.4948 21.0832 18.495 21.0832 18.4949C21.0827 17.858 20.8707 17.239 20.4805 16.7357C20.0902 16.2322 19.5438 15.8726 18.927 15.7134C18.4145 15.5811 18.1064 15.0584 18.2387 14.5459Z" fill="#3F6587"/>
<path fill-rule="evenodd" clip-rule="evenodd" d="M14.4052 3.04777C14.5365 2.53503 15.0585 2.22581 15.5713 2.35709C16.602 2.62099 17.5155 3.22043 18.1679 4.0609C18.8203 4.90137 19.1744 5.93506 19.1744 6.99901C19.1744 8.06297 18.8203 9.09666 18.1679 9.93713C17.5155 10.7776 16.602 11.377 15.5713 11.6409C15.0585 11.7722 14.5365 11.463 14.4052 10.9503C14.2739 10.4375 14.5831 9.91545 15.0959 9.78417C15.7143 9.62583 16.2624 9.26617 16.6538 8.76188C17.0453 8.2576 17.2577 7.63739 17.2577 6.99901C17.2577 6.36064 17.0453 5.74043 16.6538 5.23614C16.2624 4.73186 15.7143 4.3722 15.0959 4.21386C14.5831 4.08258 14.2739 3.5605 14.4052 3.04777Z" fill="#3F6587"/>
</svg>
