<svg width="30" height="31" viewBox="0 0 30 31" fill="none" xmlns="http://www.w3.org/2000/svg">
<rect x="30" y="30.6279" width="30" height="30" rx="4" transform="rotate(-180 30 30.6279)" fill="#3F6587"/>
<path d="M12.3771 24.6279L12.3771 14.64L11.5029 14.4704C11.2029 14.4057 10.9586 14.3047 10.77 14.1673C10.59 14.0299 10.5 13.8279 10.5 13.5613L10.5 12.0825L12.3771 12.0825L12.3771 11.3673C12.3771 10.6481 12.4971 9.99762 12.7371 9.41581C12.9857 8.83399 13.3371 8.33702 13.7914 7.9249C14.2543 7.51278 14.8157 7.19359 15.4757 6.96732C16.1357 6.74106 16.8857 6.62793 17.7257 6.62793C18.0514 6.62793 18.3514 6.64813 18.6257 6.68854C18.9086 6.72086 19.2 6.77742 19.5 6.85823L19.4229 8.68853C19.4143 8.81783 19.3757 8.92692 19.3071 9.01581C19.2471 9.09661 19.17 9.1653 19.0757 9.22187C18.9814 9.27035 18.8743 9.30672 18.7543 9.33096C18.6429 9.3552 18.5314 9.36732 18.42 9.36732C18.0686 9.36732 17.7557 9.39965 17.4814 9.46429C17.2071 9.52894 16.9757 9.64611 16.7871 9.81581C16.6071 9.97742 16.47 10.1956 16.3757 10.4704C16.2814 10.737 16.2343 11.0764 16.2343 11.4885L16.2343 12.0825L19.3714 12.0825L19.3714 14.6522L16.3629 14.6522L16.3629 24.6279L12.3771 24.6279Z" fill="#F3F6F9"/>
</svg>
