<svg width="181" height="148" viewBox="0 0 181 148" fill="none" xmlns="http://www.w3.org/2000/svg">
<path d="M60.2057 3.58405C28.0863 3.58405 2.04568 25.7336 2.04568 53.0552C2.04568 64.1778 6.41328 74.4065 13.6973 82.6817C9.11436 91.89 2.72795 98.7935 2.62728 98.8947C2.04009 99.5145 1.88071 100.434 2.22436 101.243C2.57695 102.049 3.33247 102.526 4.18754 102.526C14.9108 102.526 23.9731 99.4007 30.9579 95.769C39.5701 100.025 49.5244 102.526 60.2057 102.526C92.3335 102.526 118.366 80.3768 118.366 53.0552C118.366 25.7336 92.3335 3.58405 60.2057 3.58405ZM60.3455 84.5368C56.4868 84.5368 53.4949 81.5292 53.4949 77.6502C53.4949 73.7797 56.4896 70.772 60.3371 70.772C64.1874 70.772 67.1793 73.7825 67.1793 77.6502C67.1681 81.5292 64.1763 84.5368 60.3455 84.5368ZM75.0533 51.7622L65.4625 57.7774V58.2072C65.4625 61.0015 63.1104 63.3652 60.3315 63.3652C57.5527 63.3652 55.2006 61.0099 55.2006 58.2272V54.7698C55.2006 53.0504 56.0559 51.3321 57.7663 50.2556L69.9548 42.9473C71.4463 42.0928 72.3131 40.575 72.3131 38.8603C72.3131 36.2805 70.1746 34.1325 67.6099 34.1325H56.4868C53.9205 34.1325 51.7837 36.2817 51.7837 38.8603C51.7837 41.6546 49.4316 44.0183 46.6527 44.0183C43.8731 44.0183 41.5218 41.6538 41.5218 38.8603C41.5274 30.4868 48.1543 23.8222 56.4868 23.8222H67.6043C75.9481 23.8222 82.575 30.4868 82.575 38.8603C82.575 44.0323 79.8068 48.9794 75.0533 51.7622Z" fill="white"/>
<path d="M67.6159 34.1381C70.1817 34.1381 72.3191 36.2873 72.3191 38.866C72.3191 40.5854 71.4637 42.0901 69.9669 42.9502L57.7785 50.2584C56.0678 51.3406 55.201 53.0552 55.201 54.7698V58.2075C55.201 61.0018 57.5526 63.3655 60.3319 63.3655C63.1113 63.3655 65.4629 61.001 65.4629 58.2075V57.7775L75.2998 51.7594C79.8072 48.9795 82.5753 44.0324 82.5753 38.8604C82.5753 30.4868 75.9485 23.8223 67.6159 23.8223H56.4872C48.1491 23.8223 41.5194 30.4868 41.5194 38.8688C41.5194 41.6631 43.8715 44.0267 46.6504 44.0267C49.4295 44.0267 51.7813 41.6622 51.7813 38.8688C51.7813 36.289 53.9192 34.1409 56.4844 34.1409H67.6159V34.1381ZM60.3459 70.7918C56.4872 70.7918 53.4953 73.7994 53.4953 77.6503C53.4953 81.5292 56.4872 84.5369 60.3459 84.5369C64.1962 84.5369 67.1881 81.5264 67.1881 77.6587C67.1685 73.7994 64.1766 70.7918 60.3459 70.7918ZM169.704 128.302C176.75 119.926 181 109.441 181 98.029C181 70.7074 156.953 48.5578 127.314 48.5578C127.226 48.5578 127.141 48.5694 127.053 48.5699C127.174 50.0476 127.314 51.5374 127.314 53.0552C127.314 80.7759 105.034 103.988 75.2774 109.975C81.0934 131.506 101.897 147.5 127.314 147.5C136.734 147.5 145.578 145.249 153.276 141.322C160.085 144.689 168.725 147.5 178.847 147.5C179.702 147.5 180.458 147.015 180.81 146.206C181.153 145.397 180.994 144.478 180.407 143.858C180.329 143.762 174.261 137.184 169.704 128.302ZM153.737 92.9132L130.25 117.649C129.21 118.743 127.773 119.37 126.271 119.388C124.79 119.388 123.301 118.795 122.25 117.741L111.065 106.498C108.881 104.302 108.881 100.744 111.065 98.5487C113.25 96.3534 116.789 96.3529 118.973 98.5487L126.111 105.725L145.645 85.1493C147.786 82.9007 151.322 82.8172 153.553 84.9649C155.779 87.1229 155.863 90.6645 153.737 92.9132Z" fill="#BCD4E7"/>
<path d="M63.9486 22.987H51.254C44.5712 22.987 39.1467 28.4345 39.1467 35.1299C39.1467 36.3729 40.1472 37.3786 41.3836 37.3786C42.6201 37.3786 43.6205 36.3729 43.6205 35.1299C43.6205 30.9136 47.0598 27.4844 51.254 27.4844H63.9598C68.5343 27.4844 72.7005 31.1666 72.7005 36.2543C72.7005 39.5936 70.8481 42.5928 67.8408 44.0994L57.126 49.6621C56.399 50.0556 55.9236 50.8145 55.9236 51.6578V58.966C55.9236 60.209 56.9241 61.2147 58.1605 61.2147C59.397 61.2147 60.3975 60.2028 60.3975 58.966V53.0351L69.8652 48.1077C74.1266 45.8393 77.1744 41.2857 77.1744 36.2543C77.1744 28.946 71.2465 22.987 63.9486 22.987ZM58.1605 69.2538C56.399 69.2538 54.9729 70.6873 54.9729 72.4582C54.9729 74.2287 56.4009 75.6654 58.1633 75.6654C59.9258 75.6654 61.3482 74.229 61.3482 72.4582C61.3482 70.6873 59.9221 69.2538 58.1605 69.2538ZM116.321 49.9713C116.321 22.6497 90.2884 0.500122 58.1605 0.500122C26.0327 0.500122 0.000518417 22.6497 0.000518417 49.9713C0.000518417 61.0938 4.36811 71.3226 11.6521 79.5977C7.0692 88.8061 0.68278 95.7096 0.582119 95.8108C-0.0050739 96.4306 -0.164455 97.3497 0.179193 98.159C0.531788 98.9646 1.28731 99.4424 2.14237 99.4424C12.8656 99.4424 21.928 96.3167 28.9128 92.6851C37.5249 96.9408 47.4792 99.4424 58.1605 99.4424C90.2884 99.4424 116.321 77.2928 116.321 49.9713ZM58.1605 94.945C48.6145 94.945 39.1858 92.7689 30.8952 88.6515L28.8568 87.6368L26.8576 88.6768C20.5271 91.9683 13.9869 93.9725 7.35441 94.6611C9.76833 91.5495 12.9803 86.9594 15.6562 81.585L17.009 78.8658L15.0019 76.5901C8.11496 68.5511 4.47437 59.5844 4.47437 49.9713C4.47437 25.1739 28.5576 4.9975 58.1605 4.9975C87.7634 4.9975 111.847 25.1739 111.847 49.9713C111.847 74.7687 87.7718 94.945 58.1605 94.945ZM167.658 125.218C174.704 116.842 178.954 106.357 178.954 94.945C178.954 69.7766 158.794 49.0437 132.147 45.9236C130.773 45.7617 129.592 46.9041 129.678 48.2915C129.744 49.3686 130.567 50.2442 131.633 50.371C155.774 53.2319 174.481 72.1209 174.481 94.945C174.481 104.907 170.941 114.374 164.241 122.32L162.307 124.616L163.68 127.29C166.266 132.327 169.314 136.669 171.615 139.646C165.382 138.995 159.209 137.171 153.202 134.199L151.196 133.207L149.202 134.225C141.905 137.698 133.629 139.919 125.268 139.919C104.694 139.919 87.0728 128.302 79.7469 111.883C79.3171 110.922 78.2789 110.395 77.256 110.627L77.1555 110.65C75.7969 110.958 75.0791 112.44 75.6487 113.716C83.6615 131.711 102.843 144.416 125.268 144.416C134.689 144.416 143.533 142.165 151.231 138.238C158.039 141.605 166.679 144.416 176.801 144.416C177.657 144.416 178.412 143.931 178.764 143.122C179.108 142.313 178.948 141.394 178.361 140.774C178.283 140.678 172.216 134.1 167.658 125.218Z" fill="#3F6587"/>
<path d="M109.806 101.132C108.932 100.254 108.932 98.8311 109.806 97.9527C110.673 97.0813 112.099 97.0813 112.97 97.9541L123.557 108.59L147.598 83.2702C148.454 82.3785 149.865 82.3479 150.76 83.1999C151.652 84.0555 151.687 85.4787 150.83 86.379L125.206 113.363C124.783 113.803 124.053 114.005 123.59 114.057C122.995 114.057 122.428 113.82 122.008 113.398L109.806 101.132Z" fill="#F37A20"/>
</svg>
