<svg width="22" height="13" viewBox="0 0 22 13" fill="none" xmlns="http://www.w3.org/2000/svg">
<path d="M21.3627 0.0657653H17.3156H17.1783V0.203103V0.643179V0.780517H17.3156H17.5969C17.924 0.780517 18.2189 0.94839 18.386 1.22961C18.553 1.51083 18.5593 1.85015 18.4028 2.13737L13.9027 10.3974L11.8532 5.51153L13.7837 1.96904C14.1832 1.23593 14.95 0.780517 15.7849 0.780517H15.8761H16.0134V0.643179V0.203103V0.0657653H15.8761H11.829H11.6917V0.203103V0.643179V0.780517H11.829H12.1102C12.4373 0.780517 12.7323 0.94839 12.8993 1.22961C13.0663 1.51083 13.0726 1.85015 12.9162 2.13737L11.5159 4.70755L10.268 1.73263C10.1776 1.51701 10.1999 1.28162 10.3294 1.08692C10.4589 0.892218 10.6673 0.780517 10.9011 0.780517H11.221H11.3583V0.643179V0.203103V0.0657653H11.221H6.3808H6.24347V0.203103V0.643179V0.780517H6.3808H6.44737C7.40219 0.780517 8.25775 1.34946 8.62715 2.22993L10.471 6.62557L8.41611 10.3974L4.78141 1.73263C4.69095 1.51701 4.71334 1.28162 4.8428 1.08692C4.97227 0.892218 5.18066 0.780517 5.4145 0.780517H5.90603H6.04337V0.643179V0.203103V0.0657653H5.90603H0.637338H0.5V0.203103V0.643179V0.780517H0.637338H0.960723C1.91554 0.780517 2.77116 1.34946 3.1405 2.22993L7.33049 12.2186C7.40379 12.3933 7.57372 12.5061 7.76347 12.5061C7.93762 12.5061 8.09139 12.4147 8.17485 12.2615L8.72141 11.2585L10.8081 7.42922L12.8171 12.2185C12.8904 12.3932 13.0603 12.5061 13.2501 12.5061C13.4242 12.5061 13.578 12.4146 13.6614 12.2615L14.208 11.2584L19.2703 1.96895C19.6698 1.23584 20.4366 0.780425 21.2715 0.780425H21.3627H21.5V0.643088V0.203012V0.0656738L21.3627 0.0657653Z" fill="#3F6587"/>
</svg>
