<svg width="20" height="13" viewBox="0 0 20 13" fill="none" xmlns="http://www.w3.org/2000/svg">
<path d="M0 12.4755H0.720958V0.0954608H0V12.4755ZM1.49005 12.4755H3.70091V0.0954608H1.49005V12.4755ZM4.42202 0.0954608V12.4751H6.63287V0.0954608H4.42202Z" fill="#3F6587"/>
<path d="M17.7888 12.4764H18.5099V0.095459H17.7888V12.4764ZM19.279 0.095459V12.4764H20V0.095459H19.279ZM7.37783 12.4764H8.09879V0.0954605H7.37783V12.4764ZM8.86803 0.0954605V12.476H9.58914V0.0954605H8.86803Z" fill="#3F6587"/>
<path d="M10.3338 12.4764H12.5449V0.0954606H10.3338V12.4764ZM13.2658 12.4764H14.0347V0.0954606H13.2658V12.4764ZM14.7558 0.0954606V12.476H16.9667V0.0954606H14.7558Z" fill="#3F6587"/>
</svg>
