<svg width="20" height="13" viewBox="0 0 20 13" fill="none" xmlns="http://www.w3.org/2000/svg">
<path d="M0 12.852H0.720958V0.471926H0V12.852ZM1.49005 12.852H3.70091V0.471926H1.49005V12.852ZM4.42202 0.471926V12.8516H6.63287V0.471926H4.42202Z" fill="#F3F6F9"/>
<path d="M17.7888 12.8529H18.5099V0.471924H17.7888V12.8529ZM19.279 0.471924V12.8529H20V0.471924H19.279ZM7.37783 12.8529H8.09879V0.471925H7.37783V12.8529ZM8.86803 0.471925V12.8524H9.58914V0.471925H8.86803Z" fill="#F3F6F9"/>
<path d="M10.3338 12.8529H12.5449V0.471925H10.3338V12.8529ZM13.2658 12.8529H14.0347V0.471925H13.2658V12.8529ZM14.7558 0.471925V12.8524H16.9667V0.471925H14.7558Z" fill="#F3F6F9"/>
</svg>
