<svg width="22" height="13" viewBox="0 0 22 13" fill="none" xmlns="http://www.w3.org/2000/svg">
<path d="M21.3627 0.44223H17.3156H17.1783V0.579568V1.01964V1.15698H17.3156H17.5969C17.924 1.15698 18.2189 1.32485 18.386 1.60608C18.553 1.8873 18.5593 2.22661 18.4028 2.51383L13.9027 10.7739L11.8532 5.88799L13.7837 2.3455C14.1832 1.61239 14.95 1.15698 15.7849 1.15698H15.8761H16.0134V1.01964V0.579568V0.44223H15.8761H11.829H11.6917V0.579568V1.01964V1.15698H11.829H12.1102C12.4373 1.15698 12.7323 1.32485 12.8993 1.60608C13.0663 1.8873 13.0726 2.22661 12.9162 2.51383L11.5159 5.08402L10.268 2.1091C10.1776 1.89348 10.1999 1.65808 10.3294 1.46338C10.4589 1.26868 10.6673 1.15698 10.9011 1.15698H11.221H11.3583V1.01964V0.579568V0.44223H11.221H6.3808H6.24347V0.579568V1.01964V1.15698H6.3808H6.44737C7.40219 1.15698 8.25775 1.72593 8.62715 2.6064L10.471 7.00203L8.41611 10.7739L4.78141 2.1091C4.69095 1.89348 4.71334 1.65808 4.8428 1.46338C4.97227 1.26868 5.18066 1.15698 5.4145 1.15698H5.90603H6.04337V1.01964V0.579568V0.44223H5.90603H0.637338H0.5V0.579568V1.01964V1.15698H0.637338H0.960723C1.91554 1.15698 2.77116 1.72593 3.1405 2.6064L7.33049 12.595C7.40379 12.7697 7.57372 12.8826 7.76347 12.8826C7.93762 12.8826 8.09139 12.7911 8.17485 12.638L8.72141 11.6349L10.8081 7.80569L12.8171 12.595C12.8904 12.7697 13.0603 12.8826 13.2501 12.8826C13.4242 12.8826 13.578 12.7911 13.6614 12.6379L14.208 11.6349L19.2703 2.34541C19.6698 1.6123 20.4366 1.15689 21.2715 1.15689H21.3627H21.5V1.01955V0.579476V0.442139L21.3627 0.44223Z" fill="#F3F6F9"/>
</svg>
