<svg width="163" height="50" viewBox="0 0 163 50" fill="none" xmlns="http://www.w3.org/2000/svg">
<path d="M31.5386 0.553467V34.7004H36.4398V49.1347H31.8078V39.0091H5.36287V49.1347H0.730957V34.7004H3.69323C4.98585 32.4742 6.20667 29.9787 7.35567 27.2139C8.54057 24.4491 9.58186 21.5586 10.4795 18.5425C11.3772 15.4905 12.1133 12.4384 12.6878 9.38642C13.2623 6.33438 13.6213 3.39006 13.7649 0.553467H31.5386ZM18.0198 4.91608C17.8762 6.99865 17.5171 9.35051 16.9426 11.9717C16.4041 14.5928 15.7039 17.2858 14.8421 20.0506C14.0163 22.7795 13.0827 25.4186 12.0414 27.9679C11.0361 30.5173 9.95887 32.7614 8.80987 34.7004H26.7451V4.91608H18.0198Z" fill="#90B9D5"/>
<path d="M53.1581 9.65571C56.6769 9.65571 59.2801 10.4277 60.9677 11.9717C62.6553 13.5156 63.4991 15.9752 63.4991 19.3504V39.0091H60.0521L59.1365 34.9158H58.921C57.6643 36.4957 56.3358 37.6626 54.9354 38.4167C53.571 39.1707 51.668 39.5477 49.2263 39.5477C46.6052 39.5477 44.4328 38.8655 42.7093 37.501C40.9858 36.1007 40.1241 33.9284 40.1241 30.984C40.1241 28.1115 41.2551 25.9033 43.5172 24.3593C45.7793 22.7795 49.2622 21.9177 53.966 21.7741L58.8672 21.6125V19.889C58.8672 17.4833 58.3465 15.8136 57.3052 14.8801C56.264 13.9465 54.7918 13.4797 52.8888 13.4797C51.3807 13.4797 49.9445 13.7131 48.58 14.1799C47.2156 14.6108 45.9409 15.1135 44.756 15.688L43.3018 12.1332C44.5585 11.451 46.0486 10.8765 47.7721 10.4097C49.4956 9.90706 51.2909 9.65571 53.1581 9.65571ZM54.5584 25.0595C50.9678 25.2031 48.4723 25.7776 47.0719 26.783C45.7075 27.7884 45.0253 29.2067 45.0253 31.0379C45.0253 32.6537 45.51 33.8386 46.4795 34.5926C47.4849 35.3467 48.7595 35.7237 50.3035 35.7237C52.7451 35.7237 54.7738 35.0594 56.3896 33.7309C58.0054 32.3664 58.8133 30.2839 58.8133 27.4832V24.8979L54.5584 25.0595Z" fill="#90B9D5"/>
<path d="M77.155 10.1404V22.1511H92.8281V10.1404H97.5677V39.0091H92.8281V26.1367H77.155V39.0091H72.4153V10.1404H77.155Z" fill="#90B9D5"/>
<path d="M111.179 27.7525C111.179 28.1834 111.161 28.8297 111.125 29.6914C111.089 30.5532 111.035 31.4149 110.964 32.2767C110.928 33.1384 110.892 33.8206 110.856 34.3233L126.313 10.1404H132.13V39.0091H127.714V21.9895C127.714 21.415 127.714 20.661 127.714 19.7274C127.75 18.7939 127.786 17.8783 127.822 16.9806C127.857 16.047 127.893 15.3469 127.929 14.8801L112.579 39.0091H106.709V10.1404H111.179V27.7525Z" fill="#90B9D5"/>
<path d="M143.095 39.0091H137.601L145.842 26.8907C144.729 26.6035 143.651 26.1547 142.61 25.5442C141.569 24.8979 140.725 24.0182 140.079 22.9051C139.432 21.7561 139.109 20.3378 139.109 18.6502C139.109 15.8855 140.043 13.7849 141.91 12.3487C143.777 10.8765 146.255 10.1404 149.343 10.1404H162.269V39.0091H157.529V27.537H150.527L143.095 39.0091ZM143.687 18.7041C143.687 20.3558 144.298 21.5946 145.519 22.4204C146.775 23.2103 148.517 23.6053 150.743 23.6053H157.529V14.0722H149.827C147.637 14.0722 146.057 14.5031 145.088 15.3648C144.154 16.2266 143.687 17.3397 143.687 18.7041Z" fill="#90B9D5"/>
</svg>
