<svg width="44" height="44" viewBox="0 0 44 44" fill="none" xmlns="http://www.w3.org/2000/svg">
<path d="M35.2957 10.0936C34.9598 6.32104 31.7768 3.34967 27.9219 3.34967C26.4312 3.34967 25.0034 3.79059 23.7857 4.63043C20.9638 0.930921 15.8491 -0.5682 11.0956 1.81024C7.75724 3.48069 5.75001 7.00719 5.75001 10.7403V10.7718C2.07737 12.3108 -0.223214 16.2077 0.511481 20.3397C1.26356 24.5809 5.15456 27.5372 9.46212 27.5372H12.4688C13.2078 27.5372 13.8125 26.9325 13.8125 26.1934C13.8125 25.4544 13.2078 24.8497 12.4688 24.8497H9.27735C6.67384 24.8497 4.24585 23.2708 3.4018 20.81C2.21846 17.3583 4.26013 13.8729 7.53468 12.9911L8.65839 12.6971L8.49042 11.2442C8.4585 11.0762 8.43751 10.9083 8.43751 10.7403C8.43751 6.66705 11.7549 3.34967 15.8281 3.34967C18.5366 3.34967 21.0142 4.85131 22.3159 7.27594L23.1978 8.94555L24.4785 7.55981C25.7198 6.21858 27.523 5.71131 29.3614 6.24797C31.1469 6.7696 32.363 8.43828 32.5839 10.2851C32.6449 10.7961 32.6375 10.7487 32.5617 11.3173L32.3518 12.997L34.3254 12.7975C34.4223 12.7811 34.5399 12.7643 34.6406 12.7643C37.979 12.7643 40.6875 15.4728 40.6875 18.8112C40.6875 22.0026 38.189 24.596 35.0606 24.8161L28.5854 24.8394C27.8631 24.7741 27.25 25.4292 27.25 26.1934C27.25 26.9355 27.8517 27.5372 28.5938 27.5372H34.2963C38.9801 27.5372 43.0811 24.0023 43.3582 19.3269C43.6438 14.4944 39.9653 10.438 35.2957 10.0936ZM27.25 30.2247H19.4647L26.9208 21.7003C27.4116 21.1413 27.3538 20.2935 26.7948 19.8056C26.2384 19.3201 25.3906 19.3699 24.9001 19.9315L15.4939 30.6815C15.1448 31.0779 15.0635 31.6423 15.2813 32.1227C15.4992 32.6031 15.9709 32.9122 16.5 32.9122H24.2896L16.8334 41.4366C16.3426 41.9956 16.4004 42.8433 16.9594 43.3313C17.2139 43.553 17.533 43.6622 17.8438 43.6622C18.2165 43.6622 18.5891 43.5073 18.8541 43.2029L28.2603 32.4529C28.6094 32.0565 28.6908 31.4921 28.4729 31.0117C28.2551 30.5313 27.7791 30.2247 27.25 30.2247Z" fill="white"/>
</svg>
