<svg width="141" height="130" viewBox="0 0 141 130" fill="none" xmlns="http://www.w3.org/2000/svg">
<path d="M115.391 119.837L36.751 119.837C25.3172 119.837 16.0564 110.558 16.0564 99.1141L16.0564 94.9696L6.20054 94.9696C0.6906 94.9696 -2.07731 88.2605 1.8288 84.5822L20.1694 66.2166C22.3682 63.7816 26.3002 63.7816 28.7318 66.2166L47.0724 84.5822C50.7457 88.2605 47.9778 94.9696 42.4679 94.9696L32.6121 94.9696L32.6121 99.1141C32.6121 101.394 34.4746 103.259 36.751 103.259L57.4456 103.259L57.4456 86.6804C57.4456 77.5364 64.8698 70.1021 74.0013 70.1021L115.391 70.1021C124.535 70.1021 131.946 77.5364 131.946 86.6804L131.946 103.259C131.946 112.416 124.535 119.837 115.391 119.837Z" fill="#F3F6F9"/>
<path d="M115.908 0.162344C125.053 0.162345 132.464 7.59668 132.464 16.7407L132.464 33.319C132.464 42.4629 125.053 49.8973 115.908 49.8973L16.574 49.8973C7.44249 49.8973 0.0182959 42.4629 0.0182967 33.319L0.0182982 16.7406C0.018299 7.59667 7.44249 0.162335 16.574 0.162336L115.908 0.162344Z" fill="#F3F6F9"/>
<path d="M29.249 40.0539C28.1108 40.0539 27.1796 39.1214 27.1796 37.9816C27.1796 36.8419 28.1108 35.9093 29.249 35.9093L120.305 35.9093C121.449 35.9093 122.375 36.8419 122.375 37.9816C122.375 39.1214 121.449 40.0539 120.305 40.0539L29.249 40.0539ZM8.55441 29.6925C8.55441 20.5485 15.9786 13.1141 25.1101 13.1141L124.444 13.1142C133.589 13.1142 141 20.5485 141 29.6925L141 46.2708C141 55.4148 133.589 62.8491 124.444 62.8491L25.1101 62.8491C15.9786 62.8491 8.5544 55.4147 8.5544 46.2708L8.55441 29.6925ZM25.1101 58.7045L124.444 58.7045C131.302 58.7045 136.861 53.1352 136.861 46.2708L136.861 29.6925C136.861 22.828 131.302 17.2587 124.444 17.2587L25.1101 17.2587C18.255 17.2587 12.6933 22.828 12.6933 29.6925L12.6933 46.2708C12.6933 53.1352 18.255 58.7045 25.1101 58.7045ZM72.1128 125.018C68.6723 121.979 66.4994 117.537 66.4994 112.584L66.4994 96.0057C66.4994 86.8617 73.9236 79.4274 83.0551 79.4274L124.444 79.4274C133.589 79.4274 141 86.8618 141 96.0057L141 112.584C141 121.741 133.589 129.162 124.444 129.162L45.8047 129.162C37.8114 129.162 31.3185 122.668 31.3185 114.656L31.3185 84.4268L18.3067 97.4822C17.479 98.2852 16.1855 98.2852 15.3578 97.4822C14.5558 96.6533 14.5558 95.3581 15.3578 94.5292L31.9135 77.9509C32.7412 77.1479 34.0347 77.1479 34.8624 77.9509L51.4181 94.5292C52.2201 95.3581 52.2201 96.6533 51.4181 97.4822C50.5904 98.2852 49.2969 98.2852 48.4692 97.4822L35.4574 84.4268L35.4574 114.656C35.4574 120.378 40.0878 125.018 45.8047 125.018L72.1128 125.018ZM83.0551 125.018L124.444 125.018C131.302 125.018 136.861 119.451 136.861 112.584L136.861 96.0057C136.861 89.1413 131.302 83.572 124.444 83.572L83.0551 83.572C76.2 83.572 70.6383 89.1413 70.6383 96.0057L70.6383 112.584C70.6383 119.451 76.2 125.018 83.0551 125.018Z" fill="#DAE7F1"/>
<path d="M86.9358 104.554C86.9358 105.694 87.867 106.626 89.0052 106.626L123.41 106.626C124.553 106.626 125.479 105.694 125.479 104.554C125.479 103.414 124.553 102.482 123.41 102.482L89.0052 102.482C87.867 102.482 86.9358 103.414 86.9358 104.554Z" fill="#DAE7F1"/>
</svg>
