<svg width="26" height="19" viewBox="0 0 26 19" fill="none" xmlns="http://www.w3.org/2000/svg">
<path d="M12.4116 13.8345C12.5049 13.8345 12.5981 13.8532 12.6913 13.8905C12.7845 13.9205 12.8739 13.9766 12.9593 14.0588L14.5209 15.6407C13.8372 16.5008 12.9788 17.1514 11.9455 17.5927C10.92 18.0265 9.70424 18.2434 8.2981 18.2434C7.0085 18.2434 5.85096 18.034 4.82548 17.6151C3.80778 17.1888 2.94157 16.6055 2.22685 15.865C1.51989 15.1171 0.976083 14.2346 0.595415 13.2174C0.214748 12.1928 0.0244141 11.0821 0.0244141 9.88549C0.0244141 8.6664 0.241938 7.54827 0.676987 6.53112C1.11204 5.50648 1.718 4.62395 2.49487 3.88351C3.27951 3.14308 4.21564 2.56719 5.30326 2.15584C6.39088 1.74449 7.59115 1.53882 8.90407 1.53882C9.5411 1.53882 10.1393 1.59491 10.6986 1.7071C11.2658 1.8118 11.794 1.96139 12.2835 2.15584C12.7729 2.34282 13.2235 2.57093 13.6352 2.84018C14.047 3.10195 14.4121 3.39363 14.7306 3.71524L13.4022 5.43169C13.3167 5.5364 13.2157 5.63362 13.0992 5.72337C12.9826 5.80564 12.8195 5.84678 12.6097 5.84678C12.4699 5.84678 12.3378 5.81686 12.2135 5.75703C12.0892 5.6972 11.9572 5.62615 11.8173 5.54387C11.6775 5.45413 11.5221 5.36064 11.3512 5.26341C11.1881 5.1587 10.99 5.06521 10.7569 4.98294C10.5316 4.89319 10.2636 4.8184 9.95284 4.75857C9.64986 4.69874 9.2925 4.66882 8.88076 4.66882C8.16604 4.66882 7.51346 4.79223 6.92304 5.03904C6.33262 5.27837 5.82377 5.62614 5.39649 6.08237C4.97697 6.53112 4.6468 7.07709 4.40597 7.72029C4.17291 8.36349 4.05638 9.08523 4.05638 9.88549C4.05638 10.7231 4.17291 11.4673 4.40597 12.118C4.6468 12.7687 4.96921 13.3184 5.37318 13.7671C5.78492 14.2084 6.2627 14.545 6.80651 14.7768C7.35032 15.0087 7.93297 15.1246 8.55447 15.1246C8.91183 15.1246 9.23812 15.1096 9.53333 15.0797C9.82854 15.0423 10.1004 14.9825 10.349 14.9002C10.6054 14.818 10.8462 14.7132 11.0715 14.5861C11.3046 14.4515 11.5377 14.2869 11.7707 14.0925C11.8639 14.0177 11.9649 13.9579 12.0737 13.913C12.1825 13.8606 12.2951 13.8345 12.4116 13.8345Z" fill="#828282"/>
<path d="M22.6414 12.9201L21.8723 16.8435H20.7436C20.5438 16.8435 20.3707 16.7665 20.2242 16.6127C20.0777 16.4588 20.0045 16.2697 20.0045 16.0453C20.0045 16.0133 20.0045 15.9844 20.0045 15.9588C20.0111 15.9267 20.0178 15.8947 20.0244 15.8626L20.6137 12.9201H18.5661L17.9868 15.978C17.9269 16.2857 17.7904 16.5069 17.5773 16.6415C17.3642 16.7761 17.1278 16.8435 16.8681 16.8435H15.7794L16.5385 12.9201H15.3898C15.1768 12.9201 15.0136 12.8721 14.9004 12.7759C14.7872 12.6733 14.7306 12.5066 14.7306 12.2759C14.7306 12.1861 14.7406 12.0835 14.7606 11.9682L14.8904 11.2085H16.7882L17.3076 8.55448H15.1701L15.3599 7.56403C15.4065 7.32043 15.5097 7.14093 15.6695 7.02554C15.8293 6.90373 16.089 6.84283 16.4486 6.84283H17.5573L18.1766 3.74649C18.2299 3.49006 18.3531 3.29133 18.5462 3.1503C18.7393 3.00926 18.9657 2.93874 19.2254 2.93874H20.3441L19.5849 6.84283H21.6226L22.3917 2.93874H23.4904C23.7235 2.93874 23.9132 3.00285 24.0597 3.13106C24.2062 3.25928 24.2795 3.42275 24.2795 3.62148C24.2795 3.68559 24.2761 3.73367 24.2695 3.76572L23.6502 6.84283H25.6778L25.4881 7.83328C25.4415 8.07688 25.3349 8.25959 25.1684 8.38139C25.0086 8.49678 24.7523 8.55448 24.3993 8.55448H23.4005L22.8911 11.2085H24.3094C24.5225 11.2085 24.6823 11.2598 24.7889 11.3623C24.9021 11.4585 24.9587 11.6252 24.9587 11.8624C24.9587 11.9521 24.9487 12.0547 24.9287 12.1701L24.8089 12.9201H22.6414ZM18.8158 11.2085H20.8635L21.3729 8.55448H19.3352L18.8158 11.2085Z" fill="#828282"/>
</svg>
