<svg width="26" height="25" viewBox="0 0 26 25" fill="none" xmlns="http://www.w3.org/2000/svg">
<path fill-rule="evenodd" clip-rule="evenodd" d="M16.1151 12.0388L5.94141 10.2911V23.5231C5.94141 24.1473 6.44073 24.5842 7.00246 24.5842H24.4787C25.1028 24.5842 25.5398 24.0849 25.5398 23.5231V18.6548L16.1151 12.0388Z" fill="#575757"/>
<path fill-rule="evenodd" clip-rule="evenodd" d="M16.1152 0.741211H7.06496C6.44081 0.741211 6.00391 1.24053 6.00391 1.80227V6.67065L16.1152 12.6001L21.4829 14.4101L25.6647 12.6001V6.67065L16.1152 0.741211Z" fill="#A8A8A8"/>
<path d="M16.0527 6.67029H5.94141V12.5997H16.0527V6.67029Z" fill="#7D7D7D"/>
<path fill-rule="evenodd" clip-rule="evenodd" d="M13.244 5.48438H5.94141V20.4016H13.1816C13.8057 20.4016 14.2426 19.9023 14.2426 19.3405V6.60785C14.305 5.9837 13.8057 5.48438 13.244 5.48438Z" fill="#000003"/>
<path fill-rule="evenodd" clip-rule="evenodd" d="M12.6198 6.10901H5.94141V21.0262H12.6198C13.244 21.0262 13.6809 20.5269 13.6809 19.9652V7.17007C13.6809 6.60833 13.244 6.10901 12.6198 6.10901Z" fill="#000003"/>
<path fill-rule="evenodd" clip-rule="evenodd" d="M12.6198 6.10901H5.94141V19.7779H12.6198C13.244 19.7779 13.6809 19.2786 13.6809 18.7169V7.17007C13.6809 6.60833 13.244 6.10901 12.6198 6.10901Z" fill="#000003"/>
<path fill-rule="evenodd" clip-rule="evenodd" d="M11.9957 6.10901H5.94141V19.7779H11.9957C12.6198 19.7779 13.0567 19.2786 13.0567 18.7169V7.17007C13.1191 6.60833 12.6198 6.10901 11.9957 6.10901Z" fill="#000003"/>
<path d="M1.07375 6.10974H11.9964C12.6205 6.10974 13.0575 6.60906 13.0575 7.1708V18.0934C13.0575 18.7176 12.5581 19.1545 11.9964 19.1545H1.07375C0.449601 19.1545 0.0126953 18.6552 0.0126953 18.0934V7.1708C0.0126953 6.60906 0.512016 6.10974 1.07375 6.10974Z" fill="#7D7D7D"/>
<path fill-rule="evenodd" clip-rule="evenodd" d="M3.38281 16.2207L5.69217 12.663L3.57006 9.10535H5.25527L6.37874 11.3523C6.50357 11.5395 6.56598 11.7268 6.56598 11.8516C6.6284 11.6644 6.69081 11.5395 6.81564 11.3523L8.06395 9.10535H9.62432L7.50221 12.6006L9.68674 16.1583H8.06395L6.75323 13.6617C6.69081 13.5368 6.6284 13.4744 6.56598 13.3496C6.50357 13.4744 6.50357 13.5992 6.44115 13.6617L5.06802 16.1583H3.38281V16.2207Z" fill="white"/>
<path fill-rule="evenodd" clip-rule="evenodd" d="M24.5423 0.741211H16.1162V6.67065H25.6033V1.80227C25.6033 1.24053 25.104 0.741211 24.5423 0.741211Z" fill="#BABABA"/>
<path d="M25.6657 12.6627H16.1162V18.5922H25.6657V12.6627Z" fill="#7D7D7D"/>
</svg>
