<svg width="23" height="26" viewBox="0 0 23 26" fill="none" xmlns="http://www.w3.org/2000/svg">
<path d="M1.4506 18.7113L2.37256 19.2437L12.6436 1.45429L11.7216 0.921978L1.4506 18.7113Z" fill="#4F4F4F"/>
<path d="M21.7837 17.2902H1.2417V18.3548H21.7837V17.2902Z" fill="#4F4F4F"/>
<path d="M1.64654 17.8875L11.9214 23.8198L12.4537 22.8979L2.17885 16.9655L1.64654 17.8875Z" fill="#4F4F4F"/>
<path d="M10.5738 2.42885L20.8486 8.36121L21.3809 7.43925L11.1061 1.50689L10.5738 2.42885Z" fill="#4F4F4F"/>
<path d="M1.6508 7.43583L2.18311 8.35779L12.4579 2.42543L11.9256 1.50347L1.6508 7.43583Z" fill="#4F4F4F"/>
<path d="M10.3887 1.45429L20.6597 19.2437L21.5816 18.7113L11.3106 0.921986L10.3887 1.45429Z" fill="#4F4F4F"/>
<path d="M3.11979 6.72803H2.05518V18.5927H3.11979V6.72803Z" fill="#4F4F4F"/>
<path d="M20.9753 6.72803H19.9106V18.5927H20.9753V6.72803Z" fill="#4F4F4F"/>
<path d="M11.2762 22.563L11.7412 23.3683L20.6775 18.2087L20.2126 17.4034L11.2762 22.563Z" fill="#4F4F4F"/>
<path d="M22.3865 18.9409C21.7708 20.012 20.3983 20.3775 19.3273 19.7618C18.2563 19.1461 17.8907 17.7737 18.5064 16.7027C19.1221 15.6316 20.4945 15.2661 21.5656 15.8818C22.643 16.5038 23.0086 17.8699 22.3865 18.9409Z" fill="#4F4F4F"/>
<path d="M4.5183 8.6211C3.90262 9.69213 2.53016 10.0577 1.45913 9.442C0.388101 8.82632 0.0225399 7.45387 0.638222 6.38284C1.2539 5.31181 2.62636 4.94625 3.69739 5.56193C4.76842 6.18402 5.13399 7.55007 4.5183 8.6211Z" fill="#4F4F4F"/>
<path d="M0.645058 18.9409C0.0293757 17.8699 0.394937 16.5038 1.46597 15.8818C2.537 15.2661 3.90304 15.6316 4.52514 16.7027C5.14082 17.7737 4.77526 19.1397 3.70423 19.7618C2.62679 20.3775 1.26074 20.012 0.645058 18.9409Z" fill="#4F4F4F"/>
<path d="M18.5113 8.6211C17.8956 7.55007 18.2611 6.18402 19.3322 5.56193C20.4032 4.94625 21.7693 5.31181 22.3913 6.38284C23.007 7.45387 22.6415 8.81991 21.5704 9.442C20.4994 10.0577 19.127 9.69213 18.5113 8.6211Z" fill="#4F4F4F"/>
<path d="M11.5146 25.2185C10.2769 25.2185 9.27637 24.218 9.27637 22.9802C9.27637 21.7424 10.2769 20.7419 11.5146 20.7419C12.7524 20.7419 13.7529 21.7424 13.7529 22.9802C13.7529 24.2116 12.7524 25.2185 11.5146 25.2185Z" fill="#4F4F4F"/>
<path d="M11.5146 4.58053C10.2769 4.58053 9.27637 3.58004 9.27637 2.34227C9.27637 1.10449 10.2769 0.104004 11.5146 0.104004C12.7524 0.104004 13.7529 1.10449 13.7529 2.34227C13.7529 3.58004 12.7524 4.58053 11.5146 4.58053Z" fill="#4F4F4F"/>
</svg>
