<svg width="27" height="27" viewBox="0 0 27 27" fill="none" xmlns="http://www.w3.org/2000/svg">
<g opacity="0.5">
<path fill-rule="evenodd" clip-rule="evenodd" d="M0.677734 0.835693H26.3312V26.4891H0.677734V0.835693ZM20.2881 22.3414C19.0991 22.3414 18.4268 21.7213 17.9101 20.8775L15.9511 22.0157C16.6588 23.414 18.1051 24.4808 20.3439 24.4808C22.6336 24.4808 24.3385 23.2918 24.3385 21.1215C24.3385 19.1083 23.1821 18.2128 21.1339 17.3345L20.5312 17.0764C19.4969 16.6284 19.049 16.3357 19.049 15.6125C19.049 15.0273 19.4965 14.5794 20.2026 14.5794C20.8949 14.5794 21.3407 14.8714 21.754 15.6125L23.6312 14.4072C22.8372 13.0105 21.7353 12.4771 20.2026 12.4771C18.0498 12.4771 16.6722 13.8534 16.6722 15.6613C16.6722 17.624 17.8278 18.5525 19.5674 19.2935L20.17 19.5521C21.2695 20.033 21.9251 20.3258 21.9251 21.1524C21.9251 21.8422 21.287 22.3414 20.2881 22.3414ZM10.9458 22.3264C10.1176 22.3264 9.77308 21.7583 9.39438 21.0864L7.4321 22.2744C8.00055 23.4775 9.1183 24.4764 11.0484 24.4764C13.1846 24.4764 14.648 23.3403 14.648 20.8442V12.6147H12.2374V20.8116C12.2374 22.0165 11.7378 22.3264 10.9458 22.3264Z" fill="#4F4F4F"/>
</g>
</svg>
