<svg width="26" height="13" viewBox="0 0 26 13" fill="none" xmlns="http://www.w3.org/2000/svg">
<g opacity="0.5">
<path d="M4.33732 8.45097C5.12606 8.45097 5.71489 8.30626 6.08745 8.02101C6.45603 7.73868 6.7106 7.24954 6.84403 6.56723C6.96844 5.92948 6.92104 5.48417 6.70321 5.24386C6.48048 4.99841 5.99894 4.87392 5.27198 4.87392H4.0115L3.31271 8.45097H4.33732ZM0.214624 12.8572C0.156114 12.8572 0.100546 12.8312 0.0633478 12.7862C0.0260845 12.7413 0.0109827 12.6821 0.0221617 12.6249L1.87408 3.14569C1.892 3.05405 1.97273 2.98784 2.06661 2.98784H6.05797C7.31237 2.98784 8.24605 3.32669 8.83291 3.99508C9.42291 4.66698 9.60511 5.60618 9.37441 6.78654C9.28053 7.26743 9.11905 7.71404 8.8945 8.11388C8.66967 8.51419 8.37255 8.88458 8.01122 9.21496C7.57871 9.61768 7.08918 9.90969 6.55756 10.0815C6.03437 10.2511 5.36245 10.3371 4.56051 10.3371H2.94433L2.48278 12.6993C2.46487 12.791 2.3842 12.8572 2.29032 12.8572H0.214624Z" fill="#4F4F4F"/>
<path d="M14.1336 10.3371C14.075 10.3371 14.0195 10.311 13.9823 10.266C13.945 10.2211 13.9299 10.162 13.9411 10.1047L14.7603 5.91056C14.8382 5.51168 14.819 5.22539 14.7062 5.10442C14.6372 5.03047 14.4298 4.90645 13.8166 4.90645H12.3325L11.3025 10.1791C11.2846 10.2709 11.2039 10.3371 11.11 10.3371H9.05072C8.99215 10.3371 8.93664 10.311 8.89938 10.266C8.86211 10.2211 8.84701 10.1619 8.85819 10.1047L10.7101 0.625497C10.728 0.533859 10.8088 0.467651 10.9026 0.467651H12.9619C13.0205 0.467651 13.076 0.493667 13.1133 0.538607C13.1505 0.583613 13.1656 0.642732 13.1545 0.699965L12.7076 2.98785H14.3041C15.5204 2.98785 16.3452 3.20117 16.8256 3.64004C17.3152 4.08776 17.468 4.80362 17.2797 5.76799L16.4181 10.1791C16.4002 10.2709 16.3195 10.3371 16.2256 10.3371H14.1336Z" fill="#4F4F4F"/>
<path d="M20.5381 8.45097C21.3268 8.45097 21.9156 8.30626 22.2882 8.02101C22.6568 7.73875 22.9114 7.2496 23.0449 6.56723C23.1693 5.92948 23.1219 5.48417 22.904 5.24386C22.6812 4.99841 22.1997 4.87392 21.4727 4.87392H20.2122L19.5135 8.45097H20.5381ZM16.4154 12.8572C16.3569 12.8572 16.3014 12.8312 16.2642 12.7862C16.2269 12.7413 16.2117 12.6821 16.2229 12.6249L18.0748 3.14569C18.0928 3.05405 18.1735 2.98784 18.2674 2.98784H22.2587C23.5132 2.98784 24.4468 3.32669 25.0337 3.99508C25.6237 4.66691 25.8059 5.60611 25.5752 6.78654C25.4812 7.26743 25.3198 7.71404 25.0952 8.11388C24.8704 8.51419 24.5733 8.88458 24.212 9.21496C23.7795 9.61768 23.2899 9.90969 22.7583 10.0815C22.2351 10.2511 21.5632 10.3371 20.7613 10.3371H19.145L18.6837 12.6993C18.6657 12.791 18.585 12.8572 18.4911 12.8572H16.4154Z" fill="#4F4F4F"/>
</g>
</svg>
