<svg width="27" height="27" viewBox="0 0 27 27" fill="none" xmlns="http://www.w3.org/2000/svg">
<g opacity="0.5">
<g clip-path="url(#clip0_3316_36251)">
<path d="M13.0829 0.835693C6.57044 0.835694 6.97712 3.67466 6.97712 3.67466L6.98438 6.6158H13.199V7.49888H4.51594C4.51594 7.49888 0.348633 7.02379 0.348633 13.6293C0.348632 20.2348 3.98595 20.0006 3.98595 20.0006H6.15672V16.9353C6.15672 16.9353 6.03971 13.279 9.73596 13.279C13.4322 13.279 15.8998 13.279 15.8998 13.279C15.8998 13.279 19.3629 13.3353 19.3629 9.91455C19.3629 6.49385 19.3629 4.25851 19.3629 4.25851C19.3629 4.25851 19.8887 0.835693 13.0829 0.835693ZM9.6561 2.81348C10.2744 2.81348 10.7742 3.31584 10.7742 3.93739C10.7742 4.55894 10.2744 5.0613 9.6561 5.0613C9.03779 5.0613 8.53804 4.55894 8.53804 3.93739C8.53804 3.31584 9.03779 2.81348 9.6561 2.81348Z" fill="#4F4F4F"/>
<path d="M13.2679 26.4884C19.7804 26.4884 19.3737 23.6494 19.3737 23.6494L19.3664 20.7083H13.1518V19.8252H21.8349C21.8349 19.8252 26.0022 20.3003 26.0022 13.6948C26.0022 7.08929 22.3649 7.32354 22.3649 7.32354H20.1941V10.3887C20.1941 10.3887 20.3111 14.0451 16.6148 14.0451C12.9186 14.0451 10.451 14.0451 10.451 14.0451C10.451 14.0451 6.98793 13.9888 6.98793 17.4095C6.98793 20.8302 6.98793 23.0656 6.98793 23.0656C6.98793 23.0656 6.46214 26.4884 13.2679 26.4884ZM16.6947 24.5106C16.0764 24.5106 15.5767 24.0082 15.5767 23.3867C15.5767 22.7651 16.0764 22.2628 16.6947 22.2628C17.313 22.2628 17.8128 22.7651 17.8128 23.3867C17.8128 24.0082 17.313 24.5106 16.6947 24.5106Z" fill="#4F4F4F"/>
</g>
</g>
<defs>
<clipPath id="clip0_3316_36251">
<rect width="25.6534" height="25.6534" fill="white" transform="translate(0.348633 0.835693)"/>
</clipPath>
</defs>
</svg>
