<svg width="27" height="21" viewBox="0 0 27 21" fill="none" xmlns="http://www.w3.org/2000/svg">
<g opacity="0.5">
<g clip-path="url(#clip0_3316_36269)">
<path fill-rule="evenodd" clip-rule="evenodd" d="M13.161 17.9423C6.10543 17.9423 0.385742 14.1117 0.385742 9.3864C0.385742 4.66106 6.10543 0.830444 13.161 0.830444C20.2166 0.830444 25.9362 4.66106 25.9362 9.3864C25.9362 14.1117 20.2166 17.9423 13.161 17.9423ZM15.1164 4.17553C9.7536 4.17553 5.40616 6.7943 5.40616 10.0247C5.40616 13.2551 9.7536 15.8739 15.1164 15.8739C20.4793 15.8739 24.4369 14.0835 24.4369 10.0247C24.4369 5.96719 20.4793 4.17553 15.1164 4.17553Z" fill="#BDBDBD"/>
<path fill-rule="evenodd" clip-rule="evenodd" d="M19.8417 14.0824C19.8417 14.0824 20.6149 14.3157 21.0641 14.543C21.22 14.6219 21.4897 14.7793 21.6842 14.9859C21.8748 15.1883 21.9677 15.3934 21.9677 15.3934L25.0149 20.5311L20.0897 20.5333L17.7866 16.2083C17.7866 16.2083 17.315 15.398 17.0248 15.1631C16.7827 14.9671 16.6795 14.8973 16.4401 14.8973C16.2735 14.8973 15.2699 14.8973 15.2699 14.8973L15.2708 20.5302L10.9126 20.5321V6.14319H19.6645C19.6645 6.14319 23.6507 6.21508 23.6507 10.0076C23.6507 13.8001 19.8417 14.0824 19.8417 14.0824ZM17.946 9.26433L15.3076 9.26263L15.3063 11.7093L17.946 11.7084C17.946 11.7084 19.1685 11.7046 19.1685 10.4638C19.1685 9.19811 17.946 9.26433 17.946 9.26433Z" fill="#333333"/>
</g>
</g>
<defs>
<clipPath id="clip0_3316_36269">
<rect width="25.6534" height="19.8779" fill="white" transform="translate(0.354004 0.723511)"/>
</clipPath>
</defs>
</svg>
