<svg width="180" height="32" viewBox="0 0 180 32" fill="none" xmlns="http://www.w3.org/2000/svg">
<path d="M31.0959 15.5415C31.1902 14.0282 31.7558 12.8359 32.6984 11.8729C33.641 10.9557 34.8192 10.4971 36.186 10.4971C36.2331 10.4971 36.2331 10.4971 36.2802 10.4971C37.6941 10.4971 39.0609 11.1391 39.9564 12.2397C40.5691 13.0193 40.9461 14.074 41.0875 15.5415H31.0959ZM36.186 8.15835C33.6881 8.15835 31.7086 8.93795 30.1533 10.5888C28.598 12.1939 27.7968 14.4868 27.7968 17.4217C27.7968 20.2649 28.5509 22.4661 30.1062 24.0252C31.6144 25.5844 33.7352 26.364 36.3274 26.364C38.4011 26.364 40.0978 25.8595 41.4646 24.8965C42.8313 23.8876 43.7268 22.5119 44.2452 20.7234L41.0875 20.3566C40.6162 21.5948 40.0035 22.4661 39.1552 23.1081C38.354 23.7042 37.4114 23.9794 36.3274 23.9794C34.8192 23.9794 33.5467 23.5208 32.557 22.4661C31.5672 21.4113 31.0017 19.9897 30.9074 18.0637H44.3395V17.2841C44.3395 14.4409 43.5854 12.1939 42.0773 10.5888C40.522 8.93795 38.5896 8.15835 36.186 8.15835ZM149.015 15.4039C149.11 13.8906 149.675 12.6983 150.618 11.7353C151.56 10.8181 152.739 10.3595 154.105 10.3595C154.153 10.3595 154.153 10.3595 154.2 10.3595C155.614 10.3595 156.98 11.0016 157.876 12.1021C158.489 12.8817 158.866 13.9365 159.007 15.4039H149.015ZM154.105 8.02079C151.608 8.02079 149.628 8.80037 148.073 10.4513C146.517 12.0563 145.716 14.3492 145.716 17.2841C145.716 20.1273 146.517 22.3285 148.026 23.8877C149.534 25.4468 151.655 26.2264 154.247 26.2264C156.321 26.2264 158.017 25.7678 159.384 24.759C160.751 23.7501 161.646 22.3743 162.165 20.5859L159.007 20.219C158.536 21.4572 157.923 22.3743 157.169 22.9705C156.368 23.5667 155.425 23.8418 154.341 23.8418C152.833 23.8418 151.56 23.3832 150.571 22.3285C149.581 21.2737 149.015 19.8522 148.921 17.9261H162.259V17.1465C162.259 14.3033 161.505 12.0563 159.997 10.4513C158.441 8.84622 156.509 8.02079 154.105 8.02079ZM87.9819 8.02079C85.484 8.02079 83.5988 8.93794 82.2792 10.864V8.38764H79.5457V25.8137H82.6091V16.3211C82.6091 14.074 83.0804 12.5607 84.023 11.7811C84.9656 11.0015 86.0967 10.5888 87.3692 10.5888C88.1704 10.5888 88.8774 10.7723 89.4901 11.0933C90.1028 11.4143 90.4798 11.9187 90.7155 12.5149C90.9511 13.111 91.0454 13.9823 91.0454 15.2205V25.8137H94.0617V15.0829C94.0617 13.753 94.0146 12.79 93.8732 12.2397C93.6847 11.4143 93.3548 10.6805 92.9306 10.0844C92.5064 9.44238 91.8466 8.9838 90.904 8.61693C90.0556 8.20421 89.0188 8.02079 87.9819 8.02079ZM171.826 8.02079C170.884 8.02079 170.035 8.11249 169.187 8.34178C168.386 8.57107 167.679 8.84623 167.255 9.2131C166.642 9.62582 166.124 10.222 165.747 10.864C165.369 11.5518 165.228 12.2856 165.228 13.0193C165.228 13.8906 165.464 14.6702 165.888 15.3581C166.312 16.0459 166.972 16.5962 167.82 17.009C168.716 17.3758 170.224 17.8802 172.439 18.4305C174.089 18.8433 175.125 19.1643 175.55 19.4394C176.162 19.8063 176.445 20.3566 176.445 21.0445C176.445 21.7782 176.115 22.4202 175.408 22.9705C174.748 23.5208 173.664 23.7959 172.298 23.7959C170.931 23.7959 169.847 23.4749 169.093 22.8788C168.339 22.2826 167.867 21.3655 167.679 20.1732L164.663 20.6317C164.992 22.5119 165.794 23.8876 167.019 24.8507C168.244 25.7678 169.988 26.2723 172.345 26.2723C173.759 26.2723 175.031 26.043 176.115 25.5385C177.199 25.08 178.047 24.3462 178.66 23.5208C179.273 22.6036 179.556 21.7323 179.556 20.7234C179.556 19.7146 179.32 18.8891 178.849 18.2013C178.377 17.5134 177.718 17.0089 176.869 16.6421L172.392 15.2663L169.705 14.4868C169.187 14.3033 168.763 13.9823 168.527 13.7072C168.292 13.3862 168.197 13.0652 168.197 12.6524C168.197 12.0563 168.48 11.506 169.093 11.0474C169.705 10.5888 170.695 10.3595 172.062 10.3595C173.24 10.3595 174.136 10.5888 174.796 11.1391C175.408 11.6436 175.832 12.3314 175.974 13.2486L178.943 12.8817C178.754 11.7811 178.377 10.864 177.859 10.1761C177.388 9.53409 176.586 8.9838 175.502 8.57107C174.466 8.20421 173.24 8.02079 171.826 8.02079ZM104.572 23.8877C103.393 23.8877 102.498 23.6125 101.885 23.1081C101.273 22.6036 100.943 21.9158 100.943 21.1362C100.943 20.6317 101.084 20.1273 101.367 19.7146C101.65 19.3019 102.027 18.9808 102.592 18.7516C103.111 18.5223 104.006 18.3388 105.232 18.1554C107.447 17.8803 109.096 17.5134 110.18 17.0548V18.1095C110.18 19.4394 109.992 20.4024 109.709 21.0903C109.285 21.9616 108.625 22.6495 107.682 23.1081C106.787 23.6584 105.75 23.8877 104.572 23.8877ZM106.316 7.97493C104.76 7.97493 103.393 8.15835 102.262 8.61693C101.084 9.02966 100.189 9.62582 99.5759 10.3595C98.9632 11.1391 98.4919 12.1022 98.2092 13.3403L101.178 13.7072C101.508 12.469 102.027 11.5977 102.687 11.1391C103.346 10.6347 104.43 10.4054 105.844 10.4054C107.4 10.4054 108.531 10.7264 109.332 11.4143C109.897 11.9187 110.18 12.7442 110.18 13.9823V14.7619C109.002 15.1746 107.211 15.5415 104.76 15.8166C103.865 15.9084 102.969 16.0459 102.074 16.2752C101.273 16.4587 100.566 16.7797 99.8587 17.2382C99.246 17.651 98.6805 18.2471 98.3034 18.935C97.9264 19.6687 97.6907 20.4024 97.6907 21.2737C97.6907 22.7412 98.2091 23.9335 99.2931 24.8507C100.377 25.7678 101.838 26.2723 103.818 26.2723H103.865C104.996 26.2723 106.127 26.0888 107.164 25.6761C108.248 25.3093 109.285 24.6214 110.416 23.7042C110.51 24.5297 110.699 25.2634 110.981 25.8137H114.186C113.809 25.1258 113.526 24.4379 113.385 23.7042L113.197 18.5223V14.5785C113.197 13.2486 113.149 12.3773 113.055 11.8729C112.867 11.0933 112.537 10.4054 112.113 9.85511C111.688 9.30481 110.934 8.89209 109.992 8.52523C109.049 8.15836 107.824 7.97493 106.316 7.97493ZM136.667 7.92906C134.405 7.92906 132.567 8.9838 131.153 11.0016C130.823 10.0844 130.21 9.30481 129.362 8.75452C128.514 8.25008 127.43 7.97493 126.11 7.97493C124.885 7.97493 123.848 8.25008 122.905 8.75452C122.01 9.25895 121.256 9.94683 120.69 10.8181V8.38764H117.957V25.8137V25.722H120.973V16.6879C120.973 15.0829 121.161 13.8447 121.444 13.0193C121.727 12.2397 122.293 11.5518 123.047 11.0933C123.754 10.6805 124.555 10.4513 125.403 10.4513C125.403 10.4513 125.403 10.4513 125.45 10.4513C126.581 10.4513 127.383 10.7723 127.901 11.4601C128.42 12.1021 128.655 13.111 128.655 14.4409V25.7678H131.719V15.6332C131.719 13.8448 132.096 12.5149 132.944 11.6894C133.792 10.9098 134.829 10.4971 136.102 10.4971C136.714 10.4971 137.327 10.6805 137.893 11.0016C138.364 11.2767 138.741 11.7353 138.977 12.2397C139.165 12.7442 139.259 13.6155 139.259 14.8078V25.8137H142.229V13.8447C142.229 11.8728 141.757 10.4054 140.815 9.44239C139.825 8.43351 138.458 7.92906 136.667 7.92906ZM12.9037 1.41724C10.453 1.41724 8.28499 1.92167 6.39979 2.88468C4.46746 3.8477 3.05355 5.36102 2.06382 7.37878C1.02696 9.39653 0.555664 11.5977 0.555664 13.9365C0.555664 16.2752 1.07409 18.4305 2.06382 20.3566C3.10068 22.2368 4.56171 23.7501 6.54117 24.7131C8.52064 25.722 10.7358 26.2264 13.1394 26.2264C14.9303 26.2264 16.7213 25.9054 18.418 25.3092C20.1618 24.6672 21.8113 23.7042 23.4137 22.4661V13.5237H12.9509V16.3669V16.4128H20.2089V20.9069C19.5019 21.503 18.4651 22.0992 17.1454 22.6036C15.8258 23.1081 14.4119 23.3832 12.998 23.3832H12.9509C11.3484 23.3832 9.79316 23.0163 8.37926 22.3285C6.91823 21.6406 5.7871 20.5859 5.03302 19.1184C4.27894 17.651 3.9019 15.8625 3.9019 13.753C3.9019 12.0104 4.23181 10.3595 4.8445 8.89209C5.17441 8.02078 5.73997 7.24119 6.39979 6.50746C7.05961 5.77374 7.95508 5.17759 9.03908 4.76486C10.1231 4.30628 11.4427 4.12286 12.9509 4.12286C14.1762 4.12286 15.3074 4.30628 16.3442 4.76486C17.3811 5.17759 18.1352 5.77375 18.7007 6.46162C19.2192 7.14949 19.7376 8.1125 20.0675 9.35067L22.9896 8.57107C22.5654 6.96604 21.9056 5.63617 21.1044 4.6273C20.3032 3.61842 19.172 2.83883 17.711 2.28854C16.2971 1.69238 14.6475 1.41724 12.9037 1.41724Z" fill="#010101"/>
<path d="M46.2716 20.0355C48.204 26.9142 54.5665 31.5 61.5889 31.5C62.8614 31.5 64.1339 31.3624 65.4535 31.0414C65.4064 31.0414 65.4064 31.0414 65.3593 31.0414C65.265 31.0414 65.2179 31.0414 65.1236 30.9956C64.7466 31.0873 64.3224 31.1331 63.9454 31.1331C62.72 31.1331 61.4946 30.7663 60.3164 30.1243C60.2693 30.1243 60.2693 30.0784 60.2221 30.0784C54.5665 29.5281 49.5707 25.7678 47.7798 20.2189L47.0728 20.4024C47.0257 20.4024 46.9786 20.4024 46.8843 20.4024C46.6487 20.4024 46.413 20.2648 46.2716 20.0355ZM61.6831 0.5C60.3635 0.5 59.0439 0.637563 57.7242 1.00443C50.5133 2.79289 45.7061 9.07544 45.7061 16C45.7061 17.2382 45.8474 18.4763 46.1774 19.7604C46.1774 19.4394 46.413 19.1642 46.6958 19.1183L47.4027 18.9349C47.2142 17.9719 47.0728 16.963 47.0728 16.0459C47.0728 11.1849 49.665 6.64497 53.9067 4.07692C54.2837 3.52662 54.7079 3.06804 55.1792 2.65532C55.7919 2.15088 56.4517 1.73815 57.2058 1.46301C57.3 1.27957 57.4414 1.14201 57.6771 1.09615C57.7242 1.09615 57.7714 1.09615 57.8656 1.09615C58.007 1.09615 58.1484 1.142 58.2898 1.23372C58.6197 1.18786 58.9967 1.14201 59.3266 1.14201C60.5049 1.14201 61.636 1.46301 62.72 2.01331C68.5641 2.42603 73.7485 6.32396 75.5394 12.0562L76.1992 11.8728C76.2463 11.8728 76.2935 11.8728 76.3877 11.8728C76.7176 11.8728 77.0004 12.1021 77.0947 12.3772C77.1889 12.7441 76.9533 13.1109 76.5763 13.2027L75.9164 13.3861C76.1049 14.3032 76.1992 15.2204 76.1992 16.1376C76.1992 20.9527 73.6542 25.4009 69.5539 27.9689C69.1297 28.611 68.6584 29.1612 68.0928 29.6657C67.4802 30.216 66.7261 30.6287 65.9248 30.9039C65.8306 30.9956 65.7363 31.0414 65.6421 31.0873C72.853 29.2988 77.6131 23.0163 77.6131 16.0917C77.6131 14.8077 77.4717 13.5237 77.0947 12.2396C75.2566 5.17751 68.7998 0.5 61.6831 0.5Z" fill="#0D71AD"/>
<path d="M65.9248 30.8121C65.7363 30.858 65.5949 30.9038 65.4064 30.9497C65.3122 30.9497 65.265 30.9955 65.1708 30.9955C65.265 31.0414 65.3122 31.0414 65.4064 31.0414C65.4536 31.0414 65.4536 31.0414 65.5007 31.0414C65.5478 31.0414 65.5478 31.0414 65.5949 31.0414C65.6421 31.0414 65.6421 31.0414 65.6421 31.0414C65.7363 30.9497 65.8306 30.9038 65.9248 30.8121ZM62.5315 16.5961L61.1647 16.9171L64.5109 29.7115C64.6995 29.7115 64.888 29.6657 65.0765 29.6198C65.3593 29.5739 65.6421 29.4822 65.8777 29.3447L62.5315 16.5961ZM58.8553 2.426C58.6668 2.426 58.4783 2.47186 58.2898 2.51772C58.007 2.56358 57.7242 2.65529 57.4886 2.79287L60.8348 15.5872L62.2016 15.2662L58.8553 2.426ZM57.9127 1.00439C57.8656 1.00439 57.8185 1.00439 57.7242 1.00439C57.4886 1.05025 57.3472 1.18783 57.2529 1.37127C57.4886 1.27955 57.6771 1.2337 57.9127 1.18784C58.0541 1.14198 58.1484 1.14197 58.2898 1.09612C58.1955 1.05026 58.0541 1.00439 57.9127 1.00439Z" fill="#0D71AD"/>
<path d="M52.3515 17.6508L47.45 18.8432L46.743 19.0266C46.4131 19.1183 46.2246 19.3934 46.2246 19.6686C46.2246 19.7144 46.2246 19.7603 46.2246 19.852C46.2246 19.8979 46.2717 19.9896 46.2717 20.0354C46.4131 20.2647 46.6488 20.4023 46.8844 20.4023C46.9316 20.4023 46.9787 20.4023 47.0729 20.4023L47.7799 20.2189L52.6343 19.0266C52.54 18.7973 52.4929 18.5221 52.4458 18.247C52.4458 18.0636 52.3986 17.8801 52.3515 17.6508ZM69.2712 13.4778L62.1546 15.2204L60.7878 15.5414L53.7183 17.284C53.7654 17.4674 53.8126 17.6967 53.8597 17.8801C53.9068 18.1094 54.0011 18.3846 54.0482 18.6139L61.1648 16.8712L62.5316 16.5503L69.6011 14.8076C69.554 14.6242 69.5069 14.3949 69.4597 14.2115C69.4126 13.9822 69.3655 13.7529 69.2712 13.4778ZM76.3879 11.781C76.3407 11.781 76.2936 11.781 76.1993 11.781L75.5395 11.9644L70.638 13.1567C70.6851 13.386 70.7794 13.6612 70.8265 13.8905C70.8736 14.0739 70.9208 14.3032 70.9679 14.4866L75.8694 13.2943L76.5292 13.1109C76.9063 13.0192 77.1419 12.6523 77.0477 12.2854C77.0006 11.9644 76.7178 11.781 76.3879 11.781Z" fill="#0D71AD"/>
<path d="M58.8559 2.426C59.0444 2.426 59.1858 2.38013 59.3743 2.38013C60.3169 2.38013 61.3066 2.65529 62.2964 3.20559C63.2861 3.75588 64.2758 4.58132 65.2184 5.63606C66.9151 7.56209 68.4233 10.3136 69.3188 13.4778C69.3659 13.7071 69.4602 13.9822 69.5073 14.2115C69.5544 14.3949 69.6016 14.6242 69.6487 14.8077C70.0257 16.5044 70.2143 18.1553 70.2143 19.7145C70.2143 21.6864 69.9315 23.4748 69.413 24.9881C68.8946 26.5015 68.0934 27.6938 67.1979 28.5192C66.8209 28.8402 66.3967 29.1154 65.9254 29.3447C65.6897 29.4364 65.407 29.5281 65.1242 29.6198C64.9357 29.6657 64.7472 29.7115 64.5586 29.7115C64.3701 29.7115 64.2287 29.7574 64.0402 29.7574C63.0976 29.7574 62.1079 29.4822 61.1181 28.9319C60.1284 28.3816 59.1387 27.5562 58.1961 26.5014C56.4994 24.5754 54.9912 21.8239 54.0958 18.6597C54.0486 18.4304 53.9544 18.1553 53.9072 17.926C53.8601 17.7426 53.813 17.5133 53.7658 17.3298C53.3888 15.6331 53.2003 13.9822 53.2003 12.423C53.2003 10.4512 53.4831 8.66269 54.0015 7.14938C54.5199 5.63606 55.3211 4.44375 56.2166 3.61831C56.5937 3.25144 57.0178 3.02216 57.4891 2.79287C57.7248 2.70115 58.0075 2.60943 58.2903 2.51772C58.4788 2.47186 58.6674 2.426 58.8559 2.426ZM59.3743 1.00439C59.0444 1.00439 58.6674 1.05026 58.3375 1.09612C58.1961 1.09612 58.1018 1.14198 57.9604 1.18784C57.7248 1.2337 57.4891 1.32541 57.3006 1.37127C56.5465 1.64641 55.8867 2.05914 55.274 2.56358C54.8027 2.9763 54.3785 3.43487 54.0015 3.98516C53.7658 4.30617 53.5302 4.67305 53.3417 5.08577C52.3048 7.05766 51.7393 9.57985 51.7393 12.423C51.7393 14.0739 51.9278 15.8624 52.3519 17.6967C52.3991 17.8802 52.4462 18.0636 52.4933 18.2929C52.5405 18.568 52.6347 18.7973 52.6819 19.0725C53.3888 21.5488 54.3785 23.75 55.651 25.5843C56.9707 27.5562 58.5731 29.1612 60.2698 30.1242C60.3169 30.1242 60.3169 30.1701 60.3641 30.1701C61.5423 30.8121 62.7677 31.179 63.9931 31.179C64.3701 31.179 64.7943 31.1331 65.1713 31.0414C65.2656 31.0414 65.3127 30.9955 65.407 30.9955C65.5955 30.9497 65.784 30.9038 65.9254 30.858C66.7266 30.5828 67.4336 30.1701 68.0934 29.6198C68.659 29.1612 69.1302 28.5651 69.5544 27.923C69.7429 27.6479 69.8843 27.3728 70.0257 27.0976C71.0626 25.1257 71.6282 22.6035 71.6282 19.7603C71.6282 18.1094 71.4396 16.321 71.0154 14.5325C70.9683 14.3491 70.9212 14.1198 70.8741 13.9364C70.8269 13.7071 70.7327 13.4319 70.6856 13.2026C69.9786 10.7263 68.9888 8.52512 67.7163 6.64494C66.3496 4.62719 64.7471 3.02216 63.0033 2.05914C62.9091 2.01328 62.8619 1.96741 62.7677 1.92155C61.6837 1.3254 60.5055 1.00439 59.3743 1.00439Z" fill="#0D71AD"/>
</svg>
