<svg width="119" height="44" viewBox="0 0 119 44" fill="none" xmlns="http://www.w3.org/2000/svg">
<path d="M18.4422 30.2476V38.3645H20.7261V30.2476H18.4422ZM0.42041 30.2476V38.3776H2.74369V32.1977H4.52881C5.11947 32.1977 5.55263 32.3427 5.82827 32.6457C6.19579 33.0279 6.34018 33.6735 6.34018 34.7935V38.3645H8.5847V33.8712C8.5847 30.6692 6.55019 30.2344 4.54193 30.2344L0.42041 30.2476ZM22.1306 30.2344V38.3513H25.8452C27.8272 38.3513 28.4704 38.0219 29.1661 37.284C29.6649 36.7701 29.9799 35.6237 29.9799 34.3851C29.9799 33.2387 29.7042 32.2241 29.2448 31.5916C28.3916 30.4584 27.1709 30.2344 25.3464 30.2344H22.1306ZM24.4014 32.0001H25.3858C26.8165 32.0001 27.7354 32.6457 27.7354 34.2928C27.7354 35.9531 26.8165 36.5856 25.3858 36.5856H24.4014V32.0001ZM15.1345 30.2344L13.2313 36.6647L11.3936 30.2476H8.91285L11.5249 38.3645H14.8326L17.484 30.2476L15.1345 30.2344ZM31.0562 38.3513H33.3401V30.2476H31.0562V38.3513ZM37.4747 30.2344L34.272 38.3645H36.5297L37.0416 36.9282H40.8218L41.3075 38.3645H43.762L40.5331 30.2476L37.4747 30.2344ZM44.9434 38.6016C44.5496 38.6016 44.2346 38.2722 44.2346 37.8769C44.2346 37.4816 44.5627 37.1654 44.9565 37.1654C45.3503 37.1654 45.6653 37.4816 45.6653 37.8769C45.6653 38.2854 45.3503 38.6016 44.9434 38.6016C44.9434 38.6148 44.9434 38.6148 44.9434 38.6016ZM44.9434 37.3103C44.6283 37.3103 44.3658 37.5607 44.3527 37.8769C44.3527 38.1932 44.6021 38.4567 44.9171 38.4699C45.2321 38.483 45.4947 38.2195 45.5078 37.9033V37.8901C45.5078 37.5738 45.2584 37.3235 44.9434 37.3103C44.9434 37.3235 44.9434 37.3235 44.9434 37.3103ZM45.0746 38.259L44.9302 37.9692H44.8515V38.259H44.6809V37.4948H44.9959C45.1271 37.4816 45.2453 37.587 45.2453 37.7188V37.732C45.2453 37.8242 45.1928 37.9033 45.1009 37.9296L45.2584 38.2459L45.0746 38.259ZM44.9696 37.6397H44.8515V37.8374H44.9696C45.0221 37.8506 45.0746 37.811 45.0878 37.7583C45.1009 37.7056 45.0615 37.6529 45.009 37.6397C44.9827 37.6397 44.9696 37.6397 44.9696 37.6397ZM38.9711 31.7234L40.3624 35.5183H37.5404L38.9711 31.7234Z" fill="black"/>
<path d="M15.4104 11.2342V9.28405C15.5941 9.28405 15.791 9.2577 15.9879 9.2577C21.3301 9.0864 24.8216 13.8432 24.8216 13.8432C24.8216 13.8432 21.0545 19.1008 16.9855 19.1008C16.4473 19.1008 15.9223 19.0217 15.4104 18.8504V12.934C17.4842 13.1844 17.9043 14.1068 19.1512 16.1887L21.9208 13.8432C21.9208 13.8432 19.8994 11.1815 16.4867 11.1815C16.1323 11.1683 15.7648 11.1947 15.4104 11.2342ZM15.4104 4.79077V7.70284C15.6072 7.68966 15.791 7.67649 15.9879 7.66331C23.404 7.41295 28.2343 13.751 28.2343 13.751C28.2343 13.751 22.6821 20.4975 16.9067 20.4975C16.4079 20.4975 15.9091 20.458 15.4104 20.3657V22.1578C15.8173 22.2105 16.2373 22.2368 16.6573 22.2368C22.0389 22.2368 25.9242 19.4829 29.6913 16.2414C30.3082 16.7553 32.8678 17.9544 33.3928 18.4946C29.8094 21.4989 21.4614 23.9103 16.7361 23.9103C16.2898 23.9103 15.8566 23.8839 15.4104 23.8444V26.3743H35.8473V4.79077H15.4104ZM15.4104 18.8372V20.3657C10.4357 19.4829 9.04431 14.3044 9.04431 14.3044C10.7638 12.5914 12.9952 11.5109 15.4104 11.221V12.9077C13.3233 12.6573 11.6957 14.6075 11.6957 14.6075C11.6957 14.6075 12.6145 17.8885 15.4104 18.8372ZM6.57665 14.0804C8.70304 11.2869 11.9189 9.54759 15.4104 9.27088V7.68966C8.8868 8.21673 3.24268 13.7378 3.24268 13.7378C3.24268 13.7378 6.44539 22.9879 15.4104 23.8312V22.1709C8.8343 21.3408 6.57665 14.0804 6.57665 14.0804Z" fill="#76B900"/>
<path d="M53.0908 0.321777H51.6655V43.0804H53.0908V0.321777Z" fill="#828282"/>
<path d="M59.0908 19.9438V11.2603H60.0096V19.9438H59.0908ZM67.8458 19.9438L63.2517 12.9733V19.9438H62.3198V11.2603H63.1992L67.7933 18.2045V11.234H68.7121V19.9175L67.8458 19.9438ZM73.8443 20.0097C73.0174 20.0229 72.2167 19.6935 71.626 19.1137C70.8122 18.2967 70.8122 17.4402 70.8122 15.5955C70.8122 13.7507 70.8122 12.8943 71.626 12.0773C72.2167 11.4843 73.0174 11.1681 73.8443 11.1813C75.4063 11.1813 76.5614 12.13 76.8501 13.7639H75.9051C75.6688 12.6966 74.9337 12.0114 73.8443 12.0114C73.2799 11.9982 72.7417 12.2222 72.3479 12.6175C71.7967 13.1841 71.7442 13.7771 71.7442 15.5955C71.7442 17.4139 71.8098 18.0068 72.3479 18.5734C72.7417 18.9688 73.2799 19.1928 73.8443 19.1796C74.9206 19.1796 75.695 18.4812 75.9182 17.4271H76.837C76.5613 19.0478 75.38 20.0097 73.8443 20.0097ZM78.7796 19.9438V11.2603H84.1612V12.0905H79.7116V15.1607H83.5049V15.9908H79.7116V19.1269H84.1612V19.9438H78.7796ZM89.2409 16.3729H86.9439V19.9438H86.0251V11.2603H89.2541C90.8292 11.2603 91.9317 12.2486 91.9317 13.8166C91.9317 15.3847 90.816 16.3729 89.2409 16.3729ZM89.1491 12.0773H86.9308V15.5296H89.1491C90.2254 15.5296 90.9867 14.9498 90.9867 13.7903C90.9867 12.6307 90.2254 12.0773 89.1491 12.0773ZM96.4733 12.0773V19.957H95.5414V12.0773H93.0343V11.2472H98.9672V12.0773H96.4733ZM100.687 19.9438V11.2603H101.619V19.9438H100.687ZM108.93 19.1137C107.696 20.3128 105.74 20.3128 104.506 19.1137C103.693 18.2967 103.693 17.4402 103.693 15.5955C103.693 13.7507 103.693 12.8943 104.506 12.0773C105.74 10.8782 107.696 10.8782 108.93 12.0773C109.744 12.8943 109.744 13.7507 109.744 15.5955C109.744 17.4402 109.757 18.2836 108.93 19.1137ZM108.208 12.6307C107.381 11.8006 106.042 11.8006 105.228 12.6307C104.677 13.1841 104.624 13.7771 104.624 15.5955C104.624 17.4139 104.69 18.0068 105.228 18.5603C106.055 19.3904 107.394 19.3904 108.208 18.5603C108.759 18.0068 108.812 17.4139 108.812 15.5955C108.812 13.7771 108.759 13.1841 108.208 12.6307ZM117.357 19.9438L112.763 12.9733V19.9438H111.844V11.2603H112.723L117.317 18.2045V11.234H118.236V19.9175L117.357 19.9438ZM62.3067 28.5746H60.0228V32.1455H59.1039V23.462H62.3329C63.908 23.462 65.0106 24.4503 65.0106 26.0183C64.9975 27.5864 63.8949 28.5746 62.3067 28.5746ZM62.2279 24.2922H60.0096V27.7445H62.2279C63.3173 27.7445 64.0655 27.1515 64.0655 26.0052C64.0655 24.8588 63.3042 24.2922 62.2279 24.2922ZM71.7442 32.1455L69.7753 28.2847H67.7014V32.1455H66.7695V23.462H70.0903C71.5998 23.462 72.663 24.3844 72.663 25.8866C72.7155 27.0329 71.9017 28.0344 70.7728 28.2188L72.8336 32.1587L71.7442 32.1455ZM70.0115 24.2922H67.7014V27.481H70.0115C71.0354 27.481 71.731 26.9539 71.731 25.8866C71.731 24.8192 71.0222 24.2922 70.0115 24.2922ZM79.6853 31.3154C78.4515 32.5145 76.4957 32.5145 75.2619 31.3154C74.4481 30.4984 74.4481 29.6419 74.4481 27.7972C74.4481 25.9524 74.4481 25.096 75.2619 24.279C76.4957 23.0799 78.4515 23.0799 79.6853 24.279C80.4991 25.096 80.4991 25.9524 80.4991 27.7972C80.4991 29.6419 80.4991 30.4984 79.6853 31.3154ZM78.9765 24.8324C78.1496 24.0023 76.8107 24.0023 75.9969 24.8324C75.4457 25.399 75.3931 25.9788 75.3931 27.7972C75.3931 29.6156 75.4588 30.1954 75.9969 30.762C76.8239 31.5921 78.1627 31.5921 78.9765 30.762C79.5278 30.1954 79.5803 29.6156 79.5803 27.7972C79.5803 25.9788 79.5147 25.399 78.9765 24.8324ZM87.679 31.2232C86.4714 32.5013 84.4763 32.5672 83.1899 31.3549C83.1768 31.3417 83.1637 31.3286 83.1505 31.3154C82.3367 30.4984 82.3367 29.6419 82.3367 27.7972C82.3367 25.9524 82.3367 25.096 83.1505 24.279C83.7412 23.686 84.5288 23.3698 85.3688 23.3698C87.0227 23.3698 88.1384 24.4503 88.4009 25.9656H87.4821C87.2327 24.8588 86.4583 24.1868 85.3819 24.1868C84.8175 24.1868 84.2794 24.4108 83.8856 24.8061C83.3343 25.3727 83.2818 25.9524 83.2818 27.7708C83.2818 29.5892 83.3474 30.1822 83.8856 30.7488C84.2794 31.1441 84.8175 31.3681 85.3819 31.3549C86.012 31.3681 86.6158 31.0914 87.0227 30.6038C87.3771 30.1558 87.5477 29.6024 87.5083 29.0358V28.377H85.3688V27.56H88.4271V28.9436C88.414 29.9714 88.204 30.6434 87.679 31.2232ZM95.4364 32.1455L93.4675 28.2847H91.3805V32.1455H90.4616V23.462H93.7825C95.292 23.462 96.3552 24.3844 96.3552 25.8866C96.4077 27.0329 95.5939 28.0344 94.465 28.2188L96.5258 32.1455H95.4364ZM93.6906 24.2922H91.3805V27.481H93.6906C94.7144 27.481 95.4101 26.9539 95.4101 25.8866C95.4101 24.8192 94.7013 24.2922 93.6906 24.2922ZM103.981 32.1455L103.286 30.1822H99.5054L98.8097 32.1455H97.8384L101.028 23.462H101.802L104.979 32.1455H103.981ZM101.422 24.7929L99.7941 29.3916H103.023L101.422 24.7929ZM113.064 32.1455V25.544L110.689 30.7883H109.901L107.486 25.544V32.1455H106.567V23.462H107.486L110.308 29.6288L113.064 23.462H113.983V32.1455H113.064Z" fill="black"/>
</svg>
