<svg width="96" height="82" viewBox="0 0 96 82" fill="none" xmlns="http://www.w3.org/2000/svg">
<g clip-path="url(#clip0_3536_54983)">
<path d="M7.68578 49.9237L7.93049 50.1302C7.66538 48.2718 7.52263 46.2482 8.05285 44.4724C8.84817 41.6229 9.84742 38.8559 10.3572 35.9031C10.7651 33.6111 11.2341 31.03 10.969 28.8206C10.6631 30.0182 10.3572 31.1952 9.70467 32.2276C7.23713 36.089 4.70842 40.6317 6.44181 45.5461C6.40103 45.6081 6.33985 45.67 6.27867 45.6287C5.58531 43.9975 5.42217 42.1597 4.97353 40.4252C3.77035 35.8205 0.283176 31.9592 1.30282 26.6318C0.752212 27.7881 0.548283 29.089 0.262783 30.3486C-0.349002 33.6111 0.262783 37.0595 1.13968 40.0742C2.2205 43.8116 5.83003 46.496 7.68578 49.9237Z" fill="#418FDE"/>
<path d="M6.74755 26.0125C7.56326 24.3193 8.88879 22.7087 10.4794 21.5111C13.987 18.8267 17.8209 15.3577 17.882 10.815C16.6993 14.0775 13.1713 15.4403 10.8261 17.6704C9.58215 18.8474 8.62369 20.2722 8.07308 21.7589L7.99151 21.6969C8.27701 20.3754 8.82762 19.1984 9.21508 17.9182C10.2347 14.4492 10.0512 10.2988 13.3956 7.96545C11.6826 8.41973 10.2347 9.53477 8.94997 10.9802C6.23773 14.0156 6.48244 18.4964 6.82912 22.4609C6.95147 23.6999 6.8903 24.7529 6.74755 26.0125Z" fill="#418FDE"/>
<path d="M10.8271 16.1212C12.7033 14.3454 14.8649 13.0239 16.4556 10.9177C18.3521 8.37788 20.0039 5.52834 22.4919 3.33957C19.127 4.66109 15.4971 6.02392 13.3151 9.53422C12.0303 11.5785 11.8264 13.9944 10.8271 16.1212Z" fill="#418FDE"/>
<path d="M12.2324 25.1065C13.0481 23.4339 13.5579 21.5342 13.7822 19.6965C13.4763 20.4811 13.0073 21.2038 12.3547 21.8233C9.6221 24.4457 6.42042 27.0062 5.80864 30.7229C5.72707 31.2598 5.66589 31.7967 5.52314 32.3129C5.40078 32.3748 5.40078 32.2303 5.35999 32.189L5.70667 27.605C6.03296 23.1242 3.70817 18.1478 6.25728 14.2039C6.17571 14.1832 6.11453 14.2658 6.05335 14.2865C3.72857 17.2806 2.17871 20.5844 2.17871 24.6109C2.17871 29.5873 5.01332 33.0769 5.35999 37.7435C6.09414 32.8704 10.1319 29.4014 12.2324 25.1065Z" fill="#418FDE"/>
<path d="M6.82884 55.6857C9.45952 57.7919 12.6 59.4231 15.0064 61.2815C14.5373 60.0633 13.7624 58.9482 13.4565 57.6886C12.0494 51.9276 12.8243 45.2374 10.3976 39.91C10.8462 42.9454 9.66344 45.6297 9.39834 48.5206C9.17402 50.8952 9.58187 53.2078 10.4996 55.1901C10.7647 55.789 11.2541 56.3052 11.3968 56.9246C10.5199 56.1193 9.88777 55.1075 9.29637 54.1164C6.46177 49.4704 0.527452 46.4557 0.119595 40.7979C-0.0843332 43.3171 0.139988 45.9808 0.955702 48.2108C2.07731 51.2669 4.27974 53.6415 6.82884 55.6857Z" fill="#418FDE"/>
<path d="M42.599 70.9424C38.0106 70.9424 33.8912 73.1932 29.8738 74.8864C26.2235 76.4144 21.3904 76.1253 18.1479 73.8539C19.7386 75.8775 21.8798 77.1371 24.1027 77.9837C28.2016 79.6356 32.9939 78.376 36.5015 76.1047C39.0098 74.4734 41.1715 72.1607 44.1692 72.1607C49.0023 72.1607 54.0801 77.1784 58.4238 81.7211C59.0968 81.1636 59.8105 80.5855 60.3611 79.9453C55.8135 75.5678 49.3898 70.9424 42.599 70.9424Z" fill="#418FDE"/>
<path d="M34.4006 71.4386C35.1144 71.2528 35.9709 71.3147 36.6234 71.0669C33.8908 70.5094 31.2601 69.6628 29.1393 67.7012C26.1007 64.8929 23.4089 61.8988 20.1664 59.7101C22.7155 63.1791 23.4293 68.2174 28.0788 69.9725C28.8945 70.2823 29.853 70.3442 30.5668 70.7985C29.6695 70.943 28.8945 70.6539 28.0584 70.4681C22.0629 69.1672 14.7623 70.8398 10.2759 65.6776C11.9685 69.064 15.4761 71.7277 18.8613 72.8427C24.0614 74.6185 29.5063 72.6569 34.4006 71.4386Z" fill="#418FDE"/>
<path d="M24.3662 68.8995C20.4711 65.7196 19.8798 60.9497 18.1464 56.7787C17.0655 54.1769 15.3118 51.8436 13.4356 49.5722C15.4953 53.7433 14.598 59.112 17.2695 63.0353C18.1056 64.2742 19.268 65.4512 20.3488 66.4217L20.308 66.4836C19.3291 66.0294 18.4523 65.3273 17.555 64.5839C12.885 60.64 5.84948 60.1444 3.05566 53.7226C3.8102 58.4306 7.5013 62.6016 11.4983 65.2447C15.2914 67.7639 20.1653 67.4954 24.3662 68.8995Z" fill="#418FDE"/>
<path d="M78.6331 10.9177C80.2237 13.0445 82.3854 14.3454 84.2615 16.1212C83.2623 13.9944 83.0583 11.5785 81.794 9.53422C79.6119 6.02392 75.982 4.66109 72.6172 3.33957C75.0643 5.52834 76.7162 8.35723 78.6331 10.9177Z" fill="#418FDE"/>
<path d="M85.8721 17.9182C86.2392 19.1778 86.7898 20.3754 87.0957 21.6969L87.0141 21.7589C86.4635 20.2722 85.5051 18.8474 84.2611 17.6704C81.9159 15.4197 78.388 14.0775 77.2256 10.7943C77.2868 15.3577 81.1206 18.8267 84.6282 21.4904C86.1984 22.6881 87.5444 24.2987 88.3601 25.9919C88.2173 24.7323 88.1561 23.6792 88.2785 22.4609C88.6456 18.4757 88.8699 14.0156 86.178 10.9802C84.8933 9.53477 83.4454 8.39908 81.7324 7.96545C85.036 10.2988 84.8525 14.4492 85.8721 17.9182Z" fill="#418FDE"/>
<path d="M89.3788 27.5786L89.7255 32.1627C89.6847 32.204 89.6847 32.3279 89.5623 32.2866C89.4196 31.7703 89.3584 31.2335 89.2768 30.6966C88.665 27.0005 85.443 24.4194 82.7307 21.797C82.0782 21.1775 81.6091 20.4548 81.3032 19.6701C81.5275 21.5079 82.0374 23.4076 82.8531 25.0801C84.9535 29.3751 88.9913 32.8441 89.7255 37.7379C90.0722 33.0506 92.9068 29.5816 92.9068 24.6052C92.9068 20.5787 91.3569 17.2749 89.0321 14.2808C88.9709 14.2395 88.9098 14.1775 88.8282 14.1982C91.3773 18.1421 89.0321 23.1185 89.3788 27.5786Z" fill="#418FDE"/>
<path d="M90.1139 40.4068C89.6652 42.1413 89.5021 43.9997 88.8087 45.6103C88.7475 45.6516 88.6864 45.569 88.6456 45.5277C90.379 40.6133 87.8502 36.0912 85.3827 32.2092C84.7301 31.1974 84.4243 29.9998 84.1184 28.8021C83.8533 31.0322 84.3223 33.5927 84.7301 35.8847C85.2604 38.8375 86.2392 41.6044 87.0345 44.454C87.5647 46.2298 87.422 48.2327 87.1569 50.1117L87.4016 49.9052C89.237 46.4775 92.8669 43.7932 93.9681 40.0351C94.845 37.041 95.4568 33.572 94.845 30.3095C94.5595 29.0499 94.3352 27.749 93.805 26.5927C94.8042 31.9408 91.317 35.8021 90.1139 40.4068Z" fill="#418FDE"/>
<path d="M65.1936 74.8864C61.1558 73.1932 57.0568 70.9424 52.4684 70.9424C45.698 70.9424 39.2539 75.5884 34.7471 79.9453C35.2977 80.5855 36.0114 81.1843 36.6844 81.7211C41.0077 77.199 46.1059 72.1607 50.939 72.1607C53.9367 72.1607 56.0984 74.4734 58.6067 76.1047C62.0939 78.3554 66.8862 79.6356 71.0055 77.9837C73.208 77.1371 75.3492 75.8775 76.9602 73.8539C73.6974 76.1047 68.8439 76.4144 65.1936 74.8864Z" fill="#418FDE"/>
<path d="M85.8101 54.0708C85.1983 55.0619 84.5865 56.0944 83.7096 56.879C83.8524 56.2802 84.3418 55.7434 84.6069 55.1445C85.5246 53.1416 85.9325 50.8496 85.7081 48.475C85.4226 45.5841 84.2398 42.8998 84.7089 39.8644C82.2617 45.1918 83.0571 51.882 81.65 57.643C81.3441 58.9233 80.5691 60.0383 80.1001 61.2359C82.5065 59.3775 85.647 57.7463 88.2776 55.6401C90.8267 53.6165 93.0292 51.2213 94.1916 48.1239C95.0277 45.8939 95.2316 43.2302 95.0277 40.711C94.5994 46.4101 88.6447 49.4248 85.8101 54.0708Z" fill="#418FDE"/>
<path d="M77.4904 64.5839C76.5931 65.3273 75.7162 66.0293 74.7374 66.4836L74.6966 66.4217C75.7774 65.4305 76.9398 64.2535 77.7759 63.0353C80.4474 59.112 79.5501 53.7226 81.6098 49.5722C79.7336 51.8436 77.9798 54.1769 76.899 56.7787C75.1656 60.9497 74.5742 65.7196 70.6792 68.8995C74.8801 67.4954 79.754 67.7638 83.5267 65.2653C87.5033 62.6223 91.1944 58.4512 91.9693 53.7433C89.1959 60.1444 82.1808 60.64 77.4904 64.5839Z" fill="#418FDE"/>
<path d="M67.0284 70.4876C66.1923 70.6735 65.4173 70.9419 64.5201 70.818C65.2338 70.3637 66.1719 70.3018 67.008 69.9921C71.6576 68.2163 72.3713 63.1779 74.9204 59.7296C71.6779 61.9184 68.9861 64.9124 65.9476 67.7207C63.8267 69.6823 61.196 70.5083 58.4634 71.0864C59.116 71.3342 59.9725 71.2723 60.6862 71.4581C65.6009 72.697 71.0254 74.638 76.2459 72.8829C79.6108 71.7472 83.1183 69.0835 84.8313 65.7177C80.3245 70.8593 73.0035 69.2074 67.0284 70.4876Z" fill="#418FDE"/>
<path d="M47.5329 0C28.9755 0 13.8848 15.2801 13.8848 34.0706C13.8848 52.861 28.9755 68.1411 47.5329 68.1411C66.0904 68.1411 81.1811 52.861 81.1811 34.0706C81.1811 15.2801 66.0904 0 47.5329 0ZM47.5329 40.5749C43.9846 40.5749 41.1092 37.6635 41.1092 34.0706C41.1092 30.4777 43.9846 27.5662 47.5329 27.5662C51.0813 27.5662 53.9567 30.4777 53.9567 34.0706C53.9567 37.6635 51.0813 40.5749 47.5329 40.5749ZM52.3661 28.5986C51.1833 27.5249 49.6538 26.8435 47.9612 26.7402V21.165C51.1629 21.2683 54.0791 22.5692 56.2611 24.6547L52.3661 28.5986ZM47.1251 26.7402C45.4325 26.8435 43.903 27.5249 42.7202 28.5986L38.8252 24.6547C41.0072 22.5692 43.9234 21.2683 47.1251 21.165V26.7402ZM42.1492 29.1974C41.0888 30.3951 40.4158 31.9437 40.3139 33.6576H34.8078C34.9098 30.4157 36.1945 27.4629 38.2542 25.2535L42.1492 29.1974ZM40.3139 34.4835C40.4158 36.1974 41.0888 37.7461 42.1492 38.9437L38.2542 42.8876C36.1945 40.6782 34.9098 37.7254 34.8078 34.4835H40.3139ZM42.7202 39.5425C43.903 40.6162 45.4325 41.2977 47.1251 41.4009V46.9761C43.9234 46.8728 41.0072 45.572 38.8252 43.4864L42.7202 39.5425ZM47.9408 41.3802C49.6334 41.277 51.1629 40.5956 52.3457 39.5219L56.2407 43.4658C54.0587 45.5513 51.1425 46.8522 47.9408 46.9554V41.3802ZM52.9371 38.9437C53.9975 37.7461 54.6704 36.1974 54.7724 34.4835H60.2785C60.1765 37.7254 58.8918 40.6782 56.8321 42.8876L52.9371 38.9437ZM54.7724 33.6576C54.6704 31.9437 53.9975 30.3951 52.9371 29.1974L56.8321 25.2535C58.8918 27.4629 60.1765 30.4157 60.2785 33.6576H54.7724ZM56.8321 24.0765C54.4869 21.8465 51.3872 20.4423 47.9408 20.3391V14.1444C53.0594 14.2477 57.709 16.3539 61.1554 19.699L56.8321 24.0765ZM47.1251 20.3391C43.6991 20.4423 40.579 21.8465 38.2338 24.0765L33.9105 19.699C37.3569 16.3539 42.0065 14.2477 47.1251 14.1444V20.3391ZM37.6628 24.6547C35.4604 27.0293 34.0737 30.1679 33.9717 33.6576H27.8539C27.9558 28.4747 30.0359 23.7668 33.3395 20.2771L37.6628 24.6547ZM33.9921 34.4835C34.0941 37.9525 35.4808 41.1118 37.6832 43.4864L33.3395 47.864C30.0359 44.3743 27.9558 39.6664 27.8539 34.4835H33.9921ZM38.2542 44.0646C40.5994 46.2947 43.6991 47.6988 47.1455 47.802V53.9967C42.0269 53.8934 37.3773 51.7873 33.9309 48.4422L38.2542 44.0646ZM47.9408 47.7814C51.3668 47.6781 54.4869 46.274 56.8321 44.0439L61.1554 48.4215C57.709 51.7666 53.0594 53.8728 47.9408 53.976V47.7814ZM57.4031 43.4658C59.6055 41.0912 60.9922 37.9525 61.0942 34.4629H67.212C67.1101 39.6457 65.03 44.3537 61.7264 47.8433L57.4031 43.4658ZM61.0942 33.6576C60.9922 30.1886 59.6055 27.0293 57.4031 24.6547L61.7264 20.2771C65.03 23.7668 67.1101 28.4747 67.212 33.6576H61.0942ZM61.7264 19.1208C58.1372 15.6312 53.2837 13.4424 47.9408 13.3391V7.84655C54.7724 7.9498 60.9718 10.758 65.5398 15.2388L61.7264 19.1208ZM47.1251 13.3185C41.7822 13.4217 36.9287 15.6105 33.3395 19.1002L29.5261 15.2388C34.0941 10.758 40.2935 7.9498 47.1251 7.84655V13.3185ZM32.7685 19.699C29.3221 23.3332 27.1605 28.2476 27.0585 33.6576H21.6544C21.7564 26.7402 24.5298 20.463 28.9551 15.8377L32.7685 19.699ZM27.0585 34.4835C27.1605 39.8935 29.3221 44.808 32.7685 48.4422L28.9551 52.3035C24.5298 47.6781 21.7564 41.4009 21.6544 34.4835H27.0585ZM33.3395 49.0203C36.9287 52.51 41.7822 54.6987 47.1251 54.802V60.2739C40.2935 60.1707 34.0941 57.3624 29.5261 52.8816L33.3395 49.0203ZM47.9408 54.8226C53.2837 54.7194 58.1372 52.5306 61.7264 49.041L65.5398 52.9023C60.9718 57.3831 54.7724 60.1913 47.9408 60.2946V54.8226ZM62.3178 48.4422C65.7641 44.808 67.9258 39.8935 68.0278 34.4835H73.4319C73.3299 41.4009 70.5565 47.6781 66.1312 52.3035L62.3178 48.4422ZM68.0278 33.6576C67.9258 28.2476 65.7641 23.3332 62.3178 19.699L66.1312 15.8377C70.5565 20.463 73.3299 26.7402 73.4319 33.6576H68.0278ZM66.1312 14.6607C61.4001 10.0147 55.0171 7.12385 47.9408 7.0206V0.825953C56.6893 0.929197 64.6222 4.52209 70.4545 10.2831L66.1312 14.6607ZM47.1251 7.0206C40.0692 7.12385 33.6658 10.0147 28.9347 14.6607L24.6318 10.2831C30.4641 4.52209 38.397 0.929197 47.1455 0.825953V7.0206H47.1251ZM28.3637 15.2388C23.7753 20.0294 20.9203 26.4924 20.8183 33.6576H14.7005C14.8024 24.7992 18.3508 16.7668 24.0404 10.8613L28.3637 15.2388ZM20.8387 34.4835C20.9407 41.628 23.7957 48.1118 28.3841 52.9023L24.0404 57.2592C18.3508 51.3743 14.8228 43.3419 14.7209 34.4835H20.8387ZM28.9551 53.4805C33.6862 58.1264 40.0692 61.0173 47.1455 61.1205V67.3152C38.397 67.2119 30.4641 63.619 24.6318 57.858L28.9551 53.4805ZM47.9408 61.1205C54.9967 61.0173 61.4001 58.1264 66.1312 53.4805L70.4545 57.858C64.6222 63.619 56.6893 67.2119 47.9408 67.3152V61.1205ZM66.7022 52.8816C71.2906 48.0911 74.1456 41.628 74.2476 34.4629H80.3654C80.2635 43.3212 76.7151 51.3536 71.0255 57.2592L66.7022 52.8816ZM74.2476 33.6576C74.1456 26.5131 71.2906 20.0294 66.7022 15.2388L71.0255 10.8613C76.7151 16.7668 80.2635 24.7992 80.3654 33.6576H74.2476Z" fill="#418FDE"/>
<path d="M49.472 26.1855L49.2681 26.2062V26.4539L49.472 26.4333V26.1855Z" fill="#418FDE"/>
<path d="M49.227 25.8532H48.9619V26.0597H49.227V25.8532Z" fill="#418FDE"/>
<path d="M48.4722 25.7926L48.7169 25.8339L48.7373 25.6274L48.4926 25.5861L48.4722 25.7926Z" fill="#418FDE"/>
<path d="M48.2673 25.709L48.043 25.6883L48.0634 25.4818L48.3081 25.5025L48.2673 25.709Z" fill="#418FDE"/>
<path d="M46.5761 25.4362H46.311V25.6427H46.5761V25.4362Z" fill="#418FDE"/>
<path d="M45.7183 25.8512L45.963 25.8925L45.9834 25.686L45.759 25.6447L45.7183 25.8512Z" fill="#418FDE"/>
<path d="M45.7586 26.1814L45.4731 26.0988L45.5343 25.8923L45.7994 25.9749L45.7586 26.1814Z" fill="#418FDE"/>
<path d="M45.2693 26.4333L45.2285 26.2268L45.4324 26.1855L45.4732 26.392L45.2693 26.4333Z" fill="#418FDE"/>
<path d="M18.6577 47.8025V48.2568H18.8616L18.8208 47.7406L18.5557 47.6373V47.4515H18.3926V47.8025H18.6577Z" fill="#418FDE"/>
<path d="M20.0835 49.0608L20.5933 49.3085L20.7565 49.7835L21.0012 49.9693L21.2255 50.4855L21.1031 50.7333L20.7157 50.3823L20.4506 49.99L20.3078 49.6802L20.0835 49.0608Z" fill="#418FDE"/>
<path d="M28.6496 59.7755L28.8331 60.2298L28.5884 60.3744L28.4457 60.1679L28.1194 60.0646L28.0786 59.7549L27.8135 59.3419L28.2213 59.4039L28.6496 59.7755Z" fill="#418FDE"/>
<path d="M46.4935 28.4305H46.1264L46.0652 27.6665L46.2691 27.522V27.1296H45.0864L45.0456 26.7373L45.2087 26.6341L44.9436 26.5308L44.7397 26.7993L44.6785 27.109L44.3318 27.1709V27.3361H44.0871V27.7904L43.1286 28.5957L41.2321 28.5338C41.0894 28.8435 40.7631 28.4925 40.7631 28.4925C40.7019 28.286 40.2125 28.4925 40.2125 28.4925C40.2125 28.8848 39.5599 28.3273 39.5599 28.3273L38.3771 27.46C37.7041 26.8406 36.6845 27.6252 36.6437 27.811C36.6845 28.3066 35.8688 27.9143 35.8688 27.9143C35.8688 27.9143 35.1958 27.7078 35.0939 27.9762C34.9919 28.2447 34.5433 28.1827 34.5433 28.1827L34.4821 28.3273L34.1354 28.3892L34.0742 28.5957L33.6664 28.6577L34.686 28.6164C34.9511 28.5751 34.584 29.2152 34.4209 29.1739L33.9519 29.2152L33.7887 29.3804H33.3401L33.1361 29.6694L32.4836 29.6281C32.4836 29.6281 32.1165 29.9379 32.1369 30.0411C32.1777 30.1444 32.0757 30.4541 31.9738 30.4541C31.8718 30.4541 31.6679 30.7638 31.729 30.8671C31.7902 30.9703 31.5251 31.3214 31.5251 31.3214L31.4639 31.6724L31.26 31.7343V32.6842L30.8521 32.9733V33.3862L30.2404 34.047L30.3015 34.6045L29.7917 35.162L29.8529 35.7196L29.547 35.8228L29.4858 36.0706L29.3431 36.7933L29.6898 36.8346C29.8529 36.7726 29.8325 37.2889 29.6898 37.3508C29.547 37.4128 29.1799 37.5573 29.3839 37.7018C29.5878 37.8464 28.8333 37.8051 28.8333 37.5986C28.8333 37.3921 28.4254 37.2063 28.3234 37.2889C28.2215 37.3508 28.0583 36.9791 28.0583 36.9791C27.6913 36.5868 26.5289 37.0204 26.5289 37.0204L26.3657 37.5779C25.9987 37.6399 25.7539 38.28 25.7539 38.28C25.448 38.3833 25.2033 38.7756 25.3053 38.8788C25.4073 38.9821 25.1422 39.0234 25.1422 39.0234V39.7874L24.979 40.0352L25.0198 40.8611C25.2237 40.8611 25.1829 41.2534 25.1829 41.2534C24.8363 41.2947 24.9178 41.749 24.9178 41.749L24.2041 41.9968L24.0613 42.2033L23.1844 42.162L22.9397 42.4098L22.695 42.162H21.0024L20.9412 41.9968L20.5946 41.9349L20.5538 41.5425L20.0439 41.5838L19.942 41.7903L19.3914 41.8316C19.4322 42.1826 18.8408 42.6989 18.7796 42.5543C18.7184 42.4098 18.3309 42.0381 18.5145 41.9555C18.6776 41.8936 19.1263 41.811 19.1263 41.811V41.5632L17.8619 41.5219L17.7192 41.7284L17.2093 41.7697V42.3272L16.9646 42.3891C16.8015 42.4924 17.0054 42.8847 17.0054 42.8847C17.2501 43.1325 16.9646 43.5042 16.9646 43.5042C16.7607 43.7107 17.1278 44.103 17.1278 44.103C17.3929 44.1649 16.9646 44.3714 16.9646 44.3714C17.0258 44.7224 17.2297 44.8257 17.2297 44.8257C17.0258 45.1767 17.3725 45.3419 17.3725 45.3419L17.4133 45.9407L17.658 46.0853V46.4776L17.8007 46.7254H18.3513L18.3106 45.8581C17.8415 45.3006 18.7184 45.1561 18.7592 45.3626C18.8 45.569 19.1671 45.6723 19.1671 45.6723C19.2282 46.1885 19.8196 46.4982 19.9828 45.982C20.1459 45.4658 20.2887 45.7755 20.3906 46.0233C20.4926 46.2711 21.1452 46.8699 21.1452 46.8699H21.655L21.7162 47.3655C22.2872 47.3242 22.4707 47.4068 22.695 48.1915C22.9397 48.9968 23.5719 49.2032 23.5719 49.2032L24.0409 49.1619C24.0409 48.749 24.51 49.2239 24.51 49.451C24.51 49.6575 25.4277 50.4628 25.4277 50.4628L26.3453 50.6693L27.2018 51.3714L27.8544 51.3094H28.1195C28.2827 50.7106 29.0984 51.3507 29.1799 51.5572C29.2411 51.7637 29.7917 52.1147 29.8529 51.9495C29.9141 51.7843 30.3015 51.8876 30.3627 52.4038C30.4239 52.92 30.6686 52.8168 30.6686 52.8168L32.6059 52.7755L33.2789 52.1767L35.0123 52.1354C35.8892 52.0941 35.359 50.8758 35.1754 50.8758C34.8695 50.628 35.2774 49.6162 35.2774 49.6162L32.8099 47.2829C32.2389 47.2829 32.7487 46.4363 32.7487 46.4363C33.1973 46.1472 32.6467 45.7136 32.6467 45.7136C32.7079 45.3006 32.402 44.805 32.402 44.805C31.7902 44.3921 31.9534 43.5868 31.9534 43.5868V43.0292C31.4435 42.5337 32.1573 42.4717 32.1573 42.4717C32.402 42.0587 31.9941 41.749 31.9941 41.749L31.9534 41.2947L31.4028 41.2328L31.3416 39.6015L30.118 37.8257C29.8733 37.7638 30.0568 37.3302 30.0568 37.3302C30.3627 37.165 29.9956 36.7313 29.9956 36.7313L29.9549 35.9673L30.6686 35.9054L30.8318 35.637H31.1784L31.1376 34.7284C31.3008 34.2741 31.7086 34.5219 31.7086 34.5219L32.1777 34.5632L32.4428 34.047L32.504 33.634L32.1369 33.5927C31.729 33.3449 31.933 32.4364 31.933 32.4364C32.5855 31.4659 33.3197 32.0234 33.3197 32.0234L33.7887 31.9821C34.5025 32.4777 33.8499 33.3656 33.8499 33.3656C33.7071 33.5721 33.7887 34.2328 33.7887 34.2328L33.9519 35.3479L33.5032 35.7402C33.1361 35.9467 33.1361 36.4423 33.544 36.5455C33.8091 36.5868 33.7071 37.2476 33.2993 36.7933C32.6875 36.7933 33.646 37.3508 33.3605 37.2063C33.9723 37.516 33.8295 36.9378 33.8295 36.9378L34.6452 36.2771C34.9511 36.0293 35.5017 36.7933 35.5017 36.8965C35.5017 36.9998 36.8476 36.9378 36.8476 36.9378C37.2147 37.1856 37.3575 37.8051 37.3575 37.8051C37.7245 37.3095 38.5199 37.7638 37.9285 38.0529C38.4791 38.4039 38.4791 38.7136 38.4791 38.7136C38.9277 38.5691 38.9277 38.9201 38.9277 39.0234C38.9277 39.1266 39.0705 38.5071 39.0705 38.5071C38.5606 38.1148 39.7434 37.9909 39.4171 38.6723L39.2132 38.9821L39.5599 39.2505L39.6007 40.0558C40.3552 39.9939 40.1513 39.044 40.1513 39.044L40.498 38.9821C40.498 38.6723 40.7427 38.8375 40.7427 38.8375C40.498 37.6605 41.2933 37.4541 41.2933 37.4541C41.7419 37.3508 41.7623 36.401 41.7623 36.401C41.4564 36.2564 41.6196 35.7815 41.9662 36.1945C42.3129 36.6075 41.7623 35.3479 41.7623 35.3479L41.4972 35.1001L41.1301 35.0588L41.0894 34.6665H40.4776L40.3756 35.162L40.1513 35.2653L40.0901 35.1207L39.9881 35.5131H39.3764L39.3356 35.1001L39.7026 34.9968L39.8454 34.7904L39.9474 34.2328H40.396L40.967 34.0676C41.0078 33.4688 41.3137 33.6134 41.3137 33.6134L41.5176 33.7786L41.8235 34.0263L41.8643 34.2328L41.6604 34.3361L41.6196 34.6252L41.7215 35.0175H41.9866C42.0886 34.46 42.8024 34.46 43.0063 34.811L43.2102 34.3154C42.7412 34.0676 43.2102 33.696 43.3326 33.8612C43.4753 34.0263 43.7812 33.4069 43.7812 33.4069C43.7812 33.4069 44.0259 33.7166 43.7812 33.3036C43.5365 32.8907 43.9444 32.6842 43.9444 32.6842C43.8832 32.2712 44.393 32.3331 44.393 32.3331L44.4338 31.7756L43.9647 31.7343C43.8628 32.2299 43.4549 31.7963 43.6589 31.693C43.8628 31.5898 44.0667 31.3833 44.0667 31.3833V31.0323L44.2706 30.9703L44.3114 30.6193H44.8212L45.2699 30.4128L45.3719 30.2476L45.8409 30.2063L46.5138 29.5869L46.4527 29.3184C46.0448 29.3184 46.4527 29.0087 46.4527 29.0087L46.4935 28.4305Z" fill="#418FDE"/>
<path d="M32.8305 35.3298L32.2187 35.2679L32.2595 35.5156H32.4227C32.6878 36.0112 32.4635 37.1882 32.4635 37.1882C32.4635 37.1882 32.0556 37.2295 31.9944 37.023C31.9332 36.8165 31.7497 37.4773 31.8925 37.5805C32.0352 37.6838 32.5042 37.5805 32.545 37.9729C32.5858 38.3652 32.8509 37.7251 32.8509 37.7251L32.8305 35.3298Z" fill="#418FDE"/>
<path d="M32.2188 38.1553V38.9813L32.749 39.7247L32.9529 39.2291L33.0345 38.9194L32.7897 38.8161L32.8305 38.2999L33.0345 38.2586L33.0549 38.0108L32.545 38.3618L32.2188 38.1553Z" fill="#418FDE"/>
<path d="M33.0962 40.4923V40.1413L32.8514 40.1826L32.8311 40.451L33.0962 40.4923Z" fill="#418FDE"/>
<path d="M32.7904 42.1612V41.9135L32.5049 41.9547V42.2025L32.7904 42.1612Z" fill="#418FDE"/>
<path d="M33.197 41.0884C33.2785 41.0884 33.3397 41.0265 33.3397 40.9439C33.3397 40.8613 33.2785 40.7993 33.197 40.7993C33.1154 40.7993 33.0542 40.8613 33.0542 40.9439C33.0542 41.0265 33.1154 41.0884 33.197 41.0884Z" fill="#418FDE"/>
<path d="M33.422 41.8116C33.5009 41.8116 33.5648 41.7469 33.5648 41.6671C33.5648 41.5873 33.5009 41.5226 33.422 41.5226C33.3432 41.5226 33.2793 41.5873 33.2793 41.6671C33.2793 41.7469 33.3432 41.8116 33.422 41.8116Z" fill="#418FDE"/>
<path d="M33.4416 37.8308C33.5204 37.8308 33.5843 37.7661 33.5843 37.6862C33.5843 37.6064 33.5204 37.5417 33.4416 37.5417C33.3627 37.5417 33.2988 37.6064 33.2988 37.6862C33.2988 37.7661 33.3627 37.8308 33.4416 37.8308Z" fill="#418FDE"/>
<path d="M44.3124 32.9531H44.5163L44.5571 33.1802L44.4143 33.3041L44.3532 33.49L44.0881 33.5519L43.4763 34.1507L43.4355 34.4192L43.2723 34.667L43.0684 35.1832L42.3547 35.2245L42.2119 35.8439L42.3139 36.3808L42.9257 36.6286L42.9868 36.2776L43.1908 36.1743L43.2316 35.8233L43.3743 35.5755L43.5782 35.3277L43.6394 35.0593L43.9861 34.8528L44.3939 34.7702L44.5571 34.5637L44.6183 34.1507L44.6591 33.841L44.8018 33.6139L45.2097 33.4487V32.7879H45.0057L44.9649 32.5401L44.5979 32.4988L44.5163 32.6847H44.3532L44.3124 32.9531Z" fill="#418FDE"/>
<path d="M45.903 34.9148V34.4193L45.8418 33.965L45.332 33.7172L44.965 34.0682L44.9038 34.5638V34.8735L44.5571 34.9355L44.4959 35.8853L44.2308 35.9886L44.2716 36.3396L43.9045 36.4428L43.5375 36.5461L43.4763 37.0004L43.2112 37.1655L43.0684 37.5785L42.9053 38.5903C42.9053 38.5903 43.2112 39.1891 43.3743 38.9C43.5375 38.6316 43.823 38.5903 43.823 38.5903L43.9249 38.3425L44.8426 38.3838C44.9038 37.9915 45.3524 38.136 45.3524 38.3219C45.3524 38.4871 45.6991 38.3632 45.6991 38.3632L45.9438 37.9709H46.3109L46.3517 37.5579L46.5148 37.4546V36.8352C47.0654 36.67 46.9838 36.1331 46.9838 36.1331L47.1266 35.9679L47.0654 35.7201C46.8003 35.6169 46.9227 35.3691 47.1062 35.431C47.2693 35.493 46.8615 35.1213 46.8615 35.1213C46.6576 35.2865 46.4944 34.9148 46.4944 34.9148H45.903Z" fill="#418FDE"/>
<path d="M46.4519 39.1316C46.4112 39.5446 45.9013 39.6892 45.9013 39.6892L45.5343 39.5859L45.3303 39.4207L45.2896 38.9251L45.5954 38.8839L45.6566 39.0903L46.4519 39.1316Z" fill="#418FDE"/>
<path d="M48.288 36.9018C48.3695 37.2115 48.3491 36.4062 48.4919 36.4475C48.6346 36.4888 48.5327 35.952 48.5327 35.952L47.9209 36.4062C48.2064 36.4475 48.2472 36.7573 48.288 36.9018Z" fill="#418FDE"/>
<path d="M50.0818 35.0825C50.2245 35.3922 50.1837 35.8465 50.6935 36.1975C50.8567 36.3214 50.5916 36.5485 50.4284 36.4453C50.2653 36.3421 49.7759 35.578 49.7759 35.578V35.1238C49.8778 34.8553 50.0206 34.9586 50.0818 35.0825Z" fill="#418FDE"/>
<path d="M50.082 45.6751L50.184 45.7784L50.286 45.9642L50.5103 45.5719L50.3267 45.5099L50.082 45.6751Z" fill="#418FDE"/>
<path d="M54.1414 44.623L54.4065 44.4372L54.3045 44.272L54.019 44.4372L54.1414 44.623Z" fill="#418FDE"/>
<path d="M63.9499 51.8902L64.2558 52.0347L64.2966 52.6335C64.7044 53.0465 66.03 52.6955 66.03 52.5922C66.03 52.489 65.9688 51.312 65.9688 51.312L65.8056 51.1468L65.7648 50.2795C65.9076 49.8253 65.1123 49.1645 65.0511 49.309C64.9899 49.4536 64.5413 49.3503 64.5413 49.4742C64.5413 49.6188 64.2762 50.3002 64.3985 50.548C64.5413 50.7958 64.2966 50.7958 64.2558 51.0435C64.215 51.25 63.8683 51.663 63.9499 51.8902Z" fill="#418FDE"/>
<path d="M63.1946 50.4881C63.1334 50.7565 62.8887 50.901 62.7459 50.7978C62.6032 50.6945 62.9091 50.963 62.9906 51.1075C63.0518 51.2521 63.2557 51.2521 63.3373 51.1075C63.3985 50.963 63.3781 50.6532 63.4393 50.5087C63.5005 50.3848 63.2353 50.3435 63.1946 50.4881Z" fill="#418FDE"/>
<path d="M61.8687 44.1026H61.624V44.7634H61.8687V44.1026Z" fill="#418FDE"/>
<path d="M65.1334 37.3961C64.9906 37.1896 65.8064 36.8386 65.9491 37.2516C66.0919 37.6645 65.9491 37.6026 65.8064 37.5613C65.684 37.52 65.3373 37.6645 65.1334 37.3961Z" fill="#418FDE"/>
<path d="M65.8665 32.7269L65.8257 32.9334L66.1928 32.9953L66.2335 32.7888L65.8665 32.7269Z" fill="#418FDE"/>
<path d="M64.9074 33.3298L64.9278 33.3917L65.1318 33.3091L65.0502 33.1439L65.0094 33.0201L64.9074 33.082L64.6627 33.2265L64.4384 33.082L64.3364 33.2678L64.6015 33.433L64.6627 33.4743L64.7035 33.433L64.9074 33.3298Z" fill="#418FDE"/>
<path d="M66.1935 24.8405H65.6837C65.6837 24.8405 65.8468 24.9025 65.3778 24.4482C64.9087 23.9939 64.6028 24.5515 64.6028 24.5515L64.0522 24.6134V25.1709L63.7871 25.2742L63.8279 25.6252L64.195 25.5839C64.195 25.5839 64.195 25.9969 64.2969 25.8317C64.3989 25.6665 65.2554 25.873 65.1738 26.286C65.1534 26.4511 66.0303 26.9054 65.9284 27.4629C66.377 27.5249 66.275 27.9792 66.275 27.9792L66.846 28.0411L67.0092 27.6901L67.1723 27.7314V27.5249L66.8053 27.4216L66.7441 26.3066L66.4994 26.1414L66.5605 25.8523L66.2954 25.7491L66.4382 25.2948L66.1935 24.8405Z" fill="#418FDE"/>
<path d="M67.6815 28.3899L67.4164 28.3486L66.8047 28.4518L66.458 29.1126C66.458 29.1126 66.6211 29.2158 66.7639 29.4636C66.9066 29.7114 66.9678 31.1362 66.5599 31.3839C66.1521 31.6317 66.6007 31.4872 66.6007 31.4872L66.5395 32.2512C66.6415 32.6022 66.8047 32.4164 66.9066 32.2512C67.0086 32.086 67.1105 32.0447 67.2533 31.8589C67.396 31.6937 67.6 31.3633 67.6204 31.1362C67.6612 30.8884 67.8243 30.5167 67.7223 30.4135C67.6204 30.3102 67.8243 29.8146 67.8243 29.8146C67.8243 29.8146 67.967 29.5256 67.8243 29.2571C67.6815 28.968 67.8651 28.6583 67.967 28.5344L67.6815 28.3899Z" fill="#418FDE"/>
<path d="M68.0894 29.8158L68.1097 29.5474L68.3137 29.568L68.2933 29.8571L68.0894 29.8158Z" fill="#418FDE"/>
<path d="M68.0698 30.7888L67.8862 30.6856L67.9882 30.4791L68.1717 30.5823L68.0698 30.7888Z" fill="#418FDE"/>
<path d="M67.7849 28.0202L67.6422 27.7105C67.6422 27.7105 67.6422 27.4421 67.7034 27.2975C67.7645 27.153 67.5606 27.0291 67.4586 26.9878C67.3567 26.9465 67.3975 26.6781 67.3567 26.5335C67.3159 26.389 67.0916 26.2857 67.0916 26.2857C67.0916 26.2857 67.0304 25.7695 67.0304 25.6663C67.0304 25.563 66.7245 25.4185 66.8265 25.3152C66.9284 25.212 66.9896 25.0675 67.0916 25.0055C67.1935 24.9436 66.9896 24.448 67.1528 24.5512C67.3159 24.6545 67.3159 24.8403 67.3975 24.9642C67.4587 25.1088 67.3567 25.5837 67.5402 25.6869C67.7034 25.7902 67.4994 26.1412 67.7849 26.1412C68.05 26.1412 67.8869 26.802 67.8869 26.802C67.8869 26.802 67.8257 27.2975 67.9889 27.3182C68.152 27.3595 68.05 28.1854 68.05 28.1854L67.7849 28.0202Z" fill="#418FDE"/>
<path d="M65.5811 22.3817C65.683 22.5262 65.8869 22.6295 65.8869 22.774C65.8869 22.9185 65.8258 23.0218 66.0297 23.0424C66.2336 23.0837 66.3764 23.0011 66.4375 23.187C66.4987 23.3522 66.4987 23.6413 66.4783 23.7858C66.4376 23.9303 66.5191 24.1368 66.6823 24.1368C66.8454 24.1368 66.8862 24.1781 66.8862 24.2814C66.8862 24.3846 67.0901 23.889 67.0901 23.889C66.927 23.7445 66.7842 23.4348 66.7842 23.4348C66.7842 23.4348 66.6211 22.9392 66.6211 22.8772C66.6211 22.8153 66.3764 22.7327 66.2744 22.7121C66.1724 22.6708 66.0093 22.361 66.0093 22.361L65.5811 22.3817Z" fill="#418FDE"/>
<path d="M65.9068 22.0548C65.8049 21.9103 65.7029 21.8071 65.5602 21.7451C65.4174 21.6832 65.3155 21.6006 65.1931 21.6006C65.0503 21.6006 64.928 21.456 64.9892 21.2908C65.0503 21.1257 64.8872 21.0431 64.8872 20.8985C64.8872 20.754 64.9892 20.754 65.1523 20.8572C65.3155 20.9605 65.2951 21.0018 65.4174 21.167C65.5602 21.3321 65.6214 21.518 65.7641 21.4767C65.9069 21.4354 66.0088 21.7864 66.1312 21.6832C66.2739 21.5799 66.2331 21.931 66.2331 21.931L65.9068 22.0548Z" fill="#418FDE"/>
<path d="M61.9523 25.9968C62.1358 26.1826 60.9326 26.1413 60.9326 25.9968C60.9326 25.8523 61.0346 25.3773 61.3405 25.4806C61.6464 25.5838 61.6872 24.8611 61.6872 24.8611C61.6872 24.8611 61.422 24.9024 61.6464 24.7579C61.8911 24.6133 61.6464 24.4068 61.5444 24.3036C61.4424 24.2004 61.3405 24.0145 61.3405 24.0145H61.8095C62.0134 23.87 62.0746 23.2092 62.0746 23.2092C62.4825 23.3537 62.6864 23.0647 62.6864 23.0647C62.6864 23.0647 62.7476 23.2712 62.8903 23.457C63.0331 23.6222 62.5437 23.7048 62.7272 23.808C62.8903 23.9113 62.9719 24.221 62.8903 24.3242C62.8292 24.4275 62.4417 24.3655 62.4417 24.221C62.4417 24.0765 62.2989 24.3862 62.4417 24.572C62.5844 24.7372 62.2785 24.985 62.197 24.985C62.1358 24.985 61.6872 25.047 62.0542 25.2741C62.4213 25.4806 62.8292 25.3773 62.8292 25.3773C62.8292 25.3773 63.135 25.336 63.237 25.5219C63.339 25.6871 63.1962 25.7284 63.0331 25.7284C62.8699 25.7284 62.0542 25.6664 62.0542 25.6664C62.0542 25.6664 61.8503 25.8936 61.9523 25.9968Z" fill="#418FDE"/>
<path d="M59.7702 26.304C59.9333 26.2627 60.3412 26.2421 60.4228 26.3453C60.4839 26.4486 60.178 26.5931 60.178 26.5931L59.7702 26.6551C59.6478 26.4899 59.6071 26.3453 59.7702 26.304Z" fill="#418FDE"/>
<path d="M64.1548 23.3975C64.4199 23.2529 65.0113 23.2529 64.9705 23.0464C64.9297 22.8399 65.3172 22.778 65.3172 22.778L65.4191 23.191L65.725 23.3975L65.7658 23.7898C65.7658 23.7898 65.8678 23.7278 65.5007 23.8311C65.1336 23.9343 65.358 24.0995 65.358 24.0995L64.5423 24.1408L64.4403 23.7898L64.1548 23.3975Z" fill="#418FDE"/>
<path d="M62.8275 21.4965C63.0315 21.4965 62.7664 22.3018 63.2966 22.2192C63.8472 22.1573 63.3374 22.467 63.7452 22.4876C64.1531 22.5289 64.0511 22.1779 64.1939 21.9301C64.3366 21.6823 64.255 21.5378 64.0307 21.4758C63.786 21.4139 63.786 21.4139 63.7248 21.1248C63.6637 20.8564 63.3782 20.7738 63.3782 20.7738L63.2762 20.3608L62.8275 20.6292L62.3789 21.2281C62.3789 21.7236 62.6236 21.4965 62.8275 21.4965Z" fill="#418FDE"/>
<path d="M63.7261 24.4504L63.828 24.2439L64.0116 24.3265L63.9096 24.5537L63.7261 24.4504Z" fill="#418FDE"/>
<path d="M63.5824 24.1201H63.3784V24.3679H63.5824V24.1201Z" fill="#418FDE"/>
<path d="M63.5428 19.4682L63.5836 19.7779L63.3796 19.7986L63.3389 19.4888L63.5428 19.4682Z" fill="#418FDE"/>
<path d="M63.1751 22.7128H62.9712V22.878H63.1751V22.7128Z" fill="#418FDE"/>
<path d="M62.4188 22.7119L62.3984 22.5055L62.7451 22.4848L62.7655 22.6913L62.4188 22.7119Z" fill="#418FDE"/>
<path d="M59.6269 26.0793L59.4434 25.9968L59.5453 25.749L59.7289 25.8316L59.6269 26.0793Z" fill="#418FDE"/>
<path d="M58.5668 25.4364L58.5464 25.23L58.8931 25.1887L58.9135 25.3951L58.5668 25.4364Z" fill="#418FDE"/>
<path d="M52.6935 25.3776L51.939 25.3982L51.9594 25.6047L52.6935 25.5841V25.3776Z" fill="#418FDE"/>
<path d="M51.4497 25.6635L51.3682 25.3537L51.5721 25.3124L51.6333 25.6222L51.4497 25.6635Z" fill="#418FDE"/>
<path d="M51.3068 25.8914L51.2456 25.6849L51.3476 25.6643L51.4087 25.8501L51.3068 25.8914Z" fill="#418FDE"/>
<path d="M52.9993 25.2959L52.9585 25.5437L53.3256 25.585C53.3256 25.585 53.4887 25.7296 53.4887 25.8328C53.4887 25.9361 53.7334 26.0393 53.8558 26.0393C53.9985 26.0393 54.3656 25.7502 54.3656 25.7502C54.3656 25.7502 54.5287 25.2546 54.4064 25.2959C54.2636 25.3372 53.9985 25.5437 53.9578 25.3372C53.917 25.1308 53.5091 25.234 53.5091 25.234L52.9993 25.2959Z" fill="#418FDE"/>
<path d="M54.6912 24.9192C54.6912 25.0224 54.63 25.1669 54.834 25.2082C55.0379 25.2495 55.405 25.0637 55.4458 25.2702C55.4865 25.4767 55.4865 25.6212 55.7517 25.7245C56.0168 25.8277 56.2003 25.869 56.4042 25.869C56.6082 25.869 57.0568 25.8071 57.0568 25.8071C57.0568 25.8071 57.5462 25.8896 57.6278 25.9722C57.9949 26.3646 58.2396 26.4678 58.3415 26.282C58.4435 26.1168 58.3008 25.7245 58.2804 25.5799C58.2396 25.4354 57.7705 24.7746 57.6074 24.9192C57.4443 25.0637 57.4035 24.9192 57.0976 25.0224C56.7917 25.1256 56.1391 25.0637 56.1187 24.9192C56.0779 24.7746 55.6089 24.7127 55.6089 24.5681C55.6089 24.4236 55.2622 24.2584 55.303 24.4649C55.3438 24.6714 55.0583 24.7746 54.9971 24.7127C54.8951 24.6301 54.6912 24.9192 54.6912 24.9192Z" fill="#418FDE"/>
<path d="M62.4818 20.4645L62.7265 19.7005C62.3799 19.6386 62.4614 19.2462 62.4614 19.2462C62.4207 18.9365 61.9516 18.5855 61.7885 18.6887C61.6253 18.792 61.6865 17.966 61.6865 17.966C61.6865 17.966 61.9924 17.7595 62.1352 17.8628C62.2779 17.966 60.9728 16.1283 60.7077 16.2935C60.4425 16.4586 59.8308 16.1283 59.8512 15.7979C59.8919 15.4881 58.6276 14.4351 58.6276 14.4351C58.6276 14.4351 58.2197 14.1666 58.1586 14.3731C58.0974 14.5796 57.9546 14.7241 58.1586 14.8274C58.3625 14.9306 58.3217 14.6622 58.5664 14.8893C58.8111 15.1371 59.2394 15.4469 59.0762 15.6533C58.9131 15.8598 58.7092 15.9424 58.7092 15.9424L58.9539 16.2315H59.3209L59.3821 16.8303C59.3821 16.8303 59.79 17.0368 59.8919 17.2846C59.9939 17.5324 59.9939 17.6769 59.8919 17.8008C59.79 17.9454 59.5861 18.1931 59.6268 18.4203C59.6676 18.6681 59.9327 18.7713 59.9327 18.7713L60.1978 18.8126L60.4018 18.9159V19.3701C60.6669 19.3082 61.1155 19.6799 61.0747 19.9276C61.0339 20.1754 61.1359 20.0309 61.4826 20.2787C61.8293 20.5265 61.7273 20.5678 61.9516 20.733C62.1759 20.8775 62.3799 20.7743 62.4818 20.4645Z" fill="#418FDE"/>
<path d="M56.8941 15.7116C56.8533 15.5671 56.7921 15.0921 56.996 15.1128C57.2 15.1541 57.0572 15.1128 57.3019 15.216C57.5467 15.3193 57.567 15.0508 57.567 15.0508H57.9341L58.4032 15.4432L58.342 15.7529L57.9953 15.7942C57.8322 15.5258 57.4855 15.629 57.5467 15.8561C57.6078 16.1039 57.3835 16.5582 57.2408 16.5789C57.098 16.6201 56.6698 16.6201 56.6902 16.4137C56.7513 16.2072 56.8941 15.7116 56.8941 15.7116Z" fill="#418FDE"/>
<path d="M56.6294 14.7858V14.5174C56.6294 14.5174 56.5886 14.2489 56.4255 14.2489C56.2623 14.2489 55.9564 14.0425 56.0176 13.8979C56.0788 13.7534 55.4466 13.6088 55.4466 13.6088C55.4466 13.6088 54.8756 13.0513 55.0795 13.1133C55.2835 13.1752 55.1815 12.8655 55.1815 12.8655C55.1815 12.8655 54.7736 12.9274 54.6717 12.9068C54.5697 12.8655 54.6105 12.5557 54.6105 12.5557C54.6105 12.5557 54.2026 12.4525 54.2026 12.5557C54.2026 12.659 54.3454 12.659 54.4066 12.8655C54.4677 13.072 54.4474 13.423 54.7532 13.4849C55.0591 13.5469 55.1203 13.6295 55.1611 13.774C55.2019 13.9186 55.569 13.9392 55.569 13.9392L55.8341 14.0838L56.6294 14.7858Z" fill="#418FDE"/>
<path d="M52.9579 11.2321L52.8559 10.943L52.5908 10.881V11.1908L52.9579 11.2321Z" fill="#418FDE"/>
<path d="M52.8563 9.76751C52.5096 9.49907 53.3254 9.97399 53.3254 9.97399C53.5905 9.97399 53.774 10.1805 53.774 10.2837C53.774 10.387 54.1411 10.3457 54.1411 10.3457L54.1819 10.0979L53.9168 9.74686L53.672 9.58167C53.672 9.58167 53.305 9.54037 53.305 9.43712C53.305 9.35453 52.9991 9.87075 52.8563 9.76751Z" fill="#418FDE"/>
<path d="M59.0959 9.97041C58.9939 10.2801 58.9531 10.6931 58.79 10.6931C58.6268 10.6931 58.688 11.1474 58.688 11.1474C58.688 11.1474 59.1366 11.1474 59.259 11.1887C59.4017 11.23 59.4017 11.581 59.4017 11.581C59.9116 11.5397 60.1155 12.2418 60.0543 12.4276C59.9931 12.5928 60.2582 12.5928 60.2582 12.5928C60.2582 12.5928 60.2582 13.1503 60.1971 13.2949C60.1359 13.4394 60.6457 13.5427 60.7681 13.7491C60.9108 13.9556 60.7069 14.6577 60.6049 14.699C60.503 14.7403 60.87 14.8435 60.8496 15.0087C60.8089 15.1739 60.9516 15.0087 60.9924 15.2978C61.0332 15.5662 61.0944 16.1651 61.0944 16.1651L61.5634 16.2064C61.6246 15.7521 62.5015 15.7314 62.6442 15.7934C63.2152 15.9999 63.6638 16.9084 63.6638 17.1149C63.6638 17.3214 63.2968 17.3627 63.2968 17.3627L63.358 18.3745C63.929 18.5397 64.4184 19.3863 64.3368 19.5308C64.2756 19.6754 64.7447 19.6341 64.7447 19.6341C64.8058 19.0146 65.3972 19.2211 65.4176 19.4276C65.4584 19.6341 65.5604 20.0883 65.5604 20.0883L65.7235 20.3981L65.9682 20.6459L66.3353 20.6046L66.4373 20.811L66.8859 20.873C66.8859 20.873 67.253 21.286 67.2938 21.3892C67.3346 21.4925 67.8444 21.4512 67.9667 21.4925C68.1095 21.5338 68.3134 21.637 68.3338 21.8022C68.3746 21.9674 68.5785 22.2565 68.5785 22.2565C68.5785 22.2565 68.9864 22.3597 69.0272 22.5042C69.0679 22.6488 69.2311 22.9585 69.2311 22.9585L69.5778 23.2476L69.6186 23.5573L69.9856 23.5986L70.0876 24.0116L70.6994 23.9703L71.0461 23.7225C71.4947 23.4747 71.8006 23.165 71.821 23.0205C71.8618 22.8759 71.9229 22.3597 72.2696 22.463C72.6163 22.5662 72.3716 21.6989 72.3716 21.6989C72.3716 21.6989 71.9025 21.3479 71.9229 21.1827C71.9637 21.0175 71.4539 20.6665 71.4743 20.522C71.5151 20.3774 71.0257 20.109 71.0664 19.9644C71.1072 19.8199 70.8217 19.4482 70.8217 19.4482L70.3119 18.9527L70.2507 18.6429L69.8429 18.6016L69.0272 17.5898L69.0679 17.3007L68.8232 17.2594V16.8671L68.5785 16.7226L68.2115 16.6813L67.4569 15.8553L67.3957 15.463H67.0287L67.0898 14.7403C67.3346 14.4306 67.1918 13.8317 67.1918 13.8317C67.1918 13.8317 66.7228 14.0795 66.4781 13.9763C66.2333 13.873 66.58 13.6253 66.58 13.6253V13.3568L66.3761 13.1503C66.3761 13.1503 65.8051 13.2123 65.7643 13.109C65.7235 13.0058 65.6216 12.5515 65.6216 12.5515L65.5808 11.9527L65.3361 11.8495L65.2953 11.643L64.9282 11.6843V11.2713L64.7243 11.2093L64.5203 11.1061L64.4796 10.6931L63.725 10.6518L63.4803 10.3008L63.2152 9.88782L62.3587 9.82587L62.1548 9.61938L61.8081 9.55744L61.5634 9.45419L61.4614 9.61938L60.8088 9.66068L60.7681 9.86717C60.4826 10.0117 59.1366 9.86717 59.0959 9.97041Z" fill="#418FDE"/>
<path d="M62.6647 9.06515C62.6036 8.79672 63.3377 8.54893 63.5212 8.75542C63.6844 8.96191 64.1738 9.00321 64.235 10.0356C64.2554 10.4073 63.6232 9.64332 63.6232 9.64332L63.1134 9.47813C62.8279 9.41618 62.6851 9.25099 62.6647 9.06515Z" fill="#418FDE"/>
<path d="M52.7128 9.4958L52.5293 9.41321L52.672 9.08282L52.8556 9.18607L52.7128 9.4958Z" fill="#418FDE"/>
<path d="M50.9604 6.06864L50.5117 5.61436V5.22203L50.369 5.07749L50.2262 4.58192L49.7776 4.43738L49.3289 4.60257L48.8599 4.9123L48.3501 4.97425L48.085 5.28398L49.1658 5.38722L49.3697 5.73825L50.1446 5.8002L50.6545 6.31642C51.1235 6.52291 51.2255 6.31642 50.9604 6.06864Z" fill="#418FDE"/>
<path d="M50.9 4.35604C50.8185 4.04631 50.3902 4.74837 50.8389 4.87226C51.2875 5.0168 51.7158 4.87226 51.7158 4.87226L51.8177 4.66577L53.5103 4.70707C53.6531 4.56253 53.7143 4.35604 53.7143 4.35604C53.7143 4.35604 54.1221 4.2115 54.2853 4.29409C54.4484 4.35604 54.3261 3.79852 54.1425 3.88112C53.9794 3.94306 53.6327 3.92242 53.6327 3.92242H53.0209C52.9801 3.67463 52.4499 3.77787 52.4091 3.92242C52.3887 4.04631 52.1848 4.08761 52.1848 4.08761L51.4099 4.14955C51.3283 4.35604 50.9408 4.50058 50.9 4.35604Z" fill="#418FDE"/>
<path d="M47.534 10.243C48.0642 10.4082 48.2478 10.2843 48.2886 10.1398C48.3293 9.99525 48.3497 9.9746 48.5537 9.93331C48.7576 9.89201 48.5129 9.47903 48.309 9.52033C48.105 9.56163 47.9011 9.45838 47.8603 9.27254C47.8195 9.10735 47.4932 8.65308 47.4525 9.00411C47.4117 9.35514 47.2077 9.35514 47.2485 9.60293C47.3097 9.83006 47.4117 10.2017 47.534 10.243Z" fill="#418FDE"/>
<path d="M43.6386 10.6366C43.6182 10.5127 44.3116 10.4921 44.4136 10.5953C44.5155 10.6986 44.4543 10.8844 44.7602 10.8844C45.0661 10.8844 44.9234 11.0909 44.903 11.1941C44.8622 11.2974 44.5359 11.2561 44.4951 11.1528C44.4543 11.0496 43.9445 11.0083 43.9445 11.0083C43.9445 11.0083 43.6794 10.8018 43.6386 10.6366Z" fill="#418FDE"/>
<path d="M54.8142 3.59403L54.8957 3.67662L54.9569 3.61467L55.3036 3.32559L55.1608 3.1604L54.8957 3.38754L54.7326 3.2017L54.5898 3.36689L54.8142 3.59403Z" fill="#418FDE"/>
<path d="M53.3043 2.78722L53.3451 2.74592L53.7326 2.49814L53.6102 2.33295L53.3043 2.53944L53.08 2.39489L52.978 2.58073L53.2431 2.74592L53.3043 2.78722Z" fill="#418FDE"/>
<path d="M52.0819 9.88979L52.3062 10.2408L52.4693 10.1169L52.245 9.74525L52.2042 9.70396H52.1635L51.8168 9.66266L51.7964 9.86915L52.0819 9.88979Z" fill="#418FDE"/>
<path d="M40.988 19.4096L41.0288 19.8019H41.5386C41.7426 19.8019 41.3755 19.5541 41.3755 19.5541C41.3755 19.5541 40.9677 19.5954 40.988 19.4096Z" fill="#418FDE"/>
<path d="M41.6392 19.4314L41.7615 19.2662L41.9655 19.4314L41.8431 19.5966L41.6392 19.4314Z" fill="#418FDE"/>
<path d="M35.46 12.9085L35.6027 12.7639L35.8066 12.9704L35.6639 13.115L35.46 12.9085Z" fill="#418FDE"/>
<path d="M45.0256 57.9414L45.1683 58.086L45.3315 57.9208L45.4334 57.8176L45.3111 57.735L44.9644 57.5698L44.8828 57.7556L45.0867 57.8588L45.0256 57.9414Z" fill="#418FDE"/>
<path d="M42.3534 55.4189L42.5981 55.5841L42.7205 55.4189L42.5777 55.3157L42.6797 55.2331L42.5574 55.0679L42.3534 55.2537L42.2515 55.3363L42.3534 55.4189Z" fill="#418FDE"/>
<path d="M67.9059 48.6244C67.8651 48.4386 67.6612 48.3766 67.6408 48.3766L67.5796 48.5831C67.6 48.5831 67.6204 48.6038 67.6408 48.6244L67.6815 48.8103C67.6612 48.8309 67.6408 48.8516 67.6408 48.8722L67.7835 49.0168C67.8855 48.8516 67.9263 48.7483 67.9059 48.6244Z" fill="#418FDE"/>
<path d="M68.2125 47.9643L67.8862 47.9437L67.9066 47.6339L68.2329 47.6752L68.2125 47.9643Z" fill="#418FDE"/>
<path d="M76.0642 45.2619C76.2069 45.1793 76.3904 44.9935 76.37 45.3858C76.3496 45.7781 76.1865 45.6543 76.0642 45.7781C75.9418 45.902 75.8602 45.3858 76.0642 45.2619Z" fill="#418FDE"/>
<path d="M77.7965 43.7716V43.7303C77.7965 43.6684 77.7761 43.5858 77.7353 43.5032L77.5518 43.6064C77.5722 43.6477 77.5722 43.7097 77.5925 43.751C77.5925 43.8129 77.6129 43.8749 77.6537 43.9162C77.6945 43.9368 77.7353 43.9575 77.7965 43.9368L77.7557 43.7303C77.7557 43.751 77.7761 43.751 77.7965 43.7716Z" fill="#418FDE"/>
<path d="M77.3481 43.9431C77.4093 44.1495 77.4705 44.356 77.4705 44.3767L77.654 44.2941C77.654 44.2941 77.5725 44.0876 77.5317 43.8811L77.3481 43.9431Z" fill="#418FDE"/>
<path d="M76.5931 44.7683L76.3891 44.7476C76.3687 44.9128 76.4095 45.1193 76.5727 45.14L76.6134 44.9335C76.6134 44.9335 76.5931 44.8509 76.5931 44.7683Z" fill="#418FDE"/>
<path d="M75.7166 40.6175C75.6963 40.5555 75.6759 40.4936 75.6147 40.4729C75.4719 40.411 75.2068 40.5142 75.0845 40.5968L75.2068 40.762C75.3292 40.6794 75.5127 40.6381 75.5331 40.6588C75.5331 40.6588 75.5331 40.6588 75.5331 40.6381L75.7166 40.6175Z" fill="#418FDE"/>
<path d="M66.3155 29.4836C66.1728 29.6282 65.8669 29.6901 65.8669 29.6901L65.7649 30.0824L65.6018 30.227C65.6018 30.227 65.6426 30.3302 65.6018 30.578C65.561 30.8258 65.2551 30.9703 65.2551 30.9703L65.1123 31.1355C65.1123 31.1355 64.2966 31.1768 64.1947 31.1355C63.8888 30.991 64.0927 30.578 64.2966 30.6193C64.5006 30.6606 64.2559 30.0205 64.2559 30.0205L64.521 29.9792C64.521 29.9792 64.5617 29.3597 64.6637 29.3597C64.7657 29.3597 64.6229 29.1532 64.5006 29.05C64.3578 28.9467 64.1947 28.5957 64.0519 28.637C63.9092 28.6783 63.379 28.637 63.379 28.637L63.277 28.8435L62.9099 28.9054C62.9099 28.9054 62.9507 29.1739 62.8691 29.2565C62.6652 29.5043 61.8903 30.0205 62.2166 29.1532L62.3185 28.9467V28.637L61.7067 28.5957C61.7067 28.5957 61.4009 28.4925 61.4009 28.3479C61.4009 28.2034 61.3601 28.0382 61.3601 28.0382L60.6463 27.2329L59.7898 27.1296L59.7286 26.9645L59.2188 26.9025C58.607 26.5928 58.0564 26.8612 58.1584 27.3981C58.2604 27.9143 58.4235 28.1208 58.0972 28.1208C57.7505 28.1208 57.6894 27.8524 57.6894 27.8524C57.6894 27.8524 57.4243 27.7491 57.4243 27.8937C57.4243 28.0382 57.3223 28.3066 57.4243 28.4512C57.5262 28.5957 57.2815 28.8022 57.1795 28.699C57.0776 28.5957 56.8125 28.286 56.8736 28.1827C56.9348 28.0795 56.4046 27.4187 56.9348 27.3155C57.4854 27.2122 56.894 26.9025 57.098 26.8199L57.3631 26.6754H57.6282L57.7913 26.5308L57.3427 26.4689L57.0776 26.4276L56.5678 26.3863C56.0579 26.7373 55.956 27.1503 55.956 27.1503C55.6909 27.6665 55.0383 26.9438 55.283 26.6547C55.5277 26.3656 54.5285 26.6134 54.3653 26.758C54.2022 26.9025 53.6924 26.8199 53.6924 26.8199C53.5904 27.1296 53.1214 26.7786 53.2437 26.5721C53.3865 26.3656 53.3865 26.2211 53.3865 26.2211L53.2233 26.1798L53.0194 26.5721C52.5504 26.5721 52.4076 26.8406 52.5096 27.0264C52.6115 27.1916 52.3668 26.9851 52.3056 27.2329C52.2445 27.4807 52.3464 27.4807 52.5504 27.5839C52.7543 27.6872 52.4484 27.6872 52.5911 27.8524C52.7339 28.0175 53.1418 27.8524 52.897 28.1001C52.6523 28.3479 52.1833 28.2447 52.1833 28.2447C52.1425 28.5544 51.5103 28.4925 51.4288 28.3892C51.3676 28.286 50.8578 27.6665 50.8578 27.6665L50.2052 27.6252C50.144 27.1296 50.5111 27.3774 50.6538 27.0058C50.7966 26.6134 50.8578 25.994 50.8578 25.994C50.8578 25.994 50.3072 25.9527 50.2868 26.1385C50.246 26.3037 49.9197 26.4276 49.9197 26.4276C49.9197 26.4276 49.6546 26.5308 49.7565 26.6754C49.8585 26.8199 49.5526 26.8819 49.5526 26.8819C49.5526 26.8819 49.6138 27.109 49.5118 27.1916C49.2467 27.4807 48.5534 27.2329 48.4514 27.1296L48.0435 26.9645L47.6357 26.696L47.1667 26.9025L47.0239 27.047H46.5141L46.4733 27.46L47.391 27.5633L47.4522 28.4305L47.0851 28.3066H46.8404L46.7384 28.1001L46.5345 28.0588V28.8228L46.7384 28.988L46.9015 29.1532L47.2482 29.1945L47.3094 29.6075L48.1659 29.6488L48.2679 29.814L48.7777 29.8553L49.7565 30.8671L49.6954 31.1768L49.5322 31.2801C49.5934 31.5278 49.0836 31.3833 49.0836 31.3833V31.5898L49.3283 31.6311L49.573 31.7756L49.9197 31.1768C50.2868 30.929 50.4703 31.2801 50.4907 31.4865C50.5315 31.693 50.3275 31.6517 50.3275 31.6517V32.1473L50.5315 32.2093C50.8781 32.6222 50.3887 32.87 50.3887 32.87L50.2868 33.2211C50.1848 33.5308 49.8177 33.4688 49.8177 33.4688L49.675 33.6753L49.2671 33.7786L50.0624 33.8818C50.144 33.5927 50.3479 33.5308 50.4499 33.6753C50.5519 33.8199 50.5519 34.0677 50.5519 34.0677L50.7558 34.1089L50.715 34.5013L50.9189 34.5632V35.6783L51.1637 35.9467C51.5715 35.7815 51.5715 36.0499 51.3676 36.1945C51.1637 36.339 51.3064 36.9585 51.3064 36.9585L51.1433 37.1237V37.4128L50.9393 37.5573V37.9496C50.5926 37.7844 50.1848 37.8464 50.0828 37.9496C49.7769 37.7431 49.1244 37.8051 49.1244 37.9909C49.3283 38.2594 48.8797 38.342 48.8797 38.342L48.6349 38.6104C48.7981 38.9614 48.4718 39.0027 48.4718 39.0027V39.6635L48.0639 40.0558L48.1047 40.9644C48.1047 41.2121 48.6145 41.2328 48.7165 41.1089C48.8185 40.9644 49.2263 41.398 49.2263 41.398H49.5322L49.5934 40.7785L49.3895 40.6753V39.6635L49.7362 39.2712C50.144 39.1266 50.0013 40.1797 50.0013 40.2829C50.042 40.6753 50.2052 40.634 50.3683 40.5514C50.715 40.4068 50.4295 40.9437 50.1644 40.9024C49.8993 40.8611 50.0624 41.2534 50.0624 41.2534L50.2256 41.3154L49.9197 41.5632L49.6546 41.8729L49.3079 41.7697L48.9 41.7284L48.7573 41.4806L48.5126 41.4393L48.4718 41.9349L48.3087 42.1413L47.9008 42.5543C48.4514 42.5543 47.8396 42.9466 47.6969 42.9466C48.0028 43.0499 47.6561 43.3596 46.8812 43.1118V43.3596L46.616 43.4009L46.8608 43.6694L47.1259 43.7107L47.0239 44.3095C47.0239 44.7637 45.9023 44.454 45.8003 44.3508L45.7595 44.9702L45.5556 45.0115L45.5964 45.4245L45.5556 46.0233L45.9227 45.9614V46.2092L46.8404 46.2505L48.1659 44.8257L48.9408 44.6605C49.002 44.3095 49.3487 44.7224 49.3487 44.7224C49.6954 44.6812 49.7565 44.9289 49.7565 44.9289L50.2052 44.9909C50.5723 45.0941 50.3479 45.1354 50.3683 45.28C50.4091 45.4865 50.5723 45.4245 50.5723 45.4245L50.6334 44.9702L50.8374 45.0115L50.6334 44.7637L50.2664 44.5986L49.8585 44.4334C49.5934 44.041 49.9197 44.1236 50.2052 44.1649H50.6538C50.6538 44.1649 51.1637 44.867 51.1637 45.0322C51.1637 45.1974 51.4084 45.2387 51.4084 45.2387L51.7143 45.1974L51.8162 45.4452H52.1221L52.2241 45.6516H52.8359L52.8766 45.3419L52.3056 45.2387L52.2649 44.8876L51.857 44.7844C51.7143 44.1856 51.959 44.0204 52.1221 44.2888L52.326 44.3301L52.2649 43.8139L52.5096 43.752L52.4484 43.0292L52.2445 42.9673V42.7195L53.101 42.7608C53.0398 42.3065 53.1418 42.1 53.1418 42.1H53.3865L53.4273 42.2652L54.4673 42.3685L55.2014 41.5219C55.1606 41.4599 55.283 41.4186 55.2014 41.336C55.0995 41.2328 54.9567 41.336 54.7936 41.2328C54.6304 41.1295 54.7936 40.5307 54.7528 40.4068C54.712 40.2623 55.3238 40.0558 55.2218 40.3655C55.1199 40.6753 55.2218 40.8198 55.2218 40.8198C55.6705 40.4068 56.0375 40.8611 55.9968 40.9644C55.956 41.0676 56.2415 41.1708 56.4046 41.0676C56.5678 40.9644 56.7717 41.3773 56.7105 41.5838C56.6493 41.7903 56.0375 41.749 55.9968 41.5425C55.956 41.336 55.854 41.398 55.7928 41.5012C55.7316 41.6045 55.4258 41.6664 55.2422 41.5632C55.2014 41.5425 55.2014 41.5219 55.181 41.5012L54.4469 42.3478H54.4877C54.8955 42.5956 54.6916 42.9054 54.5489 42.9673C54.4061 43.0292 54.1818 43.0292 54.1818 43.0292L54.1206 43.1738L53.2437 43.2357L53.1825 43.5868C52.7339 43.5248 52.5708 43.9997 52.6727 44.2475C52.7747 44.4953 52.6727 44.7018 52.6727 44.7018L53.0398 44.867L53.5088 44.7224C53.57 44.3714 53.8759 44.3095 54.1614 44.103C54.4265 43.8965 54.8751 44.4953 54.7324 44.7637C54.5896 45.0322 54.5896 45.1561 54.5896 45.1561L54.6304 45.4658L54.2838 45.6103L54.0186 45.7549L53.9779 45.9201H53.0602L52.897 46.0853L52.4484 46.1266L52.3056 46.3331L51.9998 46.3744C51.9998 46.3744 51.4899 46.6221 51.6939 46.8906C51.8978 47.1797 50.8374 47.1384 50.613 46.746C50.5519 47.0971 50.1644 46.7873 50.1644 46.7873L49.7973 46.6841L49.7565 46.1679C49.6954 45.8168 49.0428 45.8168 49.0836 46.0646C49.1244 46.3124 47.86 46.1679 47.86 46.1679L47.4522 46.3744L47.0851 46.6015L47.0443 46.7667L46.4325 46.8286L46.1674 46.9732L46.0654 46.7667H45.8003L45.5352 47.159C44.8215 47.2003 44.1485 47.6133 44.2097 47.7785C44.2709 47.9437 43.9446 48.1295 43.9446 48.1295L43.6387 48.2327L43.4348 48.5425L43.0269 48.687L42.9657 49.4097L42.7618 49.5543V49.864L42.5171 49.926V50.0911L42.1704 50.1324L42.3743 50.6487L42.6394 50.7932C43.1085 50.8551 42.9046 51.454 42.9046 51.454L43.1697 51.4953L43.3124 51.8876L43.5775 52.4451C43.6795 52.8581 43.9854 52.7548 44.1281 52.7342C44.2709 52.6929 44.3932 53.1472 44.3932 53.1472L45.7392 53.1885C45.7392 53.1885 45.678 53.333 45.9023 53.395C46.147 53.4569 47.6969 53.5395 47.758 53.4363C47.6969 53.1265 48.6145 53.0439 48.9816 53.333C49.3487 53.6014 49.8585 53.4363 49.8585 53.4363L50.3683 54.0557L50.715 54.8197L51.286 54.9849L51.6939 55.0882L51.8366 55.687L52.1425 55.7283L52.2445 56.1206C52.6115 56.389 52.1425 56.9879 52.1425 56.9879V57.7519L52.4076 57.8964L52.3668 58.1855L52.8155 58.6398L53.3253 58.6811L54.61 60.0645L55.6297 60.3743L55.7928 60.9318L56.0579 60.8905L56.2619 60.7253L57.0776 60.684L57.4854 60.2917L57.9341 60.2297L61.7067 56.9879L61.3601 56.7814V56.0174C61.9719 55.5631 62.0126 54.7578 61.4212 54.6958C60.993 54.6339 61.1765 54.1796 61.5844 54.097L61.8291 53.9938V53.684L62.604 52.9613V52.4038L60.9114 50.979C60.1569 50.7106 60.9114 49.0381 61.4212 49.0587C61.9311 49.1 61.3805 46.4776 61.3805 46.4776L61.1154 46.3331L61.1765 45.4865H60.8095L60.1977 46.2918L60.0345 46.8493C59.9734 47.572 57.8729 47.4481 57.7709 47.3448C57.669 47.2416 56.9552 46.9319 56.9552 46.9319C56.9552 46.9319 56.4046 46.4776 56.3026 46.6221C56.2007 46.7667 55.7316 46.4569 55.7316 46.5602C55.7316 46.6634 55.283 46.3124 55.283 46.3124L54.61 46.0646L55.1199 45.9614L55.0179 45.5484L55.8948 46.0027C55.9968 46.1472 56.4454 46.1059 56.4454 46.1059L56.5881 46.2711C56.5881 46.2711 56.8532 46.2298 57.0368 46.4363C57.1999 46.6428 58.0972 46.4776 58.0972 46.4776L58.3419 46.6841L58.709 46.8286L59.7694 46.8699L59.8102 46.2092L60.0141 46.0027L59.9734 45.5897L60.2181 45.3832V45.0322L60.422 44.9702L60.4628 44.2062L60.6259 44.1649V42.4924L60.1161 41.9968C60.0753 42.162 59.5451 42.162 59.5451 42.162C59.5451 42.162 59.4024 42.4098 59.3004 42.4098C59.1984 42.4098 59.4431 42.7195 59.3616 42.926C59.3004 43.1325 59.0149 43.1325 59.0149 43.1325L58.5051 43.277L58.3623 43.4422H57.8117L57.7505 42.9879L58.3623 42.8228L58.709 42.6576L58.8721 42.3065C58.9129 41.9555 59.3208 41.9968 59.3208 41.9968C59.3208 41.9968 60.0957 41.336 60.1365 41.0263C60.1773 40.7166 60.4424 39.8493 60.9114 39.8493H61.7883C62.135 39.7048 62.033 39.2505 62.033 39.2505L62.4817 39.1886L62.5428 39.4363C62.5428 39.4363 63.1546 39.4983 63.2158 39.3951C63.277 39.2918 63.4197 39.044 63.5829 39.1473C63.746 39.2505 64.2966 38.8995 64.2966 38.8995C64.3374 38.6517 65.1735 38.7549 65.1735 38.7549L65.2755 38.4452C65.2755 38.4452 64.7045 37.6399 64.6025 37.6399C64.5006 37.6399 63.95 37.1443 63.8888 37.3302C63.3382 37.1856 63.379 36.4216 63.379 36.4216L63.175 35.926C63.175 35.637 62.6652 35.0588 62.5632 35.1207C62.0534 34.7284 62.4205 34.2948 62.5632 34.2535C62.706 34.2122 63.0323 33.7373 63.0323 33.7373L63.1954 33.2417L63.7664 33.0765L63.8276 32.6222L63.5217 32.5809C63.5217 32.5809 63.8684 31.9615 64.0315 31.9615C64.1947 31.9615 65.3163 31.9615 65.4182 31.8995C65.5202 31.8376 65.7241 31.2801 65.7241 31.1768C65.7241 31.0736 65.9892 31.0323 66.0912 31.0116C66.1932 30.9703 66.4379 30.7019 66.4991 30.5574C66.6826 30.2063 66.4583 29.3391 66.3155 29.4836Z" fill="#418FDE"/>
<path d="M47.5342 42.04C47.575 41.9987 47.6362 42.2051 47.7381 42.1638C47.8401 42.1432 47.8809 42.3497 47.7789 42.3497C47.6769 42.3497 47.6769 42.4736 47.6769 42.5355C47.6769 42.5975 47.677 42.7214 47.5954 42.804C47.5138 42.8866 47.4526 42.8246 47.3507 42.7833C47.2487 42.7214 47.2079 42.7214 47.0652 42.7214C46.9428 42.7214 47.0448 42.9279 47.0448 42.9279C47.0448 42.9279 46.5146 42.9072 46.6165 42.8246C46.7185 42.742 46.8205 42.7214 46.7389 42.6594C46.6573 42.5975 46.7389 42.5562 46.7389 42.4529C46.7389 42.3497 46.9836 42.391 46.9224 42.329C46.8409 42.2464 46.9224 41.9574 47.0448 42.1225L47.1264 41.9367C47.0448 41.8541 47.106 41.8335 46.9428 41.7715C46.8001 41.7096 46.9224 41.3998 46.9224 41.3998L46.9428 41.1934C46.9836 40.9249 47.4934 40.9043 47.5342 41.1314C47.5546 41.3585 47.5342 41.5237 47.5342 41.5237L47.6769 41.5857C47.6769 41.5857 47.6566 41.7509 47.5342 41.7509C47.4118 41.7509 47.5342 41.8335 47.4526 41.9161L47.5342 42.04Z" fill="#418FDE"/>
<path d="M45.8623 42.3119C45.9439 42.1467 46.107 41.4859 46.3109 41.6924C46.5149 41.8989 46.6372 41.6924 46.6372 41.6924C46.6372 41.6924 46.7392 41.7957 46.678 42.0022C46.6372 42.2087 46.576 42.4151 46.4537 42.4564C46.3313 42.4771 46.2294 42.5597 46.0662 42.5803C45.9439 42.601 45.8623 42.3119 45.8623 42.3119Z" fill="#418FDE"/>
</g>
<defs>
<clipPath id="clip0_3536_54983">
<rect width="95.0714" height="81.7281" fill="white"/>
</clipPath>
</defs>
</svg>
