<svg width="62" height="62" viewBox="0 0 62 62" fill="none" xmlns="http://www.w3.org/2000/svg">
<circle cx="30.7361" cy="30.7356" r="30.7356" fill="#003399"/>
<path d="M30.7359 54.8332L29.9675 52.4592H27.4673L29.4858 50.9912L28.7174 48.6057L30.7359 50.0737L32.7544 48.6057L31.986 50.9912L34.0045 52.4592H31.5043L30.7359 54.8332Z" fill="#FFCC00"/>
<path d="M31.5043 11.1723L30.7359 13.5463L29.9675 11.1723H27.4673L29.4858 9.70426L28.7174 7.31876L30.7359 8.78676L32.7544 7.31876L31.986 9.70426L34.0045 11.1723H31.5043Z" fill="#FFCC00"/>
<path d="M10.0923 29.4279L12.1108 27.9599L11.3424 30.3454L13.3609 31.8134H10.8607L10.0923 34.1874L9.32393 31.8134H6.82373L8.84224 30.3454L8.07383 27.9599L10.0923 29.4279Z" fill="#FFCC00"/>
<path d="M20.4141 52.0694L19.6457 49.6954H17.1455L19.164 48.2159L18.3956 45.8419L20.4141 47.3099L22.4326 45.8419L21.6642 48.2159L23.6827 49.6954H21.1825L20.4141 52.0694Z" fill="#FFCC00"/>
<path d="M12.856 44.5126L12.0876 42.1386H9.5874L11.6059 40.6706L10.8375 38.2851L12.856 39.7531L14.8745 38.2851L14.1061 40.6706L16.1246 42.1386H13.6359L12.856 44.5126Z" fill="#FFCC00"/>
<path d="M13.6359 21.4928L12.856 23.8668L12.0876 21.4928H9.5874L11.6059 20.0248L10.8375 17.6393L12.856 19.1073L14.8745 17.6393L14.1061 20.0248L16.1246 21.4928H13.6359Z" fill="#FFCC00"/>
<path d="M21.1825 13.936L20.4141 16.3101L19.6457 13.936H17.1455L19.164 12.468L18.3956 10.0825L20.4141 11.562L22.4326 10.0825L21.6642 12.468L23.6827 13.936H21.1825Z" fill="#FFCC00"/>
<path d="M54.649 31.8134H52.1488L51.3804 34.1874L50.612 31.8134H48.1118L50.1303 30.3454L49.3619 27.9599L51.3804 29.4279L53.3989 27.9599L52.6305 30.3454L54.649 31.8134Z" fill="#FFCC00"/>
<path d="M41.0577 52.0694L40.2893 49.6954H37.7891L39.8076 48.2159L39.0392 45.8419L41.0577 47.3099L43.0762 45.8419L42.3078 48.2159L44.3263 49.6954H41.8261L41.0577 52.0694Z" fill="#FFCC00"/>
<path d="M47.3652 40.6706L46.5968 38.2851L48.6153 39.7531L50.6338 38.2851L49.8654 40.6706L51.8839 42.1386H49.3837L48.6153 44.5126L47.8354 42.1386H45.3467L47.3652 40.6706Z" fill="#FFCC00"/>
<path d="M49.3837 21.4928L48.6153 23.8668L47.8354 21.4928H45.3467L47.3652 20.0248L46.5968 17.6393L48.6153 19.1073L50.6338 17.6393L49.8654 20.0248L51.8839 21.4928H49.3837Z" fill="#FFCC00"/>
<path d="M41.8261 13.936L41.0577 16.3101L40.2893 13.936H37.7891L39.8076 12.468L39.0392 10.0825L41.0577 11.562L43.0762 10.0825L42.3078 12.468L44.3263 13.936H41.8261Z" fill="#FFCC00"/>
</svg>
