<svg width="258" height="52" viewBox="0 0 258 52" fill="none" xmlns="http://www.w3.org/2000/svg">
<g clip-path="url(#clip0_3536_54974)">
<path d="M57.5708 11.8615H70.4791V14.5028H65.7408V27.7587H62.3173V14.5028H57.5708V11.8615ZM75.7135 27.7587V20.7758H81.7748V27.7587H85.1983V11.8615H81.7335V18.1345H75.7135V11.8615H72.29V27.7587H75.7135ZM87.9768 27.7587H98.9004V25.1174H91.4002V20.8666H98.1975V18.2253H91.4002V14.5028H98.6606V11.8615H87.9768V27.7587ZM112.561 23.8215H112.52L110.072 11.8615H106.541L110.428 27.7587H114.306L117.399 15.6501H117.44L120.309 27.7587H124.097L128.157 11.8615H124.891L122.327 23.8215H122.286L119.507 11.8615H115.654L112.561 23.8215ZM129.315 19.8184C129.315 24.5066 131.696 28.0971 136.972 28.0971C142.239 28.0971 144.629 24.5149 144.629 19.8184C144.629 15.1301 142.248 11.5396 136.972 11.5396C131.696 11.5314 129.315 15.1218 129.315 19.8184ZM132.953 19.8184C132.953 17.0863 133.598 13.9993 136.972 13.9993C140.346 13.9993 140.991 17.0863 140.991 19.8184C140.991 22.5422 140.346 25.6291 136.972 25.6291C133.598 25.6291 132.953 22.5422 132.953 19.8184ZM150.302 21.3536H153.924C155.048 21.3949 155.263 22.6082 155.354 23.4914C155.503 24.9276 155.66 26.3555 155.95 27.7587H159.721C159.084 26.8755 158.952 25.0101 158.794 23.9949C158.505 21.7911 158.505 20.1815 155.884 19.9009V19.8596C157.852 19.4469 159.191 18.0768 159.191 16.005C159.191 12.7695 156.388 11.8863 153.651 11.8615H146.878V27.7587H150.302V21.3536ZM150.302 14.5028H153.163C154.668 14.5276 155.545 15.1218 155.545 16.525C155.545 17.9365 154.66 18.6793 153.163 18.7041H150.302V14.5028ZM172.124 27.7587V25.1174H165.22V11.8615H161.804V27.7587H172.124ZM173.977 27.7587H179.401C184.363 27.7999 187.456 25.3403 187.456 19.8101C187.456 14.2799 184.363 11.812 179.401 11.8615H173.977V27.7587ZM177.4 14.5028H179.17C183.23 14.4615 183.825 17.2761 183.825 19.8101C183.825 22.3358 183.23 25.1587 179.17 25.1174H177.4V14.5028ZM202.142 27.7587C204.589 27.932 208.559 26.793 208.559 23.6399C208.559 21.3123 207.062 19.9257 205.053 19.5047V19.4634C206.64 18.9352 207.856 17.7218 207.856 15.9885C207.856 12.885 204.945 11.6965 202.1 11.8698H196.122V27.7669H202.142V27.7587ZM199.529 25.1174V20.8914H202.2C203.812 20.8914 204.912 21.1803 204.912 23.0044C204.912 24.8368 203.812 25.1174 202.2 25.1174H199.529ZM199.529 18.2501V14.5028H202.2C203.63 14.5028 204.424 15.0971 204.424 16.3765C204.424 17.6558 203.63 18.2501 202.2 18.2501H199.529ZM212.883 27.7587L214.074 24.3911H220.384L221.533 27.7587H224.973L219.441 11.8615H215.381L209.617 27.7587H212.883ZM214.959 21.7498L217.291 14.965H217.341L219.524 21.7498H214.959ZM241.106 27.7587V11.8615H237.906V24.325L237.865 24.3745L231.795 11.8698H226.726V27.7669H229.926V14.5936L229.968 14.5441L236.252 27.7587H241.106ZM247.333 11.8615H243.918V27.7587H247.333V19.6533H247.374L252.915 27.7587H257.173L250.823 18.9765L256.669 11.8615H252.675L247.383 18.7371H247.341V11.8615H247.333Z" fill="#002345"/>
<path d="M48.3752 15.4428C47.7716 15.6987 47.4904 16.392 47.7468 16.9946C48.9541 19.8422 49.566 22.8796 49.566 25.9996C49.566 27.9146 49.3262 29.7717 48.8796 31.5546C48.5323 32.6771 47.9121 33.7171 47.0604 34.6581C47.077 34.2536 47.0935 33.8492 47.0935 33.4365C47.1018 28.8803 45.8448 24.0765 43.5046 19.5533C45.2164 18.0841 46.3079 16.2682 46.6883 14.2377C46.8041 13.5939 46.3823 12.9749 45.7373 12.8511C45.0923 12.7273 44.4721 13.1565 44.3564 13.8003C44.1083 15.1457 43.4054 16.3755 42.3139 17.4238C41.9748 16.8625 41.6193 16.3095 41.2471 15.7565C39.1633 12.7025 36.6825 10.0612 33.9702 7.95647C37.5508 8.18759 40.8585 9.06251 43.5294 10.5482C43.9512 10.7876 44.5052 10.7793 44.8939 10.4492C45.3983 10.0282 45.4645 9.27711 45.0427 8.77362C41.2141 3.4333 34.5904 0.486633 26.3873 0.486633C12.2966 0.486633 0.827148 11.9349 0.827148 25.9996C0.827148 28.4263 1.17446 30.7704 1.81119 32.9908C1.85253 33.1393 1.88561 33.2879 1.92696 33.4365C1.93523 33.4695 1.95176 33.4943 1.96003 33.519C5.18503 43.919 14.9096 51.5044 26.3791 51.5044C31.6879 51.5044 36.6164 49.8784 40.7096 47.105C40.751 47.0803 40.7923 47.0638 40.8254 47.039C41.0735 46.8739 41.305 46.7006 41.5366 46.519C46.2335 43.0523 49.7148 38.0174 51.1702 32.1901C51.2529 31.926 51.3273 31.6454 51.3852 31.373C51.4018 31.3069 51.4018 31.2409 51.41 31.1749C51.7573 29.4993 51.9393 27.766 51.9393 25.9914C51.9393 22.5495 51.2612 19.2066 49.9298 16.0619C49.6818 15.4676 48.9789 15.1869 48.3752 15.4428ZM39.2873 17.1019C39.676 17.6796 40.0481 18.2574 40.4037 18.8517C38.5018 19.9495 36.1037 20.6016 33.5071 20.7914C33.2839 16.6974 32.8043 12.752 32.027 9.4752C34.731 11.4809 37.2118 14.0727 39.2873 17.1019ZM35.7564 4.53933C36.9471 5.01806 38.1296 5.62886 39.2543 6.39647C37.4598 5.95076 35.5496 5.67838 33.565 5.57933C34.3754 5.05108 35.1279 4.6879 35.7564 4.53933ZM32.6141 3.55711C31.9525 3.91203 31.2662 4.35774 30.5716 4.886C30.2573 4.18441 29.9266 3.56536 29.571 3.03711C30.5219 3.14441 31.5473 3.30949 32.6141 3.55711ZM21.31 20.8822C23.0135 21.6498 24.8741 22.2523 26.8256 22.6733C28.3058 22.9869 29.7777 23.1603 31.2331 23.2098C31.2579 24.1012 31.2745 25.0174 31.2745 25.9584C31.2745 31.5463 30.8279 36.185 30.1829 39.8085C28.0577 39.7177 25.8664 39.4371 23.6668 38.9749C20.7229 38.3393 17.9445 37.4149 15.4223 36.2263C16.2493 32.512 17.7873 28.0054 20.235 23.0117C20.5741 22.2854 20.9379 21.5755 21.31 20.8822ZM17.1589 15.4016C16.1748 14.4771 15.4306 13.5279 14.9262 12.5622C17.1506 11.225 19.6148 10.1355 22.2445 9.34314C23.8073 8.87266 25.3868 8.526 26.9662 8.28663C24.6839 10.8289 22.4181 14.0644 20.3343 17.7209C19.1435 17.0358 18.0768 16.26 17.1589 15.4016ZM31.1339 20.8244C29.877 20.7749 28.587 20.6181 27.3218 20.3457C25.6018 19.9825 23.9645 19.4543 22.4595 18.7939C24.6756 14.9228 27.1068 11.5552 29.4966 9.046C30.2408 11.9844 30.8693 15.9298 31.1339 20.8244ZM26.3543 2.86378C26.7595 2.87203 27.2556 3.35076 27.7766 4.29171C27.512 4.17616 27.2473 4.06886 26.9827 3.96981C25.9077 3.55711 24.841 3.24346 23.7908 3.01235C24.6343 2.9133 25.486 2.86378 26.3543 2.86378ZM14.2729 8.69933C14.5375 7.46949 15.2818 6.37171 16.4229 5.45552C19.1931 4.63013 22.4264 4.82822 25.8168 6.06632C24.3945 6.31393 22.9639 6.64409 21.5498 7.06505C18.9285 7.84917 16.456 8.92219 14.1902 10.2346C14.1489 9.71457 14.1737 9.20282 14.2729 8.69933ZM12.0485 7.84092C12.0154 7.96473 11.9823 8.08028 11.9575 8.21235C11.7177 9.33489 11.7425 10.4739 12.0237 11.613C9.46849 13.3711 7.24407 15.4593 5.46619 17.7952C4.92869 18.505 4.44907 19.2314 4.0108 19.966C5.32561 15.1044 8.19503 10.8784 12.0485 7.84092ZM12.4289 44.4555C8.45965 41.4593 5.49926 37.225 4.09349 32.3304C3.89503 31.5546 3.76272 30.7704 3.71311 29.9781C4.50696 31.1006 5.47446 32.2066 6.62388 33.2714C8.36042 34.8727 10.4277 36.3089 12.7266 37.5387C12.2635 40.1635 12.1312 42.5406 12.4289 44.4555ZM8.24465 31.5216C6.22696 29.6562 4.83772 27.6917 4.12657 25.7273C4.68888 23.5317 5.77215 21.3279 7.36811 19.2231C8.88138 17.2174 10.7668 15.4181 12.9333 13.8663C13.5535 14.9889 14.43 16.0866 15.5381 17.1266C16.5966 18.1171 17.8204 19.0085 19.1931 19.7927C18.8127 20.5025 18.4489 21.2289 18.0933 21.9635C15.9846 26.2803 14.2646 30.9025 13.2475 35.1038C11.3704 34.0555 9.67522 32.8504 8.24465 31.5216ZM26.4039 49.119C26.346 49.119 26.2881 49.1273 26.2385 49.1355C22.6993 49.1108 19.3502 48.3019 16.3485 46.8574C16.2823 46.7996 16.1996 46.7501 16.117 46.7089C14.7939 46.065 14.2646 43.1266 14.951 38.6365C17.4896 39.7755 20.2516 40.6752 23.1541 41.2943C25.3537 41.7647 27.545 42.0536 29.695 42.1609C28.6448 46.7254 27.297 49.119 26.4039 49.119ZM40.0977 44.6371C37.1373 46.8162 33.6395 48.3101 29.8439 48.8796C30.7948 47.2371 31.5639 44.926 32.1427 42.2104C35.5 42.1692 38.6837 41.6822 41.5035 40.733C42.2146 40.4936 42.8844 40.2295 43.5294 39.9406C42.7521 41.8555 41.6027 43.4485 40.0977 44.6371ZM44.4308 36.7958C43.3641 37.4479 42.1402 38.0174 40.751 38.4796C38.295 39.305 35.5331 39.7508 32.5975 39.825C33.3004 35.6073 33.6395 30.7127 33.6395 25.9501C33.6395 25.0257 33.6312 24.093 33.5981 23.1685C36.5585 22.9704 39.2956 22.2028 41.5366 20.9152C43.6121 25.0174 44.7285 29.3425 44.7202 33.42C44.7202 34.6085 44.621 35.7393 44.4308 36.7958Z" fill="url(#paint0_radial_3536_54974)"/>
</g>
<defs>
<radialGradient id="paint0_radial_3536_54974" cx="0" cy="0" r="1" gradientUnits="userSpaceOnUse" gradientTransform="translate(49.6225 10.0211) scale(42.3627 42.2846)">
<stop stop-color="white"/>
<stop offset="0.0598" stop-color="#EBF8FD"/>
<stop offset="0.1829" stop-color="#B6E7F7"/>
<stop offset="0.3589" stop-color="#60CCEE"/>
<stop offset="0.544" stop-color="#00ADE4"/>
<stop offset="1" stop-color="#002345"/>
</radialGradient>
<clipPath id="clip0_3536_54974">
<rect width="258" height="52" fill="white" transform="translate(0.000488281)"/>
</clipPath>
</defs>
</svg>
