<svg width="143" height="35" viewBox="0 0 143 35" fill="none" xmlns="http://www.w3.org/2000/svg">
<path d="M9.90734 18.0389C9.4956 17.6946 9.03306 17.4161 8.53614 17.2133C8.11359 17.042 7.66275 16.951 7.20681 16.9451C6.73379 16.9246 6.26716 17.0603 5.87879 17.3311C5.71686 17.4439 5.58515 17.5948 5.49525 17.7704C5.40536 17.9461 5.36004 18.1412 5.36328 18.3385C5.35509 18.5995 5.44896 18.8535 5.62496 19.0464C5.81783 19.2478 6.04685 19.4111 6.30009 19.5279C6.60178 19.673 6.91571 19.7912 7.23821 19.8811C7.58712 19.9814 7.93341 20.0887 8.27708 20.203C9.65002 20.6609 10.6531 21.2715 11.2864 22.0347C11.9197 22.798 12.2376 23.7945 12.2402 25.0244C12.2514 25.7948 12.1096 26.5598 11.8228 27.2749C11.552 27.9356 11.1341 28.5258 10.6008 29.0007C10.0257 29.5017 9.3549 29.881 8.62904 30.1154C7.77413 30.39 6.87997 30.5226 5.98215 30.5079C3.94576 30.5115 1.95961 29.8758 0.303711 28.6906L2.10406 25.3044C2.65663 25.815 3.28518 26.2365 3.96722 26.554C4.54262 26.8155 5.16695 26.9519 5.79898 26.9543C6.48632 26.9543 6.99747 26.7973 7.33242 26.4833C7.56956 26.2778 7.73407 26.0013 7.80149 25.6949C7.86891 25.3884 7.83563 25.0684 7.70662 24.7824C7.60584 24.5859 7.45906 24.4167 7.27877 24.2891C7.03609 24.1165 6.77225 23.9758 6.49373 23.8704C6.17187 23.7422 5.7824 23.5996 5.32534 23.4426C4.78279 23.2681 4.25027 23.0789 3.72778 22.8747C3.22213 22.6767 2.75197 22.3978 2.33565 22.0491C1.91728 21.693 1.58077 21.2507 1.34912 20.7525C1.09965 20.2292 0.974481 19.5684 0.973609 18.7703C0.961937 18.0264 1.09526 17.2874 1.36613 16.5944C1.61645 15.9651 1.99624 15.3954 2.48088 14.9223C2.98501 14.4434 3.58347 14.0749 4.23806 13.8403C4.98423 13.5737 5.77212 13.443 6.56439 13.4543C7.41002 13.4598 8.25168 13.5706 9.06997 13.784C9.94247 14.006 10.7847 14.3333 11.5782 14.7588L9.90734 18.0389Z" fill="black"/>
<path d="M19.0807 13.8989V22.6861C19.0807 23.1584 19.0977 23.6399 19.1343 24.1332C19.1623 24.5951 19.2708 25.0485 19.4549 25.473C19.6351 25.874 19.9296 26.2131 20.3014 26.4478C20.6869 26.6981 21.2299 26.8233 21.9304 26.8233C22.6308 26.8233 23.1703 26.6981 23.5488 26.4478C23.9178 26.2097 24.2114 25.8716 24.3954 25.473C24.5871 25.0505 24.6998 24.5964 24.7277 24.1332C24.7626 23.6404 24.7805 23.158 24.7813 22.6861V13.8989H28.9577V23.2644C28.9577 25.7809 28.3825 27.617 27.232 28.7728C26.0815 29.9285 24.3134 30.5073 21.9277 30.509C19.5412 30.509 17.7692 29.9307 16.6117 28.7741C15.4542 27.6175 14.8755 25.7813 14.8755 23.2657V13.8989H19.0807Z" fill="black"/>
<path d="M36.5461 30.0602H32.3462V13.8989H39.0321C40.8473 13.8989 42.2372 14.3704 43.2019 15.3133C44.1667 16.2562 44.6486 17.5851 44.6477 19.3C44.6477 21.0157 44.1658 22.3446 43.2019 23.2867C42.2381 24.2287 40.8481 24.7006 39.0321 24.7024H36.5461V30.0602ZM36.5461 21.3188H37.9396C39.4817 21.3188 40.2532 20.6472 40.2541 19.3039C40.255 17.9606 39.4835 17.2894 37.9396 17.2903H36.5461V21.3188Z" fill="black"/>
<path d="M56.0756 17.4565H51.0815V20.157H55.7917V23.7158H51.0815V26.5014H56.0756V30.0602H46.8828V13.8989H56.0769L56.0756 17.4565Z" fill="black"/>
<path d="M72.5362 30.0605H67.3026L63.2937 23.8456V30.0605H59.0938V13.9005H65.6357C66.4384 13.8827 67.2373 14.0159 67.9908 14.293C68.6005 14.517 69.1536 14.872 69.6111 15.3329C70.0687 15.7938 70.4196 16.3496 70.639 16.9608C70.8636 17.5793 70.9761 18.2328 70.9714 18.8907C70.9714 20.1197 70.6748 21.1163 70.0817 21.8804C69.4885 22.6445 68.6132 23.1622 67.4557 23.4335L72.5362 30.0605ZM63.2976 21.1228H64.0905C64.9192 21.1228 65.555 20.9514 65.9982 20.6086C66.4413 20.2658 66.6628 19.773 66.6628 19.1302C66.6628 18.4864 66.4413 17.9936 65.9982 17.6517C65.555 17.3097 64.9192 17.137 64.0905 17.1335H63.2976V21.1228Z" fill="black"/>
<path d="M74.2935 30.0602V13.9002H78.4934L86.2535 23.7799V13.8989H90.4404V30.0602H86.2535L78.4934 20.1792V30.0602H74.2935Z" fill="black"/>
<path d="M115.551 13.8989L119.453 23.7368L123.378 13.8989H127.944L121.129 30.0602H117.785L110.99 13.9002L115.551 13.8989Z" fill="black"/>
<path d="M137.393 27.2524H131.391L130.427 30.0602H125.947L132.096 13.8989H136.683L142.833 30.0602H138.353L137.393 27.2524ZM136.278 24.0586L134.391 18.6785L132.506 24.0586H136.278Z" fill="black"/>
<path d="M5.97429 2.40384C5.54906 1.72871 4.95113 1.29301 4.06403 1.29301C3.82918 1.29264 3.59661 1.33903 3.37987 1.42949C3.16314 1.51994 2.96658 1.65265 2.80168 1.81987C2.63677 1.98709 2.50682 2.18547 2.41939 2.40344C2.33196 2.62142 2.28882 2.85462 2.29246 3.08944C2.29246 4.07597 3.22797 4.48681 3.99338 4.84923L5.79112 5.78474C6.50158 6.23482 6.864 6.80921 6.864 7.65705C6.864 9.21666 5.44178 10.3903 3.9188 10.3903C2.61041 10.3903 1.58462 9.57909 1.14893 8.36882L1.67228 8.132C2.0648 9.13031 2.80797 9.83291 3.94366 9.83291C5.17879 9.83291 6.26476 8.85947 6.26476 7.60864C6.26476 6.54753 5.17879 6.09875 4.36758 5.69969L2.66667 4.80082C2.04256 4.4083 1.69322 3.86532 1.69322 3.11561C1.69322 1.71824 2.69153 0.73171 4.10198 0.73171C4.56742 0.729877 5.02506 0.851298 5.42837 1.08363C5.83169 1.31597 6.1663 1.65094 6.39822 2.0545L5.97429 2.40384Z" fill="black"/>
<path d="M14.7472 10.2629H14.148V1.41555H11.7144V0.854248H17.1821V1.41555H14.7485L14.7472 10.2629Z" fill="black"/>
<path d="M22.4338 7.16951L21.1739 10.2639H20.5615L24.509 0.54248L28.4341 10.2639H27.8231L26.5618 7.16951H22.4338ZM24.505 2.06676L22.6589 6.60952H26.3407L24.505 2.06676Z" fill="black"/>
<path d="M38.4067 10.2642H37.7237L34.6529 5.80914H34.3533V10.2642H33.7554V0.854248H34.9329C35.6944 0.854248 36.4428 0.867333 37.08 1.3292C37.7538 1.80284 38.0286 2.55124 38.0286 3.35067C38.0286 4.98486 36.8929 5.83662 35.332 5.80914L38.4067 10.2642ZM35.1069 5.24784C35.6944 5.24784 36.2845 5.22168 36.7542 4.81084C36.9685 4.62851 37.1392 4.40046 37.2538 4.14347C37.3684 3.88648 37.4239 3.60708 37.4163 3.32581C37.4163 2.62582 37.0918 1.92713 36.418 1.62489C35.9181 1.38677 35.2823 1.41162 34.7327 1.41162H34.3402V5.24392L35.1069 5.24784Z" fill="black"/>
<path d="M45.9328 10.2642H45.3335V1.41555H42.8999V0.854248H48.3651V1.41555H45.9315L45.9328 10.2642Z" fill="black"/>
<path d="M59.3974 0.854248H59.9966V6.71979C59.9966 7.68015 59.9966 8.50313 59.3595 9.28948C58.7236 10.0143 57.7501 10.3885 56.8015 10.3885C55.853 10.3885 54.8795 10.0143 54.2436 9.29079C53.6064 8.50575 53.6064 7.68015 53.6064 6.71979V0.854248H54.2096V6.54446C54.2096 7.39361 54.2096 8.29117 54.6963 8.91528C55.1582 9.51452 56.0819 9.83115 56.8055 9.83115C57.529 9.83115 58.4527 9.51845 58.9146 8.91528C59.4013 8.29117 59.4013 7.39361 59.4013 6.54446L59.3974 0.854248Z" fill="black"/>
<path d="M66.7703 10.2642H66.1724V0.854248H67.8327C68.5693 0.854248 69.2798 0.905275 69.8673 1.40377C70.1413 1.64458 70.3592 1.94252 70.5057 2.27663C70.6522 2.61073 70.7237 2.97288 70.7151 3.33758C70.7151 4.01272 70.4534 4.76112 69.9301 5.19812C69.3557 5.69662 68.5693 5.79737 67.8366 5.79737H66.7703V10.2642ZM67.8563 5.23476C68.4686 5.23476 69.0168 5.16018 69.5035 4.72317C69.7011 4.546 69.8581 4.32826 69.9638 4.08484C70.0695 3.84141 70.1213 3.57804 70.1159 3.31272C70.1236 3.02122 70.0633 2.73192 69.9398 2.46778C69.8162 2.20364 69.6328 1.97194 69.4041 1.79106C68.9292 1.42863 68.3312 1.41686 67.7568 1.41686H66.7703V5.23476H67.8563Z" fill="black"/>
<path d="M92.2183 13.4251L103.05 14.6288L98.3978 12.1062L92.2183 13.4251Z" fill="#FFCC33"/>
<path d="M103.051 14.632L104.212 9.03857L98.3979 12.1094L103.051 14.632Z" fill="#FF6633"/>
<path d="M104.213 9.03857L109.069 13.2254L103.051 14.632L104.213 9.03857Z" fill="#FF9933"/>
<path d="M103.051 14.6319L114.226 16.3485L109.069 13.2253L103.051 14.6319Z" fill="#FF6633"/>
<path d="M103.051 14.6284L107.562 25.3259L114.226 16.345L103.051 14.6284Z" fill="#FF3399"/>
<path d="M103.05 14.6295L96.1879 23.7294L92.2183 13.4258L103.05 14.6295Z" fill="#FF9933"/>
<path d="M114.226 16.3486L112.711 22.977L107.562 25.3295L114.226 16.3486Z" fill="#FF6699"/>
<path d="M102.183 21.2345L107.562 25.3259L103.051 14.6284L102.183 21.2345Z" fill="#993366"/>
<path d="M112.349 29.0019L112.711 22.9741L107.562 25.3266L112.349 29.0019Z" fill="#FF3333"/>
<path d="M103.051 14.6284L102.267 21.1338L96.188 23.7283L103.051 14.6284Z" fill="#FFCC33"/>
<path d="M92.2183 13.4258L92.4917 20.4087L96.2298 23.7673L92.2183 13.4258Z" fill="#FF6633"/>
<path d="M92.492 20.4075L96.1882 23.7282L91.1143 26.0584L92.492 20.4075Z" fill="#FF9933"/>
<path d="M91.1143 26.0615L96.2916 29.704L96.1882 23.7312L91.1143 26.0615Z" fill="#FFCC33"/>
<path d="M96.188 23.7304L107.627 25.2978L102.237 21.1201L96.188 23.7304Z" fill="#FF3333"/>
<path d="M107.627 25.2957L106.548 31.224L112.349 29.001L107.627 25.2957Z" fill="#CC3333"/>
<path d="M107.627 25.2957L100.51 34.3445L106.548 31.224L107.627 25.2957Z" fill="#FF6699"/>
<path d="M96.188 23.7312L96.2613 29.6883L100.512 34.3541L96.188 23.7312Z" fill="#FF3333"/>
<path d="M96.188 23.7312L107.627 25.2987L100.51 34.3475L96.188 23.7312Z" fill="#FFCC66"/>
</svg>
