<svg width="90" height="68" viewBox="0 0 90 68" fill="none" xmlns="http://www.w3.org/2000/svg">
<path d="M0.0673828 0.497589H3.39577V52.7838H0.0673828V0.497589ZM6.72417 0.497589H16.7093V52.7838H6.72417V0.497589ZM20.0377 52.7838V0.497589H30.0229V52.7838H20.0377Z" fill="#990000"/>
<path d="M79.947 0.497589H83.2754V52.7838H79.947V0.497589ZM86.6037 52.7838V0.497589H89.9321V52.7838H86.6037ZM33.3496 0.497589H36.678V52.7838H33.3496V0.497589ZM40.0064 52.7838V0.497589H43.3348V52.7838H40.0064Z" fill="#339966"/>
<path d="M46.6699 0.497589H56.6551V52.7838H46.6699V0.497589ZM59.9835 0.497589H63.3119V52.7838H59.9835V0.497589ZM66.6403 52.7838V0.497589H76.6254V52.7838H66.6403Z" fill="#006699"/>
<path d="M84.6097 56.8684L89.6874 67.3672H86.6244L85.6826 65.293H80.564L79.7123 67.3672H76.6903L81.3011 56.8684H84.6097ZM84.8391 63.4593L82.9964 59.3785L81.3175 63.4593H84.8391ZM78.189 56.8684V58.7923H74.045V67.3672H71.195V58.7923H67.051V56.8684H78.189ZM63.4475 56.8684L68.5251 67.3672H65.4622L64.5204 65.293H59.4018L58.5501 67.3672H55.5281L60.1389 56.8684H63.4475ZM63.6768 63.4593L61.8342 59.3785L60.1553 63.4593H63.6768ZM44.1935 56.8684H49.2384C51.1875 56.8684 52.7272 57.3594 53.8574 58.3414C54.993 59.3184 55.5608 60.5835 55.5608 62.1366C55.5608 63.7649 54.9848 65.045 53.8328 65.9769C52.6862 66.9038 51.0483 67.3672 48.919 67.3672H44.1935V56.8684ZM47.0435 58.7923V65.4433H48.9026C50.1092 65.4433 51.0319 65.1402 51.6707 64.534C52.3095 63.9227 52.6289 63.1186 52.6289 62.1216C52.6289 61.0895 52.3041 60.2778 51.6544 59.6866C51.0101 59.0904 50.0819 58.7923 48.8699 58.7923H47.0435ZM41.5564 56.8684V67.3672H38.7064V56.8684H41.5564ZM36.1594 56.8684L32.4331 61.7984L37.4862 67.3672H33.9154L29.3865 62.4447V67.3672H26.5365V56.8684H29.3865V61.5955L33.0228 56.8684H36.1594ZM23.8994 56.8684V67.3672H21.0494V56.8684H23.8994ZM9.86227 60.6561L6.32432 67.5025H5.09586L0.0673828 56.8684H3.08939L5.7838 62.6702L8.7239 56.8684H11.017L13.9571 62.6702L16.6352 56.8684H19.6572L14.6451 67.5025H13.4166L9.86227 60.6561Z" fill="#484848"/>
</svg>
